<svg width="60" height="60" viewBox="0 0 60 60" fill="none" xmlns="http://www.w3.org/2000/svg">
<path d="M54 40.0547H51.9453V15.7451C51.9453 13.75 50.3223 12.127 48.3271 12.127H11.6729C9.67773 12.127 8.05469 13.75 8.05469 15.7451V40.0547H6C5.44775 40.0547 5 40.502 5 41.0547C5 44.8145 8.05859 47.873 11.8184 47.873H48.1816C51.9414 47.873 55 44.8145 55 41.0547C55 40.502 54.5522 40.0547 54 40.0547ZM10.0547 15.7451C10.0547 14.8525 10.7808 14.127 11.6729 14.127H48.3271C49.2192 14.127 49.9453 14.8525 49.9453 15.7451V40.0547H10.0547V15.7451ZM48.1816 45.873H11.8184C9.50439 45.873 7.56592 44.2334 7.10449 42.0547H9.05469H50.9453H52.8955C52.4341 44.2334 50.4956 45.873 48.1816 45.873Z" fill="#00A1A5"/>
<path d="M43.5694 22.7979C43.5753 22.376 43.315 21.9951 42.9195 21.8477L30.3502 17.1504C30.1334 17.0703 29.8946 17.0654 29.6759 17.1406L17.1065 21.4482C16.7071 21.585 16.4366 21.959 16.4308 22.3809C16.4249 22.8027 16.6852 23.1836 17.0807 23.3311L20.7493 24.7021L17.1095 25.9482C16.7096 26.085 16.4391 26.458 16.4332 26.8809C16.4273 27.3027 16.6876 27.6836 17.0831 27.8311L20.7541 29.2034L17.1095 30.4512C16.7096 30.5879 16.4391 30.9609 16.4332 31.3838C16.4273 31.8057 16.6876 32.1865 17.0831 32.334L29.651 37.0322C29.7638 37.0742 29.8824 37.0957 30.0011 37.0957C30.1104 37.0957 30.2203 37.0781 30.3253 37.042L42.8932 32.7344C43.2926 32.5967 43.5631 32.2236 43.5689 31.8018C43.5748 31.3799 43.3146 30.999 42.919 30.8516L39.2481 29.4808L42.8932 28.2315C43.2926 28.0938 43.5631 27.7207 43.5689 27.2988C43.5748 26.877 43.3146 26.4961 42.919 26.3486L39.251 24.9789L42.8937 23.7305C43.2931 23.5938 43.5636 23.2197 43.5694 22.7979ZM39.6026 31.7481L30.0157 35.0332L20.3995 31.4385L23.706 30.3069L29.651 32.5293C29.7638 32.5713 29.8824 32.5928 30.0011 32.5928C30.1104 32.5928 30.2203 32.5752 30.3253 32.5391L36.2682 30.5021L39.6026 31.7481ZM39.6026 27.2451L30.0157 30.5303L20.3995 26.9356L23.7018 25.8054L29.65 28.0283C29.7628 28.0703 29.8814 28.0918 30.0001 28.0918C30.1095 28.0918 30.2193 28.0742 30.3243 28.0381L36.2707 26.0002L39.6026 27.2451ZM30.0147 26.0293L20.3966 22.4356L29.9854 19.1494L39.6036 22.7432L30.0147 26.0293Z" fill="#00A1A5"/>
</svg>
