<svg width="49" height="49" viewBox="0 0 49 49" fill="none" xmlns="http://www.w3.org/2000/svg">
<path d="M27.1011 9.24781H21.8983C21.6903 9.24781 21.4909 9.16521 21.3439 9.01818C21.1969 8.87115 21.1143 8.67174 21.1143 8.46381C21.1143 8.25588 21.1969 8.05647 21.3439 7.90944C21.4909 7.76241 21.6903 7.67981 21.8983 7.67981H27.1011C27.309 7.67981 27.5084 7.76241 27.6554 7.90944C27.8025 8.05647 27.8851 8.25588 27.8851 8.46381C27.8851 8.67174 27.8025 8.87115 27.6554 9.01818C27.5084 9.16521 27.309 9.24781 27.1011 9.24781Z" fill="#00A1A5"/>
<path d="M41.0862 44.884H7.91322C6.9065 44.8825 5.94147 44.4818 5.2297 43.7699C4.51793 43.0579 4.11751 42.0928 4.11621 41.086V11.4783C4.11738 10.4711 4.51802 9.50559 5.23022 8.79347C5.94243 8.08136 6.90803 7.68085 7.91518 7.67981H9.56844C9.77637 7.67981 9.97578 7.76241 10.1228 7.90944C10.2698 8.05647 10.3524 8.25588 10.3524 8.46381C10.3524 8.67174 10.2698 8.87115 10.1228 9.01818C9.97578 9.16521 9.77637 9.24781 9.56844 9.24781H7.91518C7.32373 9.24833 6.75665 9.48348 6.33839 9.90165C5.92013 10.3198 5.68486 10.8868 5.68421 11.4783V41.086C5.68499 41.6774 5.92032 42.2443 6.33857 42.6624C6.75681 43.0804 7.32382 43.3155 7.91518 43.316H41.0882C41.679 43.3147 42.2453 43.0793 42.6629 42.6613C43.0805 42.2434 43.3154 41.6769 43.3162 41.086V11.4783C43.3156 10.887 43.0804 10.3201 42.6624 9.90199C42.2443 9.48385 41.6775 9.24859 41.0862 9.24781H39.432C39.2241 9.24781 39.0246 9.16521 38.8776 9.01818C38.7306 8.87115 38.648 8.67174 38.648 8.46381C38.648 8.25588 38.7306 8.05647 38.8776 7.90944C39.0246 7.76241 39.2241 7.67981 39.432 7.67981H41.0862C42.0932 7.68098 43.0587 8.08156 43.7707 8.79368C44.4827 9.50579 44.8832 10.4713 44.8842 11.4783V41.086C44.883 42.093 44.4825 43.0583 43.7705 43.7703C43.0585 44.4824 42.0932 44.8829 41.0862 44.884Z" fill="#00A1A5"/>
<path d="M18.3345 9.24781H13.1317C12.9237 9.24781 12.7243 9.16521 12.5773 9.01818C12.4303 8.87115 12.3477 8.67174 12.3477 8.46381C12.3477 8.25588 12.4303 8.05647 12.5773 7.90944C12.7243 7.76241 12.9237 7.67981 13.1317 7.67981H18.3345C18.5424 7.67981 18.7418 7.76241 18.8888 7.90944C19.0359 8.05647 19.1185 8.25588 19.1185 8.46381C19.1185 8.67174 19.0359 8.87115 18.8888 9.01818C18.7418 9.16521 18.5424 9.24781 18.3345 9.24781Z" fill="#00A1A5"/>
<path d="M35.8677 9.24781H30.6649C30.4569 9.24781 30.2575 9.16521 30.1105 9.01818C29.9635 8.87115 29.8809 8.67174 29.8809 8.46381C29.8809 8.25588 29.9635 8.05647 30.1105 7.90944C30.2575 7.76241 30.4569 7.67981 30.6649 7.67981H35.8677C36.0756 7.67981 36.275 7.76241 36.4221 7.90944C36.5691 8.05647 36.6517 8.25588 36.6517 8.46381C36.6517 8.67174 36.5691 8.87115 36.4221 9.01818C36.275 9.16521 36.0756 9.24781 35.8677 9.24781Z" fill="#00A1A5"/>
<path d="M13.4885 24.4824H9.21173C9.0038 24.4824 8.80439 24.3998 8.65736 24.2528C8.51033 24.1058 8.42773 23.9063 8.42773 23.6984V19.4222C8.42773 19.2143 8.51033 19.0148 8.65736 18.8678C8.80439 18.7208 9.0038 18.6382 9.21173 18.6382H13.4885C13.6964 18.6382 13.8958 18.7208 14.0428 18.8678C14.1899 19.0148 14.2725 19.2143 14.2725 19.4222V23.6984C14.2725 23.9063 14.1899 24.1058 14.0428 24.2528C13.8958 24.3998 13.6964 24.4824 13.4885 24.4824ZM9.99573 22.9144H12.7045V20.2062H9.99573V22.9144Z" fill="#00A1A5"/>
<path d="M22.2546 24.4824H17.9783C17.7704 24.4824 17.571 24.3998 17.424 24.2528C17.2769 24.1058 17.1943 23.9063 17.1943 23.6984V19.4222C17.1943 19.2143 17.2769 19.0148 17.424 18.8678C17.571 18.7208 17.7704 18.6382 17.9783 18.6382H22.2546C22.4625 18.6382 22.6619 18.7208 22.8089 18.8678C22.956 19.0148 23.0386 19.2143 23.0386 19.4222V23.6984C23.0386 23.9063 22.956 24.1058 22.8089 24.2528C22.6619 24.3998 22.4625 24.4824 22.2546 24.4824ZM18.7623 22.9144H21.4706V20.2062H18.7623V22.9144Z" fill="#00A1A5"/>
<path d="M31.0212 24.4824H26.7449C26.537 24.4824 26.3376 24.3998 26.1906 24.2528C26.0435 24.1058 25.9609 23.9063 25.9609 23.6984V19.4222C25.9609 19.2143 26.0435 19.0148 26.1906 18.8678C26.3376 18.7208 26.537 18.6382 26.7449 18.6382H31.0212C31.2291 18.6382 31.4285 18.7208 31.5755 18.8678C31.7226 19.0148 31.8052 19.2143 31.8052 19.4222V23.6984C31.8052 23.9063 31.7226 24.1058 31.5755 24.2528C31.4285 24.3998 31.2291 24.4824 31.0212 24.4824ZM27.5289 22.9144H30.2372V20.2062H27.5289V22.9144Z" fill="#00A1A5"/>
<path d="M39.7878 24.4824H35.5115C35.3036 24.4824 35.1042 24.3998 34.9572 24.2528C34.8101 24.1058 34.7275 23.9063 34.7275 23.6984V19.4222C34.7275 19.2143 34.8101 19.0148 34.9572 18.8678C35.1042 18.7208 35.3036 18.6382 35.5115 18.6382H39.7878C39.9957 18.6382 40.1951 18.7208 40.3421 18.8678C40.4892 19.0148 40.5718 19.2143 40.5718 19.4222V23.6984C40.5718 23.9063 40.4892 24.1058 40.3421 24.2528C40.1951 24.3998 39.9957 24.4824 39.7878 24.4824ZM36.2955 22.9144H39.0038V20.2062H36.2955V22.9144Z" fill="#00A1A5"/>
<path d="M13.4885 32.7678H9.21173C9.0038 32.7678 8.80439 32.6852 8.65736 32.5382C8.51033 32.3912 8.42773 32.1917 8.42773 31.9838V27.7076C8.42773 27.4997 8.51033 27.3002 8.65736 27.1532C8.80439 27.0062 9.0038 26.9236 9.21173 26.9236H13.4885C13.6964 26.9236 13.8958 27.0062 14.0428 27.1532C14.1899 27.3002 14.2725 27.4997 14.2725 27.7076V31.9838C14.2725 32.1917 14.1899 32.3912 14.0428 32.5382C13.8958 32.6852 13.6964 32.7678 13.4885 32.7678ZM9.99573 31.1998H12.7045V28.4916H9.99573V31.1998Z" fill="#00A1A5"/>
<path d="M22.2546 32.7678H17.9783C17.7704 32.7678 17.571 32.6852 17.424 32.5382C17.2769 32.3912 17.1943 32.1917 17.1943 31.9838V27.7076C17.1943 27.4997 17.2769 27.3002 17.424 27.1532C17.571 27.0062 17.7704 26.9236 17.9783 26.9236H22.2546C22.4625 26.9236 22.6619 27.0062 22.8089 27.1532C22.956 27.3002 23.0386 27.4997 23.0386 27.7076V31.9838C23.0386 32.1917 22.956 32.3912 22.8089 32.5382C22.6619 32.6852 22.4625 32.7678 22.2546 32.7678ZM18.7623 31.1998H21.4706V28.4916H18.7623V31.1998Z" fill="#00A1A5"/>
<path d="M31.0212 32.7678H26.7449C26.537 32.7678 26.3376 32.6852 26.1906 32.5382C26.0435 32.3912 25.9609 32.1917 25.9609 31.9838V27.7076C25.9609 27.4997 26.0435 27.3002 26.1906 27.1532C26.3376 27.0062 26.537 26.9236 26.7449 26.9236H31.0212C31.2291 26.9236 31.4285 27.0062 31.5755 27.1532C31.7226 27.3002 31.8052 27.4997 31.8052 27.7076V31.9838C31.8052 32.1917 31.7226 32.3912 31.5755 32.5382C31.4285 32.6852 31.2291 32.7678 31.0212 32.7678ZM27.5289 31.1998H30.2372V28.4916H27.5289V31.1998Z" fill="#00A1A5"/>
<path d="M39.7878 32.7678H35.5115C35.3036 32.7678 35.1042 32.6852 34.9572 32.5382C34.8101 32.3912 34.7275 32.1917 34.7275 31.9838V27.7076C34.7275 27.4997 34.8101 27.3002 34.9572 27.1532C35.1042 27.0062 35.3036 26.9236 35.5115 26.9236H39.7878C39.9957 26.9236 40.1951 27.0062 40.3421 27.1532C40.4892 27.3002 40.5718 27.4997 40.5718 27.7076V31.9838C40.5718 32.1917 40.4892 32.3912 40.3421 32.5382C40.1951 32.6852 39.9957 32.7678 39.7878 32.7678ZM36.2955 31.1998H39.0038V28.4916H36.2955V31.1998Z" fill="#00A1A5"/>
<path d="M13.4885 41.0532H9.21173C9.0038 41.0532 8.80439 40.9706 8.65736 40.8236C8.51033 40.6766 8.42773 40.4771 8.42773 40.2692V35.993C8.42773 35.7851 8.51033 35.5856 8.65736 35.4386C8.80439 35.2916 9.0038 35.209 9.21173 35.209H13.4885C13.6964 35.209 13.8958 35.2916 14.0428 35.4386C14.1899 35.5856 14.2725 35.7851 14.2725 35.993V40.2692C14.2725 40.4771 14.1899 40.6766 14.0428 40.8236C13.8958 40.9706 13.6964 41.0532 13.4885 41.0532ZM9.99573 39.4852H12.7045V36.777H9.99573V39.4852Z" fill="#00A1A5"/>
<path d="M22.2546 41.0532H17.9783C17.7704 41.0532 17.571 40.9706 17.424 40.8236C17.2769 40.6766 17.1943 40.4771 17.1943 40.2692V35.993C17.1943 35.7851 17.2769 35.5856 17.424 35.4386C17.571 35.2916 17.7704 35.209 17.9783 35.209H22.2546C22.4625 35.209 22.6619 35.2916 22.8089 35.4386C22.956 35.5856 23.0386 35.7851 23.0386 35.993V40.2692C23.0386 40.4771 22.956 40.6766 22.8089 40.8236C22.6619 40.9706 22.4625 41.0532 22.2546 41.0532ZM18.7623 39.4852H21.4706V36.777H18.7623V39.4852Z" fill="#00A1A5"/>
<path d="M31.0212 41.0532H26.7449C26.537 41.0532 26.3376 40.9706 26.1906 40.8236C26.0435 40.6766 25.9609 40.4771 25.9609 40.2692V35.993C25.9609 35.7851 26.0435 35.5856 26.1906 35.4386C26.3376 35.2916 26.537 35.209 26.7449 35.209H31.0212C31.2291 35.209 31.4285 35.2916 31.5755 35.4386C31.7226 35.5856 31.8052 35.7851 31.8052 35.993V40.2692C31.8052 40.4771 31.7226 40.6766 31.5755 40.8236C31.4285 40.9706 31.2291 41.0532 31.0212 41.0532ZM27.5289 39.4852H30.2372V36.777H27.5289V39.4852Z" fill="#00A1A5"/>
<path d="M39.7878 41.0532H35.5115C35.3036 41.0532 35.1042 40.9706 34.9572 40.8236C34.8101 40.6766 34.7275 40.4771 34.7275 40.2692V35.993C34.7275 35.7851 34.8101 35.5856 34.9572 35.4386C35.1042 35.2916 35.3036 35.209 35.5115 35.209H39.7878C39.9957 35.209 40.1951 35.2916 40.3421 35.4386C40.4892 35.5856 40.5718 35.7851 40.5718 35.993V40.2692C40.5718 40.4771 40.4892 40.6766 40.3421 40.8236C40.1951 40.9706 39.9957 41.0532 39.7878 41.0532ZM36.2955 39.4852H39.0038V36.777H36.2955V39.4852Z" fill="#00A1A5"/>
<path d="M44.1002 16.3748H4.90021C4.69228 16.3748 4.49287 16.2922 4.34584 16.1451C4.19881 15.9981 4.11621 15.7987 4.11621 15.5908C4.11621 15.3828 4.19881 15.1834 4.34584 15.0364C4.49287 14.8894 4.69228 14.8068 4.90021 14.8068H44.1002C44.3081 14.8068 44.5076 14.8894 44.6546 15.0364C44.8016 15.1834 44.8842 15.3828 44.8842 15.5908C44.8842 15.7987 44.8016 15.9981 44.6546 16.1451C44.5076 16.2922 44.3081 16.3748 44.1002 16.3748Z" fill="#00A1A5"/>
<path d="M11.3508 12.8115C10.6705 12.8107 10.0183 12.5401 9.5373 12.059C9.05631 11.5779 8.7858 10.9257 8.78516 10.2454V6.68161C8.78516 6.00116 9.05546 5.34858 9.53661 4.86743C10.0178 4.38627 10.6703 4.11597 11.3508 4.11597C12.0312 4.11597 12.6838 4.38627 13.165 4.86743C13.6461 5.34858 13.9164 6.00116 13.9164 6.68161V10.2454C13.9158 10.9257 13.6453 11.5779 13.1643 12.059C12.6833 12.5401 12.0311 12.8107 11.3508 12.8115ZM11.3508 5.68397C11.0863 5.68436 10.8328 5.78959 10.6458 5.9766C10.4588 6.16361 10.3535 6.41714 10.3532 6.68161V10.2454C10.3532 10.51 10.4583 10.7637 10.6454 10.9508C10.8325 11.1379 11.0862 11.243 11.3508 11.243C11.6154 11.243 11.8691 11.1379 12.0562 10.9508C12.2433 10.7637 12.3484 10.51 12.3484 10.2454V6.68161C12.348 6.41714 12.2428 6.16361 12.0558 5.9766C11.8688 5.78959 11.6153 5.68436 11.3508 5.68397Z" fill="#00A1A5"/>
<path d="M20.1169 12.8116C19.4366 12.8108 18.7843 12.5402 18.3032 12.0591C17.8222 11.578 17.5516 10.9258 17.5508 10.2454V6.68167C17.5601 6.0073 17.8345 5.3637 18.3147 4.89011C18.7949 4.41652 19.4422 4.151 20.1167 4.151C20.7911 4.151 21.4384 4.41652 21.9186 4.89011C22.3988 5.3637 22.6732 6.0073 22.6826 6.68167V10.2454C22.6819 10.9257 22.4114 11.578 21.9304 12.0591C21.4494 12.5402 20.7972 12.8108 20.1169 12.8116ZM20.1169 5.68403C19.8524 5.68429 19.5987 5.78947 19.4116 5.97649C19.2245 6.16351 19.1192 6.41712 19.1188 6.68167V10.2454C19.1158 10.3783 19.1395 10.5105 19.1883 10.6341C19.2371 10.7578 19.3102 10.8704 19.4031 10.9655C19.4961 11.0605 19.6071 11.136 19.7296 11.1876C19.8521 11.2391 19.9837 11.2657 20.1167 11.2657C20.2496 11.2657 20.3812 11.2391 20.5037 11.1876C20.6263 11.136 20.7373 11.0605 20.8302 10.9655C20.9232 10.8704 20.9962 10.7578 21.045 10.6341C21.0939 10.5105 21.1175 10.3783 21.1146 10.2454V6.68167C21.1142 6.4172 21.0089 6.16367 20.8219 5.97666C20.6349 5.78965 20.3814 5.68442 20.1169 5.68403Z" fill="#00A1A5"/>
<path d="M28.8835 12.8116C28.2032 12.8108 27.5509 12.5402 27.0698 12.0591C26.5888 11.578 26.3182 10.9258 26.3174 10.2454V6.68167C26.3267 6.0073 26.6011 5.3637 27.0813 4.89011C27.5615 4.41652 28.2088 4.151 28.8833 4.151C29.5577 4.151 30.205 4.41652 30.6852 4.89011C31.1654 5.3637 31.4398 6.0073 31.4492 6.68167V10.2454C31.4485 10.9257 31.178 11.578 30.697 12.0591C30.216 12.5402 29.5638 12.8108 28.8835 12.8116ZM28.8835 5.68403C28.619 5.68429 28.3653 5.78947 28.1782 5.97649C27.9911 6.16351 27.8858 6.41712 27.8854 6.68167V10.2454C27.8824 10.3783 27.9061 10.5105 27.9549 10.6341C28.0037 10.7578 28.0768 10.8704 28.1697 10.9655C28.2627 11.0605 28.3737 11.136 28.4962 11.1876C28.6187 11.2391 28.7503 11.2657 28.8833 11.2657C29.0162 11.2657 29.1478 11.2391 29.2703 11.1876C29.3929 11.136 29.5039 11.0605 29.5968 10.9655C29.6898 10.8704 29.7628 10.7578 29.8116 10.6341C29.8605 10.5105 29.8841 10.3783 29.8812 10.2454V6.68167C29.8808 6.4172 29.7755 6.16367 29.5885 5.97666C29.4015 5.78965 29.148 5.68442 28.8835 5.68403Z" fill="#00A1A5"/>
<path d="M37.6501 12.8116C36.9698 12.8108 36.3175 12.5402 35.8364 12.0591C35.3554 11.578 35.0848 10.9258 35.084 10.2454V6.68167C35.0933 6.0073 35.3677 5.3637 35.8479 4.89011C36.3281 4.41652 36.9754 4.151 37.6499 4.151C38.3243 4.151 38.9716 4.41652 39.4518 4.89011C39.932 5.3637 40.2064 6.0073 40.2158 6.68167V10.2454C40.2151 10.9257 39.9446 11.578 39.4636 12.0591C38.9826 12.5402 38.3304 12.8108 37.6501 12.8116ZM37.6501 5.68403C37.3856 5.68429 37.1319 5.78947 36.9448 5.97649C36.7577 6.16351 36.6524 6.41712 36.652 6.68167V10.2454C36.649 10.3783 36.6727 10.5105 36.7215 10.6341C36.7703 10.7578 36.8434 10.8704 36.9363 10.9655C37.0293 11.0605 37.1403 11.136 37.2628 11.1876C37.3853 11.2391 37.5169 11.2657 37.6499 11.2657C37.7828 11.2657 37.9144 11.2391 38.0369 11.1876C38.1595 11.136 38.2705 11.0605 38.3634 10.9655C38.4564 10.8704 38.5294 10.7578 38.5782 10.6341C38.6271 10.5105 38.6507 10.3783 38.6478 10.2454V6.68167C38.6474 6.4172 38.5421 6.16367 38.3551 5.97666C38.1681 5.78965 37.9146 5.68442 37.6501 5.68403Z" fill="#00A1A5"/>
</svg>
