<svg width="50" height="44" viewBox="0 0 50 44" fill="none" xmlns="http://www.w3.org/2000/svg">
<path d="M14.9713 20.7492H3.44167C3.63833 9.26879 5.9 7.37587 12.9554 3.19671C13.7667 2.70504 14.0371 1.67254 13.5454 0.836705C13.4322 0.643177 13.2816 0.474133 13.1023 0.339434C12.9231 0.204735 12.7188 0.107078 12.5014 0.0521584C12.284 -0.00276115 12.0578 -0.013843 11.8361 0.0195588C11.6144 0.0529607 11.4016 0.130177 11.21 0.246705C2.90083 5.16337 0 8.16254 0 22.4455V35.6959C0 39.8996 3.41708 43.2921 7.59625 43.2921H14.9713C19.2979 43.2921 22.5675 40.0225 22.5675 35.6959V28.3209C22.5675 24.0188 19.2979 20.7492 14.9713 20.7492ZM41.568 20.7492H30.0384C30.235 9.26879 32.4967 7.37587 39.5521 3.19671C40.3634 2.70504 40.6338 1.67254 40.1421 0.836705C40.0263 0.642586 39.8733 0.473265 39.6918 0.338468C39.5103 0.203672 39.304 0.106057 39.0847 0.0512329C38.8654 -0.00359166 38.6375 -0.0145457 38.4139 0.0189997C38.1904 0.052545 37.9757 0.129929 37.7821 0.246705C29.473 5.16337 26.5721 8.16254 26.5721 22.47V35.7205C26.5721 39.9242 29.9892 43.3167 34.1684 43.3167H41.5434C45.87 43.3167 49.1396 40.0471 49.1396 35.7205V28.3455C49.1642 24.0188 45.8946 20.7492 41.568 20.7492Z" fill="url(#paint0_linear_4777_7041)"/>
<defs>
<linearGradient id="paint0_linear_4777_7041" x1="0" y1="21.6584" x2="49.1398" y2="21.6584" gradientUnits="userSpaceOnUse">
<stop stop-color="#075B65"/>
<stop offset="0.370192" stop-color="#00838A"/>
<stop offset="0.8125" stop-color="#328A99"/>
</linearGradient>
</defs>
</svg>
