<svg width="67" height="57" viewBox="0 0 67 57" fill="none" xmlns="http://www.w3.org/2000/svg">
<path d="M65.0315 6.92177C66.1726 5.1855 65.974 2.83467 64.4325 1.3131C63.5751 0.46674 62.4356 0 61.222 0C60.0085 0 58.8689 0.46674 58.0116 1.3131L54.1233 5.15127C53.3211 4.5025 52.3171 4.14311 51.2517 4.14311H27.7112C23.1453 2.49551 20.1034 3.12094 18.2988 4.01086C16.647 4.82455 15.7266 5.98673 15.3342 6.58728C13.6808 7.08824 12.4105 8.06062 11.5563 9.48418C9.65865 12.6425 10.4404 17.0532 10.7052 18.2605C9.98333 20.0948 9.98648 21.6008 10.7115 22.7396C11.3403 23.726 12.3569 24.1585 13.0788 24.3483C13.3971 27.3448 15.0032 29.3845 16.7321 30.738V33.652C15.8874 33.9041 14.3538 34.3771 12.6706 34.9651C12.6627 34.9683 12.6548 34.9698 12.6469 34.9729C9.77843 35.9749 7.61604 36.9068 6.21647 37.7438L6.17864 37.7656C4.33935 38.8064 3.11157 40.4214 2.40391 41.5929C0.470042 44.7947 -0.302243 49.0498 0.105965 54.2369C0.2289 55.7865 1.57646 57 3.17461 57H41.078C42.5312 57 43.7542 55.9529 44.123 54.394C45.3492 49.2148 44.2145 45.3128 42.8385 42.7582H51.2533C53.7656 42.7582 55.8097 40.7403 55.8097 38.2588V16.1648L63.7659 8.31266L64.7162 9.25081L57.8823 15.9983C57.5135 16.3624 57.5135 16.9536 57.8823 17.3177C58.0667 17.4997 58.3094 17.5915 58.5506 17.5915C58.7917 17.5915 59.0344 17.4997 59.2188 17.3177L66.7226 9.91047C66.8991 9.73622 67 9.49818 67 9.25081C67 9.00344 66.9007 8.7654 66.7226 8.59115L65.033 6.92333L65.0315 6.92177ZM51.2517 6.01007C51.8065 6.01007 52.3329 6.1781 52.7726 6.48459L47.7512 11.4414H34.2756C34.0959 10.1967 33.7256 9.07501 33.1566 8.08396C32.6302 7.16603 32.0029 6.49393 31.4229 6.01007H51.2501H51.2517ZM42.1419 16.9785H33.973C34.2504 15.6716 34.3938 14.4472 34.3986 13.3083H45.8599L42.1419 16.9785ZM42.9157 19.6047L45.9024 22.5529L41.1994 24.2472L42.9157 19.6047ZM34.1259 18.8455H41.1836L39.8266 22.5156H33.9777C34.1543 22.2044 34.2882 21.8746 34.3733 21.5277C34.6224 20.5133 34.4096 19.558 34.1275 18.8455H34.1259ZM13.1844 10.4317C13.8495 9.3286 14.8314 8.62694 16.1868 8.28932C16.4579 8.22087 16.6849 8.03884 16.8062 7.78991C16.833 7.73546 19.5407 2.45973 28.5922 6.51571C28.7294 6.57794 28.8681 6.63862 29.0099 6.69463C29.2652 6.79575 30.5813 7.38229 31.5127 9.00344C32.6522 10.9886 32.8099 13.8295 31.9761 17.2508C31.746 17.0796 31.56 16.6549 31.5033 16.406C31.5001 16.3873 31.4954 16.3702 31.4907 16.3531C30.7042 13.4826 29.344 11.6841 27.448 11.0073C25.377 10.2683 23.3123 11.1302 22.3462 11.6514C21.027 10.886 19.4462 10.6977 17.9631 11.1349C16.3381 11.6141 15.0174 12.7763 14.3396 14.3243C13.7124 15.7572 12.9637 16.5398 12.3916 16.9598C12.152 15.376 11.9519 12.4822 13.1859 10.4332L13.1844 10.4317ZM14.9165 23.53C14.9007 23.0446 14.5114 22.651 14.0181 22.6261C14.0055 22.6261 12.8124 22.5327 12.3112 21.7439C11.8605 21.036 12.0843 19.9625 12.4137 19.0757C13.2569 18.7257 14.9039 17.7315 16.0733 15.0633C16.5288 14.024 17.4146 13.243 18.5021 12.9225C19.5534 12.6113 20.6298 12.7654 21.5392 13.3535C21.6196 13.4048 21.7 13.4593 21.7819 13.5153C22.1082 13.7409 22.5432 13.7393 22.8679 13.5137C22.8884 13.4997 24.9672 12.1073 26.8034 12.7623C28.0816 13.2181 29.0414 14.5826 29.6577 16.8182C29.716 17.0718 30.0438 18.2963 31.0509 18.8875C31.4071 19.0975 31.8027 19.2002 32.2204 19.1986C32.4474 19.6451 32.7106 20.367 32.534 21.0889C32.3875 21.6879 31.9446 22.2184 31.218 22.6743L31.2148 22.6774C31.0304 22.7925 30.8287 22.903 30.6065 23.0088C30.3039 23.1535 30.1021 23.4491 30.0753 23.7789C30.0643 23.922 29.8484 26.2402 28.0296 28.3203C27.9949 28.3545 27.9618 28.3919 27.9334 28.4308C27.0398 29.4171 25.7789 30.3397 23.9932 30.9372C22.8616 31.3152 21.6291 31.2654 20.5211 30.7956C19.7945 30.4875 19.0254 30.0877 18.2972 29.5758C18.2531 29.5369 18.2042 29.5027 18.1522 29.4732C16.4485 28.2301 15.0032 26.3491 14.9165 23.5315V23.53ZM27.0209 35.1643C27.251 35.2327 27.5299 35.3183 27.8483 35.4163H27.853C28.381 35.5812 29.0162 35.7835 29.7081 36.0138L25.9129 42.3303L23.648 40.9846L27.0224 35.1643H27.0209ZM22.0357 40.0044L18.6235 34.0986V31.9593C19.0317 32.1771 19.421 32.3592 19.7756 32.5085C20.6298 32.871 21.5392 33.0531 22.4486 33.0531C23.1752 33.0531 23.9034 32.9364 24.6031 32.7015C24.9625 32.5817 25.3045 32.4494 25.6292 32.3094V33.8076L22.0373 40.0028L22.0357 40.0044ZM17.2286 35.4537L20.4344 41.0001L18.1617 42.3412L14.4074 36.3483C15.5753 35.9577 16.5903 35.6466 17.2286 35.4552V35.4537ZM9.50262 55.1346V48.9238C9.50262 48.4089 9.07865 47.9903 8.55696 47.9903C8.03528 47.9903 7.61131 48.4089 7.61131 48.9238V55.1346H3.17461C2.55679 55.1346 2.03668 54.6772 1.99097 54.0938C1.16667 43.6076 5.70739 40.1864 7.11957 39.3867C7.15267 39.3681 7.17789 39.3541 7.1968 39.3432C8.3568 38.6493 10.2103 37.8387 12.5823 36.983L17.0442 44.1055C17.2223 44.3902 17.5328 44.5489 17.8496 44.5489C18.0151 44.5489 18.1822 44.5069 18.3335 44.4167L19.2854 43.855L17.599 51.3493C17.5391 51.6154 17.599 51.8939 17.7661 52.1117L20.0624 55.1346H9.50104H9.50262ZM19.5376 51.3353L21.5172 42.5372L21.7914 42.3754C21.8718 42.3894 21.9522 42.4003 22.0357 42.4003C22.1287 42.4003 22.2217 42.3879 22.3115 42.3692L22.559 42.517L24.3715 51.3571L21.9537 54.5154L19.536 51.3338L19.5376 51.3353ZM42.2806 53.9724C42.1529 54.5092 41.7621 55.1362 41.078 55.1362H37.0401V48.9254C37.0401 48.4104 36.6161 47.9919 36.0944 47.9919C35.5727 47.9919 35.1488 48.4104 35.1488 48.9254V55.1362H23.8514L26.1383 52.149C26.3022 51.9359 26.3636 51.6636 26.3101 51.4007L24.756 43.8223L25.7537 44.4151C25.9018 44.5038 26.0705 44.5489 26.2407 44.5489C26.3179 44.5489 26.3952 44.5396 26.4724 44.5209C26.7167 44.4602 26.9263 44.3062 27.054 44.0915L31.5301 36.6439C34.0991 37.5649 36.0598 38.4299 37.2245 39.158C37.2986 39.2047 44.6558 43.9375 42.279 53.9724H42.2806ZM53.9184 38.2603C53.9184 39.7119 52.7222 40.8928 51.2533 40.8928H41.647C40.0189 38.71 38.3183 37.6302 38.2363 37.5805C37.1977 36.9301 35.6815 36.2191 33.7161 35.4599H47.4423C47.964 35.4599 48.3879 35.0414 48.3879 34.5264C48.3879 34.0114 47.964 33.5929 47.4423 33.5929H28.277C27.9854 33.5027 27.7301 33.4265 27.5173 33.3627V31.2717C28.132 30.8516 28.6632 30.3957 29.1202 29.9212H47.4407C47.9624 29.9212 48.3864 29.5027 48.3864 28.9877C48.3864 28.4728 47.9624 28.0543 47.4407 28.0543H30.545C31.4245 26.5794 31.7633 25.1885 31.8894 24.4526C31.9304 24.4308 31.9682 24.4075 32.0076 24.3841H39.1331L38.7233 25.4934C38.5973 25.8341 38.6824 26.2169 38.9424 26.4736C39.1237 26.6525 39.3648 26.7474 39.6107 26.7474C39.7194 26.7474 39.8298 26.7287 39.9354 26.6914L47.9419 23.8069C47.9419 23.8069 47.9545 23.8007 47.9624 23.7991C47.9718 23.796 47.9797 23.7914 47.9892 23.7882C48.0396 23.7665 48.0869 23.7431 48.1326 23.7136C48.1373 23.7105 48.1436 23.7058 48.1484 23.7027C48.1972 23.67 48.2414 23.6342 48.2823 23.5938C48.2839 23.5922 48.2855 23.5907 48.2871 23.5891L53.9169 18.0318V38.2603H53.9184ZM47.6204 21.6086L43.874 17.9104L58.6814 3.29364L62.4278 6.99178L47.6204 21.6086ZM63.6398 5.548L60.144 2.09722C60.4797 1.94942 60.8454 1.86852 61.2236 1.86852C61.9313 1.86852 62.5964 2.14079 63.096 2.63398C63.8919 3.42121 64.0716 4.58651 63.6398 5.548Z" fill="#00A1A5"/>
</svg>
