<svg width="64" height="64" viewBox="0 0 64 64" fill="none" xmlns="http://www.w3.org/2000/svg">
<path d="M54 10H10C8.89543 10 8 10.8954 8 12V22C8 23.1046 8.89543 24 10 24H54C55.1046 24 56 23.1046 56 22V12C56 10.8954 55.1046 10 54 10Z" stroke="#00A1A5" stroke-width="2"/>
<path d="M54 26H10C8.89543 26 8 26.8954 8 28V38C8 39.1046 8.89543 40 10 40H54C55.1046 40 56 39.1046 56 38V28C56 26.8954 55.1046 26 54 26Z" stroke="#00A1A5" stroke-width="2"/>
<path d="M54 42H10C8.89543 42 8 42.8954 8 44V54C8 55.1046 8.89543 56 10 56H54C55.1046 56 56 55.1046 56 54V44C56 42.8954 55.1046 42 54 42Z" stroke="#00A1A5" stroke-width="2"/>
<path d="M16 17H18" stroke="#00A1A5" stroke-width="2" stroke-linecap="round"/>
<path d="M22 17H24" stroke="#00A1A5" stroke-width="2" stroke-linecap="round"/>
<path d="M48 17H50" stroke="#00A1A5" stroke-width="2" stroke-linecap="round"/>
<path d="M40 33H42" stroke="#00A1A5" stroke-width="2" stroke-linecap="round"/>
<path d="M48 33H50" stroke="#00A1A5" stroke-width="2" stroke-linecap="round"/>
<path d="M48 49H50" stroke="#00A1A5" stroke-width="2" stroke-linecap="round"/>
</svg>
