<svg width="64" height="64" viewBox="0 0 64 64" fill="none" xmlns="http://www.w3.org/2000/svg">
<g clip-path="url(#clip0_4777_9645)">
<path fill-rule="evenodd" clip-rule="evenodd" d="M36.774 47.3014C43.3971 49.2063 48.3821 54.9759 49.1339 62.011C49.1642 62.2942 49.0727 62.5769 48.8823 62.7888C48.6919 63.0006 48.4205 63.1216 48.1356 63.1216H15.8653C15.5805 63.1216 15.3089 63.0005 15.1185 62.7885C14.928 62.5766 14.8367 62.2937 14.8672 62.0105C15.6226 54.9751 20.6087 49.2058 27.2298 47.3011C24.574 45.6822 22.7948 42.7568 22.7948 39.4298C22.7948 34.3582 26.929 30.2198 32.0005 30.2198C37.0767 30.2198 41.2105 34.3585 41.2105 39.4298C41.2105 42.7568 39.4313 45.6824 36.774 47.3014ZM32.0005 48.6397C24.5332 48.6397 18.3212 54.0184 17.0245 61.1137H46.9771C45.6841 54.0182 39.4717 48.6397 32.0005 48.6397ZM32.0005 46.6319C35.97 46.6319 39.2026 43.3955 39.2026 39.4298C39.2026 35.464 35.97 32.2276 32.0005 32.2276C28.0349 32.2276 24.8026 35.4641 24.8026 39.4298C24.8026 43.3954 28.0349 46.6319 32.0005 46.6319ZM44.835 18.3207H60.937C62.1362 18.3207 63.122 19.3064 63.122 20.5057V34.2399C63.122 35.4481 62.1349 36.4304 60.937 36.4304H44.835C43.6371 36.4304 42.65 35.4481 42.65 34.2399V20.5057C42.65 19.3064 43.6357 18.3207 44.835 18.3207ZM61.1142 27.4358V20.5057C61.1142 20.4085 61.0343 20.3285 60.937 20.3285H44.835C44.7377 20.3285 44.6578 20.4085 44.6578 20.5057V28.4348L48.5083 25.5178C48.9262 25.2012 49.5173 25.2595 49.8654 25.6516L52.4924 28.6108L57.321 24.2032C57.5303 24.0122 57.8105 23.9184 58.0925 23.9451C58.3746 23.9719 58.6323 24.1164 58.8019 24.3435L61.1142 27.4358ZM44.6578 30.9537V34.2399C44.6578 34.3393 44.7365 34.4226 44.835 34.4226H60.937C61.0355 34.4226 61.1142 34.3393 61.1142 34.2399V30.7886L57.8569 26.4325L51.4285 32.3004C51.0193 32.674 50.3838 32.645 50.0102 32.2358C49.6366 31.8266 49.6656 31.1911 50.0748 30.8175L51.0094 29.9645C50.2144 29.0692 48.9804 27.6791 48.9804 27.6791L44.6578 30.9537ZM52.5262 25.807C51.8065 25.807 51.2242 25.2248 51.2242 24.5106C51.2242 23.7964 51.8065 23.2086 52.5262 23.2086C53.2403 23.2086 53.8226 23.7964 53.8226 24.5106C53.8226 25.2248 53.2403 25.807 52.5262 25.807ZM3.06394 18.3207H19.166C20.3652 18.3207 21.351 19.3064 21.351 20.5057V34.2399C21.351 35.4481 20.3639 36.4304 19.166 36.4304H3.06394C1.86601 36.4304 0.878906 35.4481 0.878906 34.2399V20.5057C0.878906 19.3064 1.86476 18.3207 3.06394 18.3207ZM3.06394 20.3285C2.96669 20.3285 2.88675 20.4085 2.88675 20.5057V34.2399C2.88675 34.3393 2.96543 34.4226 3.06394 34.4226H19.166C19.2645 34.4226 19.3432 34.3393 19.3432 34.2399V20.5057C19.3432 20.4085 19.2632 20.3285 19.166 20.3285H3.06394ZM14.7921 25.9628C15.2969 26.2542 15.6078 26.7928 15.6078 27.3755C15.6078 27.9583 15.2969 28.4969 14.7921 28.7883L9.4849 31.8525C8.98018 32.1439 8.35825 32.1439 7.85353 31.8525C7.3488 31.561 7.03784 31.0225 7.03784 30.4396V24.3115C7.03784 23.7286 7.3488 23.1901 7.85353 22.8986C8.35825 22.6072 8.98018 22.6072 9.4849 22.8986L14.7921 25.9628ZM9.04568 29.7876L13.2235 27.3755L9.04568 24.9635V29.7876ZM34.7513 2.70907C35.3789 2.8963 35.9852 3.14741 36.5618 3.45937L37.7232 2.94298C38.1028 2.7742 38.5472 2.85665 38.841 3.15042L40.7588 5.06828C41.0522 5.36168 41.1348 5.80529 40.9668 6.18477L40.4521 7.34656C40.7645 7.92394 41.0161 8.53131 41.2033 9.16102L42.3874 9.61668C42.7751 9.76589 43.0308 10.1383 43.0308 10.5536V13.2664C43.0308 13.6818 42.7751 14.0543 42.3874 14.2035L41.2027 14.6594C41.0151 15.287 40.7628 15.8933 40.4517 16.4698L40.9668 17.6326C41.1348 18.0121 41.0522 18.4557 40.7588 18.7491L38.841 20.667C38.5476 20.9604 38.1038 21.0431 37.7245 20.875L36.5632 20.3606C35.987 20.6726 35.3794 20.924 34.7511 21.1112L34.2952 22.2957C34.146 22.6832 33.7735 22.939 33.3583 22.939H30.6454C30.2301 22.939 29.8576 22.6832 29.7085 22.2957C29.7085 22.2957 29.2526 21.1113 29.2527 21.1113C28.6233 20.9236 28.0164 20.6712 27.4394 20.3599L26.2765 20.875C25.8971 21.0431 25.4534 20.9604 25.16 20.667L23.2421 18.7491C22.9484 18.4553 22.8659 18.011 23.0347 17.6314C23.0347 17.6314 23.5508 16.4706 23.5508 16.4707C23.2391 15.8948 22.9876 15.2877 22.7993 14.6598L21.6135 14.2035C21.2259 14.0543 20.9701 13.6818 20.9701 13.2664V10.5536C20.9701 10.1383 21.2259 9.76589 21.6135 9.61668C21.6135 9.61668 22.799 9.16052 22.7989 9.16052C22.9874 8.53119 23.239 7.92432 23.5511 7.34731L23.0347 6.18603C22.8659 5.80642 22.9484 5.36206 23.2421 5.06828L25.16 3.15042C25.4538 2.85665 25.8981 2.7742 26.2777 2.94298C26.2777 2.94298 27.4392 3.45937 27.439 3.45937C28.016 3.14728 28.6225 2.89605 29.2505 2.70882L29.7088 1.52093C29.8582 1.13379 30.2304 0.878418 30.6454 0.878418H33.3583C33.7738 0.878418 34.1464 1.13442 34.2954 1.52231L34.7513 2.70907ZM33.0604 3.90625L32.6686 2.88626H31.3341L30.94 3.9075C30.8209 4.21621 30.5573 4.44636 30.2356 4.52278C29.4544 4.7085 28.7095 5.01708 28.0248 5.43898C27.7427 5.61279 27.3931 5.63625 27.0903 5.5016L26.0921 5.05774L25.1496 6.00043L25.5933 6.99858C25.728 7.30126 25.7045 7.651 25.5307 7.9331C25.1084 8.61853 24.7996 9.36432 24.6114 10.1486C24.5343 10.4699 24.304 10.7327 23.9957 10.8512L22.978 11.243V12.5771L23.9957 12.9689C24.3038 13.0874 24.5339 13.3499 24.6112 13.6708C24.7993 14.4523 25.1078 15.2004 25.53 15.883C25.7045 16.1653 25.7282 16.5156 25.5933 16.8189L25.1496 17.817L26.0929 18.7604L27.0916 18.3179C27.3932 18.1844 27.7413 18.2075 28.0227 18.3798C28.7079 18.7997 29.4534 19.1114 30.2376 19.2971C30.5601 19.3735 30.824 19.6042 30.9431 19.9134L31.3348 20.9311H32.669L33.0606 19.9134C33.1796 19.6043 33.4432 19.3739 33.7654 19.2972C34.546 19.1118 35.293 18.8036 35.9748 18.382C36.2566 18.2077 36.6063 18.1838 36.9094 18.3179L37.9081 18.7604L38.8521 17.8163L38.4098 16.8176C38.2761 16.5159 38.2992 16.1679 38.4716 15.8865C38.8915 15.2011 39.2032 14.4556 39.3891 13.6736C39.4656 13.3515 39.6962 13.0877 40.0052 12.9689L41.023 12.5771V11.243L40.0052 10.8512C39.6959 10.7323 39.4653 10.4683 39.389 10.1457C39.2034 9.36243 38.8948 8.61765 38.473 7.9331C38.2995 7.65138 38.2757 7.30226 38.4098 6.99983L38.8521 6.00118L37.9088 5.05774L36.9107 5.5016C36.6078 5.63625 36.2582 5.61279 35.9761 5.43898C35.2915 5.01708 34.5465 4.7085 33.7654 4.52278C33.4431 4.44623 33.1793 4.21545 33.0604 3.90625ZM32.0005 6.17298C35.1695 6.17298 37.7389 8.73963 37.7389 11.9088C37.7389 15.0776 35.1694 17.6472 32.0005 17.6472C28.8315 17.6472 26.2648 15.0778 26.2648 11.9088C26.2648 8.7395 28.8312 6.17298 32.0005 6.17298ZM32.0005 8.18082C29.9407 8.18082 28.2727 9.84896 28.2727 11.9088C28.2727 13.9687 29.9406 15.6393 32.0005 15.6393C34.0606 15.6393 35.731 13.9688 35.731 11.9088C35.731 9.84871 34.0604 8.18082 32.0005 8.18082ZM51.882 39.1912C51.882 38.6372 52.3319 38.1873 52.8859 38.1873C53.4401 38.1873 53.8899 38.6372 53.8899 39.1912V46.6707C53.8899 47.2251 53.4405 47.6746 52.8859 47.6746H43.7761C43.2219 47.6746 42.7722 47.2247 42.7722 46.6707C42.7722 46.1165 43.2219 45.6668 43.7761 45.6668H51.882V39.1912ZM10.3065 39.1912C10.3065 38.6372 10.7562 38.1873 11.3104 38.1873C11.8644 38.1873 12.3143 38.6372 12.3143 39.1912V45.6668H20.4202C20.9744 45.6668 21.4242 46.1165 21.4242 46.6707C21.4242 47.2247 20.9744 47.6746 20.4202 47.6746H11.3104C10.7559 47.6746 10.3065 47.2251 10.3065 46.6707V39.1912ZM30.9966 24.4449C30.9966 23.8908 31.4464 23.4409 32.0005 23.4409C32.5545 23.4409 33.0044 23.8908 33.0044 24.4449V28.7139C33.0044 29.2679 32.5545 29.7178 32.0005 29.7178C31.4464 29.7178 30.9966 29.2679 30.9966 28.7139V24.4449Z" fill="#00A1A5"/>
</g>
<defs>
<clipPath id="clip0_4777_9645">
<rect width="64" height="64" fill="white"/>
</clipPath>
</defs>
</svg>
