<svg width="64" height="64" viewBox="0 0 64 64" fill="none" xmlns="http://www.w3.org/2000/svg">
<path d="M55.9717 7.04199H8.02832C6.96029 7.04313 5.93633 7.4679 5.18112 8.22311C4.42591 8.97832 4.00114 10.0023 4 11.0703V42.1299C4.00114 43.1979 4.42592 44.2219 5.18113 44.9771C5.93634 45.7323 6.9603 46.157 8.02832 46.1582H27.6088C27.7316 48.5279 23.7572 52.7194 20.5888 55.1665C20.4237 55.2941 20.3027 55.4701 20.2426 55.6699C20.1826 55.8698 20.1865 56.0834 20.2539 56.2808C20.3213 56.4783 20.4487 56.6497 20.6184 56.7712C20.7881 56.8926 20.9915 56.9579 21.2002 56.958H42.7998C43.0099 56.954 43.2135 56.8844 43.382 56.7588C43.5505 56.6333 43.6755 56.4581 43.7394 56.2579C43.8032 56.0577 43.8028 55.8425 43.7382 55.6425C43.6735 55.4426 43.5479 55.2679 43.3788 55.143C43.3122 55.0955 37.127 50.6386 36.6191 46.1581H55.9717C57.0397 46.157 58.0636 45.7322 58.8189 44.977C59.5741 44.2218 59.9988 43.1979 60 42.1299V11.0703C59.9989 10.0023 59.5741 8.97832 58.8189 8.22311C58.0637 7.4679 57.0397 7.04313 55.9717 7.04199ZM8.02832 9.04199H55.9717C56.5094 9.0426 57.025 9.2565 57.4052 9.63675C57.7855 10.017 57.9994 10.5326 58 11.0703V37.4082H6V11.0703C6.00061 10.5326 6.21451 10.017 6.59476 9.63675C6.97501 9.2565 7.49056 9.0426 8.02832 9.04199ZM40.0117 54.958H23.9326C26.2847 52.8174 29.6553 49.2066 29.6075 46.1582H34.6193C34.923 49.6977 37.8726 53.003 40.0117 54.958ZM55.9717 44.1582H8.02832C7.49057 44.1576 6.97501 43.9437 6.59476 43.5634C6.21451 43.1832 6.00062 42.6676 6 42.1299V39.4082H58V42.1299C57.9994 42.6676 57.7855 43.1832 57.4052 43.5634C57.025 43.9437 56.5095 44.1576 55.9717 44.1582Z" fill="#00A1A5"/>
<path d="M34.216 40.501H29.4836C29.2218 40.5061 28.9724 40.6137 28.789 40.8007C28.6056 40.9877 28.5029 41.2391 28.5029 41.501C28.5029 41.7629 28.6057 42.0143 28.789 42.2013C28.9724 42.3883 29.2218 42.4959 29.4837 42.501H34.216C34.4779 42.4959 34.7273 42.3883 34.9106 42.2013C35.094 42.0143 35.1967 41.7629 35.1967 41.501C35.1967 41.2391 35.094 40.9876 34.9106 40.8007C34.7273 40.6137 34.4779 40.5061 34.216 40.501Z" fill="#00A1A5"/>
<path d="M15.46 29.3682C16.0133 29.4205 16.5715 29.3573 17.0991 29.1826C17.6267 29.0078 18.1122 28.7253 18.5249 28.3529C18.9375 27.9806 19.2683 27.5266 19.4961 27.0196C19.724 26.5127 19.8441 25.9639 19.8486 25.4082V19.0054C19.8486 18.7402 19.7433 18.4858 19.5557 18.2983C19.3682 18.1107 19.1139 18.0054 18.8486 18.0054C18.5834 18.0054 18.3291 18.1107 18.1415 18.2983C17.954 18.4858 17.8486 18.7402 17.8486 19.0054V25.4082C17.8481 25.9278 17.6414 26.426 17.274 26.7935C16.9065 27.1609 16.4083 27.3676 15.8886 27.3682C15.6008 27.4182 15.3055 27.4057 15.0229 27.3313C14.7403 27.257 14.4771 27.1226 14.2511 26.9373C14.0252 26.7521 13.8418 26.5203 13.7135 26.2577C13.5853 25.9952 13.5151 25.7081 13.5078 25.416V19.045C13.5078 18.7797 13.4025 18.5254 13.2149 18.3379C13.0274 18.1503 12.773 18.045 12.5078 18.045C12.2426 18.045 11.9882 18.1503 11.8007 18.3379C11.6132 18.5254 11.5078 18.7797 11.5078 19.045V25.416C11.5089 26.4639 11.9257 27.4685 12.6666 28.2094C13.4076 28.9503 14.4122 29.3671 15.46 29.3682Z" fill="#00A1A5"/>
<path d="M21.4912 29.1774C21.7059 29.333 21.9737 29.397 22.2355 29.3552C22.4974 29.3135 22.732 29.1694 22.8877 28.9548L25.3289 25.5885L27.5908 28.9284C27.7419 29.1422 27.9708 29.2882 28.2283 29.3352C28.4859 29.3821 28.7515 29.3262 28.9683 29.1795C29.1851 29.0327 29.3357 28.8068 29.3878 28.5502C29.4399 28.2937 29.3894 28.0269 29.247 27.8072L26.578 23.8662L29.6777 19.592C29.8325 19.3773 29.8959 19.1099 29.8538 18.8485C29.8118 18.5871 29.6678 18.3531 29.4535 18.1977C29.2392 18.0423 28.9719 17.9783 28.7105 18.0196C28.449 18.0609 28.2145 18.2043 28.0586 18.4182L25.3851 22.1047L22.9062 18.4445C22.7553 18.2305 22.5263 18.0842 22.2687 18.0371C22.011 17.99 21.7451 18.0459 21.5282 18.1927C21.3113 18.3396 21.1607 18.5656 21.1086 18.8223C21.0566 19.0791 21.1074 19.3459 21.25 19.5656L24.136 23.827L21.2685 27.7809C21.1915 27.8872 21.1361 28.0077 21.1055 28.1354C21.075 28.2631 21.0699 28.3956 21.0906 28.5253C21.1113 28.655 21.1573 28.7793 21.226 28.8912C21.2948 29.0031 21.3849 29.1003 21.4912 29.1774Z" fill="#00A1A5"/>
<path d="M30.464 32.3236C30.7034 32.4375 30.9781 32.4517 31.228 32.3633C31.4779 32.2749 31.6825 32.091 31.797 31.8519L39.1154 16.5228C39.2296 16.2835 39.2441 16.0086 39.1556 15.7586C39.0671 15.5086 38.883 15.304 38.6437 15.1898C38.4044 15.0756 38.1295 15.0611 37.8795 15.1496C37.6295 15.238 37.4249 15.4222 37.3107 15.6615L29.9923 30.9906C29.9356 31.109 29.9029 31.2375 29.8959 31.3687C29.889 31.4998 29.9079 31.6311 29.9518 31.7549C29.9956 31.8787 30.0634 31.9926 30.1513 32.0902C30.2392 32.1878 30.3454 32.2671 30.464 32.3236Z" fill="#00A1A5"/>
<path d="M44.2715 29.3682C44.8249 29.4205 45.3831 29.3573 45.9107 29.1826C46.4384 29.0078 46.924 28.7253 47.3367 28.353C47.7494 27.9807 48.0803 27.5267 48.3083 27.0197C48.5363 26.5128 48.6564 25.964 48.6611 25.4082V19.0054C48.6611 18.7402 48.5557 18.4858 48.3682 18.2983C48.1807 18.1107 47.9263 18.0054 47.6611 18.0054C47.3959 18.0054 47.1415 18.1107 46.954 18.2983C46.7665 18.4858 46.6611 18.7402 46.6611 19.0054V25.4082C46.6603 25.9279 46.4535 26.4261 46.0859 26.7936C45.7183 27.161 45.2199 27.3676 44.7002 27.3682C44.4123 27.4182 44.117 27.4057 43.8344 27.3313C43.5518 27.257 43.2886 27.1226 43.0627 26.9373C42.8367 26.7521 42.6533 26.5203 42.5251 26.2577C42.3968 25.9952 42.3266 25.7081 42.3193 25.416V19.045C42.3193 18.7797 42.214 18.5254 42.0264 18.3379C41.8389 18.1503 41.5846 18.045 41.3193 18.045C41.0541 18.045 40.7998 18.1503 40.6122 18.3379C40.4247 18.5254 40.3193 18.7797 40.3193 19.045V25.416C40.3205 26.4639 40.7372 27.4685 41.4781 28.2094C42.2191 28.9503 43.2237 29.367 44.2715 29.3682Z" fill="#00A1A5"/>
<path d="M51.4922 29.3682C51.6235 29.3682 51.7536 29.3424 51.8749 29.2921C51.9962 29.2419 52.1065 29.1682 52.1994 29.0754C52.2922 28.9825 52.3659 28.8722 52.4161 28.7509C52.4664 28.6296 52.4922 28.4995 52.4922 28.3682V19.0054C52.4922 18.7402 52.3868 18.4858 52.1993 18.2983C52.0118 18.1107 51.7574 18.0054 51.4922 18.0054C51.227 18.0054 50.9726 18.1107 50.7851 18.2983C50.5975 18.4858 50.4922 18.7402 50.4922 19.0054V28.3682C50.4922 28.4995 50.518 28.6296 50.5682 28.7509C50.6185 28.8722 50.6921 28.9825 50.785 29.0754C50.8779 29.1682 50.9881 29.2419 51.1095 29.2921C51.2308 29.3424 51.3609 29.3682 51.4922 29.3682Z" fill="#00A1A5"/>
</svg>
