<svg width="59" height="59" viewBox="0 0 59 59" fill="none" xmlns="http://www.w3.org/2000/svg">
<path d="M36.1467 25.0473C42.5436 25.0473 47.7485 19.8424 47.7485 13.4455C47.7485 7.04866 42.5436 1.84375 36.1467 1.84375C29.7498 1.84375 24.5449 7.04866 24.5449 13.4455C24.5449 19.8424 29.7498 25.0473 36.1467 25.0473ZM36.1467 3.6875C41.5277 3.6875 45.9048 8.06548 45.9048 13.4455C45.9048 18.8256 41.5277 23.2036 36.1467 23.2036C30.7657 23.2036 26.3887 18.8256 26.3887 13.4455C26.3887 8.06548 30.7657 3.6875 36.1467 3.6875Z" fill="#00A1A5"/>
<path d="M4.04671 38.9214H6.51826C6.72384 39.575 6.98657 40.2056 7.30462 40.8066L5.55213 42.5674C5.19352 42.9279 5.19445 43.5096 5.55398 43.87L9.02023 47.3363C9.37976 47.6958 9.96146 47.6967 10.3228 47.3372L12.0781 45.5884C12.6865 45.9055 13.3189 46.1664 13.9679 46.3701V48.8509C13.9679 49.3598 14.38 49.7728 14.8898 49.7728H16.4192V56.2351C16.4192 56.744 16.8313 57.157 17.3411 57.157H54.9526C55.4624 57.157 55.8745 56.744 55.8745 56.2351V42.1858C55.8745 33.5377 48.8932 26.4991 40.2709 26.3857C40.2653 26.3857 40.2598 26.3857 40.2543 26.3857C40.1897 26.3857 40.128 26.3765 40.0634 26.3765H32.2275C31.0374 26.3765 29.8491 26.5185 28.6838 26.784L25.661 23.7529C25.4877 23.5796 25.2535 23.4818 25.0083 23.4818C24.7631 23.4818 24.528 23.5796 24.3547 23.7529L22.6133 25.5017C22.0159 25.1855 21.3835 24.9227 20.7216 24.7162V22.2456C20.7216 21.7367 20.3095 21.3237 19.7997 21.3237H14.8861C14.3763 21.3237 13.9642 21.7367 13.9642 22.2456V24.7162C13.3014 24.9227 12.669 25.1845 12.0698 25.5017L10.3201 23.751C10.1468 23.5777 9.91352 23.4809 9.6683 23.4809C9.42401 23.4809 9.18893 23.5786 9.01654 23.7519L5.55029 27.2283C5.37698 27.4017 5.2811 27.6358 5.2811 27.881C5.2811 28.1262 5.37882 28.3604 5.55213 28.5328L7.3037 30.2779C6.98288 30.8891 6.72015 31.5206 6.51641 32.1668H4.04395C3.53415 32.1668 3.12207 32.5798 3.12207 33.0887V38.0023C3.12207 38.5112 3.53415 38.9242 4.04395 38.9242L4.04671 38.9214ZM18.262 49.7728H19.8025C20.3123 49.7728 20.7244 49.3598 20.7244 48.8509V46.3701C21.3724 46.1673 22.0039 45.9064 22.6124 45.5893L24.3593 47.3363C24.705 47.682 25.3171 47.682 25.6628 47.3363L29.1291 43.87C29.4886 43.5114 29.4895 42.9288 29.1319 42.5693L27.3858 40.8094C27.6864 40.2424 27.9408 39.6488 28.1445 39.0274C28.1547 38.9924 28.1648 38.9574 28.1749 38.9223H30.6437C31.1535 38.9223 31.5656 38.5093 31.5656 38.0004V33.0869C31.5656 32.578 31.1535 32.165 30.6437 32.165H28.1722C27.9666 31.5114 27.6974 30.8744 27.3775 30.2816L29.0848 28.5743C29.8629 28.3964 30.6548 28.3069 31.4485 28.2627L33.2517 32.436L28.9373 49.9489C28.8581 50.2688 28.9567 50.6062 29.1936 50.8339L33.8565 55.3123H18.262V49.7728ZM36.1464 33.2768H37.3513L41.4389 49.8724L36.1473 54.9565L30.8558 49.8724L34.9443 33.2768H36.1482H36.1464ZM36.1464 31.433H34.8263L33.437 28.2184H38.8549L37.4665 31.433H36.1464ZM54.0308 42.1848V55.3123H38.4363L43.0992 50.8339C43.337 50.6052 43.4347 50.2678 43.3555 49.9489L39.042 32.436L40.8461 28.259C48.1824 28.6683 54.0308 34.749 54.0308 42.1858V42.1848ZM4.96859 34.0078H7.21796C7.64295 34.0078 8.01262 33.7174 8.11402 33.3044C8.34265 32.3641 8.72246 31.4524 9.2424 30.595C9.46273 30.2309 9.40557 29.7644 9.10504 29.4639L7.5102 27.8746L9.67291 25.7054L11.2687 27.3021C11.572 27.6063 12.0458 27.6598 12.4072 27.433C13.2212 26.926 14.1293 26.5489 15.1074 26.3102C15.5204 26.2097 15.8117 25.8391 15.8117 25.4141V23.1647H18.8815V25.4141C18.8815 25.8391 19.1719 26.2087 19.5849 26.3102C20.563 26.548 21.4711 26.926 22.2851 27.433C22.6483 27.6589 23.1203 27.6054 23.4254 27.3002L25.0129 25.7063L27.1756 27.8755L25.5863 29.4648C25.283 29.7681 25.2286 30.2392 25.4545 30.6033C25.5273 30.7204 25.5946 30.8366 25.6804 31.0145C26.0887 31.7538 26.3911 32.5227 26.5764 33.2998C26.6751 33.7147 27.0466 34.0078 27.4734 34.0078H29.7228V37.0777H27.4734C27.0493 37.0777 26.6806 37.3662 26.5783 37.7783C26.5183 38.0235 26.4474 38.2669 26.3856 38.4761C26.157 39.1694 25.8435 39.8424 25.4526 40.4748C25.2296 40.8371 25.283 41.3054 25.5836 41.6077L27.1775 43.2146L25.012 45.3801L23.4236 43.7917C23.124 43.4911 22.6594 43.4349 22.2961 43.6534C21.4443 44.1659 20.5317 44.543 19.5849 44.7735C19.1728 44.8739 18.8815 45.2445 18.8815 45.6695V47.9281H15.8117V45.6695C15.8117 45.2445 15.5213 44.8749 15.1074 44.7735C14.1606 44.543 13.247 44.1659 12.3961 43.6534C12.0348 43.4358 11.5711 43.4911 11.2696 43.7898L9.67291 45.381L7.50835 43.2155L9.1078 41.6087C9.40834 41.3063 9.46273 40.8371 9.23871 40.4738C8.72615 39.6451 8.34818 38.7389 8.11495 37.781C8.01446 37.368 7.64387 37.0777 7.21888 37.0777H4.96951L4.96859 34.0078Z" fill="#00A1A5"/>
<path d="M13.0632 40.4242C14.2423 41.4631 15.7624 42.0356 17.3435 42.0356C18.9245 42.0356 20.4446 41.4631 21.6219 40.426C23.0277 39.1944 23.8344 37.4152 23.8344 35.5456C23.8344 31.9669 20.9231 29.0547 17.3435 29.0547C13.7638 29.0547 10.8525 31.9669 10.8525 35.5456C10.8525 37.4142 11.6592 39.1935 13.0632 40.4242ZM17.3435 30.8984C19.9054 30.8984 21.9906 32.9828 21.9906 35.5456C21.9906 36.8842 21.4135 38.1573 20.4041 39.0414C18.7217 40.5256 15.9699 40.5293 14.2801 39.0395C13.2725 38.1564 12.6954 36.8832 12.6954 35.5456C12.6954 32.9828 14.7816 30.8984 17.3435 30.8984Z" fill="#00A1A5"/>
</svg>
