<svg width="49" height="47" viewBox="0 0 49 47" fill="none" xmlns="http://www.w3.org/2000/svg">
<path d="M22.4783 1.38242C23.077 -0.460197 25.6838 -0.4602 26.2825 1.38242L30.6668 14.8758C30.9345 15.6999 31.7024 16.2578 32.5689 16.2578H46.7567C48.6941 16.2578 49.4997 18.737 47.9323 19.8758L36.4541 28.2152C35.7531 28.7245 35.4598 29.6273 35.7275 30.4513L40.1118 43.9447C40.7105 45.7873 38.6016 47.3196 37.0341 46.1808L25.5559 37.8414C24.855 37.3321 23.9058 37.3321 23.2048 37.8414L11.7266 46.1808C10.1592 47.3196 8.05022 45.7873 8.64893 43.9447L13.0332 30.4513C13.301 29.6273 13.0076 28.7245 12.3067 28.2152L0.828473 19.8758C-0.738955 18.737 0.0665946 16.2578 2.00404 16.2578H16.1919C17.0583 16.2578 17.8262 15.6999 18.094 14.8758L22.4783 1.38242Z" fill="#FDB85C"/>
</svg>
