<svg width="25" height="25" viewBox="0 0 25 25" fill="none" xmlns="http://www.w3.org/2000/svg">
<g clip-path="url(#clip0_4777_9661)">
<path d="M12.5 25C5.59642 25 0 19.4036 0 12.5C0 5.59642 5.59642 0 12.5 0C19.4036 0 25 5.59642 25 12.5C24.99 19.3994 19.3994 24.99 12.5 25ZM12.5 1.36364C6.34954 1.36364 1.36364 6.34954 1.36364 12.5C1.36364 18.6505 6.34954 23.6364 12.5 23.6364C18.6505 23.6364 23.6364 18.6505 23.6364 12.5C23.6264 6.35369 18.6463 1.37364 12.5 1.36364Z" fill="#00A1A5"/>
<path d="M17.0457 18.6365C16.8424 18.6363 16.6495 18.5464 16.5184 18.391L11.9729 12.9365C11.8714 12.8139 11.8167 12.6593 11.8184 12.5001V7.04559C11.8184 6.66905 12.1237 6.36377 12.5002 6.36377C12.8768 6.36377 13.182 6.66905 13.182 7.04559V12.2547L17.5729 17.5183C17.8103 17.8106 17.7699 18.2392 17.482 18.482C17.3579 18.5808 17.2043 18.6352 17.0457 18.6365Z" fill="#00A1A5"/>
</g>
<defs>
<clipPath id="clip0_4777_9661">
<rect width="25" height="25" fill="white"/>
</clipPath>
</defs>
</svg>
