<svg width="39" height="39" viewBox="0 0 39 39" fill="none" xmlns="http://www.w3.org/2000/svg">
<path d="M17.8858 23.7656H8.53125C8.19427 23.7656 7.92188 23.4926 7.92188 23.1562C7.92188 22.8199 8.19427 22.5469 8.53125 22.5469H17.8858C18.2227 22.5469 18.4951 22.8199 18.4951 23.1562C18.4951 23.4926 18.2221 23.7656 17.8858 23.7656Z" fill="#00A1A5"/>
<path d="M17.8858 16.4531H8.53125C8.19427 16.4531 7.92188 16.1801 7.92188 15.8438C7.92188 15.5074 8.19427 15.2344 8.53125 15.2344H17.8858C18.2227 15.2344 18.4951 15.5074 18.4951 15.8438C18.4951 16.1801 18.2221 16.4531 17.8858 16.4531Z" fill="#00A1A5"/>
<path d="M17.0625 20.1094H4.875C4.53802 20.1094 4.26562 19.8364 4.26562 19.5C4.26562 19.1636 4.53802 18.8906 4.875 18.8906H17.0625C17.3995 18.8906 17.6719 19.1636 17.6719 19.5C17.6719 19.8364 17.3995 20.1094 17.0625 20.1094Z" fill="#00A1A5"/>
<path d="M23.1562 21.8776C21.9454 21.8776 20.7188 21.0611 20.7188 19.4999C20.7188 17.9386 21.9454 17.1221 23.1562 17.1221C24.3671 17.1221 25.5938 17.9386 25.5938 19.4999C25.5938 21.0611 24.3671 21.8776 23.1562 21.8776ZM23.1562 18.3408C22.5938 18.3408 21.9375 18.6443 21.9375 19.4999C21.9375 20.3554 22.5938 20.6589 23.1562 20.6589C23.7187 20.6589 24.375 20.3554 24.375 19.4999C24.375 18.6443 23.7187 18.3408 23.1562 18.3408Z" fill="#00A1A5"/>
<path d="M24.4484 18.817C24.2924 18.817 24.1364 18.7573 24.0176 18.6385C23.7793 18.4002 23.7793 18.0151 24.0176 17.7768L27.4648 14.3296C27.7031 14.0913 28.0882 14.0913 28.3265 14.3296C28.5647 14.5678 28.5647 14.953 28.3265 15.1912L24.8792 18.6385C24.7604 18.7573 24.6044 18.817 24.4484 18.817Z" fill="#00A1A5"/>
<path d="M21.0021 22.2643C20.8461 22.2643 20.6901 22.2046 20.5713 22.0857C20.333 21.8481 20.333 21.4623 20.5713 21.2241L21.4329 20.3618C21.6712 20.1235 22.0563 20.1235 22.2946 20.3618C22.5329 20.5995 22.5329 20.9852 22.2946 21.2235L21.4329 22.0857C21.3141 22.2046 21.1581 22.2643 21.0021 22.2643Z" fill="#00A1A5"/>
<path d="M23.1562 31.0781C22.8193 31.0781 22.5469 30.8051 22.5469 30.4688V28.6406C22.5469 28.3043 22.8193 28.0312 23.1562 28.0312C23.4932 28.0312 23.7656 28.3043 23.7656 28.6406V30.4688C23.7656 30.8051 23.4932 31.0781 23.1562 31.0781Z" fill="#00A1A5"/>
<path d="M30.9128 27.8655C30.7568 27.8655 30.6008 27.8058 30.4819 27.687L29.1894 26.3939C28.9512 26.1556 28.9512 25.7699 29.1894 25.5322C29.4277 25.2939 29.8128 25.2939 30.0511 25.5322L31.3436 26.8253C31.5818 27.0636 31.5818 27.4493 31.3436 27.687C31.2241 27.8058 31.0681 27.8655 30.9128 27.8655Z" fill="#00A1A5"/>
<path d="M29.6193 13.6463C29.4633 13.6463 29.3073 13.5866 29.1885 13.4677C28.9502 13.2301 28.9502 12.8443 29.1885 12.6061L30.481 11.313C30.7192 11.0747 31.1043 11.0747 31.3426 11.313C31.5809 11.5506 31.5809 11.9364 31.3426 12.1746L30.0501 13.4677C29.9313 13.5866 29.7753 13.6463 29.6193 13.6463Z" fill="#00A1A5"/>
<path d="M23.1562 10.9688C22.8193 10.9688 22.5469 10.6957 22.5469 10.3594V8.53125C22.5469 8.19488 22.8193 7.92188 23.1562 7.92188C23.4932 7.92188 23.7656 8.19488 23.7656 8.53125V10.3594C23.7656 10.6957 23.4932 10.9688 23.1562 10.9688Z" fill="#00A1A5"/>
<path d="M34.125 20.1094H32.2969C31.9599 20.1094 31.6875 19.8364 31.6875 19.5C31.6875 19.1636 31.9599 18.8906 32.2969 18.8906H34.125C34.462 18.8906 34.7344 19.1636 34.7344 19.5C34.7344 19.8364 34.462 20.1094 34.125 20.1094Z" fill="#00A1A5"/>
<path d="M18.762 12.7969H12.1875C11.8505 12.7969 11.5781 12.5239 11.5781 12.1875C11.5781 11.8511 11.8505 11.5781 12.1875 11.5781H18.762C19.099 11.5781 19.3714 11.8511 19.3714 12.1875C19.3714 12.5239 19.099 12.7969 18.762 12.7969Z" fill="#00A1A5"/>
<path d="M18.762 27.4219H12.1875C11.8505 27.4219 11.5781 27.1489 11.5781 26.8125C11.5781 26.4761 11.8505 26.2031 12.1875 26.2031H18.762C19.099 26.2031 19.3714 26.4761 19.3714 26.8125C19.3714 27.1489 19.099 27.4219 18.762 27.4219Z" fill="#00A1A5"/>
<path d="M23.1183 31.0666C21.3322 31.0666 19.5278 30.6553 17.852 29.7918C17.5528 29.6376 17.4352 29.2701 17.5894 28.9709C17.7436 28.6717 18.1116 28.5541 18.4102 28.7083C23.1902 31.1714 29.1444 29.5212 31.9658 24.9515C34.7951 20.3684 33.6111 14.2996 29.2705 11.1351C26.1268 8.8439 21.8636 8.5124 18.4102 10.2912C18.1116 10.4453 17.7436 10.3283 17.5894 10.0285C17.4352 9.72932 17.5522 9.36187 17.852 9.20769C21.7112 7.21869 26.4741 7.58858 29.9884 10.1498C34.8402 13.6866 36.1644 20.4696 33.0023 25.5913C30.8384 29.0977 27.0244 31.0666 23.1183 31.0666Z" fill="#00A1A5"/>
</svg>
