<svg width="32" height="32" viewBox="0 0 32 32" fill="none" xmlns="http://www.w3.org/2000/svg">
<g clip-path="url(#clip0_4777_9667)">
<path d="M31.9419 28.9946L30.1003 25.3108C31.3444 23.5381 31.9998 21.4708 31.9998 19.3103C31.9998 13.5299 27.2975 8.82765 21.5172 8.82765H20.219C18.6769 4.95514 14.8982 2.20703 10.4828 2.20703C4.70248 2.20703 0.00018651 6.90933 0.00018651 12.6897C0.00018651 14.8502 0.655628 16.9175 1.89975 18.6902L0.0581169 22.374C-0.047813 22.5864 -0.00643412 22.8429 0.16184 23.0107C0.26777 23.1166 0.40901 23.1723 0.551905 23.1723C0.635766 23.1723 0.720179 23.1536 0.798523 23.1144L4.48235 21.2728C6.25502 22.5169 8.3223 23.1723 10.4828 23.1723C10.9126 23.1723 11.3347 23.1381 11.7512 23.0879C13.3049 27.1127 17.1746 29.7929 21.5172 29.7929C23.6777 29.7929 25.745 29.1375 27.5177 27.8934L31.2015 29.735C31.2798 29.7742 31.3643 29.7929 31.4481 29.7929C31.591 29.7929 31.7323 29.7372 31.8382 29.6313C32.0065 29.463 32.0478 29.2065 31.9419 28.9946ZM10.4828 22.0689C8.4481 22.0689 6.5066 21.4184 4.86634 20.1881C4.76869 20.1147 4.65227 20.0777 4.53476 20.0777C4.4509 20.0777 4.36593 20.097 4.28814 20.1357L1.78499 21.3875L3.03684 18.8844C3.13008 18.6973 3.11022 18.4739 2.98443 18.3062C1.7541 16.6659 1.10362 14.7244 1.10362 12.6897C1.10362 7.51787 5.31103 3.31047 10.4828 3.31047C15.6546 3.31047 19.862 7.51787 19.862 12.6897C19.862 17.8615 15.6546 22.0689 10.4828 22.0689ZM27.7119 26.7563C27.5243 26.6636 27.3009 26.6829 27.1337 26.8087C25.4934 28.039 23.5514 28.6895 21.5172 28.6895C17.7032 28.6895 14.2963 26.3806 12.8569 22.8909C17.4957 21.8107 20.9655 17.6524 20.9655 12.6897C20.9655 11.7335 20.8259 10.8116 20.5848 9.93109H21.5172C26.689 9.93109 30.8964 14.1385 30.8964 19.3103C30.8964 21.345 30.2459 23.2865 29.0156 24.9268C28.8898 25.0945 28.8699 25.318 28.9632 25.505L30.215 28.0081L27.7119 26.7563Z" fill="#00A1A5"/>
<path d="M6.06922 11.0347C5.15668 11.0347 4.41406 11.7773 4.41406 12.6898C4.41406 13.6024 5.15668 14.345 6.06922 14.345C6.98176 14.345 7.72437 13.6024 7.72437 12.6898C7.72437 11.7773 6.98176 11.0347 6.06922 11.0347ZM6.06922 13.2415C5.76467 13.2415 5.5175 12.9944 5.5175 12.6898C5.5175 12.3853 5.76467 12.1381 6.06922 12.1381C6.37377 12.1381 6.62094 12.3853 6.62094 12.6898C6.62094 12.9944 6.37377 13.2415 6.06922 13.2415Z" fill="#00A1A5"/>
<path d="M10.4833 11.0347C9.57074 11.0347 8.82812 11.7773 8.82812 12.6898C8.82812 13.6024 9.57074 14.345 10.4833 14.345C11.3958 14.345 12.1384 13.6024 12.1384 12.6898C12.1384 11.7773 11.3958 11.0347 10.4833 11.0347ZM10.4833 13.2415C10.1787 13.2415 9.93156 12.9944 9.93156 12.6898C9.93156 12.3853 10.1787 12.1381 10.4833 12.1381C10.7878 12.1381 11.035 12.3853 11.035 12.6898C11.035 12.9944 10.7878 13.2415 10.4833 13.2415Z" fill="#00A1A5"/>
<path d="M14.8964 11.0347C13.9838 11.0347 13.2412 11.7773 13.2412 12.6898C13.2412 13.6024 13.9838 14.345 14.8964 14.345C15.8089 14.345 16.5515 13.6024 16.5515 12.6898C16.5515 11.7773 15.8089 11.0347 14.8964 11.0347ZM14.8964 13.2415C14.5918 13.2415 14.3446 12.9944 14.3446 12.6898C14.3446 12.3853 14.5918 12.1381 14.8964 12.1381C15.2009 12.1381 15.4481 12.3853 15.4481 12.6898C15.4481 12.9944 15.2009 13.2415 14.8964 13.2415Z" fill="#00A1A5"/>
<path d="M21.5175 17.6553C20.6049 17.6553 19.8623 18.3979 19.8623 19.3104C19.8623 20.223 20.6049 20.9656 21.5175 20.9656C22.43 20.9656 23.1726 20.223 23.1726 19.3104C23.1726 18.3979 22.43 17.6553 21.5175 17.6553ZM21.5175 19.8621C21.2129 19.8621 20.9657 19.615 20.9657 19.3104C20.9657 19.0059 21.2129 18.7587 21.5175 18.7587C21.822 18.7587 22.0692 19.0059 22.0692 19.3104C22.0692 19.615 21.822 19.8621 21.5175 19.8621Z" fill="#00A1A5"/>
<path d="M25.9305 17.6553C25.018 17.6553 24.2754 18.3979 24.2754 19.3104C24.2754 20.223 25.018 20.9656 25.9305 20.9656C26.8431 20.9656 27.5857 20.223 27.5857 19.3104C27.5857 18.3979 26.8431 17.6553 25.9305 17.6553ZM25.9305 19.8621C25.626 19.8621 25.3788 19.615 25.3788 19.3104C25.3788 19.0059 25.626 18.7587 25.9305 18.7587C26.2351 18.7587 26.4823 19.0059 26.4823 19.3104C26.4823 19.615 26.2351 19.8621 25.9305 19.8621Z" fill="#00A1A5"/>
</g>
<defs>
<clipPath id="clip0_4777_9667">
<rect width="32" height="32" fill="white"/>
</clipPath>
</defs>
</svg>
