<svg width="27" height="27" viewBox="0 0 27 27" fill="none" xmlns="http://www.w3.org/2000/svg">
<path d="M5.73476 9.43436C6.21712 9.43436 6.68865 9.29132 7.08972 9.02334C7.49078 8.75535 7.80338 8.37445 7.98797 7.92881C8.17256 7.48317 8.22086 6.9928 8.12676 6.5197C8.03265 6.04661 7.80037 5.61205 7.45929 5.27097C7.11821 4.92989 6.68365 4.69761 6.21056 4.6035C5.73746 4.5094 5.24709 4.5577 4.80145 4.74229C4.3558 4.92688 3.97491 5.23948 3.70692 5.64054C3.43894 6.04161 3.2959 6.51314 3.2959 6.9955C3.29668 7.64209 3.55388 8.26197 4.01109 8.71917C4.46829 9.17638 5.08817 9.43358 5.73476 9.43436ZM5.73476 5.40039C6.05024 5.40039 6.35864 5.49394 6.62095 5.66922C6.88327 5.84449 7.08772 6.09361 7.20845 6.38508C7.32918 6.67655 7.36076 6.99727 7.29922 7.30669C7.23767 7.61611 7.08575 7.90033 6.86267 8.12341C6.63959 8.34649 6.35537 8.49841 6.04595 8.55996C5.73653 8.62151 5.4158 8.58992 5.12434 8.46919C4.83287 8.34846 4.58375 8.14401 4.40847 7.8817C4.2332 7.61938 4.13965 7.31098 4.13965 6.9955C4.1401 6.57255 4.30828 6.16704 4.60731 5.86793C4.90635 5.56882 5.31181 5.40095 5.73476 5.40039Z" fill="#00A1A5"/>
<path d="M25.7344 20.2612H24.8906V5.86427C24.8895 5.4321 24.717 5.01802 24.4111 4.71283C24.1051 4.40764 23.6906 4.23625 23.2584 4.23625H9.72042C9.6762 4.08104 9.59365 3.93945 9.48038 3.8245L8.90536 3.24864C8.7234 3.06676 8.47666 2.96459 8.21939 2.96459C7.96212 2.96459 7.71538 3.06676 7.53342 3.24864L7.32628 3.4562C7.30859 3.47371 7.28612 3.48561 7.26169 3.49042C7.23727 3.49523 7.21197 3.49272 7.18896 3.48322C7.16595 3.47372 7.14625 3.45764 7.13233 3.437C7.11841 3.41637 7.11089 3.39208 7.1107 3.36719V3.07188C7.1107 2.94445 7.0856 2.81828 7.03684 2.70055C6.98808 2.58283 6.91661 2.47586 6.8265 2.38576C6.7364 2.29566 6.62944 2.22419 6.51171 2.17542C6.39399 2.12666 6.26781 2.10156 6.14039 2.10156H5.32786C5.07052 2.10156 4.82371 2.20379 4.64174 2.38576C4.45978 2.56773 4.35755 2.81453 4.35755 3.07188V3.36719C4.35728 3.39199 4.34973 3.41618 4.33583 3.43673C4.32193 3.45728 4.3023 3.47329 4.27938 3.48278C4.25645 3.49226 4.23125 3.4948 4.20689 3.49007C4.18254 3.48535 4.16011 3.47357 4.14239 3.4562L3.93483 3.24864C3.75291 3.06702 3.50635 2.96501 3.24928 2.96501C2.99222 2.96501 2.74566 3.06702 2.56373 3.24864L1.98914 3.82492C1.80765 4.00683 1.70572 4.2533 1.70572 4.51026C1.70572 4.76722 1.80765 5.01369 1.98914 5.19559L2.20008 5.40653C2.21684 5.42444 2.22804 5.44684 2.23231 5.47099C2.23659 5.49515 2.23374 5.52003 2.22413 5.5426C2.21452 5.56518 2.19856 5.58447 2.17819 5.59813C2.15781 5.6118 2.13391 5.61925 2.10938 5.61958H1.81406C1.55672 5.61958 1.30992 5.72181 1.12795 5.90378C0.945979 6.08574 0.84375 6.33255 0.84375 6.58989V7.40327C0.84375 7.66061 0.945979 7.90741 1.12795 8.08938C1.30992 8.27135 1.55672 8.37358 1.81406 8.37358H2.10938C2.13413 8.37384 2.15827 8.38136 2.1788 8.39521C2.19932 8.40905 2.21534 8.42862 2.22486 8.45147C2.23438 8.47433 2.23698 8.49948 2.23235 8.5238C2.22773 8.54812 2.21606 8.57055 2.19881 8.58831L1.99083 8.79672C1.80908 8.97866 1.70699 9.22531 1.70699 9.48248C1.70699 9.73964 1.80908 9.98629 1.99083 10.1682L2.56584 10.7428C2.67261 10.8483 2.80267 10.9272 2.94553 10.9732V20.2612H2.10178C1.98989 20.2612 1.88259 20.3056 1.80347 20.3847C1.72435 20.4639 1.67991 20.5712 1.67991 20.683V21.7576C1.6808 22.5894 2.01163 23.387 2.59982 23.9753C3.188 24.5635 3.98551 24.8945 4.81739 24.8955H23.0183C23.8503 24.8946 24.6479 24.5637 25.2362 23.9754C25.8245 23.3871 26.1554 22.5895 26.1562 21.7576V20.683C26.1562 20.5712 26.1118 20.4639 26.0327 20.3847C25.9536 20.3056 25.8463 20.2612 25.7344 20.2612ZM18.6469 21.1049L18.2026 21.8432H9.63098L9.18633 21.1049H18.6469ZM24.0469 5.86427V20.2603H3.78759V10.8622C3.84057 10.8268 3.89002 10.7864 3.93525 10.7416L4.14323 10.5336C4.16095 10.5162 4.18338 10.5044 4.20773 10.4997C4.23209 10.495 4.2573 10.4975 4.28022 10.507C4.30314 10.5165 4.32278 10.5325 4.33667 10.5531C4.35057 10.5736 4.35812 10.5978 4.35839 10.6226V10.9179C4.35839 11.1752 4.46062 11.4221 4.64259 11.604C4.82456 11.786 5.07136 11.8882 5.3287 11.8882H6.14208C6.2695 11.8882 6.39568 11.8631 6.5134 11.8144C6.63112 11.7656 6.73809 11.6941 6.82819 11.604C6.91829 11.5139 6.98977 11.407 7.03853 11.2892C7.08729 11.1715 7.11239 11.0453 7.11239 10.9179V10.6226C7.11266 10.5978 7.12021 10.5736 7.13411 10.5531C7.14801 10.5325 7.16764 10.5165 7.19056 10.507C7.21349 10.4975 7.23869 10.495 7.26305 10.4997C7.2874 10.5044 7.30983 10.5162 7.32755 10.5336L7.53595 10.7416C7.71788 10.9232 7.96444 11.0252 8.2215 11.0252C8.47857 11.0252 8.72512 10.9232 8.90705 10.7416L9.48038 10.1674C9.66213 9.98545 9.76422 9.7388 9.76422 9.48163C9.76422 9.22446 9.66213 8.97782 9.48038 8.79588L9.27239 8.58747C9.25516 8.56973 9.24351 8.54734 9.23886 8.52306C9.23422 8.49877 9.23679 8.47366 9.24626 8.45082C9.25573 8.42798 9.27168 8.40841 9.29214 8.39454C9.3126 8.38066 9.33668 8.37308 9.36141 8.37273H9.65672C9.91406 8.37273 10.1609 8.27051 10.3428 8.08854C10.5248 7.90657 10.627 7.65976 10.627 7.40242V6.58905C10.627 6.3317 10.5248 6.0849 10.3428 5.90293C10.1609 5.72096 9.91406 5.61873 9.65672 5.61873H9.36141C9.3366 5.61847 9.31242 5.61092 9.29187 5.59702C9.27132 5.58312 9.2553 5.56349 9.24582 5.54056C9.23633 5.51764 9.2338 5.49243 9.23852 5.46808C9.24325 5.44372 9.25502 5.42129 9.27239 5.40358L9.47995 5.19517C9.51471 5.15919 9.54659 5.12054 9.5753 5.07958H23.2567C23.4655 5.07891 23.6661 5.16119 23.8142 5.30833C23.9624 5.45548 24.0461 5.65544 24.0469 5.86427ZM2.54855 9.481C2.54837 9.46446 2.55154 9.44805 2.55784 9.43276C2.56415 9.41746 2.57347 9.4036 2.58525 9.39198L2.79366 9.184C2.92891 9.04836 3.02099 8.87572 3.05829 8.68784C3.0956 8.49995 3.07646 8.30523 3.00328 8.12821C2.93011 7.95118 2.80618 7.79978 2.6471 7.69307C2.48803 7.58636 2.30093 7.52912 2.10938 7.52856H1.81406C1.79744 7.52856 1.78098 7.52529 1.76563 7.51893C1.75027 7.51257 1.73632 7.50325 1.72457 7.49149C1.71282 7.47974 1.70349 7.46579 1.69713 7.45043C1.69077 7.43508 1.6875 7.41862 1.6875 7.402V6.58905C1.6875 6.55548 1.70083 6.52329 1.72457 6.49955C1.7483 6.47582 1.7805 6.46248 1.81406 6.46248H2.10938C2.30044 6.46152 2.48697 6.40416 2.64558 6.29761C2.80418 6.19106 2.92779 6.04005 3.00092 5.86353C3.07404 5.687 3.09342 5.49282 3.05662 5.30532C3.01983 5.11783 2.92849 4.94537 2.79408 4.80958L2.58314 4.59864C2.57136 4.58703 2.56204 4.57316 2.55573 4.55787C2.54943 4.54257 2.54626 4.52617 2.54644 4.50962C2.54647 4.47628 2.55966 4.44429 2.58314 4.42061L3.16027 3.84644C3.18398 3.82287 3.21606 3.80963 3.24949 3.80963C3.28293 3.80963 3.31501 3.82287 3.33872 3.84644L3.5467 4.05442C3.68242 4.18975 3.85518 4.28185 4.04318 4.31912C4.23118 4.35638 4.426 4.33713 4.60308 4.2638C4.78015 4.19047 4.93155 4.06634 5.03816 3.90708C5.14477 3.74781 5.20183 3.56053 5.20214 3.36888V3.07356C5.20214 3.04 5.21548 3.0078 5.23921 2.98407C5.26295 2.96033 5.29514 2.947 5.3287 2.947H6.14208C6.17564 2.947 6.20784 2.96033 6.23157 2.98407C6.25531 3.0078 6.26864 3.04 6.26864 3.07356V3.36888C6.2692 3.56027 6.32634 3.74723 6.43289 3.90623C6.53945 4.06523 6.69064 4.18917 6.86746 4.26245C7.04427 4.33572 7.23881 4.35507 7.4266 4.31806C7.61439 4.28104 7.78703 4.18932 7.92281 4.05442L8.13037 3.84644C8.15409 3.82287 8.18617 3.80963 8.2196 3.80963C8.25304 3.80963 8.28511 3.82287 8.30883 3.84644L8.88384 4.42145C8.90742 4.44517 8.92065 4.47724 8.92065 4.51068C8.92065 4.54412 8.90742 4.57619 8.88384 4.59991L8.67586 4.80789C8.54053 4.94361 8.44843 5.11636 8.41116 5.30436C8.3739 5.49237 8.39315 5.68719 8.46648 5.86427C8.53981 6.04134 8.66394 6.19273 8.82321 6.29935C8.98247 6.40596 9.16975 6.46302 9.36141 6.46333H9.65672C9.69028 6.46333 9.72248 6.47666 9.74621 6.5004C9.76995 6.52413 9.78328 6.55632 9.78328 6.58989V7.40327C9.78328 7.43683 9.76995 7.46902 9.74621 7.49276C9.72248 7.51649 9.69028 7.52983 9.65672 7.52983H9.36141C9.16971 7.53005 8.98238 7.58705 8.82305 7.69363C8.66371 7.80021 8.53952 7.9516 8.46614 8.1287C8.39276 8.30579 8.37347 8.50065 8.41072 8.68869C8.44797 8.87673 8.54008 9.04952 8.67544 9.18527L8.88384 9.39325C8.89563 9.40486 8.90495 9.41873 8.91125 9.43402C8.91756 9.44932 8.92072 9.46572 8.92055 9.48226C8.92063 9.51576 8.90743 9.54792 8.88384 9.5717L8.31094 10.145C8.28722 10.1686 8.25515 10.1818 8.22171 10.1818C8.18828 10.1818 8.1562 10.1686 8.13248 10.145L7.9245 9.93705C7.78878 9.80172 7.61603 9.70962 7.42803 9.67235C7.24002 9.63509 7.0452 9.65434 6.86812 9.72767C6.69105 9.801 6.53966 9.92512 6.43304 10.0844C6.32643 10.2437 6.26937 10.4309 6.26906 10.6226V10.9179C6.26906 10.9345 6.26579 10.951 6.25943 10.9663C6.25307 10.9817 6.24375 10.9956 6.23199 11.0074C6.22024 11.0192 6.20629 11.0285 6.19093 11.0348C6.17558 11.0412 6.15912 11.0445 6.1425 11.0445H5.32786C5.31124 11.0445 5.29478 11.0412 5.27943 11.0348C5.26407 11.0285 5.25012 11.0192 5.23837 11.0074C5.22661 10.9956 5.21729 10.9817 5.21093 10.9663C5.20457 10.951 5.2013 10.9345 5.2013 10.9179V10.6226C5.20099 10.4309 5.14393 10.2437 5.03732 10.0844C4.9307 9.92512 4.77931 9.801 4.60224 9.72767C4.42516 9.65434 4.23033 9.63509 4.04233 9.67235C3.85433 9.70962 3.68158 9.80172 3.54586 9.93705L3.33788 10.145C3.31416 10.1686 3.28208 10.1818 3.24865 10.1818C3.21521 10.1818 3.18313 10.1686 3.15942 10.145L2.58567 9.57044C2.5738 9.55878 2.5644 9.54486 2.55802 9.52949C2.55164 9.51413 2.54842 9.49764 2.54855 9.481ZM25.3125 21.7576C25.3118 22.3658 25.0699 22.9489 24.6398 23.379C24.2097 23.8091 23.6266 24.0511 23.0183 24.0517H4.81402C4.20585 24.0509 3.62282 23.809 3.19281 23.3789C2.76281 22.9488 2.52095 22.3657 2.52028 21.7576V21.1049H8.20167L9.0315 22.4828C9.06901 22.545 9.12196 22.5965 9.18523 22.6323C9.2485 22.6681 9.31994 22.6869 9.39262 22.687H18.4397C18.5125 22.687 18.584 22.6682 18.6474 22.6324C18.7107 22.5966 18.7637 22.5451 18.8013 22.4828L19.6311 21.1049H25.3125V21.7576Z" fill="#00A1A5"/>
<path d="M15.5786 7.37347L9.28167 13.6712C9.24396 13.7088 9.21374 13.7531 9.19266 13.802L9.18886 13.8109L7.41698 17.9073C7.41698 17.9115 7.41698 17.917 7.41319 17.9212C7.39699 17.9643 7.38787 18.0097 7.38619 18.0558C7.38619 18.0621 7.38281 18.0672 7.38281 18.0735C7.38281 18.0798 7.38745 18.0908 7.38787 18.1001C7.39047 18.1374 7.39799 18.1743 7.41023 18.2098C7.41406 18.2241 7.41885 18.2382 7.42458 18.2519C7.44404 18.2964 7.47133 18.337 7.50516 18.3718C7.58445 18.4517 7.69208 18.4972 7.80469 18.4983H18.4402C18.552 18.4983 18.6594 18.4539 18.7385 18.3747C18.8176 18.2956 18.862 18.1883 18.862 18.0764C18.862 17.9645 18.8176 17.8572 18.7385 17.7781C18.6594 17.699 18.552 17.6546 18.4402 17.6546H9.83855L12.0745 16.6843C12.123 16.6629 12.1672 16.6327 12.2048 16.5952L18.5039 10.2979H18.5072V10.2945L19.8994 8.90234C20.52 8.28092 20.6326 7.42114 20.1555 6.944L18.9321 5.72056C18.7997 5.59658 18.6389 5.50707 18.4638 5.45991C18.2887 5.41275 18.1047 5.40939 17.928 5.45014C17.5646 5.52664 17.2324 5.70982 16.9737 5.97622L15.5815 7.36841L15.5777 7.37094L15.5786 7.37347ZM11.9083 15.7013L11.3408 15.1339L15.741 10.7333C15.7834 10.695 15.8176 10.6484 15.8414 10.5965C15.8653 10.5446 15.8783 10.4883 15.8798 10.4312C15.8813 10.3741 15.8711 10.3172 15.8499 10.2641C15.8288 10.211 15.7971 10.1628 15.7567 10.1224C15.7163 10.0819 15.6682 10.0501 15.6151 10.0288C15.5621 10.0075 15.5053 9.99725 15.4481 9.9986C15.391 9.99994 15.3347 10.0129 15.2827 10.0366C15.2308 10.0604 15.1842 10.0944 15.1457 10.1368L10.7456 14.5369L10.176 13.9695L15.8802 8.26489L17.612 9.99838L11.9083 15.7013ZM9.72 14.7065L11.1704 16.1578L8.61258 17.2648L9.72 14.7065ZM17.5745 6.57064C17.7134 6.42496 17.8918 6.32305 18.0879 6.27744C18.1302 6.26403 18.1749 6.26045 18.2188 6.26695C18.2627 6.27346 18.3045 6.28989 18.341 6.31498L19.5645 7.53842C19.6653 7.63967 19.6151 7.99658 19.3084 8.3037L18.2115 9.40058L16.4818 7.66836L17.5745 6.57064Z" fill="#00A1A5"/>
</svg>
