<svg width="34" height="34" viewBox="0 0 34 34" fill="none" xmlns="http://www.w3.org/2000/svg">
<g clip-path="url(#clip0_4310_604)">
<path fill-rule="evenodd" clip-rule="evenodd" d="M5.57089 23.6002C5.13156 23.1609 5.13154 22.4485 5.57089 22.0092L17.2381 10.3419C17.6775 9.9026 18.3898 9.9026 18.8291 10.3419C19.2685 10.7813 19.2685 11.4936 18.8291 11.9329L7.16188 23.6002C6.72253 24.0395 6.01021 24.0395 5.57089 23.6002Z" fill="#020202"/>
<path fill-rule="evenodd" clip-rule="evenodd" d="M7.36244 11.1338C7.36245 10.5125 7.86615 10.0088 8.48748 10.0088L18.0334 10.0088C18.6547 10.0088 19.1584 10.5125 19.1584 11.1338L19.1584 20.6797C19.1584 21.301 18.6547 21.8047 18.0334 21.8048C17.4121 21.8047 16.9084 21.301 16.9084 20.6797L16.9084 12.2588L8.48744 12.2588C7.86617 12.2588 7.36249 11.7551 7.36244 11.1338Z" fill="#020202"/>
</g>
<defs>
<clipPath id="clip0_4310_604">
<rect width="24" height="24" fill="white" transform="translate(0 16.9707) rotate(-45)"/>
</clipPath>
</defs>
</svg>
