<svg width="49" height="49" viewBox="0 0 49 49" fill="none" xmlns="http://www.w3.org/2000/svg">
<circle cx="24.5" cy="24.5" r="24" stroke="white"/>
<g clip-path="url(#clip0_620_1138)">
<path d="M37.8257 37.2764H12.7036C11.2968 37.2764 10.1914 36.171 10.1914 34.7642V32.252H40.3379V34.7642C40.3379 36.171 39.2325 37.2764 37.8257 37.2764ZM11.1963 33.2568V34.7642C11.1963 35.6183 11.8495 36.2715 12.7036 36.2715H37.8257C38.6798 36.2715 39.333 35.6183 39.333 34.7642V33.2568H11.1963Z" fill="white"/>
<path d="M27.2749 35.2666H23.2554C22.4012 35.2666 21.748 34.6134 21.748 33.7593V32.252H28.7822V33.7593C28.7822 34.6134 28.1291 35.2666 27.2749 35.2666ZM22.7529 33.2568V33.7593C22.7529 34.0607 22.9539 34.2617 23.2554 34.2617H27.2749C27.5764 34.2617 27.7773 34.0607 27.7773 33.7593V33.2568H22.7529Z" fill="white"/>
<path d="M28.2791 27.2275H22.2498V14.1641H18.0293L25.2645 6.92889L32.4996 14.1641H28.2791V27.2275ZM23.2547 26.2226H27.2742V13.1592H30.0879L25.2645 8.33573L20.441 13.1592H23.2547V26.2226Z" fill="white"/>
<path d="M27.7759 18.1836V19.1885H34.3076V29.2373H16.2197V19.1885H22.7515V18.1836H15.2148V30.2422H35.3125V18.1836H27.7759Z" fill="white"/>
<path d="M35.8169 16.1738H27.7778V17.1787H35.8169C36.1184 17.1787 36.3193 17.3797 36.3193 17.6812V32.252H14.2119V17.6812C14.2119 17.3797 14.4129 17.1787 14.7144 17.1787H22.7534V16.1738H14.7144C13.8602 16.1738 13.207 16.827 13.207 17.6812V33.2568H37.3242V17.6812C37.3242 16.827 36.671 16.1738 35.8169 16.1738Z" fill="white"/>
</g>
<defs>
<clipPath id="clip0_620_1138">
<rect width="32.1562" height="32.1562" fill="white" transform="translate(9.1875 6.125)"/>
</clipPath>
</defs>
</svg>
