<svg width="62" height="62" viewBox="0 0 62 62" fill="none" xmlns="http://www.w3.org/2000/svg">
<circle cx="31" cy="31" r="30" stroke="url(#paint0_linear_791_164)" stroke-width="2"/>
<path d="M25.375 19.125C25.375 18.4346 24.8154 17.875 24.125 17.875C23.4346 17.875 22.875 18.4346 22.875 19.125V20.375C22.875 21.0654 23.4346 21.625 24.125 21.625C24.8154 21.625 25.375 21.0654 25.375 20.375V19.125Z" fill="url(#paint1_linear_791_164)"/>
<path d="M39.125 19.125C39.125 18.4346 38.5654 17.875 37.875 17.875C37.1846 17.875 36.625 18.4346 36.625 19.125V20.375C36.625 21.0654 37.1846 21.625 37.875 21.625C38.5654 21.625 39.125 21.0654 39.125 20.375V19.125Z" fill="url(#paint2_linear_791_164)"/>
<path d="M18.5 27.25V41.625C18.5 43.0056 19.6194 44.125 21 44.125H41C42.3806 44.125 43.5 43.0056 43.5 41.625V27.25H18.5ZM26 39.75C26 40.4406 25.4406 41 24.75 41H23.5C22.8094 41 22.25 40.4406 22.25 39.75V38.5C22.25 37.8094 22.8094 37.25 23.5 37.25H24.75C25.4406 37.25 26 37.8094 26 38.5V39.75ZM26 32.875C26 33.5656 25.4406 34.125 24.75 34.125H23.5C22.8094 34.125 22.25 33.5656 22.25 32.875V31.625C22.25 30.9344 22.8094 30.375 23.5 30.375H24.75C25.4406 30.375 26 30.9344 26 31.625V32.875ZM32.875 39.75C32.875 40.4406 32.3156 41 31.625 41H30.375C29.6844 41 29.125 40.4406 29.125 39.75V38.5C29.125 37.8094 29.6844 37.25 30.375 37.25H31.625C32.3156 37.25 32.875 37.8094 32.875 38.5V39.75ZM32.875 32.875C32.875 33.5656 32.3156 34.125 31.625 34.125H30.375C29.6844 34.125 29.125 33.5656 29.125 32.875V31.625C29.125 30.9344 29.6844 30.375 30.375 30.375H31.625C32.3156 30.375 32.875 30.9344 32.875 31.625V32.875ZM39.75 39.75C39.75 40.4406 39.1906 41 38.5 41H37.25C36.5594 41 36 40.4406 36 39.75V38.5C36 37.8094 36.5594 37.25 37.25 37.25H38.5C39.1906 37.25 39.75 37.8094 39.75 38.5V39.75ZM39.75 32.875C39.75 33.5656 39.1906 34.125 38.5 34.125H37.25C36.5594 34.125 36 33.5656 36 32.875V31.625C36 30.9344 36.5594 30.375 37.25 30.375H38.5C39.1906 30.375 39.75 30.9344 39.75 31.625V32.875Z" fill="url(#paint3_linear_791_164)"/>
<path d="M43.5 26V22.25C43.5 20.8694 42.3806 19.75 41 19.75H40.375V20.375C40.375 21.7538 39.2538 22.875 37.875 22.875C36.4963 22.875 35.375 21.7538 35.375 20.375V19.75H26.625V20.375C26.625 21.7538 25.5038 22.875 24.125 22.875C22.7463 22.875 21.625 21.7538 21.625 20.375V19.75H21C19.6194 19.75 18.5 20.8694 18.5 22.25V26H43.5Z" fill="url(#paint4_linear_791_164)"/>
<defs>
<linearGradient id="paint0_linear_791_164" x1="0" y1="31" x2="62" y2="31" gradientUnits="userSpaceOnUse">
<stop stop-color="#075B65"/>
<stop offset="0.370192" stop-color="#00838A"/>
<stop offset="0.8125" stop-color="#328A99"/>
</linearGradient>
<linearGradient id="paint1_linear_791_164" x1="22.875" y1="19.75" x2="25.375" y2="19.75" gradientUnits="userSpaceOnUse">
<stop stop-color="#075B65"/>
<stop offset="0.370192" stop-color="#00838A"/>
<stop offset="0.8125" stop-color="#328A99"/>
</linearGradient>
<linearGradient id="paint2_linear_791_164" x1="36.625" y1="19.75" x2="39.125" y2="19.75" gradientUnits="userSpaceOnUse">
<stop stop-color="#075B65"/>
<stop offset="0.370192" stop-color="#00838A"/>
<stop offset="0.8125" stop-color="#328A99"/>
</linearGradient>
<linearGradient id="paint3_linear_791_164" x1="18.5" y1="35.6875" x2="43.5" y2="35.6875" gradientUnits="userSpaceOnUse">
<stop stop-color="#075B65"/>
<stop offset="0.370192" stop-color="#00838A"/>
<stop offset="0.8125" stop-color="#328A99"/>
</linearGradient>
<linearGradient id="paint4_linear_791_164" x1="18.5" y1="22.875" x2="43.5" y2="22.875" gradientUnits="userSpaceOnUse">
<stop stop-color="#075B65"/>
<stop offset="0.370192" stop-color="#00838A"/>
<stop offset="0.8125" stop-color="#328A99"/>
</linearGradient>
</defs>
</svg>
