<svg width="54" height="54" viewBox="0 0 54 54" fill="none" xmlns="http://www.w3.org/2000/svg">
<g clip-path="url(#clip0_620_60)">
<path d="M50.2098 16.9844H48.7309V33.2402C48.7309 35.7713 47.2572 38.0599 44.3027 38.0599H15.3574V38.8327C15.3574 41.0704 17.9026 43.3292 20.5163 43.3292H42.6464L51.1127 48.307L49.8849 43.3292H50.2098C52.8218 43.3292 54.0004 41.0757 54.0004 38.8327V20.8433C54.0004 18.6056 52.8218 16.9844 50.2098 16.9844Z" fill="white"/>
<path d="M39.9814 5.69043H6.36203C3.40409 5.69043 0 8.31806 0 10.8509V31.2256C0 33.5581 2.88417 35.2425 5.65065 35.5025L3.85024 42.3368L15.3869 35.5499H39.9814C42.9393 35.5499 45.6689 33.7566 45.6689 31.2256V14.7414V10.8509C45.6689 8.31806 42.9376 5.69043 39.9814 5.69043ZM11.491 22.8895C9.81355 22.8895 8.45402 21.53 8.45402 19.8526C8.45402 18.1752 9.81355 16.8157 11.491 16.8157C13.1667 16.8157 14.528 18.1752 14.528 19.8526C14.528 21.53 13.1667 22.8895 11.491 22.8895ZM22.8345 22.8895C21.157 22.8895 19.7975 21.53 19.7975 19.8526C19.7975 18.1752 21.157 16.8157 22.8345 16.8157C24.5119 16.8157 25.8715 18.1752 25.8715 19.8526C25.8715 21.53 24.5119 22.8895 22.8345 22.8895ZM34.1797 22.8895C32.5022 22.8895 31.1409 21.53 31.1409 19.8526C31.1409 18.1752 32.5022 16.8157 34.1797 16.8157C35.8536 16.8157 37.2167 18.1752 37.2167 19.8526C37.2167 21.53 35.8536 22.8895 34.1797 22.8895Z" fill="white"/>
</g>
<defs>
<clipPath id="clip0_620_60">
<rect width="54" height="54" fill="white"/>
</clipPath>
</defs>
</svg>
