<svg width="39" height="39" viewBox="0 0 39 39" fill="none" xmlns="http://www.w3.org/2000/svg">
<path d="M1.82812 23.7656H4.875C5.18474 24.8246 5.60978 25.8463 6.1425 26.8125L3.98531 28.9758C3.92883 29.0327 3.88415 29.1003 3.85383 29.1745C3.8235 29.2487 3.80813 29.3282 3.80859 29.4084C3.81084 29.5698 3.87396 29.7243 3.98531 29.8411L9.14062 35.0147C9.19727 35.0718 9.26467 35.1171 9.33893 35.1481C9.41319 35.179 9.49284 35.1949 9.57328 35.1949C9.65373 35.1949 9.73337 35.179 9.80763 35.1481C9.88189 35.1171 9.94929 35.0718 10.0059 35.0147L12.1875 32.8575C13.1537 33.3902 14.1754 33.8153 15.2344 34.125V37.1719C15.2344 37.3335 15.2986 37.4885 15.4129 37.6028C15.5271 37.717 15.6821 37.7812 15.8438 37.7812H18.8906C19.0522 37.7812 19.2072 37.717 19.3215 37.6028C19.4358 37.4885 19.5 37.3335 19.5 37.1719V31.6875C19.5002 31.531 19.4402 31.3805 19.3324 31.267C19.2247 31.1536 19.0774 31.0859 18.9211 31.0781C15.9676 30.912 13.1898 29.6216 11.1577 27.472C9.12559 25.3223 7.99335 22.4764 7.99335 19.5183C7.99335 16.5602 9.12559 13.7142 11.1577 11.5646C13.1898 9.41492 15.9676 8.1246 18.9211 7.95844C19.0017 7.95455 19.0807 7.9347 19.1536 7.90003C19.2264 7.86536 19.2917 7.81656 19.3456 7.75647C19.3994 7.69638 19.4408 7.62619 19.4673 7.54998C19.4938 7.47376 19.5049 7.39304 19.5 7.3125V1.82812C19.5 1.66651 19.4358 1.51151 19.3215 1.39723C19.2072 1.28295 19.0522 1.21875 18.8906 1.21875H15.8438C15.6821 1.21875 15.5271 1.28295 15.4129 1.39723C15.2986 1.51151 15.2344 1.66651 15.2344 1.82812V4.875C14.1754 5.18474 13.1537 5.60978 12.1875 6.1425L10.0242 3.98531C9.96728 3.92883 9.89975 3.88415 9.82551 3.85383C9.75126 3.8235 9.67176 3.80813 9.59156 3.80859C9.43022 3.81084 9.27568 3.87396 9.15891 3.98531L3.98531 9.14062C3.87396 9.2574 3.81084 9.41194 3.80859 9.57328C3.80813 9.65348 3.8235 9.73298 3.85383 9.80722C3.88415 9.88147 3.92883 9.949 3.98531 10.0059L6.1425 12.1875C5.60978 13.1537 5.18474 14.1754 4.875 15.2344H1.82812C1.66651 15.2344 1.51151 15.2986 1.39723 15.4129C1.28295 15.5271 1.21875 15.6821 1.21875 15.8438V23.1562C1.21875 23.3179 1.28295 23.4729 1.39723 23.5871C1.51151 23.7014 1.66651 23.7656 1.82812 23.7656ZM2.4375 16.4531H5.33813C5.47651 16.4575 5.61226 16.4146 5.72302 16.3316C5.83378 16.2485 5.91296 16.1302 5.9475 15.9961C6.27479 14.729 6.77947 13.5145 7.44656 12.3886C7.51109 12.2677 7.53296 12.1285 7.50863 11.9936C7.4843 11.8587 7.41521 11.7359 7.3125 11.6452L5.27719 9.59156L9.59156 5.27719L11.6452 7.3125C11.7412 7.40833 11.8665 7.46936 12.0012 7.48591C12.1358 7.50247 12.2722 7.47361 12.3886 7.40391C13.5145 6.73681 14.729 6.23214 15.9961 5.90484C16.1302 5.8703 16.2485 5.79113 16.3316 5.68037C16.4146 5.5696 16.4575 5.43385 16.4531 5.29547V2.4375H18.2812V6.76406C15.1184 7.07383 12.1839 8.5494 10.0491 10.9036C7.91424 13.2577 6.73173 16.322 6.73173 19.5C6.73173 22.678 7.91424 25.7423 10.0491 28.0964C12.1839 30.4506 15.1184 31.9262 18.2812 32.2359V36.5625H16.4531V33.6619C16.4575 33.5235 16.4146 33.3877 16.3316 33.277C16.2485 33.1662 16.1302 33.087 15.9961 33.0525C14.729 32.7252 13.5145 32.2205 12.3886 31.5534C12.2722 31.4837 12.1358 31.4549 12.0012 31.4714C11.8665 31.488 11.7412 31.549 11.6452 31.6448L9.59156 33.7045L5.27719 29.4084L7.3125 27.3548C7.40833 27.2588 7.46936 27.1335 7.48591 26.9988C7.50247 26.8642 7.47361 26.7278 7.40391 26.6114C6.73681 25.4855 6.23214 24.271 5.90484 23.0039C5.8703 22.8698 5.79113 22.7515 5.68037 22.6684C5.5696 22.5854 5.43385 22.5425 5.29547 22.5469H2.4375V16.4531Z" fill="white"/>
<path d="M5.48438 18.8906H3.65625V20.1094H5.48438V18.8906Z" fill="white"/>
<path d="M9.15791 28.9734L7.86523 30.2661L8.72702 31.1279L10.0197 29.8352L9.15791 28.9734Z" fill="white"/>
<path d="M8.73093 7.86819L7.86914 8.72998L9.16182 10.0227L10.0236 9.16087L8.73093 7.86819Z" fill="white"/>
<path d="M35.3438 17.0625C34.8047 17.0643 34.2815 17.2446 33.8559 17.5754C33.4303 17.9062 33.1263 18.3687 32.9916 18.8906H29.8594C29.7847 17.627 29.479 16.3878 28.9575 15.2344H31.0781C31.1907 15.234 31.3009 15.2025 31.3966 15.1434C31.4924 15.0842 31.5698 14.9997 31.6205 14.8992L32.0653 14.0156H33.6253C33.7691 14.4222 34.0519 14.7649 34.4239 14.9831C34.7959 15.2013 35.233 15.281 35.658 15.208C36.0831 15.1351 36.4686 14.9143 36.7466 14.5846C37.0246 14.2549 37.177 13.8375 37.177 13.4063C37.177 12.975 37.0246 12.5576 36.7466 12.2279C36.4686 11.8982 36.0831 11.6774 35.658 11.6045C35.233 11.5315 34.7959 11.6112 34.4239 11.8294C34.0519 12.0476 33.7691 12.3903 33.6253 12.7969H31.6875C31.575 12.7972 31.4647 12.8287 31.369 12.8879C31.2733 12.947 31.1958 13.0315 31.1452 13.132L30.7003 14.0156H28.2628C27.6896 13.0977 26.9761 12.2752 26.1483 11.5781H28.6406C28.7735 11.5851 28.905 11.5483 29.015 11.4735C29.1251 11.3987 29.2076 11.2899 29.25 11.1638L29.6888 9.75H30.5784C30.7222 10.1566 31.005 10.4993 31.377 10.7175C31.749 10.9357 32.1861 11.0153 32.6111 10.9424C33.0362 10.8695 33.4218 10.6487 33.6997 10.319C33.9777 9.98924 34.1301 9.57188 34.1301 9.14063C34.1301 8.70938 33.9777 8.29202 33.6997 7.9623C33.4218 7.63259 33.0362 7.41176 32.6111 7.33883C32.1861 7.26591 31.749 7.34559 31.377 7.56379C31.005 7.78199 30.7222 8.12467 30.5784 8.53125H29.25C29.1171 8.52432 28.9856 8.56107 28.8756 8.63589C28.7655 8.71072 28.683 8.8195 28.6406 8.94563L28.2019 10.3594H24.375C22.7965 9.51754 21.027 9.09879 19.2386 9.14393C17.4503 9.18906 15.7041 9.69653 14.1701 10.6169C12.6362 11.5373 11.3667 12.8392 10.4853 14.396C9.60388 15.9527 9.14062 17.7111 9.14062 19.5C9.14062 21.2889 9.60388 23.0473 10.4853 24.6041C11.3667 26.1608 12.6362 27.4627 14.1701 28.3831C15.7041 29.3035 17.4503 29.8109 19.2386 29.8561C21.027 29.9012 22.7965 29.4825 24.375 28.6406H28.2141L28.6833 30.0544C28.7235 30.1735 28.7995 30.2772 28.901 30.3514C29.0024 30.4256 29.1243 30.4666 29.25 30.4688H30.5784C30.7222 30.8753 31.005 31.218 31.377 31.4362C31.749 31.6544 32.1861 31.7341 32.6111 31.6612C33.0362 31.5882 33.4218 31.3674 33.6997 31.0377C33.9777 30.708 34.1301 30.2906 34.1301 29.8594C34.1301 29.4281 33.9777 29.0108 33.6997 28.6811C33.4218 28.3513 33.0362 28.1305 32.6111 28.0576C32.1861 27.9847 31.749 28.0643 31.377 28.2825C31.005 28.5007 30.7222 28.8434 30.5784 29.25H29.6888L29.25 27.8363C29.2076 27.7101 29.1251 27.6013 29.015 27.5265C28.905 27.4517 28.7735 27.4149 28.6406 27.4219H26.1605C26.9883 26.7248 27.7018 25.9023 28.275 24.9844H30.7125L31.1573 25.868C31.207 25.9666 31.2826 26.05 31.376 26.109C31.4694 26.168 31.5771 26.2006 31.6875 26.2031H33.6253C33.7691 26.6097 34.0519 26.9524 34.4239 27.1706C34.7959 27.3888 35.233 27.4685 35.658 27.3955C36.0831 27.3226 36.4686 27.1018 36.7466 26.7721C37.0246 26.4424 37.177 26.025 37.177 25.5938C37.177 25.1625 37.0246 24.7451 36.7466 24.4154C36.4686 24.0857 36.0831 23.8649 35.658 23.792C35.233 23.719 34.7959 23.7987 34.4239 24.0169C34.0519 24.2351 33.7691 24.5778 33.6253 24.9844H32.0653L31.6205 24.1008C31.5698 24.0003 31.4924 23.9158 31.3966 23.8566C31.3009 23.7975 31.1907 23.766 31.0781 23.7656H28.927C29.459 22.6142 29.775 21.3749 29.8594 20.1094H33.022C33.1365 20.5523 33.3733 20.9542 33.7053 21.2689C34.0374 21.5836 34.4513 21.7985 34.8998 21.889C35.3483 21.9795 35.8131 21.942 36.2413 21.7807C36.6694 21.6195 37.0435 21.3409 37.3208 20.977C37.5981 20.6131 37.7674 20.1786 37.8093 19.723C37.8512 19.2674 37.7641 18.8092 37.5578 18.4008C37.3515 17.9924 37.0345 17.6504 36.643 17.4137C36.2514 17.177 35.8012 17.0553 35.3438 17.0625ZM35.3438 12.7969C35.4643 12.7969 35.5821 12.8326 35.6823 12.8996C35.7825 12.9665 35.8606 13.0617 35.9067 13.1731C35.9529 13.2844 35.9649 13.4069 35.9414 13.5251C35.9179 13.6433 35.8599 13.7519 35.7746 13.8371C35.6894 13.9224 35.5808 13.9804 35.4626 14.0039C35.3444 14.0274 35.2219 14.0154 35.1106 13.9692C34.9992 13.9231 34.904 13.845 34.8371 13.7448C34.7701 13.6446 34.7344 13.5268 34.7344 13.4063C34.7344 13.2446 34.7986 13.0896 34.9129 12.9754C35.0271 12.8611 35.1821 12.7969 35.3438 12.7969ZM32.2969 8.53125C32.4174 8.53125 32.5352 8.56699 32.6354 8.63395C32.7356 8.70091 32.8137 8.79608 32.8599 8.90743C32.906 9.01878 32.9181 9.1413 32.8945 9.25951C32.871 9.37772 32.813 9.4863 32.7278 9.57152C32.6425 9.65674 32.534 9.71478 32.4158 9.73829C32.2976 9.76181 32.175 9.74974 32.0637 9.70362C31.9523 9.6575 31.8572 9.57939 31.7902 9.47918C31.7232 9.37897 31.6875 9.26115 31.6875 9.14063C31.6875 8.97901 31.7517 8.82402 31.866 8.70974C31.9803 8.59546 32.1353 8.53125 32.2969 8.53125ZM32.2969 29.25C32.4174 29.25 32.5352 29.2857 32.6354 29.3527C32.7356 29.4197 32.8137 29.5148 32.8599 29.6262C32.906 29.7375 32.9181 29.8601 32.8945 29.9783C32.871 30.0965 32.813 30.205 32.7278 30.2903C32.6425 30.3755 32.534 30.4335 32.4158 30.457C32.2976 30.4806 32.175 30.4685 32.0637 30.4224C31.9523 30.3762 31.8572 30.2981 31.7902 30.1979C31.7232 30.0977 31.6875 29.9799 31.6875 29.8594C31.6875 29.6978 31.7517 29.5428 31.866 29.4285C31.9803 29.3142 32.1353 29.25 32.2969 29.25ZM35.3438 24.9844C35.4643 24.9844 35.5821 25.0201 35.6823 25.0871C35.7825 25.154 35.8606 25.2492 35.9067 25.3606C35.9529 25.4719 35.9649 25.5944 35.9414 25.7126C35.9179 25.8308 35.8599 25.9394 35.7746 26.0246C35.6894 26.1099 35.5808 26.1679 35.4626 26.1914C35.3444 26.2149 35.2219 26.2029 35.1106 26.1567C34.9992 26.1106 34.904 26.0325 34.8371 25.9323C34.7701 25.8321 34.7344 25.7143 34.7344 25.5938C34.7344 25.4321 34.7986 25.2771 34.9129 25.1629C35.0271 25.0486 35.1821 24.9844 35.3438 24.9844ZM26.8125 14.0156H23.6498C23.343 12.8461 22.8314 11.7403 22.1386 10.7494C24.0039 11.3142 25.6409 12.4582 26.8125 14.0156ZM15.8438 18.8906C15.8721 17.6606 16.0191 16.4362 16.2825 15.2344H22.7053C22.9728 16.4358 23.1238 17.6602 23.1562 18.8906H15.8438ZM23.1562 20.1094C23.1279 21.3394 22.9809 22.5638 22.7175 23.7656H16.2947C16.0272 22.5642 15.8762 21.3398 15.8438 20.1094H23.1562ZM19.5 10.3594C20.5481 10.3594 21.6633 11.7366 22.3823 14.0156H16.6177C17.3367 11.7366 18.4519 10.3594 19.5 10.3594ZM16.8614 10.7494C16.1686 11.7403 15.657 12.8461 15.3502 14.0156H12.1875C13.3591 12.4582 14.9961 11.3142 16.8614 10.7494ZM11.4197 15.2344H15.0759C14.8193 16.4376 14.6684 17.6611 14.625 18.8906H10.3594C10.4497 17.6105 10.8112 16.3642 11.4197 15.2344ZM11.4197 23.7656C10.8218 22.6334 10.4708 21.3872 10.3898 20.1094H14.6555C14.6848 21.3377 14.8214 22.5611 15.0637 23.7656H11.4197ZM12.1875 24.9844H15.3319C15.6387 26.1539 16.1503 27.2597 16.8431 28.2506C14.9845 27.6823 13.3544 26.5386 12.1875 24.9844ZM19.5 28.6406C18.4519 28.6406 17.3367 27.2634 16.6177 24.9844H22.3823C21.6633 27.2634 20.5481 28.6406 19.5 28.6406ZM22.1386 28.2506C22.8314 27.2597 23.343 26.1539 23.6498 24.9844H26.8125C25.6409 26.5418 24.0039 27.6858 22.1386 28.2506ZM27.5803 23.7656H23.9545C24.201 22.5615 24.3417 21.3381 24.375 20.1094H28.6406C28.5503 21.3895 28.1888 22.6358 27.5803 23.7656ZM24.375 18.8906C24.3457 17.6623 24.2091 16.4389 23.9667 15.2344H27.5925C28.1968 16.3652 28.554 17.6114 28.6406 18.8906H24.375ZM35.3438 20.7188C35.1027 20.7188 34.8671 20.6473 34.6666 20.5134C34.4662 20.3794 34.31 20.1891 34.2178 19.9664C34.1255 19.7437 34.1014 19.4987 34.1484 19.2622C34.1954 19.0258 34.3115 18.8087 34.482 18.6382C34.6524 18.4678 34.8696 18.3517 35.106 18.3047C35.3424 18.2576 35.5874 18.2818 35.8101 18.374C36.0328 18.4663 36.2232 18.6225 36.3571 18.8229C36.491 19.0233 36.5625 19.259 36.5625 19.5C36.5625 19.8232 36.4341 20.1332 36.2055 20.3618C35.977 20.5903 35.667 20.7188 35.3438 20.7188Z" fill="white"/>
</svg>
