<svg width="43" height="43" viewBox="0 0 43 43" fill="none" xmlns="http://www.w3.org/2000/svg">
<path d="M25.0497 31.3088V28.9902L27.0814 26.6372L30.9921 22.1162C32.068 21.9573 32.8962 21.028 32.8962 19.9086C32.8962 18.678 31.8951 17.6768 30.6644 17.6768H12.3334C11.1041 17.6768 10.1039 18.678 10.1039 19.9086C10.1039 21.0287 10.9325 21.9584 12.0082 22.1166L17.9506 28.9904V31.3082C16.4607 32.4025 15.4913 34.1657 15.4913 36.1519C15.4913 39.4645 18.1863 42.1595 21.4989 42.1595C24.8115 42.1595 27.5089 39.4645 27.5089 36.1519C27.5089 34.1662 26.5395 32.4032 25.0497 31.3088ZM11.1109 19.9085C11.1109 19.2331 11.6594 18.6837 12.3335 18.6837H30.6646C31.34 18.6837 31.8894 19.2331 31.8894 19.9085C31.8894 20.584 31.34 21.1335 30.6646 21.1335H12.3334C11.6594 21.1335 11.1109 20.584 11.1109 19.9085H11.1109ZM18.8351 28.4734L13.3602 22.1404H29.6398L26.3196 25.9787L24.1651 28.4737C24.0863 28.5652 24.0428 28.6819 24.0428 28.8027V30.7105C23.2697 30.348 22.4079 30.1441 21.4991 30.1441C20.5902 30.1441 19.7301 30.3477 18.9577 30.7099V28.8027C18.9577 28.6818 18.9142 28.5648 18.8351 28.4734V28.4734ZM21.4991 41.1524C18.7418 41.1524 16.4985 38.9091 16.4985 36.1518C16.4985 33.3945 18.7418 31.1512 21.4991 31.1512C24.2563 31.1512 26.502 33.3945 26.502 36.1518C26.502 38.9091 24.2576 41.1524 21.4991 41.1524ZM22.2709 35.0923L22.2715 35.0776C22.2715 34.7638 21.9709 34.508 21.6014 34.508C21.232 34.508 20.9289 34.7638 20.9289 35.0781C20.9289 35.4363 21.0308 35.5124 21.7074 35.6599C22.2951 35.7878 23.2786 36.0021 23.2786 37.2255C23.2786 37.9303 22.7844 38.5283 22.1049 38.7299V39.4229C22.1049 39.7011 21.8795 39.9264 21.6014 39.9264C21.3234 39.9264 21.0979 39.701 21.0979 39.4229V38.7301C20.4171 38.5288 19.9219 37.9306 19.9219 37.2255C19.9219 37.1856 19.9245 37.1492 19.9281 37.1098C19.9535 36.8329 20.198 36.6252 20.4755 36.651C20.7524 36.6762 20.9567 36.9179 20.9317 37.1948C20.9302 37.2102 20.9293 37.2184 20.929 37.2271C20.929 37.54 21.2307 37.7957 21.6015 37.7957C21.9723 37.7957 22.2716 37.5399 22.2716 37.2255C22.2716 36.8673 22.1698 36.7913 21.4931 36.6438C20.9055 36.5159 19.9219 36.3015 19.9219 35.0781C19.9219 34.3731 20.4171 33.775 21.0979 33.5736V32.8831C21.0979 32.605 21.3234 32.3796 21.6014 32.3796C21.8795 32.3796 22.1049 32.6051 22.1049 32.8831V33.5738C22.7844 33.7754 23.2786 34.3733 23.2786 35.0781C23.2786 35.0995 23.2778 35.1198 23.2768 35.1401L23.2762 35.1549C23.2721 35.4316 23.0438 35.6565 22.7689 35.6544C22.4923 35.6523 22.2692 35.431 22.2692 35.1543C22.2692 35.133 22.27 35.1127 22.271 35.0923H22.2709ZM6.16998 16.2174H19.742C20.0202 16.2174 20.2455 15.9919 20.2455 15.7139C20.2455 12.4837 18.1337 9.73796 15.2185 8.78339C16.4373 8.02493 17.2506 6.67421 17.2506 5.13662C17.2506 2.76793 15.3235 0.84082 12.9548 0.84082C10.5861 0.84082 8.66129 2.76793 8.66129 5.13662C8.66129 6.67412 9.47409 8.02476 10.6921 8.78331C7.77769 9.73779 5.66641 12.4837 5.66641 15.7139C5.66641 15.992 5.89191 16.2174 6.16998 16.2174ZM9.66826 5.13662C9.66826 3.32315 11.1426 1.84779 12.9548 1.84779C14.767 1.84779 16.2437 3.32315 16.2437 5.13662C16.2437 6.9501 14.7683 8.42318 12.9548 8.42318C11.1413 8.42318 9.66826 6.94884 9.66826 5.13662ZM12.9548 9.43015C16.2503 9.43015 18.9614 11.9799 19.2185 15.2104H6.69345C6.95061 11.9799 9.66054 9.43015 12.9548 9.43015ZM23.0012 16.2174H36.5733C36.8515 16.2174 37.0768 15.9919 37.0768 15.7139C37.0768 12.4837 34.965 9.73796 32.0498 8.78339C33.2686 8.02493 34.082 6.67421 34.082 5.13662C34.082 2.76793 32.1549 0.84082 29.7861 0.84082C27.4174 0.84082 25.4926 2.76793 25.4926 5.13662C25.4926 6.67412 26.3054 8.02476 27.5234 8.78331C24.609 9.73779 22.4977 12.4837 22.4977 15.7139C22.4977 15.992 22.7231 16.2174 23.0012 16.2174ZM26.4995 5.13662C26.4995 3.32315 27.9738 1.84779 29.786 1.84779C31.5983 1.84779 33.075 3.32315 33.075 5.13662C33.075 6.9501 31.5996 8.42318 29.786 8.42318C27.9725 8.42318 26.4995 6.94884 26.4995 5.13662ZM29.786 9.43015C33.0815 9.43015 35.7926 11.9799 36.0498 15.2104H23.5247C23.7818 11.9799 26.4918 9.43015 29.786 9.43015ZM38.8216 36.6384C38.6102 36.1629 38.1548 35.8674 37.6327 35.8674H36.5103V26.415C36.5103 25.1935 35.5166 24.1997 34.2951 24.1997C33.0736 24.1997 32.0799 25.1935 32.0799 26.415V35.8674H30.9574C30.4353 35.8674 29.9798 36.1629 29.7685 36.6384C29.5569 37.1145 29.6431 37.6513 29.9936 38.0394L33.3314 41.732C33.5776 42.0041 33.9288 42.1602 34.2953 42.1601C34.6615 42.1601 35.0127 42.0041 35.2591 41.7318L38.597 38.0392C38.9472 37.6512 39.0333 37.1144 38.8218 36.6384H38.8216ZM37.8496 37.3641L34.512 41.0564C34.4359 41.1406 34.3435 41.1531 34.2951 41.1531C34.2467 41.1531 34.1542 41.1406 34.0782 41.0565L30.7408 37.3644C30.624 37.2351 30.6655 37.0997 30.6887 37.0475C30.7118 36.9955 30.7843 36.8745 30.9574 36.8745H32.5834C32.8616 36.8745 33.0869 36.6491 33.0869 36.371V26.4151C33.0869 25.7488 33.6288 25.2068 34.2951 25.2068C34.9613 25.2068 35.5033 25.7488 35.5033 26.4151V36.371C35.5033 36.6492 35.7287 36.8745 36.0068 36.8745H37.6327C37.8059 36.8745 37.8784 36.9954 37.9014 37.0475C37.9246 37.0997 37.966 37.2352 37.8496 37.3642V37.3641ZM12.0431 35.8675H10.9181V26.4151C10.9181 25.1936 9.92551 24.1998 8.7053 24.1998C7.48509 24.1998 6.49013 25.1936 6.49013 26.4151V35.8675H5.36516C4.84378 35.8675 4.38842 36.1632 4.17695 36.6392C3.9653 37.1152 4.05122 37.6517 4.40135 38.0395L7.7404 41.7334C7.98765 42.0046 8.33896 42.1601 8.70421 42.1601C9.06946 42.1601 9.42059 42.0046 9.66927 41.7318L13.0071 38.0392C13.357 37.6516 13.4429 37.1151 13.2313 36.6391C13.0197 36.1631 12.5645 35.8674 12.0431 35.8674V35.8675ZM12.2599 37.3641L8.92366 41.0549C8.8458 41.1404 8.75275 41.1531 8.70421 41.1531C8.65566 41.1531 8.56244 41.1404 8.48602 41.0565L5.14864 37.3644C5.03249 37.2358 5.07398 37.1003 5.09725 37.0481C5.12051 36.9958 5.19299 36.8745 5.36524 36.8745H6.9937C7.27185 36.8745 7.49718 36.6491 7.49718 36.371V26.4151C7.49718 25.7488 8.03913 25.2068 8.70538 25.2068C9.37163 25.2068 9.91115 25.7488 9.91115 26.4151V36.371C9.91115 36.6492 10.1366 36.8745 10.4146 36.8745H12.0431C12.2154 36.8745 12.2879 36.9958 12.3111 37.0481C12.3343 37.1003 12.3758 37.2357 12.2599 37.3641Z" fill="white"/>
</svg>
