<svg width="51" height="51" viewBox="0 0 51 51" fill="none" xmlns="http://www.w3.org/2000/svg">
<path d="M46.9577 35.5032C46.9356 35.4463 46.9045 35.3932 46.8656 35.3461C45.2485 32.5908 42.953 30.2953 40.1977 28.6782C40.1507 28.6395 40.0977 28.6085 40.0409 28.5864C38.8209 27.8871 37.5252 27.3294 36.1787 26.9242C36.7621 25.142 37.0583 23.2783 37.0563 21.403C37.0563 11.626 29.1021 3.67188 19.325 3.67188C9.54793 3.67188 1.59383 11.6255 1.59383 21.4025C1.58258 25.2376 2.82561 28.9712 5.13344 32.0342C7.24837 34.8424 10.1434 36.9657 13.4573 38.1391C12.6602 40.2392 12.2526 42.467 12.2544 44.7133C12.2544 44.8821 12.3215 45.0439 12.4408 45.1633C12.5601 45.2826 12.722 45.3496 12.8907 45.3496H23.227C23.3957 45.3496 23.5576 45.2826 23.6769 45.1633C23.7963 45.0439 23.8633 44.8821 23.8633 44.7133C23.8642 43.4934 24.1852 42.2951 24.7942 41.2381C25.4032 40.1811 26.2789 39.3023 27.3338 38.6897C28.3887 38.077 29.5859 37.7518 30.8058 37.7467C32.0257 37.7415 33.2256 38.0565 34.2856 38.6603C34.2956 38.6665 34.3044 38.6731 34.3143 38.6789C34.3224 38.6835 34.3307 38.6867 34.3389 38.6909C34.8801 39.0072 35.376 39.3952 35.8131 39.8443L31.6893 42.2449C31.3571 42.1292 31.005 42.0818 30.6541 42.1054C30.3032 42.129 29.9606 42.2232 29.6469 42.3824C29.3333 42.5415 29.055 42.7624 28.8287 43.0316C28.6024 43.3009 28.4327 43.6131 28.33 43.9495C28.2272 44.2858 28.1933 44.6395 28.2305 44.9893C28.2676 45.339 28.375 45.6777 28.5461 45.985C28.7173 46.2923 28.9487 46.5619 29.2265 46.7776C29.5043 46.9934 29.8228 47.1508 30.1629 47.2405C30.3821 47.2986 30.608 47.3281 30.8348 47.3283C31.4452 47.3266 32.0359 47.1116 32.5046 46.7204C32.9733 46.3292 33.2905 45.7864 33.4013 45.1861L37.5262 42.7855C37.7066 43.4125 37.7979 44.0617 37.7975 44.7141C37.7975 44.8829 37.8645 45.0447 37.9838 45.1641C38.1031 45.2834 38.265 45.3504 38.4338 45.3504H48.77C48.8536 45.3504 48.9364 45.334 49.0136 45.3019C49.0909 45.2699 49.161 45.223 49.2201 45.1639C49.2792 45.1047 49.3261 45.0345 49.358 44.9573C49.39 44.88 49.4064 44.7972 49.4063 44.7136C49.4102 41.4821 48.5659 38.3062 46.9577 35.5032ZM31.4667 36.4987V27.4231C34.0719 27.5154 36.622 28.1992 38.9239 29.4227L34.389 37.2773C33.4716 36.8388 32.4806 36.5748 31.4667 36.4987ZM27.2743 37.2817L22.7369 29.4225C25.0388 28.199 27.5889 27.5152 30.1942 27.4229V36.4981C29.1806 36.5755 28.1904 36.8412 27.2742 37.2817H27.2743ZM14.8809 35.201C13.8572 33.8742 13.0072 32.1448 12.3736 30.1538C14.653 29.6278 16.9856 29.3666 19.325 29.3753C19.6631 29.3753 20.0009 29.3825 20.3383 29.393C18.1234 30.9148 16.2621 32.8957 14.8809 35.201ZM2.88108 20.7338C3.01203 17.4239 4.14411 14.2316 6.12775 11.5787C7.59218 12.4269 9.15725 13.088 10.7863 13.5466C10.1851 15.9011 9.86332 18.3181 9.82764 20.7478L2.88108 20.7338ZM12.0153 13.8716C14.4111 14.4319 16.8641 14.7107 19.3246 14.7023C21.7851 14.7107 24.2382 14.4319 26.634 13.8716C27.2102 16.1312 27.5178 18.4508 27.5504 20.7825L11.1004 20.75C11.1351 18.4293 11.4423 16.1206 12.0157 13.8716H12.0153ZM19.3246 4.94389C21.444 4.94389 23.4703 6.60019 25.0304 9.6076C25.5315 10.5849 25.9493 11.6027 26.2795 12.6502C23.999 13.1766 21.6654 13.4381 19.325 13.4294C16.9846 13.4381 14.651 13.1766 12.3706 12.6502C12.7006 11.6026 13.1183 10.5847 13.6192 9.6072C15.1793 6.60019 17.2057 4.94389 19.325 4.94389H19.3246ZM28.8227 20.785C28.7897 18.3428 28.4678 15.9132 27.8638 13.5466C29.4929 13.0881 31.058 12.4269 32.5225 11.5787C34.5194 14.2493 35.653 17.4662 35.7716 20.7987L28.8227 20.785ZM27.5493 22.0551C27.5214 23.5464 27.386 25.0337 27.1441 26.5055C25.4453 26.8491 23.8034 27.4306 22.267 28.2328C21.3007 28.1475 20.312 28.1028 19.3246 28.1028C16.8657 28.0944 14.4143 28.3728 12.0199 28.9324C11.4441 26.673 11.1351 24.3539 11.0992 22.0225L27.5493 22.0551ZM30.8962 26.1385C30.8524 26.134 30.8082 26.134 30.7644 26.1385C29.9966 26.1408 29.2296 26.1904 28.4678 26.2872C28.678 24.8865 28.7964 23.4737 28.8222 22.0576L35.7698 22.0713C35.7096 23.6114 35.4323 25.1354 34.946 26.598C33.617 26.2966 32.2589 26.1425 30.8962 26.1385ZM31.713 10.5795C30.3866 11.3269 28.9758 11.9134 27.5105 12.3265C27.1558 11.1883 26.7041 10.0826 26.1605 9.0216C25.4035 7.56192 24.5316 6.38095 23.58 5.5027C26.7342 6.35172 29.565 8.11858 31.7134 10.5791L31.713 10.5795ZM15.0701 5.5027C14.1184 6.38095 13.2467 7.56192 12.4896 9.0216C11.9458 10.0825 11.494 11.188 11.1392 12.3261C9.67386 11.913 8.26305 11.3265 6.93667 10.5791C9.08501 8.11854 11.9159 6.35167 15.0701 5.5027ZM2.87769 22.0063L9.82674 22.02C9.86388 24.4617 10.1892 26.8905 10.7958 29.2559C9.0467 29.7647 7.45813 30.4329 6.10225 31.2417C4.11403 28.5623 2.98925 25.3409 2.87769 22.0063ZM6.90918 32.242C8.24637 31.4851 9.66993 30.8922 11.1491 30.4761C11.9002 32.8546 12.9446 34.9025 14.2188 36.4064C14.1264 36.5904 14.0369 36.776 13.9505 36.9633C11.2305 36.0332 8.80241 34.4052 6.90918 32.242ZM15.5402 36.6207L23.3984 41.1575C22.9581 42.0736 22.6925 43.0638 22.6151 44.0773H13.5384C13.6314 41.4721 14.316 38.9222 15.5402 36.6207ZM24.0369 40.0566L16.1782 35.5195C17.5669 33.3151 19.4319 31.4499 21.636 30.0609L26.1734 37.9201C25.3366 38.4956 24.6124 39.2198 24.0368 40.0566H24.0369ZM35.4904 37.915L40.0247 30.0616C42.2289 31.4506 44.0938 33.3158 45.4825 35.5202L42.1238 37.4594C41.8556 37.2383 41.5263 37.1046 41.1799 37.0761C40.8335 37.0476 40.4868 37.1257 40.1861 37.3L36.9418 39.1885C36.5094 38.7086 36.0223 38.2811 35.4903 37.9147L35.4904 37.915ZM32.4859 44.2463C32.3937 44.3 32.3165 44.376 32.2613 44.4673C32.2062 44.5587 32.1749 44.6624 32.1703 44.769C32.1585 45.0592 32.0529 45.3378 31.8693 45.5629C31.6858 45.788 31.4341 45.9475 31.1522 46.0174C30.8703 46.0874 30.5733 46.064 30.3058 45.9509C30.0383 45.8377 29.8147 45.6408 29.6686 45.3898C29.5225 45.1388 29.4617 44.8471 29.4954 44.5586C29.5291 44.2701 29.6555 44.0004 29.8555 43.7898C30.0556 43.5792 30.3185 43.4391 30.6049 43.3907C30.8913 43.3422 31.1857 43.388 31.4439 43.521C31.5388 43.5697 31.6445 43.5938 31.7512 43.5909C31.8579 43.5881 31.9622 43.5584 32.0544 43.5047L40.8261 38.3992C40.9244 38.3419 41.0415 38.3261 41.1515 38.3552C41.2615 38.3842 41.3555 38.4558 41.4127 38.5541C41.47 38.6525 41.4858 38.7695 41.4568 38.8795C41.4277 38.9896 41.3561 39.0835 41.2578 39.1408L32.4859 44.2463ZM39.0436 44.0769C38.9934 43.4139 38.8626 42.7595 38.6539 42.1282L41.898 40.2399C42.1831 40.0733 42.4137 39.8274 42.5617 39.5322C42.7097 39.2369 42.7687 38.905 42.7315 38.5769L46.1204 36.6203C47.3448 38.9217 48.0295 41.4717 48.1226 44.0769H39.0436Z" fill="white"/>
</svg>
