<svg width="48" height="48" viewBox="0 0 48 48" fill="none" xmlns="http://www.w3.org/2000/svg">
<path d="M32.475 46.5001L24.9075 34.1701C24.3031 34.2076 23.6969 34.2076 23.0925 34.1701L15.525 46.5001L12.24 39.0676L4.125 39.5101L11.1825 27.9976C2.7225 17.4151 10.4325 1.44763 24 1.50013C37.5675 1.55263 45.285 17.4226 36.8175 27.9976L43.875 39.5101L35.76 39.0676L32.475 46.5001ZM26.1075 34.0651L32.3175 44.1751L35.07 37.9426L41.8725 38.3176L36.075 28.8676C34.9238 30.1283 33.5826 31.2013 32.1 32.0476L34.5825 36.0901L33.66 36.6601L31.14 32.5501C29.5552 33.3232 27.8557 33.8348 26.1075 34.0651ZM12.93 37.9426L15.6825 44.1751L21.8925 34.0651C20.1475 33.8398 18.4505 33.3332 16.8675 32.5651L14.34 36.6676L13.4175 36.0976L15.9075 32.0551C14.4212 31.2108 13.0773 30.1377 11.925 28.8751L6.1275 38.3176L12.93 37.9426ZM22.845 33.0676C25.2826 33.2502 27.7285 32.8464 29.978 31.89C32.2275 30.9335 34.2153 29.4523 35.775 27.5701C43.965 17.7376 36.8175 2.53513 24 2.58013C19.952 2.58608 16.0714 4.19679 13.2091 7.05918C10.3467 9.92157 8.73595 13.8021 8.73 17.8501C8.5875 25.6276 15.105 32.6251 22.845 33.0676ZM24 30.1876C20.734 30.168 17.6073 28.8618 15.2978 26.5523C12.9883 24.2428 11.6822 21.1162 11.6625 17.8501C12.3375 1.47763 35.6625 1.47763 36.3375 17.8501C36.3178 21.1162 35.0117 24.2428 32.7022 26.5523C30.3927 28.8618 27.266 30.168 24 30.1876ZM24 6.59263C14.565 6.52513 9.255 17.8426 15.345 25.0426C16.4059 26.3058 17.7304 27.3215 19.2256 28.0183C20.7208 28.7151 22.3504 29.0762 24 29.0762C25.6496 29.0762 27.2792 28.7151 28.7744 28.0183C30.2696 27.3215 31.5941 26.3058 32.655 25.0426C38.745 17.8501 33.4425 6.51763 24 6.59263ZM24.0675 26.8426L21.3975 24.1726C18.585 27.5926 13.7625 23.5726 16.6875 20.2801L18.5175 18.4426L21.5175 10.9426L24.2925 13.7101C24.743 13.4423 25.2699 13.3323 25.7899 13.3977C26.3098 13.4631 26.7931 13.7 27.1633 14.071C27.5334 14.442 27.7692 14.9259 27.8334 15.446C27.8976 15.9661 27.7864 16.4928 27.5175 16.9426L30.285 19.7101L23.475 22.5001L25.95 24.9751L24.0675 26.8426ZM22.1625 23.4076L24.0675 25.3126L24.42 24.9601L22.5 23.0701L22.1625 23.4076ZM18.9825 19.5001L17.4825 21.0001C17.1152 21.3685 16.9089 21.8674 16.9089 22.3876C16.9089 22.9078 17.1152 23.4068 17.4825 23.7751C17.856 24.1296 18.3513 24.3273 18.8663 24.3273C19.3812 24.3273 19.8765 24.1296 20.25 23.7751L21.75 22.2751L18.9825 19.5001ZM19.6125 18.6076L22.6125 21.6076L28.3575 19.2901L21.9075 12.8326L19.6125 18.6076ZM25.9275 15.3226L26.73 16.1326C26.8048 15.908 26.8156 15.6671 26.7611 15.4367C26.7067 15.2063 26.5892 14.9957 26.4219 14.8283C26.2545 14.6609 26.0438 14.5434 25.8134 14.489C25.5831 14.4346 25.3421 14.4453 25.1175 14.5201L25.9275 15.3226ZM21.6225 19.8226L20.3175 18.5176L21.15 16.5001L22.155 16.9126L21.5925 18.2701L22.3875 19.0651L21.6225 19.8226ZM31.62 15.1651H29.07V14.0851H31.62V15.1651ZM28.245 13.8001L27.495 13.0501L29.505 11.0401L30.255 11.7901L28.245 13.8001ZM27.2025 12.2176H26.1225V9.66763H27.2025V12.2176Z" fill="white"/>
</svg>
