<svg width="42" height="42" viewBox="0 0 42 42" fill="none" xmlns="http://www.w3.org/2000/svg">
<path d="M21.9191 23.8297H20.7129C20.5388 23.8297 20.3719 23.8988 20.2489 24.0219C20.1258 24.145 20.0566 24.3119 20.0566 24.4859C20.0566 24.66 20.1258 24.8269 20.2489 24.95C20.3719 25.073 20.5388 25.1422 20.7129 25.1422H21.9191C22.0667 25.809 22.4374 26.4055 22.9699 26.8331C23.5025 27.2606 24.165 27.4937 24.8479 27.4937C25.5309 27.4937 26.1934 27.2606 26.7259 26.8331C27.2585 26.4055 27.6292 25.809 27.7768 25.1422H29.1693L28.7795 25.532C28.6565 25.6551 28.5874 25.8221 28.5874 25.9962C28.5875 26.1703 28.6567 26.3372 28.7798 26.4603C28.903 26.5833 29.07 26.6524 29.244 26.6523C29.4181 26.6523 29.5851 26.5831 29.7081 26.4599L31.2175 24.9506C31.2221 24.946 31.2234 24.9401 31.2273 24.9361C31.2868 24.8796 31.3336 24.8111 31.3648 24.7352C31.396 24.6594 31.4109 24.5778 31.4085 24.4958C31.4085 24.4872 31.4085 24.4794 31.4085 24.4708C31.4067 24.3974 31.3925 24.3249 31.3665 24.2562C31.3632 24.2477 31.3612 24.2392 31.3573 24.2313C31.3265 24.1527 31.2805 24.0809 31.2221 24.02L29.4968 22.3026C29.3737 22.1795 29.2066 22.1103 29.0325 22.1103C28.8584 22.1103 28.6913 22.1795 28.5682 22.3026C28.4451 22.4257 28.3759 22.5927 28.3759 22.7669C28.3759 22.941 28.4451 23.108 28.5682 23.2312L29.1667 23.8271H27.7761C27.628 23.1609 27.2571 22.5652 26.7247 22.1382C26.1924 21.7112 25.5304 21.4785 24.8479 21.4785C24.1655 21.4785 23.5035 21.7112 22.9711 22.1382C22.4387 22.5652 22.0679 23.1609 21.9197 23.8271L21.9191 23.8297ZM24.8473 22.7935C25.1822 22.7933 25.5097 22.8925 25.7883 23.0785C26.0669 23.2645 26.2841 23.5289 26.4125 23.8383C26.5408 24.1477 26.5745 24.4882 26.5093 24.8168C26.4442 25.1454 26.283 25.4472 26.0463 25.6842C25.8096 25.9212 25.5079 26.0827 25.1794 26.1483C24.8509 26.2138 24.5104 26.1805 24.2008 26.0525C23.8912 25.9246 23.6266 25.7077 23.4403 25.4293C23.254 25.1509 23.1544 24.8235 23.1541 24.4886V24.484C23.1555 24.0355 23.3345 23.6058 23.652 23.289C23.9694 22.9722 24.3988 22.794 24.8473 22.7935Z" fill="white"/>
<path d="M9.2487 15.594C8.93087 15.5934 8.62621 15.467 8.40147 15.2422C8.17673 15.0175 8.05025 14.7128 8.04973 14.395C8.04973 14.221 7.98059 14.054 7.85752 13.931C7.73444 13.8079 7.56753 13.7387 7.39348 13.7387C7.21943 13.7387 7.05251 13.8079 6.92944 13.931C6.80637 14.054 6.73723 14.221 6.73723 14.395C6.73913 14.9451 6.92182 15.4794 7.25716 15.9156C7.59251 16.3517 8.06191 16.6655 8.5931 16.8087V17.6283C8.5931 17.8024 8.66224 17.9693 8.78531 18.0924C8.90838 18.2155 9.0753 18.2846 9.24935 18.2846C9.4234 18.2846 9.59032 18.2155 9.71339 18.0924C9.83646 17.9693 9.9056 17.8024 9.9056 17.6283V16.8087C10.4936 16.6512 11.0042 16.2851 11.3421 15.7787C11.68 15.2723 11.822 14.6603 11.7416 14.0569C11.6612 13.4535 11.364 12.8999 10.9054 12.4996C10.4467 12.0993 9.8581 11.8796 9.24935 11.8816C8.93119 11.8822 8.62582 11.7564 8.40042 11.5318C8.17501 11.3073 8.04804 11.0024 8.04743 10.6842C8.04682 10.3661 8.17263 10.0607 8.39717 9.8353C8.62171 9.60989 8.9266 9.48292 9.24476 9.48231H9.25263C9.57 9.4837 9.87392 9.61066 10.098 9.83544C10.322 10.0602 10.448 10.3646 10.4483 10.6819C10.4483 10.856 10.5175 11.0229 10.6405 11.146C10.7636 11.269 10.9305 11.3382 11.1046 11.3382C11.2786 11.3382 11.4455 11.269 11.5686 11.146C11.6917 11.0229 11.7608 10.856 11.7608 10.6819C11.7591 10.1315 11.5764 9.59692 11.2409 9.16053C10.9054 8.72414 10.4358 8.41016 9.90429 8.26694V7.44531C9.90429 7.27126 9.83515 7.10434 9.71208 6.98127C9.58901 6.8582 9.42209 6.78906 9.24804 6.78906C9.07399 6.78906 8.90707 6.8582 8.784 6.98127C8.66093 7.10434 8.59179 7.27126 8.59179 7.44531V8.26891C8.00434 8.42686 7.49439 8.79308 7.15704 9.29928C6.81968 9.80548 6.67796 10.4171 6.75828 11.0201C6.8386 11.6231 7.1355 12.1763 7.59359 12.5765C8.05169 12.9767 8.63973 13.1967 9.24804 13.1954C9.56143 13.2027 9.85951 13.3323 10.0786 13.5566C10.2976 13.7808 10.4203 14.0819 10.4203 14.3953C10.4203 14.7088 10.2976 15.0098 10.0786 15.2341C9.85951 15.4583 9.56143 15.588 9.24804 15.5953L9.2487 15.594Z" fill="white"/>
<path d="M9.24774 20.4754C9.51812 20.4754 9.78587 20.461 10.0497 20.4347C9.38376 22.8523 9.32033 25.3963 9.86492 27.8441C10.4095 30.2919 11.5455 32.569 13.1737 34.4762C14.8018 36.3835 16.8724 37.8627 19.2044 38.7847C21.5365 39.7067 24.0588 40.0432 26.551 39.7649C29.0432 39.4866 31.4292 38.602 33.5004 37.1883C35.5716 35.7747 37.2649 33.8751 38.4322 31.6557C39.5996 29.4363 40.2053 26.9647 40.1966 24.457C40.1878 21.9494 39.5648 19.4821 38.382 17.2709L40.482 15.2661C40.5444 15.2066 40.5944 15.1354 40.6293 15.0566C40.6642 14.9778 40.6833 14.8929 40.6853 14.8067C40.6874 14.7206 40.6725 14.6348 40.6414 14.5544C40.6104 14.474 40.5638 14.4005 40.5043 14.3381L35.7255 9.32833C35.666 9.26597 35.5948 9.21594 35.5159 9.1811C35.4371 9.14626 35.3521 9.1273 35.266 9.12528C35.1798 9.12327 35.0941 9.13826 35.0137 9.16938C34.9333 9.2005 34.8599 9.24715 34.7975 9.30667L32.6923 11.3148C31.5284 10.6148 30.274 10.0778 28.9641 9.7188V7.46064H29.4826C29.8239 7.46047 30.1513 7.32487 30.3928 7.0836C30.6343 6.84234 30.7703 6.51511 30.7708 6.17373V3.45358C30.7704 3.11232 30.6348 2.78512 30.3935 2.54375C30.1523 2.30238 29.8251 2.16654 29.4839 2.16602H20.2117C19.8706 2.16654 19.5435 2.30229 19.3023 2.54352C19.0611 2.78475 18.9253 3.11177 18.9248 3.45292V6.17373C18.9253 6.51488 19.0611 6.84191 19.3023 7.08314C19.5435 7.32437 19.8706 7.46012 20.2117 7.46064H20.7321V9.71945C19.4493 10.0697 18.2189 10.5894 17.0735 11.2649C16.8294 9.77063 16.1626 8.37746 15.152 7.24999C14.1414 6.12253 12.8291 5.30789 11.3704 4.90233C9.91158 4.49678 8.3672 4.51724 6.91968 4.96131C5.47216 5.40539 4.18199 6.25451 3.20161 7.40836C2.22123 8.56221 1.5916 9.97256 1.38712 11.4728C1.18264 12.973 1.41185 14.5004 2.04766 15.8746C2.68347 17.2487 3.69933 18.4122 4.9752 19.2274C6.25107 20.0427 7.73364 20.4757 9.24774 20.4754ZM20.2117 3.47852H29.4589L29.4839 6.14748H28.3125H21.3864C21.3527 6.15154 21.3193 6.15834 21.2866 6.16783H20.2366L20.2117 3.47852ZM24.8494 38.5223C22.6325 38.5262 20.4463 38.0042 18.4704 36.9989C16.4945 35.9937 14.7852 34.534 13.4832 32.7397C12.1811 30.9455 11.3233 28.8679 10.9802 26.6777C10.6372 24.4875 10.8187 22.2471 11.5098 20.1407C12.7589 19.7687 13.8971 19.0948 14.8239 18.1785C13.1818 20.7731 12.6036 23.901 13.2096 26.9111C13.8156 29.9212 15.5592 32.5817 18.0773 34.3387C20.5954 36.0957 23.6942 36.8139 26.7285 36.3438C29.7628 35.8737 32.499 34.2515 34.3674 31.8148C36.2358 29.3782 37.0925 26.3149 36.7592 23.2625C36.4259 20.2101 34.9283 17.4038 32.5781 15.4278C30.2279 13.4518 27.2062 12.4582 24.1419 12.654C21.0776 12.8498 18.2069 14.2198 16.1272 16.4788C16.7803 15.3424 17.1396 14.061 17.1726 12.7507C18.507 11.8673 19.9861 11.2249 21.5426 10.8528C23.7161 10.3275 25.9834 10.3275 28.1569 10.8528C29.6773 11.2132 31.1243 11.8328 32.4344 12.6844C34.9856 14.3232 36.9373 16.7444 37.9972 19.5854C39.0572 22.4264 39.1683 25.5343 38.314 28.4437C37.4597 31.3531 35.6859 33.9075 33.2583 35.7244C30.8306 37.5413 27.8797 38.5229 24.8475 38.5223H24.8494ZM24.8494 16.8247C25.0235 16.8247 25.1904 16.7555 25.3135 16.6325C25.4365 16.5094 25.5057 16.3425 25.5057 16.1684V13.9739C28.0664 14.1368 30.4799 15.2277 32.294 17.0423C34.1081 18.8569 35.1984 21.2707 35.3606 23.8315H33.1667C32.9927 23.8315 32.8258 23.9006 32.7027 24.0237C32.5796 24.1467 32.5105 24.3137 32.5105 24.4877C32.5105 24.6617 32.5796 24.8287 32.7027 24.9517C32.8258 25.0748 32.9927 25.144 33.1667 25.144H35.3606C35.1983 27.7051 34.1077 30.1193 32.293 31.9339C30.4784 33.7486 28.0642 34.8392 25.5031 35.0015V32.807C25.5031 32.6329 25.4339 32.466 25.3108 32.3429C25.1878 32.2199 25.0209 32.1507 24.8468 32.1507C24.6728 32.1507 24.5058 32.2199 24.3828 32.3429C24.2597 32.466 24.1906 32.6329 24.1906 32.807V35.0015C21.6294 34.8392 19.2152 33.7486 17.4006 31.9339C15.5859 30.1193 14.4953 27.7051 14.333 25.144H16.5269C16.7009 25.144 16.8678 25.0748 16.9909 24.9517C17.114 24.8287 17.1831 24.6617 17.1831 24.4877C17.1831 24.3137 17.114 24.1467 16.9909 24.0237C16.8678 23.9006 16.7009 23.8315 16.5269 23.8315H14.333C14.4953 21.2703 15.5859 18.8561 17.4006 17.0415C19.2152 15.2268 21.6294 14.1362 24.1906 13.9739V16.1678C24.1906 16.3418 24.2597 16.5087 24.3828 16.6318C24.5058 16.7549 24.6728 16.824 24.8468 16.824L24.8494 16.8247ZM27.6529 9.40445C25.7985 9.06222 23.8971 9.06222 22.0427 9.40445V7.46326H27.6529V9.40445ZM35.2307 10.7078L39.1025 14.768L37.6995 16.1067C36.6691 14.5273 35.3565 13.1511 33.8276 12.0472L35.2307 10.7078ZM9.24774 5.91714C10.5579 5.91714 11.8386 6.30567 12.9279 7.03359C14.0171 7.76151 14.8661 8.79612 15.3673 10.0066C15.8686 11.217 15.9996 12.5489 15.7438 13.8338C15.488 15.1187 14.8569 16.2989 13.9304 17.2251C13.0038 18.1514 11.8233 18.782 10.5383 19.0373C9.25331 19.2925 7.92145 19.161 6.71121 18.6593C5.50096 18.1575 4.46669 17.3082 3.7392 16.2186C3.01171 15.129 2.62369 13.8482 2.62421 12.538C2.6256 10.7819 3.3239 9.09802 4.56578 7.85627C5.80765 6.61452 7.49156 5.91639 9.24774 5.91517V5.91714Z" fill="white"/>
</svg>
