<svg width="42" height="28" viewBox="0 0 42 28" fill="none" xmlns="http://www.w3.org/2000/svg">
<path d="M11.7148 23.9233H18.0338" stroke="#020202" stroke-miterlimit="10" stroke-linecap="round"/>
<path d="M19.2585 20.9788H1.85643C1.12859 20.9788 0.5 20.4164 0.5 19.7547V1.7241C0.5 1.02934 1.09551 0.5 1.85643 0.5H27.9264C28.6542 0.5 29.2828 1.06242 29.2828 1.7241V3.97379" stroke="#020202" stroke-miterlimit="10" stroke-linecap="round"/>
<path d="M0.929688 18.2329H18.6295" stroke="#020202" stroke-miterlimit="10" stroke-linecap="round"/>
<path d="M14.8916 20.9788V23.9232" stroke="#020202" stroke-miterlimit="10" stroke-linecap="round"/>
<path d="M19.4902 7.57983H32.6906" stroke="#020202" stroke-miterlimit="10" stroke-linecap="round"/>
<path d="M24.2539 5.89258H27.9262" stroke="#020202" stroke-miterlimit="10" stroke-linecap="round"/>
<path d="M32.6906 5.03254C32.6906 4.50321 32.1944 4.1062 31.6319 4.1062H20.5489C19.9534 4.1062 19.4902 4.53629 19.4902 5.03254V26.0407C19.4902 26.57 19.9865 26.967 20.5489 26.967H31.5989C32.1944 26.967 32.6575 26.5369 32.6575 26.0407V5.03254H32.6906Z" stroke="#020202" stroke-miterlimit="10" stroke-linecap="round"/>
<path d="M19.4902 23.46H32.6906" stroke="#020202" stroke-miterlimit="10" stroke-linecap="round"/>
<path d="M26.1062 25.5113C26.2889 25.5113 26.4371 25.3632 26.4371 25.1804C26.4371 24.9977 26.2889 24.8496 26.1062 24.8496C25.9235 24.8496 25.7754 24.9977 25.7754 25.1804C25.7754 25.3632 25.9235 25.5113 26.1062 25.5113Z" stroke="#020202" stroke-miterlimit="10" stroke-linecap="round"/>
<path d="M32.7236 11.2522H40.9946" stroke="#020202" stroke-miterlimit="10" stroke-linecap="round"/>
<path d="M34.1455 9.89575H37.123" stroke="#020202" stroke-miterlimit="10" stroke-linecap="round"/>
<path d="M31.1357 27.0001H40.1014C40.5977 27.0001 40.9616 26.6693 40.9616 26.2392V9.20111C40.9616 8.77102 40.5646 8.44019 40.1014 8.44019H32.9884" stroke="#020202" stroke-miterlimit="10" stroke-linecap="round"/>
<path d="M33.0537 24.1548H40.9938" stroke="#020202" stroke-miterlimit="10" stroke-linecap="round"/>
<path d="M35.6348 25.8091C35.781 25.8091 35.8995 25.6906 35.8995 25.5445C35.8995 25.3983 35.781 25.2798 35.6348 25.2798C35.4886 25.2798 35.3701 25.3983 35.3701 25.5445C35.3701 25.6906 35.4886 25.8091 35.6348 25.8091Z" stroke="#020202" stroke-miterlimit="10" stroke-linecap="round"/>
<path d="M4.60254 15.8508L8.341 12.1123" stroke="#020202" stroke-miterlimit="10"/>
<path d="M4.90005 13.2703L4.53613 15.8177L7.05049 15.4538" stroke="#020202" stroke-miterlimit="10"/>
<path d="M17.1408 3.27905L13.4023 7.05059" stroke="#020202" stroke-miterlimit="10"/>
<path d="M14.5938 3.60977L17.1081 3.24585L16.7442 5.76021" stroke="#020202" stroke-miterlimit="10"/>
</svg>
