<svg width="33" height="33" viewBox="0 0 33 33" fill="none" xmlns="http://www.w3.org/2000/svg">
<g clip-path="url(#clip0_4854_1308)">
<path d="M31.782 20.3856C31.1305 19.2583 29.6831 18.8713 28.5556 19.523L21.722 23.4735C21.7336 23.4377 21.7443 23.4012 21.7541 23.3644C22.0584 22.2271 21.3807 21.0544 20.2432 20.75L13.3968 18.9212C12.7701 18.7181 12.0023 18.7982 11.4365 19.1265L6.71968 21.8526L6.34953 21.2126C5.95643 20.5354 4.99962 20.3518 4.21658 20.8035L4.21606 20.8037C3.67769 21.1151 3.36406 21.2635 3.03193 21.4206C2.69748 21.5788 2.35156 21.7425 1.7807 22.0717C0.99721 22.5247 0.678103 23.4456 1.06978 24.1254L5.52536 31.8255C5.72233 32.1673 6.07741 32.4006 6.4997 32.4659C6.58207 32.4786 6.6656 32.4849 6.74952 32.4849C7.0589 32.4849 7.37394 32.3994 7.65786 32.2357C8.19501 31.925 8.50858 31.7768 8.84058 31.6198C9.17573 31.4614 9.5223 31.2975 10.0933 30.9677C10.5081 30.7279 10.8113 30.3454 10.925 29.9184C11.0188 29.5664 10.9757 29.2096 10.8042 28.9141L10.4342 28.2744L11.0656 27.909C11.361 27.7378 11.4775 27.7413 11.9283 27.8415L18.7575 29.6655C19.0052 29.7321 19.2567 29.765 19.507 29.765C20.0093 29.765 20.5063 29.6323 20.9549 29.3728L30.9194 23.6122C31.4637 23.2975 31.8535 22.7879 32.0168 22.177C32.1801 21.5663 32.0968 20.9301 31.7821 20.3857L31.782 20.3856ZM9.92745 29.6526C9.88439 29.8143 9.75317 29.9718 9.57669 30.0738C9.04264 30.3823 8.7301 30.5301 8.39927 30.6865C8.06295 30.8455 7.71516 31.01 7.14159 31.3417C6.98619 31.4313 6.80979 31.4692 6.65716 31.4456C6.59187 31.4355 6.47418 31.4045 6.41927 31.3092L1.96368 23.6092C1.87165 23.4495 1.99482 23.1403 2.29678 22.9657C2.8309 22.6577 3.14292 22.5101 3.47337 22.3538C3.80962 22.1946 4.15735 22.0301 4.7322 21.6976C5.03468 21.5233 5.36417 21.5713 5.45634 21.7301L9.91101 29.4315C9.95368 29.5051 9.9435 29.5924 9.92745 29.6526V29.6526ZM31.0195 21.9103C30.9274 22.2548 30.7084 22.5417 30.4028 22.7184L20.4381 28.4791C20.005 28.7296 19.5033 28.797 19.0246 28.6684L12.1843 26.8414C12.1773 26.8395 12.1703 26.8378 12.1633 26.8362C11.5938 26.7094 11.1736 26.6534 10.5485 27.0156L9.91733 27.3807L7.2366 22.7461L11.9539 20.0198C12.2706 19.836 12.7363 19.7893 13.0864 19.9058C13.0963 19.9092 13.1063 19.9122 13.1164 19.9148L19.9767 21.7473C20.5641 21.9045 20.9142 22.5102 20.7569 23.0982C20.6038 23.6729 20.0232 24.0017 19.4347 23.8471L19.4329 23.8467C19.4329 23.8467 19.4327 23.8467 19.4327 23.8465C19.426 23.8448 19.4193 23.8438 19.4127 23.8424C19.4113 23.842 19.41 23.8415 19.4087 23.8411L14.2729 22.4854C13.9973 22.4123 13.7148 22.5771 13.6421 22.8527C13.5694 23.1283 13.7339 23.4107 14.0095 23.4834L19.1452 24.8391C19.1509 24.8405 19.1566 24.8411 19.1622 24.8424C19.1644 24.843 19.1664 24.8438 19.1685 24.8444L19.9894 25.062C20.6116 25.2262 20.9609 25.1076 21.7624 24.6425L29.0723 20.4167C29.707 20.05 30.5216 20.2677 30.8884 20.9022C31.0651 21.2079 31.1117 21.5659 31.0196 21.9104L31.0195 21.9103ZM5.6283 26.0532C5.77093 26.3 5.68643 26.6157 5.43964 26.7583C5.3583 26.8053 5.26949 26.8276 5.18189 26.8276C5.00355 26.8276 4.83011 26.7351 4.73452 26.5696L3.83927 25.0203C3.69664 24.7735 3.78113 24.4578 4.02792 24.3152C4.27478 24.1725 4.59047 24.2571 4.73304 24.5038L5.6283 26.0532ZM3.81342 10.3039L4.87671 10.546C4.9739 10.84 5.09372 11.1283 5.23507 11.4077L4.65254 12.3331C4.31539 12.8719 4.34259 13.4452 4.72505 13.8305L5.60387 14.7093C5.98691 15.0923 6.56068 15.1202 7.10247 14.7812L8.02685 14.1993C8.30471 14.3394 8.59275 14.4587 8.88834 14.556L9.13023 15.6195C9.27022 16.2422 9.69555 16.629 10.2404 16.629H11.4846C12.0283 16.629 12.4529 16.2422 12.5925 15.6209L12.8347 14.5574C12.8461 14.5536 12.8572 14.5494 12.8685 14.5456V17.7864C12.8685 18.0715 13.0996 18.3026 13.3847 18.3026H29.4935C29.7786 18.3026 30.0096 18.0715 30.0096 17.7864V11.1356C30.1846 10.7602 30.2727 10.3424 30.2727 9.88272V7.13121C30.2727 6.84614 30.0417 6.61507 29.7566 6.61507H24.9926V6.225C24.9926 4.97326 23.9742 3.9549 22.7226 3.9549H20.1556C18.9049 3.9549 17.8873 4.97326 17.8873 6.225V6.61507H16.8522C16.7538 6.31356 16.6328 6.01953 16.4899 5.73625L17.0717 4.81187C17.4114 4.27259 17.3839 3.69896 17 3.31501L16.1193 2.43432C15.7353 2.05044 15.1616 2.02285 14.6225 2.36252L13.6981 2.9444C13.4196 2.80402 13.131 2.68459 12.8347 2.58733L12.5929 1.52418C12.453 0.901496 12.0283 0.514648 11.4846 0.514648H10.2404C9.69561 0.514648 9.27028 0.901496 9.13055 1.52289L8.8884 2.58772C8.59288 2.68504 8.30478 2.80435 8.02692 2.94447L7.10137 2.36187C6.5608 2.02363 5.98704 2.0514 5.60348 2.43484L4.72511 3.31501C4.3411 3.69896 4.31358 4.27252 4.65325 4.8118L5.23507 5.73612C5.09379 6.01553 4.9739 6.3037 4.87671 6.5978L3.8122 6.84027C3.19113 6.98336 2.80531 7.40843 2.80531 7.94977V9.19403C2.80531 9.73873 3.1921 10.1641 3.81342 10.3039ZM12.6073 7.13128V9.88278C12.6073 10.2028 12.6501 10.5024 12.735 10.7817C12.2115 11.2262 11.5541 11.4696 10.8615 11.4696C9.26423 11.4696 7.96479 10.1701 7.96479 8.57284C7.96479 6.97556 9.26429 5.67612 10.8615 5.67612C11.6888 5.67612 12.4665 6.03351 13.008 6.62854C12.7786 6.68101 12.6073 6.8859 12.6073 7.13128ZM13.9008 17.2704V12.3198C14.2934 12.5937 14.7747 12.8228 15.3441 13.006C16.7588 13.4611 18.5058 13.5714 19.9176 13.6582C19.9259 14.4908 20.6055 15.1656 21.4399 15.1656C22.2744 15.1656 22.9541 14.4908 22.9624 13.6582C24.3742 13.5714 26.1212 13.461 27.5358 13.006C28.1043 12.8231 28.585 12.5945 28.9773 12.3211V17.2704H13.9009H13.9008ZM20.9494 13.6428V12.8663C20.9494 12.5959 21.1695 12.3758 21.44 12.3758C21.7105 12.3758 21.9306 12.5959 21.9306 12.8663V13.6428C21.9306 13.9134 21.7104 14.1334 21.44 14.1334C21.1696 14.1334 20.9494 13.9134 20.9494 13.6428ZM29.2404 9.88285C29.2404 12.0409 26.2717 12.4177 22.9435 12.6251C22.8275 11.8997 22.1976 11.3435 21.4399 11.3435C20.6823 11.3435 20.0524 11.8997 19.9364 12.6251C16.6083 12.4177 13.6395 12.0409 13.6395 9.88285V7.64742H29.2404V9.88285H29.2404ZM18.9196 6.22513C18.9196 5.54257 19.4741 4.98731 20.1556 4.98731H22.7226C23.4051 4.98731 23.9604 5.54257 23.9604 6.22513V6.6152H18.9197L18.9196 6.22513ZM4.04268 7.84651L5.39833 7.53772C5.58382 7.4955 5.7311 7.35461 5.78144 7.17111C5.89526 6.75642 6.06316 6.35255 6.28043 5.97061C6.37447 5.80522 6.36996 5.60142 6.26864 5.44041L5.52678 4.26182C5.4495 4.13917 5.44789 4.06067 5.4506 4.05003C5.4506 4.05003 5.45176 4.04836 5.45543 4.04462L6.3338 3.16445C6.33586 3.16238 6.33734 3.16116 6.33754 3.16077C6.3532 3.15755 6.4317 3.16051 6.55255 3.23625L7.73101 3.97804C7.89202 4.07936 8.09582 4.08393 8.26121 3.98983C8.6389 3.77495 9.04276 3.60769 9.46171 3.49264C9.64521 3.4423 9.7861 3.29503 9.82832 3.10947L10.1374 1.75067C10.1691 1.60945 10.2232 1.55318 10.233 1.54757C10.233 1.54757 10.2352 1.54706 10.2404 1.54706L11.4882 1.54648C11.5 1.55299 11.5541 1.60977 11.586 1.75196L11.8948 3.10947C11.9371 3.29522 12.0782 3.44256 12.2619 3.49283C12.6813 3.6075 13.0857 3.77475 13.4638 3.98983C13.6291 4.08387 13.8329 4.07949 13.994 3.97804L15.1726 3.23612C15.2954 3.15877 15.3736 3.15736 15.3844 3.15993C15.3844 3.15993 15.3861 3.16109 15.3894 3.16432L16.27 4.04494C16.2721 4.047 16.2733 4.04848 16.2737 4.04874C16.277 4.06415 16.2738 4.14188 16.1982 4.26195L15.4564 5.44041C15.355 5.60142 15.3505 5.80515 15.4446 5.97061C15.5626 6.17808 15.6658 6.39374 15.7543 6.61514H14.2687C13.573 5.4078 12.2703 4.64384 10.8616 4.64384C8.69511 4.64384 6.93257 6.40637 6.93257 8.57284C6.93257 10.7393 8.69511 12.5018 10.8616 12.5018C11.578 12.5018 12.2668 12.31 12.8686 11.9517V13.4432C12.6715 13.5247 12.4684 13.5957 12.2605 13.6532C12.0775 13.7038 11.937 13.8508 11.8948 14.036L11.5858 15.3931C11.5541 15.534 11.5 15.5908 11.4846 15.5967H10.2404C10.2368 15.5967 10.2347 15.5964 10.2343 15.5966C10.2215 15.5887 10.1686 15.532 10.1372 15.3918L9.82838 14.0343C9.78617 13.8487 9.64527 13.7014 9.46177 13.6511C9.04283 13.536 8.63897 13.3688 8.26127 13.1539C8.09595 13.0599 7.89215 13.0643 7.73108 13.1657L6.55371 13.9068C6.42887 13.9849 6.34959 13.9864 6.33889 13.9837C6.33889 13.9837 6.33715 13.9826 6.33386 13.9794L5.45646 13.102C5.45331 13.0987 5.45182 13.0967 5.45157 13.0967C5.44789 13.0827 5.45002 13.0046 5.52685 12.8818L6.26864 11.7033C6.36996 11.5423 6.37453 11.3386 6.28043 11.1731C6.06316 10.7912 5.89526 10.3873 5.78144 9.97263C5.7311 9.78913 5.58382 9.6483 5.39833 9.60602L4.04133 9.29697C3.89999 9.26519 3.84378 9.21111 3.83811 9.20138C3.83811 9.20138 3.83759 9.19913 3.83759 9.19397L3.83708 7.94597C3.84359 7.93411 3.90089 7.87919 4.04268 7.84651ZM17.4919 8.97934H25.3882C25.6733 8.97934 25.9043 9.21041 25.9043 9.49548C25.9043 9.78056 25.6733 10.0116 25.3882 10.0116H17.4919C17.2068 10.0116 16.9757 9.78056 16.9757 9.49548C16.9757 9.21041 17.2068 8.97934 17.4919 8.97934Z" fill="#00A1A5"/>
</g>
<defs>
<clipPath id="clip0_4854_1308">
<rect width="33" height="33" fill="white"/>
</clipPath>
</defs>
</svg>
