<svg width="25" height="24" viewBox="0 0 25 24" fill="none" xmlns="http://www.w3.org/2000/svg">
<path d="M20.5 22.5312L13.6562 15.6875L16.2812 13.0625L23.125 19.9062L20.5 22.5312ZM3.25 22.5312L0.625 19.9062L9.25 11.2812L7.125 9.15625L6.25 10.0312L4.65625 8.4375V11L3.78125 11.875L0 8.09375L0.875 7.21875H3.4375L1.875 5.65625L6.3125 1.21875C6.72917 0.802083 7.17708 0.5 7.65625 0.3125C8.13542 0.125 8.625 0.03125 9.125 0.03125C9.625 0.03125 10.1146 0.125 10.5938 0.3125C11.0729 0.5 11.5208 0.802083 11.9375 1.21875L9.0625 4.09375L10.625 5.65625L9.75 6.53125L11.875 8.65625L14.6875 5.84375C14.6042 5.61458 14.5365 5.375 14.4844 5.125C14.4323 4.875 14.4062 4.625 14.4062 4.375C14.4062 3.14583 14.8281 2.10938 15.6719 1.26562C16.5156 0.421875 17.5521 0 18.7812 0C19.0938 0 19.3906 0.03125 19.6719 0.09375C19.9531 0.15625 20.2396 0.25 20.5312 0.375L17.4375 3.46875L19.6875 5.71875L22.7812 2.625C22.9271 2.91667 23.026 3.20312 23.0781 3.48438C23.1302 3.76562 23.1562 4.0625 23.1562 4.375C23.1562 5.60417 22.7344 6.64062 21.8906 7.48438C21.0469 8.32812 20.0104 8.75 18.7812 8.75C18.5312 8.75 18.2812 8.72917 18.0312 8.6875C17.7812 8.64583 17.5417 8.57292 17.3125 8.46875L3.25 22.5312Z" fill="#00A1A5"/>
</svg>
