<svg width="45" height="45" viewBox="0 0 45 45" fill="none" xmlns="http://www.w3.org/2000/svg">
<path fill-rule="evenodd" clip-rule="evenodd" d="M38.0379 33.519C38.0379 34.281 37.4178 34.9017 36.6557 34.9017H8.34397C7.58194 34.9017 6.96175 34.281 6.96175 33.519V33.1973H38.0379V33.519ZM25.8526 40.468H19.1471C20.2202 39.2708 21.0147 37.8152 21.5563 36.0606H23.4435C23.9851 37.8157 24.7796 39.2709 25.8526 40.468ZM29.093 26.5662C29.563 26.5662 29.9448 26.9488 29.9448 27.4179C29.9448 27.888 29.5631 28.2706 29.093 28.2706C28.623 28.2706 28.2413 27.888 28.2413 27.4179C28.2414 26.9488 28.623 26.5662 29.093 26.5662ZM21.0315 27.4179C21.0315 27.888 20.6498 28.2706 20.1797 28.2706C19.7102 28.2706 19.3275 27.888 19.3275 27.4179C19.3275 26.9488 19.7101 26.5662 20.1797 26.5662C20.6498 26.5662 21.0315 26.9488 21.0315 27.4179ZM8.34397 18.0876C7.58194 18.0876 6.96175 18.7073 6.96175 19.4693V32.0382H38.0379V19.4693C38.0379 18.7073 37.4178 18.0876 36.6557 18.0876H32.6663L32.0745 19.7869C31.6207 21.0896 30.4361 21.9311 29.0577 21.9311H17.9565L17.0513 24.3789C16.8643 24.8838 17.2328 25.4072 17.7668 25.4072H29.093C30.2018 25.4072 31.1038 26.3092 31.1038 27.418C31.1038 28.5273 30.2018 29.4297 29.093 29.4297C27.6173 29.4297 26.6515 27.8893 27.2715 26.5663H22.0008C22.6214 27.8856 21.6582 29.4297 20.1798 29.4297C18.7067 29.4297 17.7366 27.8929 18.3583 26.5663H17.7669C16.4275 26.5663 15.4999 25.2322 15.9639 23.9768L16.7771 21.7781C16.267 21.5661 15.863 21.1468 15.6696 20.5931L14.7965 18.0877L8.34397 18.0876ZM33.148 13.1832L30.9801 19.4061C30.6862 20.2485 29.9494 20.7716 29.0577 20.7716H17.5521C17.1867 20.7716 16.8853 20.5577 16.7645 20.2123L14.3157 13.1833H33.148V13.1832ZM27.5644 12.0242H19.8993C20.1477 10.1153 21.7826 8.66659 23.7316 8.66659C25.6812 8.66659 27.3151 10.115 27.5644 12.0242ZM15.7305 11.7681V12.0242H18.7329C18.9891 9.46939 21.1402 7.50757 23.7317 7.50757C26.3233 7.50757 28.4756 9.47137 28.7305 12.0242H31.7329V11.7681L30.0988 11.2372C29.9146 11.1768 29.7724 11.0294 29.7199 10.843C29.5878 10.3748 29.4 9.92056 29.1606 9.49378C29.0653 9.32548 29.0616 9.11956 29.1495 8.94748L29.93 7.41559L28.8491 6.33415L27.3172 7.11472C27.1438 7.20301 26.9392 7.19842 26.77 7.10401C26.3433 6.86461 25.8895 6.67678 25.4213 6.54475C25.2354 6.49174 25.0875 6.34999 25.0271 6.16585L24.4962 4.53127H22.9675L22.4366 6.16585C22.3761 6.34999 22.2288 6.49174 22.0423 6.54475C21.5742 6.67588 21.1204 6.86461 20.6941 7.10401C20.5249 7.19932 20.3189 7.20301 20.1469 7.11472L18.615 6.33415L17.5337 7.41559L18.3143 8.94748C18.4026 9.11947 18.3989 9.32548 18.3036 9.49378C18.0642 9.92056 17.8763 10.3739 17.7443 10.843C17.6913 11.0294 17.5495 11.1768 17.3654 11.2372L15.7305 11.7681ZM36.6558 16.9286H33.0708L34.5111 12.7946C34.642 12.4185 34.3622 12.0242 33.9639 12.0242H32.8923V11.7351C32.8923 11.2511 32.5831 10.8252 32.1224 10.6755L30.7435 10.2277C30.6287 9.87718 30.4864 9.53455 30.3195 9.20443L30.9779 7.91149C31.1973 7.48048 31.1151 6.96073 30.7733 6.61855L29.6454 5.49112C29.3033 5.14849 28.7831 5.06668 28.3521 5.28655L27.0596 5.9449C26.7294 5.77795 26.3873 5.63575 26.0363 5.52046L25.5881 4.14148C25.4388 3.68122 25.013 3.37207 24.5295 3.37207H22.9343C22.4504 3.37207 22.0245 3.68122 21.8753 4.14148L21.4271 5.52046C21.0761 5.63575 20.7339 5.77804 20.4038 5.9449L19.1118 5.28655C18.6799 5.06668 18.1602 5.14849 17.818 5.49112L16.6906 6.61855C16.3488 6.96073 16.2661 7.48048 16.4856 7.91239L17.1444 9.20434C16.9774 9.53437 16.8352 9.87709 16.7199 10.2276L15.341 10.6754C14.8808 10.8251 14.5716 11.2509 14.5716 11.735V12.0241H13.9115L13.1346 9.79492C12.8296 8.91859 12.0644 8.33512 11.1387 8.27275L8.04895 8.06449C7.72909 8.04217 7.45288 8.28436 7.43155 8.60332C7.40968 8.92318 7.65097 9.1993 7.97083 9.22072L11.0606 9.42943C11.5213 9.46057 11.8873 9.74002 12.0397 10.1761L14.3931 16.9285H8.34397C6.94276 16.9285 5.80273 18.068 5.80273 19.4692V33.5188C5.80273 34.9206 6.94267 36.0605 8.34397 36.0605H20.3373C19.7175 37.8927 18.7841 39.3414 17.499 40.4679H13.16C12.8401 40.4679 12.5803 40.7278 12.5803 41.0477C12.5803 41.3675 12.8402 41.6275 13.16 41.6275H31.8397C32.1596 41.6275 32.419 41.3675 32.419 41.0477C32.419 40.7278 32.1596 40.4679 31.8397 40.4679H27.5007C26.2157 39.3414 25.2822 37.8927 24.6624 36.0605H36.6557C38.0569 36.0605 39.197 34.9206 39.197 33.5188V19.4693C39.197 18.0681 38.057 16.9286 36.6558 16.9286Z" fill="#020202"/>
</svg>
