<svg width="41" height="41" viewBox="0 0 41 41" fill="none" xmlns="http://www.w3.org/2000/svg">
<path d="M39.3911 5.2989C38.7326 4.6342 37.8194 4.28011 36.8814 4.3298C35.9433 4.3795 35.0736 4.82677 34.4897 5.55359L26.4823 15.2445C24.9355 14.909 23.5688 15.5986 22.6121 17.2448C22.2642 17.8412 22.0282 18.5369 21.9101 19.3134C21.7176 20.5497 21.3324 21.6181 20.7236 22.5748C20.6242 22.7363 20.6118 22.9351 20.6988 23.1028C20.7858 23.2706 20.9597 23.3762 21.1461 23.3824C21.4132 23.3948 21.6803 23.3948 21.935 23.3948C25.0286 23.3948 27.1905 22.6618 28.3583 21.2206C29.2653 20.0962 29.315 18.86 29.2529 18.189L39.0805 10.2003C39.8135 9.62253 40.267 8.75284 40.3291 7.82102C40.3974 6.88299 40.0495 5.96359 39.3911 5.2989ZM28.8615 14.0269L30.5885 15.7539L28.8118 17.1951L27.4079 15.785L28.8615 14.0269ZM27.5321 20.5683C26.6003 21.7113 24.718 22.3201 22.0655 22.3387C22.5003 21.469 22.7923 20.5248 22.9538 19.4687C23.0532 18.8227 23.2458 18.2512 23.5253 17.7728C24.1341 16.7292 24.8795 16.2074 25.7492 16.2074C25.9605 16.2074 26.1841 16.2384 26.4139 16.3006L28.1906 18.0897C28.2527 18.4686 28.3397 19.5868 27.5321 20.5683ZM38.4344 9.37405L38.4282 9.38026L31.4085 15.0892L29.5324 13.2131L35.3097 6.2245C35.7073 5.72753 36.2974 5.42314 36.9373 5.38587C37.5771 5.34859 38.1921 5.59087 38.6394 6.04435C39.0867 6.49784 39.3227 7.11905 39.2855 7.75268C39.2482 8.38632 38.9376 8.97647 38.4344 9.37405Z" fill="#020202"/>
<path d="M17.7354 29.2032C18.0682 29.2032 18.338 28.9334 18.338 28.6006C18.338 28.2678 18.0682 27.998 17.7354 27.998C17.4026 27.998 17.1328 28.2678 17.1328 28.6006C17.1328 28.9334 17.4026 29.2032 17.7354 29.2032Z" fill="#020202"/>
<path d="M11.5116 8.05098C11.5116 7.75901 11.2755 7.52295 10.9835 7.52295H4.19991C3.90794 7.52295 3.67188 7.75901 3.67188 8.05098V13.3748C3.67188 13.6667 3.90794 13.9028 4.19991 13.9028H10.9835C11.2755 13.9028 11.5116 13.6667 11.5116 13.3748V8.05098ZM10.4555 12.8405H4.72794V8.5728H10.4555V12.8405Z" fill="#020202"/>
<path d="M11.5116 15.9838C11.5116 15.6919 11.2755 15.4558 10.9835 15.4558H4.19991C3.90794 15.4558 3.67188 15.6919 3.67188 15.9838C3.67188 16.2758 3.90794 16.5119 4.19991 16.5119H10.9835C11.2755 16.5119 11.5116 16.2758 11.5116 15.9838Z" fill="#020202"/>
<path d="M4.19991 17.8289C3.90794 17.8289 3.67188 18.0649 3.67188 18.3569C3.67188 18.6489 3.90794 18.8849 4.19991 18.8849H8.9646C9.25657 18.8849 9.49263 18.6489 9.49263 18.3569C9.49263 18.0649 9.25657 17.8289 8.9646 17.8289H4.19991Z" fill="#020202"/>
<path d="M20.6805 15.9838C20.6805 15.6919 20.4445 15.4558 20.1525 15.4558H13.3689C13.0769 15.4558 12.8408 15.6919 12.8408 15.9838C12.8408 16.2758 13.0769 16.5119 13.3689 16.5119H20.1525C20.4445 16.5119 20.6805 16.2758 20.6805 15.9838Z" fill="#020202"/>
<path d="M13.3689 17.8289C13.0769 17.8289 12.8408 18.0649 12.8408 18.3569C12.8408 18.6489 13.0769 18.8849 13.3689 18.8849H18.1335C18.4255 18.8849 18.6616 18.6489 18.6616 18.3569C18.6616 18.0649 18.4255 17.8289 18.1335 17.8289H13.3689Z" fill="#020202"/>
<path d="M20.6805 8.05098C20.6805 7.75901 20.4445 7.52295 20.1525 7.52295H13.3689C13.0769 7.52295 12.8408 7.75901 12.8408 8.05098V13.3748C12.8408 13.6667 13.0769 13.9028 13.3689 13.9028H20.1525C20.4445 13.9028 20.6805 13.6667 20.6805 13.3748V8.05098ZM19.6245 12.8405H13.8969V8.5728H19.6245V12.8405Z" fill="#020202"/>
<path d="M34.819 16.5305C34.819 16.2385 34.583 16.0025 34.291 16.0025C33.999 16.0025 33.763 16.2385 33.763 16.5305V25.8922H1.7084V7.44216C1.7084 6.29292 2.64022 5.35489 3.78947 5.35489H31.6757C31.8869 5.35489 32.1043 5.39216 32.3466 5.47913C32.6199 5.57231 32.9243 5.42322 33.0175 5.14989C33.1107 4.87656 32.9616 4.57216 32.6883 4.47898C32.3342 4.36095 32.0049 4.29883 31.6757 4.29883H3.78947C2.0625 4.29883 0.652344 5.70898 0.652344 7.44216V26.4202V28.1534C0.652344 29.8866 2.0625 31.2967 3.78947 31.2967H13.5487L12.7411 33.2225H10.424C9.46734 33.2225 8.69083 33.999 8.69083 34.9556C8.69083 35.9123 9.46734 36.6888 10.424 36.6888H25.0536C26.0102 36.6888 26.7867 35.9123 26.7867 34.9556C26.7867 33.999 26.0102 33.2225 25.0536 33.2225H22.7364L21.9289 31.2967H31.6819C33.4089 31.2967 34.819 29.8928 34.819 28.1658V26.4202V16.5305ZM25.7307 34.9619C25.7307 35.3346 25.4263 35.639 25.0536 35.639H10.424C10.0513 35.639 9.74689 35.3346 9.74689 34.9619C9.74689 34.5891 10.0513 34.2847 10.424 34.2847H25.0536C25.4263 34.2847 25.7307 34.5891 25.7307 34.9619ZM21.5872 33.2287H13.8842L14.6917 31.3029H20.7796L21.5872 33.2287ZM33.763 28.172C33.763 29.315 32.8311 30.2469 31.6819 30.2469H3.78947C2.64022 30.2469 1.7084 29.3088 1.7084 28.1596V26.9544H33.763V28.172Z" fill="#020202"/>
</svg>
