<svg width="34" height="34" viewBox="0 0 34 34" fill="none" xmlns="http://www.w3.org/2000/svg">
<g clip-path="url(#clip0_4854_1251)">
<path d="M31.45 0H2.55C1.14411 0 0 1.14411 0 2.55V31.45C0 32.8559 1.14411 34 2.55 34H31.45C32.8559 34 34 32.8559 34 31.45V2.55C34 1.14411 32.8559 0 31.45 0ZM32.8666 31.45C32.8666 32.2314 32.2314 32.8666 31.45 32.8666H2.55C1.76913 32.8666 1.13336 32.2314 1.13336 31.45V2.55C1.13336 1.76853 1.76913 1.13336 2.55 1.13336H31.45C32.2309 1.13336 32.8666 1.7686 32.8666 2.55V31.45Z" fill="white"/>
<path d="M5.09989 2.2666H2.83325C2.52047 2.2666 2.2666 2.51988 2.2666 2.83325V5.09996C2.2666 5.41333 2.52047 5.6666 2.83325 5.6666H5.09989C5.41266 5.6666 5.66654 5.41333 5.66654 5.09996V2.83331C5.66654 2.51994 5.41266 2.2666 5.09989 2.2666ZM4.53325 4.53331H3.39989V3.39996H4.53325V4.53331Z" fill="white"/>
<path d="M9.63309 2.2666H7.36645C7.05368 2.2666 6.7998 2.51988 6.7998 2.83325V5.09996C6.7998 5.41333 7.05368 5.6666 7.36645 5.6666H9.63309C9.94587 5.6666 10.1997 5.41333 10.1997 5.09996V2.83331C10.1997 2.51994 9.94587 2.2666 9.63309 2.2666ZM9.06638 4.53331H7.93303V3.39996H9.06638V4.53331Z" fill="white"/>
<path d="M14.1663 2.2666H11.8997C11.5869 2.2666 11.333 2.51988 11.333 2.83325V5.09996C11.333 5.41333 11.5869 5.6666 11.8997 5.6666H14.1663C14.4791 5.6666 14.7329 5.41333 14.7329 5.09996V2.83331C14.733 2.51994 14.4791 2.2666 14.1663 2.2666ZM13.5997 4.53331H12.4663V3.39996H13.5997V4.53331Z" fill="white"/>
<path d="M31.45 0H2.55C1.14411 0 0 1.14411 0 2.55V7.36664C0 7.68002 0.253871 7.93329 0.566645 7.93329H33.4333C33.7461 7.93329 33.9999 7.68002 33.9999 7.36664V2.55C34 1.14411 32.8559 0 31.45 0ZM32.8666 6.8H1.13336V2.55C1.13336 1.76853 1.76913 1.13336 2.55 1.13336H31.45C32.2309 1.13336 32.8666 1.7686 32.8666 2.55V6.8Z" fill="white"/>
<path d="M14.5669 16.0329C14.3459 15.8113 13.9867 15.8113 13.7657 16.0329L9.79901 19.9995C9.57741 20.2211 9.57741 20.5793 9.79901 20.8008C9.90951 20.9113 10.0546 20.9668 10.1996 20.9668C10.3447 20.9668 10.4898 20.9113 10.6003 20.8008L14.5669 16.8342C14.7885 16.6126 14.7885 16.2544 14.5669 16.0329Z" fill="white"/>
<path d="M18.5337 19.9995L14.5671 16.0328C14.3461 15.8113 13.9868 15.8113 13.7658 16.0328C13.5442 16.2544 13.5442 16.6126 13.7658 16.8341L17.7325 20.8007C17.843 20.9112 17.988 20.9668 18.1331 20.9668C18.2782 20.9668 18.4232 20.9112 18.5337 20.8007C18.7552 20.5792 18.7552 20.221 18.5337 19.9995Z" fill="white"/>
<path d="M20.8003 14.3327C20.5793 14.1111 20.2201 14.1111 19.9991 14.3327L16.0324 18.2993C15.8108 18.5209 15.8108 18.8791 16.0324 19.1006C16.1429 19.2111 16.288 19.2666 16.433 19.2666C16.5781 19.2666 16.7232 19.2111 16.8337 19.1006L20.8003 15.134C21.0219 14.9124 21.0219 14.5542 20.8003 14.3327Z" fill="white"/>
<path d="M24.7671 18.2993L20.8004 14.3327C20.5794 14.1111 20.2202 14.1111 19.9992 14.3327C19.7776 14.5543 19.7776 14.9124 19.9992 15.134L23.9658 19.1006C24.0763 19.2111 24.2214 19.2666 24.3664 19.2666C24.5115 19.2666 24.6566 19.2111 24.7671 19.1006C24.9887 18.8791 24.9887 18.5209 24.7671 18.2993Z" fill="white"/>
<path d="M24.9336 9.6333C23.6835 9.6333 22.667 10.6499 22.667 11.8999C22.667 13.15 23.6836 14.1666 24.9336 14.1666C26.1837 14.1666 27.2003 13.15 27.2003 11.8999C27.2003 10.6499 26.1837 9.6333 24.9336 9.6333ZM24.9336 13.0333C24.3086 13.0333 23.8003 12.525 23.8003 11.8999C23.8003 11.2749 24.3086 10.7666 24.9336 10.7666C25.5587 10.7666 26.067 11.2749 26.067 11.8999C26.067 12.525 25.5587 13.0333 24.9336 13.0333Z" fill="white"/>
<path d="M20.9663 27.7666H13.033C12.0957 27.7666 11.333 28.5293 11.333 29.4666C11.333 30.4039 12.0957 31.1666 13.033 31.1666H20.9664C21.9036 31.1666 22.6664 30.4039 22.6664 29.4666C22.6664 28.5293 21.9036 27.7666 20.9663 27.7666ZM20.9663 30.0333H13.033C12.7202 30.0333 12.4664 29.7794 12.4664 29.4667C12.4664 29.1539 12.7202 28.9 13.033 28.9H20.9664C21.2791 28.9 21.533 29.1539 21.533 29.4667C21.533 29.7794 21.2791 30.0333 20.9663 30.0333Z" fill="white"/>
<path d="M22.6665 22.6665H11.3332C11.0205 22.6665 10.7666 22.9198 10.7666 23.2331C10.7666 23.5465 11.0205 23.7998 11.3332 23.7998H22.6666C22.9794 23.7998 23.2332 23.5465 23.2332 23.2331C23.2332 22.9198 22.9794 22.6665 22.6665 22.6665Z" fill="white"/>
<path d="M25.5002 24.9336H8.50024C8.18746 24.9336 7.93359 25.1869 7.93359 25.5002C7.93359 25.8136 8.18746 26.0669 8.50024 26.0669H25.5002C25.813 26.0669 26.0669 25.8136 26.0669 25.5002C26.0669 25.1869 25.813 24.9336 25.5002 24.9336Z" fill="white"/>
</g>
<defs>
<clipPath id="clip0_4854_1251">
<rect width="34" height="34" fill="white"/>
</clipPath>
</defs>
</svg>
