<svg width="38" height="38" viewBox="0 0 38 38" fill="none" xmlns="http://www.w3.org/2000/svg">
<g clip-path="url(#clip0_4854_1098)">
<path d="M19.1153 24.2394C18.6547 24.2394 18.2516 24.1819 17.9638 24.1243C17.6759 24.0667 17.5031 23.8364 17.5031 23.5485C17.5031 23.2031 17.388 22.9152 17.2153 22.8C17.0425 22.7425 16.7547 22.8 16.4092 23.0879C16.1789 23.2606 15.9486 23.2606 15.7183 23.0879C15.2001 22.6849 14.7395 22.2243 14.3941 21.7061C14.2213 21.4758 14.2789 21.1879 14.4516 20.9576C14.7395 20.6697 14.7971 20.3818 14.7395 20.2667C14.6819 20.094 14.4516 19.9212 14.0486 19.9212C13.7607 19.9212 13.5304 19.7485 13.4728 19.4606C13.3001 18.7122 13.4153 17.9637 13.5304 17.5031C13.588 17.2152 13.8183 17.0425 14.1062 17.0425C14.4516 17.0425 14.7395 16.9273 14.8547 16.7546C14.9122 16.5818 14.8547 16.294 14.5668 15.9485C14.3941 15.7182 14.3941 15.4879 14.5668 15.2576C14.9698 14.7394 15.4304 14.2788 15.9486 13.9334C16.1789 13.7606 16.4668 13.8182 16.6971 13.9909C16.985 14.2788 17.2728 14.3364 17.388 14.2788C17.5607 14.2212 17.7335 13.9909 17.7335 13.5879C17.7335 13.3 17.9062 13.0697 18.1941 13.0122C18.9425 12.8394 19.6335 12.9546 20.1516 13.0697C20.4395 13.1273 20.6122 13.3576 20.6122 13.6455C20.6122 13.9909 20.7274 14.2788 20.9001 14.394C21.0728 14.4515 21.3607 14.3364 21.6486 14.1061C21.8789 13.9334 22.1668 13.9334 22.3971 14.1061C22.9153 14.5091 23.3759 14.9697 23.7213 15.4879C23.8941 15.7182 23.8365 16.0061 23.6638 16.2364C23.3759 16.5243 23.3183 16.8122 23.3759 16.9273V16.9849C23.3759 17.0425 23.6062 17.2152 24.0668 17.2728C24.2971 17.2728 24.5274 17.5031 24.585 17.7334C24.7577 18.4818 24.6425 19.2303 24.5274 19.6909C24.4698 19.9788 24.2395 20.1515 23.9516 20.1515C23.6062 20.1515 23.3183 20.2667 23.2031 20.4394C23.1456 20.6122 23.2031 20.9 23.491 21.2455C23.6638 21.4758 23.6638 21.7061 23.491 21.9364C23.088 22.4546 22.6274 22.9152 22.1092 23.2606C21.8789 23.4334 21.591 23.3758 21.3607 23.2031C21.0728 22.9152 20.785 22.8576 20.6698 22.9152C20.4971 22.9728 20.3244 23.2031 20.3244 23.6061C20.3244 23.894 20.1516 24.1243 19.8638 24.1818C19.6335 24.2394 19.4032 24.2394 19.1153 24.2394ZM18.5971 23.0303C18.8274 23.0879 19.0577 23.0879 19.288 23.0879C19.4031 22.5122 19.8062 22.0515 20.2668 21.8788C20.7274 21.6485 21.3032 21.7637 21.8213 22.1091C21.9941 21.9364 22.1668 21.7637 22.3395 21.5909C22.0516 21.0152 21.9941 20.497 22.1668 20.0364C22.1668 20.0364 22.1668 19.9788 22.2244 19.9788C22.5122 19.5182 22.9153 19.2303 23.491 19.1152C23.5486 18.8849 23.5486 18.6546 23.5486 18.4243C22.9153 18.2515 22.4547 17.9061 22.3395 17.4455C22.1668 16.9849 22.2244 16.4091 22.5698 15.8909C22.3971 15.7182 22.2244 15.5455 22.0516 15.3728C21.5335 15.6606 20.9577 15.7182 20.4395 15.5455C20.4395 15.5455 20.3819 15.5455 20.3819 15.4879C19.9213 15.2 19.6335 14.797 19.5183 14.2212C19.288 14.1637 19.0577 14.1637 18.8274 14.1637C18.7122 14.7394 18.3092 15.2 17.8486 15.3728C17.388 15.6031 16.8122 15.4879 16.2941 15.1425C16.1213 15.3152 15.9486 15.4879 15.7759 15.6606C16.0638 16.2364 16.1213 16.7546 15.9486 17.2152C15.9486 17.2152 15.9486 17.2728 15.891 17.2728C15.6031 17.7334 15.2001 18.0212 14.6244 18.1364C14.5668 18.3667 14.5668 18.597 14.5668 18.8273C15.1425 18.9425 15.6031 19.3455 15.7759 19.8061C16.0062 20.2667 15.891 20.8425 15.5456 21.3606L16.0638 21.8788C16.6395 21.5909 17.1577 21.5334 17.6183 21.7061C17.6183 21.7061 17.6759 21.7061 17.6759 21.7637C18.1941 22.0515 18.4819 22.5122 18.5971 23.0303Z" fill="#00A1A5"/>
<path d="M19.0584 21.5334C17.4463 21.5334 16.1221 20.2091 16.1221 18.597C16.1221 16.9849 17.4463 15.6606 19.0584 15.6606C20.6706 15.6606 21.9948 16.9849 21.9948 18.597C21.9948 20.2091 20.6706 21.5334 19.0584 21.5334ZM19.0584 16.8122C18.0796 16.8122 17.2736 17.6182 17.2736 18.597C17.2736 19.5758 18.0796 20.3819 19.0584 20.3819C20.0372 20.3819 20.8433 19.5758 20.8433 18.597C20.8433 17.6182 20.0372 16.8122 19.0584 16.8122Z" fill="#00A1A5"/>
<path d="M5.29702 14.3363L4.14551 14.2211C4.77884 6.56356 11.3425 0.575684 19.0001 0.575684C22.9728 0.575684 26.7152 2.13023 29.5364 4.95144C32.0122 7.4272 33.5667 10.7666 33.8546 14.2211L32.7031 14.3363C32.4152 11.112 31.0334 8.06053 28.7304 5.7575C26.1395 3.16659 22.6849 1.7272 19.0001 1.7272C11.9182 1.7272 5.93036 7.25447 5.29702 14.3363Z" fill="#00A1A5"/>
<path d="M23.3759 36.0423H19.2305V34.8908H23.3759C26.9456 34.8908 29.882 31.9544 29.882 28.3847V23.9514H31.0335V28.3847C31.0335 32.5878 27.579 36.0423 23.3759 36.0423Z" fill="#00A1A5"/>
<path d="M8.92495 13.9333L7.77344 13.7606C8.69465 8.40607 13.0704 4.43334 18.3674 4.14547C24.1825 3.85759 29.3068 8.00304 30.228 13.7606L29.0765 13.9333C28.2128 8.69395 23.6643 5.0091 18.3674 5.23941C13.7037 5.52728 9.78859 9.09698 8.92495 13.9333Z" fill="#00A1A5"/>
<path d="M32.0703 24.2394V23.0878C33.2218 23.0878 34.3733 22.5697 35.1218 21.6485C35.8127 20.8424 36.2158 19.8636 36.2158 18.8848C36.2158 17.8485 35.8703 16.9272 35.1218 16.1212C34.3158 15.2 33.2218 14.6818 32.0703 14.6818V13.5303C33.5673 13.5303 35.0067 14.1636 35.9855 15.3151C36.8491 16.3515 37.3673 17.5606 37.3673 18.8848C37.3673 20.2091 36.9067 21.4182 36.043 22.4545C35.0067 23.606 33.5673 24.2394 32.0703 24.2394Z" fill="#00A1A5"/>
<path d="M5.93076 24.2394C4.43379 24.2394 2.9944 23.606 2.01561 22.4545C1.15197 21.4182 0.633789 20.2091 0.633789 18.8848C0.633789 17.5606 1.0944 16.3515 1.95803 15.3151C2.9944 14.1636 4.43379 13.5303 5.93076 13.5303V14.6818C4.77924 14.6818 3.62773 15.2 2.87924 16.1212C2.18833 16.9272 1.7853 17.906 1.7853 18.8848C1.7853 19.9212 2.13076 20.8424 2.87924 21.6485C3.6853 22.5697 4.77924 23.0878 5.93076 23.0878V24.2394Z" fill="#00A1A5"/>
<path d="M17.8492 37.4242C16.7552 37.4242 15.8916 36.5605 15.8916 35.4666C15.8916 34.3727 16.7552 33.509 17.8492 33.509C18.9431 33.509 19.8068 34.3727 19.8068 35.4666C19.8068 36.5605 18.9431 37.4242 17.8492 37.4242ZM17.8492 34.6605C17.3886 34.6605 17.0431 35.006 17.0431 35.4666C17.0431 35.9272 17.3886 36.2727 17.8492 36.2727C18.3098 36.2727 18.6552 35.9272 18.6552 35.4666C18.6552 35.006 18.3098 34.6605 17.8492 34.6605Z" fill="#00A1A5"/>
<path d="M32.0697 24.5273H29.0758C28.7303 24.5273 28.5 24.297 28.5 23.9515V13.8182C28.5 13.4727 28.7303 13.2424 29.0758 13.2424H32.0697C32.4152 13.2424 32.6455 13.4727 32.6455 13.8182V23.9515C32.6455 24.297 32.4152 24.5273 32.0697 24.5273ZM29.6515 23.3758H31.4939V14.3939H29.6515V23.3758Z" fill="#00A1A5"/>
<path d="M8.92517 24.5273H5.93123C5.58577 24.5273 5.35547 24.297 5.35547 23.9515V13.8182C5.35547 13.4727 5.58577 13.2424 5.93123 13.2424H8.92517C9.27062 13.2424 9.50092 13.4727 9.50092 13.8182V23.9515C9.50092 24.297 9.27062 24.5273 8.92517 24.5273ZM6.50698 23.3758H8.34941V14.3939H6.50698V23.3758Z" fill="#00A1A5"/>
<path d="M20.6125 26.7152C20.3246 26.7152 20.0943 26.4849 20.0367 26.197C19.9791 25.9091 20.2094 25.5636 20.4973 25.5636C20.7276 25.5061 21.0155 25.4485 21.3034 25.3333C21.4185 25.2758 21.5337 25.2758 21.7064 25.2182C25.3337 23.7788 27.061 19.7485 25.6216 16.0636C24.1822 12.4364 20.1519 10.6515 16.5246 12.0909C14.7397 12.7818 13.3579 14.1061 12.6094 15.8333C11.861 17.5606 11.861 19.4606 12.5519 21.2455C13.2428 23.0879 14.7973 24.5849 16.6973 25.3333C16.9852 25.4485 17.1579 25.7939 17.0428 26.0818C16.9276 26.3697 16.5822 26.5424 16.2943 26.4273C14.0488 25.5636 12.264 23.8364 11.4579 21.6485C10.6519 19.5758 10.7094 17.3303 11.5731 15.3727C12.4367 13.3576 14.0488 11.803 16.1216 10.997C20.3822 9.32728 25.0458 11.3424 26.7731 15.6606C28.4428 19.9212 26.4276 24.5849 22.1094 26.3121C21.9367 26.3697 21.8216 26.4273 21.7064 26.4273C21.361 26.5424 21.0155 26.6576 20.7276 26.6576C20.6701 26.7152 20.6125 26.7152 20.6125 26.7152Z" fill="#00A1A5"/>
<path d="M17.1584 29.9969C17.1008 29.9969 17.0433 29.9969 16.9857 29.9969C16.8129 29.9394 16.6402 29.7666 16.5826 29.5363L15.9493 25.9666C15.8917 25.6788 16.122 25.3333 16.4099 25.2757C16.6978 25.2182 17.0433 25.4485 17.1008 25.7363L17.5614 28.2697L20.2675 25.7363C20.4978 25.506 20.8432 25.506 21.0736 25.7363C21.3039 25.9666 21.3039 26.3121 21.0736 26.5424L17.619 29.8242C17.4463 29.9394 17.3311 29.9969 17.1584 29.9969Z" fill="#00A1A5"/>
</g>
<defs>
<clipPath id="clip0_4854_1098">
<rect width="38" height="38" fill="white"/>
</clipPath>
</defs>
</svg>
