<svg width="38" height="38" viewBox="0 0 38 38" fill="none" xmlns="http://www.w3.org/2000/svg">
<path fill-rule="evenodd" clip-rule="evenodd" d="M10.4103 37.9999H5.50195C5.17401 37.9999 4.9082 37.7341 4.9082 37.4062V31.8843C4.9082 31.5563 5.17401 31.2905 5.50195 31.2905H10.4103C10.7382 31.2905 11.004 31.5563 11.004 31.8843V37.4062C11.004 37.7341 10.7382 37.9999 10.4103 37.9999ZM6.0957 36.8124H9.81654V32.478H6.0957V36.8124Z" fill="#00A1A5"/>
<path fill-rule="evenodd" clip-rule="evenodd" d="M21.4542 37.9998H16.5459C16.218 37.9998 15.9521 37.734 15.9521 37.406V26.9758C15.9521 26.6479 16.218 26.3821 16.5459 26.3821H21.4542C21.7822 26.3821 22.048 26.6479 22.048 26.9758V37.406C22.048 37.734 21.7822 37.9998 21.4542 37.9998ZM17.1396 36.8123H20.8605V27.5696H17.1396V36.8123Z" fill="#00A1A5"/>
<path fill-rule="evenodd" clip-rule="evenodd" d="M32.4972 37.9999H27.5889C27.2609 37.9999 26.9951 37.7341 26.9951 37.4062V22.0676C26.9951 21.7397 27.2609 21.4739 27.5889 21.4739H32.4972C32.8251 21.4739 33.091 21.7397 33.091 22.0676V37.4062C33.091 37.7341 32.8251 37.9999 32.4972 37.9999ZM28.1826 36.8124H31.9035V22.6614H28.1826V36.8124Z" fill="#00A1A5"/>
<path fill-rule="evenodd" clip-rule="evenodd" d="M9.79675 29.4107H5.50195C5.17401 29.4107 4.9082 29.1449 4.9082 28.817C4.9082 28.489 5.17401 28.2232 5.50195 28.2232H9.52732L13.6447 23.5177C13.7575 23.3888 13.9203 23.3149 14.0916 23.3149H19.2801L22.8216 18.6417C22.9338 18.4936 23.109 18.4065 23.2948 18.4065H27.9572L32.6917 13.6722C32.9235 13.4403 33.2995 13.4403 33.5313 13.6722C33.7632 13.904 33.7632 14.28 33.5313 14.5118L28.623 19.4202C28.5117 19.5315 28.3606 19.5942 28.2031 19.5942H23.5898L20.0484 24.2673C19.9361 24.4154 19.761 24.5025 19.5752 24.5025H14.3611L10.2437 29.2079C10.1309 29.3368 9.96795 29.4107 9.79675 29.4107Z" fill="#00A1A5"/>
<path fill-rule="evenodd" clip-rule="evenodd" d="M33.1107 17.7533C32.7827 17.7533 32.5169 17.4875 32.5169 17.1595V14.6855H30.043C29.715 14.6855 29.4492 14.4197 29.4492 14.0918C29.4492 13.7639 29.715 13.498 30.043 13.498H33.1107C33.4386 13.498 33.7044 13.7639 33.7044 14.0918V17.1595C33.7044 17.4875 33.4386 17.7533 33.1107 17.7533Z" fill="#00A1A5"/>
<path fill-rule="evenodd" clip-rule="evenodd" d="M31.8842 12.2313C30.2506 12.2313 28.7149 11.5952 27.5598 10.44C26.4048 9.28485 25.7686 7.74918 25.7686 6.11562C25.7686 4.48207 26.4047 2.9463 27.5598 1.79125C28.715 0.636206 30.2506 0 31.8842 0C33.5177 0 35.0535 0.6361 36.2086 1.79125C37.3637 2.9464 37.9998 4.48207 37.9998 6.11562C37.9998 7.74918 37.3637 9.28495 36.2086 10.44C35.0535 11.5952 33.5177 12.2313 31.8842 12.2313ZM31.8842 1.1875C29.1668 1.1875 26.9561 3.39821 26.9561 6.11562C26.9561 8.83294 29.1668 11.0437 31.8842 11.0437C34.6016 11.0437 36.8123 8.83304 36.8123 6.11562C36.8123 3.39821 34.6016 1.1875 31.8842 1.1875Z" fill="#00A1A5"/>
<path fill-rule="evenodd" clip-rule="evenodd" d="M31.8841 9.77726C29.8652 9.77726 28.2227 8.13477 28.2227 6.1158C28.2227 4.09684 29.8652 2.45435 31.8841 2.45435C33.9031 2.45435 35.5456 4.09684 35.5456 6.1158C35.5456 8.13477 33.9031 9.77726 31.8841 9.77726ZM31.8841 3.64185C30.52 3.64185 29.4102 4.75167 29.4102 6.1158C29.4102 7.47994 30.52 8.58976 31.8841 8.58976C33.2483 8.58976 34.3581 7.47994 34.3581 6.1158C34.3581 4.75167 33.2483 3.64185 31.8841 3.64185Z" fill="#00A1A5"/>
<path fill-rule="evenodd" clip-rule="evenodd" d="M31.8839 6.70941C31.8646 6.70941 31.8448 6.70846 31.8255 6.70643C31.8062 6.70441 31.787 6.70175 31.7678 6.69782C31.749 6.69409 31.73 6.6892 31.7114 6.68345C31.6931 6.67803 31.6745 6.67132 31.6567 6.66387C31.6388 6.65642 31.6211 6.64834 31.6043 6.63919C31.5872 6.63004 31.5703 6.62014 31.5542 6.60929C31.5379 6.59865 31.5223 6.58705 31.5072 6.57492C31.4921 6.56257 31.4775 6.54938 31.4639 6.53555C31.4501 6.52193 31.437 6.50735 31.4245 6.49224C31.4124 6.47713 31.4008 6.46159 31.3902 6.44521C31.3793 6.42914 31.3694 6.41233 31.3603 6.3952C31.3511 6.37806 31.3429 6.36051 31.3356 6.34274C31.3281 6.32497 31.3215 6.30635 31.316 6.28804C31.3104 6.26942 31.3054 6.25038 31.3016 6.23165C31.2977 6.2126 31.2949 6.19334 31.293 6.17398C31.291 6.15472 31.29 6.13492 31.29 6.11556C31.29 6.0963 31.291 6.07651 31.293 6.05714C31.295 6.03788 31.2977 6.01862 31.3016 5.99947C31.3054 5.98063 31.3104 5.96159 31.316 5.94307C31.3214 5.92477 31.3281 5.90615 31.3356 5.88838C31.343 5.87061 31.3511 5.85305 31.3603 5.83592C31.3694 5.8189 31.3793 5.80198 31.3902 5.78591C31.4008 5.76984 31.4124 5.75399 31.4245 5.73888C31.4369 5.72377 31.45 5.70919 31.4639 5.69557C31.4775 5.68195 31.4921 5.66865 31.5072 5.6562C31.5223 5.64407 31.5379 5.63247 31.5542 5.62183C31.5703 5.61098 31.5871 5.60108 31.6043 5.59193C31.6211 5.58278 31.6388 5.57459 31.6567 5.56724C31.6745 5.5598 31.6931 5.5532 31.7114 5.54767C31.73 5.54192 31.749 5.53702 31.7678 5.5333C31.7869 5.52958 31.8062 5.5266 31.8255 5.52468C31.8643 5.52074 31.9034 5.52074 31.9423 5.52468C31.9616 5.5267 31.9809 5.52968 32 5.5333C32.0188 5.53702 32.0379 5.54192 32.0564 5.54767C32.0747 5.55309 32.0933 5.5598 32.1111 5.56724C32.1289 5.57469 32.1465 5.58278 32.1635 5.59193C32.1806 5.60108 32.1975 5.61098 32.2135 5.62183C32.2296 5.63247 32.2455 5.64407 32.2606 5.6562C32.2757 5.66854 32.2903 5.68195 32.3039 5.69557C32.3175 5.70919 32.3308 5.72377 32.3433 5.73888C32.3554 5.75399 32.367 5.76974 32.3776 5.78591C32.3885 5.80198 32.3984 5.81879 32.4075 5.83592C32.4165 5.85295 32.4249 5.8705 32.4322 5.88838C32.4397 5.90615 32.4463 5.92477 32.4518 5.94307C32.4574 5.96169 32.4624 5.98063 32.4662 5.99947C32.4699 6.01852 32.4729 6.03788 32.4748 6.05714C32.4768 6.0764 32.4778 6.09619 32.4778 6.11556C32.4778 6.13492 32.4768 6.15461 32.4748 6.17398C32.4727 6.19324 32.4698 6.2126 32.4662 6.23165C32.4624 6.25048 32.4574 6.26953 32.4518 6.28804C32.4464 6.30635 32.4397 6.32486 32.4322 6.34274C32.4248 6.36051 32.4164 6.37806 32.4075 6.3952C32.3984 6.41222 32.3885 6.42914 32.3776 6.44521C32.367 6.46149 32.3554 6.47713 32.3433 6.49224C32.3309 6.50735 32.3175 6.52193 32.3039 6.53555C32.2903 6.54938 32.2757 6.56247 32.2606 6.57492C32.2455 6.58705 32.2296 6.59865 32.2135 6.60929C32.1975 6.62014 32.1807 6.63004 32.1635 6.63919C32.1465 6.64834 32.1289 6.65653 32.1111 6.66387C32.0933 6.67132 32.0747 6.67792 32.0564 6.68345C32.0378 6.6892 32.0188 6.69409 32 6.69782C31.9809 6.70175 31.9617 6.70452 31.9423 6.70643C31.9229 6.70846 31.9032 6.70941 31.8839 6.70941Z" fill="#00A1A5"/>
<path fill-rule="evenodd" clip-rule="evenodd" d="M37.4062 38.0002H0.59375C0.265804 38.0002 0 37.7344 0 37.4065C0 37.0785 0.265804 36.8127 0.59375 36.8127H37.4062C37.7342 36.8127 38 37.0785 38 37.4065C38 37.7344 37.7342 38.0002 37.4062 38.0002Z" fill="#00A1A5"/>
</svg>
