<svg width="33" height="33" viewBox="0 0 33 33" fill="none" xmlns="http://www.w3.org/2000/svg">
<path d="M31.0609 12.504L18.6189 2.78965C17.3969 1.83574 15.6077 1.83574 14.3856 2.78965L10.2194 6.04324C9.9925 6.21855 9.95641 6.5434 10.1317 6.76512C10.307 6.99199 10.6319 7.02809 10.8536 6.85277L15.0198 3.59918C15.8758 2.93402 17.1288 2.93402 17.9847 3.59918L30.4267 13.2981L29.4573 14.9532L16.8194 5.19762C16.6337 5.05324 16.3759 5.05324 16.1903 5.19762L3.56781 14.9584L2.57781 13.3187L9.22422 8.12637C9.45109 7.95105 9.48719 7.62621 9.31188 7.40449C9.13656 7.17762 8.81172 7.14152 8.59 7.31684L1.94359 12.504C1.53625 12.8186 1.42797 13.3857 1.69094 13.8343L2.68094 15.4843C2.83047 15.737 3.07797 15.9123 3.36156 15.969C3.64516 16.0257 3.94422 15.9587 4.18141 15.7782L16.4997 6.2598L28.8283 15.7731C29.0088 15.9071 29.2253 15.9793 29.447 15.9793C29.5141 15.9793 29.5759 15.9742 29.643 15.9587C29.9266 15.902 30.1741 15.7267 30.3184 15.4792L31.3084 13.824C31.5714 13.3806 31.4631 12.8082 31.0609 12.4989V12.504Z" fill="#00A1A5"/>
<path d="M28.3594 27.8438H27.8438V16.5723C27.8438 16.2887 27.6117 16.0566 27.3281 16.0566C27.0445 16.0566 26.8125 16.2887 26.8125 16.5723V27.8438H6.1875V16.5723C6.1875 16.2887 5.95547 16.0566 5.67188 16.0566C5.38828 16.0566 5.15625 16.2887 5.15625 16.5723V27.8438H4.64062C4.07344 27.8438 3.60938 28.3079 3.60938 28.8751V29.9063C3.60938 30.4735 4.07344 30.9376 4.64062 30.9376H22.1719C22.4555 30.9376 22.6875 30.7055 22.6875 30.422C22.6875 30.1384 22.4555 29.9063 22.1719 29.9063H4.64062V28.8751H28.3594V29.9063H24.2344C23.9508 29.9063 23.7188 30.1384 23.7188 30.422C23.7188 30.7055 23.9508 30.9376 24.2344 30.9376H28.3594C28.9266 30.9376 29.3906 30.4735 29.3906 29.9063V28.8751C29.3906 28.3079 28.9266 27.8438 28.3594 27.8438Z" fill="#00A1A5"/>
<path d="M23.2031 4.92422C23.4867 4.92422 23.7188 4.69219 23.7188 4.40859V3.09375H26.8125V7.62609C26.8125 7.90969 27.0445 8.14172 27.3281 8.14172C27.6117 8.14172 27.8438 7.90969 27.8438 7.62609V3.09375C27.8438 2.52656 27.3797 2.0625 26.8125 2.0625H23.7188C23.1516 2.0625 22.6875 2.52656 22.6875 3.09375V4.40859C22.6875 4.69219 22.9195 4.92422 23.2031 4.92422Z" fill="#00A1A5"/>
<path d="M19.5938 14.4375V13.4062C19.5938 11.6995 18.2067 10.3125 16.5 10.3125C14.7933 10.3125 13.4062 11.6995 13.4062 13.4062V14.4375C13.4062 16.1442 14.7933 17.5312 16.5 17.5312C18.2067 17.5312 19.5938 16.1442 19.5938 14.4375ZM14.4375 14.4375V13.4062C14.4375 12.2667 15.3605 11.3438 16.5 11.3438C17.6395 11.3438 18.5625 12.2667 18.5625 13.4062V14.4375C18.5625 15.577 17.6395 16.5 16.5 16.5C15.3605 16.5 14.4375 15.577 14.4375 14.4375Z" fill="#00A1A5"/>
<path d="M9.79688 22.6875V26.2969C9.79688 26.5805 10.0289 26.8125 10.3125 26.8125C10.5961 26.8125 10.8281 26.5805 10.8281 26.2969V22.6875C10.8281 20.6972 12.4472 19.0781 14.4375 19.0781H15.0614L14.4427 24.1725C14.4272 24.3066 14.4633 24.4355 14.5406 24.5437L16.0875 26.6062C16.1855 26.7352 16.335 26.8125 16.5 26.8125C16.665 26.8125 16.8145 26.7352 16.9125 26.6062L18.4594 24.5437C18.5367 24.4355 18.5728 24.3066 18.5573 24.1725L17.9386 19.0781H18.5625C20.5528 19.0781 22.1719 20.6972 22.1719 22.6875V26.2969C22.1719 26.5805 22.4039 26.8125 22.6875 26.8125C22.9711 26.8125 23.2031 26.5805 23.2031 26.2969V22.6875C23.2031 20.13 21.12 18.0469 18.5625 18.0469H14.4375C11.88 18.0469 9.79688 20.13 9.79688 22.6875ZM16.9022 19.0781L17.5106 24.09L16.5 25.4358L15.4894 24.09L16.0978 19.0781H16.9022Z" fill="#00A1A5"/>
</svg>
