<svg width="41" height="41" viewBox="0 0 41 41" fill="none" xmlns="http://www.w3.org/2000/svg">
<path d="M8.32688 1.28027C7.27326 1.28027 6.40625 2.14729 6.40625 3.20092V23.7009C6.40625 24.5559 7.68875 24.5559 7.68875 23.7009V7.68906H33.31V23.7009C33.2906 24.5745 34.6109 24.5745 34.5912 23.7009V3.20092C34.5912 2.14729 33.7255 1.28027 32.6719 1.28027H8.32688ZM8.32688 2.5628H32.6719C33.0379 2.5628 33.31 2.83492 33.31 3.20092V6.40653H7.68875V3.20092C7.68875 2.83492 7.9609 2.5628 8.32688 2.5628ZM9.60937 3.84281C9.25556 3.84281 8.96875 4.12965 8.96875 4.48345C8.96875 4.83727 9.25556 5.12401 9.60937 5.12401C9.96317 5.12401 10.25 4.83727 10.25 4.48345C10.25 4.12965 9.96317 3.84281 9.60937 3.84281ZM12.1719 3.84281C11.8181 3.84281 11.5312 4.12965 11.5312 4.48345C11.5312 4.83727 11.8181 5.12401 12.1719 5.12401C12.5257 5.12401 12.8125 4.83727 12.8125 4.48345C12.8125 4.12965 12.5257 3.84281 12.1719 3.84281ZM14.7344 3.84281C14.3806 3.84281 14.0938 4.12965 14.0938 4.48345C14.0938 4.83727 14.3806 5.12401 14.7344 5.12401C15.0882 5.12401 15.375 4.83727 15.375 4.48345C15.375 4.12965 15.0882 3.84281 14.7344 3.84281ZM23.6706 3.84407C22.8056 3.90291 22.8647 5.14652 23.7006 5.12534H31.3906C32.2261 5.10597 32.2261 3.86259 31.3906 3.84407H23.6706ZM3.20563 5.12534C2.15199 5.12534 1.28125 5.9911 1.28125 7.04473V30.1084C1.28125 31.1621 2.15199 32.029 3.20563 32.029H37.7981C38.8518 32.029 39.7187 31.1621 39.7187 30.1084V7.04466C39.7187 5.99102 38.8518 5.12526 37.7981 5.12526H36.5169C35.6436 5.10589 35.6436 6.4259 36.5169 6.40653H37.7981C38.1641 6.40653 38.4362 6.67866 38.4362 7.04466V25.6253H2.5625V7.04466C2.5625 6.67866 2.83965 6.40653 3.20563 6.40653H4.48187C5.3552 6.4259 5.3552 5.10589 4.48187 5.12526L3.20563 5.12534ZM22.4294 10.239C22.1478 10.2371 21.898 10.4195 21.8138 10.6883L17.9688 22.2182C17.6977 23.0291 18.9139 23.4357 19.185 22.6249L23.03 11.0911C23.175 10.6763 22.8688 10.2419 22.4294 10.239ZM25.2146 13.9427L28.4678 16.6565L25.2146 19.3667C24.5195 19.9109 25.3778 20.9377 26.0367 20.3502L29.8766 17.1483C30.1833 16.8922 30.1833 16.421 29.8766 16.1649L26.0367 12.958C25.9219 12.8597 25.7761 12.8052 25.5925 12.8054C24.9869 12.8584 24.7674 13.5807 25.2146 13.9427ZM15.3587 12.8066C15.2145 12.8114 15.076 12.8647 14.9659 12.9579L11.1221 16.1648C10.8155 16.4209 10.8155 16.8921 11.1221 17.1482L14.9659 20.3501C15.6269 20.9658 16.5098 19.9047 15.7841 19.3666L12.531 16.6565L15.7841 13.9426C16.2575 13.555 15.9702 12.788 15.3587 12.8066ZM2.5625 26.9078H38.4362V30.1084C38.4362 30.4744 38.1641 30.7465 37.7981 30.7465H3.20563C2.83965 30.7465 2.5625 30.4744 2.5625 30.1084V26.9078ZM21.8163 28.1878L19.1875 28.1891C18.3709 28.2867 18.4257 29.4435 19.2175 29.4653H21.7812C22.661 29.543 22.7343 28.2055 21.8163 28.1878ZM16.9065 33.2602C16.6494 33.2554 16.4139 33.4035 16.3084 33.6381C15.9999 34.2998 15.4472 35.0724 14.4929 35.8728H13.4531C12.3995 35.8728 11.5338 36.7448 11.5338 37.7985V39.0747C11.5325 39.4285 11.8181 39.7164 12.1719 39.7178H28.8269C29.1826 39.7191 29.4714 39.4305 29.47 39.0747V37.7985C29.47 36.7448 28.5993 35.8728 27.5456 35.8728H26.5071C25.5529 35.0725 25.0001 34.2997 24.6916 33.6381C24.5831 33.3974 24.3383 33.248 24.0747 33.2615C23.6171 33.2857 23.3312 33.7672 23.5305 34.1799C23.7802 34.7156 24.1615 35.2901 24.6753 35.8728H16.3247C16.8384 35.2901 17.2198 34.7156 17.4695 34.1799C17.6729 33.7598 17.3732 33.2702 16.9065 33.2602ZM13.4531 37.1553H27.5456C27.9116 37.1553 28.1887 37.4325 28.1887 37.7985V38.4366H12.815V37.7985C12.815 37.4325 13.0871 37.1553 13.4531 37.1553Z" fill="white"/>
</svg>
