<svg width="78" height="78" viewBox="0 0 78 78" fill="none" xmlns="http://www.w3.org/2000/svg">
<g clip-path="url(#clip0_4490_1509)">
<path d="M66.4868 20.3295C66.2392 20.3295 66.0322 20.5414 66.0322 20.7937C66.0322 20.8412 66.0417 20.8936 66.0441 20.9055C66.3559 22.5217 66.5058 24.1047 66.5058 25.7377C66.5058 27.2658 66.3654 28.8083 66.0893 30.327L65.9608 31.0412L65.5418 33.3192H63.228H47.2415C46.7607 33.3192 46.3727 33.712 46.3727 34.1927L46.3703 56.861C46.3703 57.3396 46.7606 57.7323 47.2368 57.7323H74.354C74.8325 57.7323 75.2205 57.3396 75.2205 56.8635L75.2158 38.1299C75.1968 36.2518 74.504 32.8217 71.3167 27.1421C69.5457 23.9857 67.4987 21.1127 67.0368 20.6556C66.7106 20.3915 66.6035 20.3415 66.5941 20.3366C66.5939 20.3366 66.5654 20.3295 66.4868 20.3295ZM66.4868 17.5516C67.4461 17.5516 68.0364 17.885 68.7934 18.5013C69.5076 19.0821 71.8737 22.4576 73.7399 25.7805C76.5296 30.7531 77.9627 34.8973 77.9936 38.1013L78.0006 56.861C78.0006 58.8724 76.3654 60.5101 74.3538 60.5101H47.2367C45.2275 60.5101 43.5898 58.8724 43.5898 56.861L43.5946 34.1927C43.5946 32.1789 45.2298 30.5412 47.2414 30.5412H63.228L63.3566 29.827C63.6017 28.4797 63.728 27.1039 63.728 25.7375C63.728 24.2759 63.59 22.8668 63.3138 21.4291C63.2663 21.1316 63.2519 20.9602 63.2519 20.7911C63.2519 19.0036 64.7039 17.5516 66.4868 17.5516Z" fill="url(#paint0_linear_4490_1509)"/>
<path d="M22.8944 20.2677C22.6468 20.2677 22.4373 20.4796 22.4373 20.7247C22.4421 20.7722 22.4517 20.8295 22.4517 20.8437C22.7611 22.4527 22.9134 24.0335 22.9134 25.6759C22.9134 27.2112 22.7754 28.7537 22.4992 30.2581L22.3706 30.9745L21.9564 33.2573H19.6356H3.64909C3.17058 33.2573 2.78027 33.65 2.78027 34.1285V56.8017C2.78027 57.2778 3.16829 57.6682 3.6468 57.6682H30.764C31.2401 57.6682 31.6305 57.2779 31.6305 56.8017L31.6211 38.0634C31.6045 36.1877 30.914 32.76 27.7244 27.078C25.9534 23.9241 23.9064 21.0486 23.4469 20.5915C23.1208 20.3274 23.0161 20.2797 23.0042 20.275C23.0039 20.2748 22.9753 20.2677 22.8944 20.2677ZM22.8944 17.4898C23.856 17.4898 24.4464 17.8232 25.1986 18.4373C25.9128 19.0157 28.2788 22.391 30.1473 25.7188C32.9395 30.6938 34.3701 34.838 34.401 38.0372L34.4105 56.8017C34.4105 58.8108 32.7728 60.446 30.7637 60.446H3.6465C1.63526 60.4459 0 58.8106 0 56.8017L0.0024375 34.1287C0.0024375 32.1196 1.6377 30.4796 3.64924 30.4796H19.6359L19.7668 29.7631C20.0096 28.4182 20.1333 27.0424 20.1333 25.676C20.1333 24.2122 20 22.803 19.7238 21.3676C19.6738 21.0701 19.6595 20.8962 19.6595 20.7296C19.6595 18.9443 21.1115 17.4898 22.8944 17.4898Z" fill="url(#paint1_linear_4490_1509)"/>
</g>
<defs>
<linearGradient id="paint0_linear_4490_1509" x1="43.5898" y1="39.0309" x2="78.0006" y2="39.0309" gradientUnits="userSpaceOnUse">
<stop stop-color="#075B65"/>
<stop offset="0.370192" stop-color="#00838A"/>
<stop offset="0.8125" stop-color="#328A99"/>
</linearGradient>
<linearGradient id="paint1_linear_4490_1509" x1="0" y1="38.9679" x2="34.4105" y2="38.9679" gradientUnits="userSpaceOnUse">
<stop stop-color="#075B65"/>
<stop offset="0.370192" stop-color="#00838A"/>
<stop offset="0.8125" stop-color="#328A99"/>
</linearGradient>
<clipPath id="clip0_4490_1509">
<rect width="78" height="78" fill="white" transform="matrix(1 0 0 -1 0 78)"/>
</clipPath>
</defs>
</svg>
