<svg width="31" height="31" viewBox="0 0 31 31" fill="none" xmlns="http://www.w3.org/2000/svg">
<path d="M23.4392 5.13971C23.0773 5.13971 22.718 5.17664 22.3667 5.24985C21.4177 2.28462 18.6435 0.243164 15.4996 0.243164C12.3558 0.243164 9.58152 2.28462 8.63257 5.24985C8.28122 5.17671 7.92193 5.13971 7.56004 5.13971C4.66275 5.13971 2.30566 7.4968 2.30566 10.3941C2.30566 13.2914 4.66281 15.6485 7.56004 15.6485H12.957V17.4103C12.957 17.6108 13.1195 17.7733 13.3199 17.7733C13.5204 17.7733 13.6829 17.6108 13.6829 17.4103V15.6485H15.1366V17.4103C15.1366 17.6108 15.2991 17.7733 15.4996 17.7733C15.7001 17.7733 15.8626 17.6108 15.8626 17.4103V15.6485H17.3163V17.4103C17.3163 17.6108 17.4788 17.7733 17.6793 17.7733C17.8798 17.7733 18.0423 17.6108 18.0423 17.4103V15.6485H23.4392C26.3365 15.6485 28.6936 13.2914 28.6936 10.3941C28.6936 7.4968 26.3364 5.13971 23.4392 5.13971ZM23.4392 14.9226H18.0423V12.2471L19.5322 10.7571H21.462C21.6334 11.6931 22.4545 12.4048 23.4392 12.4048C24.547 12.4048 25.4481 11.5028 25.4481 10.3942C25.4481 9.28548 24.547 8.38527 23.4392 8.38527C22.4546 8.38527 21.6336 9.09621 21.462 10.0312H19.3819C19.2856 10.0312 19.1933 10.0694 19.1252 10.1375L17.4226 11.8401C17.3546 11.9082 17.3163 12.0005 17.3163 12.0967V14.9226H15.8626V9.42958C16.7976 9.25817 17.5086 8.43788 17.5086 7.45418C17.5086 6.3455 16.6074 5.44354 15.4996 5.44354C14.3919 5.44354 13.4907 6.3455 13.4907 7.45418C13.4907 8.43788 14.2017 9.25817 15.1366 9.42958V14.9226H13.6829V12.0967C13.6829 12.0005 13.6447 11.9082 13.5767 11.8402L11.8759 10.1376C11.8078 10.0695 11.7154 10.0312 11.6191 10.0312H9.5372C9.36561 9.09621 8.54466 8.38527 7.56004 8.38527C6.45234 8.38527 5.55116 9.28645 5.55116 10.3942C5.55116 11.5019 6.45234 12.4048 7.56004 12.4048C8.54478 12.4048 9.36579 11.6931 9.53726 10.7571H11.4686L12.957 12.2469V14.9226H7.56004C5.06309 14.9226 3.03162 12.8911 3.03162 10.3942C3.03162 7.8972 5.06309 5.86573 7.56004 5.86573C7.97618 5.86573 8.38832 5.9224 8.78491 6.03411C8.87821 6.06033 8.97854 6.04822 9.063 6.00008C9.14746 5.95201 9.20904 5.87203 9.23404 5.77812C9.98846 2.94664 12.5649 0.969121 15.4996 0.969121C18.4342 0.969121 21.0107 2.94664 21.7651 5.77812C21.7901 5.87203 21.8517 5.95195 21.9361 6.00008C22.0205 6.04822 22.1208 6.06033 22.2142 6.03411C22.6108 5.9224 23.0229 5.86573 23.4391 5.86573C25.936 5.86573 27.9675 7.8972 27.9675 10.3942C27.9675 12.8911 25.936 14.9226 23.4391 14.9226H23.4392ZM22.1545 10.3942C22.1545 9.68672 22.7309 9.11122 23.4392 9.11122C24.1475 9.11122 24.7221 9.68672 24.7221 10.3942C24.7221 11.1016 24.1466 11.6788 23.4392 11.6788C22.7318 11.6788 22.1545 11.1025 22.1545 10.3942ZM15.4996 8.7371C14.7922 8.7371 14.2167 8.16161 14.2167 7.45418C14.2167 6.74675 14.7922 6.16949 15.4996 6.16949C16.207 6.16949 16.7825 6.74584 16.7825 7.45418C16.7825 8.16251 16.207 8.7371 15.4996 8.7371ZM8.84473 10.3942C8.84473 11.1025 8.26838 11.6788 7.56004 11.6788C6.85171 11.6788 6.27718 11.1025 6.27718 10.3942C6.27718 9.68581 6.85267 9.11122 7.56004 9.11122C8.26741 9.11122 8.84473 9.68672 8.84473 10.3942ZM26.7259 18.8048H21.2011C21.0006 18.8048 20.8382 18.9673 20.8382 19.1678C20.8382 22.1115 18.4433 24.5064 15.4996 24.5064C12.5559 24.5064 10.1611 22.1115 10.1611 19.1678C10.1611 18.9673 9.99857 18.8048 9.7981 18.8048H4.27338C4.07285 18.8048 3.9104 18.9673 3.9104 19.1678V20.4413C3.9104 21.0103 4.27986 21.492 4.82974 21.6397L6.23128 22.0161C6.41226 22.6051 6.64754 23.1731 6.93272 23.7093L6.20785 24.9649C5.92165 25.4574 6.00048 26.0594 6.40402 26.463L8.20535 28.2626C8.6066 28.6663 9.20777 28.7464 9.70153 28.4618L10.9587 27.7362C11.503 28.0241 12.0713 28.2591 12.6529 28.4366L13.0278 29.8399C13.1759 30.3885 13.6574 30.757 14.2261 30.757H16.773C17.3418 30.757 17.8233 30.3885 17.9715 29.8393L18.3479 28.4361C18.9355 28.2556 19.5033 28.0209 20.0407 27.7362L21.2978 28.4619C21.7906 28.7458 22.3922 28.6661 22.7948 28.2633L24.5951 26.463C24.9988 26.0594 25.0776 25.4574 24.792 24.9661L24.0679 23.7091C24.3525 23.1717 24.5873 22.6038 24.768 22.0161L26.1717 21.6396C26.7203 21.4915 27.0888 21.01 27.0888 20.4413V19.1678C27.0888 18.9673 26.9263 18.8048 26.7259 18.8048ZM26.3629 20.4413C26.3629 20.6811 26.2136 20.8763 25.9831 20.9385L24.3835 21.3676C24.2602 21.4007 24.1633 21.4961 24.1284 21.6189C23.9374 22.2907 23.6705 22.9362 23.335 23.5374C23.2728 23.6488 23.2737 23.7848 23.3374 23.8954L24.1636 25.3297C24.2838 25.5364 24.2517 25.7797 24.0818 25.9496L22.2814 27.75C22.1114 27.9199 21.8676 27.9523 21.6606 27.833L20.2275 27.0057C20.1168 26.9418 19.9807 26.9408 19.8692 27.0031C19.2679 27.3386 18.6224 27.6055 17.9507 27.7965C17.8279 27.8314 17.7325 27.9282 17.6993 28.0516L17.2704 29.6507C17.2081 29.8816 17.0129 30.031 16.773 30.031H14.2261C13.9863 30.031 13.791 29.8816 13.7289 29.6515L13.3015 28.0519C13.2684 27.928 13.1725 27.8309 13.049 27.7962C12.3868 27.61 11.7409 27.3431 11.1296 27.0029C11.0747 26.9723 11.0139 26.9571 10.9531 26.9571C10.8904 26.9571 10.8278 26.9733 10.7716 27.0057L9.33873 27.8329C9.13148 27.9524 8.88862 27.9201 8.71921 27.7497L6.91734 25.9496C6.74744 25.7797 6.71535 25.5364 6.83602 25.3288L7.66328 23.8957C7.72733 23.7848 7.72812 23.6485 7.66552 23.5368C7.32966 22.9377 7.06223 22.2925 6.87078 21.619C6.8359 21.4962 6.73903 21.4008 6.61575 21.3677L5.01792 20.9386C4.78609 20.8763 4.63623 20.6812 4.63623 20.4414V19.5309H9.44571C9.63408 22.7065 12.2774 25.2324 15.4995 25.2324C18.7216 25.2324 21.3649 22.7065 21.5533 19.5309H26.3628V20.4414L26.3629 20.4413ZM15.4996 23.2414C17.7458 23.2414 19.5732 21.414 19.5732 19.1678C19.5732 18.9673 19.4107 18.8048 19.2102 18.8048H11.789C11.5885 18.8048 11.426 18.9673 11.426 19.1678C11.426 21.414 13.2534 23.2414 15.4996 23.2414ZM18.8277 19.5308C18.6463 21.2067 17.223 22.5155 15.4996 22.5155C13.7763 22.5155 12.3529 21.2067 12.1715 19.5308H18.8277Z" fill="#00A1A5"/>
</svg>
