<svg width="32" height="32" viewBox="0 0 32 32" fill="none" xmlns="http://www.w3.org/2000/svg">
<path d="M25.175 28.0834C25.175 26.5191 25.76 24.8323 26.8151 23.6774L29.5215 20.7152C30.5767 19.5604 31.1617 18.0526 31.1617 16.4883V4.91806C31.1617 4.05471 30.4566 3.35703 29.5932 3.3663C28.7413 3.37619 28.0582 4.06936 28.0582 4.91806V11.9454C28.0582 12.9565 27.7814 13.9422 27.2668 14.8043C27.5647 14.2519 27.4741 13.5567 26.9999 13.0943C26.4196 12.5289 25.4726 12.5197 24.8833 13.0943C24.8757 13.1021 20.2208 17.8888 20.2138 17.896C18.477 19.6917 17.6299 22.0685 17.6299 24.5426V28.0833" stroke="#00A1A5" stroke-miterlimit="10" stroke-linecap="round" stroke-linejoin="round"/>
<path d="M22.6692 20.456C22.5493 20.456 22.4289 20.4126 22.3338 20.3247C22.1332 20.1394 22.1207 19.8266 22.3061 19.6259L26.1979 15.4119C26.3995 15.1935 26.5842 14.9551 26.7473 14.7029C26.756 14.6877 26.7656 14.6729 26.776 14.6584C26.776 14.6584 26.7761 14.6582 26.7763 14.6581C26.9231 14.4411 27.2149 14.3759 27.4408 14.5119C27.6707 14.6504 27.7482 14.9471 27.6154 15.1803C27.609 15.1917 27.6026 15.2018 27.5967 15.2107C27.3985 15.5211 27.1723 15.8145 26.9246 16.0829L23.0327 20.297C22.9352 20.4025 22.8024 20.456 22.6692 20.456Z" fill="#00A1A5"/>
<path d="M27.4523 31.1342H15.8305C15.5574 31.1342 15.3359 30.9127 15.3359 30.6396C15.3359 30.3665 15.5574 30.1451 15.8305 30.1451H26.9578V29.3799C26.9578 28.977 26.6297 28.6615 26.211 28.6615H17.0718C16.7156 28.6615 16.4155 28.9018 16.3419 29.2458C16.2847 29.5129 16.022 29.6829 15.7549 29.626C15.4878 29.5689 15.3176 29.306 15.3747 29.039C15.544 28.2471 16.2578 27.6724 17.0718 27.6724H26.211C27.1844 27.6724 27.9468 28.4224 27.9468 29.3799V30.6396C27.9468 30.9127 27.7254 31.1342 27.4523 31.1342Z" fill="#00A1A5"/>
<path d="M14.0875 28.0834V24.5426C14.0875 22.0685 13.1167 19.6918 11.38 17.8961C11.373 17.8888 6.78604 13.1022 6.77838 13.0943C6.18907 12.5197 5.24201 12.529 4.66179 13.0943C4.18758 13.5567 4.09695 14.2519 4.39492 14.8044C3.88034 13.9422 3.60352 12.9565 3.60352 11.9454V4.91806C3.60352 4.06936 2.92037 3.37619 2.06851 3.3663C1.2051 3.35703 0.5 4.05471 0.5 4.91806V16.4883C0.5 18.0526 1.08505 19.5603 2.14016 20.7152L4.8465 23.6774C5.90161 24.8323 6.48666 26.5191 6.48666 28.0834" stroke="#00A1A5" stroke-miterlimit="10" stroke-linecap="round" stroke-linejoin="round"/>
<path d="M8.99241 20.4559C8.85925 20.4559 8.72647 20.4024 8.62898 20.2969L4.73715 16.0829C4.48926 15.8144 4.26319 15.5209 4.06488 15.2105C4.05901 15.2015 4.05276 15.1915 4.04633 15.1802C3.91349 14.947 3.99095 14.6504 4.22091 14.5119C4.44661 14.3759 4.73857 14.4411 4.88545 14.6581C4.88552 14.6581 4.88564 14.6583 4.8857 14.6584C4.89615 14.6728 4.90573 14.6877 4.91439 14.7028C5.07746 14.955 5.26217 15.1935 5.46389 15.4119L9.35565 19.6258C9.54098 19.8265 9.52849 20.1394 9.32789 20.3247C9.23276 20.4125 9.1124 20.4559 8.99241 20.4559Z" fill="#00A1A5"/>
<path d="M15.8868 31.0608H4.20939C3.93628 31.0608 3.71484 30.8393 3.71484 30.5662V29.3248C3.71484 28.3676 4.49363 27.5889 5.45082 27.5889H14.6454C15.6026 27.5889 16.3814 28.3676 16.3814 29.3248V30.5662C16.3814 30.8393 16.16 31.0608 15.8868 31.0608ZM4.70393 30.0717H15.3923V29.3248C15.3923 28.913 15.0572 28.578 14.6454 28.578H5.45082C5.03899 28.578 4.70393 28.913 4.70393 29.3248V30.0717Z" fill="#00A1A5"/>
<path d="M16.3649 13.0618C16.259 13.0618 16.1532 13.0279 16.0646 12.9601C15.9008 12.8349 15.7478 12.7014 15.6096 12.5633L10.7418 7.6955C10.6035 7.55709 10.4699 7.40403 10.3449 7.2404C8.98024 5.45447 9.15086 2.90799 10.7418 1.31704C12.2456 -0.186748 14.603 -0.421596 16.3649 0.709554C18.127 -0.421596 20.4843 -0.186686 21.9881 1.31704C23.579 2.90799 23.7497 5.45453 22.385 7.24046C22.26 7.40409 22.1264 7.55722 21.9881 7.6955L17.1203 12.5633C16.9821 12.7015 16.8289 12.835 16.6652 12.9601C16.5765 13.0279 16.4708 13.0618 16.3649 13.0618ZM13.9344 0.988044C13.0263 0.988044 12.1218 1.33571 11.4412 2.01633C10.1992 3.25832 10.0657 5.24602 11.1308 6.63983C11.2293 6.76872 11.3337 6.88859 11.4412 6.99609L16.3089 11.8638C16.3272 11.8821 16.3459 11.9003 16.3648 11.9184C16.3838 11.9003 16.4024 11.8821 16.4207 11.8638L21.2885 6.99609C21.3959 6.88865 21.5004 6.76879 21.5989 6.6399C22.6639 5.24608 22.5305 3.25838 21.2885 2.01639C20.0466 0.774463 18.0587 0.640997 16.665 1.70606C16.4878 1.84144 16.2417 1.84151 16.0645 1.70606C15.4347 1.22468 14.6833 0.988044 13.9344 0.988044Z" fill="#00A1A5"/>
<path d="M15.7918 8.58803C15.7806 8.58803 15.7695 8.58766 15.7583 8.58692C15.597 8.57604 15.4511 8.4869 15.3678 8.3483L14.0505 6.15722L13.3357 7.23681C13.2441 7.3751 13.0892 7.4583 12.9233 7.4583H8.90763C8.63452 7.4583 8.41309 7.23687 8.41309 6.96376C8.41309 6.69065 8.63452 6.46921 8.90763 6.46921H12.6577L13.6584 4.95794C13.7521 4.81644 13.9104 4.73113 14.0816 4.73657C14.2513 4.74028 14.4072 4.83072 14.4946 4.97618L15.8501 7.23063L17.7008 4.92438C17.7889 4.81459 17.9195 4.74758 18.0601 4.74004C18.1993 4.73317 18.3377 4.78529 18.437 4.88512L20.013 6.46928H23.2495C23.5226 6.46928 23.744 6.69071 23.744 6.96382C23.744 7.23693 23.5226 7.45837 23.2495 7.45837H19.8074C19.6758 7.45837 19.5496 7.40588 19.4568 7.3126L18.126 5.97485L16.1775 8.40301C16.0832 8.52046 15.9411 8.58803 15.7918 8.58803Z" fill="#00A1A5"/>
</svg>
