<svg width="41" height="41" viewBox="0 0 41 41" fill="none" xmlns="http://www.w3.org/2000/svg">
<path d="M40.3994 29.9092H38.7178V13.6934C38.7169 13.1096 38.4846 12.5499 38.0718 12.1371C37.659 11.7243 37.0994 11.4921 36.5156 11.4912H33.1123V8.08789C33.1115 7.5041 32.8792 6.94447 32.4664 6.53167C32.0536 6.11887 31.4939 5.88659 30.9102 5.88574H10.0898C9.50606 5.88659 8.94643 6.11887 8.53363 6.53167C8.12083 6.94447 7.88854 7.5041 7.8877 8.08789V11.4912H4.48438C3.90059 11.4921 3.34096 11.7243 2.92816 12.1371C2.51536 12.5499 2.28307 13.1096 2.28223 13.6934V29.9092H0.600586C0.441301 29.9092 0.288539 29.9725 0.175908 30.0851C0.0632758 30.1977 0 30.3505 0 30.5098L0 32.9121C0.000847296 33.4959 0.233131 34.0555 0.64593 34.4683C1.05873 34.8811 1.61836 35.1134 2.20215 35.1143H38.7979C39.3816 35.1134 39.9413 34.8811 40.3541 34.4683C40.7669 34.0555 40.9992 33.4959 41 32.9121V30.5098C41 30.3505 40.9367 30.1977 40.8241 30.0851C40.7115 29.9725 40.5587 29.9092 40.3994 29.9092ZM36.5156 12.6924C36.781 12.6928 37.0353 12.7984 37.223 12.986C37.4106 13.1737 37.5162 13.428 37.5166 13.6934V29.9092H33.1123V12.6924H36.5156ZM9.08887 8.08789C9.08929 7.82255 9.19489 7.56819 9.38251 7.38056C9.57014 7.19293 9.8245 7.08734 10.0898 7.08691H30.9102C31.1755 7.08734 31.4299 7.19293 31.6175 7.38056C31.8051 7.56819 31.9107 7.82255 31.9111 8.08789V29.9092H9.08887V8.08789ZM3.4834 13.6934C3.48382 13.428 3.58942 13.1737 3.77705 12.986C3.96467 12.7984 4.21903 12.6928 4.48438 12.6924H7.8877V29.9092H3.4834V13.6934ZM39.7988 32.9121C39.7984 33.1775 39.6928 33.4318 39.5052 33.6194C39.3176 33.8071 39.0632 33.9127 38.7979 33.9131H2.20215C1.9368 33.9127 1.68245 33.8071 1.49482 33.6194C1.30719 33.4318 1.2016 33.1775 1.20117 32.9121V31.1104H39.7988V32.9121Z" fill="#020202"/>
<path d="M24.2768 20.2183C25.3042 19.4311 26.0598 18.3424 26.4377 17.1045C26.8156 15.8667 26.797 14.5416 26.3845 13.3148C25.972 12.0881 25.1862 11.021 24.1371 10.2629C23.0881 9.50492 21.8282 9.09389 20.534 9.0874H20.5004C19.2049 9.08699 17.9418 9.49208 16.8883 10.2458C15.8347 10.9996 15.0435 12.0642 14.6256 13.2904C14.2077 14.5166 14.1841 15.8428 14.5581 17.0831C14.9321 18.3234 15.685 19.4155 16.7111 20.2063C16.8312 20.2999 16.9285 20.4196 16.9955 20.5564C17.0625 20.6932 17.0975 20.8435 17.0978 20.9958V23.5031H16.4964C16.3372 23.5031 16.1844 23.5663 16.0718 23.679C15.9591 23.7916 15.8959 23.9444 15.8959 24.1037C15.8959 24.2629 15.9591 24.4157 16.0718 24.5283C16.1844 24.641 16.3372 24.7042 16.4964 24.7042H17.8978V26.506C17.8982 26.8775 18.046 27.2337 18.3087 27.4964C18.5714 27.7592 18.9276 27.9069 19.2992 27.9074H21.7015C22.0731 27.9069 22.4293 27.7592 22.692 27.4964C22.9547 27.2337 23.1025 26.8775 23.1029 26.506V24.7042H24.5043C24.6635 24.7042 24.8163 24.641 24.9289 24.5283C25.0416 24.4157 25.1048 24.2629 25.1048 24.1037C25.1048 23.9444 25.0416 23.7916 24.9289 23.679C24.8163 23.5663 24.6635 23.5031 24.5043 23.5031H23.9037V20.9974C23.9025 20.8477 23.9354 20.6997 24.0001 20.5647C24.0648 20.4296 24.1594 20.3112 24.2768 20.2183ZM21.9017 26.506C21.9017 26.5591 21.8806 26.61 21.8431 26.6476C21.8055 26.6851 21.7546 26.7062 21.7015 26.7062H19.2992C19.2461 26.7062 19.1952 26.6851 19.1576 26.6476C19.1201 26.61 19.099 26.5591 19.099 26.506V24.7042H21.9017V26.506ZM18.2982 23.5031V20.9974C18.2972 20.6616 18.2199 20.3304 18.072 20.029C17.9241 19.7275 17.7095 19.4636 17.4446 19.2573C16.6173 18.6195 16.0103 17.7388 15.7088 16.7386C15.4073 15.7384 15.4263 14.6689 15.7633 13.6801C16.1002 12.6913 16.7382 11.8328 17.5877 11.2248C18.4372 10.6169 19.4557 10.2901 20.5004 10.2902H20.5284C21.5718 10.2959 22.5873 10.6277 23.4328 11.2391C24.2783 11.8506 24.9115 12.7111 25.2437 13.7002C25.576 14.6893 25.5907 15.7575 25.2858 16.7554C24.9809 17.7533 24.3717 18.6308 23.5433 19.2653C23.2803 19.4708 23.0676 19.7337 22.9216 20.0339C22.7757 20.3341 22.7001 20.6636 22.7009 20.9974V23.5031H18.2982Z" fill="#020202"/>
<path d="M23.3282 13.373C23.2154 13.2605 23.0627 13.1973 22.9034 13.1973C22.7441 13.1973 22.5913 13.2605 22.4786 13.373L19.8792 15.9555L18.5179 14.6062C18.464 14.5429 18.3977 14.4915 18.3229 14.4552C18.2482 14.4189 18.1668 14.3985 18.0838 14.3953C18.0008 14.3921 17.918 14.4062 17.8407 14.4366C17.7634 14.467 17.6932 14.5131 17.6347 14.572C17.5761 14.6309 17.5304 14.7013 17.5004 14.7788C17.4704 14.8563 17.4569 14.9391 17.4606 15.0221C17.4642 15.1051 17.4851 15.1864 17.5218 15.2609C17.5585 15.3354 17.6103 15.4015 17.6739 15.455L19.4588 17.2223C19.5715 17.3341 19.7237 17.3968 19.8824 17.3968C20.0411 17.3968 20.1934 17.3341 20.306 17.2223L23.329 14.2194C23.4404 14.1067 23.5029 13.9545 23.5027 13.796C23.5026 13.6375 23.4398 13.4855 23.3282 13.373Z" fill="#020202"/>
</svg>
