<svg width="36" height="36" viewBox="0 0 36 36" fill="none" xmlns="http://www.w3.org/2000/svg">
<path d="M18.0054 36C17.1422 36 16.2646 35.9425 15.4013 35.813C15.128 35.7698 14.8978 35.5684 14.8115 35.3095L14.1065 32.9215C12.7397 32.5618 11.4305 32.0296 10.2076 31.3103L8.02078 32.5043C7.7762 32.6338 7.47407 32.6194 7.24388 32.4468C5.84834 31.411 4.59666 30.1594 3.5608 28.764C3.38815 28.5339 3.37376 28.2318 3.50325 27.9872L4.69737 25.8006C3.97802 24.5778 3.4457 23.2687 3.08602 21.9021L0.697772 21.1972C0.424418 21.1109 0.222999 20.8951 0.194225 20.6074C-0.0647417 18.8811 -0.0647417 17.1261 0.194225 15.3998C0.237386 15.1265 0.438805 14.8963 0.697772 14.81L3.08602 14.1051C3.4457 12.7385 3.97802 11.4294 4.69737 10.2066L3.50325 8.01998C3.37376 7.77542 3.38815 7.47333 3.5608 7.24316C4.59666 5.84775 5.84834 4.5962 7.24388 3.56044C7.47407 3.38781 7.7762 3.37343 8.02078 3.5029L10.2076 4.6969C11.4305 3.97762 12.7397 3.44535 14.1065 3.08571L14.8115 0.697702C14.8978 0.424376 15.1136 0.222977 15.4013 0.194206C17.1278 -0.0647353 18.883 -0.0647353 20.6095 0.194206C20.8828 0.237363 21.113 0.438761 21.1993 0.697702L21.9043 3.08571C23.2711 3.44535 24.5803 3.97762 25.8032 4.6969L27.99 3.5029C28.2346 3.37343 28.5367 3.38781 28.7669 3.56044C30.1625 4.5962 31.3997 5.84775 32.45 7.24316C32.6226 7.47333 32.637 7.77542 32.5075 8.01998L31.3134 10.2066C32.0328 11.4294 32.5651 12.7385 32.9248 14.1051L35.313 14.81C35.5864 14.8963 35.7878 15.1121 35.8166 15.3998C36.0611 17.1261 36.0611 18.8811 35.8166 20.6074C35.7734 20.8807 35.572 21.1109 35.313 21.1972L32.9248 21.9021C32.5651 23.2687 32.0328 24.5778 31.3134 25.8006L32.5075 27.9872C32.637 28.2318 32.6226 28.5339 32.45 28.764C31.3997 30.1594 30.1625 31.411 28.7669 32.4468C28.5367 32.6194 28.2346 32.6338 27.99 32.5043L25.8032 31.3103C24.5803 32.0296 23.2711 32.5618 21.9043 32.9215L21.1993 35.3095C21.1274 35.5828 20.8972 35.7842 20.6095 35.813C19.7462 35.9425 18.8686 36 18.0054 36ZM16.0631 34.4464C17.358 34.6046 18.6528 34.6046 19.9476 34.4464L20.6238 32.1159C20.6958 31.8713 20.8972 31.6699 21.1562 31.6124C22.6524 31.2671 24.0911 30.6773 25.386 29.8573C25.6018 29.7135 25.8895 29.7135 26.1053 29.843L28.2346 31.0082C29.2561 30.2026 30.1768 29.2819 30.9825 28.2605L29.8172 26.1315C29.6877 25.9013 29.7021 25.628 29.8316 25.4122C30.6516 24.1031 31.2415 22.6789 31.5868 21.1828C31.6443 20.9239 31.8314 20.7225 32.0903 20.6506L34.421 19.96C34.5793 18.6653 34.5793 17.3706 34.421 16.0759L32.0903 15.3854C31.8457 15.3135 31.6443 15.1121 31.5868 14.8531C31.2415 13.357 30.6516 11.9329 29.8316 10.6238C29.6877 10.408 29.6877 10.1203 29.8172 9.9045L30.9825 7.77542C30.1768 6.75405 29.2561 5.83337 28.2346 5.02777L26.1053 6.19301C25.8751 6.32248 25.6018 6.30809 25.386 6.17862C24.0767 5.35864 22.6524 4.76883 21.1562 4.42358C20.8972 4.36603 20.6958 4.17902 20.6238 3.92008L19.9476 1.58961C18.6528 1.43137 17.358 1.43137 16.0631 1.58961L15.3726 3.92008C15.3006 4.16464 15.0992 4.36603 14.8402 4.42358C13.344 4.76883 11.9197 5.35864 10.6105 6.17862C10.3946 6.30809 10.1069 6.32248 9.8911 6.19301L7.76182 5.02777C6.74033 5.83337 5.81956 6.75405 5.01389 7.77542L6.17924 9.9045C6.30872 10.1347 6.29434 10.408 6.16485 10.6238C5.34479 11.9329 4.75492 13.357 4.40963 14.8531C4.35208 15.1121 4.16505 15.3135 3.90608 15.3854L1.57538 16.0759C1.41712 17.3706 1.41712 18.6653 1.57538 19.96L3.90608 20.6506C4.15066 20.7225 4.35208 20.9239 4.40963 21.1828C4.75492 22.6789 5.34479 24.1031 6.16485 25.4122C6.30872 25.628 6.30872 25.9157 6.17924 26.1315L5.01389 28.2605C5.81956 29.2819 6.74033 30.2026 7.76182 31.0082L9.8911 29.843C10.1213 29.7135 10.3946 29.7279 10.6105 29.8573C11.9197 30.6773 13.344 31.2671 14.8402 31.6124C15.0992 31.6699 15.3006 31.8569 15.3726 32.1159L16.0631 34.4464ZM10.1932 10.5806L10.5673 10.2066C10.855 9.93327 10.8694 9.47293 10.5961 9.18521C10.3227 8.8975 9.86232 8.88312 9.57458 9.15644L9.12858 9.58801C8.85523 9.87572 8.86962 10.3361 9.15736 10.6094C9.30123 10.7389 9.47387 10.8108 9.64652 10.8108C9.83355 10.8108 10.035 10.7389 10.1645 10.5806H10.1932ZM26.652 26.6637C31.4141 21.9021 31.4141 14.1339 26.652 9.37223C22.71 5.43057 16.5955 4.65375 11.7902 7.48771C11.4449 7.68911 11.3298 8.13506 11.5312 8.46593C11.7326 8.81119 12.1786 8.92627 12.5095 8.72488C16.7537 6.22178 22.1345 6.91229 25.6161 10.3936C29.8172 14.5942 29.8172 21.4418 25.6161 25.6567C21.4151 29.8573 14.5669 29.8573 10.3515 25.6567C6.86982 22.1754 6.17924 16.7808 8.68259 12.5514C8.88401 12.2062 8.76891 11.7746 8.42362 11.5732C8.07833 11.3718 7.64672 11.4869 7.4453 11.8322C4.61105 16.637 5.38795 22.7365 9.33 26.6925C11.7183 29.0805 14.8402 30.2745 17.9766 30.2745C21.113 30.2745 24.235 29.0805 26.6232 26.6925L26.652 26.6637ZM14.4086 19.4565C14.4086 18.2625 13.4447 17.2987 12.2506 17.2987C11.8477 17.2987 11.5312 16.9822 11.5312 16.5794C11.5312 16.1766 11.8477 15.8601 12.2506 15.8601H13.6893C14.0921 15.8601 14.4086 15.5437 14.4086 15.1409C14.4086 14.7381 14.0921 14.4216 13.6893 14.4216H12.2506C11.0564 14.4216 10.0925 15.3854 10.0925 16.5794C10.0925 17.7734 11.0564 18.7373 12.2506 18.7373C12.6534 18.7373 12.9699 19.0537 12.9699 19.4565C12.9699 19.8593 12.6534 20.1758 12.2506 20.1758H10.8119C10.409 20.1758 10.0925 20.4923 10.0925 20.8951C10.0925 21.2979 10.409 21.6144 10.8119 21.6144H12.2506C13.4447 21.6144 14.4086 20.6506 14.4086 19.4565ZM20.1635 20.8951C20.1635 20.4923 19.8469 20.1758 19.4441 20.1758H17.286V15.8601H19.4441C19.8469 15.8601 20.1635 15.5437 20.1635 15.1409C20.1635 14.7381 19.8469 14.4216 19.4441 14.4216H16.5667C16.1639 14.4216 15.8473 14.7381 15.8473 15.1409V20.8951C15.8473 21.2979 16.1639 21.6144 16.5667 21.6144H19.4441C19.8469 21.6144 20.1635 21.2979 20.1635 20.8951ZM20.1635 18.018C20.1635 17.6152 19.8469 17.2987 19.4441 17.2987H16.5667C16.1639 17.2987 15.8473 17.6152 15.8473 18.018C15.8473 18.4208 16.1639 18.7373 16.5667 18.7373H19.4441C19.8469 18.7373 20.1635 18.4208 20.1635 18.018ZM23.7602 21.6144C22.5661 21.6144 21.6022 20.6506 21.6022 19.4565V16.5794C21.6022 15.3854 22.5661 14.4216 23.7602 14.4216C24.9543 14.4216 25.9183 15.3854 25.9183 16.5794V19.4565C25.9183 20.6506 24.9543 21.6144 23.7602 21.6144ZM23.7602 15.8601C23.3574 15.8601 23.0409 16.1766 23.0409 16.5794V19.4565C23.0409 19.8593 23.3574 20.1758 23.7602 20.1758C24.1631 20.1758 24.4796 19.8593 24.4796 19.4565V16.5794C24.4796 16.1766 24.1631 15.8601 23.7602 15.8601Z" fill="#00A1A5"/>
</svg>
