<svg width="31" height="31" viewBox="0 0 31 31" fill="none" xmlns="http://www.w3.org/2000/svg">
<g clip-path="url(#clip0_4854_1363)">
<path d="M30.0312 19.8594V2.42188C30.0301 2.03684 29.8766 1.6679 29.6044 1.39563C29.3321 1.12337 28.9632 0.9699 28.5781 0.96875H17.9219C17.5368 0.9699 17.1679 1.12337 16.8956 1.39563C16.6234 1.6679 16.4699 2.03684 16.4688 2.42188V8.71875H3.39062C3.00559 8.7199 2.63665 8.87337 2.36438 9.14563C2.09212 9.4179 1.93865 9.78684 1.9375 10.1719V25.1875C1.68081 25.1883 1.43485 25.2906 1.25334 25.4721C1.07183 25.6536 0.969517 25.8996 0.96875 26.1562V27.6094C0.96875 28.2517 1.22391 28.8677 1.6781 29.3219C2.13229 29.7761 2.7483 30.0312 3.39062 30.0312H27.6094C28.2517 30.0312 28.8677 29.7761 29.3219 29.3219C29.7761 28.8677 30.0312 28.2517 30.0312 27.6094V26.1562C30.0305 25.8996 29.9282 25.6536 29.7467 25.4721C29.5652 25.2906 29.3192 25.1883 29.0625 25.1875V21.2253C29.3448 21.1248 29.5892 20.9397 29.7625 20.6953C29.9359 20.4509 30.0297 20.159 30.0312 19.8594ZM17.4375 2.42188C17.4375 2.29341 17.4885 2.17021 17.5794 2.07937C17.6702 1.98853 17.7934 1.9375 17.9219 1.9375H28.5781C28.7066 1.9375 28.8298 1.98853 28.9206 2.07937C29.0115 2.17021 29.0625 2.29341 29.0625 2.42188V2.90625H17.4375V2.42188ZM17.4375 3.875H29.0625V15.5H17.4375V3.875ZM2.90625 10.1719C2.90625 10.0434 2.95728 9.92021 3.04812 9.82937C3.13896 9.73853 3.26216 9.6875 3.39062 9.6875H16.4688V19.8594C16.4699 20.2444 16.6234 20.6134 16.8956 20.8856C17.1679 21.1579 17.5368 21.3113 17.9219 21.3125H28.0938V25.1875H2.90625V10.1719ZM17.9219 26.1562V27.125H13.0781V26.1562H17.9219ZM29.0625 27.6094C29.0613 27.9944 28.9079 28.3634 28.6356 28.6356C28.3634 28.9079 27.9944 29.0613 27.6094 29.0625H3.39062C3.00559 29.0613 2.63665 28.9079 2.36438 28.6356C2.09212 28.3634 1.93865 27.9944 1.9375 27.6094V26.1562H12.1094V27.125C12.1101 27.3817 12.2125 27.6277 12.394 27.8092C12.5755 27.9907 12.8214 28.093 13.0781 28.0938H17.9219C18.1786 28.093 18.4245 27.9907 18.606 27.8092C18.7875 27.6277 18.8899 27.3817 18.8906 27.125V26.1562H29.0625V27.6094ZM28.5781 20.3438H17.9219C17.7934 20.3438 17.6702 20.2927 17.5794 20.2019C17.4885 20.111 17.4375 19.9878 17.4375 19.8594V16.4688H29.0625V19.8594C29.0625 19.9878 29.0115 20.111 28.9206 20.2019C28.8298 20.2927 28.7066 20.3438 28.5781 20.3438Z" fill="#00A1A5"/>
<path d="M23.25 16.9531C22.9626 16.9531 22.6817 17.0383 22.4427 17.198C22.2037 17.3577 22.0175 17.5846 21.9075 17.8502C21.7975 18.1157 21.7687 18.4079 21.8248 18.6897C21.8809 18.9716 22.0193 19.2305 22.2225 19.4338C22.4257 19.637 22.6846 19.7754 22.9665 19.8315C23.2484 19.8875 23.5406 19.8587 23.8061 19.7488C24.0716 19.6388 24.2986 19.4525 24.4582 19.2136C24.6179 18.9746 24.7031 18.6937 24.7031 18.4062C24.7031 18.0209 24.55 17.6513 24.2775 17.3787C24.005 17.1062 23.6354 16.9531 23.25 16.9531ZM23.25 18.8906C23.1542 18.8906 23.0606 18.8622 22.9809 18.809C22.9012 18.7558 22.8392 18.6801 22.8025 18.5916C22.7658 18.5031 22.7562 18.4057 22.7749 18.3118C22.7936 18.2178 22.8398 18.1315 22.9075 18.0637C22.9752 17.996 23.0615 17.9499 23.1555 17.9312C23.2495 17.9125 23.3469 17.9221 23.4354 17.9587C23.5239 17.9954 23.5995 18.0575 23.6527 18.1371C23.706 18.2168 23.7344 18.3104 23.7344 18.4062C23.7344 18.5347 23.6833 18.6579 23.5925 18.7488C23.5017 18.8396 23.3785 18.8906 23.25 18.8906Z" fill="#00A1A5"/>
<path d="M23.25 5.32812C22.3878 5.32813 21.545 5.5838 20.8281 6.06281C20.1112 6.54183 19.5524 7.22267 19.2225 8.01924C18.8925 8.81581 18.8062 9.69234 18.9744 10.538C19.1426 11.3836 19.5578 12.1604 20.1675 12.77C20.7771 13.3797 21.5539 13.7949 22.3995 13.9631C23.2452 14.1313 24.1217 14.045 24.9183 13.715C25.7148 13.3851 26.3957 12.8263 26.8747 12.1094C27.3537 11.3925 27.6094 10.5497 27.6094 9.6875C27.6076 8.53187 27.1477 7.42409 26.3306 6.60694C25.5134 5.78978 24.4056 5.32992 23.25 5.32812ZM23.25 13.0781C22.5794 13.0781 21.9239 12.8793 21.3663 12.5067C20.8087 12.1341 20.3741 11.6046 20.1175 10.985C19.8608 10.3655 19.7937 9.68374 19.9245 9.02602C20.0554 8.3683 20.3783 7.76415 20.8525 7.28997C21.3267 6.81578 21.9308 6.49285 22.5885 6.36203C23.2462 6.2312 23.928 6.29834 24.5475 6.55497C25.1671 6.8116 25.6966 7.24618 26.0692 7.80377C26.4418 8.36135 26.6406 9.0169 26.6406 9.6875C26.6396 10.5864 26.282 11.4483 25.6464 12.0839C25.0108 12.7195 24.1489 13.0771 23.25 13.0781Z" fill="#00A1A5"/>
<path d="M25.1875 10.6562C25.1864 11.0413 25.0329 11.4102 24.7606 11.6825C24.4884 11.9548 24.1194 12.1082 23.7344 12.1094V12.5938H22.7656V12.1094C22.3806 12.1082 22.0116 11.9548 21.7394 11.6825C21.4671 11.4102 21.3136 11.0413 21.3125 10.6562H22.2812C22.2812 10.7847 22.3323 10.9079 22.4231 10.9988C22.514 11.0896 22.6372 11.1406 22.7656 11.1406H23.7344C23.8628 11.1406 23.986 11.0896 24.0769 10.9988C24.1677 10.9079 24.2188 10.7847 24.2188 10.6562C24.2188 10.5278 24.1677 10.4046 24.0769 10.3137C23.986 10.2229 23.8628 10.1719 23.7344 10.1719H22.7656C22.3802 10.1719 22.0106 10.0188 21.7381 9.74626C21.4656 9.47375 21.3125 9.10414 21.3125 8.71875C21.3125 8.33336 21.4656 7.96375 21.7381 7.69124C22.0106 7.41872 22.3802 7.26562 22.7656 7.26562V6.78125H23.7344V7.26562C24.1194 7.26677 24.4884 7.42024 24.7606 7.69251C25.0329 7.96477 25.1864 8.33371 25.1875 8.71875H24.2188C24.2188 8.59029 24.1677 8.46708 24.0769 8.37624C23.986 8.28541 23.8628 8.23438 23.7344 8.23438H22.7656C22.6372 8.23438 22.514 8.28541 22.4231 8.37624C22.3323 8.46708 22.2812 8.59029 22.2812 8.71875C22.2812 8.84721 22.3323 8.97042 22.4231 9.06126C22.514 9.15209 22.6372 9.20312 22.7656 9.20312H23.7344C24.1194 9.20427 24.4884 9.35774 24.7606 9.63001C25.0329 9.90227 25.1864 10.2712 25.1875 10.6562Z" fill="#00A1A5"/>
<path d="M15.0103 15.4419C14.9961 15.3246 14.9396 15.2165 14.8512 15.138C14.7629 15.0595 14.6489 15.016 14.5308 15.0156H13.0777V14.0469C13.0777 13.2761 12.7715 12.5369 12.2264 11.9918C11.6814 11.4468 10.9422 11.1406 10.1714 11.1406C9.40062 11.1406 8.6614 11.4468 8.11637 11.9918C7.57134 12.5369 7.26515 13.2761 7.26515 14.0469V15.0156H5.81203C5.69386 15.016 5.57989 15.0595 5.49157 15.138C5.40325 15.2165 5.34667 15.3246 5.3325 15.4419L4.36375 23.1919C4.35444 23.2595 4.36003 23.3284 4.38011 23.3936C4.40019 23.4589 4.43428 23.519 4.47999 23.5697C4.525 23.6218 4.58079 23.6636 4.64352 23.692C4.70625 23.7204 4.77441 23.7349 4.84328 23.7344H15.4995C15.5684 23.7349 15.6366 23.7204 15.6993 23.692C15.762 23.6636 15.8178 23.6218 15.8628 23.5697C15.9085 23.519 15.9426 23.4589 15.9627 23.3936C15.9828 23.3284 15.9884 23.2595 15.9791 23.1919L15.0103 15.4419ZM8.2339 14.0469C8.2339 13.533 8.43803 13.0402 8.80138 12.6769C9.16473 12.3135 9.65754 12.1094 10.1714 12.1094C10.6853 12.1094 11.1781 12.3135 11.5414 12.6769C11.9048 13.0402 12.1089 13.533 12.1089 14.0469V15.0156H8.2339V14.0469ZM5.39062 22.7656L6.23828 15.9844H7.26515V17.4375H8.2339V15.9844H12.1089V17.4375H13.0777V15.9844H14.1045L14.9522 22.7656H5.39062Z" fill="#00A1A5"/>
<path d="M5.32812 10.1719H3.875C3.74654 10.1719 3.62333 10.2229 3.5325 10.3137C3.44166 10.4046 3.39062 10.5278 3.39062 10.6562V12.1094H4.35938V11.1406H5.32812V10.1719Z" fill="#00A1A5"/>
<path d="M26.6406 23.7344H25.6719V24.7031H27.125C27.2535 24.7031 27.3767 24.6521 27.4675 24.5613C27.5583 24.4704 27.6094 24.3472 27.6094 24.2188V22.7656H26.6406V23.7344Z" fill="#00A1A5"/>
</g>
<defs>
<clipPath id="clip0_4854_1363">
<rect width="31" height="31" fill="white"/>
</clipPath>
</defs>
</svg>
