<svg width="33" height="33" viewBox="0 0 33 33" fill="none" xmlns="http://www.w3.org/2000/svg">
<path d="M27.4541 15.8613H8.74086C8.54208 15.8613 8.38086 15.7001 8.38086 15.5013V13.7331C8.38086 8.38539 12.7315 4.03467 18.0793 4.03467H18.1157C23.4634 4.03467 27.8141 8.38533 27.8141 13.7331V15.5013C27.8141 15.7002 27.6529 15.8613 27.4541 15.8613ZM9.10086 15.1413H27.0941V13.7331C27.0941 8.78235 23.0665 4.75467 18.1157 4.75467H18.0793C13.1285 4.75467 9.10086 8.78235 9.10086 13.7331V15.1413Z" fill="#00A1A5"/>
<path d="M10.4152 13.4827C10.3921 13.4827 10.3686 13.4805 10.345 13.4758C10.15 13.4373 10.0231 13.248 10.0616 13.053C10.3946 11.3666 11.176 9.79179 12.3214 8.49873C12.4532 8.34993 12.6806 8.33613 12.8296 8.46795C12.9784 8.59977 12.9922 8.82729 12.8603 8.97615C11.7997 10.1736 11.0762 11.6315 10.768 13.1925C10.7341 13.3639 10.5836 13.4827 10.4152 13.4827Z" fill="#00A1A5"/>
<path d="M28.5972 17.6344H7.5973C7.39852 17.6344 7.2373 17.4732 7.2373 17.2744V16.8903C7.2373 15.9258 8.02198 15.1411 8.98642 15.1411H27.2081C28.1726 15.1411 28.9572 15.9258 28.9572 16.8903V17.2744C28.9572 17.4733 28.7961 17.6344 28.5972 17.6344ZM7.9573 16.9144H28.2372V16.8903C28.2372 16.3228 27.7756 15.8611 27.2081 15.8611H8.98642C8.41894 15.8611 7.9573 16.3228 7.9573 16.8903V16.9144Z" fill="#00A1A5"/>
<path d="M17.0381 4.81394C16.8765 4.81394 16.7295 4.70426 16.689 4.54028C16.6186 4.25582 16.3831 3.92222 16.1552 3.5996L16.0991 3.51998C15.8461 3.16046 15.8148 2.69468 16.0174 2.30432C16.2202 1.9136 16.6196 1.6709 17.0598 1.6709H19.134C19.5741 1.6709 19.9735 1.9136 20.1763 2.30432C20.3789 2.69462 20.3476 3.16046 20.0947 3.51998L20.0385 3.59966C19.8107 3.92228 19.5751 4.25594 19.5047 4.5404C19.4569 4.73342 19.2614 4.85102 19.0688 4.80332C18.8758 4.75556 18.758 4.56038 18.8058 4.36736C18.9088 3.95132 19.1841 3.56144 19.4503 3.18434L19.5058 3.10568C19.605 2.96474 19.6168 2.78918 19.5372 2.63606C19.4575 2.48258 19.3068 2.39096 19.1339 2.39096H17.0597C16.8869 2.39096 16.7361 2.48258 16.6564 2.63612C16.5769 2.78924 16.5887 2.9648 16.6879 3.10568L16.7433 3.18434C17.0096 3.56144 17.2849 3.95138 17.3878 4.36742C17.4356 4.56044 17.3178 4.75562 17.1248 4.80332C17.0958 4.81052 17.0668 4.81394 17.0381 4.81394Z" fill="#00A1A5"/>
<path d="M14.5383 14.6145C14.2424 14.6145 13.9643 14.4993 13.7551 14.29C13.5459 14.0809 13.4307 13.8027 13.4307 13.5068C13.4307 13.2109 13.5459 12.9328 13.7551 12.7235L17.3181 9.16056C17.3703 9.10824 17.3703 9.02316 17.318 8.97084C16.985 8.63784 16.985 8.09592 17.3181 7.76298L19.6944 5.38668C19.8349 5.24611 20.0629 5.24611 20.2034 5.38668C20.344 5.52726 20.344 5.75521 20.2034 5.89579L17.8271 8.27208C17.7748 8.3244 17.7748 8.40949 17.8272 8.46181C18.1602 8.79481 18.1602 9.33672 17.8271 9.66966L14.2642 13.2326C14.1909 13.3059 14.1506 13.4032 14.1506 13.5068C14.1506 13.6103 14.1909 13.7077 14.2642 13.7809C14.3374 13.8542 14.4348 13.8945 14.5383 13.8945C14.6419 13.8945 14.7392 13.8542 14.8125 13.7809L18.3754 10.218C18.5367 10.0567 18.7513 9.96786 18.9793 9.96786C19.2075 9.96786 19.422 10.0567 19.5833 10.2181C19.6356 10.2704 19.7207 10.2703 19.773 10.218L22.1493 7.8417C22.2898 7.70112 22.5179 7.70112 22.6584 7.8417C22.799 7.98228 22.799 8.21022 22.6584 8.3508L20.2821 10.7271C19.949 11.06 19.4072 11.06 19.0741 10.7271C19.0399 10.6929 19 10.6878 18.9793 10.6878C18.9585 10.6878 18.9186 10.6929 18.8844 10.7271L15.3215 14.29C15.1124 14.4992 14.8342 14.6145 14.5383 14.6145Z" fill="#00A1A5"/>
<path d="M20.5562 10.3039C20.464 10.3039 20.3719 10.2688 20.3017 10.1985L17.8467 7.74346C17.7061 7.60288 17.7061 7.37494 17.8467 7.23436C17.9873 7.09372 18.2153 7.09378 18.3557 7.23436L20.8107 9.68938C20.9513 9.82996 20.9513 10.0579 20.8107 10.1985C20.7404 10.2687 20.6483 10.3039 20.5562 10.3039Z" fill="#00A1A5"/>
<path d="M19.3288 9.07662C19.2367 9.07662 19.1445 9.04146 19.0742 8.9712C18.9336 8.83062 18.9336 8.60268 19.0742 8.4621L20.9221 6.61422C21.0626 6.47364 21.2907 6.47364 21.4311 6.61422C21.5718 6.7548 21.5718 6.98274 21.4311 7.12332L19.5833 8.9712C19.513 9.04146 19.4209 9.07662 19.3288 9.07662Z" fill="#00A1A5"/>
<path d="M21.0295 24.9404H12.7672C12.5684 24.9404 12.4072 24.7792 12.4072 24.5804C12.4072 24.3816 12.5684 24.2204 12.7672 24.2204H21.0295C21.5598 24.2204 22.021 23.8797 22.1772 23.3727C22.2358 23.1827 22.4369 23.0763 22.6273 23.1346C22.8173 23.1932 22.9238 23.3947 22.8653 23.5847C22.6155 24.3956 21.8777 24.9404 21.0295 24.9404Z" fill="#00A1A5"/>
<path d="M18.0915 29.2548C18.0832 29.2548 18.075 29.2545 18.0668 29.2539L7.72367 28.5412C7.52531 28.5275 7.37561 28.3557 7.38929 28.1574C7.40297 27.9589 7.57457 27.8096 7.77317 27.823L18.0903 28.5339L22.4174 28.2074C22.7066 28.1856 22.9826 28.1044 23.2376 27.9664L30.7164 23.9181C31.1225 23.6981 31.4001 23.311 31.4782 22.8561C31.5563 22.4011 31.4235 21.9435 31.114 21.6006C30.8312 21.2881 30.4266 21.1087 30.0042 21.1087C29.7516 21.1087 29.5007 21.1738 29.2785 21.2969L24.7842 23.7932C24.7308 23.8229 24.6706 23.8385 24.6095 23.8385H22.521C22.4068 23.8385 22.2994 23.7843 22.2315 23.6925C22.1636 23.6007 22.1433 23.482 22.1768 23.3729C22.212 23.2582 22.2299 23.1393 22.2299 23.0195C22.2299 22.699 22.105 22.3971 21.8783 22.1693C21.6517 21.9437 21.3497 21.8188 21.0293 21.8188H16.9899C16.9307 21.8188 16.8722 21.8042 16.82 21.7762L11.808 19.0912L5.79263 20.8217C5.60165 20.877 5.40215 20.7663 5.34713 20.5753C5.29217 20.3842 5.40251 20.1848 5.59355 20.1298L11.7494 18.3588C11.8394 18.3328 11.9361 18.343 12.0189 18.3874L17.0802 21.0988H21.0291C21.5414 21.0988 22.0237 21.2982 22.3873 21.6601C22.7505 22.0249 22.9498 22.5073 22.9498 23.0194C22.9498 23.0525 22.949 23.0855 22.9473 23.1184H24.5161L28.9292 20.6671C29.2582 20.4848 29.6298 20.3885 30.0041 20.3885C30.6297 20.3885 31.2289 20.6543 31.6481 21.1177C32.1068 21.6258 32.3035 22.3037 32.1878 22.9777C32.072 23.6517 31.6607 24.2251 31.0591 24.551L23.5803 28.5994C23.2356 28.786 22.8626 28.8957 22.4716 28.9252L18.1185 29.2537C18.1096 29.2545 18.1005 29.2548 18.0915 29.2548Z" fill="#00A1A5"/>
<path d="M4.12153 31.3297C4.05877 31.3297 3.99649 31.3133 3.94117 31.2812C3.85855 31.2334 3.79831 31.1547 3.77365 31.0624L0.792425 19.8862C0.767825 19.7939 0.780905 19.6956 0.828665 19.613C0.876485 19.5304 0.955205 19.4701 1.04743 19.4455L4.29775 18.5785C4.94701 18.405 5.61636 18.7926 5.78965 19.4421L8.32825 28.9586C8.41219 29.2732 8.36857 29.6016 8.20543 29.8834C8.04235 30.1651 7.77925 30.3666 7.46467 30.4504L4.21435 31.3175C4.18381 31.3257 4.15261 31.3297 4.12153 31.3297ZM1.58089 20.0484L4.37659 30.5291L7.27909 29.7549C7.27909 29.7549 7.27909 29.7549 7.27909 29.7548C7.40785 29.7205 7.51549 29.6381 7.58226 29.5227C7.64904 29.4074 7.66687 29.273 7.63249 29.1442L5.09407 19.6276C5.02309 19.3618 4.74919 19.2033 4.48345 19.2741L1.58089 20.0484Z" fill="#00A1A5"/>
</svg>
