<svg width="40" height="40" viewBox="0 0 40 40" fill="none" xmlns="http://www.w3.org/2000/svg">
<path d="M13.8792 9.27281C16.2428 9.27281 18.1822 7.33342 18.1822 4.96978C18.1822 2.60614 16.2428 0.666748 13.8792 0.666748C11.5156 0.666748 9.57617 2.60614 9.57617 4.96978C9.57617 7.33342 11.5156 9.27281 13.8792 9.27281ZM13.8792 1.81826C15.5762 1.81826 16.9701 3.2122 16.9701 4.90917C16.9701 6.60614 15.5762 8.00008 13.8792 8.00008C12.1822 8.00008 10.7883 6.60614 10.7883 4.90917C10.7883 3.2122 12.1822 1.81826 13.8792 1.81826Z" fill="#00A1A5"/>
<path d="M32.7876 18.4243C32.7876 16.9091 31.5754 15.697 30.0603 15.697C28.5451 15.697 27.333 16.9091 27.333 18.4243C27.333 19.9394 28.5451 21.1516 30.0603 21.1516C31.5754 21.1516 32.7876 19.8788 32.7876 18.4243ZM30.0603 19.8788C29.2118 19.8788 28.5451 19.2122 28.5451 18.3637C28.5451 17.5152 29.2118 16.8485 30.0603 16.8485C30.9088 16.8485 31.5754 17.5152 31.5754 18.3637C31.5754 19.2122 30.9088 19.8788 30.0603 19.8788Z" fill="#00A1A5"/>
<path d="M35.0302 32.788H31.7575V31.7577H32.7878C33.1515 31.7577 33.3939 31.5153 33.3939 31.1517C33.3939 30.788 33.1515 30.5456 32.7878 30.5456H31.7575V24.0002C34.3636 23.2123 36.1212 20.6668 35.8787 17.8183C35.6363 15.0305 33.4545 12.8486 30.7272 12.5456C30.2424 12.485 25.4545 12.485 23.1515 12.485C22.7878 12.182 22.4242 11.8183 22.1212 11.5153C20.8484 10.3032 19.6363 9.09106 17.1515 9.09106H15.9999C15.8181 9.09106 15.5757 9.27288 15.4545 9.39409L13.8787 12.4244L12.303 9.39409C12.1818 9.21228 11.9999 9.09106 11.7575 9.09106H9.15146C6.36358 9.09106 4.06055 11.3941 4.06055 14.182V18.182C4.06055 19.8183 5.39388 21.1517 7.03024 21.1517H8.18176V37.6971C8.18176 38.0608 8.42418 38.3032 8.78782 38.3032H18.8484C19.2121 38.3032 19.4545 38.0608 19.4545 37.6971V15.3335L21.2727 17.0911C21.3939 17.2123 21.5151 17.2729 21.6969 17.2729L24.303 17.2123C24.2424 17.6365 24.1818 18.0608 24.1818 18.485C24.1818 21.0911 25.8787 23.3335 28.3636 24.1214V37.8183C28.3636 38.7274 29.1515 39.5153 30.0605 39.5153C30.9696 39.5153 31.7575 38.7274 31.7575 37.8183V36.3032H33.5151C33.8787 36.3032 34.1212 36.0608 34.1212 35.6971C34.1212 35.3335 33.8787 35.0911 33.5151 35.0911H31.7575V34.0608H35.0302C35.3939 34.0608 35.6363 33.8183 35.6363 33.4547C35.6363 33.0911 35.3939 32.788 35.0302 32.788ZM21.9393 16.0002L19.2727 13.4547C19.0909 13.2729 18.8484 13.2123 18.606 13.3335C18.3636 13.4547 18.2424 13.6365 18.2424 13.8789V37.1517H14.4242V27.4547C14.4242 27.0911 14.1818 26.8486 13.8181 26.8486C13.4545 26.8486 13.2121 27.0911 13.2121 27.4547V37.1517H9.39388V21.2729H11.9393C13.0909 21.2729 14.0605 20.3638 14.0605 19.1517C14.0605 17.9396 13.1515 17.0305 11.9393 17.0305H9.39388V12.8486C9.39388 12.485 9.15146 12.2426 8.78782 12.2426C8.42418 12.2426 8.18176 12.485 8.18176 12.8486V17.6365C8.18176 18.0002 8.42418 18.2426 8.78782 18.2426H11.9393C12.4242 18.2426 12.8484 18.6668 12.8484 19.1517C12.8484 19.6365 12.4242 20.0608 11.9393 20.0608H7.03024C6.06055 20.0608 5.27267 19.2729 5.27267 18.3032V14.3032C5.27267 12.182 7.03024 10.4244 9.15146 10.4244H11.3939L13.3333 14.1214C13.4545 14.3032 13.6363 14.4244 13.8787 14.4244C14.1212 14.4244 14.303 14.3032 14.4242 14.1214L16.3636 10.4244H17.1515C19.1515 10.4244 20.1212 11.3335 21.2727 12.485C21.6363 12.8486 22.0605 13.2729 22.5454 13.6365C22.6666 13.6971 22.7878 13.7577 22.909 13.7577H26.4848C26.3636 13.8789 26.2424 13.9396 26.1212 14.0608C25.5151 14.6062 25.0302 15.2123 24.7272 15.9395L21.9393 16.0002ZM30.5454 37.6971C30.5454 37.9396 30.303 38.182 30.0605 38.182C29.8181 38.182 29.5757 37.9396 29.5757 37.6971V23.5153C29.5757 23.2123 29.3939 22.9699 29.0909 22.9092C26.9696 22.485 25.3939 20.5456 25.3939 18.3638C25.3939 15.7577 27.6363 13.3941 30.606 13.7577C32.7272 14.0002 34.4848 15.8183 34.7272 17.9396C34.9696 20.3032 33.3939 22.4244 31.0909 22.9092C30.7878 22.9699 30.606 23.2123 30.606 23.5153V37.6971H30.5454Z" fill="#00A1A5"/>
</svg>
