<svg width="37" height="37" viewBox="0 0 37 37" fill="none" xmlns="http://www.w3.org/2000/svg">
<g clip-path="url(#clip0_4854_1292)">
<path d="M34.8136 0.560547H22.9848C22.0878 0.560547 21.359 1.28933 21.359 2.1863V9.08176H10.9318C11.2121 6.8954 13.1181 5.15752 15.3605 5.15752H17.2666L16.4257 5.99843C16.2015 6.22267 16.2015 6.55903 16.4257 6.78327C16.6499 7.00752 16.9863 7.00752 17.2105 6.78327L19.0605 4.98933C19.2848 4.76509 19.2848 4.42873 19.0605 4.20449L17.2666 2.41055C17.0424 2.1863 16.706 2.1863 16.4818 2.41055C16.2575 2.63479 16.2575 2.97115 16.4818 3.1954L17.3227 4.0363H15.4166C12.5015 4.0363 10.0908 6.27873 9.81055 9.08176H2.63479C1.51358 9.08176 0.560547 10.0348 0.560547 11.156V29.7681C0.560547 30.8893 1.51358 31.8424 2.63479 31.8424H11.7727L10.6515 35.3181H9.41812C9.08176 35.3181 8.85752 35.5424 8.85752 35.8787C8.85752 36.2151 9.08176 36.4393 9.41812 36.4393H20.7424C21.0787 36.4393 21.303 36.2151 21.303 35.8787C21.303 35.5424 21.0787 35.3181 20.7424 35.3181H19.509L18.3878 31.8984H27.5257C28.6469 31.8984 29.5999 30.9454 29.5999 29.8242V21.0787H34.8136C35.7105 21.0787 36.4393 20.3499 36.4393 19.453V2.1863C36.4393 1.28933 35.7105 0.560547 34.8136 0.560547ZM18.2757 35.3181H11.8287L12.9499 31.8984H17.2105L18.2757 35.3181ZM27.5257 30.7772H2.63479C2.13024 30.7772 1.68176 30.3287 1.68176 29.8242V28.3105H28.4227V29.8242C28.4227 30.3287 28.0302 30.7772 27.5257 30.7772ZM28.4227 27.1893H1.68176V11.156C1.68176 10.6515 2.13024 10.203 2.63479 10.203H21.359V19.3969C21.359 20.2939 22.0878 21.0227 22.9848 21.0227H28.4227V27.1893ZM35.3181 19.3969C35.3181 19.6772 35.0939 19.9015 34.8136 19.9015H22.9848C22.7045 19.9015 22.4802 19.6772 22.4802 19.3969V2.1863C22.4802 1.906 22.7045 1.68176 22.9848 1.68176H34.7575C35.0939 1.68176 35.3181 1.906 35.3181 2.1863V19.3969Z" fill="white"/>
<path d="M33.1877 3.25146H24.6104C24.274 3.25146 24.0498 3.47571 24.0498 3.81207V15.809C24.0498 16.1454 24.274 16.3696 24.6104 16.3696H33.1316C33.468 16.3696 33.6922 16.1454 33.6922 15.809V3.81207C33.7483 3.53177 33.468 3.25146 33.1877 3.25146ZM32.6271 15.2484H25.171V4.37268H32.571V15.2484H32.6271Z" fill="white"/>
<path d="M29.6559 17.603H28.1983C27.8619 17.603 27.6377 17.8273 27.6377 18.1636C27.6377 18.5 27.8619 18.7242 28.1983 18.7242H29.6559C29.9922 18.7242 30.2165 18.5 30.2165 18.1636C30.2165 17.8273 29.9362 17.603 29.6559 17.603Z" fill="white"/>
<path d="M3.92389 18.7241H16.5375C16.8739 18.7241 17.0981 18.4998 17.0981 18.1635V12.3892C17.0981 12.0529 16.8739 11.8286 16.5375 11.8286H3.92389C3.58752 11.8286 3.36328 12.0529 3.36328 12.3892V18.1635C3.36328 18.4438 3.64358 18.7241 3.92389 18.7241ZM4.48449 12.9498H15.9769V17.6029H4.48449V12.9498Z" fill="white"/>
<path d="M6.22287 14.8561C5.99863 15.0804 5.99863 15.4167 6.22287 15.641C6.44711 15.8652 6.78348 15.8652 7.00772 15.641C7.23196 15.4728 7.23196 15.0804 7.00772 14.8561C6.78348 14.6879 6.39105 14.6879 6.22287 14.8561Z" fill="white"/>
<path d="M8.63303 14.8561C8.40878 15.0804 8.40878 15.4167 8.63303 15.641C8.85727 15.8652 9.19363 15.8652 9.41787 15.641C9.64212 15.4728 9.64212 15.0804 9.41787 14.8561C9.24969 14.6879 8.85727 14.6879 8.63303 14.8561Z" fill="white"/>
<path d="M11.0998 14.8561C10.8756 15.0804 10.8756 15.4167 11.0998 15.641C11.3241 15.8652 11.6604 15.8652 11.8847 15.641C12.1089 15.4728 12.1089 15.0804 11.8847 14.8561C11.6604 14.6879 11.3241 14.6879 11.0998 14.8561Z" fill="white"/>
<path d="M13.511 14.8561C13.2867 15.0804 13.2867 15.4167 13.511 15.641C13.7352 15.8652 14.0716 15.8652 14.2958 15.641C14.52 15.4167 14.52 15.0804 14.2958 14.8561C14.1276 14.6879 13.7352 14.6879 13.511 14.8561Z" fill="white"/>
<path d="M3.92389 21.9196H16.5375C16.8739 21.9196 17.0981 21.6953 17.0981 21.3589C17.0981 21.0226 16.8739 20.7983 16.5375 20.7983H3.92389C3.58752 20.7983 3.36328 21.0226 3.36328 21.3589C3.36328 21.6953 3.64358 21.9196 3.92389 21.9196Z" fill="white"/>
<path d="M3.30762 24.5543C3.30762 24.8906 3.53186 25.1149 3.86822 25.1149H26.2364C26.5728 25.1149 26.797 24.8906 26.797 24.5543C26.797 24.2179 26.5728 23.9937 26.2364 23.9937H3.86822C3.58792 23.9937 3.30762 24.2179 3.30762 24.5543Z" fill="white"/>
</g>
<defs>
<clipPath id="clip0_4854_1292">
<rect width="37" height="37" fill="white"/>
</clipPath>
</defs>
</svg>
