<svg width="41" height="41" viewBox="0 0 41 41" fill="none" xmlns="http://www.w3.org/2000/svg">
<path d="M9.75346 7.34481H6.38641C4.57673 7.34481 3.10449 8.8184 3.10449 10.6298V29.5173C3.10449 31.327 4.57673 32.7992 6.38641 32.7992H14.8694C16.4069 34.9572 16.5217 37.4957 15.1755 39.5272H13.6728C13.4207 39.5272 13.2161 39.7316 13.2161 39.9839C13.2161 40.2363 13.4206 40.4406 13.6728 40.4406H27.3277C27.5798 40.4406 27.7844 40.2363 27.7844 39.9839C27.7844 39.7316 27.5799 39.5272 27.3277 39.5272H25.8247C24.4788 37.4956 24.5935 34.957 26.131 32.7992H34.614C36.4237 32.7992 37.896 31.327 37.896 29.5173V10.6297C37.896 8.81832 36.4237 7.34473 34.614 7.34473H31.2866C31.0345 7.34473 30.8299 7.54909 30.8299 7.80141C30.8299 8.05374 31.0345 8.2581 31.2866 8.2581H34.614C35.9201 8.2581 36.9827 9.32202 36.9827 10.6297V29.5172C36.9827 30.8233 35.9201 31.8859 34.614 31.8859C31.1802 31.8859 9.26995 31.8859 6.38641 31.8859C5.08034 31.8859 4.01778 30.8233 4.01778 29.5172V10.6297C4.01778 9.32202 5.08034 8.2581 6.38641 8.2581H9.75338C10.0055 8.2581 10.2101 8.05374 10.2101 7.80141C10.2101 7.54909 10.0055 7.34481 9.75346 7.34481ZM25.0332 32.7992C23.7161 34.977 23.6141 37.438 24.7531 39.5272H16.2472C17.3865 37.438 17.2846 34.9772 15.9674 32.7992H25.0332Z" fill="white"/>
<path d="M35.0403 26.4122V11.3666C35.0403 10.5038 34.3369 9.80184 33.4723 9.80184H31.3564C31.1043 9.80184 30.8997 10.0062 30.8997 10.2585C30.8997 10.5108 31.1043 10.7152 31.3564 10.7152H33.4723C33.8332 10.7152 34.127 11.0075 34.127 11.3666V26.4122C34.127 26.7731 33.8332 27.0667 33.4723 27.0667H7.52797C7.16706 27.0667 6.87333 26.7731 6.87333 26.4122V11.3666C6.87333 11.0074 7.16706 10.7151 7.52797 10.7151H9.64363C9.89572 10.7151 10.1003 10.5108 10.1003 10.2584C10.1003 10.0062 9.8958 9.80176 9.64363 9.80176H7.52797C6.66337 9.80176 5.95996 10.5037 5.95996 11.3665V26.4122C5.95996 27.2768 6.66337 27.9801 7.52797 27.9801H33.4723C34.3368 27.9801 35.0403 27.2767 35.0403 26.4122Z" fill="white"/>
<path d="M18.8701 30.0856C18.8701 30.9848 19.6015 31.7163 20.5005 31.7163C21.3995 31.7163 22.1312 30.9848 22.1312 30.0856C22.1312 29.1866 21.3995 28.4551 20.5005 28.4551C19.6015 28.4551 18.8701 29.1866 18.8701 30.0856ZM21.2179 30.0856C21.2179 30.4812 20.8963 30.803 20.5005 30.803C20.1051 30.803 19.7834 30.4812 19.7834 30.0856C19.7834 29.69 20.1051 29.3684 20.5005 29.3684C20.8963 29.3684 21.2179 29.69 21.2179 30.0856Z" fill="white"/>
<path d="M13.4362 4.98486C12.767 4.77009 12.0472 5.13949 11.8322 5.80911L10.8624 8.82885C10.647 9.49799 11.0139 10.2169 11.6863 10.4328L12.2589 10.6165C12.2681 10.8274 12.2857 11.0392 12.3112 11.2498L11.7764 11.5246C11.1495 11.8469 10.9025 12.6149 11.2249 13.2417L12.6745 16.0629C12.9956 16.6881 13.7665 16.936 14.3915 16.6142L14.9266 16.3392C15.0827 16.4826 15.2445 16.6201 15.4109 16.7507L15.2272 17.3228C15.0118 17.992 15.3787 18.7109 16.0511 18.9268L19.0712 19.8966C19.2005 19.9381 19.3313 19.9577 19.4603 19.9577C19.9993 19.9577 20.5018 19.6127 20.6751 19.0724L20.8591 18.5004C21.0699 18.491 21.2813 18.4733 21.4921 18.4476L21.7671 18.9828C22.0884 19.6078 22.8588 19.8554 23.484 19.5341L26.3052 18.0844C26.9307 17.7631 27.1778 16.9927 26.8563 16.3675L26.5816 15.8323C26.7252 15.6758 26.8625 15.5141 26.993 15.3482L27.565 15.5319C28.2346 15.747 28.9541 15.3772 29.169 14.7076L30.1388 11.6879C30.3541 11.0189 29.9873 10.2999 29.3147 10.0838L28.7423 9.90006C28.7331 9.68913 28.7156 9.47757 28.6901 9.26696L29.2249 8.99197C29.8525 8.66958 30.0979 7.90051 29.7761 7.27502L28.3267 4.45419C28.0043 3.82677 27.2357 3.58053 26.6095 3.90253L26.0746 4.17736C25.9179 4.03362 25.7562 3.89628 25.5903 3.76599L25.774 3.19384C25.9893 2.52486 25.6225 1.80584 24.9498 1.58971L21.9301 0.620045C21.2602 0.405676 20.5408 0.774676 20.3261 1.44429L20.1424 2.01629C19.931 2.02566 19.7197 2.04319 19.5089 2.0689L19.2341 1.53422C18.9113 0.906164 18.1431 0.660805 17.5168 0.982559L14.696 2.43205C14.0692 2.75437 13.8222 3.52232 14.1445 4.14917L14.4195 4.68417C14.2759 4.84056 14.1383 5.00232 14.0081 5.16832L13.4362 4.98486ZM15.3806 4.55621L14.9569 3.73196C14.865 3.55259 14.9366 3.33565 15.1136 3.24469L17.9344 1.79519C18.1117 1.70446 18.3295 1.77237 18.4217 1.95158L18.8454 2.77583C19.0571 3.18823 20.7718 3.04457 20.9125 2.60486L21.1955 1.72368C21.2568 1.53382 21.4613 1.42907 21.6507 1.48985L24.6705 2.45952C24.8631 2.52134 24.965 2.72634 24.9048 2.91468L24.6218 3.79602C24.4803 4.23565 25.7915 5.35138 26.2028 5.13837L27.027 4.715C27.2043 4.62395 27.4222 4.6925 27.5143 4.87139L28.9639 7.69254C29.0563 7.87304 28.9829 8.08973 28.8075 8.17982L27.9834 8.60335C27.5713 8.81532 27.7142 10.5293 28.154 10.6705L29.0352 10.9535C29.2279 11.0153 29.3297 11.2203 29.2695 11.4087L28.2997 14.4284C28.2384 14.6185 28.0339 14.7228 27.8445 14.6624L26.9633 14.3794C26.5236 14.2382 25.4085 15.5484 25.6207 15.9608L26.044 16.785C26.1364 16.9655 26.063 17.1822 25.8876 17.2723L23.0665 18.7218C22.8896 18.8132 22.6705 18.7428 22.5792 18.5654L22.1555 17.7411C21.9061 17.2541 20.2082 17.539 20.0886 17.9121L19.8056 18.7932C19.7444 18.9832 19.5398 19.088 19.3505 19.0272L16.3302 18.0574C16.1403 17.9965 16.0355 17.7929 16.0965 17.6022L16.3795 16.721C16.5472 16.2004 15.1457 15.1995 14.7984 15.3785L13.974 15.8021C13.7971 15.8937 13.5783 15.8232 13.4867 15.6457L12.0371 12.8245C11.9452 12.6451 12.0167 12.4282 12.1938 12.3372L13.018 11.9137C13.3641 11.7356 13.3689 10.0141 12.8473 9.84641L11.9655 9.56341C11.7756 9.50255 11.6709 9.29891 11.7318 9.10825L12.7017 6.0885C12.7629 5.89855 12.966 5.79341 13.1571 5.85467L14.0383 6.13759C14.4778 6.27772 15.5928 4.96845 15.3806 4.55621Z" fill="white"/>
<path d="M19.0362 14.8162C21.5661 15.6283 24.252 14.2314 25.0578 11.7218C25.865 9.20871 24.4769 6.50735 21.9638 5.70016C19.4507 4.8937 16.7488 6.28113 15.9421 8.79454C15.1327 11.3136 16.5164 14.0071 19.0362 14.8162ZM16.8115 9.07377C17.4667 7.03346 19.6569 5.91894 21.6843 6.56989C23.7182 7.22309 24.8414 9.40898 24.1885 11.4427C23.5335 13.481 21.3546 14.6016 19.3157 13.9466C17.2768 13.2919 16.1567 11.1133 16.8115 9.07377Z" fill="white"/>
<path d="M9.31836 23.7837C9.31836 24.9268 10.2483 25.8569 11.3915 25.8569H29.6092C30.7523 25.8569 31.6826 24.9268 31.6826 23.7837C31.6826 22.6406 30.7523 21.7104 29.6092 21.7104C24.4574 21.7104 19.7333 21.7104 11.3915 21.7104C10.2483 21.7104 9.31836 22.6405 9.31836 23.7837ZM29.6092 22.6237C30.249 22.6237 30.7693 23.1439 30.7693 23.7836C30.7693 24.4233 30.249 24.9435 29.6092 24.9435H25.8816V22.6237H29.6092ZM11.3915 22.6237H24.9683V24.9435H11.3915C10.752 24.9435 10.2317 24.4233 10.2317 23.7836C10.2317 23.1439 10.752 22.6237 11.3915 22.6237Z" fill="white"/>
</svg>
