<svg width="40" height="40" viewBox="0 0 40 40" fill="none" xmlns="http://www.w3.org/2000/svg">
<path d="M22.5 11.2501C22.5 10.7556 22.3534 10.2723 22.0787 9.86116C21.804 9.45004 21.4135 9.12961 20.9567 8.94039C20.4999 8.75117 19.9972 8.70166 19.5123 8.79812C19.0273 8.89459 18.5819 9.13269 18.2322 9.48232C17.8826 9.83195 17.6445 10.2774 17.548 10.7624C17.4516 11.2473 17.5011 11.75 17.6903 12.2068C17.8795 12.6636 18.2 13.0541 18.6111 13.3288C19.0222 13.6035 19.5055 13.7501 20 13.7501C20.6628 13.7493 21.2983 13.4857 21.7669 13.017C22.2356 12.5484 22.4993 11.9129 22.5 11.2501ZM18.75 11.2501C18.75 11.0029 18.8233 10.7612 18.9607 10.5556C19.098 10.3501 19.2932 10.1898 19.5216 10.0952C19.7501 10.0006 20.0014 9.97587 20.2439 10.0241C20.4863 10.0723 20.7091 10.1914 20.8839 10.3662C21.0587 10.541 21.1777 10.7637 21.226 11.0062C21.2742 11.2487 21.2495 11.5 21.1549 11.7284C21.0602 11.9568 20.9 12.1521 20.6945 12.2894C20.4889 12.4268 20.2472 12.5001 20 12.5001C19.6686 12.4998 19.3508 12.368 19.1165 12.1336C18.8821 11.8993 18.7503 11.5815 18.75 11.2501ZM13.6487 21.2415C13.6823 21.2471 13.7163 21.2499 13.7503 21.2501C13.8722 21.2499 13.9914 21.2141 14.0933 21.147C14.1952 21.08 14.2753 20.9848 14.3237 20.8729C14.8573 19.7083 15.6175 18.6615 16.5599 17.7938C16.8142 18.3469 17.0977 18.8861 17.4091 19.4091L16.3159 21.5954C16.2682 21.6907 16.2457 21.7966 16.2505 21.9031C16.2553 22.0095 16.2872 22.113 16.3432 22.2036C16.3992 22.2943 16.4775 22.3691 16.5706 22.421C16.6636 22.4729 16.7684 22.5001 16.875 22.5001H23.125C23.2315 22.5001 23.3363 22.4729 23.4294 22.421C23.5225 22.3691 23.6007 22.2943 23.6567 22.2037C23.7127 22.113 23.7447 22.0096 23.7494 21.9032C23.7542 21.7967 23.7317 21.6908 23.6841 21.5955L22.5909 19.4093C22.9023 18.8862 23.1858 18.3469 23.4401 17.7938C24.3825 18.6615 25.1427 19.7082 25.6763 20.8728C25.7247 20.9847 25.8049 21.0801 25.9068 21.1471C26.0087 21.2141 26.128 21.2499 26.25 21.2501C26.284 21.2499 26.318 21.2471 26.3516 21.2415C26.489 21.219 26.615 21.1512 26.7094 21.0489C26.8039 20.9466 26.8616 20.8157 26.8732 20.677C27.2531 16.1175 26.0739 13.8933 24.9014 12.8097C24.9656 12.2923 24.9986 11.7715 25 11.2501C25 6.28884 20.6388 1.64009 20.4532 1.44477C20.3326 1.32546 20.1697 1.25854 20.0001 1.25854C19.8304 1.25854 19.6676 1.32546 19.5469 1.44477C19.3612 1.64009 15 6.28884 15 11.2501C15.0016 11.7715 15.0346 12.2923 15.0989 12.8097C13.9264 13.8933 12.7472 16.1175 13.1271 20.677C13.1388 20.8157 13.1964 20.9466 13.2909 21.0489C13.3854 21.1512 13.5113 21.219 13.6487 21.2415ZM24.6167 14.404C25.3323 15.6189 25.7011 17.0067 25.683 18.4165C25.1956 17.7295 24.6076 17.1198 23.9387 16.6078C24.2138 15.8892 24.4403 15.153 24.6167 14.404ZM17.8864 21.2501L18.5114 20.0001H21.4886L22.1136 21.2501H17.8864ZM20 2.82509C20.5736 3.51596 21.103 4.24241 21.5849 5.00009H18.4151C18.897 4.24241 19.4264 3.51596 20 2.82509ZM17.6861 6.25009H22.3139C23.1858 7.77786 23.6782 9.49253 23.75 11.2501C23.6496 13.8971 22.8847 16.4763 21.5257 18.7501H18.4737C17.1128 16.4772 16.348 13.8974 16.25 11.2501C16.3218 9.49253 16.8142 7.77786 17.6861 6.25009ZM15.3832 14.404C15.5597 15.153 15.7862 15.8892 16.0613 16.6078C15.3924 17.1198 14.8044 17.7295 14.317 18.4165C14.2989 17.0067 14.6677 15.6189 15.3832 14.404ZM22.0728 23.7825C22.1506 23.8084 22.2226 23.8494 22.2847 23.9031C22.3467 23.9569 22.3975 24.0223 22.4342 24.0957C22.4709 24.1691 22.4928 24.2491 22.4986 24.3309C22.5044 24.4128 22.4939 24.495 22.4679 24.5728C22.1238 25.7676 21.3425 26.7891 20.2796 27.4342C20.1927 27.4775 20.097 27.5001 20 27.5001C19.903 27.5001 19.8073 27.4775 19.7204 27.4342C18.6575 26.7891 17.8762 25.7676 17.5321 24.5728C17.4796 24.4156 17.4918 24.2439 17.5659 24.0956C17.64 23.9474 17.77 23.8346 17.9272 23.7822C18.0845 23.7297 18.2562 23.7419 18.4044 23.816C18.5527 23.8901 18.6655 24.0201 18.7179 24.1773C18.9484 24.9364 19.3938 25.6125 20.0003 26.1238C20.6064 25.6122 21.0515 24.9362 21.2821 24.1773C21.3079 24.0994 21.3489 24.0273 21.4027 23.9653C21.4564 23.9032 21.5219 23.8524 21.5954 23.8157C21.6689 23.779 21.7488 23.7572 21.8308 23.7515C21.9127 23.7458 21.9949 23.7563 22.0728 23.7825ZM38.125 32.5001H36.875V16.8751C36.874 16.0466 36.5445 15.2523 35.9586 14.6665C35.3728 14.0806 34.5785 13.7511 33.75 13.7501H28.125C27.9592 13.7501 27.8003 13.8159 27.6831 13.9331C27.5658 14.0504 27.5 14.2093 27.5 14.3751C27.5 14.5408 27.5658 14.6998 27.6831 14.817C27.8003 14.9342 27.9592 15.0001 28.125 15.0001H33.75C34.2471 15.0006 34.7237 15.1984 35.0752 15.5499C35.4267 15.9014 35.6245 16.378 35.625 16.8751V32.5001H33.125V31.8751C33.124 31.3263 33.0029 30.7845 32.77 30.2876C32.5371 29.7907 32.1982 29.3508 31.7771 28.999C31.356 28.6471 30.863 28.3918 30.3326 28.2509C29.8022 28.1101 29.2474 28.0871 28.7072 28.1837C28.5706 27.2981 28.1219 26.4905 27.4421 25.9067C26.7623 25.3228 25.8961 25.0013 25 25.0001C24.4825 24.9989 23.9706 25.1064 23.4973 25.3157C23.3456 25.3827 23.2268 25.5072 23.1669 25.6618C23.1071 25.8165 23.1111 25.9885 23.1781 26.1402C23.2451 26.2919 23.3697 26.4107 23.5243 26.4706C23.6789 26.5304 23.851 26.5264 24.0027 26.4594C24.3167 26.3203 24.6565 26.249 25 26.2501C25.6628 26.2508 26.2983 26.5144 26.767 26.9831C27.2357 27.4518 27.4993 28.0873 27.5 28.7501C27.5001 28.8103 27.4959 28.8705 27.4875 28.9302C27.4717 29.0409 27.4859 29.154 27.5287 29.2574C27.5715 29.3608 27.6412 29.4508 27.7307 29.5181C27.8201 29.5854 27.926 29.6274 28.0372 29.6399C28.1484 29.6523 28.2609 29.6346 28.363 29.5887C28.6812 29.4461 29.0263 29.3733 29.375 29.3751C30.0378 29.3758 30.6733 29.6394 31.142 30.1081C31.6107 30.5768 31.8743 31.2123 31.875 31.8751V32.5001H8.125V31.8751C8.12569 31.2123 8.38931 30.5768 8.858 30.1081C9.32669 29.6394 9.96217 29.3758 10.625 29.3751C10.9736 29.3733 11.3186 29.4461 11.6367 29.5887C11.7388 29.6347 11.8513 29.6524 11.9626 29.64C12.0739 29.6277 12.1798 29.5856 12.2693 29.5183C12.3588 29.4511 12.4285 29.361 12.4713 29.2575C12.5141 29.154 12.5283 29.041 12.5125 28.9302C12.5041 28.8705 12.4999 28.8103 12.5 28.7501C12.5007 28.0873 12.7643 27.4518 13.233 26.9831C13.7017 26.5144 14.3372 26.2508 15 26.2501C15.3435 26.249 15.6833 26.3204 15.9973 26.4595C16.149 26.5265 16.3211 26.5305 16.4757 26.4706C16.6303 26.4108 16.7549 26.2919 16.8219 26.1403C16.8889 25.9886 16.8929 25.8165 16.8331 25.6619C16.7732 25.5073 16.6544 25.3827 16.5027 25.3157C16.0294 25.1065 15.5175 24.999 15 25.0001C14.1039 25.0013 13.2377 25.3228 12.5579 25.9067C11.8781 26.4905 11.4294 27.2981 11.2927 28.1837C10.7526 28.0871 10.1978 28.1101 9.66741 28.2509C9.13704 28.3918 8.64397 28.6471 8.22287 28.999C7.80177 29.3508 7.46287 29.7907 7.23001 30.2876C6.99714 30.7845 6.87597 31.3263 6.875 31.8751V32.5001H4.375V16.8751C4.37555 16.378 4.57327 15.9014 4.92478 15.5499C5.27629 15.1984 5.75289 15.0006 6.25 15.0001H11.875C12.0408 15.0001 12.1997 14.9342 12.3169 14.817C12.4342 14.6998 12.5 14.5408 12.5 14.3751C12.5 14.2093 12.4342 14.0504 12.3169 13.9331C12.1997 13.8159 12.0408 13.7501 11.875 13.7501H6.25C5.4215 13.7511 4.62721 14.0806 4.04137 14.6665C3.45553 15.2523 3.12598 16.0466 3.125 16.8751V32.5001H1.875C1.70924 32.5001 1.55027 32.5659 1.43306 32.6831C1.31585 32.8004 1.25 32.9593 1.25 33.1251V34.3751C1.25134 35.535 1.71271 36.647 2.53289 37.4672C3.35307 38.2874 4.46509 38.7487 5.625 38.7501H34.375C35.5349 38.7487 36.6469 38.2874 37.4671 37.4672C38.2873 36.647 38.7487 35.535 38.75 34.3751V33.1251C38.75 32.9593 38.6842 32.8004 38.5669 32.6831C38.4497 32.5659 38.2908 32.5001 38.125 32.5001ZM15.625 33.7501H24.375V34.3751C24.3749 34.5408 24.309 34.6997 24.1918 34.8169C24.0746 34.934 23.9157 34.9999 23.75 35.0001H16.25C16.0843 34.9999 15.9254 34.934 15.8082 34.8169C15.691 34.6997 15.6251 34.5408 15.625 34.3751V33.7501ZM37.5 34.3751C37.499 35.2036 37.1695 35.9979 36.5836 36.5837C35.9978 37.1696 35.2035 37.4991 34.375 37.5001H5.625C4.7965 37.4991 4.00221 37.1696 3.41637 36.5837C2.83053 35.9979 2.50098 35.2036 2.5 34.3751V33.7501H14.375V34.3751C14.3755 34.8722 14.5733 35.3488 14.9248 35.7003C15.2763 36.0518 15.7529 36.2495 16.25 36.2501H23.75C24.2471 36.2495 24.7237 36.0518 25.0752 35.7003C25.4267 35.3488 25.6245 34.8722 25.625 34.3751V33.7501H37.5V34.3751Z" fill="#00A1A5"/>
</svg>
