<svg width="54" height="50" viewBox="0 0 54 50" fill="none" xmlns="http://www.w3.org/2000/svg">
<path d="M47.4464 27.4405V24.9402C47.4464 24.5024 47.0915 24.1476 46.6538 24.1476C46.2161 24.1476 45.8612 24.5024 45.8612 24.9402V26.7874C44.7006 26.4057 43.4617 26.1984 42.1751 26.1984C42.0828 26.1984 41.9897 26.2004 41.8967 26.2026V15.0913C41.8967 14.6535 41.5418 14.2987 41.1041 14.2987H40.7905L43.8789 11.0153L46.9673 14.2987H46.6537C46.216 14.2987 45.8611 14.6535 45.8611 15.0913V21.8471C45.8611 22.2849 46.2159 22.6397 46.6537 22.6397C47.0915 22.6397 47.4463 22.2849 47.4463 21.8471V15.8839H48.8009C49.4745 15.9063 49.8559 15.0236 49.3783 14.5484L44.4562 9.31566C44.1589 8.98586 43.5989 8.98586 43.3017 9.31566L38.3797 14.5484C37.9019 15.0237 38.2835 15.9063 38.957 15.8839H40.3116V21.8302C39.291 20.1105 37.8366 18.6818 36.1043 17.6906V8.06132H37.4589C38.1325 8.08368 38.5139 7.20091 38.0363 6.72577L33.1142 1.49315C32.8169 1.16335 32.2569 1.16335 31.9597 1.49315L27.0377 6.72577C26.5598 7.20101 26.9415 8.08379 27.615 8.06132H28.9696V16.2628C27.4617 16.4486 26.0389 16.9259 24.7624 17.6403V13.6463H26.117C26.7906 13.6687 27.172 12.7859 26.6944 12.3107L21.7723 7.07803C21.475 6.74823 20.915 6.74823 20.6178 7.07803L15.6958 12.3107C15.218 12.786 15.5996 13.6686 16.2731 13.6463H17.6277V24.5144C17.2513 24.4726 16.8717 24.4504 16.4896 24.4504C15.4207 24.4504 14.3897 24.6159 13.4204 24.9213V6.81573H14.775C15.4486 6.83809 15.83 5.95542 15.3523 5.48018L10.4301 0.247351C10.1329 -0.0824502 9.57277 -0.0824502 9.27555 0.247351L4.35343 5.48008C3.87555 5.95542 4.25725 6.83799 4.93077 6.81563H6.28541V13.3166C6.28541 13.7544 6.64031 14.1092 7.07801 14.1092C7.5157 14.1092 7.87061 13.7544 7.87061 13.3166V6.02314C7.87061 5.58534 7.51581 5.23054 7.07801 5.23054H6.76434L9.85279 1.94709L12.9412 5.23054H12.6276C12.1899 5.23054 11.835 5.58534 11.835 6.02314V25.5722C10.2167 26.4024 8.84735 27.6514 7.87039 29.1752V16.487C7.87039 16.0492 7.5156 15.6944 7.0778 15.6944C6.6401 15.6944 6.2852 16.0492 6.2852 16.487V33.9456C6.28267 33.9815 6.2795 34.0175 6.27729 34.0536C2.65444 34.8457 0 38.0877 0 41.8576C0 46.2636 3.58457 49.8481 7.99052 49.8481H32.3633C32.801 49.8481 33.1559 49.4934 33.1559 49.0555C33.1559 48.6177 32.8011 48.263 32.3633 48.263H7.99052C4.45859 48.263 1.58509 45.3895 1.58509 41.8575C1.58509 38.6517 3.97944 35.9221 7.15447 35.5083C7.5504 35.4567 7.84614 35.1186 7.84466 34.7194C7.84455 34.7052 7.84424 34.691 7.84361 34.6739C7.8474 29.9098 11.7244 26.0353 16.4894 26.0353C17.5401 26.0353 18.5698 26.2235 19.5495 26.5944C19.9974 26.7768 20.5401 26.4666 20.6111 25.9884C21.4367 21.2203 25.5525 17.7596 30.3977 17.7596C35.6437 17.7596 39.999 21.8581 40.3132 27.0903C40.3932 28.0761 41.5033 27.7786 42.1753 27.7836C47.8215 27.7836 52.415 32.3771 52.415 38.0233C52.415 43.6695 47.8215 48.2631 42.1753 48.2631H35.5335C35.0958 48.2631 34.7409 48.6179 34.7409 49.0557C34.7409 49.4935 35.0958 49.8483 35.5335 49.8483H42.1751C48.6953 49.8483 54 44.5436 54 38.0233C54 33.3961 51.3281 29.3818 47.4464 27.4405ZM32.5369 3.19288L35.6253 6.47623H35.3118C34.8741 6.47623 34.5192 6.83103 34.5192 7.26883V16.9374C33.2833 16.4623 31.947 16.1953 30.5547 16.1765V7.26872C30.5547 6.83092 30.1998 6.47612 29.7621 6.47612H29.4485L32.5369 3.19288ZM19.2397 24.826C19.2308 24.8235 19.2216 24.8214 19.2126 24.8189V12.8536C19.2126 12.4158 18.8577 12.061 18.42 12.061H18.1065L21.1949 8.77766L24.2833 12.061H23.9698C23.5321 12.061 23.1772 12.4158 23.1772 12.8536V18.7099C21.2812 20.2328 19.8703 22.3524 19.2397 24.826Z" fill="white"/>
<path d="M29.8672 33.8879C30.3049 33.8879 30.6598 33.5331 30.6598 33.0953C30.6598 32.6575 30.3049 32.3027 29.8672 32.3027H26.1559C25.7182 32.3027 25.3633 32.6575 25.3633 33.0953V41.9036C25.3633 42.3414 25.7182 42.6962 26.1559 42.6962H29.8672C30.3049 42.6962 30.6598 42.3414 30.6598 41.9036C30.6598 41.4658 30.3049 41.111 29.8672 41.111H26.9484V38.292H29.5935C30.0312 38.292 30.3861 37.9372 30.3861 37.4994C30.3861 37.0616 30.0313 36.7068 29.5935 36.7068H26.9484V33.8878H29.8672V33.8879Z" fill="white"/>
<path d="M20.4723 41.1515C19.5003 41.1515 18.5618 40.7562 17.9619 40.0942C17.668 39.7699 17.1668 39.7453 16.8424 40.039C16.5181 40.333 16.4934 40.8342 16.7872 41.1586C17.6827 42.1467 19.0602 42.7367 20.4722 42.7367C22.1633 42.7367 23.6366 41.6276 23.8992 40.1568C24.2021 38.4603 22.868 37.3237 21.5184 36.826C20.3745 36.404 19.3134 35.9434 19.0455 35.8258C18.7615 35.6176 18.6236 35.2851 18.6753 34.9255C18.7403 34.4727 19.0881 34.1094 19.6059 33.9535C21.032 33.5236 22.3207 34.5571 22.3462 34.5779C22.6812 34.857 23.1792 34.8129 23.46 34.4788C23.7416 34.1437 23.6984 33.6437 23.3633 33.3621C23.2846 33.2961 21.414 31.7535 19.1486 32.4357C18.0415 32.7693 17.2589 33.637 17.1062 34.7003C16.9641 35.6904 17.3928 36.6424 18.2251 37.185C18.2601 37.2079 18.2969 37.228 18.3351 37.2449C18.3861 37.2676 19.6009 37.8084 20.9697 38.3132C21.9525 38.6757 22.4514 39.2462 22.3386 39.8784C22.2286 40.4954 21.537 41.1515 20.4723 41.1515Z" fill="white"/>
<path d="M41.9139 37.4994C41.9139 34.6115 39.5644 32.2622 36.6767 32.2622C33.7889 32.2622 31.4395 34.6116 31.4395 37.4994C31.4395 40.3872 33.7889 42.7365 36.6767 42.7365C39.5644 42.7366 41.9139 40.3872 41.9139 37.4994ZM33.0245 37.4994C33.0245 35.4855 34.6629 33.8473 36.6766 33.8473C38.6903 33.8473 40.3287 35.4855 40.3287 37.4994C40.3287 39.5132 38.6903 41.1514 36.6766 41.1514C34.6629 41.1515 33.0245 39.5132 33.0245 37.4994Z" fill="white"/>
</svg>
