<svg width="51" height="51" viewBox="0 0 51 51" fill="none" xmlns="http://www.w3.org/2000/svg">
<g opacity="0.65">
<path d="M45.4219 1.59375H5.57812C4.52179 1.59502 3.50909 2.0152 2.76214 2.76214C2.0152 3.50909 1.59502 4.52179 1.59375 5.57812V34.2656C1.59502 35.322 2.0152 36.3347 2.76214 37.0816C3.50909 37.8285 4.52179 38.2487 5.57812 38.25H20.7188V44.625H15.9375C15.3035 44.625 14.6954 44.8769 14.2471 45.3252C13.7987 45.7735 13.5469 46.3816 13.5469 47.0156C13.5469 47.6497 13.7987 48.2577 14.2471 48.7061C14.6954 49.1544 15.3035 49.4062 15.9375 49.4062H35.0625C35.6965 49.4062 36.3046 49.1544 36.7529 48.7061C37.2013 48.2577 37.4531 47.6497 37.4531 47.0156C37.4531 46.3816 37.2013 45.7735 36.7529 45.3252C36.3046 44.8769 35.6965 44.625 35.0625 44.625H30.2812V38.25H45.4219C46.4782 38.2487 47.4909 37.8285 48.2379 37.0816C48.9848 36.3347 49.405 35.322 49.4062 34.2656V5.57812C49.405 4.52179 48.9848 3.50909 48.2379 2.76214C47.4909 2.0152 46.4782 1.59502 45.4219 1.59375ZM5.57812 3.1875H45.4219C46.0559 3.1875 46.664 3.43937 47.1123 3.8877C47.5606 4.33603 47.8125 4.94409 47.8125 5.57812V30.2812H3.1875V5.57812C3.1875 4.94409 3.43937 4.33603 3.8877 3.8877C4.33603 3.43937 4.94409 3.1875 5.57812 3.1875ZM35.8594 47.0156C35.8594 47.227 35.7754 47.4297 35.626 47.5791C35.4765 47.7285 35.2738 47.8125 35.0625 47.8125H15.9375C15.7262 47.8125 15.5235 47.7285 15.374 47.5791C15.2246 47.4297 15.1406 47.227 15.1406 47.0156C15.1406 46.8043 15.2246 46.6016 15.374 46.4521C15.5235 46.3027 15.7262 46.2188 15.9375 46.2188H35.0625C35.2738 46.2188 35.4765 46.3027 35.626 46.4521C35.7754 46.6016 35.8594 46.8043 35.8594 47.0156ZM28.6875 44.625H22.3125V38.25H28.6875V44.625ZM45.4219 36.6562H5.57812C4.94409 36.6562 4.33603 36.4044 3.8877 35.9561C3.43937 35.5077 3.1875 34.8997 3.1875 34.2656V31.875H47.8125V34.2656C47.8125 34.8997 47.5606 35.5077 47.1123 35.9561C46.664 36.4044 46.0559 36.6562 45.4219 36.6562Z" fill="white"/>
<path d="M43.0312 33.4688H44.625V35.0625H43.0312V33.4688Z" fill="white"/>
<path d="M39.8438 33.4688H41.4375V35.0625H39.8438V33.4688Z" fill="white"/>
<path d="M24.9366 9.7959L26.0634 10.9227L28.454 8.53205C28.6034 8.38262 28.6873 8.17997 28.6873 7.96866C28.6873 7.75736 28.6034 7.55471 28.454 7.40527L26.0634 5.01465L24.9366 6.14143L25.967 7.17179H22.3125V8.76554H25.967L24.9366 9.7959Z" fill="white"/>
<path d="M26.0634 22.5459L24.9366 23.6727L25.967 24.703H22.3125V26.2968H25.967L24.9366 27.3271L26.0634 28.4539L28.454 26.0633C28.6034 25.9139 28.6873 25.7112 28.6873 25.4999C28.6873 25.2886 28.6034 25.086 28.454 24.9365L26.0634 22.5459Z" fill="white"/>
<path d="M37.4531 25.5C39.1868 25.5 40.8815 24.9859 42.323 24.0227C43.7645 23.0596 44.8881 21.6905 45.5515 20.0888C46.215 18.4871 46.3885 16.7247 46.0503 15.0243C45.7121 13.3239 44.8773 11.762 43.6514 10.5361C42.4255 9.31025 40.8636 8.47541 39.1632 8.13718C37.4628 7.79896 35.7004 7.97255 34.0987 8.636C32.497 9.29945 31.128 10.423 30.1648 11.8645C29.2016 13.306 28.6875 15.0007 28.6875 16.7344C28.6902 19.0583 29.6146 21.2863 31.2579 22.9296C32.9012 24.5729 35.1292 25.4973 37.4531 25.5ZM37.4531 9.5625C38.8716 9.5625 40.2582 9.98313 41.4376 10.7712C42.617 11.5592 43.5362 12.6793 44.0791 13.9898C44.6219 15.3003 44.7639 16.7423 44.4872 18.1335C44.2105 19.5247 43.5274 20.8027 42.5244 21.8057C41.5214 22.8087 40.2435 23.4917 38.8523 23.7684C37.4611 24.0452 36.0191 23.9031 34.7086 23.3603C33.3981 22.8175 32.278 21.8983 31.4899 20.7189C30.7019 19.5394 30.2812 18.1528 30.2812 16.7344C30.2834 14.8329 31.0396 13.01 32.3842 11.6654C33.7287 10.3209 35.5517 9.56461 37.4531 9.5625Z" fill="white"/>
<path d="M37.4531 19.125C37.2418 19.125 37.0391 19.041 36.8896 18.8916C36.7402 18.7422 36.6562 18.5395 36.6562 18.3281H35.0625C35.0645 18.8208 35.2188 19.3008 35.504 19.7025C35.7893 20.1042 36.1917 20.4079 36.6562 20.5721V21.5156H38.25V20.5721C38.7813 20.385 39.2292 20.0159 39.5144 19.5302C39.7996 19.0445 39.9036 18.4735 39.8082 17.9184C39.7128 17.3633 39.4239 16.8599 38.9929 16.4973C38.5618 16.1347 38.0164 15.9364 37.4531 15.9375C37.2955 15.9375 37.1415 15.8908 37.0104 15.8032C36.8794 15.7156 36.7772 15.5912 36.7169 15.4456C36.6566 15.3 36.6408 15.1397 36.6716 14.9852C36.7023 14.8306 36.7782 14.6886 36.8896 14.5771C37.0011 14.4657 37.1431 14.3898 37.2977 14.3591C37.4522 14.3283 37.6125 14.3441 37.7581 14.4044C37.9037 14.4647 38.0281 14.5669 38.1157 14.6979C38.2033 14.829 38.25 14.983 38.25 15.1406H39.8438C39.8417 14.6479 39.6875 14.1679 39.4022 13.7663C39.1169 13.3646 38.7145 13.0608 38.25 12.8966V11.9531H36.6562V12.8966C36.125 13.0837 35.6771 13.4529 35.3919 13.9386C35.1067 14.4243 35.0026 14.9953 35.0981 15.5504C35.1935 16.1055 35.4823 16.6089 35.9134 16.9714C36.3444 17.334 36.8899 17.5323 37.4531 17.5312C37.6645 17.5312 37.8672 17.6152 38.0166 17.7646C38.166 17.9141 38.25 18.1168 38.25 18.3281C38.25 18.5395 38.166 18.7422 38.0166 18.8916C37.8672 19.041 37.6645 19.125 37.4531 19.125Z" fill="white"/>
<path d="M13.5469 25.5C15.2806 25.5 16.9753 24.9859 18.4168 24.0227C19.8583 23.0596 20.9818 21.6905 21.6453 20.0888C22.3087 18.4871 22.4823 16.7247 22.1441 15.0243C21.8058 13.3239 20.971 11.762 19.7451 10.5361C18.5192 9.31025 16.9573 8.47541 15.257 8.13718C13.5566 7.79896 11.7941 7.97255 10.1924 8.636C8.59071 9.29945 7.2217 10.423 6.25852 11.8645C5.29534 13.306 4.78125 15.0007 4.78125 16.7344C4.78399 19.0583 5.70839 21.2863 7.35167 22.9296C8.99495 24.5729 11.2229 25.4973 13.5469 25.5ZM13.5469 9.5625C14.9653 9.5625 16.3519 9.98313 17.5314 10.7712C18.7108 11.5592 19.63 12.6793 20.1728 13.9898C20.7156 15.3003 20.8577 16.7423 20.5809 18.1335C20.3042 19.5247 19.6212 20.8027 18.6182 21.8057C17.6152 22.8087 16.3372 23.4917 14.946 23.7684C13.5548 24.0452 12.1128 23.9031 10.8023 23.3603C9.49183 22.8175 8.37173 21.8983 7.58368 20.7189C6.79562 19.5394 6.375 18.1528 6.375 16.7344C6.37711 14.8329 7.13339 13.01 8.47792 11.6654C9.82245 10.3209 11.6454 9.56461 13.5469 9.5625Z" fill="white"/>
<path d="M10.3594 17.5313C10.8322 17.5313 11.2944 17.391 11.6875 17.1284C12.0807 16.8657 12.3871 16.4923 12.568 16.0555C12.749 15.6186 12.7963 15.138 12.7041 14.6742C12.6118 14.2105 12.3841 13.7845 12.0498 13.4502C11.7155 13.1159 11.2895 12.8882 10.8258 12.7959C10.362 12.7037 9.88135 12.751 9.44452 12.932C9.00769 13.1129 8.63433 13.4193 8.37164 13.8125C8.10896 14.2056 7.96875 14.6678 7.96875 15.1406C7.96875 15.7747 8.22062 16.3827 8.66895 16.8311C9.11728 17.2794 9.72534 17.5313 10.3594 17.5313ZM10.3594 14.3438C10.517 14.3438 10.671 14.3905 10.8021 14.478C10.9331 14.5656 11.0353 14.6901 11.0956 14.8357C11.1559 14.9813 11.1717 15.1415 11.1409 15.2961C11.1102 15.4507 11.0343 15.5927 10.9229 15.7041C10.8114 15.8155 10.6694 15.8914 10.5148 15.9222C10.3603 15.9529 10.2 15.9372 10.0544 15.8768C9.90881 15.8165 9.78436 15.7144 9.6968 15.5833C9.60924 15.4523 9.5625 15.2982 9.5625 15.1406C9.5625 14.9293 9.64646 14.7266 9.7959 14.5771C9.94534 14.4277 10.148 14.3438 10.3594 14.3438Z" fill="white"/>
<path d="M14.3438 18.3281C14.3438 18.8009 14.484 19.2631 14.7466 19.6563C15.0093 20.0494 15.3827 20.3558 15.8195 20.5368C16.2564 20.7177 16.737 20.7651 17.2008 20.6728C17.6645 20.5806 18.0905 20.3529 18.4248 20.0186C18.7591 19.6842 18.9868 19.2582 19.0791 18.7945C19.1713 18.3308 19.124 17.8501 18.943 17.4133C18.7621 16.9764 18.4557 16.6031 18.0625 16.3404C17.6694 16.0777 17.2072 15.9375 16.7344 15.9375C16.1003 15.9375 15.4923 16.1894 15.0439 16.6377C14.5956 17.086 14.3438 17.6941 14.3438 18.3281ZM17.5312 18.3281C17.5312 18.4857 17.4845 18.6398 17.397 18.7708C17.3094 18.9019 17.1849 19.004 17.0393 19.0643C16.8937 19.1247 16.7335 19.1404 16.5789 19.1097C16.4243 19.0789 16.2823 19.003 16.1709 18.8916C16.0595 18.7802 15.9836 18.6382 15.9528 18.4836C15.9221 18.329 15.9378 18.1688 15.9982 18.0232C16.0585 17.8776 16.1606 17.7531 16.2917 17.6655C16.4227 17.578 16.5768 17.5312 16.7344 17.5312C16.9457 17.5312 17.1484 17.6152 17.2979 17.7646C17.4473 17.9141 17.5312 18.1168 17.5312 18.3281Z" fill="white"/>
<path d="M9.69727 21.0786L16.0756 11.5168L17.4016 12.4014L11.0233 21.9631L9.69727 21.0786Z" fill="white"/>
</g>
</svg>
