<svg width="46" height="53" viewBox="0 0 46 53" fill="none" xmlns="http://www.w3.org/2000/svg">
<path d="M41.3471 0H24.4721C23.3536 0.00133975 22.2813 0.446244 21.4905 1.23712C20.6996 2.028 20.2547 3.10028 20.2533 4.21875V8.4375H8.44084C7.54574 8.4375 6.68729 8.79308 6.05436 9.42601C5.42142 10.0589 5.06584 10.9174 5.06584 11.8125V29.1811L1.09431 33.1535C0.936132 33.3117 0.847272 33.5263 0.847272 33.75C0.847272 33.9737 0.936132 34.1883 1.09431 34.3465L1.34153 34.5938L0.95003 34.9861C0.378559 35.5552 0.0408737 36.3176 0.00347455 37.1233C-0.0339246 37.9289 0.231672 38.7193 0.747963 39.3389C1.26425 39.9585 1.99382 40.3624 2.79298 40.4709C3.59215 40.5794 4.40299 40.3848 5.06584 39.9254V48.9375C5.06584 49.8326 5.42142 50.691 6.05436 51.324C6.68729 51.9569 7.54574 52.3125 8.44084 52.3125H28.6908C29.5859 52.3125 30.4444 51.9569 31.0773 51.324C31.7103 50.691 32.0658 49.8326 32.0658 48.9375V46.5058L33.3762 47.1614C33.4933 47.2199 33.6224 47.2504 33.7533 47.2504C33.8843 47.2504 34.0134 47.2199 34.1305 47.1614L38.0447 45.2039C39.0392 44.7105 39.8757 43.9484 40.4594 43.004C41.043 42.0596 41.3506 40.9706 41.3471 39.8604C41.347 38.9856 41.0875 38.1304 40.6014 37.403C40.1153 36.6757 39.4244 36.1087 38.6161 35.774C37.8079 35.4392 36.9185 35.3516 36.0604 35.5222C35.2024 35.6929 34.4142 36.1141 33.7955 36.7327L33.7533 36.7748L33.7103 36.7318C33.2452 36.2724 32.6834 35.9227 32.0658 35.7083V28.8908L38.2007 25.3125H41.3471C42.4656 25.3112 43.5378 24.8663 44.3287 24.0754C45.1196 23.2845 45.5645 22.2122 45.5658 21.0938V4.21875C45.5645 3.10028 45.1196 2.028 44.3287 1.23712C43.5378 0.446244 42.4656 0.00133975 41.3471 0ZM20.2533 11.8125H16.556L15.7123 10.125H20.2533V11.8125ZM9.56134 21.8649C9.38389 21.6875 9.28419 21.4468 9.28419 21.1958C9.28419 20.9449 9.38389 20.7042 9.56134 20.5267C9.7388 20.3493 9.97948 20.2496 10.2304 20.2496C10.4814 20.2496 10.7221 20.3493 10.8995 20.5267L19.9766 29.6038C20.109 29.7361 20.1992 29.9047 20.2357 30.0882C20.2722 30.2718 20.2535 30.462 20.1819 30.6349C20.1102 30.8078 19.9889 30.9556 19.8333 31.0595C19.6776 31.1635 19.4946 31.2189 19.3075 31.2188C19.1832 31.2192 19.06 31.195 18.9452 31.1475C18.8303 31.1 18.726 31.0302 18.6384 30.942L9.56134 21.8649ZM9.18165 23.8714L16.632 31.3217L11.1695 33.5998L6.90522 29.3338L9.18165 23.8714ZM10.1283 36.6306L13.9978 40.5L12.6596 41.8382L8.79015 37.9688L10.1283 36.6306ZM5.90959 30.7243L9.77903 34.5938L6.75334 37.6194L2.8839 33.75L5.90959 30.7243ZM3.23406 38.8125C2.92891 38.8126 2.63057 38.7223 2.3768 38.5528C2.12303 38.3833 1.92524 38.1424 1.80844 37.8605C1.69165 37.5785 1.6611 37.2683 1.72067 36.969C1.78024 36.6698 1.92725 36.3949 2.14309 36.1792L2.53459 35.7868L4.71653 37.9688L4.32503 38.3611C4.18199 38.5046 4.01194 38.6184 3.82469 38.6959C3.63744 38.7734 3.4367 38.813 3.23406 38.8125ZM33.156 38.5653C33.3176 38.7176 33.5312 38.8025 33.7533 38.8025C33.9754 38.8025 34.1891 38.7176 34.3507 38.5653L34.9886 37.9266C35.3712 37.544 35.8587 37.2834 36.3893 37.1779C36.92 37.0723 37.4701 37.1264 37.97 37.3334C38.4699 37.5403 38.8973 37.8909 39.198 38.3407C39.4987 38.7905 39.6594 39.3194 39.6596 39.8604C39.6624 40.6571 39.4419 41.4385 39.0231 42.1162C38.6044 42.7938 38.0041 43.3406 37.2903 43.6944L33.7533 45.4629L30.2163 43.6911C29.5031 43.3375 28.9032 42.7912 28.4845 42.1142C28.0657 41.4372 27.8449 40.6565 27.8471 39.8604C27.8473 39.3195 28.0079 38.7907 28.3085 38.3409C28.6091 37.8912 29.0363 37.5406 29.5361 37.3336C30.0359 37.1265 30.5858 37.0723 31.1165 37.1777C31.6471 37.2831 32.1345 37.5434 32.5172 37.9257L33.156 38.5653ZM30.3783 35.4586C29.2443 35.5098 28.1734 35.9955 27.3879 36.8151C26.6024 37.6347 26.1626 38.7252 26.1596 39.8604C26.1561 40.9706 26.4637 42.0596 27.0473 43.004C27.631 43.9484 28.4675 44.7105 29.462 45.2039L30.3783 45.6621V48.9375C30.3783 49.3851 30.2006 49.8143 29.8841 50.1307C29.5676 50.4472 29.1384 50.625 28.6908 50.625H8.44084C7.99329 50.625 7.56407 50.4472 7.2476 50.1307C6.93113 49.8143 6.75334 49.3851 6.75334 48.9375V39.6562C6.9771 39.6562 7.19168 39.5673 7.34987 39.409L7.59709 39.1618L12.0631 43.6278C12.2213 43.786 12.4359 43.8748 12.6596 43.8748C12.8833 43.8748 13.0979 43.786 13.2561 43.6278L15.7874 41.0965C15.9456 40.9383 16.0344 40.7237 16.0344 40.5C16.0344 40.2763 15.9456 40.0617 15.7874 39.9035L11.3214 35.4375L11.4505 35.3084L18.0317 32.5654C18.431 32.7925 18.883 32.9106 19.3424 32.9076C19.8018 32.9046 20.2522 32.7806 20.6485 32.5483C21.0447 32.3159 21.3728 31.9832 21.5996 31.5838C21.8265 31.1844 21.9442 30.7323 21.9408 30.2729C21.939 29.5749 21.6619 28.9057 21.1697 28.4108L12.0926 19.3337C11.6467 18.876 11.0492 18.5966 10.412 18.548C9.77485 18.4994 9.14184 18.6849 8.63168 19.0697C8.12152 19.4545 7.76924 20.0121 7.64091 20.6381C7.51257 21.2641 7.61699 21.9154 7.93459 22.4699L6.75334 25.3125V11.8125C6.75334 11.3649 6.93113 10.9357 7.2476 10.6193C7.56407 10.3028 7.99329 10.125 8.44084 10.125H13.8484C14.1125 10.7013 14.5589 11.5931 15.2828 13.0343C15.3528 13.1738 15.4601 13.2913 15.5928 13.3735C15.7255 13.4557 15.8785 13.4995 16.0346 13.5H20.2533V21.0938C20.2547 22.2122 20.6996 23.2845 21.4905 24.0754C22.2813 24.8663 23.3536 25.3112 24.4721 25.3125H29.0984L27.0734 30.0426C27.0046 30.2051 26.9885 30.3852 27.0274 30.5573C27.0663 30.7295 27.1582 30.8852 27.2902 31.0024C27.4222 31.1195 27.5877 31.1924 27.7633 31.2106C27.9388 31.2289 28.1157 31.1916 28.269 31.104L30.3783 29.8755V35.4586ZM43.8783 21.0938C43.8783 21.7651 43.6117 22.4089 43.137 22.8836C42.6623 23.3583 42.0184 23.625 41.3471 23.625H37.9721C37.8238 23.6255 37.6783 23.6651 37.5502 23.7397L29.6291 28.3584L31.1537 24.8012C31.2088 24.6729 31.2311 24.5329 31.2187 24.3938C31.2063 24.2547 31.1595 24.1209 31.0827 24.0043C31.0058 23.8878 30.9013 23.7921 30.7783 23.7259C30.6554 23.6597 30.518 23.625 30.3783 23.625H24.4721C23.8008 23.625 23.1569 23.3583 22.6822 22.8836C22.2075 22.4089 21.9408 21.7651 21.9408 21.0938V4.21875C21.9408 3.54742 22.2075 2.90359 22.6822 2.42889C23.1569 1.95418 23.8008 1.6875 24.4721 1.6875H41.3471C42.0184 1.6875 42.6623 1.95418 43.137 2.42889C43.6117 2.90359 43.8783 3.54742 43.8783 4.21875V21.0938Z" fill="white" fill-opacity="0.55"/>
<path d="M37.9727 10.125H37.4546C37.7981 9.03295 37.9728 7.89482 37.9727 6.75C37.9727 6.07867 37.706 5.43484 37.2313 4.96014C36.7566 4.48543 36.1127 4.21875 35.4414 4.21875C34.7701 4.21875 34.1262 4.48543 33.6515 4.96014C33.1768 5.43484 32.9102 6.07867 32.9102 6.75C32.9109 7.15016 32.8213 7.54533 32.648 7.90603C32.4747 8.26673 32.2223 8.58367 31.9095 8.83322L30.9982 9.56222C30.9206 9.47445 30.8253 9.40405 30.7186 9.35564C30.6118 9.30722 30.4961 9.28187 30.3789 9.28125H25.3164C25.0926 9.28125 24.878 9.37014 24.7198 9.52838C24.5616 9.68661 24.4727 9.90122 24.4727 10.125V18.5625C24.4727 18.7863 24.5616 19.0009 24.7198 19.1591C24.878 19.3174 25.0926 19.4062 25.3164 19.4062H30.3789C30.6027 19.4062 30.8173 19.3174 30.9755 19.1591C31.1338 19.0009 31.2227 18.7863 31.2227 18.5625C32.2089 19.1174 33.3218 19.4081 34.4534 19.4062H37.9727C38.8678 19.4062 39.7262 19.0507 40.3591 18.4177C40.9921 17.7848 41.3477 16.9264 41.3477 16.0312V13.5C41.3477 12.6049 40.9921 11.7464 40.3591 11.1135C39.7262 10.4806 38.8678 10.125 37.9727 10.125ZM29.5352 17.7188H26.1602V10.9688H29.5352V17.7188ZM39.6602 16.0312C39.6602 16.4788 39.4824 16.908 39.1659 17.2245C38.8494 17.541 38.4202 17.7188 37.9727 17.7188H34.4534C33.2643 17.7204 32.1156 17.2881 31.2227 16.5029V11.5425L32.9633 10.1503C33.4744 9.74339 33.8869 9.22617 34.1699 8.63734C34.453 8.04851 34.5992 7.40331 34.5977 6.75C34.5977 6.52622 34.6866 6.31161 34.8448 6.15338C35.003 5.99514 35.2176 5.90625 35.4414 5.90625C35.6652 5.90625 35.8798 5.99514 36.038 6.15338C36.1963 6.31161 36.2852 6.52622 36.2852 6.75C36.2858 7.777 36.1202 8.79734 35.7949 9.77147L35.4844 10.6996C35.4417 10.8266 35.4298 10.9619 35.4498 11.0944C35.4697 11.2269 35.521 11.3528 35.5992 11.4615C35.6775 11.5703 35.7805 11.6589 35.8998 11.7199C36.0191 11.7809 36.1512 11.8127 36.2852 11.8125H37.9727C38.4202 11.8125 38.8494 11.9903 39.1659 12.3068C39.4824 12.6232 39.6602 13.0524 39.6602 13.5V16.0312Z" fill="white" fill-opacity="0.55"/>
</svg>
