<svg width="52" height="52" viewBox="0 0 52 52" fill="none" xmlns="http://www.w3.org/2000/svg">
<g clip-path="url(#clip0_4853_922)">
<path d="M43.0625 22.0553V20.3125H41.4375V22.0553C40.4991 22.3527 39.8125 23.2213 39.8125 24.2564C39.8125 25.1396 40.3032 25.935 41.0946 26.3307L42.679 27.1221C42.9154 27.2407 43.0625 27.4787 43.0625 27.7436C43.0625 28.1263 42.7513 28.4375 42.3686 28.4375H42.1314C41.7487 28.4375 41.4375 28.1263 41.4375 27.7436V26.8125H39.8125V27.7436C39.8125 28.7788 40.4991 29.6473 41.4375 29.9447V31.6875H43.0625V29.9447C44.0009 29.6473 44.6875 28.7788 44.6875 27.7436C44.6875 26.8604 44.1968 26.065 43.4054 25.6693L41.821 24.8779C41.5846 24.7593 41.4375 24.5213 41.4375 24.2564C41.4375 23.8737 41.7487 23.5625 42.1314 23.5625H42.3686C42.7513 23.5625 43.0625 23.8737 43.0625 24.2564V24.375H44.6875V24.2564C44.6875 23.2213 44.0009 22.3527 43.0625 22.0553Z" fill="white" fill-opacity="0.55"/>
<path d="M51.1875 26C51.1875 22.3933 49.0352 19.2855 45.9518 17.875C49.0352 16.4645 51.1875 13.3567 51.1875 9.75C51.1875 4.82219 47.1778 0.8125 42.25 0.8125C37.596 0.8125 33.7659 4.38912 33.3539 8.9375H23.8079C21.4321 8.9375 19.5 10.8696 19.5 13.2454V14.625H21.125V13.2454C21.125 11.7658 22.3283 10.5625 23.8079 10.5625H33.3531C33.6481 13.8198 35.6988 16.5717 38.5482 17.875C35.6988 19.1782 33.6489 21.9302 33.3531 25.1875H28.3644C27.976 22.8857 25.974 21.125 23.5625 21.125V18.6875C23.5625 17.3436 22.4689 16.25 21.125 16.25H19.5C18.1561 16.25 17.0625 17.3436 17.0625 18.6875V18.9816C15.1653 19.8502 13.0788 20.3125 10.9915 20.3125H4.875C2.63494 20.3125 0.8125 22.1349 0.8125 24.375V27.625C0.8125 29.5864 2.21081 31.2276 4.0625 31.6054V39.429C4.0625 40.9841 5.32837 42.25 6.8835 42.25H9.3665C10.9216 42.25 12.1875 40.9841 12.1875 39.429C12.1875 38.3532 11.5895 37.3864 10.6283 36.9062L10.5625 36.8729V31.6875H10.9915C13.0788 31.6875 15.1653 32.1498 17.0625 33.0184V33.3125C17.0625 34.6564 18.1561 35.75 19.5 35.75H21.125C22.4689 35.75 23.5625 34.6564 23.5625 33.3125V30.875C25.9732 30.875 27.9752 29.1143 28.3644 26.8125H33.3539C33.6489 30.0698 35.6996 32.8218 38.5491 34.125C35.6996 35.4282 33.6497 38.1802 33.3539 41.4375H23.8079C22.3283 41.4375 21.125 40.2342 21.125 38.7546V37.375H19.5V38.7546C19.5 41.1304 21.4321 43.0625 23.8079 43.0625H33.3531C33.7659 47.6109 37.596 51.1875 42.25 51.1875C47.1778 51.1875 51.1875 47.1778 51.1875 42.25C51.1875 38.6433 49.0352 35.5355 45.9518 34.125C49.0352 32.7145 51.1875 29.6067 51.1875 26ZM2.4375 27.625V24.375C2.4375 23.0311 3.53113 21.9375 4.875 21.9375H5.6875V30.0625H4.875C3.53113 30.0625 2.4375 28.9689 2.4375 27.625ZM9.90194 38.3589C10.309 38.5629 10.5625 38.9724 10.5625 39.429C10.5625 40.0879 10.0254 40.625 9.3665 40.625H6.8835C6.22456 40.625 5.6875 40.0879 5.6875 39.429V31.6875H8.9375V37.8771L9.90194 38.3589ZM10.9915 30.0625H7.3125V21.9375H10.9915C13.065 21.9375 15.1385 21.5256 17.0625 20.7496V31.2504C15.1385 30.4744 13.065 30.0625 10.9915 30.0625ZM21.9375 33.3125C21.9375 33.7602 21.5727 34.125 21.125 34.125H19.5C19.0523 34.125 18.6875 33.7602 18.6875 33.3125V18.6875C18.6875 18.2398 19.0523 17.875 19.5 17.875H21.125C21.5727 17.875 21.9375 18.2398 21.9375 18.6875V33.3125ZM23.5625 29.25V22.75C25.3549 22.75 26.8125 24.2076 26.8125 26C26.8125 27.7924 25.3549 29.25 23.5625 29.25ZM42.25 2.4375C46.2816 2.4375 49.5625 5.71838 49.5625 9.75C49.5625 11.1304 49.1709 12.4183 48.503 13.5208C47.5767 12.3914 46.3824 11.5546 45.0377 11.0646C45.8193 10.3236 46.3125 9.28362 46.3125 8.125C46.3125 5.88494 44.4901 4.0625 42.25 4.0625C40.0099 4.0625 38.1875 5.88494 38.1875 8.125C38.1875 9.28362 38.6807 10.3236 39.4615 11.0646C38.1176 11.5546 36.9233 12.3914 35.9962 13.5208C35.3291 12.4183 34.9375 11.1304 34.9375 9.75C34.9375 5.71838 38.2184 2.4375 42.25 2.4375ZM39.8125 8.125C39.8125 6.78113 40.9061 5.6875 42.25 5.6875C43.5939 5.6875 44.6875 6.78113 44.6875 8.125C44.6875 9.46887 43.5939 10.5625 42.25 10.5625C40.9061 10.5625 39.8125 9.46887 39.8125 8.125ZM37.024 14.8541C38.246 13.1796 40.1538 12.1875 42.25 12.1875C44.3462 12.1875 46.254 13.1796 47.476 14.8541C46.1476 16.2142 44.2967 17.0625 42.25 17.0625C40.2033 17.0625 38.3524 16.2142 37.024 14.8541ZM42.25 49.5625C40.2033 49.5625 38.3524 48.7143 37.024 47.3541C38.246 45.6796 40.1538 44.6875 42.25 44.6875C44.3462 44.6875 46.254 45.6796 47.476 47.3541C46.1476 48.7143 44.2967 49.5625 42.25 49.5625ZM39.8125 40.625C39.8125 39.2811 40.9061 38.1875 42.25 38.1875C43.5939 38.1875 44.6875 39.2811 44.6875 40.625C44.6875 41.9689 43.5939 43.0625 42.25 43.0625C40.9061 43.0625 39.8125 41.9689 39.8125 40.625ZM49.5625 42.25C49.5625 43.6304 49.1709 44.9182 48.503 46.0208C47.5767 44.8914 46.3824 44.0546 45.0377 43.5646C45.8193 42.8236 46.3125 41.7836 46.3125 40.625C46.3125 38.3849 44.4901 36.5625 42.25 36.5625C40.0099 36.5625 38.1875 38.3849 38.1875 40.625C38.1875 41.7836 38.6807 42.8236 39.4615 43.5646C38.1176 44.0546 36.9233 44.8914 35.9962 46.0208C35.3291 44.9182 34.9375 43.6304 34.9375 42.25C34.9375 38.2184 38.2184 34.9375 42.25 34.9375C46.2816 34.9375 49.5625 38.2184 49.5625 42.25ZM42.25 33.3125C38.2184 33.3125 34.9375 30.0316 34.9375 26C34.9375 21.9684 38.2184 18.6875 42.25 18.6875C46.2816 18.6875 49.5625 21.9684 49.5625 26C49.5625 30.0316 46.2816 33.3125 42.25 33.3125Z" fill="white" fill-opacity="0.55"/>
</g>
<defs>
<clipPath id="clip0_4853_922">
<rect width="52" height="52" fill="white"/>
</clipPath>
</defs>
</svg>
