<svg width="48" height="48" viewBox="0 0 48 48" fill="none" xmlns="http://www.w3.org/2000/svg">
<path fill-rule="evenodd" clip-rule="evenodd" d="M16.7418 8.098C16.6724 8.10065 16.6033 8.08928 16.5385 8.06458C16.4737 8.03988 16.4145 8.00235 16.3645 7.95424C16.3145 7.90614 16.2748 7.84844 16.2476 7.78461C16.2205 7.72078 16.2065 7.65212 16.2065 7.58275C16.2065 7.51339 16.2205 7.44473 16.2476 7.3809C16.2748 7.31707 16.3145 7.25937 16.3645 7.21127C16.4145 7.16316 16.4737 7.12563 16.5385 7.10093C16.6033 7.07623 16.6724 7.06486 16.7418 7.0675H39.1761C39.2455 7.06486 39.3146 7.07623 39.3794 7.10093C39.4442 7.12563 39.5034 7.16316 39.5534 7.21127C39.6034 7.25937 39.6431 7.31707 39.6703 7.3809C39.6974 7.44473 39.7114 7.51339 39.7114 7.58275C39.7114 7.65212 39.6974 7.72078 39.6703 7.78461C39.6431 7.84844 39.6034 7.90614 39.5534 7.95424C39.5034 8.00235 39.4442 8.03988 39.3794 8.06458C39.3146 8.08928 39.2455 8.10065 39.1761 8.098H16.7418ZM13.0849 7.0675C13.1868 7.06789 13.2863 7.09846 13.3708 7.15536C13.4553 7.21225 13.5211 7.29292 13.5598 7.38717C13.5986 7.48142 13.6085 7.58503 13.5884 7.68492C13.5683 7.78482 13.519 7.87651 13.4468 7.94842C13.3746 8.02034 13.2827 8.06925 13.1828 8.08899C13.0828 8.10872 12.9792 8.0984 12.8851 8.05931C12.791 8.02023 12.7106 7.95414 12.654 7.86939C12.5975 7.78464 12.5673 7.68503 12.5673 7.58313C12.5673 7.51525 12.5807 7.44804 12.6067 7.38535C12.6327 7.32266 12.6709 7.26574 12.719 7.21783C12.7671 7.16992 12.8241 7.13198 12.8869 7.10619C12.9497 7.08039 13.017 7.06724 13.0849 7.0675ZM9.93983 7.0675C10.0417 7.06789 10.1412 7.09846 10.2258 7.15536C10.3103 7.21225 10.3761 7.29292 10.4148 7.38717C10.4535 7.48142 10.4635 7.58503 10.4433 7.68492C10.4232 7.78482 10.374 7.87651 10.3018 7.94842C10.2296 8.02034 10.1377 8.06925 10.0377 8.08899C9.93776 8.10872 9.83419 8.0984 9.74009 8.05931C9.64598 8.02023 9.56557 7.95414 9.509 7.86939C9.45243 7.78464 9.42224 7.68503 9.42223 7.58313C9.42223 7.51525 9.43564 7.44804 9.46167 7.38535C9.48771 7.32266 9.52586 7.26574 9.57395 7.21783C9.62204 7.16992 9.67912 7.13198 9.7419 7.10619C9.80469 7.08039 9.87195 7.06724 9.93983 7.0675ZM6.7948 7.0675C6.89669 7.06789 6.99619 7.09846 7.08072 7.15536C7.16526 7.21225 7.23104 7.29292 7.26977 7.38717C7.30849 7.48142 7.31842 7.58503 7.2983 7.68492C7.27819 7.78482 7.22892 7.87651 7.15673 7.94842C7.08455 8.02034 6.99267 8.06925 6.8927 8.08899C6.79273 8.10872 6.68916 8.0984 6.59505 8.05931C6.50095 8.02023 6.42054 7.95414 6.36397 7.86939C6.3074 7.78464 6.2772 7.68503 6.2772 7.58313C6.2772 7.51525 6.2906 7.44804 6.31664 7.38535C6.34268 7.32266 6.38083 7.26574 6.42892 7.21783C6.47701 7.16992 6.53409 7.13198 6.59687 7.10619C6.65966 7.08039 6.72692 7.06724 6.7948 7.0675ZM44.4811 24.5435C44.5467 24.5267 44.608 24.5103 44.6597 24.4951C44.9937 24.3965 45.2409 24.0495 45.3713 23.5682C45.7015 22.3469 45.1892 20.6072 44.2488 19.7607C43.8775 19.4265 43.48 19.2692 43.1456 19.368C43.0922 19.3837 43.0331 19.4029 42.9703 19.4237L44.4811 24.5435ZM41.8433 19.2364L45.006 29.9547C45.0687 30.1667 45.0447 30.395 44.9391 30.5893C44.8335 30.7836 44.6551 30.928 44.4431 30.9908C44.231 31.0535 44.0027 31.0295 43.8084 30.9239C43.6141 30.8183 43.4697 30.6399 43.407 30.4278L39.2076 16.1966C39.1468 15.9851 39.1719 15.7582 39.2777 15.5652C39.3835 15.3722 39.5613 15.2289 39.7723 15.1665C39.9833 15.104 40.2105 15.1276 40.4042 15.2319C40.598 15.3363 40.7426 15.5131 40.8065 15.7236L41.8431 19.2364H41.8433ZM31.4005 23.1965L33.0476 28.7783C33.7128 28.7522 34.526 28.8147 35.8226 28.9576L42.1117 29.6701L38.5421 17.5727C36.912 18.9023 35.2842 20.2685 33.6382 21.5738C32.6323 22.3745 31.9789 22.8593 31.401 23.1967L31.4005 23.1965ZM32.0135 28.9059C30.9933 29.1215 29.9142 29.534 28.9079 29.8406C28.0475 30.0944 27.0956 29.6613 26.8454 28.8124L26.1824 26.5656C25.9313 25.715 26.4937 24.8366 27.3558 24.5822C28.3298 24.2947 29.724 23.9382 30.4629 23.65L32.0138 28.9059H32.0135ZM30.794 30.3225L32.294 33.0724C32.4552 33.3679 32.5963 33.4631 32.9097 33.3508C33.1459 33.2664 34.0986 33.0133 34.1191 32.9618L32.399 29.8861C31.9242 29.9672 31.4553 30.1111 30.7948 30.3225H30.794ZM8.09286 35.9614H20.7705C20.3935 33.4917 19.5473 32.4404 17.8467 30.4763C16.6373 29.0794 15.4038 27.6544 14.8085 25.6143L14.4992 24.4677C14.1463 22.8801 14.1119 22.7247 15.2104 23.6887C15.874 24.2738 16.8885 25.2341 17.6534 25.5558C18.3565 25.8512 19.0092 25.7081 19.7503 26.0201C20.5853 26.3717 21.1292 27.253 22.0384 26.9189C22.442 26.7705 22.8042 26.423 23.081 26.0023C23.3153 25.6467 23.2887 25.4073 23.0851 24.9474C22.4202 23.4452 21.145 22.0572 20.4055 20.424C20.1708 19.8875 19.9664 19.3383 19.7932 18.7789C19.7142 18.5258 19.05 18.3496 18.6896 18.1857C17.8981 17.8259 17.8982 17.8258 18.3829 17.0503L18.934 16.1685C16.6885 15.2694 14.2801 15.3965 12.0467 16.4153C7.8762 18.3172 5.51989 22.9673 6.10386 27.4946C6.24283 28.5676 6.5423 29.6137 6.99223 30.5977C7.46806 31.6811 7.8122 32.8177 8.0173 33.9831C8.12452 34.6368 8.14991 35.3013 8.09286 35.9613V35.9614ZM7.03039 39.5471H21.7414V37.4523C21.7414 37.1777 21.3066 36.992 20.968 36.992H7.80364C7.46502 36.992 7.03039 37.1777 7.03039 37.4523V39.5471ZM22.1639 40.5777H6.43527C6.04589 40.5791 5.67287 40.7345 5.39753 41.0098C5.12218 41.2851 4.96684 41.6581 4.96536 42.0475V43.5173H23.6337V42.0475C23.6322 41.6581 23.4769 41.2851 23.2016 41.0098C22.9262 40.7345 22.5533 40.5792 22.1639 40.5777ZM5.9998 38.8464V39.5853L5.67036 39.6673C5.16714 39.8305 4.72836 40.1485 4.41668 40.576C4.105 41.0035 3.93637 41.5185 3.93486 42.0475V44.0327C3.93486 44.1694 3.98918 44.3006 4.08588 44.3973C4.18258 44.494 4.31373 44.5483 4.45048 44.5483H24.149C24.2857 44.5483 24.4169 44.494 24.5136 44.3973C24.6103 44.3006 24.6646 44.1694 24.6646 44.0327V42.0475C24.663 41.4906 24.4762 40.95 24.1336 40.511C23.791 40.0719 23.3121 39.7593 22.7723 39.6223V38.8464H42.5837C43.0826 38.8453 43.5608 38.6465 43.9137 38.2937C44.2665 37.9409 44.4652 37.4627 44.4664 36.9637V32.0348C44.7309 31.9969 44.9842 31.9025 45.2091 31.7582C45.434 31.6138 45.6253 31.4228 45.77 31.1981C45.9147 30.9734 46.0094 30.7202 46.0477 30.4558C46.0861 30.1913 46.0672 29.9216 45.9922 29.6651L44.7724 25.5307C44.8286 25.5159 44.8865 25.4998 44.9495 25.4812C45.6527 25.2738 46.1424 24.6593 46.3656 23.8338C46.8397 22.0802 46.0196 19.5831 44.4664 18.6436V5.33416C44.4652 4.83522 44.2664 4.35706 43.9136 4.00428C43.5608 3.65149 43.0826 3.4528 42.5837 3.45166H2.76636C2.43122 3.45225 2.10997 3.58565 1.87298 3.82262C1.63599 4.05959 1.50257 4.38083 1.50195 4.71597V36.9637C1.50307 37.4628 1.70184 37.9411 2.05478 38.2939C2.40771 38.6468 2.88605 38.8454 3.38511 38.8464H5.9998ZM43.4358 10.9779V18.3119C43.1777 18.3024 42.9204 18.3451 42.6791 18.4372L41.793 15.4343C41.3285 13.8601 39.1695 13.6103 38.3742 15.0716C38.2552 15.2885 38.1809 15.527 38.1556 15.7731C38.1303 16.0192 38.1544 16.2679 38.2267 16.5045L33.0118 20.7583C30.368 22.88 30.2248 22.6647 27.0654 23.5968C25.6607 24.0113 24.783 25.4572 25.1959 26.8565L25.8589 29.1032C26.2722 30.5039 27.7915 31.2417 29.1975 30.8269L29.7975 30.6408L31.3912 33.5643C32.0402 34.7545 32.7023 34.5178 33.2541 34.32L34.3229 33.9996C35.0332 33.7902 35.3302 33.0312 34.9678 32.3822L33.5305 29.8081C34.0759 29.816 34.7501 29.8746 35.7096 29.9803L42.4278 30.7413C42.5055 30.9921 42.6356 31.2236 42.8093 31.4205C42.983 31.6174 43.1964 31.7753 43.4356 31.8838V36.964C43.4346 37.1897 43.3445 37.4058 43.1849 37.5654C43.0253 37.725 42.8092 37.8151 42.5835 37.8161H22.772V37.4525C22.772 36.8606 22.368 36.3847 21.8345 36.1444C21.6828 35.0449 21.493 34.0943 20.9749 33.0455C19.6184 30.2999 16.9136 28.6421 15.8919 25.6366C17.7904 27.1527 18.4548 26.5889 19.3513 26.9663C19.6888 27.1083 20.1302 27.5091 20.5492 27.7356C21.8934 28.4622 23.1805 27.7174 23.9379 26.5661C24.3741 25.903 24.3706 25.3098 24.0266 24.533C23.3197 22.936 22.0485 21.5592 21.3429 20.0015C21.1273 19.5094 20.9393 19.0057 20.7798 18.4927C20.5785 17.7998 19.9811 17.5866 19.3991 17.3649L19.9522 16.4795C20.4448 15.6914 20.4448 15.6914 19.5866 15.3286C18.0485 14.6778 16.4476 14.3808 14.691 14.6073C7.14336 15.581 2.87005 24.0348 6.05839 31.0249C6.46527 31.9169 6.82489 33.1573 7.00695 34.1643C7.1076 34.8038 7.12232 35.4539 7.05073 36.0973C6.4648 36.319 5.9998 36.8154 5.9998 37.4523V37.8158H3.38511C3.15942 37.8148 2.94324 37.7247 2.78364 37.5652C2.62404 37.4056 2.53393 37.1894 2.53292 36.9637V10.9779H43.4358ZM2.53264 9.94741H43.4358V5.33416C43.4348 5.10846 43.3447 4.89227 43.1851 4.73267C43.0255 4.57306 42.8094 4.48296 42.5837 4.48197H2.76636C2.70453 4.48249 2.64538 4.50728 2.60166 4.551C2.55794 4.59472 2.53315 4.65386 2.53264 4.71569V9.94741Z" fill="white" fill-opacity="0.55"/>
</svg>
