<svg width="56" height="56" viewBox="0 0 56 56" fill="none" xmlns="http://www.w3.org/2000/svg">
<g opacity="0.55" clip-path="url(#clip0_4853_930)">
<path d="M55.4248 8.84207C56.1894 8.07207 56.1894 6.81754 55.4227 6.04535L54.307 4.92863C53.5348 4.15645 52.277 4.15645 51.5048 4.92863L47.2644 9.17019V3.59973C47.2644 1.89566 45.8775 0.508789 44.1734 0.508789H18.1881C16.4841 0.508789 15.0972 1.89566 15.0972 3.59973V29.9143L9.0225 33.7664L4.34016 35.021C1.22407 35.8544 -0.634215 39.07 0.199223 42.1916L0.583129 43.6168C0.986723 45.1229 1.95688 46.3839 3.31422 47.1671C4.21985 47.6899 5.22282 47.9579 6.23672 47.9568C6.7311 47.9568 7.22766 47.8933 7.71657 47.7643L9.46 54.2754C9.65907 55.006 10.3284 55.4905 11.0569 55.4905C11.1958 55.4905 11.338 55.473 11.4791 55.4358L13.9794 54.7643C14.4038 54.6527 14.7592 54.3814 14.9813 54.0008C15.2033 53.6191 15.2634 53.1739 15.1508 52.7463L13.4872 46.5447L20.7158 46.8444L20.9345 47.6593C21.2889 48.9849 22.492 49.861 23.8056 49.861C24.0594 49.861 24.3175 49.8282 24.5745 49.7593C25.338 49.5525 25.9767 49.0604 26.3738 48.3735C26.7708 47.6844 26.8758 46.8849 26.6702 46.1225L25.8411 43.0283H44.1734C45.8775 43.0283 47.2644 41.6414 47.2644 39.9374V37.3233H51.2948C52.37 37.3233 53.245 36.4483 53.245 35.3732V26.1211C53.245 25.0438 52.37 24.1677 51.2948 24.1677H47.2644V17.0025L55.4248 8.84207ZM45.7408 16.0532L42.0975 19.6964L40.6559 18.2527L50.783 8.12348L52.2267 9.56723L45.8053 15.9886C45.7823 16.0083 45.7616 16.0302 45.7408 16.0532ZM39.9067 19.9764L40.3727 20.4424L39.7612 20.5879L39.9067 19.9764ZM53.07 6.16566L54.1834 7.28019C54.272 7.36988 54.272 7.52082 54.1856 7.60832L53.4627 8.33129L52.0189 6.88754L52.7397 6.16676C52.8294 6.07598 52.9803 6.07598 53.07 6.16566ZM4.18922 45.6533C3.23657 45.1032 2.55516 44.2183 2.27297 43.1629L1.88907 41.7388C1.305 39.5502 2.60657 37.2949 4.79297 36.7108L8.76 35.6477L11.2647 45.0047L8.11032 45.8513L7.30094 46.0689C6.24657 46.3511 5.14188 46.2035 4.18922 45.6533ZM11.1225 53.7219L9.40641 47.3136L11.7175 46.6935L13.4358 53.1007L11.1225 53.7219ZM13.0136 44.7761L10.3886 34.9707L16.4458 31.1316C16.4523 31.1272 16.4589 31.1239 16.4655 31.1196L16.4972 31.0999L20.2433 45.0758L13.0136 44.7761ZM24.8578 47.4996C24.6938 47.7839 24.4313 47.9863 24.1195 48.0705C23.8067 48.1536 23.4775 48.1099 23.1931 47.9458C22.9088 47.7818 22.7064 47.5193 22.6233 47.2064L22.2416 45.7813C22.2405 45.7747 22.2383 45.7682 22.2361 45.7627L17.4925 28.0625C17.3186 27.4107 17.7058 26.7402 18.3555 26.5663C18.4616 26.5379 18.5677 26.5247 18.6716 26.5247C19.2119 26.5247 19.7063 26.8846 19.8517 27.4304L21.7548 34.5375C21.7559 34.543 21.757 34.5474 21.7581 34.5529C21.7592 34.5583 21.7614 34.5627 21.7625 34.5671L24.9792 46.5775C25.0656 46.8882 25.0219 47.2163 24.8578 47.4996ZM23.6755 34.9433L25.385 34.485C26.4175 34.2083 27.1525 34.8853 27.4303 35.686C27.6502 36.5643 27.1241 37.4644 26.248 37.7007L24.5363 38.1579L23.6755 34.9433ZM51.4961 26.1211V35.3732C51.4961 35.4825 51.4042 35.5744 51.2948 35.5744H37.9106C37.8002 35.5744 37.7061 35.4825 37.7061 35.3732V26.1211C37.7061 26.0118 37.8013 25.9166 37.9106 25.9166H51.2948C51.4042 25.9166 51.4961 26.0107 51.4961 26.1211ZM45.5155 24.1677H37.9106C36.8333 24.1677 35.9572 25.0438 35.9572 26.1211V35.3732C35.9572 36.4483 36.8333 37.3233 37.9106 37.3233H45.5155V39.9374C45.5155 40.6779 44.9128 41.2794 44.1734 41.2794H25.3719L24.988 39.8466L26.6997 39.3894C28.5142 38.9016 29.597 37.0269 29.1125 35.2102C29.1081 35.1927 29.1027 35.1763 29.0972 35.1588C28.4803 33.3082 26.7281 32.3139 24.9311 32.7963L23.2216 33.2546L21.5405 26.9786C21.1172 25.3971 19.4853 24.4543 17.9027 24.8775C17.5056 24.9836 17.1502 25.1652 16.845 25.4036V3.59973C16.845 2.85926 17.4477 2.2577 18.187 2.2577H44.1712C44.9117 2.2577 45.5133 2.86035 45.5133 3.59973V10.9191L38.7998 17.6347C38.6861 17.7485 38.6052 17.8929 38.568 18.0493L37.728 21.5646C37.6569 21.8599 37.7455 22.1705 37.9598 22.386C38.1261 22.5522 38.3492 22.6419 38.5789 22.6419C38.6467 22.6419 38.7145 22.6343 38.7812 22.6179L42.2998 21.7811C42.4573 21.7439 42.6017 21.663 42.7155 21.5493L45.5144 18.7504V24.1677H45.5155ZM19.9031 7.0877C19.9031 6.60426 20.2947 6.21379 20.777 6.21379H41.5834C42.0669 6.21379 42.4573 6.60535 42.4573 7.0877C42.4573 7.57004 42.0658 7.9616 41.5834 7.9616H20.777C20.2947 7.9627 19.9031 7.57113 19.9031 7.0877ZM38.6795 15.3007H20.777C20.2936 15.3007 19.9031 14.9091 19.9031 14.4268C19.9031 13.9444 20.2947 13.5529 20.777 13.5529H38.6784C39.1608 13.5529 39.5523 13.9444 39.5523 14.4268C39.5523 14.9091 39.1619 15.3007 38.6795 15.3007ZM36.1366 21.768C36.1366 22.2504 35.745 22.6419 35.2627 22.6419H20.777C20.2947 22.6419 19.9031 22.2504 19.9031 21.768C19.9031 21.2857 20.2947 20.8941 20.777 20.8941H35.2616C35.745 20.8941 36.1366 21.2857 36.1366 21.768ZM34.4314 29.1104C34.4314 29.5927 34.0398 29.9843 33.5575 29.9843H24.5975C24.1152 29.9843 23.7236 29.5927 23.7236 29.1104C23.7236 28.628 24.1152 28.2364 24.5975 28.2364H33.5575C34.0398 28.2354 34.4314 28.6269 34.4314 29.1104ZM42.3644 26.7708C41.8711 27.0005 41.5648 27.4829 41.5648 28.0286V33.4635C41.5648 34.0093 41.8711 34.4905 42.3589 34.718C42.5525 34.8099 42.7581 34.8547 42.9605 34.8547C43.2755 34.8547 43.585 34.7453 43.8355 34.5343L47.1342 31.8185C47.1375 31.8163 47.1397 31.813 47.143 31.8108C47.4623 31.5407 47.6384 31.1622 47.6384 30.7466C47.6384 30.3222 47.4591 29.9416 47.1342 29.6747L43.8377 26.9579C43.4198 26.61 42.8544 26.5389 42.3644 26.7708ZM43.3137 32.6989V28.7921L45.685 30.7466L43.3137 32.6989Z" fill="white"/>
</g>
<defs>
<clipPath id="clip0_4853_930">
<rect width="56" height="56" fill="white"/>
</clipPath>
</defs>
</svg>
