<svg width="49" height="46" viewBox="0 0 49 46" fill="none" xmlns="http://www.w3.org/2000/svg">
<path fill-rule="evenodd" clip-rule="evenodd" d="M3.42903 1.10998C2.15048 1.10998 1.10992 2.15057 1.10992 3.43006V32.1732C1.10992 33.4526 2.15045 34.4932 3.42893 34.4932L45.0392 34.4932C46.3178 34.4932 47.3582 33.4526 47.3582 32.1732L47.3584 3.43006C47.3584 2.15057 46.3176 1.11001 45.0391 1.11001L3.42903 1.10998ZM45.0393 35.603H3.42903C1.53872 35.603 0 34.0643 0 32.1731V3.42993C0 1.53862 1.53862 0 3.42893 0H45.0392C46.9304 0 48.4681 1.53862 48.4681 3.42993L48.4683 32.173C48.4683 34.0643 46.9305 35.603 45.0393 35.603Z" fill="white" fill-opacity="0.55"/>
<path fill-rule="evenodd" clip-rule="evenodd" d="M4.54549 31.0575H43.9226V4.54571H4.54549V31.0575ZM44.4775 32.1674H3.99054C3.68422 32.1674 3.43555 31.9188 3.43555 31.6124L3.43558 3.99075C3.43558 3.68437 3.68409 3.43582 3.9905 3.43582L44.4775 3.43579C44.7838 3.43579 45.0323 3.6844 45.0323 3.99078L45.0325 31.6124C45.0325 31.9188 44.7838 32.1674 44.4775 32.1674Z" fill="white" fill-opacity="0.55"/>
<path fill-rule="evenodd" clip-rule="evenodd" d="M13.6765 44.6905H34.792L30.9322 35.6031H28.4427L30.8763 41.3328C30.9487 41.5034 30.9302 41.6999 30.8281 41.856C30.7252 42.0111 30.5516 42.1046 30.3647 42.1046L18.1036 42.1045C17.9167 42.1045 17.7432 42.0111 17.6401 41.856C17.5382 41.6999 17.5197 41.5034 17.593 41.3328L20.0258 35.6031H17.5363L13.6765 44.6905ZM35.63 45.7994H12.8384C12.6524 45.7994 12.4779 45.707 12.3748 45.5509C12.2728 45.3957 12.2544 45.1992 12.3276 45.0277L16.6585 34.8304C16.7452 34.6261 16.9465 34.4932 17.169 34.4932L20.8649 34.4932C21.0509 34.4932 21.2252 34.5866 21.3273 34.7417C21.4305 34.8968 21.4488 35.0934 21.3755 35.2649L18.9419 40.9946H29.5266L27.0928 35.2649C27.0206 35.0934 27.0378 34.8969 27.1409 34.7417C27.2441 34.5866 27.4174 34.4932 27.6034 34.4932L31.2994 34.4932C31.5218 34.4932 31.7232 34.6261 31.8099 34.8304L36.1416 45.0277C36.214 45.1992 36.1956 45.3958 36.0935 45.5509C35.9906 45.7069 35.817 45.7995 35.63 45.7994Z" fill="white" fill-opacity="0.55"/>
<path fill-rule="evenodd" clip-rule="evenodd" d="M35.5531 15.6883C35.2468 15.6883 34.998 15.4397 34.998 15.1334L34.9982 14.1843C34.9982 13.8779 35.2466 13.6294 35.553 13.6294C35.8594 13.6294 36.108 13.8779 36.108 14.1844L36.1081 15.1334C36.1081 15.4397 35.8594 15.6883 35.5531 15.6883Z" fill="white" fill-opacity="0.55"/>
<path fill-rule="evenodd" clip-rule="evenodd" d="M35.4359 21.9739C35.1296 21.9739 34.8809 21.7254 34.8809 21.419L34.881 20.47C34.881 20.1636 35.1295 19.915 35.4358 19.915C35.7422 19.915 35.9908 20.1636 35.9908 20.47L35.9909 21.419C35.9909 21.7254 35.7422 21.974 35.4359 21.9739Z" fill="white" fill-opacity="0.55"/>
<path fill-rule="evenodd" clip-rule="evenodd" d="M35.3589 21.0269C35.3242 21.0269 35.2903 21.0259 35.2566 21.024C34.4725 20.9845 33.5609 20.4575 33.5744 19.1019C33.5774 18.7954 33.8258 18.5508 34.1342 18.5527C34.4406 18.5556 34.6871 18.8061 34.6843 19.1125C34.6786 19.6308 34.8847 19.8938 35.3125 19.915C35.7645 19.9381 36.2277 19.6607 36.2557 19.3562C36.2568 19.3485 36.2576 19.3418 36.2586 19.3341C36.3396 18.7126 35.4078 18.3408 35.2209 18.2723C33.9279 17.8021 33.399 17.0815 33.6466 16.1305C33.9665 14.906 34.9983 14.4782 35.824 14.5986C36.7953 14.7412 37.4494 15.5389 37.4128 16.54C37.4023 16.8464 37.142 17.0892 36.8386 17.0748C36.5323 17.0641 36.2932 16.8069 36.3039 16.5005C36.3223 15.9793 35.9705 15.7423 35.6632 15.697C35.3116 15.6449 34.8789 15.8058 34.7209 16.41C34.6795 16.5698 34.6024 16.8666 35.5996 17.2289C36.8232 17.674 37.4802 18.5103 37.3599 19.468C37.2664 20.4218 36.272 21.0259 35.3589 21.0269Z" fill="white" fill-opacity="0.55"/>
<path fill-rule="evenodd" clip-rule="evenodd" d="M35.4946 12.687C32.6736 12.687 30.3794 14.9811 30.3794 17.8021C30.3796 20.6221 32.6735 22.9162 35.4945 22.9162C38.3147 22.9162 40.6086 20.6222 40.6086 17.8021C40.6086 14.981 38.3146 12.6871 35.4946 12.687ZM35.4946 24.0261C32.0619 24.0261 29.2695 21.234 29.2695 17.8021C29.2697 14.3693 32.0617 11.5771 35.4945 11.5771C38.9264 11.5771 41.7185 14.3693 41.7185 17.8021C41.7186 21.234 38.9264 24.0261 35.4946 24.0261Z" fill="white" fill-opacity="0.55"/>
<path fill-rule="evenodd" clip-rule="evenodd" d="M13.573 20.2608L23.4014 24.5887C22.6632 22.6367 22.324 19.5459 22.324 16.7779C22.3242 14.0089 22.6631 10.9181 23.4012 8.96612L13.573 13.2939V20.2608ZM24.7395 26.3393C24.6643 26.3393 24.5882 26.3249 24.5159 26.2921L12.7945 21.1308C12.5931 21.0422 12.4629 20.8428 12.4629 20.6231L12.463 12.9317C12.463 12.7121 12.5929 12.5126 12.7943 12.424L24.516 7.26266C24.7655 7.15282 25.0583 7.24052 25.2057 7.46982C25.3541 7.69912 25.3127 8.00167 25.1103 8.18376C24.2973 8.91112 23.4339 12.1706 23.4339 16.7779C23.4341 21.3842 24.2972 24.6437 25.1103 25.3711C25.3127 25.5531 25.3541 25.8557 25.2057 26.085C25.1007 26.2478 24.9234 26.3393 24.7395 26.3393Z" fill="white" fill-opacity="0.55"/>
<path fill-rule="evenodd" clip-rule="evenodd" d="M9.09615 13.4866C8.41394 13.4866 7.85992 14.0416 7.85992 14.7228L7.86007 18.8319C7.86007 19.5131 8.41388 20.0681 9.09605 20.0681H12.4645V13.4866H9.09615ZM13.0194 21.178H9.09615C7.80218 21.178 6.75 20.1259 6.75 18.832L6.75016 14.7228C6.75016 13.4288 7.80208 12.3767 9.09605 12.3767L13.0194 12.3767C13.3268 12.3767 13.5742 12.6253 13.5742 12.9317L13.5744 20.6231C13.5744 20.9294 13.3267 21.1781 13.0194 21.178Z" fill="white" fill-opacity="0.55"/>
<path fill-rule="evenodd" clip-rule="evenodd" d="M9.65099 27.5205H12.4644V21.178H9.65099V27.5205ZM13.0193 28.6304H9.09604C8.78972 28.6304 8.54102 28.3819 8.54102 28.0755L8.54108 20.6231C8.54108 20.3167 8.78953 20.0681 9.09594 20.0681H13.0193C13.3267 20.0681 13.5741 20.3167 13.5741 20.6231L13.5743 28.0755C13.5743 28.3818 13.3265 28.6304 13.0193 28.6304Z" fill="white" fill-opacity="0.55"/>
<path fill-rule="evenodd" clip-rule="evenodd" d="M25.2908 8.08251C25.1425 8.08251 24.6105 8.50455 24.1221 10.3766C23.678 12.0799 23.4342 14.3528 23.4342 16.7779C23.4343 19.2019 23.6779 21.4757 24.1221 23.1782C24.6106 25.0502 25.1424 25.4722 25.2908 25.4722C25.4382 25.4722 25.97 25.0502 26.4585 23.1782C26.9028 21.4757 27.1474 19.202 27.1474 16.7779C27.1476 14.3528 26.9027 12.08 26.4585 10.3766C25.97 8.50455 25.4381 8.08257 25.2908 8.08251ZM25.2908 26.5821C23.2522 26.5821 22.3242 21.4998 22.3242 16.7779C22.3244 12.0549 23.252 6.97266 25.2908 6.97266C27.3286 6.97259 28.2573 12.0549 28.2573 16.7779C28.2575 21.4998 27.3285 26.5821 25.2908 26.5821Z" fill="white" fill-opacity="0.55"/>
</svg>
