<svg width="49" height="49" viewBox="0 0 49 49" fill="none" xmlns="http://www.w3.org/2000/svg">
<g clip-path="url(#clip0_4853_936)">
<path d="M46.0694 12.4695L43.5254 11.0007V8.41825C43.5254 6.53117 41.7955 4.996 39.6691 4.996H33.1251L26.9193 1.41173C25.4265 0.550495 23.7132 0.548198 22.2183 1.40551L15.9633 4.9961H9.32866C7.20377 4.9961 5.47508 6.53127 5.47508 8.41834V11.0158L2.9422 12.4705C1.55891 13.261 0.765625 14.6298 0.765625 16.2259V43.9077C0.765625 46.2944 2.70735 48.2361 5.09399 48.2361H43.9039C46.2921 48.2361 48.2349 46.2945 48.2349 43.9077V16.2204C48.2349 14.6302 47.4454 13.2628 46.0694 12.4695ZM19.3298 31.163L7.00777 24.092V13.5415H41.9926V24.11L29.7781 31.1623L26.9193 29.5117C25.4264 28.6501 23.7131 28.6478 22.2184 29.5054L19.3299 31.1632L19.3298 31.163ZM2.29831 37.131V23.1566L17.7903 32.0466L2.29831 40.9376V37.131ZM46.7021 23.1606V40.9336L31.3107 32.0471L46.7021 23.1606ZM45.3034 13.7971C46.2054 14.3173 46.7021 15.1779 46.7021 16.2204V21.3909L43.5254 23.2251V12.7706L45.3034 13.7972V13.7971ZM22.9812 2.73501C24.0044 2.14807 25.131 2.14979 26.153 2.73932L30.0604 4.9961H19.0422L22.9812 2.73501ZM7.00777 8.41825C7.00777 7.39403 8.07055 6.52878 9.32857 6.52878H16.1669H16.1684C16.1684 6.52878 16.1693 6.52878 16.1698 6.52878H39.669C40.9286 6.52878 41.9926 7.39403 41.9926 8.41825V12.0087H7.00777V8.41825ZM3.70409 13.8005L5.47508 12.7834V23.2124L2.29831 21.3895V16.2259C2.29831 15.1799 2.79702 14.3188 3.70409 13.8005ZM43.9038 46.7032H5.09389C3.5524 46.7032 2.29831 45.4491 2.29831 43.9076V42.7048L19.6951 32.7206C19.7107 32.7122 19.7262 32.7037 19.7413 32.6941L22.9812 30.8347C24.0044 30.2476 25.1309 30.2492 26.153 30.839L46.7021 42.7035V43.9077C46.7021 45.4491 45.4467 46.7033 43.9038 46.7033V46.7032ZM15.914 9.98625C15.914 10.4095 15.5709 10.7526 15.1476 10.7526H15.0283C14.605 10.7526 14.2619 10.4095 14.2619 9.98625C14.2619 9.56295 14.605 9.21986 15.0283 9.21986H15.1476C15.5709 9.21986 15.914 9.56295 15.914 9.98625ZM19.259 9.98625C19.259 10.4095 18.9159 10.7526 18.4926 10.7526H18.3733C17.95 10.7526 17.6069 10.4095 17.6069 9.98625C17.6069 9.56295 17.95 9.21986 18.3733 9.21986H18.4926C18.9159 9.21986 19.259 9.56295 19.259 9.98625ZM12.5718 9.98625C12.5718 10.4095 12.2288 10.7526 11.8055 10.7526H11.6861C11.2628 10.7526 10.9197 10.4095 10.9197 9.98625C10.9197 9.56295 11.2628 9.21986 11.6861 9.21986H11.8055C12.2288 9.21986 12.5718 9.56295 12.5718 9.98625ZM25.3118 26.2349C25.9808 26.45 26.6686 26.6703 27.3549 26.8765C27.701 27.7229 28.5337 28.3211 29.5041 28.3211C30.7823 28.3211 31.8222 27.2811 31.8222 26.0028V16.7656C31.8222 15.4875 30.7823 14.4475 29.5041 14.4475C28.5301 14.4475 27.6948 15.0503 27.3511 15.9018C26.6884 16.1067 26.0303 16.325 25.3906 16.5381C22.8271 17.3924 20.4058 18.1992 17.6138 18.1992H17.3154C15.8711 18.1992 14.6962 19.373 14.6962 20.8157V21.9524C14.6962 23.393 15.8651 24.5654 17.3042 24.5714L16.9798 28.7787C16.9635 28.9916 17.0366 29.2016 17.1816 29.3583C17.3266 29.5149 17.5304 29.604 17.7439 29.604H19.7867C20.1274 29.604 20.4272 29.3791 20.5225 29.052L21.6614 25.1452C22.8569 25.4466 24.0681 25.8349 25.3118 26.2347V26.2349ZM29.504 15.9803C29.9297 15.9803 30.2894 16.34 30.2894 16.7657V26.0029C30.2894 26.436 29.9371 26.7884 29.504 26.7884C29.071 26.7884 28.7159 26.436 28.7159 26.0029V16.7657C28.7159 16.34 29.0768 15.9803 29.504 15.9803ZM25.8751 17.9924C26.3048 17.8491 26.7431 17.7037 27.1831 17.562V25.2211C26.7126 25.0746 26.2421 24.924 25.7808 24.7757C24.3281 24.3087 22.8482 23.834 21.353 23.4989C21.3499 23.4979 21.347 23.4966 21.3438 23.4957C21.3125 23.4866 21.2811 23.4802 21.2497 23.4752C20.8116 23.3789 20.372 23.2966 19.9316 23.2289V19.5649C22.0401 19.269 23.9816 18.6234 25.875 17.9924H25.8751ZM16.2288 21.9526V20.8159C16.2288 20.2183 16.7162 19.7322 17.3153 19.7322H18.3991V23.0392H17.3153C16.7162 23.0392 16.2288 22.5518 16.2288 21.9526ZM19.2117 28.0715H18.5716L18.8366 24.6339C19.2771 24.6759 19.718 24.7384 20.1602 24.8181L19.2117 28.0715ZM33.4035 18.7632C33.1918 18.3967 33.3172 17.9279 33.6837 17.7163L35.0971 16.8997C35.4635 16.6879 35.9323 16.8134 36.1441 17.18C36.3558 17.5464 36.2303 18.0153 35.8639 18.2269L34.4504 19.0434C34.3298 19.1132 34.1979 19.1463 34.0677 19.1463C33.8029 19.1463 33.5454 19.0089 33.4035 18.7632ZM35.2852 20.4348H36.9182C37.3415 20.4348 37.6846 20.7779 37.6846 21.2012C37.6846 21.6245 37.3415 21.9676 36.9182 21.9676H35.2852C34.8619 21.9676 34.5188 21.6245 34.5188 21.2012C34.5188 20.7779 34.8619 20.4348 35.2852 20.4348ZM33.4035 23.6392C33.6152 23.2727 34.0839 23.147 34.4504 23.3589L35.8639 24.1755C36.2304 24.3872 36.3559 24.8559 36.1441 25.2224C36.0021 25.468 35.7445 25.6055 35.4798 25.6055C35.3498 25.6055 35.2179 25.5724 35.0971 25.5026L33.6837 24.6861C33.3171 24.4744 33.1917 24.0056 33.4035 23.6392Z" fill="white" fill-opacity="0.55"/>
</g>
<defs>
<clipPath id="clip0_4853_936">
<rect width="49" height="49" fill="white"/>
</clipPath>
</defs>
</svg>
