<svg width="47" height="47" viewBox="0 0 47 47" fill="none" xmlns="http://www.w3.org/2000/svg">
<g clip-path="url(#clip0_4853_908)">
<path fill-rule="evenodd" clip-rule="evenodd" d="M27.005 34.7369C31.8688 36.1358 35.5297 40.3728 36.0818 45.5392C36.104 45.7472 36.0368 45.9549 35.897 46.1104C35.7572 46.266 35.5579 46.3548 35.3487 46.3548H11.6502C11.441 46.3548 11.2416 46.2659 11.1018 46.1102C10.9619 45.9546 10.8948 45.7469 10.9172 45.5389C11.4719 40.3723 15.1336 36.1355 19.996 34.7367C18.0456 33.5478 16.739 31.3994 16.739 28.9562C16.739 25.2317 19.7751 22.1926 23.4994 22.1926C27.2273 22.1926 30.263 25.2319 30.263 28.9562C30.263 31.3994 28.9564 33.548 27.005 34.7369ZM23.4994 35.7197C18.0156 35.7197 13.4537 39.6697 12.5014 44.8803H34.4979C33.5483 39.6696 28.9861 35.7197 23.4994 35.7197ZM23.4994 34.2452C26.4145 34.2452 28.7885 31.8685 28.7885 28.9562C28.7885 26.0438 26.4145 23.6671 23.4994 23.6671C20.5872 23.6671 18.2135 26.0439 18.2135 28.9562C18.2135 31.8684 20.5872 34.2452 23.4994 34.2452ZM32.9248 13.4542H44.7497C45.6303 13.4542 46.3543 14.1781 46.3543 15.0588V25.1448C46.3543 26.0321 45.6294 26.7535 44.7497 26.7535H32.9248C32.045 26.7535 31.3201 26.0321 31.3201 25.1448V15.0588C31.3201 14.1781 32.044 13.4542 32.9248 13.4542ZM44.8798 20.1481V15.0588C44.8798 14.9874 44.8211 14.9287 44.7497 14.9287H32.9248C32.8534 14.9287 32.7947 14.9874 32.7947 15.0588V20.8817L35.6224 18.7396C35.9293 18.507 36.3633 18.5499 36.619 18.8378L38.5482 21.0109L42.0942 17.7741C42.2479 17.6339 42.4537 17.565 42.6608 17.5846C42.8679 17.6043 43.0571 17.7104 43.1817 17.8772L44.8798 20.1481ZM32.7947 22.7315V25.1448C32.7947 25.2178 32.8524 25.279 32.9248 25.279H44.7497C44.822 25.279 44.8798 25.2178 44.8798 25.1448V22.6103L42.4877 19.4113L37.7669 23.7205C37.4664 23.9949 36.9997 23.9736 36.7253 23.6731C36.451 23.3726 36.4723 22.9059 36.7728 22.6315L37.4591 22.0051C36.8753 21.3476 35.9691 20.3268 35.9691 20.3268L32.7947 22.7315ZM38.573 18.952C38.0445 18.952 37.6168 18.5244 37.6168 17.9999C37.6168 17.4754 38.0445 17.0438 38.573 17.0438C39.0974 17.0438 39.525 17.4754 39.525 17.9999C39.525 18.5244 39.0974 18.952 38.573 18.952ZM2.24917 13.4542H14.0741C14.9547 13.4542 15.6787 14.1781 15.6787 15.0588V25.1448C15.6787 26.0321 14.9538 26.7535 14.0741 26.7535H2.24917C1.36944 26.7535 0.644531 26.0321 0.644531 25.1448V15.0588C0.644531 14.1781 1.36852 13.4542 2.24917 13.4542ZM2.24917 14.9287C2.17774 14.9287 2.11904 14.9874 2.11904 15.0588V25.1448C2.11904 25.2178 2.17682 25.279 2.24917 25.279H14.0741C14.1464 25.279 14.2042 25.2178 14.2042 25.1448V15.0588C14.2042 14.9874 14.1455 14.9287 14.0741 14.9287H2.24917ZM10.8621 19.0663C11.2327 19.2803 11.4611 19.6759 11.4611 20.1038C11.4611 20.5318 11.2327 20.9274 10.8621 21.1413L6.96456 23.3916C6.5939 23.6056 6.13717 23.6056 5.76652 23.3916C5.39586 23.1776 5.1675 22.7821 5.1675 22.354V17.8537C5.1675 17.4256 5.39586 17.0301 5.76652 16.8161C6.13717 16.6021 6.5939 16.6021 6.96456 16.8161L10.8621 19.0663ZM6.64201 21.8752L9.71009 20.1038L6.64201 18.3325V21.8752ZM25.5196 1.9894C25.9805 2.1269 26.4257 2.31131 26.8491 2.54041L27.7021 2.16118C27.9808 2.03723 28.3072 2.09778 28.5229 2.31352L29.9313 3.72195C30.1468 3.93742 30.2074 4.26319 30.084 4.54187L29.7061 5.39506C29.9355 5.81907 30.1203 6.26511 30.2578 6.72756L31.1273 7.06218C31.412 7.17175 31.5998 7.44527 31.5998 7.75022V9.74247C31.5998 10.0475 31.412 10.321 31.1273 10.4306L30.2573 10.7654C30.1195 11.2263 29.9343 11.6716 29.7058 12.095L30.084 12.9489C30.2074 13.2276 30.1468 13.5533 29.9313 13.7688L28.5229 15.1772C28.3074 15.3927 27.9816 15.4534 27.703 15.33L26.8502 14.9523C26.4271 15.1814 25.9808 15.366 25.5194 15.5035L25.1846 16.3733C25.075 16.6579 24.8015 16.8457 24.4966 16.8457H22.5043C22.1993 16.8457 21.9258 16.6579 21.8163 16.3733C21.8163 16.3733 21.4815 15.5036 21.4816 15.5036C21.0193 15.3657 20.5736 15.1804 20.1499 14.9517L19.2959 15.33C19.0173 15.4534 18.6914 15.3927 18.476 15.1772L17.0675 13.7688C16.8518 13.5531 16.7912 13.2267 16.9152 12.948C16.9152 12.948 17.2942 12.0955 17.2942 12.0956C17.0653 11.6727 16.8806 11.2268 16.7423 10.7657L15.8715 10.4306C15.5868 10.321 15.399 10.0475 15.399 9.74247V7.75022C15.399 7.44527 15.5868 7.17175 15.8715 7.06218C15.8715 7.06218 16.7421 6.72719 16.742 6.72719C16.8804 6.26502 17.0652 5.81935 17.2944 5.39561L16.9152 4.54279C16.7912 4.26402 16.8518 3.93769 17.0675 3.72195L18.476 2.31352C18.6917 2.09778 19.018 2.03723 19.2968 2.16118C19.2968 2.16118 20.1497 2.54041 20.1496 2.54041C20.5734 2.31122 21.0188 2.12672 21.4799 1.98922L21.8165 1.11686C21.9262 0.832559 22.1996 0.64502 22.5043 0.64502H24.4966C24.8017 0.64502 25.0753 0.833019 25.1848 1.11788L25.5196 1.9894ZM24.2778 2.86858L23.9901 2.11953H23.0101L22.7206 2.8695C22.6332 3.09621 22.4396 3.26522 22.2033 3.32135C21.6297 3.45774 21.0826 3.68435 20.5798 3.99418C20.3726 4.12182 20.1159 4.13905 19.8935 4.04017L19.1605 3.71421L18.4683 4.40649L18.7942 5.13951C18.8931 5.36179 18.8758 5.61863 18.7482 5.8258C18.4381 6.32916 18.2113 6.87685 18.0731 7.45283C18.0165 7.68875 17.8474 7.88173 17.6209 7.96882L16.8735 8.25653V9.23625L17.6209 9.52396C17.8472 9.61096 18.0162 9.80375 18.073 10.0394C18.2111 10.6134 18.4376 11.1627 18.7476 11.664C18.8758 11.8713 18.8932 12.1286 18.7942 12.3513L18.4683 13.0843L19.1611 13.7771L19.8944 13.4521C20.116 13.3541 20.3716 13.3711 20.5782 13.4976C21.0814 13.8059 21.6289 14.0349 22.2048 14.1713C22.4417 14.2274 22.6355 14.3968 22.7229 14.6238L23.0105 15.3712H23.9904L24.278 14.6238C24.3653 14.3968 24.559 14.2276 24.7955 14.1713C25.3688 14.0351 25.9174 13.8088 26.418 13.4992C26.625 13.3712 26.8819 13.3536 27.1044 13.4521L27.8378 13.7771L28.5311 13.0838L28.2063 12.3503C28.1081 12.1288 28.1251 11.8732 28.2517 11.6666C28.56 11.1632 28.789 10.6157 28.9254 10.0415C28.9817 9.80495 29.151 9.61124 29.3779 9.52396L30.1253 9.23625V8.25653L29.3779 7.96882C29.1508 7.88145 28.9814 7.68755 28.9254 7.45071C28.7891 6.87547 28.5624 6.32852 28.2527 5.8258C28.1252 5.61891 28.1078 5.36253 28.2063 5.14043L28.5311 4.40705L27.8384 3.71421L27.1053 4.04017C26.883 4.13905 26.6262 4.12182 26.4191 3.99418C25.9162 3.68435 25.3692 3.45774 24.7955 3.32135C24.5589 3.26513 24.3652 3.09565 24.2778 2.86858ZM23.4994 4.53321C25.8267 4.53321 27.7136 6.41809 27.7136 8.74542C27.7136 11.0726 25.8266 12.9596 23.4994 12.9596C21.1722 12.9596 19.2873 11.0727 19.2873 8.74542C19.2873 6.418 21.172 4.53321 23.4994 4.53321ZM23.4994 6.00772C21.9868 6.00772 20.7618 7.23276 20.7618 8.74542C20.7618 10.2582 21.9867 11.4851 23.4994 11.4851C25.0124 11.4851 26.2391 10.2583 26.2391 8.74542C26.2391 7.23258 25.0122 6.00772 23.4994 6.00772ZM38.0999 28.781C38.0999 28.3741 38.4303 28.0437 38.8372 28.0437C39.2442 28.0437 39.5744 28.3741 39.5744 28.781V34.2737C39.5744 34.6809 39.2444 35.011 38.8372 35.011H32.1472C31.7402 35.011 31.4099 34.6806 31.4099 34.2737C31.4099 33.8667 31.7402 33.5364 32.1472 33.5364H38.0999V28.781ZM7.56791 28.781C7.56791 28.3741 7.8982 28.0437 8.30516 28.0437C8.71203 28.0437 9.04242 28.3741 9.04242 28.781V33.5364H14.9952C15.4022 33.5364 15.7325 33.8667 15.7325 34.2737C15.7325 34.6806 15.4022 35.011 14.9952 35.011H8.30516C7.89792 35.011 7.56791 34.6809 7.56791 34.2737V28.781ZM22.7622 17.9516C22.7622 17.5447 23.0926 17.2144 23.4994 17.2144C23.9063 17.2144 24.2367 17.5447 24.2367 17.9516V21.0867C24.2367 21.4936 23.9063 21.824 23.4994 21.824C23.0926 21.824 22.7622 21.4936 22.7622 21.0867V17.9516Z" fill="white" fill-opacity="0.55"/>
</g>
<defs>
<clipPath id="clip0_4853_908">
<rect width="47" height="47" fill="white"/>
</clipPath>
</defs>
</svg>
