<svg width="48" height="48" viewBox="0 0 48 48" fill="none" xmlns="http://www.w3.org/2000/svg">
<path d="M16.18 23.2621H6.8C6.96 13.9221 8.8 12.3821 14.54 8.98206C15.2 8.58206 15.42 7.74206 15.02 7.06206C14.9279 6.90461 14.8053 6.76708 14.6595 6.6575C14.5137 6.54791 14.3475 6.46846 14.1706 6.42378C13.9938 6.3791 13.8098 6.37009 13.6294 6.39726C13.449 6.42443 13.2758 6.48725 13.12 6.58206C6.36 10.5821 4 13.0221 4 24.6421V35.4221C4 38.8421 6.78 41.6021 10.18 41.6021H16.18C19.7 41.6021 22.36 38.9421 22.36 35.4221V29.4221C22.36 25.9221 19.7 23.2621 16.18 23.2621ZM37.818 23.2621H28.438C28.598 13.9221 30.438 12.3821 36.178 8.98206C36.838 8.58206 37.058 7.74206 36.658 7.06206C36.5638 6.90413 36.4393 6.76638 36.2916 6.65671C36.144 6.54705 35.9762 6.46763 35.7978 6.42303C35.6193 6.37843 35.4339 6.36951 35.252 6.39681C35.0701 6.4241 34.8955 6.48705 34.738 6.58206C27.978 10.5821 25.618 13.0221 25.618 24.6621V35.4421C25.618 38.8621 28.398 41.6221 31.798 41.6221H37.798C41.318 41.6221 43.978 38.9621 43.978 35.4421V29.4421C43.998 25.9221 41.338 23.2621 37.818 23.2621Z" fill="url(#paint0_linear_397_482)"/>
<defs>
<linearGradient id="paint0_linear_397_482" x1="4" y1="24.0017" x2="43.9781" y2="24.0017" gradientUnits="userSpaceOnUse">
<stop stop-color="#075B65"/>
<stop offset="0.370192" stop-color="#00838A"/>
<stop offset="0.8125" stop-color="#328A99"/>
</linearGradient>
</defs>
</svg>
