<svg width="148" height="148" viewBox="0 0 148 148" fill="none" xmlns="http://www.w3.org/2000/svg">
<circle cx="73.7648" cy="73.7648" r="73.5148" fill="url(#paint0_linear_1957_948)" fill-opacity="0.5" stroke="url(#paint1_linear_1957_948)" stroke-width="0.5"/>
<circle cx="73.7623" cy="73.7653" r="54.3444" fill="#0F0F0F" stroke="url(#paint2_linear_1957_948)" stroke-width="7"/>
<path d="M57.5864 49.112C57.5864 50.04 57.2664 50.8133 56.6264 51.432C55.9971 52.04 55.0318 52.344 53.7304 52.344H51.5864V57H50.1304V45.848H53.7304C54.9891 45.848 55.9438 46.152 56.5944 46.76C57.2558 47.368 57.5864 48.152 57.5864 49.112ZM53.7304 51.144C54.5411 51.144 55.1384 50.968 55.5224 50.616C55.9064 50.264 56.0984 49.7627 56.0984 49.112C56.0984 47.736 55.3091 47.048 53.7304 47.048H51.5864V51.144H53.7304ZM58.8521 52.584C58.8521 51.688 59.0334 50.904 59.3961 50.232C59.7587 49.5493 60.2547 49.0213 60.8841 48.648C61.5241 48.2747 62.2334 48.088 63.0121 48.088C63.7801 48.088 64.4467 48.2533 65.0121 48.584C65.5774 48.9147 65.9987 49.3307 66.2761 49.832V48.232H67.7481V57H66.2761V55.368C65.9881 55.88 65.5561 56.3067 64.9801 56.648C64.4147 56.9787 63.7534 57.144 62.9961 57.144C62.2174 57.144 61.5134 56.952 60.8841 56.568C60.2547 56.184 59.7587 55.6453 59.3961 54.952C59.0334 54.2587 58.8521 53.4693 58.8521 52.584ZM66.2761 52.6C66.2761 51.9387 66.1427 51.3627 65.8761 50.872C65.6094 50.3813 65.2467 50.008 64.7881 49.752C64.3401 49.4853 63.8441 49.352 63.3001 49.352C62.7561 49.352 62.2601 49.48 61.8121 49.736C61.3641 49.992 61.0067 50.3653 60.7401 50.856C60.4734 51.3467 60.3401 51.9227 60.3401 52.584C60.3401 53.256 60.4734 53.8427 60.7401 54.344C61.0067 54.8347 61.3641 55.2133 61.8121 55.48C62.2601 55.736 62.7561 55.864 63.3001 55.864C63.8441 55.864 64.3401 55.736 64.7881 55.48C65.2467 55.2133 65.6094 54.8347 65.8761 54.344C66.1427 53.8427 66.2761 53.2613 66.2761 52.6ZM73.8246 48.088C74.5819 48.088 75.2432 48.2533 75.8086 48.584C76.3846 48.9147 76.8112 49.3307 77.0886 49.832V48.232H78.5606V57.192C78.5606 57.992 78.3899 58.7013 78.0486 59.32C77.7072 59.9493 77.2166 60.44 76.5766 60.792C75.9472 61.144 75.2112 61.32 74.3686 61.32C73.2166 61.32 72.2566 61.048 71.4886 60.504C70.7206 59.96 70.2672 59.2187 70.1286 58.28H71.5686C71.7286 58.8133 72.0592 59.24 72.5606 59.56C73.0619 59.8907 73.6646 60.056 74.3686 60.056C75.1686 60.056 75.8192 59.8053 76.3206 59.304C76.8326 58.8027 77.0886 58.0987 77.0886 57.192V55.352C76.8006 55.864 76.3739 56.2907 75.8086 56.632C75.2432 56.9733 74.5819 57.144 73.8246 57.144C73.0459 57.144 72.3366 56.952 71.6966 56.568C71.0672 56.184 70.5712 55.6453 70.2086 54.952C69.8459 54.2587 69.6646 53.4693 69.6646 52.584C69.6646 51.688 69.8459 50.904 70.2086 50.232C70.5712 49.5493 71.0672 49.0213 71.6966 48.648C72.3366 48.2747 73.0459 48.088 73.8246 48.088ZM77.0886 52.6C77.0886 51.9387 76.9552 51.3627 76.6886 50.872C76.4219 50.3813 76.0592 50.008 75.6006 49.752C75.1526 49.4853 74.6566 49.352 74.1126 49.352C73.5686 49.352 73.0726 49.48 72.6246 49.736C72.1766 49.992 71.8192 50.3653 71.5526 50.856C71.2859 51.3467 71.1526 51.9227 71.1526 52.584C71.1526 53.256 71.2859 53.8427 71.5526 54.344C71.8192 54.8347 72.1766 55.2133 72.6246 55.48C73.0726 55.736 73.5686 55.864 74.1126 55.864C74.6566 55.864 75.1526 55.736 75.6006 55.48C76.0592 55.2133 76.4219 54.8347 76.6886 54.344C76.9552 53.8427 77.0886 53.2613 77.0886 52.6ZM89.0211 52.28C89.0211 52.5573 89.0051 52.8507 88.9731 53.16H81.9651C82.0184 54.024 82.3117 54.7013 82.8451 55.192C83.3891 55.672 84.0451 55.912 84.8131 55.912C85.4424 55.912 85.9651 55.768 86.3811 55.48C86.8077 55.1813 87.1064 54.7867 87.2771 54.296H88.8451C88.6104 55.1387 88.1411 55.8267 87.4371 56.36C86.7331 56.8827 85.8584 57.144 84.8131 57.144C83.9811 57.144 83.2344 56.9573 82.5731 56.584C81.9224 56.2107 81.4104 55.6827 81.0371 55C80.6637 54.3067 80.4771 53.5067 80.4771 52.6C80.4771 51.6933 80.6584 50.8987 81.0211 50.216C81.3837 49.5333 81.8904 49.0107 82.5411 48.648C83.2024 48.2747 83.9597 48.088 84.8131 48.088C85.6451 48.088 86.3811 48.2693 87.0211 48.632C87.6611 48.9947 88.1517 49.496 88.4931 50.136C88.8451 50.7653 89.0211 51.48 89.0211 52.28ZM87.5171 51.976C87.5171 51.4213 87.3944 50.9467 87.1491 50.552C86.9037 50.1467 86.5677 49.8427 86.1411 49.64C85.7251 49.4267 85.2611 49.32 84.7491 49.32C84.0131 49.32 83.3837 49.5547 82.8611 50.024C82.3491 50.4933 82.0557 51.144 81.9811 51.976H87.5171ZM94.5846 46.76V45.432H97.5926V57H96.1206V46.76H94.5846ZM44.9243 76L42.2683 71.44H40.5083V76H39.0523V64.848H42.6523C43.495 64.848 44.2043 64.992 44.7803 65.28C45.367 65.568 45.8043 65.9573 46.0923 66.448C46.3803 66.9387 46.5243 67.4987 46.5243 68.128C46.5243 68.896 46.3003 69.5733 45.8523 70.16C45.415 70.7467 44.7536 71.136 43.8683 71.328L46.6683 76H44.9243ZM40.5083 70.272H42.6523C43.4416 70.272 44.0336 70.08 44.4283 69.696C44.823 69.3013 45.0203 68.7787 45.0203 68.128C45.0203 67.4667 44.823 66.9547 44.4283 66.592C44.0443 66.2293 43.4523 66.048 42.6523 66.048H40.5083V70.272ZM48.2427 71.584C48.2427 70.688 48.424 69.904 48.7867 69.232C49.1494 68.5493 49.6454 68.0213 50.2747 67.648C50.9147 67.2747 51.624 67.088 52.4027 67.088C53.1707 67.088 53.8374 67.2533 54.4027 67.584C54.968 67.9147 55.3894 68.3307 55.6667 68.832V67.232H57.1387V76H55.6667V74.368C55.3787 74.88 54.9467 75.3067 54.3707 75.648C53.8054 75.9787 53.144 76.144 52.3867 76.144C51.608 76.144 50.904 75.952 50.2747 75.568C49.6454 75.184 49.1494 74.6453 48.7867 73.952C48.424 73.2587 48.2427 72.4693 48.2427 71.584ZM55.6667 71.6C55.6667 70.9387 55.5334 70.3627 55.2667 69.872C55 69.3813 54.6374 69.008 54.1787 68.752C53.7307 68.4853 53.2347 68.352 52.6907 68.352C52.1467 68.352 51.6507 68.48 51.2027 68.736C50.7547 68.992 50.3974 69.3653 50.1307 69.856C49.864 70.3467 49.7307 70.9227 49.7307 71.584C49.7307 72.256 49.864 72.8427 50.1307 73.344C50.3974 73.8347 50.7547 74.2133 51.2027 74.48C51.6507 74.736 52.1467 74.864 52.6907 74.864C53.2347 74.864 53.7307 74.736 54.1787 74.48C54.6374 74.2133 55 73.8347 55.2667 73.344C55.5334 72.8427 55.6667 72.2613 55.6667 71.6ZM63.8712 67.072C64.9379 67.072 65.8019 67.3973 66.4632 68.048C67.1245 68.688 67.4552 69.616 67.4552 70.832V76H66.0152V71.04C66.0152 70.1653 65.7965 69.4987 65.3592 69.04C64.9219 68.5707 64.3245 68.336 63.5672 68.336C62.7992 68.336 62.1859 68.576 61.7272 69.056C61.2792 69.536 61.0552 70.2347 61.0552 71.152V76H59.5992V67.232H61.0552V68.48C61.3432 68.032 61.7325 67.6853 62.2232 67.44C62.7245 67.1947 63.2739 67.072 63.8712 67.072ZM74.7296 76L71.2896 72.128V76H69.8336V64.16H71.2896V71.12L74.6656 67.232H76.6976L72.5696 71.6L76.7136 76H74.7296ZM78.8199 65.808C78.5426 65.808 78.3079 65.712 78.1159 65.52C77.9239 65.328 77.8279 65.0933 77.8279 64.816C77.8279 64.5387 77.9239 64.304 78.1159 64.112C78.3079 63.92 78.5426 63.824 78.8199 63.824C79.0866 63.824 79.3106 63.92 79.4919 64.112C79.6839 64.304 79.7799 64.5387 79.7799 64.816C79.7799 65.0933 79.6839 65.328 79.4919 65.52C79.3106 65.712 79.0866 65.808 78.8199 65.808ZM79.5239 67.232V76H78.0679V67.232H79.5239ZM86.2774 67.072C87.3441 67.072 88.2081 67.3973 88.8694 68.048C89.5308 68.688 89.8614 69.616 89.8614 70.832V76H88.4214V71.04C88.4214 70.1653 88.2028 69.4987 87.7654 69.04C87.3281 68.5707 86.7308 68.336 85.9734 68.336C85.2054 68.336 84.5921 68.576 84.1334 69.056C83.6854 69.536 83.4614 70.2347 83.4614 71.152V76H82.0054V67.232H83.4614V68.48C83.7494 68.032 84.1388 67.6853 84.6294 67.44C85.1308 67.1947 85.6801 67.072 86.2774 67.072ZM95.8558 67.088C96.6131 67.088 97.2745 67.2533 97.8398 67.584C98.4158 67.9147 98.8425 68.3307 99.1198 68.832V67.232H100.592V76.192C100.592 76.992 100.421 77.7013 100.08 78.32C99.7385 78.9493 99.2478 79.44 98.6078 79.792C97.9785 80.144 97.2425 80.32 96.3998 80.32C95.2478 80.32 94.2878 80.048 93.5198 79.504C92.7518 78.96 92.2985 78.2187 92.1598 77.28H93.5998C93.7598 77.8133 94.0905 78.24 94.5918 78.56C95.0931 78.8907 95.6958 79.056 96.3998 79.056C97.1998 79.056 97.8505 78.8053 98.3518 78.304C98.8638 77.8027 99.1198 77.0987 99.1198 76.192V74.352C98.8318 74.864 98.4051 75.2907 97.8398 75.632C97.2745 75.9733 96.6131 76.144 95.8558 76.144C95.0771 76.144 94.3678 75.952 93.7278 75.568C93.0985 75.184 92.6025 74.6453 92.2398 73.952C91.8771 73.2587 91.6958 72.4693 91.6958 71.584C91.6958 70.688 91.8771 69.904 92.2398 69.232C92.6025 68.5493 93.0985 68.0213 93.7278 67.648C94.3678 67.2747 95.0771 67.088 95.8558 67.088ZM99.1198 71.6C99.1198 70.9387 98.9865 70.3627 98.7198 69.872C98.4531 69.3813 98.0905 69.008 97.6318 68.752C97.1838 68.4853 96.6878 68.352 96.1438 68.352C95.5998 68.352 95.1038 68.48 94.6558 68.736C94.2078 68.992 93.8505 69.3653 93.5838 69.856C93.3171 70.3467 93.1838 70.9227 93.1838 71.584C93.1838 72.256 93.3171 72.8427 93.5838 73.344C93.8505 73.8347 94.2078 74.2133 94.6558 74.48C95.1038 74.736 95.5998 74.864 96.1438 74.864C96.6878 74.864 97.1838 74.736 97.6318 74.48C98.0905 74.2133 98.4531 73.8347 98.7198 73.344C98.9865 72.8427 99.1198 72.2613 99.1198 71.6ZM106.156 76.144C105.484 76.144 104.882 76.032 104.348 75.808C103.815 75.5733 103.394 75.2533 103.084 74.848C102.775 74.432 102.604 73.9573 102.572 73.424H104.076C104.119 73.8613 104.322 74.2187 104.684 74.496C105.058 74.7733 105.543 74.912 106.14 74.912C106.695 74.912 107.132 74.7893 107.452 74.544C107.772 74.2987 107.932 73.9893 107.932 73.616C107.932 73.232 107.762 72.9493 107.42 72.768C107.079 72.576 106.551 72.3893 105.836 72.208C105.186 72.0373 104.652 71.8667 104.236 71.696C103.831 71.5147 103.479 71.2533 103.18 70.912C102.892 70.56 102.748 70.1013 102.748 69.536C102.748 69.088 102.882 68.6773 103.148 68.304C103.415 67.9307 103.794 67.6373 104.284 67.424C104.775 67.2 105.335 67.088 105.964 67.088C106.935 67.088 107.719 67.3333 108.316 67.824C108.914 68.3147 109.234 68.9867 109.276 69.84H107.82C107.788 69.3813 107.602 69.0133 107.26 68.736C106.93 68.4587 106.482 68.32 105.916 68.32C105.394 68.32 104.978 68.432 104.668 68.656C104.359 68.88 104.204 69.1733 104.204 69.536C104.204 69.824 104.295 70.064 104.476 70.256C104.668 70.4373 104.903 70.5867 105.18 70.704C105.468 70.8107 105.863 70.9333 106.364 71.072C106.994 71.2427 107.506 71.4133 107.9 71.584C108.295 71.744 108.631 71.9893 108.908 72.32C109.196 72.6507 109.346 73.0827 109.356 73.616C109.356 74.096 109.223 74.528 108.956 74.912C108.69 75.296 108.311 75.6 107.82 75.824C107.34 76.0373 106.786 76.144 106.156 76.144Z" fill="white"/>
<path d="M56.4299 91.84C56.4833 91.0827 56.7499 90.3947 57.2299 89.776C57.7099 89.1573 58.3926 88.6667 59.2779 88.304C60.1739 87.9307 61.2513 87.744 62.5099 87.744C63.6086 87.744 64.558 87.888 65.358 88.176C66.1686 88.4533 66.7979 88.8427 67.2459 89.344C67.6939 89.8347 67.9179 90.416 67.9179 91.088C67.9179 91.632 67.7526 92.128 67.422 92.576C67.102 93.0133 66.5953 93.3653 65.9019 93.632C65.2086 93.888 64.3233 94.0107 63.2459 94V93.68C64.2699 93.6267 65.15 93.7013 65.886 93.904C66.622 94.1067 67.1873 94.4267 67.582 94.864C67.9766 95.3013 68.174 95.8507 68.174 96.512C68.174 97.2373 67.9446 97.8827 67.486 98.448C67.0273 99.0027 66.3553 99.4453 65.4699 99.776C64.5953 100.096 63.5286 100.256 62.2699 100.256C61.0433 100.256 59.9713 100.085 59.0539 99.744C58.1473 99.392 57.4379 98.9067 56.9259 98.288C56.4246 97.6587 56.1526 96.9227 56.1099 96.08H59.1179C59.2033 96.6667 59.5019 97.12 60.0139 97.44C60.5366 97.7493 61.2886 97.904 62.2699 97.904C63.198 97.904 63.902 97.7653 64.382 97.488C64.8726 97.2 65.118 96.8 65.118 96.288C65.118 95.9893 65.038 95.744 64.8779 95.552C64.7179 95.3493 64.4459 95.1947 64.0619 95.088C63.6779 94.9813 63.1446 94.928 62.4619 94.928H60.3819V92.864H62.4619C63.3473 92.864 63.9713 92.7413 64.334 92.496C64.6966 92.24 64.8779 91.9093 64.8779 91.504C64.8779 91.056 64.6646 90.7093 64.238 90.464C63.8219 90.2187 63.1926 90.096 62.3499 90.096C61.4753 90.096 60.7926 90.2453 60.3019 90.544C59.8219 90.8427 59.5339 91.2747 59.4379 91.84H56.4299ZM75.9672 87.744C77.8979 87.744 79.3752 88.0427 80.3992 88.64C81.4232 89.2373 81.9352 90.0693 81.9352 91.136C81.9352 92.096 81.4819 92.8267 80.5752 93.328C79.6792 93.8187 78.4259 94.0373 76.8152 93.984V93.664C78.5539 93.536 79.9085 93.7333 80.8792 94.256C81.8499 94.768 82.3352 95.5733 82.3352 96.672C82.3352 97.824 81.7912 98.7093 80.7032 99.328C79.6152 99.9467 78.0365 100.256 75.9672 100.256C73.9192 100.256 72.3459 99.9467 71.2472 99.328C70.1592 98.7093 69.6152 97.824 69.6152 96.672C69.6152 95.5733 70.1005 94.768 71.0712 94.256C72.0419 93.7333 73.3965 93.536 75.1352 93.664V93.984C73.5245 94.0373 72.2659 93.8187 71.3592 93.328C70.4632 92.8267 70.0152 92.096 70.0152 91.136C70.0152 90.0693 70.5272 89.2373 71.5512 88.64C72.5752 88.0427 74.0472 87.744 75.9672 87.744ZM75.9672 97.936C77.0445 97.936 77.8659 97.808 78.4312 97.552C78.9965 97.296 79.2792 96.9227 79.2792 96.432C79.2792 95.9307 78.9965 95.5627 78.4312 95.328C77.8659 95.0827 77.0445 94.96 75.9672 94.96C74.8899 94.96 74.0685 95.0827 73.5032 95.328C72.9485 95.5627 72.6712 95.9307 72.6712 96.432C72.6712 96.9227 72.9485 97.296 73.5032 97.552C74.0685 97.808 74.8899 97.936 75.9672 97.936ZM75.9672 92.816C76.6072 92.816 77.1459 92.768 77.5832 92.672C78.0312 92.5653 78.3672 92.4107 78.5912 92.208C78.8152 91.9947 78.9272 91.7387 78.9272 91.44C78.9272 91.0027 78.6712 90.6667 78.1592 90.432C77.6579 90.1867 76.9272 90.064 75.9672 90.064C75.0179 90.064 74.2872 90.1867 73.7752 90.432C73.2632 90.6667 73.0072 91.0027 73.0072 91.44C73.0072 91.7387 73.1192 91.9947 73.3432 92.208C73.5779 92.4107 73.9139 92.5653 74.3512 92.672C74.7992 92.768 75.3379 92.816 75.9672 92.816ZM86.9082 98.816V89.856H89.0842V98.816H86.9082ZM83.5162 95.424V93.248H92.4762V95.424H83.5162Z" fill="white"/>
<defs>
<linearGradient id="paint0_linear_1957_948" x1="73.7648" y1="0" x2="73.7648" y2="147.53" gradientUnits="userSpaceOnUse">
<stop stop-color="white"/>
<stop offset="1" stop-color="#999999"/>
</linearGradient>
<linearGradient id="paint1_linear_1957_948" x1="0" y1="73.7648" x2="147.53" y2="73.7648" gradientUnits="userSpaceOnUse">
<stop stop-color="#075B65"/>
<stop offset="0.370192" stop-color="#00838A"/>
<stop offset="0.8125" stop-color="#328A99"/>
</linearGradient>
<linearGradient id="paint2_linear_1957_948" x1="15.918" y1="73.7653" x2="131.607" y2="73.7653" gradientUnits="userSpaceOnUse">
<stop stop-color="#075B65"/>
<stop offset="0.370192" stop-color="#00838A"/>
<stop offset="0.8125" stop-color="#328A99"/>
</linearGradient>
</defs>
</svg>
