<svg width="44" height="44" viewBox="0 0 44 44" fill="none" xmlns="http://www.w3.org/2000/svg">
<path d="M35.9003 9.68404C34.6437 9.68404 33.503 10.1804 32.6559 10.9834C29.6528 8.59435 25.8572 7.161 21.73 7.1604C21.7296 7.1604 21.7293 7.16031 21.7289 7.16031C21.7287 7.16031 21.7286 7.16031 21.7285 7.16031C21.7281 7.16031 21.7279 7.16031 21.7276 7.16031C20.7434 7.16031 19.7792 7.24565 18.8386 7.4018C17.9006 4.0963 14.8622 1.66504 11.26 1.66504C6.91328 1.66504 3.37695 5.20154 3.37695 9.54834C3.37695 11.3103 4.64677 14.0375 6.14036 16.6378C4.87132 19.0664 4.14283 21.82 4.14283 24.7448C4.14283 27.6865 4.87218 30.4597 6.15385 32.899C6.15866 32.9112 6.16563 32.9215 6.17138 32.9331C9.12136 38.518 14.9858 42.3349 21.7276 42.3349H21.7285H21.7289C21.7293 42.3349 21.7299 42.3348 21.7303 42.3348C28.4715 42.3338 34.3355 38.519 37.2865 32.9369C37.2933 32.9233 37.3013 32.9114 37.3069 32.8971C38.5883 30.4582 39.3175 27.6858 39.3175 24.7448C39.3175 22.9005 39.0266 21.124 38.4969 19.4525C39.5697 17.7086 40.6245 15.6733 40.6245 14.4085C40.6245 11.8036 38.5052 9.68404 35.9003 9.68404ZM35.9003 10.676C37.9583 10.676 39.6325 12.3503 39.6325 14.4086C39.6325 16.007 37.221 19.7098 35.9003 21.5572C34.5794 19.7101 32.168 16.0078 32.168 14.4086C32.168 12.3503 33.8423 10.676 35.9003 10.676ZM32.0088 11.7358C31.4846 12.4966 31.176 13.4169 31.176 14.4085C31.176 14.9274 31.3545 15.5766 31.6379 16.2816H29.2929C28.372 12.7772 26.8872 10.0244 25.0706 8.49527C27.6512 9.02627 30.0144 10.1568 32.0088 11.7358ZM29.3274 24.745C29.3274 27.4151 29.019 29.9599 28.4803 32.2218H25.1552C25.898 30.8624 26.4849 29.491 26.4849 28.5482C26.4849 25.9432 24.3656 23.824 21.7607 23.824C19.1559 23.824 17.0365 25.9432 17.0365 28.5482C17.0365 29.4911 17.6234 30.8624 18.3662 32.2218H14.9795C14.4411 29.9599 14.1327 27.4151 14.1327 24.745C14.1327 22.9873 14.2683 21.2853 14.5129 19.6805C15.0026 18.9265 15.5128 18.1114 16.009 17.2736H28.5102C29.0316 19.5209 29.3274 22.0582 29.3274 24.745ZM21.7299 41.343C21.7294 41.343 21.729 41.3431 21.7285 41.3431C19.0149 41.3427 16.5794 38.0405 15.2338 33.2138H18.9347C19.9896 34.9772 21.1347 36.529 21.3633 36.8348C21.4571 36.9603 21.6044 37.034 21.7607 37.034C21.917 37.034 22.0643 36.9603 22.1581 36.8348C22.3867 36.5289 23.5319 34.9771 24.5867 33.2138H28.226C26.8799 38.0401 24.444 41.3421 21.7299 41.343ZM21.7607 35.6963C20.44 33.8491 18.0285 30.1464 18.0285 28.5481C18.0285 26.4902 19.7028 24.8159 21.7607 24.8159C23.8186 24.8159 25.4929 26.4902 25.4929 28.5481C25.4929 30.1464 23.0814 33.8492 21.7607 35.6963ZM16.5831 16.2816C17.9869 13.791 19.1433 11.23 19.1433 9.54843C19.1433 9.43104 19.1308 9.31674 19.1257 9.20055C19.942 8.5262 20.8193 8.15246 21.7286 8.15237H21.7299C24.5043 8.15315 26.935 11.4194 28.2611 16.2816H16.5831ZM11.26 2.6571C15.0598 2.6571 18.1513 5.74845 18.1513 9.54843C18.1513 12.8815 12.7822 20.5579 11.26 22.667C9.73796 20.5579 4.36884 12.8815 4.36884 9.54843C4.36884 5.74845 7.46019 2.6571 11.26 2.6571ZM6.7372 17.6529C8.65171 20.8319 10.7024 23.5902 10.8626 23.8046C10.9564 23.9302 11.1037 24.0038 11.26 24.0038C11.4163 24.0038 11.5636 23.9302 11.6574 23.8046C11.7449 23.6874 12.3988 22.8081 13.2853 21.5175C13.194 22.5626 13.1408 23.6381 13.1408 24.745C13.1408 27.4347 13.4231 29.9633 13.9288 32.2218H6.92067C5.78123 29.9731 5.13472 27.4339 5.13472 24.745C5.13472 22.2075 5.71411 19.8053 6.7372 17.6529ZM7.46466 33.2137H14.1678C15.0901 36.7238 16.5776 39.4793 18.3974 41.007C13.7558 40.0573 9.81608 37.1614 7.46466 33.2137ZM25.0622 41.0064C26.8821 39.4786 28.3697 36.7233 29.2921 33.2137H35.995C33.6434 37.1605 29.7037 40.056 25.0622 41.0064ZM38.3256 24.745C38.3256 27.4339 37.6788 29.973 36.539 32.2218H29.5311C30.0369 29.9633 30.3192 27.4347 30.3192 24.745C30.3192 22.0574 30.0371 19.5307 29.5318 17.2736H32.084C33.2605 19.6616 35.1979 22.2871 35.503 22.6952C35.5967 22.8208 35.744 22.8944 35.9003 22.8944C36.0567 22.8944 36.204 22.8208 36.2977 22.6952C36.4582 22.4806 37.0708 21.6511 37.7862 20.5667C38.1358 21.9023 38.3256 23.3014 38.3256 24.745Z" fill="white"/>
<path d="M35.8995 17.0327C37.1923 17.0327 38.2441 15.9811 38.2441 14.6881C38.2441 13.3923 37.1923 12.3384 35.8995 12.3384C34.6065 12.3384 33.5547 13.3923 33.5547 14.6881C33.5547 15.9811 34.6065 17.0327 35.8995 17.0327ZM35.8995 13.3303C36.6454 13.3303 37.2521 13.9394 37.2521 14.688C37.2521 15.4339 36.6453 16.0407 35.8995 16.0407C35.1536 16.0407 34.5466 15.4338 34.5466 14.688C34.5467 13.9394 35.1536 13.3303 35.8995 13.3303Z" fill="white"/>
<path d="M21.7606 26.478C20.4678 26.478 19.416 27.532 19.416 28.8273C19.416 30.1203 20.4678 31.1719 21.7606 31.1719C23.0535 31.1719 24.1053 30.1203 24.1053 28.8273C24.1053 27.532 23.0535 26.478 21.7606 26.478ZM21.7606 30.18C21.0147 30.18 20.408 29.5732 20.408 28.8273C20.408 28.0787 21.0148 27.47 21.7606 27.47C22.5066 27.47 23.1133 28.0787 23.1133 28.8273C23.1133 29.5732 22.5065 30.18 21.7606 30.18Z" fill="white"/>
<path d="M16.026 9.56363C16.026 6.93609 13.8884 4.79883 11.2612 4.79883C8.63362 4.79883 6.49609 6.93618 6.49609 9.56363C6.49609 12.1946 8.63362 14.3351 11.2612 14.3351C13.8884 14.3351 16.026 12.1946 16.026 9.56363ZM7.48798 9.56363C7.48798 7.48326 9.18052 5.79072 11.2611 5.79072C13.3414 5.79072 15.034 7.48326 15.034 9.56363C15.034 11.6475 13.3414 13.3431 11.2611 13.3431C9.18052 13.3431 7.48798 11.6475 7.48798 9.56363Z" fill="white"/>
<path d="M13.0461 11.5678L13.3728 9.28198C13.3931 9.13976 13.3507 8.99564 13.2565 8.88676C13.1623 8.7783 13.0256 8.71591 12.8818 8.71591H11.756V7.63559C11.756 7.36162 11.5339 7.13965 11.2601 7.13965C10.9862 7.13965 10.7641 7.36171 10.7641 7.63559V8.71591H9.63851C9.49474 8.71591 9.35801 8.7783 9.26382 8.88676C9.16964 8.99564 9.12727 9.13976 9.14755 9.28198L9.4742 11.5678C9.50909 11.8122 9.71835 11.9936 9.96516 11.9936H12.5552C12.802 11.9936 13.0113 11.8122 13.0461 11.5678ZM12.1251 11.0017H10.3952L10.2103 9.70789H12.3099L12.1251 11.0017Z" fill="white"/>
</svg>
