<svg width="39" height="39" viewBox="0 0 39 39" fill="none" xmlns="http://www.w3.org/2000/svg">
<g clip-path="url(#clip0_4847_395)">
<path d="M12.0471 18.9567C16.1556 18.9567 19.4981 15.6142 19.4981 11.5057C19.4981 7.39725 16.1556 4.05475 12.0471 4.05475C7.93866 4.05475 4.59616 7.39725 4.59616 11.5057C4.59616 15.6142 7.93866 18.9567 12.0471 18.9567ZM17.8224 8.78701C18.2126 9.6124 18.4318 10.5338 18.4318 11.5057C18.4318 13.0744 17.8621 14.5119 16.9201 15.6246L12.9156 11.6201L17.8225 8.78708L17.8224 8.78701ZM12.5803 5.14508C14.5274 5.30694 16.2284 6.34539 17.2873 7.86464L12.5803 10.5822V5.14508ZM11.5139 5.14508V11.5057C11.5139 11.6471 11.5702 11.7828 11.6701 11.8828L16.1659 16.3787C15.0532 17.3207 13.6157 17.8904 12.0471 17.8904C8.52663 17.8904 5.66249 15.0262 5.66249 11.5058C5.66249 8.16506 8.24213 5.41724 11.5139 5.14515L11.5139 5.14508ZM26.3538 16.2112H25.2874V11.2248H26.3538V16.2112ZM22.2401 16.2112H21.1737V13.796H22.2401V16.2112ZM24.2969 16.2112H23.2305V12.7676H24.2969V16.2112ZM17.314 34.0051C17.314 34.2996 17.0753 34.5383 16.7808 34.5383H5.12936C4.83488 34.5383 4.59616 34.2996 4.59616 34.0051C4.59616 33.7106 4.83488 33.4719 5.12936 33.4719H16.7808C17.0753 33.4719 17.314 33.7106 17.314 34.0051ZM4.59616 23.7581C4.59616 23.4636 4.83488 23.2248 5.12936 23.2248H19.6607C19.9552 23.2248 20.1939 23.4636 20.1939 23.7581C20.1939 24.0525 19.9552 24.2913 19.6607 24.2913H5.12936C4.83488 24.2913 4.59616 24.0525 4.59616 23.7581ZM4.59616 27.1737C4.59616 26.8792 4.83488 26.6405 5.12936 26.6405H21.1331C21.4276 26.6405 21.6663 26.8792 21.6663 27.1737C21.6663 27.4682 21.4276 27.7069 21.1331 27.7069H5.12936C4.83488 27.7069 4.59616 27.4682 4.59616 27.1737ZM24.1368 30.5893C24.1368 30.8838 23.898 31.1225 23.6036 31.1225H5.12936C4.83488 31.1225 4.59616 30.8838 4.59616 30.5893C4.59616 30.2948 4.83488 30.0561 5.12936 30.0561H23.6036C23.898 30.0561 24.1368 30.2948 24.1368 30.5893ZM31.1899 17.0452V10.8369C31.1899 10.0826 30.8861 9.38998 30.3113 8.83347L22.6612 1.18353C22.1046 0.608659 21.4119 0.30481 20.6578 0.30481H1.42375C1.28238 0.30481 1.14671 0.361024 1.04678 0.460962C0.94684 0.560976 0.890625 0.696562 0.890625 0.838013V38.1622C0.890625 38.3036 0.94684 38.4393 1.04678 38.5393C1.14679 38.6392 1.28238 38.6954 1.42383 38.6954H30.6567C30.9512 38.6954 31.1899 38.4566 31.1899 38.1622V31.9159C35.0524 31.6416 38.1113 28.4118 38.1113 24.4806C38.1113 20.5495 35.0524 17.3196 31.1899 17.0453V17.0452ZM23.5983 3.62857L27.8661 7.89625H24.2286C23.881 7.89625 23.5983 7.6135 23.5983 7.26601V3.62857ZM30.1235 37.6289H1.95696V1.37106H20.6578C21.1238 1.37106 21.5409 1.55829 21.8975 1.92765C21.8996 1.92986 21.9018 1.93215 21.904 1.93428L21.9637 1.994C22.3301 2.37448 22.5319 2.87294 22.5319 3.39807V7.26593C22.5319 8.20147 23.2931 8.96258 24.2286 8.96258H28.0965C28.6218 8.96258 29.1205 9.16451 29.501 9.53113L29.5603 9.59039C29.5625 9.5926 29.5648 9.59481 29.567 9.59694C29.9362 9.95335 30.1234 10.3705 30.1234 10.8366V17.0449C26.2609 17.3192 23.2021 20.5491 23.2021 24.4802C23.2021 28.4114 26.2609 31.6412 30.1234 31.9155V37.6286L30.1235 37.6289ZM30.6567 30.8686C27.1342 30.8686 24.2685 28.0029 24.2685 24.4805C24.2685 20.9581 27.1343 18.0923 30.6567 18.0923C34.1791 18.0923 37.0448 20.9581 37.0448 24.4805C37.0448 28.0029 34.1791 30.8686 30.6567 30.8686ZM31.2388 18.765H30.0747C29.7726 18.765 29.4804 18.8915 29.2733 19.112C29.0736 19.3245 28.9734 19.5982 28.9912 19.8827L29.3493 25.6243C29.386 26.2139 29.8619 26.6757 30.4328 26.6757H30.8808C31.4516 26.6757 31.9275 26.2139 31.9643 25.6243L32.3224 19.8827C32.3402 19.5982 32.2399 19.3245 32.0404 19.112C31.8332 18.8915 31.541 18.765 31.2389 18.765H31.2388ZM30.8999 25.558C30.898 25.5892 30.8836 25.6074 30.8807 25.6093L30.4348 25.6104C30.4298 25.6074 30.4155 25.5892 30.4135 25.558L30.0568 19.8372C30.0617 19.8341 30.0683 19.8314 30.0747 19.8314H31.2388C31.2451 19.8314 31.2517 19.8341 31.2567 19.8372L30.8999 25.558ZM30.8202 27.1896H30.4932C29.6644 27.1896 28.9901 27.8639 28.9901 28.6928C28.9901 29.5216 29.6645 30.1959 30.4932 30.1959H30.8202C31.6491 30.1959 32.3233 29.5216 32.3233 28.6928C32.3233 27.8639 31.649 27.1896 30.8202 27.1896ZM30.8202 29.1295H30.4932C30.2524 29.1295 30.0565 28.9336 30.0565 28.6928C30.0565 28.4519 30.2524 28.256 30.4932 28.256H30.8202C31.0611 28.256 31.2569 28.4519 31.2569 28.6928C31.2569 28.9336 31.061 29.1295 30.8202 29.1295Z" fill="white"/>
</g>
<defs>
<clipPath id="clip0_4847_395">
<rect width="39" height="39" fill="white"/>
</clipPath>
</defs>
</svg>
