<svg width="50" height="50" viewBox="0 0 50 50" fill="none" xmlns="http://www.w3.org/2000/svg">
<path d="M44.5312 28.9062H5.46875C4.43311 28.9074 3.44021 29.3193 2.7079 30.0516C1.97559 30.784 1.56366 31.7769 1.5625 32.8125V40.625C1.56366 41.6606 1.97559 42.6535 2.7079 43.3859C3.44021 44.1182 4.43311 44.5301 5.46875 44.5312H44.5312C45.5669 44.5301 46.5598 44.1182 47.2921 43.3859C48.0244 42.6535 48.4363 41.6606 48.4375 40.625V32.8125C48.4363 31.7769 48.0244 30.784 47.2921 30.0516C46.5598 29.3193 45.5669 28.9074 44.5312 28.9062ZM3.125 40.625V32.8125C3.12572 32.1911 3.37289 31.5954 3.81227 31.156C4.25165 30.7166 4.84737 30.4695 5.46875 30.4688H32.8125V42.9688H5.46875C4.84737 42.968 4.25165 42.7209 3.81227 42.2815C3.37289 41.8421 3.12572 41.2464 3.125 40.625ZM46.875 40.625C46.8743 41.2464 46.6271 41.8421 46.1877 42.2815C45.7483 42.7209 45.1526 42.968 44.5312 42.9688H34.375V30.4688H44.5312C45.1526 30.4695 45.7483 30.7166 46.1877 31.156C46.6271 31.5954 46.8743 32.1911 46.875 32.8125V40.625Z" fill="white"/>
<path d="M42.1869 35.1566C42.1877 34.4665 41.9603 33.7955 41.5401 33.248C41.1199 32.7006 40.5304 32.3074 39.8635 32.1298C39.1967 31.9522 38.4898 32.0001 37.8529 32.2659C37.2161 32.5318 36.685 33.0008 36.3424 33.5999C35.9998 34.199 35.8649 34.8946 35.9587 35.5783C36.0525 36.262 36.3698 36.8955 36.8611 37.3802C37.3524 37.8649 37.9901 38.1735 38.6751 38.2581C39.36 38.3426 40.0537 38.1983 40.648 37.8476L43.9781 41.1777L45.083 40.0728L41.7529 36.7428C42.0375 36.2627 42.1874 35.7147 42.1869 35.1566ZM39.0619 36.7191C38.7529 36.7191 38.4508 36.6275 38.1938 36.4558C37.9369 36.2841 37.7366 36.0401 37.6184 35.7546C37.5001 35.4691 37.4691 35.1549 37.5294 34.8518C37.5897 34.5487 37.7385 34.2703 37.9571 34.0518C38.1756 33.8333 38.454 33.6844 38.7571 33.6241C39.0602 33.5639 39.3743 33.5948 39.6599 33.7131C39.9454 33.8313 40.1894 34.0316 40.3611 34.2885C40.5328 34.5455 40.6244 34.8476 40.6244 35.1566C40.6239 35.5709 40.4591 35.968 40.1662 36.2609C39.8733 36.5539 39.4762 36.7186 39.0619 36.7191Z" fill="white"/>
<path d="M6.25 34.375V35.9375C6.25049 36.3518 6.41527 36.7489 6.70819 37.0418C7.00111 37.3347 7.39825 37.4995 7.8125 37.5H10.9375V39.0625H6.25V40.625H10.9375C11.3517 40.6245 11.7489 40.4597 12.0418 40.1668C12.3347 39.8739 12.4995 39.4767 12.5 39.0625V37.5C12.4995 37.0858 12.3347 36.6886 12.0418 36.3957C11.7489 36.1028 11.3517 35.938 10.9375 35.9375H7.8125V34.375H12.5V32.8125H7.8125C7.39825 32.813 7.00111 32.9778 6.70819 33.2707C6.41527 33.5636 6.25049 33.9607 6.25 34.375Z" fill="white"/>
<path d="M14.0625 34.375V39.0625C14.063 39.4767 14.2278 39.8739 14.5207 40.1668C14.8136 40.4597 15.2107 40.6245 15.625 40.625H20.3125V39.0625H15.625V37.5H20.3125V35.9375H15.625V34.375H20.3125V32.8125H15.625C15.2107 32.813 14.8136 32.9778 14.5207 33.2707C14.2278 33.5636 14.063 33.9607 14.0625 34.375Z" fill="white"/>
<path d="M26.5625 32.8125H23.4375C23.0232 32.813 22.6261 32.9778 22.3332 33.2707C22.0403 33.5636 21.8755 33.9607 21.875 34.375V39.0625C21.8755 39.4767 22.0403 39.8739 22.3332 40.1668C22.6261 40.4597 23.0232 40.6245 23.4375 40.625H26.5625C26.9767 40.6245 27.3739 40.4597 27.6668 40.1668C27.9597 39.8739 28.1245 39.4767 28.125 39.0625V34.375C28.1245 33.9607 27.9597 33.5636 27.6668 33.2707C27.3739 32.9778 26.9767 32.813 26.5625 32.8125ZM26.5625 39.0625H23.4375V34.375H26.5625L26.5635 39.0625H26.5625Z" fill="white"/>
<path d="M29.6875 23.4375C29.6864 24.7833 30.1828 26.0819 31.0813 27.0839L31.3142 27.3438H34.375V24.2188C34.375 24.0115 34.4573 23.8128 34.6038 23.6663C34.7503 23.5198 34.9491 23.4375 35.1563 23.4375C35.3635 23.4375 35.5622 23.5198 35.7087 23.6663C35.8552 23.8128 35.9375 24.0115 35.9375 24.2188V27.3438H38.9983L39.2313 27.0839C39.7476 26.5071 40.1356 25.8273 40.3695 25.0894C40.6034 24.3514 40.6779 23.5723 40.5881 22.8034C40.4983 22.0345 40.2462 21.2934 39.8485 20.6293C39.4508 19.9651 38.9166 19.393 38.2813 18.9508V13.8617C38.9166 13.4195 39.4508 12.8474 39.8485 12.1832C40.2462 11.5191 40.4983 10.778 40.5881 10.0091C40.6779 9.24025 40.6034 8.46106 40.3695 7.72313C40.1356 6.9852 39.7476 6.30536 39.2313 5.72861L38.9983 5.46875H35.9375V8.59375C35.9375 8.80095 35.8552 8.99966 35.7087 9.14618C35.5622 9.29269 35.3635 9.375 35.1563 9.375C34.9491 9.375 34.7503 9.29269 34.6038 9.14618C34.4573 8.99966 34.375 8.80095 34.375 8.59375V5.46875H31.3142L31.0813 5.72861C30.5649 6.30536 30.1769 6.9852 29.943 7.72313C29.7091 8.46106 29.6346 9.24025 29.7244 10.0091C29.8142 10.778 30.0663 11.5191 30.464 12.1832C30.8617 12.8474 31.3959 13.4195 32.0313 13.8617V18.9508C31.3092 19.4557 30.7193 20.1269 30.3113 20.9079C29.9034 21.6888 29.6894 22.5564 29.6875 23.4375ZM33.2038 12.7576C32.7253 12.4816 32.3108 12.1071 31.9877 11.659C31.6645 11.211 31.4402 10.6994 31.3293 10.1582C31.2185 9.617 31.2238 9.05844 31.3448 8.51941C31.4658 7.98039 31.6997 7.47317 32.0313 7.03125H32.8125V8.59375C32.8125 9.21535 33.0594 9.81149 33.499 10.251C33.9385 10.6906 34.5347 10.9375 35.1563 10.9375C35.7779 10.9375 36.374 10.6906 36.8135 10.251C37.2531 9.81149 37.5 9.21535 37.5 8.59375V7.03125H38.2813C38.6128 7.47316 38.8467 7.98038 38.9678 8.5194C39.0888 9.05842 39.094 9.61698 38.9832 10.1582C38.8724 10.6994 38.648 11.2109 38.3249 11.659C38.0018 12.1071 37.5873 12.4816 37.1088 12.7576L36.7188 12.9833V19.829L37.1087 20.0547C37.5872 20.3307 38.0018 20.7052 38.3249 21.1533C38.6481 21.6014 38.8725 22.1129 38.9833 22.6542C39.0941 23.1954 39.0888 23.754 38.9678 24.293C38.8468 24.8321 38.6128 25.3393 38.2813 25.7812H37.5V24.2188C37.5 23.5971 37.2531 23.001 36.8135 22.5615C36.374 22.1219 35.7779 21.875 35.1563 21.875C34.5347 21.875 33.9385 22.1219 33.499 22.5615C33.0594 23.001 32.8125 23.5971 32.8125 24.2188V25.7812H32.0313C31.6997 25.3393 31.4658 24.8321 31.3447 24.2931C31.2237 23.7541 31.2185 23.1955 31.3293 22.6543C31.4401 22.1131 31.6645 21.6016 31.9876 21.1535C32.3107 20.7054 32.7252 20.3309 33.2037 20.0549L33.5938 19.8292V12.9835L33.2038 12.7576Z" fill="white"/>
<path d="M8.44746 22.5935L10.5514 22.3148C10.9962 22.873 11.5025 23.3793 12.0607 23.8241L11.782 25.9279L15.6091 27.514L16.8998 25.8304C17.6104 25.9117 18.3279 25.9117 19.0385 25.8304L20.3293 27.514L24.156 25.9279L23.8771 23.8241C24.4354 23.3793 24.9418 22.8729 25.3866 22.3146L27.4905 22.5932L29.0766 18.7661L27.3928 17.4756C27.4743 16.765 27.4743 16.0475 27.3928 15.3369L29.0764 14.0461L27.4904 10.2194L25.3866 10.4982C24.9418 9.93996 24.4354 9.4336 23.8771 8.98877L24.1559 6.88496L20.3288 5.29883L19.0381 6.98262C18.3275 6.90134 17.61 6.90134 16.8994 6.98262L15.6086 5.29902L11.7819 6.88496L12.0607 8.98877C11.5025 9.43363 10.9961 9.93998 10.5513 10.4982L8.44746 10.2195L6.86133 14.0466L8.54512 15.3373C8.46358 16.0479 8.46358 16.7654 8.54512 17.476L6.86152 18.7668L8.44746 22.5935ZM10.1521 17.6933C10.0112 16.8412 10.0112 15.9717 10.1521 15.1196L10.2273 14.6582L8.76406 13.5364L9.43154 11.9259L11.2605 12.1681L11.534 11.7882C12.0371 11.088 12.6506 10.4742 13.3507 9.9709L13.7306 9.69746L13.4884 7.86846L15.0989 7.20098L16.2209 8.66475L16.6823 8.58945C17.5345 8.44912 18.4038 8.44912 19.256 8.58945L19.7174 8.66475L20.8392 7.20156L22.4497 7.86904L22.2072 9.69805L22.5871 9.97148C23.2874 10.4745 23.9012 11.088 24.4045 11.7882L24.6779 12.1681L26.5069 11.9259L27.1744 13.5364L25.7106 14.6584L25.7859 15.1198C25.9268 15.9719 25.9268 16.8414 25.7859 17.6935L25.7106 18.1549L27.1738 19.2767L26.5063 20.8872L24.6773 20.645L24.4039 21.0249C23.9008 21.7251 23.2872 22.3388 22.5872 22.842L22.2073 23.1154L22.4495 24.9444L20.839 25.6119L19.717 24.1481L19.2556 24.2234C18.4034 24.3638 17.5341 24.3638 16.6819 24.2234L16.2205 24.1481L15.0987 25.6113L13.4882 24.9438L13.7304 23.1148L13.3505 22.8414C12.6503 22.3383 12.0366 21.7247 11.5334 21.0247L11.26 20.6448L9.43096 20.887L8.76348 19.2765L10.2272 18.1545L10.1521 17.6933Z" fill="white"/>
<path d="M17.9688 21.0938C18.8959 21.0938 19.8021 20.8188 20.573 20.3038C21.3438 19.7887 21.9446 19.0566 22.2994 18.2001C22.6542 17.3436 22.747 16.4011 22.5662 15.4918C22.3853 14.5825 21.9389 13.7472 21.2833 13.0917C20.6278 12.4361 19.7925 11.9897 18.8832 11.8088C17.9739 11.628 17.0315 11.7208 16.1749 12.0756C15.3184 12.4304 14.5863 13.0312 14.0712 13.802C13.5562 14.5729 13.2813 15.4792 13.2812 16.4063C13.2827 17.649 13.777 18.8405 14.6558 19.7192C15.5345 20.598 16.726 21.0923 17.9688 21.0938ZM17.9688 13.2813C18.5868 13.2813 19.191 13.4645 19.7049 13.8079C20.2188 14.1513 20.6193 14.6393 20.8559 15.2104C21.0924 15.7814 21.1543 16.4097 21.0337 17.0159C20.9131 17.6221 20.6155 18.1789 20.1785 18.616C19.7414 19.053 19.1846 19.3506 18.5784 19.4712C17.9722 19.5918 17.3439 19.5299 16.7729 19.2934C16.2018 19.0569 15.7138 18.6563 15.3704 18.1424C15.027 17.6285 14.8438 17.0243 14.8438 16.4063C14.8447 15.5777 15.1742 14.7834 15.7601 14.1976C16.3459 13.6117 17.1402 13.2822 17.9688 13.2813Z" fill="white"/>
</svg>
