<svg width="49" height="49" viewBox="0 0 49 49" fill="none" xmlns="http://www.w3.org/2000/svg">
<path d="M11.1329 19.2748C12.117 21.5943 14.8044 22.6933 17.1348 21.7055L20.9164 20.1023C22.8633 19.2815 23.9599 17.2624 23.6602 15.2278L26.5628 13.9984C27.8016 15.6086 30.007 16.2566 31.9758 15.4206L35.7534 13.8179C38.0827 12.8338 39.1733 10.1456 38.1844 7.81507C37.1977 5.48967 34.5049 4.39856 32.1825 5.38488L28.4007 6.98762C26.2151 7.91068 25.0216 10.4073 25.8929 12.7814L23.2512 13.9002C22.1973 11.7156 19.6001 10.7132 17.3463 11.6694L13.5645 13.2726C11.1866 14.2764 10.1592 17.0089 11.1329 19.2748ZM28.9393 8.26047L32.7223 6.65725C34.3616 5.96139 36.2273 6.74195 36.912 8.35493C37.6008 9.97901 36.843 11.8572 35.2151 12.5444C35.215 12.5444 35.2145 12.5449 35.214 12.5449L31.4357 14.1481C30.1754 14.6839 28.7844 14.3448 27.8964 13.4336L29.4051 12.7947C30.4166 12.3663 30.8909 11.1951 30.4627 10.1836C30.3138 9.83172 29.9081 9.6675 29.5567 9.81689C29.2053 9.96542 29.041 10.3712 29.1898 10.7226C29.321 11.0322 29.1756 11.3908 28.866 11.5222L27.1659 12.2422C26.6024 10.5957 27.4358 8.89603 28.9393 8.26047ZM17.8858 12.9418C19.4441 12.2808 21.218 12.9583 21.9731 14.4413L20.2788 15.1588C19.9691 15.2897 19.6105 15.1448 19.4791 14.8348L19.4487 14.7632C19.2993 14.4118 18.8926 14.2484 18.5425 14.397C18.1911 14.5463 18.0271 14.9517 18.1763 15.3032L18.2066 15.3743C18.6376 16.3922 19.8138 16.8572 20.8177 16.4317L22.3267 15.7926C22.3643 17.0629 21.6396 18.2976 20.3791 18.8291C20.3787 18.8291 20.3785 18.8291 20.378 18.8295L16.5952 20.4331C14.974 21.1207 13.0946 20.3594 12.4039 18.7323C11.7322 17.1666 12.4296 15.2522 14.1029 14.5455L17.8858 12.9418Z" fill="white"/>
<path d="M16.2366 10.5323C16.5394 10.7612 16.9743 10.7019 17.2042 10.3959C17.4339 10.0908 17.3728 9.65759 17.0679 9.42809L14.7083 7.65213C14.4039 7.42177 13.9697 7.48341 13.7407 7.78851C13.511 8.09361 13.5721 8.52686 13.877 8.75635L16.2366 10.5323Z" fill="white"/>
<path d="M28.3574 5.39917L28.7232 2.46912C28.7707 2.09071 28.5018 1.74513 28.1231 1.69795C27.7424 1.64981 27.3988 1.91931 27.3517 2.2982L26.9859 5.22825C26.9384 5.60666 27.2073 5.95224 27.586 5.99942C27.9686 6.04651 28.3104 5.775 28.3574 5.39917Z" fill="white"/>
<path d="M22.4305 8.28342C22.7819 8.1345 22.9461 7.7291 22.7974 7.37768L21.2282 3.67321C21.0793 3.32131 20.6736 3.15756 20.3221 3.30647C19.9707 3.45539 19.8065 3.86078 19.9552 4.21221L21.5245 7.91668C21.6744 8.27107 22.0823 8.43118 22.4305 8.28342Z" fill="white"/>
<path d="M46.1602 45.9244H44.004V37.9737C44.004 36.8533 43.0925 35.9418 41.9721 35.9418H38.1387C37.0183 35.9418 36.1067 36.8533 36.1067 37.9737V45.9244H33.8722V27.8327C33.8722 26.7123 32.9607 25.8007 31.8403 25.8007H28.0067C26.8863 25.8007 25.9749 26.7123 25.9749 27.8327V45.9244H23.7403V25.6028C23.7403 24.4824 22.8287 23.5708 21.7083 23.5708H17.8702C16.7498 23.5708 15.8384 24.4824 15.8384 25.6028V45.9245H13.6083V33.0251C13.6083 31.9047 12.6969 30.9936 11.5765 30.9936H7.7384C6.618 30.9936 5.70643 31.9048 5.70643 33.0251V45.9244H2.84156C2.4598 45.9244 2.15039 46.234 2.15039 46.6155C2.15039 46.9971 2.4597 47.3067 2.84156 47.3067C15.4322 47.3089 31.7209 47.3068 46.1603 47.3067C46.5421 47.3067 46.8515 46.9971 46.8515 46.6155C46.8514 46.234 46.5421 45.9244 46.1602 45.9244ZM12.2259 45.9244H7.08867V33.0251C7.08867 32.667 7.38028 32.3759 7.7384 32.3759H11.5765C11.9346 32.3759 12.226 32.667 12.226 33.0251L12.2259 45.9244ZM22.358 45.9244H17.2207V25.6028C17.2207 25.2446 17.512 24.953 17.8702 24.953H21.7083C22.0664 24.953 22.358 25.2446 22.358 25.6028V45.9244ZM32.49 45.9244H27.3572V27.8327C27.3572 27.4745 27.6485 27.1829 28.0067 27.1829H31.8403C32.1984 27.1829 32.49 27.4745 32.49 27.8327V45.9244ZM42.6218 45.9244H37.489V37.9737C37.489 37.6156 37.7806 37.324 38.1387 37.324H41.9721C42.3302 37.324 42.6218 37.6156 42.6218 37.9737V45.9244Z" fill="white"/>
</svg>
