<svg width="44" height="44" viewBox="0 0 44 44" fill="none" xmlns="http://www.w3.org/2000/svg">
<path d="M41.9375 36.3859H38.1487V10.7284H41.4246C41.7086 10.7284 41.9629 10.5545 42.0654 10.2898C42.1678 10.0251 42.0977 9.72466 41.8887 9.53353L34.0051 2.32097C33.7425 2.08035 33.3396 2.08035 33.077 2.32097L25.1941 9.53353C24.9844 9.72466 24.9143 10.0251 25.0174 10.2898C25.1199 10.5538 25.3749 10.7284 25.6582 10.7284H28.9341V13.9782H21.7821C21.4026 13.9782 21.0946 14.2862 21.0946 14.6657V19.0155H13.9425C13.563 19.0155 13.255 19.3235 13.255 19.703V23.4478H6.10294C5.72344 23.4478 5.41544 23.7558 5.41544 24.1353V36.3859H2.0625C1.683 36.3859 1.375 36.6939 1.375 37.0734V41.1716C1.375 41.5511 1.683 41.8591 2.0625 41.8591H41.9375C42.317 41.8591 42.625 41.5511 42.625 41.1716V37.0734C42.625 36.6939 42.317 36.3859 41.9375 36.3859ZM27.4285 9.35341L33.5417 3.7606L39.655 9.35341H37.4619C37.0824 9.35341 36.7744 9.66141 36.7744 10.0409V36.3859H30.3098V10.0409C30.3098 9.66141 30.0018 9.35341 29.6223 9.35341H27.4285ZM22.4702 15.3532H28.9348V36.3859H22.4702V15.3532ZM14.6307 20.3905H21.0952V36.3859H14.6307V20.3905ZM6.79113 24.8228H13.2557V36.3859H6.79113V24.8228ZM41.2507 40.4841H2.75V37.7609H41.25L41.2507 40.4841Z" fill="white"/>
</svg>
