<svg width="43" height="43" viewBox="0 0 43 43" fill="none" xmlns="http://www.w3.org/2000/svg">
<path d="M15.9243 23.4123C17.5443 25.0324 19.6977 25.9243 21.9879 25.9243C24.279 25.9243 26.4324 25.0324 28.0516 23.4123C31.395 20.0689 31.395 14.6284 28.0516 11.2841C24.7082 7.94071 19.2677 7.94071 15.9234 11.2841C12.5809 14.6284 12.5809 20.0689 15.9243 23.4123ZM16.6365 11.9972C19.5868 9.04678 24.3882 9.04678 27.3394 11.9972C30.2898 14.9475 30.2898 19.7489 27.3394 22.7001C25.91 24.1295 24.0095 24.9165 21.9879 24.9165C19.9664 24.9165 18.0659 24.1295 16.6365 22.7001C13.6861 19.7489 13.6861 14.9484 16.6365 11.9972ZM41.7318 32.785C41.6638 31.752 41.1943 30.8735 40.373 30.2428L37.2286 27.8299V10.5434V8.2229C37.2286 7.94491 37.0027 7.71899 36.7247 7.71899H28.1885C26.3568 6.53481 24.2219 5.89905 21.9888 5.89905C19.7556 5.89905 17.6208 6.53481 15.7891 7.71899H1.76367C1.48568 7.71899 1.25977 7.94491 1.25977 8.2229V10.5434V30.4586C1.25977 30.7366 1.48568 30.9625 1.76367 30.9625H15.05L14.5562 32.9907H13.613C12.2525 32.9907 11.1456 34.0976 11.1456 35.4582V35.7076C11.1456 35.9856 11.3715 36.2115 11.6495 36.2115H26.838C27.116 36.2115 27.342 35.9856 27.342 35.7076V35.4582C27.342 34.0976 26.235 32.9907 24.8745 32.9907H23.9271L23.4073 30.9625H31.1557L34.8997 35.7572C35.5329 36.5685 36.4106 37.0304 37.4386 37.0934C37.5167 37.0984 37.5948 37.1009 37.672 37.1009C38.6068 37.1009 39.4491 36.7499 40.1219 36.0772L40.7165 35.4825C41.4488 34.7502 41.7999 33.818 41.7318 32.785ZM33.7449 25.1567C33.5442 25.003 33.2603 25.0215 33.0814 25.2003L32.921 25.3607L31.4135 23.8532C32.7296 21.9552 33.4375 19.7069 33.4375 17.3486C33.4375 15.0743 32.7783 12.9017 31.5512 11.0473H36.2199V27.0564L33.7449 25.1567ZM30.7131 27.5687L29.3021 26.1578C29.5717 25.9335 29.8329 25.6958 30.084 25.4447C30.3352 25.1936 30.5728 24.9324 30.7971 24.6628L32.208 26.0738L30.7131 27.5687ZM36.2208 8.7268V10.0395H30.8021C30.5762 9.76821 30.3368 9.50534 30.084 9.25254C29.9018 9.0703 29.7137 8.89561 29.5222 8.7268H36.2208ZM29.3719 9.96557C31.3438 11.9375 32.4306 14.5595 32.4306 17.3486C32.4306 20.1378 31.3447 22.7598 29.3719 24.7317C27.3999 26.7037 24.7779 27.7904 21.9888 27.7904C19.1997 27.7904 16.5777 26.7045 14.6057 24.7317C10.5342 20.6601 10.5342 14.0363 14.6057 9.96473C16.5777 7.99278 19.1997 6.90602 21.9888 6.90602C24.7779 6.90602 27.3991 7.99278 29.3719 9.96557ZM10.5728 18.1599H5.45311V14.6578H10.8625C10.5871 15.8058 10.4905 16.9883 10.5728 18.1599ZM2.26758 8.7268H14.4546C14.2622 8.89477 14.0749 9.0703 13.8927 9.25254C13.6391 9.50618 13.4005 9.76905 13.1763 10.0395H2.26758V8.7268ZM26.3123 35.2037H12.1761C12.297 34.5201 12.895 33.9985 13.613 33.9985H24.8753C25.5934 33.9985 26.1922 34.5201 26.3123 35.2037ZM22.8874 32.9907H15.5934L16.0872 30.9625H22.3667L22.8874 32.9907ZM2.26758 29.9547V11.0473H12.4272C11.8863 11.8678 11.4622 12.7429 11.1548 13.65H4.9492C4.67121 13.65 4.44529 13.8759 4.44529 14.1539V18.6638C4.44529 18.9418 4.67121 19.1677 4.9492 19.1677H10.6887C10.7836 19.7615 10.9247 20.3486 11.1128 20.9239H4.9492C4.67121 20.9239 4.44529 21.1498 4.44529 21.4278C4.44529 21.7057 4.67121 21.9317 4.9492 21.9317H11.4958C11.7402 22.4927 12.0316 23.0377 12.3701 23.561H4.9492C4.67121 23.561 4.44529 23.7869 4.44529 24.0649C4.44529 24.3429 4.67121 24.5688 4.9492 24.5688H13.1016C13.3476 24.8711 13.6105 25.1634 13.8919 25.4447C16.0545 27.6073 18.9292 28.7982 21.9879 28.7982C24.3462 28.7982 26.5953 28.0894 28.4925 26.7742L30.0001 28.2817L29.7884 28.4934C29.6087 28.6731 29.5911 28.9595 29.7473 29.1602L30.3687 29.9555H2.26758V29.9547ZM40.0043 34.7695L39.4097 35.3641C38.8848 35.889 38.2423 36.1317 37.5015 36.0872C36.76 36.0419 36.1528 35.7219 35.6959 35.1365L30.8172 28.8906L33.4821 26.2258L39.7599 31.0431C40.3528 31.4975 40.6778 32.1064 40.7265 32.8513C40.7753 33.5963 40.5325 34.2421 40.0043 34.7695ZM18.9234 20.1117C20.2747 20.1117 21.4017 19.1358 21.6394 17.8525H23.954V18.4891C23.954 18.7671 24.1799 18.9931 24.4579 18.9931C24.7359 18.9931 24.9618 18.7671 24.9618 18.4891V17.8525H25.7782V18.4891C25.7782 18.7671 26.0041 18.9931 26.2821 18.9931C26.5601 18.9931 26.786 18.7671 26.786 18.4891V17.8525H27.3117C27.5897 17.8525 27.8156 17.6266 27.8156 17.3486C27.8156 17.0707 27.5897 16.8447 27.3117 16.8447H21.6394C21.4017 15.5615 20.2747 14.5856 18.9234 14.5856C17.3999 14.5856 16.1603 15.8252 16.1603 17.3486C16.1603 18.8721 17.3999 20.1117 18.9234 20.1117ZM18.9234 15.5934C19.8909 15.5934 20.6786 16.3803 20.6786 17.3486C20.6786 18.3161 19.8909 19.1031 18.9234 19.1031C17.9559 19.1031 17.1681 18.3153 17.1681 17.3478C17.1681 16.3811 17.9559 15.5934 18.9234 15.5934ZM10.6988 26.702C10.6988 26.98 10.4729 27.2059 10.1949 27.2059H4.9492C4.67121 27.2059 4.44529 26.98 4.44529 26.702C4.44529 26.424 4.67121 26.1981 4.9492 26.1981H10.1949C10.4729 26.1981 10.6988 26.424 10.6988 26.702Z" fill="white"/>
</svg>
