<svg width="44" height="41" viewBox="0 0 44 41" fill="none" xmlns="http://www.w3.org/2000/svg">
<path d="M37.1719 32.394H6.67188C6.14575 32.394 5.71875 31.968 5.71875 31.4409C5.71875 30.9138 6.14575 30.4878 6.67188 30.4878H37.1719C37.698 30.4878 38.125 30.9138 38.125 31.4409C38.125 31.968 37.698 32.394 37.1719 32.394Z" fill="white"/>
<path d="M19.3065 20.9565H6.67188C6.14575 20.9565 5.71875 20.5305 5.71875 20.0034C5.71875 19.4763 6.14575 19.0503 6.67188 19.0503H19.3065C19.8326 19.0503 20.2596 19.4763 20.2596 20.0034C20.2596 20.5305 19.8336 20.9565 19.3065 20.9565Z" fill="white"/>
<path d="M27.5968 25.3134C27.3919 25.3134 27.185 25.2476 27.0106 25.1113C26.596 24.7873 26.5226 24.1878 26.8467 23.7741L41.5353 4.97371C41.8594 4.5572 42.4589 4.48476 42.8735 4.80882C43.2881 5.13288 43.3615 5.7324 43.0374 6.14605L28.3488 24.9474C28.1601 25.1876 27.8799 25.3134 27.5968 25.3134Z" fill="white"/>
<path d="M22.9042 26.6754C22.4906 26.6754 22.1103 26.4047 21.9892 25.9872C21.8424 25.482 22.1331 24.9531 22.6393 24.8072L27.3315 23.4452C27.8376 23.2975 28.3656 23.5882 28.5124 24.0952C28.6592 24.6004 28.3685 25.1294 27.8624 25.2752L23.1701 26.6372C23.0815 26.663 22.9919 26.6754 22.9042 26.6754Z" fill="white"/>
<path d="M22.905 26.6752C22.8926 26.6752 22.8812 26.6752 22.8678 26.6742C22.3417 26.6542 21.9319 26.212 21.9519 25.6859L22.1377 20.803C22.1578 20.2769 22.5828 19.8594 23.1271 19.887C23.6532 19.9071 24.063 20.3493 24.043 20.8754L23.8572 25.7583C23.8372 26.272 23.414 26.6752 22.905 26.6752Z" fill="white"/>
<path d="M23.089 21.7924C22.8841 21.7924 22.6763 21.7267 22.5028 21.5904C22.0882 21.2663 22.0148 20.6668 22.3389 20.2531L37.0265 1.45369C37.3506 1.03718 37.9511 0.964738 38.3647 1.2888C38.7793 1.61286 38.8527 2.21238 38.5287 2.62603L23.841 21.4255C23.6523 21.6666 23.3721 21.7924 23.089 21.7924Z" fill="white"/>
<path d="M22.9036 26.6753H6.67188C6.14575 26.6753 5.71875 26.2492 5.71875 25.7222C5.71875 25.1951 6.14575 24.769 6.67188 24.769H22.9036C23.4297 24.769 23.8567 25.1951 23.8567 25.7222C23.8567 26.2492 23.4307 26.6753 22.9036 26.6753Z" fill="white"/>
<path d="M34.1686 7.61279H4.76562C4.2395 7.61279 3.8125 7.18675 3.8125 6.65967C3.8125 6.13259 4.2395 5.70654 4.76562 5.70654H34.1686C34.6947 5.70654 35.1217 6.13259 35.1217 6.65967C35.1217 7.18675 34.6947 7.61279 34.1686 7.61279Z" fill="white"/>
<path d="M40.3786 8.95182C40.1736 8.95182 39.9659 8.88605 39.7924 8.74976L35.286 5.22891C34.8714 4.90485 34.798 4.30534 35.1221 3.89168C35.4471 3.47516 36.0457 3.40273 36.4603 3.72679L40.9666 7.24763C41.3812 7.5717 41.4546 8.17121 41.1306 8.58487C40.9428 8.82601 40.6616 8.95182 40.3786 8.95182Z" fill="white"/>
<path d="M42.8912 11.4251C42.3651 11.4251 41.9381 10.9991 41.9381 10.472C41.9381 9.46357 41.3986 8.51997 40.5303 8.00815C40.0766 7.74127 39.9251 7.157 40.1929 6.70332C40.4608 6.24963 41.045 6.09999 41.4978 6.36591C42.9456 7.21896 43.8444 8.79161 43.8444 10.472C43.8444 10.9991 43.4174 11.4251 42.8912 11.4251Z" fill="white"/>
<path d="M42.8907 15.2378H35.4687C34.9426 15.2378 34.5156 14.8117 34.5156 14.2847C34.5156 13.7576 34.9426 13.3315 35.4687 13.3315H42.8907C43.4169 13.3315 43.8439 13.7576 43.8439 14.2847C43.8439 14.8117 43.4169 15.2378 42.8907 15.2378Z" fill="white"/>
<path d="M28.2115 15.2378H0.953125C0.427 15.2378 0 14.8117 0 14.2847C0 13.7576 0.427 13.3315 0.953125 13.3315H28.2115C28.7377 13.3315 29.1647 13.7576 29.1647 14.2847C29.1647 14.8117 28.7377 15.2378 28.2115 15.2378Z" fill="white"/>
<path d="M42.2848 6.51389C42.0799 6.51389 41.8721 6.44812 41.6986 6.31182C41.284 5.98776 41.2106 5.38825 41.5347 4.97459C42.3582 3.92043 41.8416 2.91393 41.1496 2.37351C40.4567 1.83309 39.3549 1.57289 38.5304 2.62895C38.2064 3.04451 37.6059 3.116 37.1923 2.79289C36.7777 2.46882 36.7043 1.86931 37.0283 1.4547C38.5333 -0.467755 40.8303 -0.294285 42.3239 0.87234C43.8165 2.03896 44.5409 4.22639 43.0378 6.14884C42.8481 6.38807 42.5679 6.51389 42.2848 6.51389Z" fill="white"/>
<path d="M23.8281 11.4253H12.3906C11.8645 11.4253 11.4375 10.9992 11.4375 10.4722C11.4375 9.94509 11.8645 9.51904 12.3906 9.51904H23.8281C24.3542 9.51904 24.7812 9.94509 24.7812 10.4722C24.7812 10.9992 24.3542 11.4253 23.8281 11.4253Z" fill="white"/>
<path d="M8.57812 11.4253H4.76562C4.2395 11.4253 3.8125 10.9992 3.8125 10.4722C3.8125 9.94509 4.2395 9.51904 4.76562 9.51904H8.57812C9.10425 9.51904 9.53125 9.94509 9.53125 10.4722C9.53125 10.9992 9.10425 11.4253 8.57812 11.4253Z" fill="white"/>
<path d="M0.953125 36.2065C0.427 36.2065 0 35.7805 0 35.2534V10.4722C0 9.94509 0.427 9.51904 0.953125 9.51904C1.47925 9.51904 1.90625 9.94509 1.90625 10.4722V35.2534C1.90625 35.7805 1.47925 36.2065 0.953125 36.2065Z" fill="white"/>
<path d="M42.8906 36.2065C42.3645 36.2065 41.9375 35.7805 41.9375 35.2534V10.4722C41.9375 9.94509 42.3645 9.51904 42.8906 9.51904C43.4167 9.51904 43.8438 9.94509 43.8438 10.4722V35.2534C43.8438 35.7805 43.4167 36.2065 42.8906 36.2065Z" fill="white"/>
<path d="M39.0781 40.019C38.552 40.019 38.125 39.593 38.125 39.0659C38.125 38.5388 38.552 38.1128 39.0781 38.1128C40.6546 38.1128 41.9375 36.8299 41.9375 35.2534C41.9375 34.7263 42.3645 34.3003 42.8906 34.3003C43.4167 34.3003 43.8438 34.7263 43.8438 35.2534C43.8438 37.8812 41.7059 40.019 39.0781 40.019Z" fill="white"/>
<path d="M39.0781 40.019H4.76562C4.2395 40.019 3.8125 39.593 3.8125 39.0659C3.8125 38.5388 4.2395 38.1128 4.76562 38.1128H39.0781C39.6043 38.1128 40.0312 38.5388 40.0312 39.0659C40.0312 39.593 39.6043 40.019 39.0781 40.019Z" fill="white"/>
<path d="M4.76562 40.019C2.13786 40.019 0 37.8812 0 35.2534C0 34.7263 0.427 34.3003 0.953125 34.3003C1.47925 34.3003 1.90625 34.7263 1.90625 35.2534C1.90625 36.8299 3.18916 38.1128 4.76562 38.1128C5.29175 38.1128 5.71875 38.5388 5.71875 39.0659C5.71875 39.593 5.29175 40.019 4.76562 40.019Z" fill="white"/>
<path d="M0.953125 11.4253C0.427 11.4253 0 10.9992 0 10.4722C0 7.8444 2.13786 5.70654 4.76562 5.70654C5.29175 5.70654 5.71875 6.13259 5.71875 6.65967C5.71875 7.18675 5.29175 7.61279 4.76562 7.61279C3.18916 7.61279 1.90625 8.8957 1.90625 10.4722C1.90625 10.9992 1.47925 11.4253 0.953125 11.4253Z" fill="white"/>
</svg>
