<svg width="49" height="49" viewBox="0 0 49 49" fill="none" xmlns="http://www.w3.org/2000/svg">
<path d="M43.0162 23.4683L42.1931 20.3963C42.1261 20.1455 41.8984 19.9713 41.639 19.9713H38.1458C38.2348 19.0803 38.2368 18.1827 38.1487 17.2907H41.639C41.8984 17.2907 42.1261 17.1165 42.1931 16.8658L43.0162 13.7937C44.0938 13.5822 44.9092 12.6309 44.9092 11.493C44.9092 10.2001 43.8574 9.14732 42.5635 9.14732C41.2696 9.14732 40.2178 10.1991 40.2178 11.493C40.2178 12.5362 40.9021 13.4214 41.8457 13.7258L41.1978 16.1442H37.9831C37.6587 14.4033 36.9888 12.7132 35.9705 11.1848H38.8406C39.1574 11.1848 39.4149 10.9284 39.4149 10.6106C39.4149 10.2929 39.1584 10.0364 38.8406 10.0364H35.114C34.913 9.79523 34.7024 9.55884 34.4814 9.3282C34.2641 9.10138 34.0392 8.88509 33.8105 8.67742H38.7698C39.0866 8.67742 39.344 8.42093 39.344 8.1032C39.344 7.78546 39.0876 7.52898 38.7698 7.52898H32.3548C31.7969 7.14904 31.2169 6.81599 30.6188 6.52888L31.4514 3.42715H33.954C34.0048 4.41576 34.6823 5.3058 35.6891 5.57759C35.8911 5.63119 36.093 5.65703 36.293 5.65703C37.3276 5.65703 38.2798 4.96509 38.5621 3.9181C38.8952 2.67109 38.1516 1.38293 36.9027 1.04509C35.8049 0.751285 34.6747 1.29392 34.1904 2.27871H31.0112C30.7518 2.27871 30.524 2.45289 30.4571 2.70363L29.5527 6.07238C26.448 4.90289 22.9893 4.9182 19.8876 6.13267L18.9698 2.70363C18.9028 2.45289 18.675 2.27871 18.4157 2.27871H15.2345C14.7522 1.29297 13.6229 0.751285 12.5223 1.04509C11.2753 1.38197 10.5317 2.67013 10.8647 3.91906C11.147 4.96414 12.0983 5.65607 13.1348 5.65607C13.3338 5.65607 13.5367 5.63023 13.7387 5.57664C14.7455 5.30484 15.423 4.4148 15.4719 3.42619H17.9754L18.8263 6.60257C18.2836 6.8715 17.7553 7.18062 17.2462 7.52802H10.234C9.91725 7.52802 9.6598 7.78451 9.6598 8.10224C9.6598 8.41998 9.91629 8.67646 10.234 8.67646H15.7896C15.6939 8.76355 15.5982 8.8516 15.5044 8.94252C15.1417 9.29088 14.8019 9.65646 14.4842 10.0364H10.7556C10.4388 10.0364 10.1814 10.2929 10.1814 10.6106C10.1814 10.9284 10.4379 11.1848 10.7556 11.1848H13.6238C12.6218 12.6836 11.9375 14.3641 11.6064 16.1442H7.80221L7.1543 13.7258C8.09793 13.4214 8.78221 12.5362 8.78221 11.493C8.78221 10.2001 7.73043 9.14732 6.43748 9.14732C5.14453 9.14732 4.0918 10.1991 4.0918 11.493C4.0918 12.6319 4.90719 13.5832 5.9848 13.7937L6.80785 16.8658C6.87484 17.1165 7.10262 17.2907 7.36197 17.2907H11.4408C11.4064 17.6419 11.3844 17.996 11.3777 18.353C11.3662 18.8976 11.3882 19.4373 11.4408 19.9713H7.36197C7.10262 19.9713 6.87484 20.1455 6.80785 20.3963L5.9848 23.4683C4.90719 23.6798 4.0918 24.6292 4.0918 25.7671C4.0918 27.0601 5.14357 28.1119 6.43748 28.1119C7.73043 28.1119 8.78221 27.0601 8.78221 25.7671C8.78221 24.7249 8.09793 23.8406 7.1543 23.5372L7.80221 21.1188H11.6045C11.9308 22.8664 12.5998 24.523 13.5817 26.0073H10.7527C10.436 26.0073 10.1785 26.2638 10.1785 26.5816C10.1785 26.8993 10.435 27.1558 10.7527 27.1558H14.4296C14.6469 27.419 14.8747 27.6745 15.113 27.9233C15.4709 28.2966 15.847 28.6449 16.2394 28.9703H8.28168C7.9649 28.9703 7.70746 29.2268 7.70746 29.5445C7.70746 29.8623 7.96395 30.1187 8.28168 30.1187H17.8491C19.8426 31.3284 22.129 31.9993 24.5235 32.0481C24.6172 32.05 24.711 32.051 24.8048 32.051C25.7159 32.051 26.6146 31.9591 27.4883 31.7821L28.3516 34.1909L27.185 34.6091C27.0414 34.6608 26.9246 34.767 26.8596 34.9039C26.7945 35.0417 26.7868 35.1996 26.8385 35.3422L30.8102 46.4179C31.0284 47.0295 31.4734 47.5195 32.0639 47.798C32.396 47.9549 32.7501 48.0334 33.1061 48.0334C33.3817 48.0334 33.6593 47.9856 33.9263 47.8908L35.8815 47.1884C36.493 46.9702 36.983 46.5251 37.2615 45.9356C37.54 45.347 37.5726 44.6857 37.3544 44.0751L33.3856 32.9956C33.3339 32.852 33.2277 32.7353 33.0908 32.6702C32.953 32.6051 32.7951 32.5975 32.6525 32.6491L31.4351 33.0855L30.5949 30.7399C30.9872 30.5513 31.371 30.3436 31.7443 30.1168H41.3127C41.6294 30.1168 41.8869 29.8603 41.8869 29.5426C41.8869 29.2249 41.6304 28.9684 41.3127 28.9684H33.354C33.6066 28.7588 33.8526 28.5387 34.0919 28.309C34.4756 27.9405 34.8316 27.5539 35.1618 27.1529H38.8406C39.1574 27.1529 39.4149 26.8964 39.4149 26.5787C39.4149 26.261 39.1584 26.0045 38.8406 26.0045H36.0088C37.0003 24.4991 37.6578 22.8338 37.9803 21.116H41.1969L41.8448 23.5344C40.9011 23.8378 40.2169 24.723 40.2169 25.7643C40.2169 27.0572 41.2686 28.109 42.5625 28.109C43.8564 28.109 44.9082 27.0572 44.9082 25.7643C44.9092 24.6292 44.0938 23.6798 43.0162 23.4683ZM41.3663 11.492C41.3663 10.8317 41.9031 10.2938 42.5645 10.2938C43.2258 10.2938 43.7627 10.8307 43.7627 11.492C43.7627 12.1524 43.2258 12.6893 42.5645 12.6893C41.9031 12.6893 41.3663 12.1524 41.3663 11.492ZM35.1369 3.00222C35.3102 2.36484 35.9686 1.9849 36.6031 2.15429C37.2414 2.32656 37.6223 2.985 37.452 3.62142C37.2797 4.25976 36.6213 4.64066 35.9849 4.47031C35.3475 4.29804 34.9666 3.63961 35.1369 3.00222ZM13.4401 4.47031C12.8027 4.6397 12.1433 4.25976 11.972 3.62334C11.8016 2.98595 12.1825 2.32752 12.819 2.15525C12.9223 2.1275 13.0257 2.1141 13.1281 2.1141C13.6564 2.1141 14.1416 2.46724 14.2842 3.00222V3.00318C14.4564 3.63961 14.0765 4.29804 13.4401 4.47031ZM6.43748 12.6893C5.77713 12.6893 5.23928 12.1524 5.23928 11.492C5.23928 10.8317 5.77617 10.2938 6.43748 10.2938C7.09783 10.2938 7.63473 10.8307 7.63473 11.492C7.63473 12.1524 7.09783 12.6893 6.43748 12.6893ZM7.63473 25.7671C7.63473 26.4275 7.09783 26.9644 6.43748 26.9644C5.77713 26.9644 5.23928 26.4275 5.23928 25.7671C5.23928 25.1087 5.77617 24.5728 6.43557 24.5718H6.43748H6.43844C7.09879 24.5728 7.63473 25.1087 7.63473 25.7671ZM32.5003 33.9229L36.2758 44.4618C36.3906 44.7833 36.3734 45.1327 36.226 45.4446C36.0787 45.7566 35.8203 45.9921 35.4968 46.1069L33.5416 46.8094C33.2181 46.9252 32.8678 46.907 32.5558 46.7596C32.2438 46.6122 32.0084 46.3538 31.8926 46.0303L28.1142 35.4944L32.5003 33.9229ZM28.609 31.5036C28.9229 31.4107 29.233 31.3074 29.5383 31.1916L30.3556 33.4722L29.433 33.8024L28.609 31.5036ZM33.2985 27.4831C32.685 28.0717 32.0218 28.5894 31.3184 29.0316C31.2887 29.0469 31.26 29.0641 31.2332 29.0842C30.7403 29.3885 30.2283 29.6565 29.701 29.8871C29.6953 29.8891 29.6886 29.891 29.6828 29.8929C29.6522 29.9034 29.6235 29.9178 29.5967 29.9331C29.0091 30.1829 28.4013 30.3858 27.7793 30.5408C27.7429 30.5456 27.7075 30.5542 27.6721 30.5666C26.6615 30.8078 25.6145 30.9217 24.5474 30.8997C22.3204 30.8547 20.1958 30.2211 18.3506 29.0785C18.3267 29.0612 18.3028 29.0459 18.2769 29.0325C17.4338 28.5023 16.65 27.8649 15.9418 27.1271C15.6843 26.8581 15.4403 26.5796 15.2106 26.2935C15.1828 26.2447 15.1474 26.2016 15.1072 26.1633C13.3779 23.9478 12.4677 21.227 12.5261 18.3769C12.5931 15.0972 13.9329 12.0414 16.2978 9.77131C18.6731 7.4907 21.7366 6.35757 24.7962 6.35757C28.0233 6.35757 31.2476 7.61894 33.6545 10.1244C38.3401 15.0063 38.1803 22.7946 33.2985 27.4831ZM42.5635 26.9644C41.9031 26.9644 41.3653 26.4275 41.3653 25.7671C41.3653 25.1087 41.9012 24.5728 42.5616 24.5718H42.5625H42.5645C43.2238 24.5728 43.7607 25.1087 43.7607 25.7671C43.7617 26.4275 43.2248 26.9644 42.5635 26.9644ZM31.4371 13.0147C30.9719 12.6501 30.392 12.4902 29.8053 12.562C29.2206 12.6338 28.6999 12.9286 28.3391 13.3927L23.4535 19.6278L20.9547 17.4984C20.5068 17.1156 19.9364 16.9299 19.3478 16.9749C18.7583 17.0208 18.2233 17.2926 17.8415 17.7405C17.4567 18.1884 17.2701 18.7597 17.3161 19.3493C17.362 19.9378 17.6347 20.4738 18.0836 20.8566L21.7892 24.0167C21.794 24.0205 21.7988 24.0244 21.8036 24.0282L21.8581 24.0713C21.8658 24.077 21.8725 24.0828 21.8801 24.0875L21.8916 24.0952C22.4084 24.4952 23.0295 24.7067 23.6688 24.7067C23.776 24.7067 23.8842 24.701 23.9913 24.6886C24.7474 24.6043 25.4307 24.2349 25.9159 23.6483C25.9303 23.6301 25.9446 23.6119 25.9571 23.5918C25.96 23.588 25.9628 23.5841 25.9657 23.5803L31.8189 16.1107C32.1826 15.6465 32.3424 15.0675 32.2706 14.4818C32.1969 13.898 31.9012 13.3764 31.4371 13.0147ZM30.9136 15.4053L25.0594 22.8769C25.0546 22.8836 25.0489 22.8903 25.0441 22.897L25.0431 22.8979C25.0297 22.9142 25.0163 22.9314 25.0048 22.9496C24.712 23.2875 24.3081 23.5009 23.8631 23.5506C23.4085 23.6014 22.9539 23.4722 22.5864 23.1851C22.5807 23.1812 22.5759 23.1764 22.5702 23.1726L22.5625 23.1669L18.8272 19.9838C18.6119 19.8 18.4808 19.5426 18.4587 19.2603C18.4367 18.977 18.5267 18.7033 18.7114 18.487C18.8952 18.2717 19.1516 18.1415 19.4349 18.1195C19.7192 18.0984 19.9929 18.1874 20.2092 18.3721L23.1635 20.8901C23.2822 20.9915 23.4372 21.0403 23.5932 21.0241C23.7492 21.0088 23.8909 20.9303 23.9875 20.8068L29.2426 14.1009L29.2435 14.1C29.4158 13.8779 29.6656 13.7372 29.946 13.7028C30.2274 13.6683 30.5059 13.7449 30.7308 13.921C30.9538 14.0942 31.0954 14.345 31.1298 14.6254C31.1643 14.9058 31.0877 15.1833 30.9136 15.4053Z" fill="white"/>
</svg>
