<svg width="43" height="43" viewBox="0 0 43 43" fill="none" xmlns="http://www.w3.org/2000/svg">
<path d="M20.1562 24.8594H18.1406V23.5156H20.1562C20.5594 23.5156 20.8281 23.2469 20.8281 22.8438C20.8281 22.4406 20.5594 22.1719 20.1562 22.1719C19.0141 22.1719 18.1406 21.2984 18.1406 20.1562C18.1406 19.0141 19.0141 18.1406 20.1562 18.1406H22.1719V19.4844H20.1562C19.7531 19.4844 19.4844 19.7531 19.4844 20.1562C19.4844 20.5594 19.7531 20.8281 20.1562 20.8281C21.2984 20.8281 22.1719 21.7016 22.1719 22.8438C22.1719 23.9859 21.2984 24.8594 20.1562 24.8594Z" fill="white"/>
<path d="M26.875 19.4844V18.1406H23.5156V24.8594H26.875V23.5156H24.8594V22.1719H26.2031V20.8281H24.8594V19.4844H26.875Z" fill="white"/>
<path d="M31.5781 24.8594C29.6969 24.8594 28.2188 23.3812 28.2188 21.5C28.2188 19.6187 29.6969 18.1406 31.5781 18.1406C33.4594 18.1406 34.9375 19.6187 34.9375 21.5C34.9375 23.3812 33.4594 24.8594 31.5781 24.8594ZM31.5781 19.4844C30.4359 19.4844 29.5625 20.3578 29.5625 21.5C29.5625 22.6422 30.4359 23.5156 31.5781 23.5156C32.7203 23.5156 33.5938 22.6422 33.5938 21.5C33.5938 20.3578 32.7203 19.4844 31.5781 19.4844Z" fill="white"/>
<path d="M9.40625 40.9844H1.34375V24.8594H9.40625V40.9844ZM2.6875 39.6406H8.0625V26.2031H2.6875V39.6406Z" fill="white"/>
<path d="M38.9688 33.5938H37.625V16.7969H15.4531V26.2031H14.1094V15.4531H38.9688V33.5938Z" fill="white"/>
<path d="M41.6562 16.7969H11.4219V7.39062H41.6562V16.7969ZM12.7656 15.4531H40.3125V8.73438H12.7656V15.4531Z" fill="white"/>
<path d="M28.6227 40.3125H22.7102C22.307 40.3125 21.8367 40.3125 21.4336 40.2453L7.99609 38.2297V29.2937L8.19766 29.0922C8.33203 28.9578 11.893 25.5312 15.0508 25.5312C16.6633 25.5312 18.1414 25.9344 19.418 26.6734C19.8211 26.9422 20.2914 27.0766 20.6945 27.0766L28.018 27.4797C28.4211 27.4797 28.757 27.6813 29.0258 28.0172C29.2945 28.3531 29.3617 28.7563 29.2273 29.1594L29.093 29.7641C28.8242 30.8391 27.9508 31.5781 26.8758 31.7797L23.5836 32.6531L28.5555 33.8625C29.6305 34.1313 30.7055 34.1984 31.7805 34.0641L35.4086 33.5938L38.6336 32.8547C39.1711 32.6531 39.7758 32.7203 40.2461 32.9219C40.7836 33.1906 41.1195 33.6609 41.2539 34.1984L41.4555 34.9375C41.5898 35.475 41.3883 36.0797 40.918 36.3484L37.2898 38.3641C36.7523 38.7 36.1477 38.9016 35.4758 39.0359L30.2352 40.0437C29.7648 40.2453 29.2273 40.3125 28.6227 40.3125ZM9.40703 37.0203L21.7023 38.8344C22.0383 38.9016 22.4414 38.9016 22.7773 38.9016H28.6898C29.1602 38.9016 29.6305 38.8344 30.1008 38.7672L35.3414 37.7594C35.8117 37.6922 36.282 37.4906 36.7523 37.2219L40.3133 35.2063L40.1117 34.4672C40.0445 34.2656 39.9102 34.1313 39.7758 34.0641C39.5742 33.9969 39.3727 33.9969 39.2383 34.0641H39.1711L35.8117 34.8703L32.1836 35.3406C30.9742 35.475 29.6977 35.4078 28.4883 35.1391L18.4773 32.6531L26.8758 30.4359C27.4133 30.3687 27.8836 29.9656 28.018 29.4281L28.1523 28.8234L20.8289 28.4203C20.157 28.3531 19.4852 28.1516 18.8805 27.8156C17.8727 27.2109 16.5289 26.875 15.1852 26.875C12.968 26.875 10.2133 29.1594 9.47422 29.8313V37.0203H9.40703Z" fill="white"/>
</svg>
