<svg width="78" height="78" viewBox="0 0 78 78" fill="none" xmlns="http://www.w3.org/2000/svg">
<g clip-path="url(#clip0_1962_509)">
<path d="M11.5132 20.3296C11.7608 20.3296 11.9678 20.5415 11.9678 20.7938C11.9678 20.8413 11.9583 20.8937 11.9559 20.9056C11.6441 22.5218 11.4942 24.1048 11.4942 25.7378C11.4942 27.266 11.6346 28.8084 11.9107 30.3271L12.0392 31.0413L12.4582 33.3193H14.772H30.7585C31.2393 33.3193 31.6273 33.7121 31.6273 34.1929L31.6297 56.8612C31.6297 57.3397 31.2394 57.7324 30.7632 57.7324H3.64601C3.1675 57.7324 2.77948 57.3397 2.77948 56.8636L2.7842 38.13C2.80325 36.2519 3.49595 32.8218 6.68329 27.1423C8.45428 23.9858 10.5013 21.1128 10.9632 20.6558C11.2894 20.3916 11.3965 20.3416 11.4059 20.3368C11.4061 20.3368 11.4346 20.3296 11.5132 20.3296ZM11.5132 17.5518C10.5539 17.5518 9.96356 17.8851 9.20656 18.5015C8.49237 19.0822 6.12632 22.4577 4.26011 25.7806C1.47039 30.7533 0.0372887 34.8975 0.00636292 38.1014L-0.000640869 56.8612C-0.000640869 58.8726 1.63461 60.5103 3.64616 60.5103H30.7633C32.7725 60.5103 34.4102 58.8726 34.4102 56.8612L34.4054 34.1929C34.4054 32.179 32.7702 30.5413 30.7586 30.5413H14.772L14.6434 29.8272C14.3983 28.4798 14.272 27.104 14.272 25.7376C14.272 24.2761 14.41 22.8669 14.6862 21.4292C14.7337 21.1317 14.7481 20.9603 14.7481 20.7912C14.7481 19.0037 13.2961 17.5518 11.5132 17.5518Z" fill="url(#paint0_linear_1962_509)"/>
<path d="M55.1056 20.2677C55.3532 20.2677 55.5627 20.4796 55.5627 20.7247C55.5579 20.7722 55.5483 20.8295 55.5483 20.8437C55.2389 22.4527 55.0866 24.0335 55.0866 25.6759C55.0866 27.2112 55.2246 28.7537 55.5008 30.2581L55.6294 30.9745L56.0436 33.2573H58.3644H74.3509C74.8294 33.2573 75.2197 33.65 75.2197 34.1285V56.8017C75.2197 57.2778 74.8317 57.6682 74.3532 57.6682H47.236C46.7599 57.6682 46.3695 57.2779 46.3695 56.8017L46.3789 38.0634C46.3955 36.1877 47.086 32.76 50.2756 27.078C52.0466 23.9241 54.0936 21.0486 54.5531 20.5915C54.8792 20.3274 54.9839 20.2797 54.9958 20.275C54.9961 20.2748 55.0247 20.2677 55.1056 20.2677ZM55.1056 17.4898C54.144 17.4898 53.5536 17.8232 52.8014 18.4373C52.0872 19.0157 49.7212 22.391 47.8527 25.7188C45.0605 30.6938 43.6299 34.838 43.599 38.0372L43.5895 56.8017C43.5895 58.8108 45.2272 60.446 47.2363 60.446H74.3535C76.3647 60.4459 78 58.8106 78 56.8017L77.9976 34.1287C77.9976 32.1196 76.3623 30.4796 74.3508 30.4796H58.3641L58.2332 29.7631C57.9904 28.4182 57.8667 27.0424 57.8667 25.676C57.8667 24.2122 58 22.803 58.2762 21.3676C58.3262 21.0701 58.3405 20.8962 58.3405 20.7296C58.3405 18.9443 56.8885 17.4898 55.1056 17.4898Z" fill="url(#paint1_linear_1962_509)"/>
</g>
<defs>
<linearGradient id="paint0_linear_1962_509" x1="34.4102" y1="39.031" x2="-0.000640869" y2="39.031" gradientUnits="userSpaceOnUse">
<stop stop-color="#075B65"/>
<stop offset="0.370192" stop-color="#00838A"/>
<stop offset="0.8125" stop-color="#328A99"/>
</linearGradient>
<linearGradient id="paint1_linear_1962_509" x1="78" y1="38.9679" x2="43.5895" y2="38.9679" gradientUnits="userSpaceOnUse">
<stop stop-color="#075B65"/>
<stop offset="0.370192" stop-color="#00838A"/>
<stop offset="0.8125" stop-color="#328A99"/>
</linearGradient>
<clipPath id="clip0_1962_509">
<rect width="78" height="78" fill="white" transform="matrix(-1 0 0 -1 78 78)"/>
</clipPath>
</defs>
</svg>
