<svg width="49" height="49" viewBox="0 0 49 49" fill="none" xmlns="http://www.w3.org/2000/svg">
<g clip-path="url(#clip0_4847_445)">
<path d="M48.8241 34.859C48.5485 34.2465 48.0278 33.879 47.4153 33.879H46.5502V9.73119C46.5502 8.10041 45.2256 6.77588 43.5949 6.77588H5.41315C3.78237 6.77588 2.45784 8.10041 2.45784 9.73119V33.879H1.58502C0.98018 33.879 0.459555 34.2388 0.18393 34.8437C-0.145289 35.571 -0.0304454 36.4362 0.474867 37.0028L2.05205 38.7713C2.58034 39.3532 3.2694 39.6748 3.98909 39.6748H38.0671L38.5571 40.7696C38.8327 41.3821 39.3533 41.8645 39.9888 42.0865C40.2491 42.1784 40.5247 42.2243 40.7927 42.2243C41.1831 42.2243 41.5736 42.1324 41.9258 41.9487C42.523 41.6348 42.9747 41.0912 43.1585 40.4404C43.2274 40.1954 43.2427 39.9351 43.235 39.6824H45.0266C45.731 39.6824 46.42 39.3609 46.9713 38.7713L48.5178 37.0181C49.0231 36.4515 49.1456 35.5863 48.8241 34.859ZM5.41315 8.26119H43.5949C44.4064 8.26119 45.0725 8.91963 45.0725 9.73119V10.9792H3.93549V9.73119C3.93549 8.91963 4.60159 8.26119 5.41315 8.26119ZM3.93549 12.4645H45.0649V33.879H40.1266L38.113 30.5179C41.5583 27.731 42.6914 22.8004 40.5706 18.7273C38.1513 14.0646 32.3861 12.2501 27.7311 14.6695C23.0761 17.0965 21.2539 22.854 23.681 27.509C25.373 30.7629 28.7035 32.631 32.1411 32.631C33.0063 32.631 33.8791 32.4932 34.7366 32.2482L35.4639 33.8713H30.3113C30.0969 33.8713 29.8902 33.9632 29.7447 34.1317L28.7188 35.326H20.2663L19.2556 34.1317C19.1178 33.9632 18.9111 33.8713 18.6891 33.8713H3.93549V12.4645ZM29.7064 30.7859C27.6622 30.1428 25.9855 28.734 24.9978 26.8276C24.0102 24.9212 23.8188 22.7468 24.4619 20.7026C25.105 18.6584 26.5138 16.9817 28.4202 15.994C29.5839 15.3892 30.8472 15.0829 32.1181 15.0829C32.9297 15.0829 33.7489 15.2054 34.5452 15.4581C36.5894 16.1012 38.2661 17.5099 39.2538 19.4163C40.2414 21.3228 40.4328 23.4971 39.7897 25.5413C39.1466 27.5856 37.7378 29.2623 35.8314 30.2499C33.9327 31.2376 31.7506 31.429 29.7064 30.7859ZM3.98143 38.1971C3.69049 38.1971 3.3919 38.0517 3.15455 37.7837L1.58502 36.0228C1.5008 35.9309 1.47018 35.7778 1.49315 35.617C1.51612 35.4562 1.58502 35.372 1.58502 35.3643H18.3522L19.3628 36.5587C19.5007 36.7271 19.715 36.819 19.9294 36.819H29.0786C29.293 36.819 29.4997 36.7271 29.6452 36.5587L30.6711 35.3643H36.1453L37.4086 38.1971H3.98143ZM41.7267 40.0346C41.6502 40.2949 41.4817 40.5093 41.2444 40.6318C41.0071 40.7543 40.7314 40.7773 40.4788 40.6854C40.2261 40.5935 40.0194 40.4098 39.9122 40.1648L39.2385 38.6565C39.2385 38.6488 39.2308 38.6412 39.2308 38.6335L37.3091 34.3384C37.3091 34.3307 37.3014 34.3307 37.3014 34.3231L36.1453 31.7353C36.2755 31.674 36.4056 31.6281 36.5281 31.5668C36.6583 31.4979 36.7731 31.4213 36.8956 31.3524L41.6349 39.2767C41.7574 39.5063 41.7956 39.7743 41.7267 40.0346ZM47.4 36.0228L45.8611 37.7684C45.685 37.9598 45.3941 38.1895 45.0189 38.1895H42.7067L41.0147 35.3567H45.7922H45.8075H45.8228H47.4C47.423 35.372 47.4919 35.4562 47.5072 35.6017C47.5225 35.7318 47.5072 35.9079 47.4 36.0228Z" fill="white"/>
<path d="M6.7075 19.7534H18.1459C18.5594 19.7534 18.8886 19.4242 18.8886 19.0107C18.8886 18.5973 18.5594 18.2681 18.1459 18.2681H6.7075C6.29406 18.2681 5.96484 18.5973 5.96484 19.0107C5.96484 19.4165 6.29406 19.7534 6.7075 19.7534Z" fill="white"/>
<path d="M6.7075 23.6504H15.0987C15.5122 23.6504 15.8414 23.3211 15.8414 22.9077C15.8414 22.4943 15.5122 22.165 15.0987 22.165H6.7075C6.29406 22.165 5.96484 22.4943 5.96484 22.9077C5.96484 23.3211 6.29406 23.6504 6.7075 23.6504Z" fill="white"/>
<path d="M6.7075 15.8564H20.2973C20.7108 15.8564 21.04 15.5272 21.04 15.1137C21.04 14.7003 20.7108 14.3711 20.2973 14.3711H6.7075C6.29406 14.3711 5.96484 14.7003 5.96484 15.1137C5.96484 15.5272 6.29406 15.8564 6.7075 15.8564Z" fill="white"/>
<path d="M6.7075 27.5473H17.3038C17.7172 27.5473 18.0464 27.2181 18.0464 26.8047C18.0464 26.3912 17.7172 26.062 17.3038 26.062H6.7075C6.29406 26.062 5.96484 26.3912 5.96484 26.8047C5.96484 27.2104 6.29406 27.5473 6.7075 27.5473Z" fill="white"/>
<path d="M21.2008 30.7016C21.2008 30.2882 20.8716 29.959 20.4581 29.959H6.7075C6.29406 29.959 5.96484 30.2882 5.96484 30.7016C5.96484 31.1151 6.29406 31.4443 6.7075 31.4443H20.4581C20.8639 31.4443 21.2008 31.1074 21.2008 30.7016Z" fill="white"/>
<path d="M37.24 19.1406C37.2324 19.0563 37.2094 18.9798 37.1788 18.9032C37.1711 18.8879 37.1711 18.8726 37.1635 18.8573C37.1175 18.7731 37.0639 18.6888 36.9797 18.6199C36.9721 18.6123 36.9491 18.6046 36.9414 18.597C36.8725 18.5434 36.796 18.4974 36.7194 18.4745C36.6888 18.4668 36.6658 18.4668 36.6352 18.4668C36.5663 18.4515 36.4974 18.4438 36.4285 18.4438C36.4208 18.4438 36.4208 18.4438 36.4132 18.4438L34.2617 18.6812C33.856 18.7271 33.5574 19.0946 33.6033 19.5004C33.6492 19.9062 34.0091 20.1971 34.4225 20.1588L34.6828 20.1282L32.6922 22.4098L29.8747 22.6471C29.691 22.6624 29.5225 22.7467 29.4 22.8768L27.0802 25.3268C26.7969 25.6254 26.8122 26.0924 27.1108 26.3757C27.2563 26.5135 27.44 26.5824 27.6238 26.5824C27.8228 26.5824 28.0142 26.5059 28.1597 26.3528L30.2882 24.1095L33.121 23.8721C33.3124 23.8568 33.4885 23.7649 33.6186 23.6195L35.8236 21.0929L35.8313 21.3838C35.8466 21.782 36.1758 22.0959 36.5739 22.0959H36.6046C37.018 22.0806 37.3319 21.736 37.3166 21.3303L37.24 19.1635C37.2477 19.1482 37.24 19.1406 37.24 19.1406Z" fill="white"/>
</g>
<defs>
<clipPath id="clip0_4847_445">
<rect width="49" height="49" fill="white"/>
</clipPath>
</defs>
</svg>
