<svg width="32" height="47" viewBox="0 0 32 47" fill="none" xmlns="http://www.w3.org/2000/svg">
<path d="M15.8695 0C7.1192 0 0 7.11872 0 15.869C0 21.3204 5.98452 31.3098 10.7121 38.3526C7.64053 38.722 1.93759 39.7778 1.93759 42.526C1.93759 45.4492 8.94377 46.9788 15.8647 46.9788C22.7904 46.9788 29.8014 45.4492 29.8014 42.526C29.8014 40.2047 25.4674 38.8841 21.0224 38.3601C25.7506 31.316 31.739 21.3203 31.739 15.869C31.739 7.11872 24.6198 0 15.8695 0ZM15.8695 1.47115C23.8086 1.47115 30.2678 7.92996 30.2678 15.869C30.2678 22.0065 21.4639 35.2344 17.6787 40.6368C16.7972 41.8929 14.9442 41.8983 14.0612 40.6363C10.276 35.2349 1.47115 22.0089 1.47115 15.869C1.47115 7.92996 7.93044 1.47115 15.8695 1.47115ZM28.3302 42.526C28.3302 43.5667 24.049 45.5076 15.8647 45.5076C7.68716 45.5076 3.40875 43.5667 3.40875 42.526C3.40875 41.6757 6.27306 40.2601 11.6469 39.7316C12.0651 40.3426 12.4737 40.9347 12.8563 41.4806C14.3261 43.579 17.4218 43.5687 18.8836 41.4806C19.2645 40.937 19.6711 40.3478 20.0873 39.7397C25.4641 40.2582 28.3302 41.6729 28.3302 42.526Z" fill="white"/>
<path d="M25.8582 15.8691C25.8582 10.3609 21.3768 5.87988 15.8686 5.87988C10.3604 5.87988 5.87891 10.3609 5.87891 15.8691C5.87891 21.3773 10.3604 25.8587 15.8686 25.8587C21.3768 25.8587 25.8582 21.3773 25.8582 15.8691ZM7.35006 15.8691C7.35006 11.1721 11.1716 7.35104 15.8686 7.35104C20.5655 7.35104 24.3871 11.1721 24.3871 15.8691C24.3871 20.566 20.5655 24.3876 15.8686 24.3876C11.1716 24.3876 7.35006 20.566 7.35006 15.8691Z" fill="white"/>
<path d="M12.1493 15.6674C11.2369 15.3097 10.295 15.345 10.295 14.8298C10.295 14.6651 10.364 14.5497 10.5201 14.4553C10.9013 14.2259 11.6321 14.2508 12.2144 14.4501C12.4673 14.5521 12.6081 14.4764 12.7278 14.3361C12.8054 14.2437 12.8447 14.1383 12.8447 14.0234C12.8447 13.8122 12.7307 13.6508 12.5353 13.5809C11.8712 13.3348 10.8551 13.241 10.1926 13.5517C9.08405 14.0722 8.93479 15.6067 10.227 16.1061C11.0569 16.4322 12.0583 16.5022 12.0583 16.8886C12.0583 17.038 12.0583 17.4345 11.1245 17.4345C10.7011 17.4345 10.3008 17.3517 9.93204 17.1869C9.48897 16.9895 9.08526 17.4861 9.35833 17.8847C9.41484 17.9632 9.48571 18.0211 9.57 18.0571C10.5898 18.4976 12.1359 18.598 12.7881 17.6907C13.1525 17.1851 13.0822 16.4754 12.7613 16.1022C12.5918 15.9064 12.3859 15.7603 12.1493 15.6674Z" fill="white"/>
<path d="M16.718 17.377H14.6224V16.3364H16.4862C17.1128 16.3364 17.1103 15.3954 16.4862 15.3954H14.6224V14.3614H16.718C17.3449 14.3614 17.3424 13.4204 16.718 13.4204H14.1291C13.85 13.4204 13.6426 13.6496 13.6426 13.9137V17.831C13.6426 18.0992 13.8542 18.318 14.1291 18.318H16.718C17.3461 18.318 17.3416 17.377 16.718 17.377Z" fill="white"/>
<path d="M18.7225 18.0591C19.4738 18.4973 20.5625 18.4875 21.2912 18.0591C22.8673 17.1356 22.8554 14.594 21.2922 13.6801C20.5539 13.2462 19.4659 13.2459 18.7225 13.6796C17.145 14.5968 17.1651 17.1536 18.7225 18.0591ZM19.2109 14.4999C19.6442 14.2332 20.3475 14.2225 20.8037 14.4999C21.7011 15.0483 21.7477 16.6649 20.8037 17.2378C20.3565 17.5103 19.6477 17.5059 19.2109 17.2382C18.3235 16.6908 18.2642 15.0833 19.2109 14.4999Z" fill="white"/>
</svg>
