<svg width="46" height="46" viewBox="0 0 46 46" fill="none" xmlns="http://www.w3.org/2000/svg">
<path d="M2.15625 28.0312H5.75C6.11533 29.2803 6.61667 30.4854 7.245 31.625L4.70062 34.1766C4.63401 34.2437 4.58131 34.3234 4.54554 34.4109C4.50977 34.4985 4.49164 34.5923 4.49219 34.6869C4.49483 34.8772 4.56929 35.0595 4.70062 35.1972L10.7812 41.2994C10.8481 41.3667 10.9276 41.4202 11.0151 41.4567C11.1027 41.4932 11.1967 41.512 11.2916 41.512C11.3864 41.512 11.4804 41.4932 11.568 41.4567C11.6556 41.4202 11.7351 41.3667 11.8019 41.2994L14.375 38.755C15.5146 39.3833 16.7197 39.8847 17.9688 40.25V43.8438C17.9688 44.0344 18.0445 44.2172 18.1793 44.352C18.3141 44.4868 18.4969 44.5625 18.6875 44.5625H22.2812C22.4719 44.5625 22.6547 44.4868 22.7895 44.352C22.9243 44.2172 23 44.0344 23 43.8438V37.375C23.0002 37.1904 22.9295 37.0129 22.8023 36.8791C22.6752 36.7453 22.5015 36.6655 22.3172 36.6562C18.8336 36.4603 15.5572 34.9383 13.1604 32.4029C10.7635 29.8674 9.42805 26.5106 9.42805 23.0216C9.42805 19.5325 10.7635 16.1758 13.1604 13.6403C15.5572 11.1048 18.8336 9.58287 22.3172 9.38688C22.4123 9.38229 22.5055 9.35888 22.5914 9.31799C22.6774 9.27709 22.7543 9.21954 22.8178 9.14866C22.8814 9.07778 22.9302 8.99499 22.9614 8.9051C22.9927 8.81521 23.0058 8.72 23 8.625V2.15625C23 1.96563 22.9243 1.78281 22.7895 1.64802C22.6547 1.51323 22.4719 1.4375 22.2812 1.4375H18.6875C18.4969 1.4375 18.3141 1.51323 18.1793 1.64802C18.0445 1.78281 17.9688 1.96563 17.9688 2.15625V5.75C16.7197 6.11533 15.5146 6.61667 14.375 7.245L11.8234 4.70062C11.7563 4.63401 11.6766 4.58131 11.5891 4.54554C11.5015 4.50977 11.4077 4.49164 11.3131 4.49219C11.1228 4.49483 10.9405 4.56929 10.8028 4.70062L4.70062 10.7812C4.56929 10.919 4.49483 11.1013 4.49219 11.2916C4.49164 11.3862 4.50977 11.4799 4.54554 11.5675C4.58131 11.6551 4.63401 11.7347 4.70062 11.8019L7.245 14.375C6.61667 15.5146 6.11533 16.7197 5.75 17.9688H2.15625C1.96563 17.9688 1.78281 18.0445 1.64802 18.1793C1.51323 18.3141 1.4375 18.4969 1.4375 18.6875V27.3125C1.4375 27.5031 1.51323 27.6859 1.64802 27.8207C1.78281 27.9555 1.96563 28.0312 2.15625 28.0312ZM2.875 19.4062H6.29625C6.45947 19.4114 6.61959 19.3608 6.75023 19.2629C6.88087 19.1649 6.97426 19.0253 7.015 18.8672C7.40104 17.3727 7.9963 15.9402 8.78313 14.6122C8.85923 14.4695 8.88502 14.3054 8.85633 14.1463C8.82764 13.9872 8.74614 13.8424 8.625 13.7353L6.22437 11.3131L11.3131 6.22437L13.7353 8.625C13.8486 8.73803 13.9964 8.81001 14.1552 8.82954C14.3141 8.84907 14.4749 8.81503 14.6122 8.73281C15.9402 7.94598 17.3727 7.35073 18.8672 6.96469C19.0253 6.92394 19.1649 6.83056 19.2629 6.69992C19.3608 6.56927 19.4114 6.40916 19.4062 6.24594V2.875H21.5625V7.97813C17.8319 8.3435 14.3708 10.0839 11.8528 12.8606C9.33475 15.6373 7.93999 19.2516 7.93999 23C7.93999 26.7484 9.33475 30.3627 11.8528 33.1394C14.3708 35.9161 17.8319 37.6565 21.5625 38.0219V43.125H19.4062V39.7038C19.4114 39.5405 19.3608 39.3804 19.2629 39.2498C19.1649 39.1191 19.0253 39.0257 18.8672 38.985C17.3727 38.599 15.9402 38.0037 14.6122 37.2169C14.4749 37.1347 14.3141 37.1006 14.1552 37.1201C13.9964 37.1397 13.8486 37.2117 13.7353 37.3247L11.3131 39.7541L6.22437 34.6869L8.625 32.2647C8.73803 32.1514 8.81001 32.0036 8.82954 31.8448C8.84907 31.6859 8.81503 31.5251 8.73281 31.3878C7.94598 30.0598 7.35073 28.6273 6.96469 27.1328C6.92394 26.9747 6.83056 26.8351 6.69992 26.7371C6.56927 26.6392 6.40916 26.5886 6.24594 26.5938H2.875V19.4062Z" fill="url(#paint0_linear_1962_650)"/>
<path d="M6.46875 22.2812H4.3125V23.7188H6.46875V22.2812Z" fill="url(#paint1_linear_1962_650)"/>
<path d="M10.802 34.1735L9.27734 35.6982L10.2938 36.7147L11.8185 35.19L10.802 34.1735Z" fill="url(#paint2_linear_1962_650)"/>
<path d="M10.2977 9.28041L9.28125 10.2969L10.8059 11.8216L11.8224 10.8051L10.2977 9.28041Z" fill="url(#paint3_linear_1962_650)"/>
<path d="M41.6875 20.125C41.0517 20.1271 40.4346 20.3398 39.9326 20.73C39.4306 21.1201 39.0721 21.6657 38.9131 22.2813H35.2188C35.1306 20.7908 34.7701 19.3292 34.155 17.9688H36.6563C36.789 17.9684 36.919 17.9312 37.0319 17.8614C37.1448 17.7917 37.2362 17.692 37.2959 17.5734L37.8206 16.5313H39.6606C39.8302 17.0108 40.1638 17.415 40.6025 17.6724C41.0413 17.9297 41.5569 18.0237 42.0582 17.9377C42.5595 17.8517 43.0143 17.5912 43.3421 17.2023C43.67 16.8134 43.8498 16.3212 43.8498 15.8125C43.8498 15.3039 43.67 14.8116 43.3421 14.4227C43.0143 14.0338 42.5595 13.7733 42.0582 13.6873C41.5569 13.6013 41.0413 13.6953 40.6025 13.9526C40.1638 14.21 39.8302 14.6142 39.6606 15.0938H37.375C37.2423 15.0942 37.1122 15.1313 36.9993 15.2011C36.8864 15.2709 36.795 15.3705 36.7353 15.4891L36.2106 16.5313H33.3356C32.6595 15.4485 31.818 14.4784 30.8416 13.6563H33.7813C33.938 13.6644 34.0931 13.6211 34.2229 13.5328C34.3527 13.4446 34.45 13.3163 34.5 13.1675L35.0175 11.5H36.0669C36.2364 11.9796 36.5701 12.3837 37.0088 12.6411C37.4475 12.8985 37.9631 12.9925 38.4644 12.9064C38.9658 12.8204 39.4205 12.56 39.7484 12.1711C40.0762 11.7822 40.2561 11.2899 40.2561 10.7813C40.2561 10.2726 40.0762 9.78033 39.7484 9.39144C39.4205 9.00254 38.9658 8.74207 38.4644 8.65606C37.9631 8.57004 37.4475 8.66403 37.0088 8.92139C36.5701 9.17876 36.2364 9.58294 36.0669 10.0625H34.5C34.3433 10.0543 34.1882 10.0977 34.0584 10.1859C33.9286 10.2742 33.8313 10.4025 33.7813 10.5513L33.2638 12.2188H28.75C26.8882 11.2258 24.8011 10.7319 22.6917 10.7851C20.5824 10.8384 18.5228 11.4369 16.7135 12.5225C14.9042 13.6081 13.4068 15.1437 12.3672 16.9798C11.3277 18.816 10.7812 20.89 10.7812 23C10.7812 25.11 11.3277 27.184 12.3672 29.0202C13.4068 30.8563 14.9042 32.3919 16.7135 33.4775C18.5228 34.5631 20.5824 35.1616 22.6917 35.2149C24.8011 35.2681 26.8882 34.7742 28.75 33.7813H33.2781L33.8316 35.4488C33.879 35.5892 33.9687 35.7116 34.0883 35.7991C34.208 35.8866 34.3518 35.9349 34.5 35.9375H36.0669C36.2364 36.4171 36.5701 36.8212 37.0088 37.0786C37.4475 37.336 37.9631 37.43 38.4644 37.3439C38.9658 37.2579 39.4205 36.9975 39.7484 36.6086C40.0762 36.2197 40.2561 35.7274 40.2561 35.2188C40.2561 34.7101 40.0762 34.2178 39.7484 33.8289C39.4205 33.44 38.9658 33.1796 38.4644 33.0936C37.9631 33.0075 37.4475 33.1015 37.0088 33.3589C36.5701 33.6163 36.2364 34.0204 36.0669 34.5H35.0175L34.5 32.8325C34.45 32.6837 34.3527 32.5554 34.2229 32.4672C34.0931 32.3789 33.938 32.3356 33.7813 32.3438H30.8559C31.8324 31.5216 32.6739 30.5515 33.35 29.4688H36.225L36.7497 30.5109C36.8083 30.6273 36.8974 30.7256 37.0076 30.7952C37.1177 30.8649 37.2447 30.9032 37.375 30.9062H39.6606C39.8302 31.3858 40.1638 31.79 40.6025 32.0474C41.0413 32.3047 41.5569 32.3987 42.0582 32.3127C42.5595 32.2267 43.0143 31.9662 43.3421 31.5773C43.67 31.1884 43.8498 30.6961 43.8498 30.1875C43.8498 29.6789 43.67 29.1866 43.3421 28.7977C43.0143 28.4088 42.5595 28.1483 42.0582 28.0623C41.5569 27.9763 41.0413 28.0703 40.6025 28.3276C40.1638 28.585 39.8302 28.9892 39.6606 29.4688H37.8206L37.2959 28.4266C37.2362 28.308 37.1448 28.2084 37.0319 28.1386C36.919 28.0688 36.789 28.0317 36.6563 28.0312H34.1191C34.7465 26.6732 35.1193 25.2115 35.2188 23.7188H38.9491C39.084 24.2412 39.3633 24.7152 39.755 25.0864C40.1467 25.4576 40.6349 25.711 41.1639 25.8178C41.6928 25.9246 42.2411 25.8803 42.7461 25.6901C43.2511 25.4999 43.6924 25.1714 44.0194 24.7422C44.3465 24.3129 44.5462 23.8003 44.5956 23.263C44.645 22.7256 44.5422 22.1852 44.2989 21.7035C44.0557 21.2219 43.6817 20.8184 43.2199 20.5392C42.7581 20.2601 42.2271 20.1165 41.6875 20.125ZM41.6875 15.0938C41.8297 15.0938 41.9686 15.1359 42.0868 15.2149C42.205 15.2939 42.2971 15.4061 42.3515 15.5374C42.4059 15.6688 42.4202 15.8133 42.3924 15.9527C42.3647 16.0921 42.2963 16.2202 42.1957 16.3207C42.0952 16.4213 41.9671 16.4897 41.8277 16.5174C41.6883 16.5452 41.5438 16.5309 41.4124 16.4765C41.2811 16.4221 41.1689 16.33 41.0899 16.2118C41.0109 16.0936 40.9688 15.9547 40.9688 15.8125C40.9688 15.6219 41.0445 15.4391 41.1793 15.3043C41.3141 15.1695 41.4969 15.0938 41.6875 15.0938ZM38.0938 10.0625C38.2359 10.0625 38.3749 10.1047 38.4931 10.1836C38.6113 10.2626 38.7034 10.3749 38.7578 10.5062C38.8122 10.6375 38.8264 10.7821 38.7987 10.9215C38.771 11.0609 38.7025 11.189 38.602 11.2895C38.5015 11.39 38.3734 11.4585 38.234 11.4862C38.0946 11.5139 37.95 11.4997 37.8187 11.4453C37.6874 11.3909 37.5751 11.2988 37.4961 11.1806C37.4172 11.0624 37.375 10.9234 37.375 10.7813C37.375 10.5906 37.4507 10.4078 37.5855 10.273C37.7203 10.1382 37.9031 10.0625 38.0938 10.0625ZM38.0938 34.5C38.2359 34.5 38.3749 34.5422 38.4931 34.6211C38.6113 34.7001 38.7034 34.8124 38.7578 34.9437C38.8122 35.075 38.8264 35.2195 38.7987 35.359C38.771 35.4984 38.7025 35.6265 38.602 35.727C38.5015 35.8275 38.3734 35.896 38.234 35.9237C38.0946 35.9514 37.95 35.9372 37.8187 35.8828C37.6874 35.8284 37.5751 35.7363 37.4961 35.6181C37.4172 35.4999 37.375 35.3609 37.375 35.2188C37.375 35.0281 37.4507 34.8453 37.5855 34.7105C37.7203 34.5757 37.9031 34.5 38.0938 34.5ZM41.6875 29.4688C41.8297 29.4688 41.9686 29.5109 42.0868 29.5899C42.205 29.6689 42.2971 29.7811 42.3515 29.9124C42.4059 30.0438 42.4202 30.1883 42.3924 30.3277C42.3647 30.4671 42.2963 30.5952 42.1957 30.6957C42.0952 30.7963 41.9671 30.8647 41.8277 30.8924C41.6883 30.9202 41.5438 30.9059 41.4124 30.8515C41.2811 30.7971 41.1689 30.705 41.0899 30.5868C41.0109 30.4686 40.9688 30.3297 40.9688 30.1875C40.9688 29.9969 41.0445 29.8141 41.1793 29.6793C41.3141 29.5445 41.4969 29.4688 41.6875 29.4688ZM31.625 16.5313H27.8947C27.5328 15.1519 26.9293 13.8475 26.1122 12.6788C28.3122 13.345 30.2431 14.6943 31.625 16.5313ZM18.6875 22.2813C18.721 20.8305 18.8943 19.3863 19.205 17.9688H26.7806C27.0962 19.3858 27.2743 20.83 27.3125 22.2813H18.6875ZM27.3125 23.7188C27.279 25.1695 27.1057 26.6137 26.795 28.0312H19.2194C18.9038 26.6142 18.7257 25.17 18.6875 23.7188H27.3125ZM23 12.2188C24.2363 12.2188 25.5516 13.8431 26.3997 16.5313H19.6003C20.4484 13.8431 21.7638 12.2188 23 12.2188ZM19.8878 12.6788C19.0707 13.8475 18.4672 15.1519 18.1053 16.5313H14.375C15.7569 14.6943 17.6878 13.345 19.8878 12.6788ZM13.4694 17.9688H17.7819C17.4791 19.388 17.3012 20.831 17.25 22.2813H12.2188C12.3253 20.7714 12.7516 19.3014 13.4694 17.9688ZM13.4694 28.0312C12.7641 26.6958 12.3501 25.226 12.2547 23.7188H17.2859C17.3205 25.1675 17.4817 26.6105 17.7675 28.0312H13.4694ZM14.375 29.4688H18.0838C18.4456 30.8482 19.0491 32.1525 19.8663 33.3213C17.6741 32.6509 15.7513 31.302 14.375 29.4688ZM23 33.7813C21.7638 33.7813 20.4484 32.1569 19.6003 29.4688H26.3997C25.5516 32.1569 24.2363 33.7813 23 33.7813ZM26.1122 33.3213C26.9293 32.1525 27.5328 30.8482 27.8947 29.4688H31.625C30.2431 31.3057 28.3122 32.655 26.1122 33.3213ZM32.5306 28.0312H28.2541C28.5447 26.6109 28.7107 25.168 28.75 23.7188H33.7813C33.6747 25.2286 33.2484 26.6986 32.5306 28.0312ZM28.75 22.2813C28.7154 20.8325 28.5543 19.3895 28.2684 17.9688H32.545C33.2577 19.3025 33.6791 20.7724 33.7813 22.2813H28.75ZM41.6875 24.4375C41.4032 24.4375 41.1253 24.3532 40.8889 24.1952C40.6525 24.0373 40.4682 23.8128 40.3594 23.5501C40.2506 23.2874 40.2222 22.9984 40.2776 22.7196C40.3331 22.4407 40.47 22.1846 40.671 21.9835C40.8721 21.7825 41.1282 21.6456 41.4071 21.5901C41.6859 21.5347 41.9749 21.5631 42.2376 21.6719C42.5003 21.7807 42.7248 21.965 42.8827 22.2014C43.0407 22.4378 43.125 22.7157 43.125 23C43.125 23.3813 42.9736 23.7469 42.704 24.0165C42.4344 24.2861 42.0688 24.4375 41.6875 24.4375Z" fill="url(#paint4_linear_1962_650)"/>
<defs>
<linearGradient id="paint0_linear_1962_650" x1="1.4375" y1="23" x2="23.0013" y2="23" gradientUnits="userSpaceOnUse">
<stop stop-color="#075B65"/>
<stop offset="0.370192" stop-color="#00838A"/>
<stop offset="0.8125" stop-color="#328A99"/>
</linearGradient>
<linearGradient id="paint1_linear_1962_650" x1="4.3125" y1="23" x2="6.46875" y2="23" gradientUnits="userSpaceOnUse">
<stop stop-color="#075B65"/>
<stop offset="0.370192" stop-color="#00838A"/>
<stop offset="0.8125" stop-color="#328A99"/>
</linearGradient>
<linearGradient id="paint2_linear_1962_650" x1="9.78558" y1="36.2065" x2="11.3103" y2="34.6818" gradientUnits="userSpaceOnUse">
<stop stop-color="#075B65"/>
<stop offset="0.370192" stop-color="#00838A"/>
<stop offset="0.8125" stop-color="#328A99"/>
</linearGradient>
<linearGradient id="paint3_linear_1962_650" x1="10.0436" y1="11.0592" x2="11.0601" y2="10.0428" gradientUnits="userSpaceOnUse">
<stop stop-color="#075B65"/>
<stop offset="0.370192" stop-color="#00838A"/>
<stop offset="0.8125" stop-color="#328A99"/>
</linearGradient>
<linearGradient id="paint4_linear_1962_650" x1="10.7812" y1="23" x2="44.6077" y2="23" gradientUnits="userSpaceOnUse">
<stop stop-color="#075B65"/>
<stop offset="0.370192" stop-color="#00838A"/>
<stop offset="0.8125" stop-color="#328A99"/>
</linearGradient>
</defs>
</svg>
