<svg width="48" height="48" viewBox="0 0 48 48" fill="none" xmlns="http://www.w3.org/2000/svg">
<path d="M44.687 47.4714C44.6529 47.4714 44.6177 47.4703 44.5825 47.4682C42.4534 47.3476 38.9366 43.5172 35.8806 35.2335C35.791 34.9903 35.8891 34.7172 36.1142 34.5871L39.1649 32.826C39.3899 32.6959 39.6758 32.7471 39.8411 32.9466C45.487 39.7359 47.0454 44.6959 46.0854 46.601C45.8059 47.1578 45.2993 47.4714 44.687 47.4714ZM37.039 35.2847C40.0427 43.2314 43.2833 46.3258 44.6433 46.4026C44.8801 46.4154 45.0273 46.3311 45.1339 46.1188C45.7473 44.9028 44.6881 40.5487 39.3078 33.9738L37.039 35.2847Z" fill="white"/>
<path d="M36.966 35.2451C36.7814 35.2451 36.6022 35.1491 36.503 34.9784L34.7238 31.8957C34.5766 31.6408 34.6641 31.3144 34.919 31.1672C35.174 31.0189 35.5004 31.1075 35.6476 31.3624L37.4268 34.4451C37.574 34.7 37.4865 35.0264 37.2316 35.1736C37.1484 35.2216 37.0566 35.2451 36.966 35.2451ZM38.8486 34.1581C38.6641 34.1581 38.4849 34.0621 38.3868 33.8915L36.6076 30.8088C36.4604 30.5539 36.5478 30.2275 36.8028 30.0803C37.0577 29.9331 37.3841 30.0205 37.5313 30.2755L39.3105 33.3581C39.4577 33.6131 39.3702 33.9395 39.1153 34.0867C39.03 34.1347 38.9382 34.1581 38.8486 34.1581Z" fill="white"/>
<path d="M31.6966 32.8792C30.872 32.8792 30.0422 32.7704 29.2251 32.5517C26.7771 31.8957 24.7302 30.3256 23.463 28.1304C20.8464 23.5981 22.4048 17.7826 26.9371 15.1672C29.1323 13.9 31.6902 13.5629 34.1382 14.2189C36.5872 14.8749 38.6331 16.445 39.9003 18.6402C42.5168 23.1725 40.9584 28.988 36.4262 31.6034C34.9638 32.4482 33.3414 32.8792 31.6966 32.8792ZM31.6678 14.9592C30.2086 14.9592 28.7675 15.3421 27.4704 16.0909C23.448 18.413 22.0646 23.5746 24.3878 27.597C25.5131 29.5458 27.3296 30.9389 29.5024 31.5213C31.6763 32.1037 33.9462 31.805 35.8939 30.6797C39.9163 28.3576 41.2998 23.196 38.9766 19.1736C37.8512 17.2248 36.0347 15.8317 33.8619 15.2493C33.1355 15.0552 32.3995 14.9592 31.6678 14.9592Z" fill="white"/>
<path d="M31.6925 30.5805C31.0674 30.5805 30.4391 30.4983 29.8194 30.3319C27.9634 29.8349 26.4125 28.6445 25.4525 26.9805C23.4695 23.5458 24.6503 19.1394 28.085 17.1565C29.749 16.1954 31.6871 15.9405 33.5421 16.4376C35.3981 16.9346 36.949 18.125 37.909 19.789C39.8919 23.2237 38.7111 27.6312 35.2765 29.6141C34.1682 30.2541 32.9383 30.5805 31.6925 30.5805ZM31.6701 17.261C30.6311 17.261 29.5794 17.5245 28.6173 18.0802C25.6925 19.7688 24.6866 23.5224 26.3751 26.4472C27.1933 27.8637 28.5138 28.8781 30.0946 29.3016C31.6743 29.725 33.3255 29.5074 34.7431 28.6893C37.6679 27.0008 38.6738 23.2472 36.9853 20.3224C35.8525 18.3608 33.7885 17.261 31.6701 17.261Z" fill="white"/>
<path d="M42.7465 43.0831C42.5619 43.0831 42.3827 42.9871 42.2835 42.8164L39.2414 37.5471C39.0942 37.2921 39.1817 36.9657 39.4366 36.8185C39.6915 36.6713 40.0179 36.7588 40.1651 37.0137L43.2073 42.282C43.3545 42.5369 43.267 42.8633 43.0121 43.0105C42.9289 43.0596 42.8361 43.0831 42.7465 43.0831Z" fill="white"/>
<path d="M37.9953 39.469H5.46515C3.35955 39.469 1.64648 37.756 1.64648 35.6504V4.34796C1.64648 2.24236 3.35955 0.529297 5.46515 0.529297H41.8662C43.9718 0.529297 45.6849 2.24236 45.6849 4.34796V35.6504C45.6849 37.1053 44.8337 38.4568 43.5164 39.0925C43.2508 39.2205 42.9329 39.1096 42.8038 38.844C42.6758 38.5784 42.7868 38.2594 43.0524 38.1314C44.0038 37.6728 44.6182 36.6989 44.6182 35.6504V4.34796C44.6182 2.8301 43.3841 1.59596 41.8662 1.59596H5.46515C3.94728 1.59596 2.71315 2.8301 2.71315 4.34796V35.6504C2.71315 37.1682 3.94728 38.4024 5.46515 38.4024H37.9953C38.2897 38.4024 38.5286 38.6413 38.5286 38.9357C38.5286 39.2301 38.2897 39.469 37.9953 39.469Z" fill="white"/>
<path d="M45.1516 9.38161H2.17982C1.88542 9.38161 1.64648 9.14267 1.64648 8.84827C1.64648 8.55387 1.88542 8.31494 2.17982 8.31494H45.1516C45.4459 8.31494 45.6849 8.55387 45.6849 8.84827C45.6849 9.14267 45.4459 9.38161 45.1516 9.38161Z" fill="white"/>
<path d="M7.80762 6.74806C6.81989 6.74806 6.01562 5.9438 6.01562 4.95606C6.01562 3.96833 6.81989 3.16406 7.80762 3.16406C8.79536 3.16406 9.59963 3.96833 9.59963 4.95606C9.60069 5.9438 8.79642 6.74806 7.80762 6.74806ZM7.80762 4.22966C7.40762 4.22966 7.08229 4.555 7.08229 4.955C7.08229 5.355 7.40762 5.68033 7.80762 5.68033C8.20762 5.68033 8.53296 5.355 8.53296 4.955C8.53403 4.55606 8.20762 4.22966 7.80762 4.22966Z" fill="white"/>
<path d="M12.6787 6.74806C11.691 6.74806 10.8867 5.9438 10.8867 4.95606C10.8867 3.96833 11.691 3.16406 12.6787 3.16406C13.6665 3.16406 14.4707 3.96833 14.4707 4.95606C14.4707 5.9438 13.6665 6.74806 12.6787 6.74806ZM12.6787 4.22966C12.2787 4.22966 11.9534 4.555 11.9534 4.955C11.9534 5.355 12.2787 5.68033 12.6787 5.68033C13.0787 5.68033 13.4041 5.355 13.4041 4.955C13.4041 4.555 13.0787 4.22966 12.6787 4.22966Z" fill="white"/>
<path d="M17.5479 6.74806C16.5601 6.74806 15.7559 5.9438 15.7559 4.95606C15.7559 3.96833 16.5601 3.16406 17.5479 3.16406C18.5356 3.16406 19.3399 3.96833 19.3399 4.95606C19.3399 5.9438 18.5356 6.74806 17.5479 6.74806ZM17.5479 4.22966C17.1479 4.22966 16.8225 4.555 16.8225 4.955C16.8225 5.355 17.1479 5.68033 17.5479 5.68033C17.9479 5.68033 18.2732 5.355 18.2732 4.955C18.2732 4.55606 17.9479 4.22966 17.5479 4.22966Z" fill="white"/>
<path d="M16.587 33.7625H9.44886C8.25313 33.7625 7.035 33.2014 6.26913 32.2979C5.6334 31.5481 5.36566 30.6371 5.515 29.7337L7.44353 18.0953C7.4862 17.8382 7.70913 17.6494 7.9694 17.6494H18.0654C18.3267 17.6494 18.5486 17.8382 18.5913 18.0953L20.5198 29.7337C20.6691 30.6371 20.4014 31.5481 19.7657 32.2979C19.0019 33.2014 17.7827 33.7625 16.587 33.7625ZM8.42273 18.715L6.5678 29.9075C6.443 30.6627 6.779 31.2494 7.083 31.6078C7.65153 32.2787 8.5582 32.6947 9.44886 32.6947H16.5859C17.4766 32.6947 18.3833 32.2777 18.9529 31.6078C19.2569 31.2494 19.5939 30.6627 19.4681 29.9075L17.6131 18.715H8.42273Z" fill="white"/>
<path d="M15.7911 18.7148C15.4967 18.7148 15.2578 18.4759 15.2578 18.1815V16.3682C15.2578 15.662 14.6839 15.0882 13.9778 15.0882H12.0557C11.3506 15.0882 10.7757 15.662 10.7757 16.3682V18.1815C10.7757 18.4759 10.5367 18.7148 10.2423 18.7148C9.94792 18.7148 9.70898 18.4759 9.70898 18.1815V16.3682C9.70898 15.0743 10.7618 14.0215 12.0557 14.0215H13.9778C15.2717 14.0215 16.3245 15.0743 16.3245 16.3682V18.1815C16.3245 18.4759 16.0855 18.7148 15.7911 18.7148Z" fill="white"/>
<path d="M19.8885 29.7166H6.14661C5.85221 29.7166 5.61328 29.4776 5.61328 29.1832C5.61328 28.8888 5.85221 28.6499 6.14661 28.6499H19.8895C20.1839 28.6499 20.4229 28.8888 20.4229 29.1832C20.4218 29.4776 20.1829 29.7166 19.8885 29.7166Z" fill="white"/>
</svg>
