<svg width="40" height="40" viewBox="0 0 40 40" fill="none" xmlns="http://www.w3.org/2000/svg">
<g clip-path="url(#clip0_1299_1328)">
<path d="M27.0756 35.6927C27.0756 36.0191 26.946 36.3322 26.7151 36.563C26.4843 36.7938 26.1713 36.9235 25.8449 36.9235H13.5372C13.2107 36.9235 12.8977 36.7938 12.6669 36.563C12.4361 36.3322 12.3064 36.0191 12.3064 35.6927C12.3064 35.3663 12.4361 35.0532 12.6669 34.8224C12.8977 34.5916 13.2107 34.4619 13.5372 34.4619H25.8449C26.1713 34.4619 26.4843 34.5916 26.7151 34.8224C26.946 35.0532 27.0756 35.3663 27.0756 35.6927ZM33.2295 16.0004C33.2348 18.0522 32.7713 20.078 31.8743 21.9233C30.9774 23.7687 29.6707 25.3847 28.0541 26.6481C27.7518 26.8798 27.5065 27.1775 27.3369 27.5186C27.1673 27.8596 27.0779 28.2349 27.0756 28.6158V29.5389C27.0756 30.1917 26.8163 30.8178 26.3547 31.2794C25.893 31.7411 25.2669 32.0004 24.6141 32.0004H14.7679C14.1151 32.0004 13.489 31.7411 13.0274 31.2794C12.5657 30.8178 12.3064 30.1917 12.3064 29.5389V28.6158C12.3061 28.2395 12.2196 27.8682 12.0535 27.5306C11.8873 27.1929 11.6459 26.8979 11.3479 26.6681C9.73532 25.4122 8.42954 23.8058 7.52943 21.9707C6.62933 20.1356 6.15849 18.1198 6.15255 16.0758C6.11255 8.74348 12.0387 2.63732 19.3649 2.46194C21.17 2.41844 22.9656 2.73648 24.646 3.39735C26.3264 4.05822 27.8576 5.04856 29.1495 6.31008C30.4414 7.5716 31.468 9.07881 32.1686 10.743C32.8693 12.4072 33.23 14.1947 33.2295 16.0004ZM25.4849 16.3604C25.3706 16.246 25.2348 16.1552 25.0854 16.0932C24.936 16.0313 24.7758 15.9994 24.6141 15.9994C24.4523 15.9994 24.2922 16.0313 24.1428 16.0932C23.9934 16.1552 23.8576 16.246 23.7433 16.3604L19.691 20.4142L15.6387 16.3604C15.4078 16.1295 15.0945 15.9997 14.7679 15.9997C14.4413 15.9997 14.1281 16.1295 13.8972 16.3604C13.6662 16.5913 13.5365 16.9046 13.5365 17.2312C13.5365 17.5578 13.6662 17.871 13.8972 18.1019L18.4602 22.6635V28.3081C18.4602 28.6345 18.5899 28.9476 18.8207 29.1784C19.0515 29.4092 19.3646 29.5389 19.691 29.5389C20.0174 29.5389 20.3305 29.4092 20.5613 29.1784C20.7921 28.9476 20.9218 28.6345 20.9218 28.3081V22.6635L25.4849 18.1019C25.5993 17.9876 25.6901 17.8519 25.752 17.7025C25.8139 17.5531 25.8458 17.3929 25.8458 17.2312C25.8458 17.0694 25.8139 16.9093 25.752 16.7599C25.6901 16.6104 25.5993 16.4747 25.4849 16.3604Z" fill="white"/>
</g>
<defs>
<clipPath id="clip0_1299_1328">
<rect width="39.3846" height="39.3846" fill="white"/>
</clipPath>
</defs>
</svg>
