<svg width="40" height="40" viewBox="0 0 40 40" fill="none" xmlns="http://www.w3.org/2000/svg">
<g clip-path="url(#clip0_1299_1346)">
<path d="M15.6668 29.4061C14.973 30.923 12.6576 34.4615 6.15143 34.4615C5.82501 34.4615 5.51196 34.3318 5.28114 34.101C5.05033 33.8702 4.92066 33.5571 4.92066 33.2307C4.92066 26.7246 8.45912 24.4092 9.97604 23.7153C10.1231 23.6483 10.282 23.6108 10.4435 23.6051C10.6051 23.5994 10.7662 23.6256 10.9176 23.6822C11.069 23.7388 11.2078 23.8246 11.3261 23.9348C11.4443 24.045 11.5397 24.1775 11.6068 24.3246C11.6739 24.4716 11.7113 24.6305 11.717 24.792C11.7227 24.9536 11.6965 25.1147 11.6399 25.2661C11.5834 25.4176 11.4975 25.5564 11.3873 25.6746C11.2771 25.7929 11.1447 25.8883 10.9976 25.9553C10.0084 26.4061 7.82527 27.8569 7.44066 31.9415C11.5253 31.5569 12.9791 29.3738 13.4268 28.3846C13.4939 28.2375 13.5893 28.1051 13.7075 27.9948C13.8258 27.8846 13.9646 27.7988 14.116 27.7422C14.2675 27.6856 14.4285 27.6594 14.5901 27.6651C14.7516 27.6708 14.9105 27.7083 15.0576 27.7753C15.2047 27.8424 15.3371 27.9378 15.4473 28.056C15.5575 28.1743 15.6434 28.3131 15.6999 28.4645C15.7565 28.616 15.7827 28.7771 15.777 28.9386C15.7713 29.1002 15.7339 29.259 15.6668 29.4061ZM34.436 7.25225C34.3996 6.65214 34.1447 6.08612 33.7196 5.66099C33.2945 5.23587 32.7285 4.98103 32.1284 4.94456C30.193 4.82917 25.2468 5.0061 21.1437 9.10917L13.536 16.723C13.4218 16.8375 13.2861 16.9283 13.1368 16.9903C12.9874 17.0523 12.8273 17.0843 12.6656 17.0845C12.339 17.0848 12.0257 16.9553 11.7945 16.7246C11.5634 16.4938 11.4333 16.1807 11.4331 15.8541C11.4328 15.5275 11.5622 15.2142 11.793 14.983L15.8791 10.8953C15.9647 10.8093 16.0229 10.6999 16.0464 10.5808C16.0699 10.4618 16.0577 10.3385 16.0114 10.2263C15.965 10.1142 15.8865 10.0183 15.7858 9.95063C15.6851 9.88298 15.5666 9.84661 15.4453 9.8461H11.436C11.1118 9.84439 10.7904 9.90716 10.4907 10.0308C10.1909 10.1544 9.9187 10.3363 9.68989 10.5661L4.41297 15.8461C4.08935 16.1695 3.86226 16.5767 3.7572 17.022C3.65213 17.4673 3.67324 17.933 3.81815 18.367C3.96307 18.8009 4.22606 19.1859 4.57761 19.4787C4.92915 19.7715 5.35535 19.9605 5.80835 20.0246L11.7268 20.8507L18.5283 27.6523L19.3545 33.5738C19.418 34.0268 19.607 34.453 19.9001 34.8043C20.1932 35.1556 20.5786 35.4178 21.013 35.5615C21.2659 35.646 21.5309 35.6891 21.7976 35.6892C22.1205 35.6898 22.4404 35.6265 22.7388 35.5029C23.0371 35.3793 23.3081 35.1979 23.536 34.9692L28.816 29.6923C29.0451 29.4629 29.2266 29.1906 29.3502 28.891C29.4737 28.5913 29.5369 28.2702 29.536 27.9461V23.9369C29.5358 23.8152 29.4996 23.6964 29.4318 23.5953C29.3641 23.4942 29.268 23.4155 29.1555 23.3691C29.0431 23.3227 28.9194 23.3106 28.8001 23.3345C28.6808 23.3583 28.5712 23.417 28.4853 23.503L24.3976 27.5892C24.278 27.7089 24.1351 27.8026 23.9777 27.8646C23.8203 27.9265 23.6518 27.9554 23.4827 27.9493C23.3137 27.9433 23.1477 27.9024 22.9951 27.8293C22.8426 27.7562 22.7067 27.6525 22.596 27.5246C22.3942 27.2803 22.2916 26.9691 22.3087 26.6527C22.3258 26.3363 22.4613 26.0379 22.6884 25.8169L30.2683 18.2369C34.3745 14.1323 34.5514 9.1861 34.436 7.24917V7.25225Z" fill="white"/>
</g>
<defs>
<clipPath id="clip0_1299_1346">
<rect width="39.3846" height="39.3846" fill="white"/>
</clipPath>
</defs>
</svg>
