<svg width="49" height="49" viewBox="0 0 49 49" fill="none" xmlns="http://www.w3.org/2000/svg">
<path d="M24.4443 0.5C37.6685 0.5 48.3886 11.2202 48.3887 24.4443C48.3887 37.6685 37.6685 48.3887 24.4443 48.3887C11.2202 48.3886 0.5 37.6685 0.5 24.4443C0.500059 11.2203 11.2203 0.500059 24.4443 0.5Z" fill="#0F0F0F"/>
<path d="M24.4443 0.5C37.6685 0.5 48.3886 11.2202 48.3887 24.4443C48.3887 37.6685 37.6685 48.3887 24.4443 48.3887C11.2202 48.3886 0.5 37.6685 0.5 24.4443C0.500059 11.2203 11.2203 0.500059 24.4443 0.5Z" stroke="url(#paint0_linear_1299_33)"/>
<mask id="mask0_1299_33" style="mask-type:luminance" maskUnits="userSpaceOnUse" x="13" y="15" width="23" height="19">
<path d="M13.332 15.1846H35.5543V33.7031H13.332V15.1846Z" fill="white"/>
</mask>
<g mask="url(#mask0_1299_33)">
<mask id="mask1_1299_33" style="mask-type:luminance" maskUnits="userSpaceOnUse" x="13" y="15" width="23" height="19">
<path d="M13.332 15.1846H35.5543V33.7031H13.332V15.1846Z" fill="white"/>
</mask>
<g mask="url(#mask1_1299_33)">
<path d="M18.9805 19.5466C18.9805 18.8861 19.8295 18.4679 20.524 18.7858L31.2092 23.684C31.3725 23.7589 31.5087 23.869 31.6035 24.0027C31.6984 24.1365 31.7484 24.289 31.7484 24.4444C31.7484 24.5998 31.6984 24.7523 31.6035 24.886C31.5087 25.0198 31.3725 25.1299 31.2092 25.2048L20.524 30.1022C20.3654 30.1746 20.1869 30.2114 20.0061 30.2089C19.8253 30.2065 19.6484 30.1649 19.4927 30.0882C19.337 30.0115 19.2079 29.9025 19.1181 29.7717C19.0283 29.6409 18.9809 29.4928 18.9805 29.3421V19.5466Z" stroke="white" stroke-width="1.38889" stroke-linecap="round" stroke-linejoin="round"/>
</g>
</g>
<defs>
<linearGradient id="paint0_linear_1299_33" x1="0" y1="24.4444" x2="48.8889" y2="24.4444" gradientUnits="userSpaceOnUse">
<stop stop-color="#075B65"/>
<stop offset="0.370192" stop-color="#00838A"/>
<stop offset="0.8125" stop-color="#328A99"/>
</linearGradient>
</defs>
</svg>
