<svg width="92" height="74" viewBox="0 0 92 74" fill="none" xmlns="http://www.w3.org/2000/svg">
<path d="M41.8015 38.8076V67.2779C41.8015 70.9496 38.8641 74 35.1924 74H6.72214C3.05038 74 0 70.9496 0 67.2779V25.0244C0 11.2299 11.3429 0 25.1374 0H27.3969C28.7753 0 29.826 1.05068 29.826 2.42901V11.0153C29.826 12.3823 28.7188 13.5008 27.3405 13.5008C19.7597 13.5008 13.5573 19.7032 13.5573 27.284V32.1985H35.1924C38.8641 32.1985 41.8015 35.1359 41.8015 38.8076Z" fill="#00838A"/>
<path d="M91.2351 38.8076V67.2779C91.2351 70.9496 88.2977 74 84.626 74H56.1557C52.484 74 49.4336 70.9496 49.4336 67.2779V25.0244C49.4336 11.2299 60.7765 0 74.571 0H76.8305C78.2089 0 79.2596 1.05068 79.2596 2.42901V11.0153C79.2596 12.3823 78.1524 13.5008 76.7741 13.5008C69.1933 13.5008 62.9908 19.7032 62.9908 27.284V32.1985H84.626C88.2977 32.1985 91.2351 35.1359 91.2351 38.8076Z" fill="url(#paint0_linear_1202_727)"/>
<defs>
<linearGradient id="paint0_linear_1202_727" x1="36.4177" y1="40.0833" x2="104.251" y2="40.0833" gradientUnits="userSpaceOnUse">
<stop stop-color="#00838A"/>
<stop offset="0.694844" stop-color="#0F0F0F"/>
<stop offset="1" stop-color="#0F0F0F"/>
</linearGradient>
</defs>
</svg>
