<svg width="40" height="40" viewBox="0 0 40 40" fill="none" xmlns="http://www.w3.org/2000/svg">
<g clip-path="url(#clip0_1299_1339)">
<path d="M7.71508 24.6158L13.7028 14.2419L13.3582 13.645C12.843 12.7807 12.5099 11.8203 12.3793 10.8227C12.2487 9.82511 12.3233 8.81133 12.5986 7.8436C12.8739 6.87587 13.3441 5.97459 13.9802 5.19509C14.6163 4.41559 15.405 3.7743 16.2979 3.31059C17.1908 2.84687 18.1691 2.57051 19.1726 2.49845C20.1762 2.4264 21.1838 2.56018 22.1338 2.89158C23.0838 3.22298 23.956 3.74501 24.697 4.42564C25.438 5.10627 26.0321 5.93113 26.4428 6.84961C26.5717 7.13004 26.5929 7.44809 26.5024 7.74316C26.4119 8.03823 26.216 8.28969 25.952 8.44961C25.8019 8.53674 25.6352 8.59116 25.4626 8.60929C25.29 8.62742 25.1155 8.60885 24.9507 8.55481C24.7858 8.50077 24.6342 8.41247 24.5058 8.2957C24.3774 8.17894 24.2752 8.03635 24.2058 7.8773C23.9342 7.26338 23.5399 6.7115 23.0471 6.25559C22.5543 5.79968 21.9735 5.44937 21.3404 5.22619C20.7072 5.00302 20.0351 4.9117 19.3654 4.95784C18.6957 5.00398 18.0424 5.18661 17.4459 5.4945C16.8493 5.8024 16.322 6.22905 15.8964 6.74823C15.4708 7.26741 15.1559 7.86815 14.971 8.51352C14.7862 9.15889 14.7352 9.83526 14.8214 10.501C14.9075 11.1668 15.129 11.8079 15.472 12.385C15.477 12.3911 15.4811 12.3978 15.4843 12.405L17.612 16.0881C17.72 16.2752 17.7769 16.4874 17.7769 16.7035C17.7769 16.9195 17.72 17.1317 17.612 17.3188L11.9782 27.0773C11.6474 27.6341 11.1107 28.0381 10.4841 28.2018C9.85757 28.3655 9.19175 28.2757 8.63094 27.9519C8.07014 27.6281 7.65952 27.0963 7.48809 26.4719C7.31665 25.8474 7.39821 25.1805 7.71508 24.6158ZM29.4074 18.4619H27.5089L21.8243 8.61576C21.4936 8.05899 20.9568 7.65497 20.3303 7.49126C19.7037 7.32754 19.0379 7.41732 18.4771 7.74113C17.9163 8.06495 17.5057 8.59671 17.3342 9.22119C17.1628 9.84566 17.2444 10.5125 17.5612 11.0773L22.8905 20.3081C22.9984 20.495 23.1535 20.6502 23.3404 20.7582C23.5273 20.8663 23.7392 20.9232 23.9551 20.9235H29.4366C32.1889 20.9235 34.5058 23.1758 34.4612 25.9281C34.44 27.2114 33.9185 28.4356 33.0078 29.34C32.0971 30.2444 30.8692 30.7573 29.5858 30.7696C29.2714 30.7658 28.9668 30.8792 28.7313 31.0876C28.4958 31.2961 28.3464 31.5847 28.312 31.8973C28.2977 32.0674 28.3189 32.2386 28.3744 32.4C28.4298 32.5614 28.5182 32.7096 28.6339 32.835C28.7497 32.9605 28.8902 33.0604 29.0467 33.1286C29.2032 33.1968 29.3721 33.2317 29.5428 33.2311C30.5244 33.2303 31.496 33.0339 32.4009 32.6535C33.3059 32.2732 34.126 31.7163 34.8134 31.0156C35.5008 30.3149 36.0418 29.4842 36.4047 28.5722C36.7677 27.6601 36.9454 26.6849 36.9274 25.7035C36.8443 21.6604 33.4582 18.4619 29.4135 18.4619H29.4074ZM31.9997 25.7281C31.9382 24.4035 30.7966 23.385 29.472 23.385H17.6628C17.4467 23.3849 17.2344 23.4418 17.0472 23.5498C16.8601 23.6578 16.7047 23.8132 16.5966 24.0004L14.1105 28.3081C13.7749 28.8867 13.3249 29.3909 12.788 29.7899C12.2511 30.1888 11.6385 30.4742 10.9877 30.6286C10.3368 30.7829 9.66134 30.803 9.00246 30.6876C8.34358 30.5722 7.71512 30.3238 7.15545 29.9574C6.59578 29.5911 6.11664 29.1145 5.74727 28.5569C5.3779 27.9992 5.12605 27.3721 5.00709 26.7138C4.88814 26.0556 4.90457 25.38 5.05539 24.7283C5.20622 24.0766 5.48826 23.4625 5.88431 22.9235C6.0756 22.6744 6.16711 22.3629 6.14093 22.0499C6.11476 21.7369 5.97278 21.445 5.74277 21.2311C5.61561 21.1178 5.46631 21.0322 5.30433 20.9795C5.14235 20.9269 4.9712 20.9084 4.80172 20.9254C4.63225 20.9423 4.46812 20.9942 4.31974 21.0778C4.17136 21.1614 4.04195 21.2749 3.9397 21.4111C2.99033 22.6692 2.47186 24.1998 2.46123 25.7758C2.44662 27.4065 2.97224 28.9962 3.95606 30.2969C4.93989 31.5975 6.32659 32.5359 7.89977 32.9656C9.47296 33.3953 11.1441 33.2921 12.6525 32.6723C14.161 32.0524 15.4217 30.9506 16.2382 29.5388L16.9489 28.3081H29.5382C29.8716 28.3085 30.2017 28.2411 30.5083 28.11C30.815 27.979 31.0918 27.787 31.322 27.5457C31.5522 27.3045 31.7309 27.0189 31.8474 26.7065C31.9639 26.394 32.0157 26.0611 31.9997 25.7281Z" fill="white"/>
</g>
<defs>
<clipPath id="clip0_1299_1339">
<rect width="39.3846" height="39.3846" fill="white"/>
</clipPath>
</defs>
</svg>
