<svg width="24" height="20" viewBox="0 0 24 20" fill="none" xmlns="http://www.w3.org/2000/svg">
<path d="M22.9835 5.38286C23.1979 4.58266 22.723 3.76015 21.9228 3.54574L8.88284 0.051683C8.08264 -0.16273 7.26013 0.312144 7.04572 1.11234C6.83131 1.91254 7.30618 2.73505 8.10638 2.94946L19.6975 6.05529L16.5917 17.6464C16.3773 18.4466 16.8521 19.2691 17.6523 19.4835C18.4525 19.6979 19.275 19.2231 19.4894 18.4229L22.9835 5.38286ZM0.75 16.9946L1.5 18.2937L22.2846 6.29367L21.5346 4.99463L20.7846 3.69559L0 15.6956L0.75 16.9946Z" fill="url(#paint0_linear_1160_1253)"/>
<defs>
<linearGradient id="paint0_linear_1160_1253" x1="1" y1="17.4276" x2="21.7846" y2="5.42764" gradientUnits="userSpaceOnUse">
<stop stop-color="#075B65"/>
<stop offset="0.370192" stop-color="#00838A"/>
<stop offset="0.8125" stop-color="#328A99"/>
</linearGradient>
</defs>
</svg>
