<svg width="44" height="44" viewBox="0 0 44 44" fill="none" xmlns="http://www.w3.org/2000/svg">
<g clip-path="url(#clip0_1160_1657)">
<path d="M43.3125 0H37.8125C37.4328 0 37.125 0.307828 37.125 0.6875V2.75H25.4375V0.6875C25.4375 0.307828 25.1297 0 24.75 0H19.25C18.8703 0 18.5625 0.307828 18.5625 0.6875V2.75H6.875V0.6875C6.875 0.307828 6.56717 0 6.1875 0H0.6875C0.307828 0 0 0.307828 0 0.6875V6.1875C0 6.56717 0.307828 6.875 0.6875 6.875H6.1875C6.56717 6.875 6.875 6.56717 6.875 6.1875V4.125H12.8922C11.8084 4.63985 10.7057 5.34428 9.68962 6.3085C7.03734 8.82441 5.63363 12.4823 5.50997 17.1875H3.4375C3.05783 17.1875 2.75 17.4953 2.75 17.875V23.375C2.75 23.7547 3.05783 24.0625 3.4375 24.0625H8.9375C9.31717 24.0625 9.625 23.7547 9.625 23.375V17.875C9.625 17.4953 9.31717 17.1875 8.9375 17.1875H6.8854C7.00528 12.8846 8.26109 9.5657 10.6239 7.31775C13.4289 4.65085 17.09 4.20346 18.5625 4.13445V6.1875C18.5625 6.56717 18.8703 6.875 19.25 6.875H24.75C25.1297 6.875 25.4375 6.56717 25.4375 6.1875V4.13428C26.9078 4.20286 30.5704 4.64896 33.3761 7.31706C35.7389 9.5657 36.9948 12.8846 37.1146 17.1875H35.0625C34.6828 17.1875 34.375 17.4953 34.375 17.875V23.375C34.375 23.7547 34.6828 24.0625 35.0625 24.0625H40.5625C40.9422 24.0625 41.25 23.7547 41.25 23.375V17.875C41.25 17.4953 40.9422 17.1875 40.5625 17.1875H38.49C38.3664 12.4823 36.9628 8.82432 34.3131 6.30781C33.2971 5.34385 32.1949 4.63959 31.1114 4.125H37.125V6.1875C37.125 6.56717 37.4328 6.875 37.8125 6.875H43.3125C43.6922 6.875 44 6.56717 44 6.1875V0.6875C44 0.307828 43.6922 0 43.3125 0ZM5.5 5.5H1.375V1.375H5.5V5.5ZM8.25 18.5625V22.6875H4.125V18.5625H8.25ZM24.0625 5.5H19.9375V1.375H24.0625V5.5ZM39.875 18.5625V22.6875H35.75V18.5625H39.875ZM42.625 5.5H38.5V1.375H42.625V5.5Z" fill="white"/>
<path d="M33.5969 27.8466L22.5969 8.59662C22.5437 8.51601 22.4746 8.44691 22.394 8.39372C22.0644 8.17621 21.6209 8.26704 21.4034 8.59662L10.4034 27.8466C10.3853 27.8782 10.3698 27.9112 10.357 27.9452C10.2229 28.3004 10.4022 28.6971 10.7574 28.8311C10.8056 28.8491 15.1753 30.5347 15.75 33.6876H13.7501V35.0626H15.8126V38.5001V44.0001H17.1876V39.1876H26.8126V44.0001H28.1876V38.5001V35.0626H30.2501V33.6876H28.2503C28.825 30.5347 33.1947 28.8491 33.2428 28.8311C33.2768 28.8183 33.3098 28.8028 33.3414 28.7847C33.671 28.5962 33.7854 28.1762 33.5969 27.8466ZM22.0001 22.0001C22.7596 22.0001 23.3751 22.6157 23.3751 23.3751C23.3751 24.1345 22.7596 24.7501 22.0001 24.7501C21.2407 24.7501 20.6251 24.1345 20.6251 23.3751C20.6251 22.6157 21.2407 22.0001 22.0001 22.0001ZM26.8126 37.8126H17.1876V35.0626H26.8126V37.8126ZM26.8566 33.6876H17.1436C16.7263 30.4832 13.4703 28.5774 11.9771 27.8638L21.3126 11.5267V20.7117C20.1265 21.017 19.2501 22.0937 19.2501 23.3751C19.2501 24.8939 20.4814 26.1251 22.0001 26.1251C23.5189 26.1251 24.7501 24.8939 24.7501 23.3751C24.7501 22.0937 23.8737 21.017 22.6876 20.7117V11.5267L32.0232 27.8638C30.5299 28.5774 27.2739 30.4832 26.8566 33.6876Z" fill="white"/>
</g>
<defs>
<clipPath id="clip0_1160_1657">
<rect width="44" height="44" fill="white"/>
</clipPath>
</defs>
</svg>
