<svg width="29" height="37" viewBox="0 0 29 37" fill="none" xmlns="http://www.w3.org/2000/svg">
<path d="M3.22222 37H25.7778C27.5539 37 29 35.5515 29 33.7723V10.5804C29 9.72234 28.6621 8.91149 28.0569 8.29745L20.7165 0.944681C20.1114 0.338511 19.3019 0 18.4374 0H3.22222C1.44607 0 0 1.44851 0 3.22766V33.7723C0 35.5515 1.44607 37 3.22222 37ZM26.9881 8.89575H21.6125C20.7873 8.89575 20.1192 8.2266 20.1192 7.4V2.01532L26.9881 8.89575ZM1.17886 3.22766C1.17886 2.10191 2.09837 1.18085 3.22222 1.18085H18.4374C18.6103 1.18085 18.7753 1.21234 18.9404 1.2517V7.4C18.9404 8.88 20.1428 10.0766 21.6125 10.0766H27.7504C27.7897 10.2419 27.8211 10.4072 27.8211 10.5804V33.7723C27.8211 34.8981 26.9016 35.8191 25.7778 35.8191H3.22222C2.09837 35.8191 1.17886 34.8981 1.17886 33.7723V3.22766Z" fill="#050505"/>
</svg>
