<svg width="41" height="41" viewBox="0 0 41 41" fill="none" xmlns="http://www.w3.org/2000/svg">
<path d="M39.2507 27.2534C38.4066 26.1078 36.7786 25.8063 35.5727 26.5901L28.6389 31.1725C28.3374 31.3534 28.2771 31.7151 28.458 32.0166C28.6389 32.3181 29.0007 32.3784 29.3021 32.1975L36.1757 27.6151C36.8389 27.1931 37.7433 27.3137 38.2257 27.9769C38.7683 28.7004 38.5874 29.6651 37.8639 30.2078L26.8904 37.6842C25.6845 38.5284 24.1771 38.7695 22.7904 38.3475L8.38008 34.4284V28.4592C10.7918 28.4592 13.083 28.0372 15.0124 27.1328C15.9168 26.7107 17.0021 26.7107 17.9668 27.1328L25.4433 30.3284C25.986 30.5695 26.2271 31.1122 26.0463 31.6548C25.8654 32.1372 25.383 32.4387 24.8404 32.3784L17.786 31.1122C17.4242 31.0519 17.1227 31.2931 17.0624 31.5945C17.0021 31.896 17.2433 32.2578 17.5448 32.3181L24.5992 33.5842C25.7448 33.7651 26.7698 33.1622 27.1315 32.0769C27.4933 30.9313 26.9507 29.7254 25.8654 29.2431L21.5845 27.4342C21.5845 27.374 21.5845 27.3137 21.5845 27.3137V19.7769C22.2477 20.0181 22.9713 20.199 23.7551 20.199C24.5389 20.199 25.2624 20.0784 25.9257 19.7769V27.3137C25.9257 27.6754 26.1668 27.9166 26.5286 27.9166C26.8904 27.9166 27.1315 27.6754 27.1315 27.3137V23.6357C28.458 23.1534 29.6639 22.4298 30.6889 21.4651L33.2816 22.5504C33.583 22.671 33.8845 22.5504 34.0654 22.3092L35.9345 19.1137C36.1154 18.8725 35.9948 18.5107 35.7536 18.3298L33.5227 16.6416C33.7036 15.8578 33.8242 15.074 33.8242 14.2298C33.8242 13.3857 33.7036 12.6019 33.5227 11.8181L35.7536 10.1298C35.9948 9.94895 36.0551 9.58719 35.9345 9.34601L34.0654 6.15042C33.8845 5.90925 33.583 5.78866 33.2816 5.90925L30.7492 6.99454C29.6036 5.84895 28.1565 5.06513 26.5889 4.58278L26.2874 1.80925C26.2271 1.50778 25.986 1.2666 25.6845 1.2666H21.9463C21.6448 1.2666 21.4036 1.50778 21.3433 1.80925L20.9816 4.58278C19.4139 5.00484 18.0271 5.84895 16.8213 6.99454L14.2286 5.90925C13.9271 5.78866 13.6257 5.90925 13.4448 6.15042L11.5757 9.34601C11.3948 9.58719 11.5154 9.94895 11.7565 10.1298L13.9874 11.8181C13.8066 12.6019 13.686 13.3857 13.686 14.2298C13.686 15.074 13.8066 15.8578 13.9874 16.6416L11.7565 18.3298C11.5154 18.5107 11.4551 18.8725 11.5757 19.1137L13.4448 22.3092C13.6257 22.5504 13.9271 22.671 14.2286 22.5504L16.8213 21.4651C17.8463 22.4298 19.0521 23.1534 20.3786 23.6357V26.9519L18.3889 26.1078C17.1227 25.5651 15.6757 25.5651 14.4698 26.1078C12.661 26.8916 10.5507 27.3137 8.31978 27.3137V26.4092C8.31978 26.0475 8.07861 25.8063 7.71684 25.8063H3.49625C3.19478 25.8063 2.95361 26.0475 2.89331 26.2887L1.20508 36.7798C1.20508 36.9607 1.20508 37.1416 1.32567 37.2622C1.44625 37.3828 1.62714 37.4431 1.80802 37.4431H7.71684C8.07861 37.4431 8.31978 37.2019 8.31978 36.8401V35.6945L22.4286 39.4931C24.1771 39.9754 26.0463 39.674 27.5536 38.649L38.5874 31.1725C39.9139 30.3284 40.2154 28.5195 39.2507 27.2534ZM19.0521 14.049C19.1124 12.8431 19.5948 11.6372 20.4389 10.7931V12.3004C20.4389 14.1695 21.9463 15.6769 23.8154 15.6769C25.6845 15.6769 27.1918 14.1695 27.1918 12.3004V10.7931C28.0963 11.6975 28.5786 12.9034 28.5786 14.1695C28.5786 16.7622 26.4683 18.9328 23.8154 18.9328C21.1624 18.9931 18.9918 16.7622 19.0521 14.049ZM17.4845 20.2592C17.3036 20.0784 17.0624 20.0181 16.8213 20.1387L14.3492 21.224L13.0227 18.9328L15.1933 17.3048C15.3742 17.124 15.4948 16.8828 15.4345 16.6416C15.1933 15.8578 15.0727 15.0137 15.0727 14.1695C15.0727 13.3254 15.1933 12.4813 15.4345 11.6975C15.4948 11.4563 15.4345 11.2151 15.1933 11.0342L13.0227 9.40631L14.3492 7.11513L16.8213 8.20042C17.0624 8.32101 17.3036 8.26072 17.4845 8.07984C18.6301 6.87395 20.1374 6.02984 21.7654 5.60778C22.0065 5.54748 22.1874 5.3666 22.2477 5.06513L22.5492 2.41219H25.2021L25.5036 5.06513C25.5036 5.30631 25.7448 5.54748 25.986 5.60778C27.6139 6.02984 29.061 6.87395 30.2066 8.07984C30.3874 8.26072 30.6286 8.32101 30.8698 8.20042L33.3418 7.11513L34.6683 9.40631L32.4977 11.0342C32.3168 11.2151 32.1963 11.4563 32.2565 11.6975C32.4977 12.4813 32.6183 13.3254 32.6183 14.1695C32.6183 15.0137 32.4977 15.8578 32.2565 16.6416C32.1963 16.8828 32.2566 17.124 32.4977 17.3048L34.6683 18.9328L33.3418 21.224L30.8698 20.1387C30.6286 20.0181 30.3874 20.0784 30.2066 20.2592C29.3624 21.1637 28.3374 21.8269 27.2521 22.249V19.0534C28.9404 17.9078 29.8448 16.0387 29.8448 14.1092C29.8448 11.999 28.7595 10.0695 26.9507 8.98425C26.7698 8.86366 26.5286 8.86366 26.3477 8.98425C26.1668 9.10484 26.0463 9.28572 26.0463 9.5269V12.2401C26.0463 13.446 25.0815 14.4107 23.8757 14.4107C22.6698 14.4107 21.7051 13.446 21.7051 12.2401V9.5269C21.7051 9.28572 21.5845 9.10484 21.4036 8.98425C21.2227 8.86366 20.9816 8.86366 20.8007 8.98425C19.0521 10.0695 17.9668 11.9387 17.9065 13.9887C17.8463 16.099 18.8713 17.9078 20.4992 19.0534V22.3092C19.3536 21.8269 18.3286 21.1637 17.4845 20.2592ZM7.1139 36.2372H2.53155L4.0389 26.9519H7.1139V36.2372Z" fill="#00A1A5"/>
</svg>
