<svg width="35" height="35" viewBox="0 0 35 35" fill="none" xmlns="http://www.w3.org/2000/svg">
<path d="M26.1148 9.26562H24.0273C23.8823 9.26562 23.7432 9.32324 23.6406 9.4258C23.5381 9.52836 23.4805 9.66746 23.4805 9.8125C23.4805 9.95754 23.5381 10.0966 23.6406 10.1992C23.7432 10.3018 23.8823 10.3594 24.0273 10.3594H26.1148C26.2598 10.3594 26.3989 10.3018 26.5015 10.1992C26.604 10.0966 26.6616 9.95754 26.6616 9.8125C26.6616 9.66746 26.604 9.52836 26.5015 9.4258C26.3989 9.32324 26.2598 9.26562 26.1148 9.26562Z" fill="#00A1A5"/>
<path d="M11.3541 9.35687C11.3261 9.33546 11.2947 9.319 11.2611 9.3082C11.2275 9.29369 11.1925 9.28269 11.1567 9.27538C11.0689 9.25772 10.9781 9.2619 10.8922 9.28755C10.8064 9.3132 10.7282 9.35954 10.6645 9.42249C10.5626 9.52604 10.5057 9.66553 10.5059 9.81078C10.5051 9.88281 10.5187 9.95428 10.5459 10.021C10.5731 10.0877 10.6135 10.1482 10.6645 10.1991C10.7144 10.2501 10.7736 10.2911 10.8389 10.3199C10.9071 10.3461 10.9797 10.3589 11.0528 10.3577C11.124 10.3589 11.1948 10.3455 11.2607 10.3182C11.3265 10.2909 11.3861 10.2503 11.4356 10.1991C11.4873 10.1484 11.5284 10.088 11.5565 10.0214C11.5847 9.95471 11.5993 9.88313 11.5996 9.81078C11.5978 9.66488 11.5389 9.52552 11.4356 9.42249C11.4105 9.39815 11.3832 9.37618 11.3541 9.35687Z" fill="#00A1A5"/>
<path d="M13.0203 9.42853C12.9162 9.32959 12.7781 9.27441 12.6345 9.27441C12.4909 9.27441 12.3528 9.32959 12.2487 9.42853C12.1977 9.47849 12.157 9.53794 12.1289 9.60353C12.0948 9.68659 12.0816 9.77678 12.0906 9.86613C12.0996 9.95547 12.1305 10.0412 12.1805 10.1158C12.2305 10.1904 12.2981 10.2515 12.3773 10.2938C12.4566 10.3361 12.545 10.3582 12.6348 10.3582C12.7246 10.3582 12.813 10.3361 12.8922 10.2938C12.9714 10.2515 13.039 10.1904 13.089 10.1158C13.139 10.0412 13.1699 9.95547 13.1789 9.86613C13.1879 9.77678 13.1747 9.68659 13.1406 9.60353C13.1119 9.53815 13.0711 9.47877 13.0203 9.42853Z" fill="#00A1A5"/>
<path d="M14.607 9.42848C14.503 9.32957 14.365 9.27441 14.2215 9.27441C14.078 9.27441 13.9399 9.32957 13.8359 9.42848C13.7831 9.47695 13.742 9.53679 13.7156 9.60348C13.6725 9.70316 13.6609 9.81365 13.6824 9.92011C13.7039 10.0266 13.7575 10.1239 13.8359 10.199C13.8853 10.2505 13.9448 10.2911 14.0107 10.3184C14.0766 10.3457 14.1474 10.3591 14.2187 10.3576C14.2908 10.3585 14.3622 10.3449 14.4289 10.3176C14.4956 10.2904 14.5562 10.2501 14.607 10.199C14.6587 10.1484 14.6998 10.088 14.728 10.0213C14.7561 9.95467 14.7708 9.8831 14.7711 9.81074C14.7704 9.73926 14.7555 9.66863 14.7273 9.60293C14.6992 9.53722 14.6583 9.47829 14.607 9.42848Z" fill="#00A1A5"/>
<path d="M15.4164 9.42774C15.316 9.53003 15.2592 9.66724 15.2578 9.81055C15.2589 9.95553 15.3157 10.0945 15.4164 10.1988C15.4929 10.276 15.5906 10.3286 15.6971 10.3499C15.8036 10.3713 15.9141 10.3605 16.0144 10.3188C16.1147 10.2772 16.2004 10.2066 16.2604 10.116C16.3205 10.0255 16.3522 9.91918 16.3516 9.81055C16.3524 9.73933 16.3388 9.66868 16.3115 9.60288C16.2843 9.53707 16.2439 9.47749 16.193 9.42774C16.0886 9.32748 15.9494 9.27148 15.8047 9.27148C15.6599 9.27148 15.5208 9.32748 15.4164 9.42774Z" fill="#00A1A5"/>
<path d="M17.7791 9.42839C17.674 9.32948 17.5351 9.27441 17.3908 9.27441C17.2465 9.27441 17.1076 9.32948 17.0025 9.42839C16.9531 9.47858 16.9141 9.53805 16.8877 9.60339C16.8568 9.66802 16.8418 9.73907 16.8439 9.81065C16.8425 9.88375 16.8555 9.95641 16.8822 10.0245C16.9125 10.0888 16.9532 10.1477 17.0025 10.1989C17.1062 10.3006 17.2456 10.3576 17.3908 10.3576C17.536 10.3576 17.6754 10.3006 17.7791 10.1989C17.8285 10.1489 17.8676 10.0896 17.8939 10.0245C17.9221 9.95667 17.937 9.88407 17.9377 9.81065C17.9368 9.73936 17.922 9.66894 17.8939 9.60339C17.8676 9.53805 17.8285 9.47858 17.7791 9.42839Z" fill="#00A1A5"/>
<path d="M31.6203 2.25195H6.51876C5.91234 2.25239 5.33087 2.49348 4.90207 2.92229C4.47326 3.3511 4.23216 3.93256 4.23173 4.53898V15.4601C3.9545 15.4803 3.6939 15.5999 3.49782 15.797L2.83829 16.4532C2.63309 16.6574 2.51164 16.931 2.49778 17.2202C2.48392 17.5093 2.57865 17.7933 2.76337 18.0162L3.29876 18.6664C3.30581 18.674 3.31096 18.6832 3.31381 18.6932C3.31666 18.7031 3.31713 18.7136 3.31517 18.7238C3.20686 18.9416 3.11349 19.1666 3.03571 19.397C3.03005 19.4057 3.02236 19.4129 3.01331 19.4179C3.00426 19.423 2.99412 19.4258 2.98376 19.426L2.14485 19.507C1.8565 19.534 1.58872 19.668 1.39419 19.8826C1.19967 20.0971 1.0925 20.3767 1.09376 20.6663V21.596C1.09279 21.8856 1.20024 22.1651 1.39497 22.3794C1.58969 22.5938 1.85759 22.7275 2.14595 22.7543L2.98267 22.8352C2.99349 22.8354 3.00413 22.8381 3.01366 22.8432C3.02319 22.8484 3.03132 22.8558 3.03735 22.8648C3.11476 23.0949 3.20776 23.3194 3.31571 23.5369C3.31802 23.5471 3.31778 23.5577 3.31501 23.5678C3.31225 23.5779 3.30704 23.5872 3.29985 23.5948L2.76446 24.2456C2.57814 24.4685 2.48233 24.7532 2.496 25.0434C2.50968 25.3336 2.63184 25.608 2.83829 25.8124L3.49454 26.4687C3.69818 26.6748 3.97173 26.797 4.26112 26.8112C4.55052 26.8254 4.83471 26.7305 5.05751 26.5452L5.70665 26.0104C5.71424 26.0026 5.72376 25.997 5.73423 25.9941C5.74471 25.9912 5.75576 25.9912 5.76626 25.994C5.98368 26.1019 6.20824 26.1947 6.43837 26.2718C6.44733 26.2778 6.45466 26.286 6.45971 26.2955C6.46477 26.305 6.46739 26.3157 6.46735 26.3265L6.54829 27.1638C6.57552 27.4526 6.71003 27.7207 6.92527 27.9152C7.14052 28.1097 7.42086 28.2164 7.71095 28.2143H8.64064C8.93023 28.2153 9.20971 28.1078 9.42406 27.9131C9.63842 27.7184 9.77214 27.4505 9.79892 27.1621L9.87986 26.3232C9.88023 26.313 9.883 26.303 9.88794 26.2941C9.89288 26.2852 9.89985 26.2775 9.90829 26.2718C10.1389 26.1942 10.364 26.101 10.582 25.9929C10.5923 25.9905 10.6031 25.9908 10.6133 25.9937C10.6234 25.9967 10.6326 26.0023 10.64 26.0098L11.2897 26.5441C11.5123 26.7292 11.7962 26.8241 12.0853 26.8101C12.3745 26.7962 12.6479 26.6743 12.8516 26.4687L13.5078 25.8124C13.7083 25.613 13.8288 25.3471 13.8463 25.0648H17.7767L11.9 31.1718C11.8084 31.2777 11.7608 31.4148 11.7673 31.5548C11.7737 31.6947 11.8336 31.8268 11.9346 31.9239C12.0356 32.021 12.17 32.0756 12.3101 32.0765C12.4502 32.0774 12.5853 32.0245 12.6875 31.9287L18.5221 25.8698V32.201C18.5221 32.3461 18.5797 32.4852 18.6823 32.5877C18.7849 32.6903 18.924 32.7479 19.069 32.7479C19.214 32.7479 19.3531 32.6903 19.4557 32.5877C19.5583 32.4852 19.6159 32.3461 19.6159 32.201V25.8704L25.4499 31.9287C25.5516 32.0273 25.6876 32.0826 25.8292 32.0829C25.9709 32.0833 26.1071 32.0287 26.2093 31.9306C26.3115 31.8325 26.3716 31.6986 26.3771 31.5571C26.3825 31.4156 26.3329 31.2774 26.2385 31.1718L20.3569 25.0627H31.6225C32.2282 25.0614 32.8086 24.82 33.2367 24.3916C33.6648 23.9631 33.9055 23.3824 33.9063 22.7767V4.53898C33.9058 3.93275 33.6649 3.35145 33.2363 2.92268C32.8077 2.4939 32.2266 2.25268 31.6203 2.25195ZM12.7389 25.037L12.0794 25.6959C12.0671 25.7082 12.0507 25.7155 12.0334 25.7162C12.016 25.7169 11.9991 25.711 11.9859 25.6998L11.3362 25.1655C11.1663 25.0232 10.959 24.9331 10.7391 24.9061C10.5192 24.879 10.2962 24.9161 10.097 25.0129C9.92311 25.099 9.7437 25.1733 9.55993 25.2355C9.35106 25.3084 9.16769 25.4401 9.03187 25.6147C8.89605 25.7893 8.81355 25.9995 8.79431 26.2198L8.71337 27.0588C8.71161 27.0761 8.70348 27.0922 8.69056 27.1039C8.67763 27.1156 8.66082 27.1221 8.64337 27.1222H7.71095C7.69338 27.1223 7.67643 27.1157 7.66346 27.1039C7.65049 27.092 7.64246 27.0757 7.64095 27.0582L7.55946 26.2209C7.54022 26.0005 7.45772 25.7904 7.3219 25.6158C7.18608 25.4411 7.00271 25.3095 6.79384 25.2366C6.61077 25.1749 6.43208 25.1009 6.259 25.0151C6.10391 24.9384 5.93324 24.8986 5.76025 24.8986C5.48948 24.8993 5.22736 24.994 5.01868 25.1666L4.36407 25.703C4.35088 25.7142 4.3339 25.72 4.31661 25.7191C4.29933 25.7181 4.28305 25.7107 4.2711 25.6981L3.60939 25.037C3.59782 25.024 3.59142 25.0073 3.59142 24.9899C3.59142 24.9726 3.59782 24.9558 3.60939 24.9429L4.14478 24.2927C4.28694 24.1228 4.37692 23.9154 4.4039 23.6955C4.43087 23.4756 4.39368 23.2527 4.29681 23.0534C4.21076 22.88 4.13658 22.701 4.07478 22.5175C4.00187 22.3086 3.87019 22.1253 3.69556 21.9894C3.52093 21.8536 3.31079 21.7711 3.0904 21.7519L2.25368 21.6709C2.23536 21.6698 2.21819 21.6616 2.20584 21.648C2.19348 21.6344 2.18691 21.6166 2.18751 21.5982V20.6685C2.18766 20.6512 2.19414 20.6345 2.20572 20.6216C2.2173 20.6087 2.23319 20.6005 2.2504 20.5985L3.08931 20.5181C3.31002 20.4987 3.52039 20.4158 3.69505 20.2794C3.86972 20.1431 4.00121 19.9591 4.07368 19.7498C4.13585 19.5659 4.2104 19.3865 4.29681 19.2127C4.39349 19.0135 4.43053 18.7906 4.40346 18.5709C4.37639 18.3511 4.28637 18.1438 4.14423 17.9741L3.60939 17.3227C3.59732 17.3096 3.59062 17.2924 3.59062 17.2746C3.59062 17.2568 3.59732 17.2396 3.60939 17.2265L4.26946 16.5702C4.28168 16.5581 4.298 16.551 4.31521 16.5503C4.33241 16.5496 4.34926 16.5553 4.36243 16.5664L5.01267 17.1012C5.18256 17.2434 5.38994 17.3334 5.60981 17.3604C5.82969 17.3873 6.05267 17.3502 6.25189 17.2533C6.42557 17.1674 6.60479 17.0932 6.78837 17.0312C6.99724 16.9583 7.18061 16.8267 7.31643 16.652C7.45226 16.4774 7.53475 16.2673 7.554 16.0469L7.63548 15.2085C7.63712 15.1911 7.64521 15.1749 7.65816 15.1632C7.67112 15.1515 7.688 15.145 7.70548 15.1451H8.63517C8.6527 15.1451 8.66958 15.1517 8.68252 15.1636C8.69546 15.1754 8.70354 15.1916 8.70517 15.2091L8.7861 16.0458C8.80535 16.2662 8.88784 16.4763 9.02367 16.6509C9.15949 16.8256 9.34286 16.9573 9.55173 17.0302C9.73505 17.091 9.9141 17.1641 10.0877 17.2489C10.2868 17.346 10.5099 17.3835 10.7299 17.3567C10.9498 17.3299 11.1574 17.2401 11.3274 17.098L11.9771 16.562C11.9908 16.5515 12.0078 16.5461 12.0251 16.547C12.0423 16.5479 12.0587 16.555 12.0712 16.567L12.7302 17.2232C12.7426 17.2355 12.75 17.2521 12.7509 17.2696C12.7518 17.287 12.7462 17.3042 12.7351 17.3178L12.1992 17.9675C12.0571 18.1374 11.9672 18.3449 11.9403 18.5647C11.9134 18.7846 11.9507 19.0076 12.0477 19.2067C12.1335 19.3801 12.2075 19.5592 12.2692 19.7427C12.273 19.7536 12.2806 19.7623 12.2845 19.7733L12.2905 19.7842C12.3677 19.9829 12.4987 20.1561 12.6688 20.2846C12.8388 20.413 13.0413 20.4916 13.2535 20.5116L14.0902 20.592C14.1077 20.5936 14.1239 20.6017 14.1358 20.6146C14.1476 20.6275 14.1542 20.6444 14.1542 20.662V21.5916C14.1543 21.609 14.1479 21.6258 14.1363 21.6388C14.1247 21.6517 14.1086 21.6599 14.0913 21.6616L13.2524 21.7426C13.032 21.7618 12.8219 21.8443 12.6473 21.9801C12.4726 22.116 12.341 22.2993 12.2681 22.5082C12.2061 22.692 12.1317 22.8715 12.0455 23.0452C11.9487 23.2444 11.9116 23.4673 11.9386 23.687C11.9655 23.9068 12.0555 24.1141 12.1975 24.2839L12.7334 24.9341C12.7409 24.9403 12.747 24.948 12.7513 24.9566C12.7557 24.9652 12.7582 24.9747 12.7587 24.9843C12.7592 24.994 12.7577 25.0037 12.7543 25.0127C12.7509 25.0218 12.7457 25.03 12.7389 25.037ZM32.8125 22.7767C32.8122 23.0928 32.6865 23.3959 32.463 23.6194C32.2395 23.8429 31.9364 23.9686 31.6203 23.9689H13.358L13.0517 23.597C13.0449 23.5898 13.04 23.5811 13.0372 23.5716C13.0344 23.5621 13.034 23.5521 13.0359 23.5423C13.1436 23.3241 13.237 23.099 13.3153 22.8686C13.321 22.8601 13.3286 22.853 13.3376 22.8479C13.3465 22.8429 13.3565 22.84 13.3667 22.8396L14.2062 22.7587C14.4948 22.7317 14.7629 22.5976 14.9576 22.3828C15.1522 22.168 15.2594 21.8881 15.2578 21.5982V20.6685C15.257 20.4758 15.2081 20.2863 15.1156 20.1173H17.0406C17.1586 20.5652 17.4216 20.9615 17.7885 21.2442C18.1553 21.527 18.6055 21.6803 19.0687 21.6803C19.5319 21.6803 19.9821 21.527 20.349 21.2442C20.7159 20.9615 20.9788 20.5652 21.0968 20.1173H29.2452C29.3903 20.1173 29.5294 20.0596 29.6319 19.9571C29.7345 19.8545 29.7921 19.7154 29.7921 19.5704C29.7921 19.4254 29.7345 19.2862 29.6319 19.1837C29.5294 19.0811 29.3903 19.0235 29.2452 19.0235H21.0968C21.0006 18.6688 20.8133 18.3454 20.5534 18.0855C20.2935 17.8256 19.9701 17.6382 19.6153 17.542V13.4126H28.4922C28.8377 13.4121 29.1689 13.2747 29.4132 13.0304C29.6575 12.7861 29.795 12.4549 29.7954 12.1094V7.51562C29.7948 7.17017 29.6573 6.83903 29.4131 6.59476C29.1688 6.35049 28.8377 6.213 28.4922 6.21242H9.64853C9.30288 6.21286 8.97152 6.35035 8.72712 6.59476C8.48271 6.83917 8.34521 7.17053 8.34478 7.51617V12.1099C8.34521 12.4555 8.48273 12.7868 8.72715 13.0311C8.97157 13.2755 9.30293 13.4128 9.64853 13.4131H18.5221V17.5426C18.1681 17.6385 17.8453 17.8251 17.5857 18.0841C17.326 18.3431 17.1385 18.6654 17.0417 19.0191H13.1589C13.1174 18.9207 13.0829 18.8179 13.0364 18.7233C13.0338 18.7131 13.0339 18.7025 13.0366 18.6923C13.0393 18.6822 13.0445 18.6729 13.0517 18.6653L13.5882 18.0145C13.7726 17.7915 13.8671 17.5076 13.853 17.2186C13.839 16.9295 13.7174 16.6562 13.5122 16.4521L12.8559 15.7959C12.652 15.5903 12.3785 15.4685 12.0893 15.4543C11.8001 15.4401 11.516 15.5347 11.293 15.7193L10.6417 16.2558C10.6343 16.2622 10.6255 16.2669 10.616 16.2695C10.6065 16.272 10.5966 16.2724 10.587 16.2705C10.3692 16.163 10.1445 16.0702 9.91431 15.9927C9.90542 15.9866 9.89814 15.9785 9.89309 15.969C9.88804 15.9594 9.88538 15.9488 9.88532 15.938L9.80439 15.1008C9.7769 14.8119 9.64214 14.5439 9.4267 14.3495C9.21126 14.1551 8.93079 14.0485 8.64064 14.0508H7.71095C7.42138 14.0498 7.14191 14.1571 6.92748 14.3517C6.71304 14.5463 6.57915 14.8141 6.55212 15.1024L6.47118 15.9413C6.47089 15.9515 6.46816 15.9615 6.46321 15.9705C6.45827 15.9794 6.45125 15.9871 6.44275 15.9927C6.21219 16.0706 5.9871 16.1637 5.769 16.2716C5.75875 16.2743 5.74797 16.2742 5.73779 16.2713C5.7276 16.2684 5.71836 16.2629 5.71103 16.2552L5.32821 15.9386V4.53898C5.32865 4.22293 5.45439 3.91994 5.67788 3.69646C5.90136 3.47298 6.20435 3.34723 6.5204 3.3468H31.622C31.9377 3.34766 32.2403 3.4736 32.4634 3.69704C32.6866 3.92048 32.8121 4.22321 32.8125 4.53898V22.7767ZM9.64853 12.3188C9.59293 12.3188 9.53959 12.2968 9.50023 12.2575C9.46086 12.2183 9.43867 12.165 9.43853 12.1094V7.51562C9.43853 7.45993 9.46065 7.40652 9.50003 7.36713C9.53942 7.32775 9.59283 7.30562 9.64853 7.30562H28.4922C28.5197 7.30562 28.547 7.31106 28.5725 7.32162C28.5979 7.33218 28.621 7.34766 28.6405 7.36717C28.66 7.38667 28.6754 7.40983 28.6859 7.4353C28.6964 7.46078 28.7017 7.48807 28.7017 7.51562V12.1094C28.7017 12.1649 28.6796 12.2182 28.6403 12.2575C28.601 12.2968 28.5477 12.3188 28.4922 12.3188H9.64853ZM19.0674 18.5532H19.0706C19.3393 18.5539 19.5967 18.661 19.7866 18.851C19.9765 19.041 20.0834 19.2985 20.084 19.5671V19.5704C20.084 19.8396 19.9771 20.0978 19.7867 20.2881C19.5964 20.4785 19.3382 20.5854 19.069 20.5854C18.7998 20.5854 18.5416 20.4785 18.3513 20.2881C18.1609 20.0978 18.054 19.8396 18.054 19.5704V19.5671C18.0551 19.2988 18.1623 19.0418 18.3521 18.8522C18.542 18.6626 18.799 18.5557 19.0674 18.5548V18.5532Z" fill="#00A1A5"/>
<path d="M8.17508 17.8574C7.52743 17.8574 6.89433 18.0495 6.35582 18.4093C5.81731 18.7691 5.39758 19.2805 5.14972 19.8788C4.90185 20.4772 4.83696 21.1356 4.96327 21.7708C5.08958 22.406 5.40141 22.9895 5.85933 23.4475C6.31725 23.9055 6.90069 24.2174 7.53588 24.3438C8.17108 24.4702 8.82949 24.4055 9.42787 24.1577C10.0262 23.9099 10.5377 23.4903 10.8976 22.9518C11.2575 22.4134 11.4497 21.7803 11.4498 21.1327C11.4489 20.2644 11.1036 19.4319 10.4897 18.8179C9.87579 18.2038 9.04336 17.8584 8.17508 17.8574ZM8.17508 23.313C7.74371 23.313 7.32202 23.1851 6.96336 22.9455C6.60469 22.7058 6.32516 22.3651 6.1601 21.9666C5.99505 21.568 5.95189 21.1295 6.03609 20.7064C6.12028 20.2834 6.32805 19.8947 6.63312 19.5898C6.93818 19.2848 7.32684 19.0771 7.74993 18.993C8.17303 18.9089 8.61156 18.9522 9.01007 19.1173C9.40857 19.2825 9.74915 19.5621 9.98873 19.9208C10.2283 20.2796 10.3561 20.7013 10.356 21.1327C10.3553 21.7108 10.1253 22.2651 9.7164 22.6738C9.30754 23.0826 8.75323 23.3125 8.17508 23.313Z" fill="#00A1A5"/>
</svg>
