<svg width="22" height="35" viewBox="0 0 22 35" fill="none" xmlns="http://www.w3.org/2000/svg">
<path d="M21.3033 31.0557C21.3073 31.0323 21.3073 31.0084 21.3033 30.9851C21.14 29.3969 20.7722 27.8365 20.2089 26.3427C20.1918 26.2661 20.1651 26.1919 20.1295 26.122C19.4737 24.4474 18.5627 22.8844 17.4288 21.4884L17.3405 21.3825C16.0328 19.825 14.476 18.4948 12.7334 17.4462C15.6359 15.7835 18.015 13.3415 19.6013 10.3966C21.1876 7.45167 21.9179 4.12149 21.7093 0.78301C21.6812 0.548934 21.5613 0.335604 21.3759 0.189949C21.1906 0.0442944 20.9549 -0.021754 20.7208 0.00633512C20.4868 0.0344242 20.2734 0.15435 20.1278 0.339729C19.9821 0.525107 19.9161 0.760754 19.9442 0.99483C19.9868 1.58245 19.9868 2.17238 19.9442 2.76H1.7894C1.7468 2.17238 1.7468 1.58245 1.7894 0.99483C1.80292 0.879476 1.79354 0.762587 1.7618 0.650865C1.73006 0.539142 1.67658 0.434784 1.60442 0.343771C1.53227 0.252759 1.44286 0.176883 1.34132 0.120493C1.23979 0.0641031 1.12812 0.0283086 1.01272 0.0151612C0.781104 -0.0122675 0.548048 0.0530997 0.364479 0.196978C0.18091 0.340857 0.0617553 0.551547 0.0330532 0.78301C-0.170324 4.12685 0.567871 7.46074 2.16383 10.4062C3.75979 13.3516 6.14959 15.7906 9.0619 17.4462C7.31932 18.4948 5.76254 19.825 4.4548 21.3825L4.35772 21.4973C3.24394 22.888 2.3509 24.4419 1.70996 26.1044C1.66449 26.1841 1.63173 26.2705 1.61288 26.3603C1.05707 27.8377 0.692258 29.38 0.5273 30.9498C0.523291 30.9849 0.523291 31.0205 0.5273 31.0557C0.430358 31.9881 0.41559 32.9273 0.48317 33.8623C0.509185 34.0776 0.613537 34.2757 0.77632 34.419C0.939103 34.5622 1.14892 34.6405 1.36575 34.639H1.47167C1.5879 34.6259 1.70037 34.5898 1.80255 34.5328C1.90472 34.4759 1.99455 34.3992 2.06682 34.3072C2.13908 34.2152 2.19235 34.1098 2.22351 33.9971C2.25467 33.8843 2.26311 33.7665 2.24834 33.6505C2.19694 33.0632 2.19694 32.4726 2.24834 31.8853H19.6264C19.6682 32.4729 19.6682 33.0628 19.6264 33.6505C19.6016 33.882 19.6693 34.114 19.8148 34.2959C19.9603 34.4777 20.1718 34.5947 20.4031 34.6213H20.509C20.7259 34.6229 20.9357 34.5446 21.0985 34.4013C21.2612 34.2581 21.3656 34.0599 21.3916 33.8446C21.4592 32.9067 21.4445 31.9646 21.3475 31.0292L21.3033 31.0557ZM5.48743 22.9094H16.3167C17.0026 23.761 17.5944 24.6843 18.0819 25.6631H3.82817C4.28458 24.6903 4.84064 23.7675 5.48743 22.9094ZM16.6786 11.7712H5.09909C4.41324 10.9196 3.82142 9.99631 3.33392 9.01753H18.3379C17.8838 9.99156 17.3276 10.9146 16.6786 11.7712ZM15.0635 13.5364C13.8142 14.6991 12.4092 15.6823 10.8888 16.4577C9.36957 15.6878 7.9646 14.7105 6.71422 13.554L15.0635 13.5364ZM7.12021 21.1442C8.25272 20.0804 9.51971 19.1695 10.8888 18.4347C12.2721 19.1683 13.5539 20.0792 14.7016 21.1442H7.12021ZM19.8029 4.50752C19.6594 5.44103 19.4319 6.3597 19.1234 7.25236H2.65433C2.34575 6.3597 2.1183 5.44103 1.97474 4.50752H19.8029ZM2.36308 30.1731C2.51413 29.2402 2.74444 28.322 3.05149 27.4282H18.7615C19.0649 28.3224 19.2922 29.2406 19.4411 30.1731H2.36308Z" fill="#050505"/>
</svg>
