<svg width="39" height="39" viewBox="0 0 39 39" fill="none" xmlns="http://www.w3.org/2000/svg">
<path fill-rule="evenodd" clip-rule="evenodd" d="M36.2578 36.0293H2.74219C1.21875 36.0293 0 34.8105 0 33.2871V5.71289C0 4.18945 1.29492 2.9707 2.81836 2.9707H13.5586C13.7109 2.9707 13.7871 3.04688 13.8633 3.12305L18.1289 9.67383H38.6191C38.8477 9.67383 39 9.82617 39 10.0547V33.2871C39 34.8105 37.7812 36.0293 36.2578 36.0293ZM2.81836 3.73242C1.67578 3.73242 0.761719 4.64648 0.761719 5.71289V33.2871C0.761719 34.3535 1.67578 35.2676 2.74219 35.2676H36.2578C37.3242 35.2676 38.2383 34.3535 38.2383 33.2871V10.4355H17.9004C17.748 10.4355 17.6719 10.3594 17.5957 10.2832L13.3301 3.73242H2.81836Z" fill="#020202"/>
<path fill-rule="evenodd" clip-rule="evenodd" d="M17.9004 10.4355H0.380859C0.152344 10.4355 0 10.2832 0 10.0547C0 9.82617 0.152344 9.67383 0.380859 9.67383H17.9004C18.1289 9.67383 18.2812 9.82617 18.2812 10.0547C18.2812 10.2832 18.1289 10.4355 17.9004 10.4355Z" fill="#020202"/>
<path fill-rule="evenodd" clip-rule="evenodd" d="M38.6191 10.4355C38.3906 10.4355 38.2383 10.2832 38.2383 10.0547V6.62695C38.2383 5.63672 37.3242 4.72266 36.334 4.72266H14.2441C14.0156 4.72266 13.8633 4.57031 13.8633 4.3418C13.8633 4.11328 14.0156 3.96094 14.2441 3.96094H36.334C37.7812 3.96094 39 5.17969 39 6.62695V10.0547C39 10.2832 38.8477 10.4355 38.6191 10.4355Z" fill="#020202"/>
<path fill-rule="evenodd" clip-rule="evenodd" d="M34.3535 8.37891H21.5566C20.9473 8.37891 20.4141 7.8457 20.4141 7.23633C20.4141 6.62695 20.9473 6.01758 21.5566 6.01758H34.3535C34.9629 6.01758 35.4961 6.62695 35.4961 7.23633C35.4961 7.8457 34.9629 8.37891 34.3535 8.37891ZM21.5566 6.7793C21.4043 6.7793 21.1758 7.00781 21.1758 7.23633C21.1758 7.38867 21.4043 7.61719 21.5566 7.61719H34.3535C34.5059 7.61719 34.7344 7.38867 34.7344 7.23633C34.7344 7.00781 34.5059 6.7793 34.3535 6.7793H21.5566Z" fill="#020202"/>
<path fill-rule="evenodd" clip-rule="evenodd" d="M3.19922 8.07422H2.81836C2.05664 8.07422 1.44727 7.46484 1.44727 6.70312C1.44727 5.94141 2.05664 5.25586 2.81836 5.25586H3.19922C4.03711 5.25586 4.64648 5.86523 4.64648 6.70312C4.64648 7.46484 4.03711 8.07422 3.19922 8.07422ZM2.81836 6.01758C2.51367 6.01758 2.20898 6.32227 2.20898 6.70312C2.20898 7.00781 2.51367 7.3125 2.81836 7.3125H3.19922C3.58008 7.3125 3.88477 7.00781 3.88477 6.70312C3.88477 6.32227 3.58008 6.01758 3.19922 6.01758H2.81836Z" fill="#020202"/>
<path fill-rule="evenodd" clip-rule="evenodd" d="M7.69336 8.07422H7.3125C6.55078 8.07422 5.86523 7.46484 5.86523 6.70312C5.86523 5.86523 6.47461 5.25586 7.3125 5.25586H7.69336C8.45508 5.25586 9.06445 5.94141 9.06445 6.70312C9.06445 7.46484 8.45508 8.07422 7.69336 8.07422ZM7.3125 6.01758C6.93164 6.01758 6.62695 6.32227 6.62695 6.70312C6.62695 7.00781 6.93164 7.3125 7.3125 7.3125H7.69336C7.99805 7.3125 8.30273 7.00781 8.30273 6.70312C8.30273 6.32227 7.99805 6.01758 7.69336 6.01758H7.3125Z" fill="#020202"/>
<path fill-rule="evenodd" clip-rule="evenodd" d="M12.1113 8.07422H11.7305C10.9688 8.07422 10.3594 7.46484 10.3594 6.70312C10.3594 5.94141 10.9688 5.25586 11.7305 5.25586H12.1113C12.9492 5.25586 13.5586 5.86523 13.5586 6.70312C13.5586 7.46484 12.9492 8.07422 12.1113 8.07422ZM11.7305 6.01758C11.4258 6.01758 11.1211 6.32227 11.1211 6.70312C11.1211 7.00781 11.4258 7.3125 11.7305 7.3125H12.1113C12.4922 7.3125 12.7969 7.00781 12.7969 6.70312C12.7969 6.32227 12.4922 6.01758 12.1113 6.01758H11.7305Z" fill="#020202"/>
<path fill-rule="evenodd" clip-rule="evenodd" d="M20.8711 33.668H18.1289C17.6719 33.668 17.291 33.3633 17.1387 32.8301L16.834 30.8496C16.4531 30.6973 16.0723 30.6211 15.6914 30.3926L14.0918 31.5352C13.6348 31.8398 13.1777 31.8398 12.7969 31.5352L10.8164 29.5547C10.5117 29.1738 10.5117 28.7168 10.8164 28.2598L11.959 26.6602C11.7305 26.2793 11.6543 25.8984 11.502 25.5176L9.52148 25.1367C9.06445 25.1367 8.68359 24.7559 8.68359 24.2227V21.4805C8.68359 21.0234 8.98828 20.6426 9.52148 20.4902L11.502 20.1855C11.6543 19.8047 11.7305 19.4238 11.959 19.043L10.8164 17.4434C10.5117 16.9863 10.5117 16.5293 10.8164 16.1484L12.7969 14.2441C13.1777 13.8633 13.6348 13.8633 14.0918 14.168L15.6914 15.2344C16.0723 15.082 16.4531 15.0059 16.7578 14.8535H16.834L17.1387 12.873C17.291 12.3398 17.6719 12.0352 18.1289 12.0352H20.8711C21.3281 12.0352 21.709 12.3398 21.8613 12.873L22.2422 14.8535C22.623 15.0059 22.9277 15.082 23.3086 15.2344L24.9844 14.168C25.3652 13.8633 25.8984 13.8633 26.2031 14.2441L28.1836 16.2246C28.4883 16.5293 28.4883 16.9863 28.1836 17.4434L27.041 19.043C27.2695 19.4238 27.4219 19.8047 27.498 20.1855L29.4785 20.4902C30.0117 20.6426 30.3164 21.0234 30.3164 21.4043V24.2227C30.3164 24.7559 29.9355 25.1367 29.4785 25.1367L27.498 25.5176C27.3457 25.8984 27.2695 26.2793 27.041 26.6602L28.1836 28.2598C28.4883 28.7168 28.4883 29.1738 28.1836 29.5547L26.2031 31.5352C25.8223 31.8398 25.3652 31.8398 24.9082 31.5352L23.3086 30.3926C22.9277 30.6211 22.5469 30.6973 22.166 30.8496L21.8613 32.8301C21.709 33.3633 21.3281 33.668 20.8711 33.668ZM17.9004 32.6777C17.9004 32.7539 17.9766 32.9062 18.1289 32.9062H20.8711C21.0234 32.9062 21.0996 32.7539 21.0996 32.6777L21.4805 30.4688C21.4805 30.3164 21.6328 30.2402 21.709 30.1641C21.7852 30.1641 21.8613 30.1641 21.9375 30.0879C22.3184 30.0117 22.6992 29.8594 23.0801 29.6309C23.2324 29.5547 23.3848 29.5547 23.5371 29.6309L25.3652 30.9258C25.4414 30.9258 25.5176 31.002 25.5938 30.9258L27.5742 28.9453C27.6504 28.8691 27.5742 28.793 27.5742 28.7168L26.2793 26.8887C26.2031 26.8125 26.2031 26.8125 26.2031 26.8125C26.2031 26.7363 26.2031 26.7363 26.2031 26.6602C26.2031 26.584 26.2031 26.584 26.2031 26.5078C26.2031 26.4316 26.2031 26.5078 26.2031 26.4316H26.2793C26.5078 26.0508 26.6602 25.6699 26.7363 25.2891C26.8125 25.2129 26.8125 25.1367 26.8125 25.0605C26.8887 24.9844 26.9648 24.832 27.1172 24.832L29.3262 24.375H29.4023C29.4785 24.375 29.5547 24.2988 29.5547 24.2227V21.4043C29.5547 21.4043 29.4785 21.252 29.3262 21.252L27.1172 20.8711C26.9648 20.8711 26.8887 20.7188 26.8125 20.5664C26.6602 20.1094 26.5078 19.6523 26.2793 19.2715C26.2793 19.2715 26.2793 19.2715 26.2031 19.1953C26.127 19.1191 26.2031 19.1953 26.2031 19.1191V19.043C26.2031 18.9668 26.2031 18.9668 26.2031 18.8906C26.2031 18.8145 26.2031 18.8906 26.2793 18.8145L27.5742 16.9863C27.5742 16.9102 27.6504 16.7578 27.5742 16.7578L25.5938 14.7773C25.5176 14.7012 25.4414 14.7773 25.3652 14.7773L23.5371 15.9961C23.3848 16.0723 23.2324 16.0723 23.1562 15.9961C22.7754 15.8438 22.3945 15.7676 22.0137 15.6152C21.9375 15.6152 21.7852 15.5391 21.709 15.5391C21.6328 15.4629 21.4805 15.3867 21.4805 15.2344L21.0996 13.0254C21.0996 12.9492 21.0234 12.7969 20.8711 12.7969H18.1289C17.9766 12.7969 17.9004 12.9492 17.9004 13.0254L17.5195 15.2344C17.5195 15.3867 17.3672 15.4629 17.291 15.5391C17.1387 15.5391 17.0625 15.6152 16.9863 15.6152C16.6055 15.7676 16.2246 15.8438 15.8438 15.9961C15.6914 16.0723 15.6152 16.0723 15.4629 15.9961L13.6348 14.7773C13.5586 14.7773 13.4062 14.7012 13.3301 14.7773L11.3496 16.7578C11.3496 16.7578 11.3496 16.9102 11.4258 16.9863L12.7207 18.8145C12.7207 18.8906 12.7969 18.8906 12.7969 18.8906V19.043V19.1191C12.7969 19.1953 12.7207 19.1953 12.7207 19.1953V19.2715C12.416 19.6523 12.3398 20.1094 12.1875 20.5664C12.1113 20.7188 12.0352 20.8711 11.8828 20.8711L9.67383 21.252C9.59766 21.252 9.44531 21.3281 9.44531 21.4805V24.2227C9.44531 24.2988 9.52148 24.375 9.59766 24.375H9.67383L11.8828 24.832C12.0352 24.9082 12.1113 24.9844 12.1875 25.0605V25.2891C12.3398 25.6699 12.4922 26.127 12.7207 26.4316V26.5078C12.7207 26.5078 12.7207 26.5078 12.7969 26.584V26.6602C12.7969 26.7363 12.7969 26.7363 12.7207 26.8125V26.8887L11.4258 28.7168C11.3496 28.793 11.2734 28.9453 11.3496 28.9453L13.3301 30.9258C13.4062 31.002 13.5586 31.002 13.6348 30.9258L15.4629 29.6309C15.5391 29.5547 15.7676 29.5547 15.8438 29.6309C16.2246 29.8594 16.6816 30.0117 17.0625 30.0879C17.1387 30.1641 17.1387 30.1641 17.2148 30.1641C17.3672 30.2402 17.4434 30.3164 17.5195 30.4688L17.9004 32.6777Z" fill="#020202"/>
<path fill-rule="evenodd" clip-rule="evenodd" d="M19.5 28.7168C17.9004 28.7168 16.4531 28.1074 15.3867 26.9648C14.2441 25.8984 13.6348 24.4512 13.6348 22.8516C13.6348 21.252 14.2441 19.8047 15.3867 18.7383C16.4531 17.5957 17.9004 16.9863 19.5 16.9863C21.0996 16.9863 22.5469 17.5957 23.6133 18.7383C24.7559 19.8047 25.3652 21.252 25.3652 22.8516C25.3652 24.4512 24.7559 25.8984 23.6133 26.9648C22.5469 28.1074 21.0996 28.7168 19.5 28.7168ZM19.5 17.748C16.6816 17.748 14.3965 20.0332 14.3965 22.8516C14.3965 25.6699 16.6816 27.9551 19.5 27.9551C22.3184 27.9551 24.6035 25.6699 24.6035 22.8516C24.6035 20.0332 22.3184 17.748 19.5 17.748Z" fill="#020202"/>
<path fill-rule="evenodd" clip-rule="evenodd" d="M21.5566 28.3359C21.3281 28.3359 21.1758 28.1836 21.1758 27.9551V22.9277C21.1758 22.6992 21.3281 22.5469 21.5566 22.5469C21.7852 22.5469 21.9375 22.6992 21.9375 22.9277V27.9551C21.9375 28.1836 21.7852 28.3359 21.5566 28.3359ZM17.4434 28.3359C17.2148 28.3359 17.0625 28.1836 17.0625 27.9551V22.9277C17.0625 22.6992 17.2148 22.5469 17.4434 22.5469C17.6719 22.5469 17.8242 22.6992 17.8242 22.9277V27.9551C17.8242 28.1836 17.6719 28.3359 17.4434 28.3359Z" fill="#020202"/>
<path fill-rule="evenodd" clip-rule="evenodd" d="M21.5571 23.3086H17.4438C17.2915 23.3086 17.2153 23.2324 17.1392 23.1562C17.063 23.0039 17.063 22.8516 17.1392 22.7754L19.1958 18.8906C19.272 18.7383 19.3481 18.6621 19.5005 18.6621C19.6528 18.6621 19.8052 18.7383 19.8052 18.8906L21.8618 22.7754C21.938 22.8516 21.938 23.0039 21.8618 23.1562C21.7856 23.2324 21.7095 23.3086 21.5571 23.3086ZM18.0532 22.5469H20.9478L19.5005 19.8809L18.0532 22.5469Z" fill="#020202"/>
<path fill-rule="evenodd" clip-rule="evenodd" d="M18.3574 21.5569C18.2051 21.5569 18.0527 21.4808 17.9766 21.2522C17.9766 21.0999 18.0527 20.8714 18.2812 20.7952L20.2617 20.262C20.4141 20.1858 20.6426 20.3382 20.7188 20.5667C20.7949 20.719 20.6426 20.9475 20.4141 21.0237L18.4336 21.5569H18.3574Z" fill="#020202"/>
<path fill-rule="evenodd" clip-rule="evenodd" d="M20.1855 28.6406C19.957 28.6406 19.8047 28.4883 19.8047 28.2598V22.9277C19.8047 22.6992 19.957 22.5469 20.1855 22.5469C20.4141 22.5469 20.5664 22.6992 20.5664 22.9277V28.2598C20.5664 28.4883 20.4141 28.6406 20.1855 28.6406ZM18.8145 28.6406C18.5859 28.6406 18.4336 28.4883 18.4336 28.2598V22.9277C18.4336 22.6992 18.5859 22.5469 18.8145 22.5469C19.043 22.5469 19.1953 22.6992 19.1953 22.9277V28.2598C19.1953 28.4883 19.043 28.6406 18.8145 28.6406Z" fill="#020202"/>
</svg>
