<svg width="28" height="28" viewBox="0 0 28 28" fill="none" xmlns="http://www.w3.org/2000/svg">
<g clip-path="url(#clip0_1160_1559)">
<path d="M26.1403 17.0952C25.8974 16.6896 24.9009 15.4846 22.2804 17.0109L17.6934 19.6825C17.4834 19.8048 17.27 19.894 17.0484 19.951C17.1257 19.8166 17.1871 19.6672 17.2309 19.5038C17.4688 18.6162 16.9416 17.6896 16.0308 17.3944C16.0123 17.3884 15.9935 17.3837 15.9744 17.3802C14.6579 17.1428 13.3578 16.6727 12.3131 16.295C11.9497 16.1636 11.6066 16.0396 11.3146 15.9449C10.1304 15.5607 9.06322 16.0349 8.17531 16.5493L4.78452 18.5138L4.5498 18.0991C4.24926 17.5681 3.5728 17.3805 3.0418 17.6812L1.75478 18.4095C1.49823 18.5547 1.31336 18.7918 1.23424 19.0772C1.15518 19.3626 1.19156 19.661 1.33676 19.9176L5.12052 26.6032C5.26572 26.8598 5.50286 27.0446 5.7882 27.1237C5.88688 27.1511 5.98708 27.1646 6.08668 27.1646C6.27494 27.1646 6.46073 27.1162 6.62862 27.0212L7.91564 26.2927C8.17219 26.1475 8.35705 25.9104 8.43612 25.6251C8.51519 25.3397 8.47881 25.0413 8.33361 24.7848L7.87963 23.9826L8.62816 23.5505L14.4935 25.1221C14.8197 25.2096 15.1444 25.2531 15.4636 25.2531C16.1093 25.2531 16.7329 25.0753 17.303 24.7243L25.6273 19.5985C26.3968 19.1248 26.6413 17.9316 26.1403 17.0952ZM7.60508 25.3948C7.58751 25.4582 7.54692 25.5105 7.49082 25.5423L6.2038 26.2708C6.14769 26.3024 6.08188 26.3104 6.0185 26.2927C5.95512 26.2752 5.90278 26.2346 5.87098 26.1785L2.08728 19.4929C2.05553 19.4368 2.04772 19.371 2.06523 19.3076C2.08275 19.2442 2.12339 19.1919 2.1795 19.1601L3.46651 18.4317C3.50338 18.4108 3.54402 18.401 3.58439 18.401C3.67024 18.401 3.75497 18.4456 3.79927 18.5239L7.58303 25.2096C7.61478 25.2657 7.62259 25.3315 7.60508 25.3948ZM25.1751 18.8642L16.8509 23.99C16.1967 24.3929 15.4787 24.4935 14.7167 24.2892L8.67882 22.6714C8.56833 22.6417 8.45067 22.6572 8.35161 22.7145L7.45487 23.2322L5.20928 19.2645L8.60762 17.2955C9.36742 16.8553 10.1889 16.4865 11.0485 16.7652C11.327 16.8555 11.6481 16.9716 12.0199 17.106C13.087 17.4918 14.413 17.9713 15.7899 18.2233C16.2562 18.387 16.5167 18.8371 16.3979 19.2807C16.2535 19.8198 15.8266 19.923 15.4558 19.9007C14.7061 19.7546 14.0315 19.5633 13.3245 19.3628C13.0198 19.2763 12.7047 19.187 12.3732 19.0981C12.1432 19.0366 11.9068 19.1731 11.8451 19.403C11.7835 19.6331 11.92 19.8695 12.15 19.9311C12.4755 20.0183 12.7875 20.1068 13.0892 20.1924C13.763 20.3835 14.4081 20.5665 15.1225 20.7136C15.16 20.73 15.2006 20.7415 15.2434 20.7467C15.2761 20.7507 15.3085 20.7541 15.3408 20.7568C15.4895 20.7853 15.6414 20.8121 15.7975 20.8371C16.6564 20.9747 17.4185 20.8405 18.1275 20.4277L22.7145 17.756C24.022 16.9945 25.0261 16.9131 25.4005 17.5383C25.6579 17.9679 25.5441 18.6371 25.1751 18.8642ZM3.75244 19.5683C3.78914 19.8194 3.61532 20.0527 3.36421 20.0894C3.11311 20.1261 2.87978 19.9524 2.84308 19.7013C2.80638 19.4501 2.98014 19.2168 3.23125 19.1801C3.48241 19.1434 3.71573 19.3172 3.75244 19.5683ZM13.4621 2.30522C13.4621 2.54334 13.269 2.7364 13.0309 2.7364C11.9587 2.7364 11.0866 3.60862 11.0866 4.68069C11.0866 4.91881 10.8935 5.11187 10.6554 5.11187C10.4173 5.11187 10.2242 4.91881 10.2242 4.68069C10.2242 3.13308 11.4833 1.87404 13.0309 1.87404C13.269 1.87404 13.4621 2.0671 13.4621 2.30522ZM8.0825 12.5024C8.57766 12.5024 9.00215 12.1943 9.17436 11.7597H11.3671C11.6052 11.7597 11.7983 11.5666 11.7983 11.3285V9.93386H12.6951V13.2295H11.4685C11.2963 12.7949 10.8718 12.4868 10.3766 12.4868C9.72934 12.4868 9.20271 13.0134 9.20271 13.6606C9.20271 14.3079 9.72934 14.8345 10.3766 14.8345C10.8718 14.8345 11.2963 14.5264 11.4685 14.0918H13.1263C13.3644 14.0918 13.5575 13.8988 13.5575 13.6606V9.93386H14.4543V13.8505C14.0197 14.0227 13.7115 14.4472 13.7115 14.9424C13.7115 15.5897 14.2381 16.1163 14.8854 16.1163C15.5327 16.1163 16.0593 15.5897 16.0593 14.9424C16.0593 14.4472 15.7512 14.0227 15.3166 13.8505V9.93386H16.2134V13.6606C16.2134 13.8988 16.4065 14.0918 16.6446 14.0918H18.3024C18.4746 14.5264 18.8991 14.8345 19.3943 14.8345C20.0416 14.8345 20.5682 14.3079 20.5682 13.6606C20.5682 13.0134 20.0415 12.4868 19.3943 12.4868C18.8991 12.4868 18.4746 12.7949 18.3024 13.2295H17.0758V9.93386H17.9726V11.3285C17.9726 11.5666 18.1656 11.7597 18.4037 11.7597H20.4628C20.635 12.1943 21.0596 12.5024 21.5548 12.5024C22.2021 12.5024 22.7286 11.9758 22.7286 11.3285C22.7286 10.6813 22.202 10.1546 21.5548 10.1546C21.0596 10.1546 20.6351 10.4628 20.4628 10.8973H18.8349V9.93386H19.6529C21.208 9.93386 22.4732 8.66862 22.4732 7.11351C22.4732 5.94168 21.7425 4.89747 20.6644 4.48165C20.3321 2.65135 18.7389 1.30391 16.8491 1.30391C16.4887 1.30391 16.1341 1.35296 15.7914 1.44998C15.022 0.791079 14.0516 0.431152 13.0309 0.431152C10.7041 0.431152 8.80812 2.31077 8.78166 4.63138C7.87112 5.12147 7.29765 6.06591 7.29765 7.11351C7.29765 8.66867 8.56283 9.93386 10.118 9.93386H10.9359V10.8973H9.17436C9.00215 10.4628 8.57766 10.1546 8.0825 10.1546C7.43519 10.1546 6.90856 10.6813 6.90856 11.3285C6.90856 11.9758 7.43519 12.5024 8.0825 12.5024ZM10.3766 13.9722C10.2048 13.9722 10.065 13.8324 10.065 13.6606C10.065 13.4889 10.2048 13.3491 10.3766 13.3491C10.5484 13.3491 10.6881 13.4889 10.6881 13.6606C10.6881 13.8324 10.5484 13.9722 10.3766 13.9722ZM14.8854 15.254C14.7136 15.254 14.5738 15.1142 14.5738 14.9424C14.5738 14.7706 14.7136 14.6309 14.8854 14.6309C15.0572 14.6309 15.1969 14.7706 15.1969 14.9424C15.1969 15.1142 15.0572 15.254 14.8854 15.254ZM19.3942 13.3491C19.566 13.3491 19.7057 13.4889 19.7057 13.6606C19.7057 13.8324 19.566 13.9722 19.3942 13.9722C19.2224 13.9722 19.0826 13.8324 19.0826 13.6606C19.0826 13.4889 19.2224 13.3491 19.3942 13.3491ZM21.5546 11.0169C21.7265 11.0169 21.8662 11.1567 21.8662 11.3285C21.8662 11.5002 21.7264 11.64 21.5546 11.64C21.3829 11.64 21.2431 11.5002 21.2431 11.3285C21.2431 11.1567 21.3829 11.0169 21.5546 11.0169ZM8.16001 7.11346C8.16001 6.31594 8.6398 5.60412 9.3824 5.30003C9.55266 5.23029 9.65992 5.06018 9.64946 4.8765C9.64563 4.80924 9.64369 4.74338 9.64369 4.68064C9.64369 2.81299 11.1632 1.29351 13.0309 1.29351C13.9144 1.29351 14.7507 1.63188 15.3857 2.24626C15.5037 2.36046 15.6764 2.39781 15.8311 2.34225C16.1568 2.22545 16.4993 2.16622 16.8491 2.16622C18.3926 2.16622 19.6816 3.32167 19.8474 4.85381C19.8665 5.03022 19.9917 5.17693 20.163 5.22349C21.0155 5.45536 21.6109 6.23256 21.6109 7.11341C21.6109 8.19303 20.7325 9.07139 19.6529 9.07139H10.118C9.03832 9.0715 8.16001 8.19313 8.16001 7.11346ZM8.0825 11.0169C8.25427 11.0169 8.39403 11.1567 8.39403 11.3285C8.39403 11.5002 8.25427 11.64 8.0825 11.64C7.91068 11.64 7.77092 11.5002 7.77092 11.3285C7.77092 11.1567 7.91068 11.0169 8.0825 11.0169Z" fill="black"/>
</g>
<defs>
<clipPath id="clip0_1160_1559">
<rect width="27.5955" height="27.5955" fill="white"/>
</clipPath>
</defs>
</svg>
