<svg width="41" height="41" viewBox="0 0 41 41" fill="none" xmlns="http://www.w3.org/2000/svg">
<path d="M10.3503 15.6973H10.9889C11.215 16.2414 11.6768 17.2063 12.4058 18.1254C11.997 18.5995 10.8671 18.7895 11.2364 19.6061C11.3979 19.9237 11.7897 20.0444 12.0982 19.8851C12.5363 19.6615 12.9288 19.3764 13.2828 19.061C13.7123 19.4018 14.1874 19.8656 14.758 19.9552C15.4116 19.9687 15.6477 19.0369 15.0498 18.744C14.7253 18.5783 14.4308 18.3638 14.1598 18.1254C14.8888 17.2063 15.3506 16.2414 15.5768 15.6973H16.1087C16.9487 15.6845 16.9521 14.4297 16.1087 14.416H13.8699V13.6953C13.8699 13.3412 13.5831 13.0547 13.2293 13.0547C12.8755 13.0547 12.5887 13.3412 12.5887 13.6953V14.416H10.3503C9.50961 14.4304 9.50689 15.6827 10.3503 15.6973ZM13.2828 17.165C12.8966 16.6476 12.6023 16.1202 12.3969 15.6973H14.1688C13.9633 16.1202 13.669 16.6476 13.2828 17.165Z" fill="#00A1A5"/>
<path d="M7.23102 23.6814C7.14555 24.154 7.66631 24.5676 8.10658 24.3702C8.10656 24.3702 11.0232 23.1791 11.0232 23.1791C14.9927 24.6635 19.4065 21.5439 19.5493 17.3547C20.8275 17.7378 22.2055 17.7148 23.4762 17.2639L26.3891 18.4557C26.8261 18.6516 27.3536 18.2415 27.2649 17.7669C27.265 17.7669 26.7904 14.6182 26.7904 14.6182C30.6823 8.3802 23.456 1.13167 17.4315 5.74023C15.9741 6.91991 15.0928 8.65809 14.9574 10.5211C12.446 9.69115 9.54417 10.6192 7.96677 12.7733C6.27885 15.0111 6.18376 18.1642 7.70619 20.5309L7.23102 23.6814ZM18.2371 6.73679C23.1885 2.95041 28.9884 9.13947 25.5951 14.0996C25.5007 14.2341 25.4616 14.4005 25.4863 14.5632L25.8298 16.8423L23.7281 15.9827C23.5742 15.9195 23.4012 15.9195 23.246 15.9814C22.0377 16.4687 20.6883 16.4605 19.4904 15.9794C19.2585 14.3292 18.4366 12.7604 17.0628 11.6516C16.7959 11.4363 16.5132 11.2516 16.2234 11.0837C16.2041 9.39634 16.9359 7.79009 18.2371 6.73679ZM8.98961 13.5441C13.556 8.0493 21.1739 14.6187 17.196 20.2225C15.7881 22.088 13.4002 22.7618 11.2537 21.8966C11.0989 21.8347 10.9262 21.8347 10.772 21.8978L8.66617 22.758L9.01026 20.4764C9.03466 20.3138 8.99587 20.148 8.90171 20.0135C7.54351 18.0741 7.57979 15.414 8.98961 13.5441Z" fill="#00A1A5"/>
<path d="M18.9881 13.4602C19.3191 13.5904 19.6895 13.4258 19.8177 13.0961L20.2272 12.0457H22.5826L22.9921 13.0961C23.3132 13.8768 24.4789 13.4182 24.1857 12.6307C24.1857 12.6307 22.0017 7.02772 22.0017 7.02772C21.8139 6.49443 20.9958 6.49229 20.808 7.02775C20.808 7.02772 18.624 12.6307 18.624 12.6307C18.4955 12.9604 18.6584 13.332 18.9881 13.4602ZM21.4049 9.02467L22.0831 10.7645H20.7266L21.4049 9.02467Z" fill="#00A1A5"/>
<path d="M37.7978 30.8205H31.439C31.3368 30.8205 31.236 30.8449 31.145 30.8918L23.1413 35.0265C22.4493 35.283 21.7249 35.4125 20.9867 35.4125H11.7267C10.341 35.4125 8.97776 34.9402 7.88795 34.0824L4.39048 31.3316C3.01142 30.2277 4.49294 28.0574 6.02024 28.9919C6.02019 28.9919 10.8258 32.0042 10.8258 32.0042C10.9278 32.068 11.0457 32.1018 11.1662 32.1018C12.9378 32.1017 18.822 32.1018 20.6908 32.1018C20.933 32.1023 21.2546 32.1308 21.4393 31.9366C21.4393 31.9366 23.5679 30.0141 23.5679 30.0141C24.1847 29.4504 23.336 28.5045 22.7089 29.0632C22.709 29.0632 20.7633 30.8205 20.7633 30.8205H13.8797C13.0302 30.8205 12.3389 30.1255 12.3389 29.2715C12.3389 28.4175 13.0302 27.7225 13.8797 27.7225H19.5199C19.6929 27.7225 19.8587 27.6524 19.9791 27.5285L21.5178 25.9464C23.1594 24.2585 25.4485 23.29 27.7983 23.29H37.7978C38.6231 23.2848 38.6521 22.0212 37.7977 22.0088C37.7978 22.0088 27.7983 22.0088 27.7983 22.0088C25.1044 22.0088 22.4806 23.1186 20.5994 25.053L19.2494 26.4412H13.8797C11.6896 26.376 10.2761 29.0423 11.5227 30.8206C11.5226 30.8205 6.70055 27.9058 6.70055 27.9058C5.561 27.192 4.09708 27.4141 3.21966 28.4351C2.21529 29.5518 2.39636 31.437 3.5985 32.3389C3.59847 32.3389 7.09563 35.0897 7.09563 35.0897C8.41035 36.1238 10.0551 36.6937 11.7267 36.6937H20.9867C21.9148 36.6907 22.8332 36.5285 23.6953 36.1826C23.6953 36.1826 31.5948 32.1018 31.5948 32.1018H37.7978C38.6252 32.091 38.6518 30.8362 37.7978 30.8205Z" fill="#00A1A5"/>
</svg>
