<svg width="34" height="34" viewBox="0 0 34 34" fill="none" xmlns="http://www.w3.org/2000/svg">
<path d="M12.1077 3.80344H7.89881C7.22331 3.80344 6.59977 3.38774 6.33996 2.7642L5.50857 0.737697C5.40465 0.477889 5.50857 0.166118 5.76838 0.062195C6.02819 -0.0417284 6.33996 0.062195 6.44388 0.322003L7.27527 2.34851C7.37919 2.60832 7.58704 2.7642 7.89881 2.7642H12.1077C12.3675 2.7642 12.6273 2.60832 12.7313 2.34851L13.5626 0.322003C13.6666 0.062195 13.9783 -0.0936901 14.2381 0.062195C14.4979 0.166118 14.6019 0.477889 14.4979 0.737697L13.6666 2.7642C13.4068 3.38774 12.7832 3.80344 12.1077 3.80344Z" fill="#050505"/>
<path d="M17.4072 33.2657H2.59809C1.14316 33.2657 0 32.1226 0 30.6677V2.60834C0 1.15341 1.14316 0.0102539 2.59809 0.0102539H17.4072C18.8621 0.0102539 20.0053 1.15341 20.0053 2.60834V18.4567C20.0053 18.7684 19.7974 18.9763 19.4856 18.9763C19.1739 18.9763 18.966 18.7684 18.966 18.4567V2.60834C18.966 1.72499 18.2905 1.04949 17.4072 1.04949H2.59809C1.71474 1.04949 1.03923 1.72499 1.03923 2.60834V30.6677C1.03923 31.551 1.71474 32.2265 2.59809 32.2265H17.4072C18.2905 32.2265 18.966 31.551 18.966 30.6677V28.3294C18.966 28.0176 19.1739 27.8098 19.4856 27.8098C19.7974 27.8098 20.0053 28.0176 20.0053 28.3294V30.6677C20.0053 32.1226 18.8101 33.2657 17.4072 33.2657Z" fill="#050505"/>
<path d="M11.1704 30.7197H8.83212C8.52035 30.7197 8.3125 30.5118 8.3125 30.2C8.3125 29.8883 8.52035 29.6804 8.83212 29.6804H11.1704C11.4822 29.6804 11.69 29.8883 11.69 30.2C11.69 30.5118 11.4302 30.7197 11.1704 30.7197Z" fill="#050505"/>
<path d="M31.3343 25.9911H30.0352C29.7235 25.9911 29.5156 25.7832 29.5156 25.4715C29.5156 25.1597 29.7235 24.9519 30.0352 24.9519H31.3343C31.698 24.9519 32.0098 24.6401 32.0098 24.2764V22.1979C32.0098 21.8342 31.698 21.5224 31.3343 21.5224H30.0352C29.7235 21.5224 29.5156 21.3145 29.5156 21.0028C29.5156 20.691 29.7235 20.4832 30.0352 20.4832H31.3343C32.2696 20.4832 33.049 21.2626 33.049 22.1979V24.2764C33.049 25.2117 32.2696 25.9911 31.3343 25.9911Z" fill="#050505"/>
<path d="M17.6153 25.9911H16.3163C15.381 25.9911 14.6016 25.2117 14.6016 24.2764V22.1979C14.6016 21.2626 15.381 20.4832 16.3163 20.4832H17.6153C17.9271 20.4832 18.135 20.691 18.135 21.0028C18.135 21.3145 17.9271 21.5224 17.6153 21.5224H16.3163C15.9526 21.5224 15.6408 21.8342 15.6408 22.1979V24.2764C15.6408 24.6401 15.9526 24.9519 16.3163 24.9519H17.6153C17.9271 24.9519 18.135 25.1597 18.135 25.4715C18.135 25.7832 17.9271 25.9911 17.6153 25.9911Z" fill="#050505"/>
<path d="M28.3714 28.849H19.2781C18.083 28.849 17.0957 27.8617 17.0957 26.6666V22.6136C17.0957 19.5998 19.5379 17.1576 22.5517 17.1576H25.1498C28.1116 17.1576 30.5538 19.5998 30.5538 22.6136V26.6666C30.5538 27.8617 29.5665 28.849 28.3714 28.849ZM22.5517 18.1968C20.1095 18.1968 18.1349 20.1714 18.1349 22.6136V26.6666C18.1349 27.2901 18.6546 27.8097 19.2781 27.8097H28.3714C28.9949 27.8097 29.5145 27.2901 29.5145 26.6666V22.6136C29.5145 20.1714 27.54 18.1968 25.0978 18.1968H22.5517Z" fill="#050505"/>
<path d="M23.8516 17.9371C23.5399 17.9371 23.332 17.7292 23.332 17.4175V15.391C23.332 15.0792 23.5399 14.8713 23.8516 14.8713C24.1634 14.8713 24.3713 15.0792 24.3713 15.391V17.4175C24.3713 17.7292 24.1115 17.9371 23.8516 17.9371Z" fill="#050505"/>
<path d="M23.8512 15.7027C22.5002 15.7027 21.4609 14.6115 21.4609 13.3125C21.4609 12.0134 22.5521 10.9222 23.8512 10.9222C25.1502 10.9222 26.2414 12.0134 26.2414 13.3125C26.2414 14.6115 25.1502 15.7027 23.8512 15.7027ZM23.8512 11.9095C23.0717 11.9095 22.5002 12.5331 22.5002 13.2605C22.5002 13.988 23.1237 14.6115 23.8512 14.6115C24.5786 14.6115 25.2022 13.988 25.2022 13.2605C25.2022 12.5331 24.5786 11.9095 23.8512 11.9095Z" fill="#050505"/>
<path d="M26.5523 25.3675C25.3572 25.3675 24.4219 24.4322 24.4219 23.2371C24.4219 22.042 25.3572 21.1067 26.5523 21.1067C27.7474 21.1067 28.6827 22.042 28.6827 23.2371C28.6827 24.4322 27.6955 25.3675 26.5523 25.3675ZM26.5523 22.094C25.9288 22.094 25.4611 22.5616 25.4611 23.1852C25.4611 23.8087 25.9288 24.2764 26.5523 24.2764C27.1758 24.2764 27.6435 23.8087 27.6435 23.1852C27.6435 22.5616 27.1239 22.094 26.5523 22.094Z" fill="#050505"/>
<path d="M21.0972 25.3675C19.9021 25.3675 18.9668 24.4322 18.9668 23.2371C18.9668 22.042 19.9021 21.1067 21.0972 21.1067C22.2923 21.1067 23.2277 22.042 23.2277 23.2371C23.2277 24.4322 22.2923 25.3675 21.0972 25.3675ZM21.0972 22.094C20.4737 22.094 20.006 22.5616 20.006 23.1852C20.006 23.8087 20.4737 24.2764 21.0972 24.2764C21.7208 24.2764 22.1884 23.8087 22.1884 23.1852C22.1884 22.5616 21.7208 22.094 21.0972 22.094Z" fill="#050505"/>
<path d="M9.97617 18.1968C9.87225 18.1968 9.82029 18.1968 9.71637 18.1448C9.45656 17.989 2.85742 14.4036 2.85742 9.88293C2.85742 7.33681 4.93589 5.3103 7.43005 5.3103C8.52125 5.3103 9.35263 5.93384 9.97617 6.45346C10.5997 5.93384 11.3791 5.3103 12.5223 5.3103C15.0684 5.3103 17.0949 7.38877 17.0949 9.88293C17.0949 14.5595 10.4958 17.989 10.236 18.1448C10.1321 18.1968 10.0801 18.1968 9.97617 18.1968ZM7.43005 6.34954C5.45551 6.34954 3.89666 7.96035 3.89666 9.88293C3.89666 13.3644 8.83302 16.4301 9.97617 17.1056C11.1193 16.4301 16.0557 13.4683 16.0557 9.88293C16.0557 7.90839 14.4449 6.34954 12.5223 6.34954C11.6909 6.34954 11.1713 6.81719 10.5478 7.33681L10.3399 7.54466C10.1321 7.70054 9.87225 7.70054 9.6644 7.54466L9.45656 7.28485C8.83302 6.81719 8.26144 6.34954 7.43005 6.34954Z" fill="#050505"/>
<path d="M8.83302 21.5744H3.37704C3.06527 21.5744 2.85742 21.3665 2.85742 21.0548C2.85742 20.743 3.06527 20.5352 3.37704 20.5352H8.83302C9.14479 20.5352 9.35263 20.743 9.35263 21.0548C9.35263 21.3665 9.09283 21.5744 8.83302 21.5744Z" fill="#050505"/>
<path d="M12.3145 24.4843H3.37704C3.06527 24.4843 2.85742 24.2765 2.85742 23.9647C2.85742 23.6529 3.06527 23.4451 3.37704 23.4451H12.3145C12.6262 23.4451 12.8341 23.6529 12.8341 23.9647C12.8341 24.2765 12.6262 24.4843 12.3145 24.4843Z" fill="#050505"/>
<path d="M12.3145 27.3938H3.37704C3.06527 27.3938 2.85742 27.186 2.85742 26.8742C2.85742 26.5625 3.06527 26.3546 3.37704 26.3546H12.3145C12.6262 26.3546 12.8341 26.5625 12.8341 26.8742C12.8341 27.186 12.6262 27.3938 12.3145 27.3938Z" fill="#050505"/>
<path d="M10.3385 15.0271H9.66299C9.03945 15.0271 8.57179 14.5595 8.57179 13.9359V13.1565H7.79237C7.16883 13.1565 6.70117 12.6888 6.70117 12.0653V11.3898C6.70117 10.7663 7.16883 10.2986 7.79237 10.2986H8.57179V9.51917C8.57179 8.89563 9.03945 8.42798 9.66299 8.42798H10.3385C10.962 8.42798 11.4297 8.89563 11.4297 9.51917V10.2986H12.2091C12.8327 10.2986 13.3003 10.7663 13.3003 11.3898V12.0653C13.3003 12.6888 12.8327 13.1565 12.2091 13.1565H11.4297V13.9359C11.4297 14.5595 10.9101 15.0271 10.3385 15.0271ZM7.79237 11.3378C7.74041 11.3378 7.74041 11.3378 7.74041 11.3898V12.0653C7.74041 12.1173 7.74041 12.1173 7.79237 12.1173H9.09141C9.40318 12.1173 9.61103 12.3251 9.61103 12.6369V13.9359C9.61103 13.9879 9.61103 13.9879 9.66299 13.9879H10.3385C10.3905 13.9879 10.3905 13.9879 10.3905 13.9359V12.6369C10.3905 12.3251 10.5983 12.1173 10.9101 12.1173H12.2091C12.2611 12.1173 12.2611 12.1173 12.2611 12.0653V11.3898C12.2611 11.3378 12.2611 11.3378 12.2091 11.3378H10.9101C10.5983 11.3378 10.3905 11.13 10.3905 10.8182V9.51917C10.3905 9.46721 10.3905 9.46721 10.3385 9.46721H9.66299C9.61103 9.46721 9.61103 9.46721 9.61103 9.51917V10.8182C9.61103 11.13 9.40318 11.3378 9.09141 11.3378H7.79237Z" fill="#050505"/>
</svg>
