<svg width="40" height="40" viewBox="0 0 40 40" fill="none" xmlns="http://www.w3.org/2000/svg">
<path fill-rule="evenodd" clip-rule="evenodd" d="M1.875 37.5C1.875 37.8455 2.15454 38.125 2.5 38.125H15C15.3455 38.125 15.625 37.8455 15.625 37.5C15.625 34.5284 13.7254 31.9979 11.0797 31.0402C11.9384 30.3524 12.5 29.3082 12.5 28.125C12.5 26.0571 10.8179 24.375 8.75 24.375C6.68213 24.375 5 26.0571 5 28.125C5 29.3082 5.5616 30.3524 6.42029 31.0402C3.77457 31.9979 1.875 34.5284 1.875 37.5ZM6.25 28.125C6.25 26.7468 7.37183 25.625 8.75 25.625C10.1282 25.625 11.25 26.7468 11.25 28.125C11.25 29.5032 10.1282 30.625 8.75 30.625C7.37183 30.625 6.25 29.5032 6.25 28.125ZM8.75 31.875C11.6406 31.875 14.0283 34.0662 14.3408 36.875H3.15918C3.47168 34.0662 5.85938 31.875 8.75 31.875Z" fill="#00A1A5"/>
<path fill-rule="evenodd" clip-rule="evenodd" d="M33.5797 31.0402C34.4384 30.3524 35 29.3082 35 28.125C35 26.0571 33.3179 24.375 31.25 24.375C29.1821 24.375 27.5 26.0571 27.5 28.125C27.5 29.3082 28.0616 30.3524 28.9203 31.0402C26.2746 31.9979 24.375 34.5284 24.375 37.5C24.375 37.8455 24.6545 38.125 25 38.125H37.5C37.8455 38.125 38.125 37.8455 38.125 37.5C38.125 34.5284 36.2254 31.9979 33.5797 31.0402ZM28.75 28.125C28.75 26.7468 29.8718 25.625 31.25 25.625C32.6282 25.625 33.75 26.7468 33.75 28.125C33.75 29.5032 32.6282 30.625 31.25 30.625C29.8718 30.625 28.75 29.5032 28.75 28.125ZM25.6592 36.875C25.9717 34.0662 28.3594 31.875 31.25 31.875C34.1406 31.875 36.5283 34.0662 36.8408 36.875H25.6592Z" fill="#00A1A5"/>
<path fill-rule="evenodd" clip-rule="evenodd" d="M12.4107 8.30841C12.18 8.37616 12.0091 8.57086 11.9701 8.80829C11.8431 9.60175 11.8431 10.4013 11.9713 11.1844C12.0091 11.4194 12.1776 11.6129 12.4059 11.6818L13.2738 11.9449C13.4203 12.4484 13.6205 12.9312 13.8731 13.3871L13.4349 14.18C13.3165 14.3942 13.3336 14.6591 13.4801 14.8557C13.9623 15.5014 14.5262 16.0617 15.1573 16.5201C15.3526 16.6635 15.6126 16.6794 15.8238 16.564L16.6161 16.1325C17.075 16.387 17.5584 16.5854 18.0577 16.7264L18.3116 17.5943C18.38 17.8287 18.5777 18.002 18.8194 18.0374C19.2125 18.0954 19.608 18.1241 20.0035 18.1241C20.4002 18.1241 20.7957 18.0954 21.1888 18.0374C21.4305 18.002 21.6295 17.8287 21.6978 17.5937L21.9505 16.7264C22.4498 16.5854 22.9332 16.3864 23.3922 16.1325L24.1844 16.564C24.4005 16.6794 24.6605 16.6623 24.8558 16.517C25.5077 16.0342 26.068 15.4733 26.5208 14.8495C26.6624 14.6548 26.6795 14.3954 26.5648 14.1837L26.1339 13.3902C26.3853 12.9343 26.5868 12.4509 26.7345 11.9449L27.6012 11.6818C27.8319 11.6116 28.0016 11.4145 28.037 11.1758C28.1541 10.3983 28.1541 9.6048 28.0382 8.81683C28.0016 8.57574 27.8294 8.37738 27.5963 8.30841L26.7332 8.05389C26.5855 7.54852 26.3853 7.06634 26.1339 6.61224L26.5648 5.81879C26.6795 5.60699 26.6624 5.3476 26.5208 5.15289C26.0753 4.53949 25.5174 3.97614 24.8619 3.4787C24.6642 3.32794 24.3956 3.3078 24.1808 3.42926L23.3885 3.8681C22.9356 3.61725 22.4547 3.41705 21.9518 3.26996L21.6978 2.39777C21.6283 2.15973 21.4256 1.98517 21.1803 1.95282C20.3978 1.84906 19.608 1.84906 18.828 1.95282C18.5838 1.98517 18.38 2.15973 18.3116 2.39716L18.0565 3.26996C17.5536 3.41705 17.0726 3.61725 16.6197 3.8681L15.8275 3.42926C15.6126 3.30902 15.3465 3.32794 15.1512 3.47504C14.5177 3.94745 13.9549 4.50958 13.4801 5.14679C13.3336 5.34332 13.3165 5.60822 13.4349 5.82245L13.8731 6.61529C13.6217 7.0694 13.4215 7.55157 13.275 8.05389L12.4107 8.30841ZM13.9659 9.15314C14.1808 9.08966 14.3456 8.91632 14.3968 8.69781C14.5445 8.07648 14.7887 7.48993 15.1219 6.95526C15.2428 6.763 15.2489 6.52069 15.139 6.32233L14.7301 5.58136C14.9901 5.27069 15.2769 4.98444 15.5858 4.72443L16.3255 5.13458C16.5221 5.24261 16.7674 5.23834 16.9591 5.11749C17.4925 4.78424 18.0797 4.5401 18.7022 4.39117C18.9207 4.33929 19.0941 4.17389 19.1563 3.95844L19.3932 3.14911C19.7997 3.11676 20.2074 3.11798 20.6139 3.14911L20.8495 3.95782C20.9129 4.17389 21.0863 4.33929 21.3048 4.39117C21.9286 4.5401 22.5157 4.78485 23.0492 5.11749C23.242 5.23956 23.485 5.24445 23.6827 5.13458L24.42 4.72565C24.7374 4.99359 25.0218 5.27985 25.2708 5.58075L24.8668 6.32599C24.7594 6.52435 24.7667 6.76483 24.8863 6.95526C25.2184 7.48749 25.4625 8.07404 25.6114 8.69904C25.6639 8.91632 25.8275 9.08966 26.0423 9.15314L26.8468 9.39056C26.8834 9.79645 26.8834 10.2023 26.848 10.6039L26.0374 10.8499C25.825 10.9146 25.6627 11.0867 25.6114 11.3028C25.4625 11.9272 25.2184 12.5143 24.8863 13.0472C24.7667 13.2382 24.7594 13.4781 24.8668 13.6765L25.2708 14.4217C25.0206 14.7244 24.7362 15.0082 24.4212 15.2695L23.679 14.8654C23.4789 14.7586 23.2396 14.7647 23.0492 14.8849C22.5084 15.2225 21.9249 15.4623 21.3145 15.5978C21.0912 15.6479 20.9142 15.8145 20.8495 16.0336L20.6126 16.8472C20.2061 16.8839 19.8009 16.8839 19.3944 16.8472L19.1563 16.033C19.0929 15.8139 18.9146 15.6473 18.6925 15.5978C18.0833 15.4623 17.4998 15.2225 16.9591 14.8849C16.7686 14.7647 16.5294 14.7586 16.3292 14.8654L15.5846 15.2707C15.2782 15.0174 14.9913 14.733 14.7301 14.4211L15.139 13.6801C15.2489 13.4818 15.2428 13.2394 15.1219 13.0472C14.7874 12.5113 14.5445 11.9247 14.3968 11.304C14.3456 11.0873 14.1832 10.9146 13.9708 10.8499L13.1554 10.6027C13.1151 10.2017 13.1151 9.79706 13.1554 9.3924L13.9659 9.15314Z" fill="#00A1A5"/>
<path fill-rule="evenodd" clip-rule="evenodd" d="M20.0001 13.1247C21.7237 13.1247 23.1251 11.7227 23.1251 9.9997C23.1251 8.57575 22.1607 7.3349 20.7801 6.98151C20.4432 6.89606 20.1051 7.09808 20.0196 7.43195C19.9342 7.76642 20.1356 8.107 20.4701 8.19245C21.2977 8.40424 21.8751 9.14765 21.8751 9.9997C21.8751 11.0336 21.034 11.8747 20.0001 11.8747C19.148 11.8747 18.4046 11.2973 18.1935 10.4697C18.108 10.1358 17.7723 9.93134 17.433 10.0192C17.0985 10.1047 16.8971 10.4453 16.9825 10.7797C17.3353 12.1603 18.5768 13.1247 20.0001 13.1247Z" fill="#00A1A5"/>
<path fill-rule="evenodd" clip-rule="evenodd" d="M23.5618 32.5813C21.2668 33.3015 18.7327 33.3015 16.4377 32.5813C16.1057 32.4788 15.7566 32.6607 15.654 32.989C15.5503 33.3186 15.7334 33.6702 16.0618 33.7727C17.3313 34.1719 18.6558 34.3745 19.9998 34.3745C21.3437 34.3745 22.6682 34.1719 23.9377 33.7727C24.2661 33.6702 24.4492 33.3186 24.3455 32.989C24.2441 32.6607 23.8962 32.48 23.5618 32.5813Z" fill="#00A1A5"/>
<path fill-rule="evenodd" clip-rule="evenodd" d="M32.3755 23.1208C32.3963 23.1232 32.417 23.1244 32.439 23.1244C32.7552 23.1244 33.0274 22.884 33.0591 22.5617C33.1031 22.1296 33.125 21.6926 33.125 21.2494C33.125 17.7924 31.792 14.5295 29.3726 12.0612C29.1309 11.8158 28.7342 11.8104 28.4888 12.0527C28.2422 12.2944 28.2373 12.6899 28.479 12.9365C30.669 15.1697 31.875 18.122 31.875 21.2494C31.875 21.6511 31.8555 22.0466 31.8164 22.4372C31.781 22.7802 32.0313 23.0866 32.3755 23.1208Z" fill="#00A1A5"/>
<path fill-rule="evenodd" clip-rule="evenodd" d="M11.6956 11.8857C11.4539 11.6403 11.0583 11.6342 10.8105 11.8771C8.27271 14.3667 6.875 17.695 6.875 21.2497C6.875 21.6928 6.89697 22.1298 6.94092 22.5619C6.97266 22.8842 7.24487 23.1247 7.56104 23.1247C7.58301 23.1247 7.60376 23.1235 7.62451 23.121C7.96875 23.0868 8.21899 22.7804 8.18359 22.4374C8.14453 22.0468 8.125 21.6513 8.125 21.2497C8.125 18.0337 9.38965 15.0216 11.6858 12.7695C11.9324 12.5278 11.9373 12.1322 11.6956 11.8857Z" fill="#00A1A5"/>
<path fill-rule="evenodd" clip-rule="evenodd" d="M24.9998 26.875C25.189 26.875 25.377 26.7883 25.5003 26.6248C25.7066 26.3489 25.6505 25.957 25.3746 25.7495L20.6248 22.1872V20C20.6248 19.6545 20.3453 19.375 19.9998 19.375C19.6544 19.375 19.3748 19.6545 19.3748 20V22.1875L14.6251 25.7495C14.3492 25.957 14.293 26.3489 14.4993 26.6248C14.6226 26.7883 14.8106 26.875 14.9998 26.875C15.1305 26.875 15.2623 26.8347 15.3746 26.7505L19.9998 23.2816L24.6251 26.7505C24.7374 26.8347 24.8692 26.875 24.9998 26.875Z" fill="#00A1A5"/>
<path fill-rule="evenodd" clip-rule="evenodd" d="M18.6743 8.67342C18.9184 8.42935 18.9184 8.03362 18.6743 7.78955C18.4303 7.54541 18.0345 7.54541 17.7905 7.78955C17.5464 8.03362 17.5464 8.42935 17.7905 8.67342C18.0345 8.91748 18.4303 8.91748 18.6743 8.67342Z" fill="#00A1A5"/>
</svg>
