<svg width="40" height="40" viewBox="0 0 40 40" fill="none" xmlns="http://www.w3.org/2000/svg">
<path fill-rule="evenodd" clip-rule="evenodd" d="M33.8117 29.7944C33.8117 30.4717 33.2604 31.0234 32.5831 31.0234H7.41708C6.73972 31.0234 6.18844 30.4717 6.18844 29.7944V29.5084H33.8117V29.7944ZM22.9803 35.9712H17.0199C17.9737 34.9071 18.68 33.6132 19.1614 32.0536H20.8388C21.3203 33.6136 22.0265 34.9072 22.9803 35.9712ZM25.8607 23.6141C26.2784 23.6141 26.6178 23.9542 26.6178 24.3712C26.6178 24.789 26.2785 25.1291 25.8607 25.1291C25.4429 25.1291 25.1036 24.789 25.1036 24.3712C25.1036 23.9542 25.4429 23.6141 25.8607 23.6141ZM18.6948 24.3712C18.6948 24.789 18.3556 25.1291 17.9377 25.1291C17.5204 25.1291 17.1802 24.789 17.1802 24.3712C17.1802 23.9542 17.5203 23.6141 17.9377 23.6141C18.3556 23.6141 18.6948 23.9542 18.6948 24.3712ZM7.41708 16.0776C6.73972 16.0776 6.18844 16.6284 6.18844 17.3057V28.4781H33.8117V17.3057C33.8117 16.6284 33.2604 16.0776 32.5831 16.0776H29.0369L28.5108 17.588C28.1075 18.746 27.0545 19.494 25.8292 19.494H15.9616L15.1569 21.6698C14.9907 22.1186 15.3183 22.5839 15.7929 22.5839H25.8607C26.8463 22.5839 27.648 23.3856 27.648 24.3712C27.648 25.3573 26.8463 26.1594 25.8607 26.1594C24.5489 26.1594 23.6904 24.7902 24.2416 23.6142H19.5565C20.1081 24.7868 19.252 26.1594 17.9378 26.1594C16.6284 26.1594 15.7661 24.7934 16.3187 23.6142H15.793C14.6024 23.6142 13.7779 22.4283 14.1904 21.3124L14.9132 19.358C14.4598 19.1696 14.1007 18.7968 13.9288 18.3047L13.1527 16.0776L7.41708 16.0776ZM29.4651 11.7181L27.538 17.2496C27.2768 17.9984 26.6219 18.4633 25.8292 18.4633H15.602C15.2772 18.4633 15.0094 18.2732 14.902 17.9662L12.7253 11.7182H29.4651V11.7181ZM24.5019 10.6879H17.6885C17.9092 8.99107 19.3625 7.70331 21.095 7.70331C22.828 7.70331 24.2803 8.99075 24.5019 10.6879ZM13.9829 10.4602V10.6879H16.6517C16.8794 8.41691 18.7915 6.67307 21.0951 6.67307C23.3987 6.67307 25.3119 8.41867 25.5384 10.6879H28.2072V10.4602L26.7547 9.98827C26.591 9.93459 26.4646 9.80355 26.4179 9.63787C26.3005 9.22171 26.1336 8.81795 25.9208 8.43859C25.836 8.28899 25.8328 8.10595 25.9108 7.95299L26.6047 6.59131L25.6439 5.63003L24.2822 6.32387C24.128 6.40235 23.9462 6.39827 23.7958 6.31435C23.4164 6.10155 23.0131 5.93459 22.5969 5.81723C22.4316 5.77011 22.3002 5.64411 22.2465 5.48043L21.7746 4.02747H20.4158L19.9439 5.48043C19.8901 5.64411 19.7592 5.77011 19.5934 5.81723C19.1772 5.93379 18.7739 6.10155 18.395 6.31435C18.2446 6.39907 18.0615 6.40235 17.9086 6.32387L16.5469 5.63003L15.5857 6.59131L16.2796 7.95299C16.3581 8.10587 16.3548 8.28899 16.27 8.43859C16.0572 8.81795 15.8903 9.22091 15.7729 9.63787C15.7258 9.80355 15.5998 9.93459 15.4361 9.98827L13.9829 10.4602ZM32.5832 15.0473H29.3965L30.6768 11.3727C30.7931 11.0384 30.5444 10.6879 30.1904 10.6879H29.2378V10.4308C29.2378 10.0007 28.963 9.62211 28.5535 9.48899L27.3278 9.09099C27.2257 8.77939 27.0992 8.47483 26.9509 8.18139L27.5361 7.03211C27.7312 6.64899 27.658 6.18699 27.3543 5.88283L26.3517 4.88067C26.0476 4.57611 25.5852 4.50339 25.202 4.69883L24.0532 5.28403C23.7597 5.13563 23.4556 5.00923 23.1436 4.90675L22.7452 3.68099C22.6125 3.27187 22.234 2.99707 21.8042 2.99707H20.3863C19.9561 2.99707 19.5776 3.27187 19.4449 3.68099L19.0465 4.90675C18.7345 5.00923 18.4304 5.13571 18.1369 5.28403L16.9885 4.69883C16.6046 4.50339 16.1426 4.57611 15.8384 4.88067L14.8363 5.88283C14.5325 6.18699 14.459 6.64899 14.654 7.03291L15.2396 8.18131C15.0912 8.47467 14.9648 8.77931 14.8624 9.09091L13.6367 9.48891C13.2276 9.62195 12.9528 10.0005 12.9528 10.4308V10.6878H12.366L11.6754 8.70627C11.4043 7.92731 10.7241 7.40867 9.90132 7.35323L7.15484 7.16811C6.87052 7.14827 6.625 7.36355 6.60604 7.64707C6.5866 7.93139 6.80108 8.17683 7.0854 8.19587L9.83188 8.38139C10.2414 8.40907 10.5667 8.65747 10.7022 9.04507L12.7941 15.0472H7.41708C6.17156 15.0472 5.1582 16.0601 5.1582 17.3056V29.7942C5.1582 31.0402 6.17148 32.0535 7.41708 32.0535H18.0778C17.5269 33.6821 16.6972 34.9698 15.5548 35.9712H11.698C11.4136 35.9712 11.1827 36.2022 11.1827 36.4865C11.1827 36.7708 11.4137 37.0019 11.698 37.0019H28.3022C28.5865 37.0019 28.8171 36.7708 28.8171 36.4865C28.8171 36.2022 28.5865 35.9712 28.3022 35.9712H24.4453C23.3031 34.9698 22.4732 33.6821 21.9224 32.0535H32.5831C33.8286 32.0535 34.842 31.0402 34.842 29.7942V17.3057C34.842 16.0602 33.8287 15.0473 32.5832 15.0473Z" fill="#00A1A5"/>
</svg>
