<svg width="40" height="40" viewBox="0 0 40 40" fill="none" xmlns="http://www.w3.org/2000/svg">
<path d="M6.36223 12.1551H9.18303C9.40663 12.1551 9.58823 11.9739 9.58823 11.7499C9.58823 11.5259 9.40703 11.3447 9.18303 11.3447H6.36223C6.13863 11.3447 5.95703 11.5259 5.95703 11.7499C5.95703 11.9739 6.13823 12.1551 6.36223 12.1551Z" fill="#00A1A5"/>
<path d="M5.12004 12.1551C5.34364 12.1551 5.52524 11.9739 5.52524 11.7499C5.52524 11.5259 5.34404 11.3447 5.12004 11.3447C4.89604 11.3447 4.71484 11.5259 4.71484 11.7499C4.71484 11.9739 4.89604 12.1551 5.12004 12.1551Z" fill="#00A1A5"/>
<path d="M6.36223 14.0555H9.18303C9.40663 14.0555 9.58823 13.8743 9.58823 13.6503C9.58823 13.4263 9.40703 13.2451 9.18303 13.2451H6.36223C6.13863 13.2451 5.95703 13.4263 5.95703 13.6503C5.95703 13.8743 6.13823 14.0555 6.36223 14.0555Z" fill="#00A1A5"/>
<path d="M5.12004 14.0555C5.34364 14.0555 5.52524 13.8743 5.52524 13.6503C5.52524 13.4263 5.34404 13.2451 5.12004 13.2451C4.89604 13.2451 4.71484 13.4263 4.71484 13.6503C4.71484 13.8743 4.89604 14.0555 5.12004 14.0555Z" fill="#00A1A5"/>
<path d="M6.36223 15.9569H9.18303C9.40663 15.9569 9.58823 15.7757 9.58823 15.5517C9.58823 15.3277 9.40703 15.1465 9.18303 15.1465H6.36223C6.13863 15.1465 5.95703 15.3277 5.95703 15.5517C5.95703 15.7757 6.13823 15.9569 6.36223 15.9569Z" fill="#00A1A5"/>
<path d="M5.12004 15.9569C5.34364 15.9569 5.52524 15.7757 5.52524 15.5517C5.52524 15.3277 5.34404 15.1465 5.12004 15.1465C4.89604 15.1465 4.71484 15.3277 4.71484 15.5517C4.71484 15.7757 4.89604 15.9569 5.12004 15.9569Z" fill="#00A1A5"/>
<path d="M27.6396 4.97056H30.4604C30.684 4.97056 30.8656 4.78936 30.8656 4.56536C30.8656 4.34136 30.6844 4.16016 30.4604 4.16016H27.6396C27.416 4.16016 27.2344 4.34136 27.2344 4.56536C27.2344 4.78936 27.4156 4.97056 27.6396 4.97056Z" fill="#00A1A5"/>
<path d="M26.3974 4.97056C26.621 4.97056 26.8026 4.78936 26.8026 4.56536C26.8026 4.34136 26.6214 4.16016 26.3974 4.16016C26.1734 4.16016 25.9922 4.34136 25.9922 4.56536C25.9922 4.78936 26.1734 4.97056 26.3974 4.97056Z" fill="#00A1A5"/>
<path d="M27.6396 6.87192H30.4604C30.684 6.87192 30.8656 6.69072 30.8656 6.46672C30.8656 6.24272 30.6844 6.06152 30.4604 6.06152H27.6396C27.416 6.06152 27.2344 6.24272 27.2344 6.46672C27.2344 6.69072 27.4156 6.87192 27.6396 6.87192Z" fill="#00A1A5"/>
<path d="M26.3974 6.87192C26.6212 6.87192 26.8026 6.69051 26.8026 6.46672C26.8026 6.24294 26.6212 6.06152 26.3974 6.06152C26.1736 6.06152 25.9922 6.24294 25.9922 6.46672C25.9922 6.69051 26.1736 6.87192 26.3974 6.87192Z" fill="#00A1A5"/>
<path d="M27.6396 8.77231H30.4604C30.684 8.77231 30.8656 8.59111 30.8656 8.36711C30.8656 8.14311 30.6844 7.96191 30.4604 7.96191H27.6396C27.416 7.96191 27.2344 8.14311 27.2344 8.36711C27.2344 8.59111 27.4156 8.77231 27.6396 8.77231Z" fill="#00A1A5"/>
<path d="M26.3974 8.77231C26.621 8.77231 26.8026 8.59111 26.8026 8.36711C26.8026 8.14311 26.6214 7.96191 26.3974 7.96191C26.1734 7.96191 25.9922 8.14311 25.9922 8.36711C25.9922 8.59111 26.1734 8.77231 26.3974 8.77231Z" fill="#00A1A5"/>
<path d="M35.3902 8.53528H33.7318V3.37288C33.7318 2.61848 33.1182 2.00488 32.3638 2.00488H25.8334C25.0786 2.00488 24.465 2.61848 24.465 3.37288V8.53528H4.60941C3.68981 8.53528 2.94141 9.28368 2.94141 10.2033V29.8837C2.94141 30.8057 3.68981 31.5557 4.60941 31.5557H18.0582V33.4461H16.8858C15.6318 33.4461 14.6114 34.4665 14.6114 35.7205C14.6114 36.9745 15.6318 37.9949 16.8858 37.9949H23.1138C24.3678 37.9949 25.3882 36.9745 25.3882 35.7205C25.3882 34.4665 24.3678 33.4461 23.1138 33.4461H21.9414V31.5557H35.3898C36.3094 31.5557 37.0578 30.8057 37.0578 29.8837V10.2033C37.0578 9.28368 36.3098 8.53528 35.3902 8.53528ZM25.2654 14.0509H32.9322V15.4657C32.9322 15.7793 32.6774 16.0341 32.3642 16.0341H25.8338C25.5206 16.0341 25.2654 15.7793 25.2654 15.4657V14.0509ZM25.2654 3.37328C25.2654 3.06008 25.5206 2.80528 25.8338 2.80528H32.3642C32.6774 2.80528 32.9322 3.06008 32.9322 3.37328V13.2509H25.2654V3.37288V3.37328ZM4.60941 9.33528H24.465V15.4657C24.465 16.2201 25.0786 16.8341 25.8334 16.8341H32.3638C33.1182 16.8341 33.7318 16.2201 33.7318 15.4657V9.33528H35.3902C35.8686 9.33528 36.2582 9.72488 36.2582 10.2033V25.7689H3.74141V10.2033C3.74141 9.72488 4.13101 9.33528 4.60941 9.33528ZM24.5882 35.7201C24.5882 36.5333 23.927 37.1945 23.1138 37.1945H16.8858C16.073 37.1945 15.4114 36.5333 15.4114 35.7201C15.4114 34.9069 16.0726 34.2457 16.8858 34.2457H23.1138C23.9266 34.2457 24.5882 34.9069 24.5882 35.7201ZM21.1418 33.4457H18.8582V31.5553H21.1418V33.4457ZM35.3902 30.7553H4.60941C4.13101 30.7553 3.74141 30.3641 3.74141 29.8833V26.5685H36.2582V29.8833C36.2582 30.3641 35.8686 30.7553 35.3902 30.7553Z" fill="#00A1A5"/>
<path d="M6.18401 27.2949C5.43001 27.2949 4.81641 27.9085 4.81641 28.6621C4.81641 29.4157 5.43001 30.0297 6.18401 30.0297C6.93801 30.0297 7.55121 29.4161 7.55121 28.6621C7.55121 27.9081 6.93801 27.2949 6.18401 27.2949ZM6.18401 29.2297C5.87121 29.2297 5.61641 28.9749 5.61641 28.6621C5.61641 28.3493 5.87121 28.0949 6.18401 28.0949C6.49681 28.0949 6.75121 28.3493 6.75121 28.6621C6.75121 28.9749 6.49681 29.2297 6.18401 29.2297Z" fill="#00A1A5"/>
<path d="M11.8665 28.2617H8.66172C8.44052 28.2617 8.26172 28.4409 8.26172 28.6617C8.26172 28.8825 8.44052 29.0617 8.66172 29.0617H11.8665C12.0877 29.0617 12.2665 28.8825 12.2665 28.6617C12.2665 28.4409 12.0877 28.2617 11.8665 28.2617Z" fill="#00A1A5"/>
<path d="M28.191 15.4416H30.0074C30.2286 15.4416 30.4074 15.2624 30.4074 15.0416C30.4074 14.8208 30.2286 14.6416 30.0074 14.6416H28.191C27.9698 14.6416 27.791 14.8208 27.791 15.0416C27.791 15.2624 27.9698 15.4416 28.191 15.4416Z" fill="#00A1A5"/>
<path d="M11.7234 24.4134C11.8014 24.4914 11.9038 24.5306 12.0062 24.5306C12.1086 24.5306 12.211 24.4914 12.289 24.4134L13.8502 22.8521C14.0066 22.6961 14.0066 22.4429 13.8502 22.2865C13.6938 22.1301 13.441 22.1301 13.2846 22.2865L12.4062 23.1649V14.1158C12.4062 13.3042 13.0666 12.6438 13.8786 12.6438H18.1282C18.3494 12.6438 18.5282 12.4646 18.5282 12.2438C18.5282 12.023 18.3494 11.8438 18.1282 11.8438H13.8786C12.6254 11.8438 11.6062 12.863 11.6062 14.1158V23.1649L10.7278 22.2865C10.5714 22.1301 10.3186 22.1301 10.1622 22.2865C10.0058 22.4429 10.0058 22.6961 10.1622 22.8521L11.7234 24.4134Z" fill="#00A1A5"/>
<path d="M19.642 14.0869L20.5204 13.2085V22.2577C20.5204 23.0693 19.8604 23.7297 19.0484 23.7297H14.7984C14.5772 23.7297 14.3984 23.9089 14.3984 24.1297C14.3984 24.3505 14.5772 24.5297 14.7984 24.5297H19.0484C20.3012 24.5297 21.3204 23.5105 21.3204 22.2577V13.2085L22.1988 14.0869C22.2768 14.1649 22.3792 14.2041 22.4816 14.2041C22.584 14.2041 22.6864 14.1649 22.7644 14.0869C22.9208 13.9305 22.9208 13.6777 22.7644 13.5213L21.2032 11.9601C21.0468 11.8037 20.794 11.8037 20.6376 11.9601L19.0764 13.5213C18.92 13.6777 18.92 13.9305 19.0764 14.0869C19.2328 14.2433 19.4856 14.2433 19.642 14.0869Z" fill="#00A1A5"/>
</svg>
