<svg width="33" height="33" viewBox="0 0 33 33" fill="none" xmlns="http://www.w3.org/2000/svg">
<path d="M14.1291 20.4445H7.57422C7.1166 20.4445 7.12305 19.7484 7.57422 19.7484H14.1227C14.5867 19.7549 14.5803 20.4445 14.1291 20.4445ZM14.1291 18.1758H7.57422C7.12305 18.1758 7.1166 18.8719 7.57422 18.8719H14.1227C14.5803 18.8719 14.5867 18.1758 14.1291 18.1758ZM12.9238 4.11211C12.3373 4.10566 12.3373 3.2291 12.9238 3.21621C13.5104 3.22266 13.5168 4.09922 12.9238 4.11211ZM13.0721 3.8543C12.9818 3.91875 12.8594 3.91875 12.7691 3.8543C12.8078 3.88652 12.8529 3.90586 12.9174 3.90586C12.9883 3.9123 13.0334 3.88652 13.0721 3.8543ZM13.0721 3.46758C13.0334 3.43535 12.9818 3.40957 12.9174 3.40957C12.8529 3.40957 12.8078 3.43535 12.7691 3.46758C12.8594 3.40313 12.9883 3.40313 13.0721 3.46758ZM7.98027 3.66094C7.99316 4.24746 8.86973 4.24746 8.87617 3.66094C8.86973 3.07441 7.99316 3.07441 7.98027 3.66094ZM10.2297 3.66094C10.2426 4.24746 11.1191 4.24746 11.132 3.66094C11.1127 3.07441 10.2361 3.07441 10.2297 3.66094ZM14.1291 16.6031H7.57422C7.12305 16.6031 7.1166 17.2992 7.57422 17.2992H14.1227C14.5803 17.2992 14.5867 16.6031 14.1291 16.6031ZM16.8684 20.0191V15.4494C16.8684 15.0434 17.1971 14.7146 17.6031 14.7146H25.041C25.4471 14.7146 25.7758 15.0434 25.7758 15.4494V20.0191C25.7758 20.4252 25.4471 20.7539 25.041 20.7539H17.6031C17.1971 20.7539 16.8684 20.4252 16.8684 20.0191ZM17.5645 20.0191C17.5645 20.0385 17.5773 20.0578 17.6031 20.0578H25.041C25.0604 20.0578 25.0797 20.0385 25.0797 20.0191V15.4494C25.0797 15.4301 25.0604 15.4107 25.041 15.4107C25.0088 15.4494 17.5516 15.3398 17.5645 15.4494V20.0191ZM7.22617 13.2258V8.65605C7.22617 8.25 7.55488 7.92129 7.96094 7.92129H15.4053C15.8113 7.92129 16.14 8.25 16.14 8.65605V13.2258C16.14 13.6318 15.8113 13.9605 15.4053 13.9605H7.96094C7.55488 13.9605 7.22617 13.6318 7.22617 13.2258ZM7.92227 11.1504C7.98672 11.1311 9.17266 10.5445 9.20488 10.5896C9.24356 10.5832 9.28223 10.5961 9.3209 10.6025L11.493 11.3115L13.852 9.97734C13.9551 9.91934 14.0775 9.91934 14.1807 9.9709L15.4311 10.5961V8.64961C15.4311 8.63027 15.4182 8.61094 15.3988 8.61094C15.3666 8.64961 7.90293 8.54004 7.92227 8.64961V11.1504ZM7.92227 13.2258C7.92227 13.2451 7.93516 13.2645 7.95449 13.2645C7.98672 13.2258 15.4504 13.3354 15.4311 13.2258V11.3824L14.0324 10.6799L11.6992 11.9947C11.6154 12.0398 11.5123 12.0527 11.4221 12.0205L9.23066 11.3051L7.91582 11.9109V13.2258H7.92227ZM19.3305 17.615C19.2338 17.5248 19.2016 17.383 19.2402 17.2605C19.2789 17.1316 19.3885 17.0414 19.5238 17.0221L20.4906 16.8803L20.9225 16.0037C21.0385 15.7652 21.4316 15.7652 21.5477 16.0037L21.9795 16.8803L22.9463 17.0221C23.0752 17.0414 23.1848 17.1316 23.2299 17.2605C23.2686 17.3895 23.2363 17.5248 23.1396 17.615L22.4371 18.2982L22.6047 19.265C22.624 19.3939 22.5725 19.5293 22.4693 19.6066C22.3598 19.684 22.218 19.6969 22.102 19.6324L21.2318 19.1748L20.3617 19.6324C20.2457 19.6969 20.1039 19.684 19.9943 19.6066C19.8848 19.5293 19.8332 19.3939 19.859 19.265L20.0266 18.2982L19.3305 17.615ZM20.323 17.6086C20.4584 17.7633 20.8193 17.9889 20.7484 18.2338L20.6711 18.685C20.7807 18.6398 21.1094 18.4207 21.2383 18.4336C21.3672 18.4207 21.6895 18.6398 21.8055 18.685C21.7861 18.4787 21.6314 18.0855 21.8313 17.9244L22.16 17.6021C21.9602 17.557 21.5348 17.5828 21.4445 17.3443L21.2447 16.9318C21.1416 17.1059 21.0385 17.5184 20.7807 17.5312L20.323 17.6086ZM32.9107 28.9846V30.4025C32.9107 31.1051 32.3049 31.6723 31.5572 31.6723H1.45117C0.703516 31.6723 0.0976562 31.1051 0.0976562 30.4025V28.9846C0.0976562 28.2885 0.703516 27.7213 1.45117 27.7213H2.03125V11.5371C2.03125 10.2545 3.07539 9.21035 4.35801 9.21035H5.66641V3.56426C5.66641 2.32676 6.67187 1.32129 7.90937 1.32129H25.0926C26.3301 1.32129 27.3355 2.32676 27.3355 3.56426V9.21035H28.6504C29.933 9.21035 30.9771 10.2545 30.9771 11.5371V27.7213H31.5572C32.3049 27.7213 32.9107 28.2885 32.9107 28.9846ZM6.36895 5.3625H26.6395V3.56426C26.6395 2.71348 25.9434 2.01738 25.0926 2.01738H7.90937C7.05859 2.01738 6.3625 2.71348 6.3625 3.56426V5.3625H6.36895ZM6.36895 21.5338C6.36895 22.3846 7.06504 23.0807 7.91582 23.0807H25.099C25.9498 23.0807 26.6459 22.3846 26.6459 21.5338V6.05859H6.36895V21.5338ZM5.66641 21.5338V11.3566H4.35801C4.25488 11.3566 4.17754 11.434 4.17754 11.5371V26.2711H28.8244V11.5371C28.8244 11.434 28.7471 11.3566 28.6439 11.3566H27.3291V21.5338C27.3291 22.7713 26.3236 23.7768 25.0861 23.7768H7.90937C6.67187 23.7768 5.66641 22.7713 5.66641 21.5338ZM2.72734 27.7213H30.2746V11.5371C30.2746 10.6348 29.5463 9.90645 28.6439 9.90645H27.3291V10.6541H28.6439C29.1273 10.6541 29.5205 11.0473 29.5205 11.5307V26.6127C29.5205 26.8061 29.3658 26.9607 29.1725 26.9607H3.82949C3.63613 26.9607 3.48145 26.8061 3.48145 26.6127V11.5371C3.48145 11.0537 3.87461 10.6605 4.35801 10.6605H5.66641V9.91289H4.35801C3.45566 9.91289 2.72734 10.6412 2.72734 11.5436V27.7213ZM10.2812 28.4174V29.2102C10.2812 29.3713 10.4166 29.5066 10.5777 29.5066H22.4307C22.5918 29.5066 22.7271 29.3713 22.7271 29.2102V28.4174H10.2812ZM32.2146 28.9846C32.2146 28.6688 31.9182 28.4174 31.5572 28.4174H23.4168V29.2102C23.4168 29.758 22.9721 30.2027 22.4242 30.2027H10.5777C10.0299 30.2027 9.58516 29.758 9.58516 29.2102V28.4174H1.45117C1.09023 28.4174 0.79375 28.6688 0.79375 28.9846V30.4025C0.79375 30.7184 1.09023 30.9762 1.45117 30.9762H31.5572C31.9182 30.9762 32.2146 30.7248 32.2146 30.4025V28.9846ZM18.0479 8.99766H20.5551C21.0127 8.99766 21.0127 8.30156 20.5551 8.30156H18.0479C17.5902 8.30156 17.5902 8.99121 18.0479 8.99766ZM18.0479 10.5703H24.5963C25.0475 10.5703 25.0539 9.87422 24.5963 9.87422H18.0479C17.5902 9.87422 17.5902 10.5639 18.0479 10.5703ZM18.0479 13.0195C17.5967 13.0195 17.5902 13.7156 18.0479 13.7156H24.5963C25.0475 13.7156 25.0539 13.0195 24.5963 13.0195H18.0479ZM14.1291 15.024H11.6219C11.1643 15.024 11.1643 15.7201 11.6219 15.7201H14.1291C14.3225 15.7201 14.4771 15.5654 14.4771 15.3721C14.4771 15.1852 14.316 15.024 14.1291 15.024ZM24.5963 11.4469H18.0479C17.5967 11.4469 17.5902 12.143 18.0479 12.143H24.5963C25.0475 12.143 25.0539 11.4469 24.5963 11.4469Z" fill="#00A1A5"/>
</svg>
