<svg width="29" height="29" viewBox="0 0 29 29" fill="none" xmlns="http://www.w3.org/2000/svg">
<path d="M24.9722 0.849609H4.02875C3.00809 0.849609 2.17773 1.67996 2.17773 2.70063V22.8199C2.17773 23.8406 3.00809 24.671 4.02875 24.671H6.63988V27.8105C6.63988 27.998 6.79225 28.1504 6.97973 28.1504H22.0212C22.2087 28.1504 22.3611 27.998 22.3611 27.8105V24.671H24.9722C25.9929 24.671 26.8232 23.8406 26.8232 22.8199V2.70063C26.8232 1.67996 25.9929 0.849609 24.9722 0.849609ZM4.02875 1.5293H24.9728C25.6185 1.5293 26.1441 2.05492 26.1441 2.70063V4.70061H2.85742V2.70063C2.85742 2.05492 3.38248 1.5293 4.02875 1.5293ZM6.13182 16.8268H8.93553V17.5779C8.93553 18.351 8.30682 18.9797 7.53367 18.9797C6.76053 18.9797 6.13182 18.351 6.13182 17.5779V16.8268ZM21.1048 13.1808H7.89617V11.1525H21.1048V13.1808ZM7.74947 13.8605H21.2515L22.6114 16.1471H6.38953L7.74947 13.8605ZM21.4673 18.9797C20.6941 18.9797 20.0654 18.351 20.0654 17.5779V16.8268H22.8691V17.5779C22.8691 18.351 22.2404 18.9797 21.4673 18.9797ZM9.61521 16.8268H12.4189V17.5779C12.4189 18.351 11.7902 18.9797 11.0171 18.9797C10.2439 18.9797 9.61521 18.351 9.61521 17.5779V16.8268ZM13.0986 16.8268H15.9023V17.5779C15.9023 18.351 15.2736 18.9797 14.5005 18.9797C13.7273 18.9797 13.0986 18.351 13.0986 17.5779V16.8268ZM16.582 16.8268H19.3857V17.5779C19.3857 18.351 18.757 18.9797 17.9839 18.9797C17.2107 18.9797 16.582 18.351 16.582 17.5779V16.8268ZM16.2614 27.4707H12.7644V22.68H16.2614V27.4707ZM16.9411 27.4707V22.3402C16.9411 22.1527 16.7887 22.0004 16.6013 22.0004H12.4246C12.2371 22.0004 12.0847 22.1527 12.0847 22.3402V27.4707H7.31957V19.6486C7.3898 19.656 7.46174 19.6594 7.53367 19.6594C8.2615 19.6594 8.90324 19.2833 9.27537 18.7158C9.6475 19.2833 10.2892 19.6594 11.0171 19.6594C11.7449 19.6594 12.3866 19.2833 12.7588 18.7158C13.1309 19.2833 13.7726 19.6594 14.5005 19.6594C15.2283 19.6594 15.87 19.2833 16.2422 18.7158C16.6143 19.2833 17.256 19.6594 17.9839 19.6594C18.7117 19.6594 19.3534 19.2833 19.7256 18.7158C20.0977 19.2833 20.7394 19.6594 21.4673 19.6594C21.5398 19.6594 21.6111 19.6554 21.6814 19.6486V27.4707H16.9411ZM24.9722 23.9913H22.3611V19.4572C23.0628 19.1219 23.5488 18.4059 23.5488 17.5779V16.487C23.5488 16.4269 23.5329 16.3669 23.5012 16.3131L21.785 13.4272V10.8127C21.785 10.6252 21.6327 10.4729 21.4452 10.4729H7.55633C7.36885 10.4729 7.21648 10.6252 7.21648 10.8127V13.4272L5.50027 16.3131C5.46855 16.3663 5.4527 16.4269 5.4527 16.487V17.5779C5.4527 18.4059 5.93867 19.1224 6.64045 19.4572V23.9913H4.02932C3.38361 23.9913 2.85799 23.4656 2.85799 22.8199V5.38029H26.1446V22.8199C26.1435 23.4656 25.6185 23.9913 24.9722 23.9913ZM23.6746 3.99146C24.1577 3.99146 24.5513 3.59838 24.5513 3.11467C24.5513 2.63152 24.1583 2.23787 23.6746 2.23787C23.1908 2.23787 22.7978 2.63152 22.7978 3.11523C22.7978 3.59838 23.1914 3.99146 23.6746 3.99146ZM23.6746 2.91812C23.7833 2.91812 23.8717 3.00648 23.8717 3.11523C23.8717 3.22398 23.7833 3.31234 23.6746 3.31234C23.5658 3.31234 23.4774 3.22398 23.4774 3.11523C23.4774 3.00648 23.5658 2.91812 23.6746 2.91812ZM20.9297 3.99146C21.4129 3.99146 21.8065 3.59838 21.8065 3.11467C21.8065 2.63152 21.4135 2.23787 20.9297 2.23787C20.446 2.23787 20.0529 2.63152 20.0529 3.11523C20.0529 3.59838 20.446 3.99146 20.9297 3.99146ZM20.9297 2.91812C21.0385 2.91812 21.1269 3.00648 21.1269 3.11523C21.1269 3.22398 21.0385 3.31234 20.9297 3.31234C20.821 3.31234 20.7326 3.22398 20.7326 3.11523C20.7326 3.00648 20.821 2.91812 20.9297 2.91812ZM18.1849 3.99146C18.6681 3.99146 19.0617 3.59838 19.0617 3.11467C19.0617 2.63152 18.6687 2.23787 18.1849 2.23787C17.7012 2.23787 17.3081 2.63152 17.3081 3.11523C17.3081 3.59838 17.7012 3.99146 18.1849 3.99146ZM18.1849 2.91812C18.2937 2.91812 18.3821 3.00648 18.3821 3.11523C18.3821 3.22398 18.2937 3.31234 18.1849 3.31234C18.0762 3.31234 17.9878 3.22398 17.9878 3.11523C17.9878 3.00648 18.0762 2.91812 18.1849 2.91812Z" fill="#00A1A5"/>
</svg>
