<svg width="31" height="31" viewBox="0 0 31 31" fill="none" xmlns="http://www.w3.org/2000/svg">
<path d="M23.7344 1.9375H7.26562C6.6233 1.9375 6.00729 2.19266 5.5531 2.64685C5.09891 3.10104 4.84375 3.71705 4.84375 4.35938V26.6406C4.84375 27.2829 5.09891 27.899 5.5531 28.3531C6.00729 28.8073 6.6233 29.0625 7.26562 29.0625H23.7344C24.3767 29.0625 24.9927 28.8073 25.4469 28.3531C25.9011 27.899 26.1562 27.2829 26.1562 26.6406V4.35938C26.1562 3.71705 25.9011 3.10104 25.4469 2.64685C24.9927 2.19266 24.3767 1.9375 23.7344 1.9375ZM23.7344 2.90625C24.1198 2.90625 24.4894 3.05935 24.7619 3.33186C25.0344 3.60437 25.1875 3.97398 25.1875 4.35938V7.75H18.5661L17.5344 6.975C17.3539 6.83965 17.2074 6.66413 17.1065 6.46236C17.0056 6.26058 16.9531 6.03809 16.9531 5.8125V4.84375C16.9531 4.46777 16.8656 4.09695 16.6974 3.76065C16.5293 3.42436 16.2852 3.13184 15.9844 2.90625H23.7344ZM7.26562 2.90625H14.3714L15.4031 3.68125C15.5836 3.8166 15.7301 3.99212 15.831 4.19389C15.9319 4.39567 15.9844 4.61816 15.9844 4.84375V5.8125C15.9844 6.18848 16.0719 6.5593 16.2401 6.8956C16.4082 7.23189 16.6523 7.52441 16.9531 7.75H5.8125V4.35938C5.8125 3.97398 5.9656 3.60437 6.23811 3.33186C6.51062 3.05935 6.88023 2.90625 7.26562 2.90625ZM23.7344 28.0938H7.26562C6.88023 28.0938 6.51062 27.9407 6.23811 27.6681C5.9656 27.3956 5.8125 27.026 5.8125 26.6406V8.71875H25.1875V26.6406C25.1875 27.026 25.0344 27.3956 24.7619 27.6681C24.4894 27.9407 24.1198 28.0938 23.7344 28.0938ZM18.8906 12.5938C18.7841 12.5938 18.6775 12.5938 18.5709 12.5938C18.2977 12.0099 17.8637 11.5161 17.3198 11.1701C16.7759 10.8241 16.1446 10.6404 15.5 10.6404C14.8554 10.6404 14.2241 10.8241 13.6802 11.1701C13.1363 11.5161 12.7023 12.0099 12.4291 12.5938C12.3225 12.5938 12.2159 12.5938 12.1094 12.5938C11.2101 12.5938 10.3477 12.951 9.71184 13.5868C9.07598 14.2227 8.71875 15.0851 8.71875 15.9844C8.71875 16.8836 9.07598 17.746 9.71184 18.3819C10.3477 19.0178 11.2101 19.375 12.1094 19.375H18.8906C19.7899 19.375 20.6523 19.0178 21.2882 18.3819C21.924 17.746 22.2812 16.8836 22.2812 15.9844C22.2812 15.0851 21.924 14.2227 21.2882 13.5868C20.6523 12.951 19.7899 12.5938 18.8906 12.5938ZM18.8906 18.4062H12.1094C11.4671 18.4062 10.851 18.1511 10.3969 17.6969C9.94266 17.2427 9.6875 16.6267 9.6875 15.9844C9.6875 15.3421 9.94266 14.726 10.3969 14.2719C10.851 13.8177 11.4671 13.5625 12.1094 13.5625C12.2854 13.5624 12.4608 13.5819 12.6325 13.6206C12.7497 13.6456 12.872 13.6263 12.9758 13.5663C13.0796 13.5064 13.1575 13.4101 13.1944 13.2961C13.3513 12.808 13.6591 12.3823 14.0735 12.0803C14.4878 11.7783 14.9873 11.6156 15.5 11.6156C16.0127 11.6156 16.5122 11.7783 16.9265 12.0803C17.3409 12.3823 17.6487 12.808 17.8056 13.2961C17.8425 13.4101 17.9204 13.5064 18.0242 13.5663C18.128 13.6263 18.2503 13.6456 18.3675 13.6206C18.5392 13.5819 18.7146 13.5624 18.8906 13.5625C19.5329 13.5625 20.149 13.8177 20.6031 14.2719C21.0573 14.726 21.3125 15.3421 21.3125 15.9844C21.3125 16.6267 21.0573 17.2427 20.6031 17.6969C20.149 18.1511 19.5329 18.4062 18.8906 18.4062ZM12.5938 22.2812C12.4653 22.2812 12.3421 22.2302 12.2512 22.1394C12.1604 22.0485 12.1094 21.9253 12.1094 21.7969C12.1094 21.6684 12.1604 21.5452 12.2512 21.4544C12.3421 21.3635 12.4653 21.3125 12.5938 21.3125H18.4062C18.5347 21.3125 18.6579 21.3635 18.7488 21.4544C18.8396 21.5452 18.8906 21.6684 18.8906 21.7969C18.8906 21.9253 18.8396 22.0485 18.7488 22.1394C18.6579 22.2302 18.5347 22.2812 18.4062 22.2812H12.5938ZM21.7969 23.7344C21.7969 23.8628 21.7458 23.986 21.655 24.0769C21.5642 24.1677 21.441 24.2188 21.3125 24.2188H9.6875C9.55904 24.2188 9.43583 24.1677 9.34499 24.0769C9.25416 23.986 9.20312 23.8628 9.20312 23.7344C9.20312 23.6059 9.25416 23.4827 9.34499 23.3919C9.43583 23.301 9.55904 23.25 9.6875 23.25H21.3125C21.441 23.25 21.5642 23.301 21.655 23.3919C21.7458 23.4827 21.7969 23.6059 21.7969 23.7344ZM18.8906 25.6719C18.8906 25.8003 18.8396 25.9235 18.7488 26.0144C18.6579 26.1052 18.5347 26.1562 18.4062 26.1562H12.5938C12.4653 26.1562 12.3421 26.1052 12.2512 26.0144C12.1604 25.9235 12.1094 25.8003 12.1094 25.6719C12.1094 25.5434 12.1604 25.4202 12.2512 25.3294C12.3421 25.2385 12.4653 25.1875 12.5938 25.1875H18.4062C18.5347 25.1875 18.6579 25.2385 18.7488 25.3294C18.8396 25.4202 18.8906 25.5434 18.8906 25.6719ZM8.71875 6.78125C9.00615 6.78125 9.2871 6.69603 9.52606 6.53635C9.76503 6.37668 9.95128 6.14974 10.0613 5.88421C10.1712 5.61869 10.2 5.32651 10.144 5.04463C10.0879 4.76276 9.94949 4.50383 9.74626 4.30061C9.54304 4.09739 9.28412 3.95899 9.00224 3.90292C8.72036 3.84685 8.42819 3.87563 8.16266 3.98561C7.89714 4.0956 7.67019 4.28185 7.51052 4.52081C7.35085 4.75978 7.26562 5.04072 7.26562 5.32812C7.26562 5.71352 7.41872 6.08313 7.69124 6.35564C7.96375 6.62815 8.33336 6.78125 8.71875 6.78125ZM8.71875 4.84375C8.81455 4.84375 8.9082 4.87216 8.98785 4.92538C9.06751 4.97861 9.12959 5.05425 9.16625 5.14276C9.20292 5.23127 9.21251 5.32866 9.19382 5.42262C9.17513 5.51658 9.129 5.60289 9.06126 5.67063C8.99351 5.73837 8.90721 5.7845 8.81325 5.80319C8.71929 5.82188 8.6219 5.81229 8.53339 5.77563C8.44488 5.73897 8.36923 5.67688 8.31601 5.59723C8.26278 5.51757 8.23438 5.42393 8.23438 5.32812C8.23438 5.19966 8.28541 5.07646 8.37624 4.98562C8.46708 4.89478 8.59029 4.84375 8.71875 4.84375ZM12.5938 6.78125C12.8812 6.78125 13.1621 6.69603 13.4011 6.53635C13.64 6.37668 13.8263 6.14974 13.9363 5.88421C14.0462 5.61869 14.075 5.32651 14.019 5.04463C13.9629 4.76276 13.8245 4.50383 13.6213 4.30061C13.418 4.09739 13.1591 3.95899 12.8772 3.90292C12.5954 3.84685 12.3032 3.87563 12.0377 3.98561C11.7721 4.0956 11.5452 4.28185 11.3855 4.52081C11.2258 4.75978 11.1406 5.04072 11.1406 5.32812C11.1406 5.71352 11.2937 6.08313 11.5662 6.35564C11.8387 6.62815 12.2084 6.78125 12.5938 6.78125ZM12.5938 4.84375C12.6896 4.84375 12.7832 4.87216 12.8629 4.92538C12.9425 4.97861 13.0046 5.05425 13.0413 5.14276C13.0779 5.23127 13.0875 5.32866 13.0688 5.42262C13.0501 5.51658 13.004 5.60289 12.9363 5.67063C12.8685 5.73837 12.7822 5.7845 12.6882 5.80319C12.5943 5.82188 12.4969 5.81229 12.4084 5.77563C12.3199 5.73897 12.2442 5.67688 12.191 5.59723C12.1378 5.51757 12.1094 5.42393 12.1094 5.32812C12.1094 5.19966 12.1604 5.07646 12.2512 4.98562C12.3421 4.89478 12.4653 4.84375 12.5938 4.84375ZM18.8906 5.32812C18.8906 5.19966 18.9417 5.07646 19.0325 4.98562C19.1233 4.89478 19.2465 4.84375 19.375 4.84375H22.7656C22.8941 4.84375 23.0173 4.89478 23.1081 4.98562C23.199 5.07646 23.25 5.19966 23.25 5.32812C23.25 5.45659 23.199 5.57979 23.1081 5.67063C23.0173 5.76147 22.8941 5.8125 22.7656 5.8125H19.375C19.2465 5.8125 19.1233 5.76147 19.0325 5.67063C18.9417 5.57979 18.8906 5.45659 18.8906 5.32812Z" fill="#00A1A5"/>
</svg>
