<svg width="26" height="26" viewBox="0 0 26 26" fill="none" xmlns="http://www.w3.org/2000/svg">
<g clip-path="url(#clip0_4227_154)">
<path d="M24.269 6.06177H17.5073C17.2679 6.06177 17.0738 6.25585 17.0738 6.49519C17.0738 6.73459 17.2679 6.92862 17.5073 6.92862H24.269C24.5079 6.92862 24.7024 7.12311 24.7024 7.36204V9.52927H17.7458C17.5064 9.52927 17.3124 9.72336 17.3124 9.9627C17.3124 10.202 17.5064 10.3961 17.7458 10.3961H24.7024V24.6997C24.7024 24.9387 24.5079 25.1332 24.269 25.1332H1.73002C1.49108 25.1332 1.29659 24.9387 1.29659 24.6997V10.3961H8.25324C8.49263 10.3961 8.68667 10.202 8.68667 9.9627C8.68667 9.72336 8.49258 9.52927 8.25324 9.52927H1.29654V7.36204C1.29654 7.12311 1.49103 6.92862 1.72996 6.92862H8.49177C8.73116 6.92862 8.9252 6.73453 8.9252 6.49519C8.9252 6.2558 8.73111 6.06177 8.49177 6.06177H1.73002C1.01296 6.06177 0.429688 6.64504 0.429688 7.3621V24.6998C0.429688 25.4168 1.01296 26.0001 1.73002 26.0001H24.269C24.9861 26.0001 25.5693 25.4168 25.5693 24.6998V7.3621C25.5693 6.64504 24.9861 6.06177 24.269 6.06177Z" fill="#00A1A5"/>
<path d="M2.28978 7.92109C2.21166 8.00342 2.16406 8.11177 2.16406 8.2288C2.16406 8.34583 2.21166 8.45422 2.28978 8.53651C2.37211 8.61437 2.48046 8.66222 2.59749 8.66222C2.7101 8.66222 2.82291 8.61437 2.9052 8.53651C2.98307 8.45417 3.03091 8.34136 3.03091 8.2288C3.03091 8.11598 2.98307 8.00337 2.9052 7.92109C2.74037 7.76068 2.44998 7.76068 2.28978 7.92109Z" fill="#00A1A5"/>
<path d="M4.0222 7.92109C3.94408 8.00342 3.89648 8.11603 3.89648 8.2288C3.89648 8.34141 3.94413 8.45422 4.0222 8.53651C4.10454 8.61437 4.21715 8.66222 4.32991 8.66222C4.44252 8.66222 4.55533 8.61437 4.63762 8.53651C4.71549 8.45417 4.76334 8.34136 4.76334 8.2288C4.76334 8.11598 4.71549 8.00337 4.63762 7.92109C4.47279 7.76068 4.18245 7.76068 4.0222 7.92109Z" fill="#00A1A5"/>
<path d="M5.75657 7.92108C5.67845 8.00342 5.63086 8.11603 5.63086 8.22879C5.63086 8.34582 5.67845 8.45422 5.75657 8.53208C5.83891 8.61442 5.94726 8.66227 6.06428 8.66227C6.18131 8.66227 6.28971 8.61442 6.372 8.53655C6.44986 8.45421 6.49771 8.34587 6.49771 8.22884C6.49771 8.11603 6.44986 8.00342 6.372 7.92113C6.21159 7.76067 5.91678 7.76067 5.75657 7.92108Z" fill="#00A1A5"/>
<path d="M6.58103 14.9089C6.49341 15.0296 6.4737 15.1866 6.52896 15.325L7.39586 17.4923C7.44452 17.6137 7.54571 17.7069 7.67102 17.7454C7.71272 17.7583 7.75569 17.7646 7.79841 17.7646C7.88369 17.7646 7.96836 17.7394 8.04075 17.6905L10.4609 16.0589C10.6127 16.4874 10.7516 16.8356 10.8452 17.0628C10.8455 17.0634 10.846 17.0639 10.8463 17.0645C10.8683 17.1173 10.9003 17.1649 10.9403 17.2048C10.959 17.2233 10.9832 17.2335 11.0048 17.2482C11.0293 17.2651 11.0511 17.2858 11.0789 17.2975C11.131 17.3192 11.1872 17.3306 11.2445 17.3309C11.245 17.3309 11.2455 17.3312 11.2461 17.3312H11.4315L10.8783 18.4376C10.8112 18.572 10.8184 18.7316 10.8973 18.8594C10.9762 18.9871 11.1157 19.0649 11.266 19.0649H14.7335C14.8838 19.0649 15.0233 18.9871 15.1022 18.8594C15.1811 18.7316 15.1883 18.572 15.1212 18.4376L14.568 17.3312H14.6251C14.6475 17.3312 14.6667 17.3217 14.6882 17.3184C14.71 17.3218 14.7315 17.3314 14.7532 17.3314C14.9235 17.3314 15.0852 17.2302 15.1542 17.0628C15.2479 16.8355 15.3868 16.4873 15.5387 16.0589L17.9587 17.6905C18.0311 17.7394 18.1157 17.7646 18.201 17.7646C18.2438 17.7646 18.2867 17.7582 18.3284 17.7453C18.4537 17.7068 18.5549 17.6136 18.6036 17.4922L19.4705 15.325C19.5257 15.1866 19.506 15.0295 19.4184 14.9089L16.7624 11.2575C16.9852 9.51134 16.9713 7.50919 16.3636 5.45401C15.7974 3.54075 14.7741 1.75178 13.322 0.137144C13.1573 -0.0457146 12.842 -0.0457146 12.6773 0.137144C11.2248 1.75239 10.2015 3.54141 9.63583 5.45401C9.02808 7.50919 9.01421 9.51139 9.237 11.2575L6.58103 14.9089ZM11.9673 18.198L12.4007 17.3311H13.5986L14.032 18.198H11.9673ZM16.5687 12.465L18.5764 15.2253L17.9981 16.6715L15.8317 15.211C16.0771 14.4742 16.3572 13.5391 16.5687 12.465ZM10.4672 5.69996C10.9533 4.05611 11.8043 2.50628 12.9997 1.08699C14.1946 2.50582 15.0456 4.0557 15.5322 5.69996C16.1227 7.69667 16.1227 9.62273 15.891 11.3023C15.8895 11.3103 15.8888 11.3178 15.8878 11.3258C15.6265 13.1987 15.0777 14.7626 14.7258 15.7574C14.6285 16.0326 14.538 16.269 14.4606 16.4643H11.5387C11.4613 16.269 11.3708 16.0326 11.2735 15.7572C10.9217 14.7625 10.3728 13.1987 10.1116 11.3258C10.1106 11.3178 10.1098 11.3103 10.1084 11.3024C9.87665 9.62273 9.87665 7.69667 10.4672 5.69996ZM10.1677 15.211L8.00133 16.6715L7.42289 15.2253L9.43062 12.465C9.64223 13.539 9.92231 14.4742 10.1677 15.211Z" fill="#00A1A5"/>
<path d="M12.5664 21.232V22.5323C12.5664 22.7717 12.7605 22.9658 12.9998 22.9658C13.2392 22.9658 13.4333 22.7717 13.4333 22.5323V21.232C13.4333 20.9926 13.2392 20.7986 12.9998 20.7986C12.7605 20.7986 12.5664 20.9927 12.5664 21.232Z" fill="#00A1A5"/>
<path d="M10.832 20.3653V21.6656C10.832 21.905 11.0261 22.0991 11.2655 22.0991C11.5048 22.0991 11.6989 21.905 11.6989 21.6656V20.3653C11.6989 20.1259 11.5048 19.9319 11.2655 19.9319C11.0261 19.9319 10.832 20.1259 10.832 20.3653Z" fill="#00A1A5"/>
<path d="M14.7342 19.9319C14.4948 19.9319 14.3008 20.126 14.3008 20.3653V21.6656C14.3008 21.905 14.4949 22.0991 14.7342 22.0991C14.9735 22.0991 15.1676 21.905 15.1676 21.6656V20.3653C15.1676 20.126 14.9735 19.9319 14.7342 19.9319Z" fill="#00A1A5"/>
<path d="M12.9993 9.96263C14.1942 9.96263 15.1665 8.99033 15.1665 7.7954C15.1665 6.60047 14.1942 5.62817 12.9993 5.62817C11.8043 5.62817 10.832 6.60047 10.832 7.7954C10.8321 8.99033 11.8043 9.96263 12.9993 9.96263ZM12.9993 6.49508C13.7163 6.49508 14.2996 7.07834 14.2996 7.7954C14.2996 8.51246 13.7163 9.09573 12.9993 9.09573C12.2822 9.09573 11.6989 8.51246 11.6989 7.7954C11.6989 7.07834 12.2823 6.49508 12.9993 6.49508Z" fill="#00A1A5"/>
</g>
<defs>
<clipPath id="clip0_4227_154">
<rect width="26" height="26" fill="white"/>
</clipPath>
</defs>
</svg>
