<svg width="32" height="32" viewBox="0 0 32 32" fill="none" xmlns="http://www.w3.org/2000/svg">
<path d="M31.6197 4.07482C31.6197 2.65351 30.4632 1.49707 29.0419 1.49707H2.95861C1.5373 1.49707 0.380859 2.65351 0.380859 4.07482V20.3278C0.380859 21.7461 1.53423 22.9056 2.95861 22.9056H12.1822C12.8695 24.6524 12.8694 25.7609 12.1822 27.5078H11.1435C10.3178 27.5078 9.64586 28.1795 9.64586 29.0053C9.64586 29.831 10.3177 30.5028 11.1435 30.5028H20.857C21.6828 30.5028 22.3547 29.831 22.3547 29.0053C22.3547 28.1795 21.6829 27.5078 20.857 27.5078H19.8184C19.1312 25.7609 19.1312 24.6524 19.8184 22.9056H29.042C30.4452 22.9056 31.6199 21.7587 31.6199 20.3278C31.6198 18.3285 31.6197 6.01457 31.6197 4.07482ZM29.0419 22.1435C23.3607 22.1435 8.61861 22.1435 2.95861 22.1435C1.95636 22.1435 1.1428 21.328 1.1428 20.3278V18.5484H30.8577V20.3278C30.8577 21.3278 30.041 22.1435 29.0419 22.1435ZM2.95861 2.25901H29.0419C30.0432 2.25901 30.8577 3.07363 30.8577 4.07482V17.7865H1.1428V4.07482C1.1428 3.07363 1.95742 2.25901 2.95861 2.25901ZM21.5928 29.0053C21.5928 29.411 21.2627 29.7409 20.857 29.7409H11.1435C10.7379 29.7409 10.4078 29.4109 10.4078 29.0053C10.4078 28.5997 10.7379 28.2698 11.1435 28.2698H20.857C21.2627 28.2697 21.5928 28.5996 21.5928 29.0053ZM19.0018 27.5078H12.9988C13.6213 25.8111 13.6213 24.6023 12.9989 22.9056H19.0017C18.3793 24.6023 18.3793 25.8111 19.0018 27.5078Z" fill="#00A1A5"/>
<path d="M23.3133 19.965H22.3282C22.1178 19.965 21.9473 20.1355 21.9473 20.3459C21.9473 20.5563 22.1178 20.7268 22.3282 20.7268H23.3133C23.5238 20.7268 23.6943 20.5563 23.6943 20.3459C23.6943 20.1355 23.5238 19.965 23.3133 19.965Z" fill="#00A1A5"/>
<path d="M25.8741 19.965H24.8888C24.6783 19.965 24.5078 20.1355 24.5078 20.3459C24.5078 20.5563 24.6784 20.7268 24.8888 20.7268H25.8741C26.0845 20.7268 26.255 20.5563 26.255 20.3459C26.255 20.1355 26.0845 19.965 25.8741 19.965Z" fill="#00A1A5"/>
<path d="M28.4366 19.965H27.4513C27.2408 19.965 27.0703 20.1355 27.0703 20.3459C27.0703 20.5563 27.2409 20.7268 27.4513 20.7268H28.4366C28.647 20.7268 28.8175 20.5563 28.8175 20.3459C28.8175 20.1355 28.647 19.965 28.4366 19.965Z" fill="#00A1A5"/>
<path d="M9.54292 16.309C13.0182 16.309 15.8455 13.4817 15.8455 10.0063C15.8455 6.53105 13.0182 3.70374 9.54292 3.70374C6.06755 3.70374 3.24023 6.53105 3.24023 10.0063C3.24023 13.4817 6.06755 16.309 9.54292 16.309ZM4.02142 10.3872H6.37055C6.42967 12.431 6.95548 14.187 7.75011 15.2436C5.68861 14.5357 4.1763 12.6472 4.02142 10.3872ZM9.92386 15.4652V10.3872H11.9536C11.8719 13.1387 10.922 15.0653 9.92386 15.4652ZM9.92386 9.62536V4.54749C10.9219 4.94742 11.8719 6.87405 11.9536 9.6253L9.92386 9.62536ZM9.16198 4.54749V9.62536H7.13205C7.2138 6.87399 8.1638 4.94742 9.16198 4.54749ZM9.16198 10.3872V15.4652C8.1638 15.0653 7.2138 13.1387 7.13205 10.3872H9.16198ZM11.3357 15.2437C12.1302 14.187 12.656 12.431 12.7151 10.3873H15.0642C14.9094 12.6472 13.3972 14.5358 11.3357 15.2437ZM15.0642 9.62536H12.7151C12.656 7.58161 12.1302 5.82567 11.3357 4.76911C13.3972 5.47692 14.9094 7.36542 15.0642 9.62536ZM7.75011 4.76905C6.95555 5.82561 6.42967 7.58155 6.37055 9.6253H4.02142C4.1763 7.36542 5.68861 5.47692 7.75011 4.76905Z" fill="#00A1A5"/>
<path d="M19.4469 8.28274C19.1554 8.28274 18.9182 8.04556 18.9182 7.75387C18.9182 7.54343 18.7476 7.37293 18.5373 7.37293C18.3269 7.37293 18.1563 7.54349 18.1563 7.75387C18.1563 8.33212 18.5411 8.81699 19.066 8.98068V9.37412C19.066 9.58456 19.2366 9.75506 19.4469 9.75506C19.6573 9.75506 19.8279 9.58449 19.8279 9.37412V8.98068C20.3529 8.81699 20.7377 8.33212 20.7377 7.75381C20.7377 7.04206 20.1587 6.46299 19.4469 6.46299C19.1554 6.46299 18.9182 6.22581 18.9182 5.93424C18.9182 5.64256 19.1554 5.40537 19.4469 5.40537C19.7386 5.40537 19.9758 5.64256 19.9758 5.93424C19.9758 6.14468 20.1464 6.31518 20.3568 6.31518C20.5671 6.31518 20.7377 6.14462 20.7377 5.93424C20.7377 5.35593 20.3529 4.87106 19.8278 4.70737V4.34993C19.8278 4.13949 19.6572 3.96899 19.4469 3.96899C19.2365 3.96899 19.0659 4.13956 19.0659 4.34993V4.70737C18.5409 4.87112 18.1562 5.35593 18.1562 5.93418C18.1562 6.64581 18.7353 7.22487 19.4469 7.22487C19.7386 7.22487 19.9758 7.46206 19.9758 7.75374C19.9758 8.04556 19.7386 8.28274 19.4469 8.28274Z" fill="#00A1A5"/>
<path d="M22.8514 8.65561H27.9563C28.3999 8.65561 28.7609 8.29461 28.7609 7.85098V5.87311C28.7609 5.42948 28.3999 5.06848 27.9563 5.06848H22.8514C22.4078 5.06848 22.0469 5.42948 22.0469 5.87311V7.85098C22.0469 8.29454 22.4078 8.65561 22.8514 8.65561ZM22.8088 5.87311C22.8088 5.84961 22.8279 5.83042 22.8514 5.83042H27.9563C27.9798 5.83042 27.9989 5.84961 27.9989 5.87311V7.85098C27.9989 7.87448 27.9798 7.89367 27.9563 7.89367H22.8514C22.8279 7.89367 22.8088 7.87448 22.8088 7.85098V5.87311Z" fill="#00A1A5"/>
<path d="M18.5372 12.8774H28.3799C28.5903 12.8774 28.7608 12.7068 28.7608 12.4964C28.7608 12.286 28.5903 12.1155 28.3799 12.1155H18.5372C18.3268 12.1155 18.1562 12.286 18.1562 12.4964C18.1562 12.7068 18.3268 12.8774 18.5372 12.8774Z" fill="#00A1A5"/>
<path d="M18.5372 15.0594H24.1192C24.3296 15.0594 24.5001 14.8888 24.5001 14.6784C24.5001 14.468 24.3296 14.2975 24.1192 14.2975H18.5372C18.3268 14.2975 18.1562 14.468 18.1562 14.6784C18.1562 14.8888 18.3268 15.0594 18.5372 15.0594Z" fill="#00A1A5"/>
</svg>
