<svg width="28" height="28" viewBox="0 0 28 28" fill="none" xmlns="http://www.w3.org/2000/svg">
<g clip-path="url(#clip0_4227_138)">
<path d="M6.06628 16.8H21.9329C22.1907 16.8 22.3996 16.591 22.3996 16.3333V8.86666C22.3996 8.60894 22.1907 8.39999 21.9329 8.39999H17.7329V6.99999C17.7329 6.74228 17.524 6.53333 17.2663 6.53333H10.7329C10.4752 6.53333 10.2663 6.74228 10.2663 6.99999V8.39999H6.06628C5.80856 8.39999 5.59961 8.60894 5.59961 8.86666V16.3333C5.59961 16.591 5.80856 16.8 6.06628 16.8ZM6.53294 11.2H10.2663V15.8667H6.53294V11.2ZM11.1996 15.8667V9.33333H16.7996V15.8667H11.1996ZM17.7329 15.8667V11.2H21.4663V15.8667H17.7329ZM21.4663 9.33333V10.2667H17.7329V9.33333H21.4663ZM16.7996 7.46666V8.39999H11.1996V7.46666H16.7996ZM10.2663 9.33333V10.2667H6.53294V9.33333H10.2663Z" fill="#00A1A5"/>
<path d="M12.5996 11.6666H13.5329V12.6H12.5996V11.6666Z" fill="#00A1A5"/>
<path d="M14.4668 11.6666H15.4001V12.6H14.4668V11.6666Z" fill="#00A1A5"/>
<path d="M25.6667 0H2.33333C1.04521 0.00159505 0.00159505 1.04521 0 2.33333V20.0667C0.00159505 21.3548 1.04521 22.3984 2.33333 22.4H10.2047L9.85469 25.2H8.86667C8.09352 25.2 7.46667 25.8269 7.46667 26.6C7.46667 27.3731 8.09352 28 8.86667 28H19.1333C19.9065 28 20.5333 27.3731 20.5333 26.6C20.5333 25.8269 19.9065 25.2 19.1333 25.2H18.1453L17.7953 22.4H25.6667C26.9548 22.3984 27.9984 21.3548 28 20.0667V2.33333C27.9984 1.04521 26.9548 0.00159505 25.6667 0ZM2.33333 0.933333H25.6667C26.4398 0.933333 27.0667 1.56019 27.0667 2.33333V3.73333H0.933333V2.33333C0.933333 1.56019 1.56019 0.933333 2.33333 0.933333ZM27.0667 4.66667V17.7333H0.933333V4.66667H27.0667ZM19.6 26.6C19.6 26.8577 19.391 27.0667 19.1333 27.0667H8.86667C8.60895 27.0667 8.4 26.8577 8.4 26.6C8.4 26.3423 8.60895 26.1333 8.86667 26.1333H19.1333C19.391 26.1333 19.6 26.3423 19.6 26.6ZM17.2047 25.2H10.7953L11.1453 22.4H16.8547L17.2047 25.2ZM25.6667 21.4667H2.33333C1.56019 21.4667 0.933333 20.8398 0.933333 20.0667V18.6667H27.0667V20.0667C27.0667 20.8398 26.4398 21.4667 25.6667 21.4667Z" fill="#00A1A5"/>
<path d="M24.2676 19.6H25.2009V20.5333H24.2676V19.6Z" fill="#00A1A5"/>
<path d="M2.80078 1.8667H3.73411V2.80003H2.80078V1.8667Z" fill="#00A1A5"/>
<path d="M4.66602 1.8667H5.59935V2.80003H4.66602V1.8667Z" fill="#00A1A5"/>
<path d="M6.5332 1.8667H7.46654V2.80003H6.5332V1.8667Z" fill="#00A1A5"/>
</g>
<defs>
<clipPath id="clip0_4227_138">
<rect width="28" height="28" fill="white"/>
</clipPath>
</defs>
</svg>
