<svg width="49" height="49" viewBox="0 0 49 49" fill="none" xmlns="http://www.w3.org/2000/svg">
<path d="M20.3882 33.0654H12.7319C12.5416 33.0654 12.359 33.1411 12.2244 33.2757C12.0898 33.4103 12.0142 33.5928 12.0142 33.7832C12.0142 33.9736 12.0898 34.1561 12.2244 34.2907C12.359 34.4254 12.5416 34.501 12.7319 34.501H20.3882C20.5785 34.501 20.7611 34.4254 20.8957 34.2907C21.0303 34.1561 21.106 33.9736 21.106 33.7832C21.106 33.5928 21.0303 33.4103 20.8957 33.2757C20.7611 33.1411 20.5785 33.0654 20.3882 33.0654Z" fill="#00A1A5"/>
<path d="M20.3882 35.9365H12.7319C12.5416 35.9365 12.359 36.0121 12.2244 36.1468C12.0898 36.2814 12.0142 36.4639 12.0142 36.6543C12.0142 36.8447 12.0898 37.0272 12.2244 37.1618C12.359 37.2964 12.5416 37.3721 12.7319 37.3721H20.3882C20.5785 37.3721 20.7611 37.2964 20.8957 37.1618C21.0303 37.0272 21.106 36.8447 21.106 36.6543C21.106 36.4639 21.0303 36.2814 20.8957 36.1468C20.7611 36.0121 20.5785 35.9365 20.3882 35.9365Z" fill="#00A1A5"/>
<path d="M20.3882 30.1943H16.9429C16.7525 30.1943 16.5699 30.27 16.4353 30.4046C16.3007 30.5392 16.2251 30.7217 16.2251 30.9121C16.2251 31.1025 16.3007 31.285 16.4353 31.4197C16.5699 31.5543 16.7525 31.6299 16.9429 31.6299H20.3882C20.5785 31.6299 20.7611 31.5543 20.8957 31.4197C21.0303 31.285 21.106 31.1025 21.106 30.9121C21.106 30.7217 21.0303 30.5392 20.8957 30.4046C20.7611 30.27 20.5785 30.1943 20.3882 30.1943Z" fill="#00A1A5"/>
<path d="M12.7319 31.6299H14.3589C14.5493 31.6299 14.7318 31.5543 14.8664 31.4197C15.001 31.285 15.0767 31.1025 15.0767 30.9121C15.0767 30.7217 15.001 30.5392 14.8664 30.4046C14.7318 30.27 14.5493 30.1943 14.3589 30.1943H12.7319C12.5416 30.1943 12.359 30.27 12.2244 30.4046C12.0898 30.5392 12.0142 30.7217 12.0142 30.9121C12.0142 31.1025 12.0898 31.285 12.2244 31.4197C12.359 31.5543 12.5416 31.6299 12.7319 31.6299Z" fill="#00A1A5"/>
<path d="M38.9719 13.7812H41.7265C42.2974 13.7819 42.8448 14.009 43.2484 14.4127C43.6521 14.8164 43.8792 15.3637 43.8799 15.9346V25.3165C43.8799 25.5069 43.9555 25.6895 44.0901 25.8241C44.2247 25.9587 44.4073 26.0343 44.5976 26.0343C44.788 26.0343 44.9706 25.9587 45.1052 25.8241C45.2398 25.6895 45.3154 25.5069 45.3154 25.3165V15.9346C45.3143 14.9831 44.9359 14.0708 44.2631 13.398C43.5903 12.7252 42.678 12.3468 41.7265 12.3457H38.9719C38.7816 12.3457 38.599 12.4213 38.4644 12.5559C38.3298 12.6905 38.2542 12.8731 38.2542 13.0635C38.2542 13.2538 38.3298 13.4364 38.4644 13.571C38.599 13.7056 38.7816 13.7812 38.9719 13.7812Z" fill="#00A1A5"/>
<path d="M45.6025 40.0996H45.3154V27.4189C45.3154 27.2286 45.2398 27.046 45.1052 26.9114C44.9706 26.7768 44.788 26.7012 44.5977 26.7012C44.4073 26.7012 44.2247 26.7768 44.0901 26.9114C43.9555 27.046 43.8799 27.2286 43.8799 27.4189V40.0996H16.7514C16.561 40.0996 16.3785 40.1752 16.2439 40.3098C16.1092 40.4444 16.0336 40.627 16.0336 40.8174C16.0336 41.0077 16.1092 41.1903 16.2439 41.3249C16.3785 41.4595 16.561 41.5352 16.7514 41.5352H18.9971V42.7314C18.9976 43.1755 19.1742 43.6012 19.4882 43.9151C19.8022 44.2291 20.2279 44.4057 20.6719 44.4062H28.3281C28.7721 44.4057 29.1978 44.2291 29.5118 43.9151C29.8258 43.6012 30.0024 43.1755 30.0029 42.7314V41.5352H45.6025C45.666 41.5352 45.7268 41.5604 45.7717 41.6052C45.8166 41.6501 45.8418 41.711 45.8418 41.7744V42.7314C45.8409 43.5561 45.5129 44.3467 44.9298 44.9298C44.3467 45.5129 43.5561 45.8409 42.7314 45.8418H6.26855C5.44393 45.8409 4.65334 45.5129 4.07024 44.9298C3.48714 44.3467 3.15914 43.5561 3.1582 42.7314V41.7744C3.1582 41.711 3.18341 41.6501 3.22828 41.6052C3.27315 41.5604 3.33401 41.5352 3.39746 41.5352H14.5981C14.7884 41.5352 14.971 41.4595 15.1056 41.3249C15.2402 41.1903 15.3159 41.0077 15.3159 40.8174C15.3159 40.627 15.2402 40.4444 15.1056 40.3098C14.971 40.1752 14.7884 40.0996 14.5981 40.0996H8.94824V17.8486C8.94824 17.7852 8.97345 17.7243 9.01832 17.6795C9.06319 17.6346 9.12404 17.6094 9.1875 17.6094H10.1173C10.3076 17.6094 10.4902 17.5338 10.6248 17.3991C10.7594 17.2645 10.835 17.082 10.835 16.8916C10.835 16.7012 10.7594 16.5187 10.6248 16.3841C10.4902 16.2495 10.3076 16.1738 10.1173 16.1738H9.1875C8.74348 16.1744 8.31779 16.351 8.00382 16.665C7.68985 16.9789 7.51323 17.4046 7.5127 17.8486V40.0996H5.12012V15.9346C5.12078 15.3637 5.34785 14.8164 5.75154 14.4127C6.15522 14.009 6.70254 13.7819 7.27344 13.7812H11.3872C11.357 14.1443 11.3408 14.5112 11.3408 14.8818C11.3409 18.1946 12.5904 21.3855 14.8399 23.8175C17.0893 26.2494 20.1733 27.7436 23.476 28.0016L24.3095 34.8606C24.3398 35.1095 24.4453 35.3432 24.6121 35.5305C24.7788 35.7177 24.9987 35.8495 25.2424 35.9083C25.4862 35.9671 25.742 35.9501 25.9758 35.8595C26.2095 35.7688 26.41 35.609 26.5504 35.4013L27.6761 33.736L30.9936 37.6897C31.2911 38.0434 31.7167 38.2647 32.1771 38.3049C32.6375 38.3452 33.095 38.2012 33.4494 37.9046L35.4251 36.2468C35.6005 36.0997 35.7451 35.9194 35.8508 35.7164C35.9565 35.5133 36.0212 35.2914 36.0411 35.0634C36.0611 34.8354 36.0359 34.6056 35.967 34.3873C35.8982 34.169 35.787 33.9664 35.6398 33.791L32.3224 29.8374L34.1579 29.018C34.3868 28.9157 34.579 28.746 34.7088 28.5315C34.8387 28.317 34.8999 28.068 34.8842 27.8178C34.8686 27.5676 34.777 27.3281 34.6215 27.1314C34.466 26.9347 34.2542 26.7902 34.0143 26.7173L31.5786 25.9758C33.052 25.0363 34.3234 23.8125 35.3185 22.376C36.3135 20.9394 37.0124 19.319 37.3741 17.6094H39.8125C39.876 17.6094 39.9368 17.6346 39.9817 17.6795C40.0266 17.7243 40.0518 17.7852 40.0518 17.8486V38.7119C40.0518 38.9023 40.1274 39.0849 40.262 39.2195C40.3966 39.3541 40.5792 39.4297 40.7695 39.4297C40.9599 39.4297 41.1425 39.3541 41.2771 39.2195C41.4117 39.0849 41.4873 38.9023 41.4873 38.7119V17.8486C41.4868 17.4046 41.3102 16.9789 40.9962 16.665C40.6822 16.351 40.2565 16.1744 39.8125 16.1738H37.5946C37.6363 15.7461 37.6592 15.3153 37.6592 14.8818C37.6592 7.62582 31.7559 1.72266 24.5 1.72266C18.1114 1.72266 12.7724 6.29918 11.5871 12.3457H7.27344C6.32194 12.3468 5.40971 12.7252 4.7369 13.398C4.06409 14.0708 3.68563 14.9831 3.68457 15.9346V40.0996H3.39746C2.95344 40.1001 2.52775 40.2768 2.21378 40.5907C1.89981 40.9047 1.72319 41.3304 1.72266 41.7744V42.7314C1.72405 43.9367 2.20344 45.0921 3.05566 45.9443C3.90788 46.7966 5.06334 47.276 6.26855 47.2773H42.7314C43.9367 47.276 45.0921 46.7966 45.9443 45.9443C46.7966 45.0921 47.276 43.9367 47.2773 42.7314V41.7744C47.2768 41.3304 47.1002 40.9047 46.7862 40.5907C46.4722 40.2768 46.0466 40.1001 45.6025 40.0996ZM28.5674 42.7314C28.5674 42.7949 28.5422 42.8558 28.4973 42.9006C28.4524 42.9455 28.3916 42.9707 28.3281 42.9707H20.6719C20.6084 42.9707 20.5476 42.9455 20.5027 42.9006C20.4578 42.8558 20.4326 42.7949 20.4326 42.7314V41.5352H28.5674V42.7314ZM16.2682 23.2264C17.4585 22.8415 18.6803 22.5616 19.9195 22.39C20.5236 24.167 21.3454 25.5621 22.3158 26.4021C20.0279 25.9716 17.9214 24.8655 16.2682 23.2264ZM28.7486 15.5996C28.7091 17.3591 28.4723 19.1087 28.0428 20.8154C25.6848 20.5726 23.308 20.5729 20.95 20.8162C20.5183 19.1098 20.2837 17.3595 20.2508 15.5996H28.7486ZM20.2508 14.1641C20.2845 12.4041 20.52 10.6539 20.9527 8.94767C22.1312 9.06991 23.3152 9.1308 24.5 9.13008C25.6853 9.13078 26.8698 9.06983 28.0488 8.94748C28.4791 10.6542 28.7138 12.4043 28.7483 14.1641H20.2508ZM23.5675 24.1215C23.4105 24.2527 23.2888 24.4212 23.2136 24.6115C23.1384 24.8018 23.112 25.0079 23.1368 25.211C22.4935 24.6003 21.8803 23.5745 21.3848 22.2143C22.3897 22.1191 23.4351 22.0691 24.4998 22.0691C25.5645 22.0691 26.6088 22.119 27.6126 22.2141C27.3433 22.9979 26.9753 23.7443 26.5175 24.4351L24.7168 23.8869C24.5209 23.8269 24.3131 23.817 24.1123 23.858C23.9116 23.8989 23.7243 23.9895 23.5676 24.1215H23.5675ZM33.0717 27.9305L30.8684 28.914C30.7669 28.9593 30.6774 29.0275 30.6068 29.1133C30.5362 29.199 30.4864 29.3 30.4615 29.4083C30.4365 29.5165 30.4371 29.6291 30.463 29.7371C30.489 29.8451 30.5396 29.9457 30.611 30.0308L34.5402 34.7134C34.5662 34.7444 34.5858 34.7802 34.5979 34.8187C34.61 34.8572 34.6144 34.8978 34.6109 34.938C34.6073 34.9782 34.5959 35.0174 34.5772 35.0532C34.5585 35.089 34.5329 35.1208 34.5019 35.1467L32.5266 36.8047C32.464 36.857 32.3833 36.8823 32.3021 36.8751C32.2209 36.8679 32.1458 36.8289 32.0934 36.7665L28.1642 32.0839C28.0968 32.0036 28.0127 31.939 27.9178 31.8947C27.8228 31.8504 27.7193 31.8274 27.6145 31.8274C27.602 31.8274 27.5896 31.8274 27.5771 31.8285C27.4662 31.8342 27.3581 31.8657 27.2614 31.9203C27.1646 31.9749 27.0819 32.0513 27.0197 32.1433L25.6684 34.1424L24.6001 25.3518L33.0717 27.9305ZM29.6838 25.3986L27.9466 24.8698C28.4123 24.0868 28.7902 23.2548 29.0733 22.3888C30.314 22.5602 31.5373 22.84 32.7291 23.2251C31.8374 24.1088 30.809 24.8427 29.6834 25.3987L29.6838 25.3986ZM33.7545 22.0665C32.5287 21.6049 31.072 21.2441 29.4796 21C29.9108 19.231 30.1473 17.4201 30.1848 15.5996H36.2C36.0511 17.9515 35.1991 20.2045 33.7545 22.0665ZM36.201 14.1641H30.1848C30.1491 12.3435 29.9139 10.5324 29.4834 8.76315C31.0754 8.51892 32.532 8.15812 33.7574 7.69644C35.2069 9.55576 36.0589 11.8107 36.201 14.1641ZM32.7276 6.53882C31.5367 6.92352 30.3143 7.20314 29.0746 7.3745C28.9519 7.01293 28.8209 6.66352 28.6795 6.33134C28.1213 5.01953 27.445 4.01857 26.6914 3.36454C28.9739 3.80016 31.0751 4.90515 32.7276 6.53882ZM24.5 3.90469C25.5084 3.90469 26.5502 4.99398 27.3585 6.8933C27.4483 7.10443 27.533 7.32454 27.6147 7.54935C26.6098 7.64505 25.5646 7.69453 24.5 7.69453C23.4354 7.69453 22.3913 7.64467 21.3875 7.54954C22.2223 5.25965 23.3958 3.90469 24.5 3.90469ZM22.3084 3.36444C21.5546 4.01848 20.8785 5.01944 20.3203 6.33124C20.1789 6.66352 20.0479 7.01293 19.9252 7.3744C18.6854 7.20305 17.4631 6.92343 16.2721 6.53872C17.9246 4.90504 20.0259 3.80005 22.3084 3.36444ZM15.243 7.69644C16.468 8.15812 17.925 8.51892 19.517 8.76315C19.0863 10.5324 18.851 12.3435 18.8152 14.1641H12.799C12.9412 11.8107 13.7933 9.55572 15.243 7.69644ZM18.8152 15.5996C18.8487 17.4203 19.0824 19.2318 19.512 21.0014C17.9193 21.246 16.4627 21.6074 15.2375 22.0697C13.7879 20.2098 12.9375 17.9535 12.7988 15.5996H18.8152Z" fill="#00A1A5"/>
</svg>
