<svg width="48" height="48" viewBox="0 0 48 48" fill="none" xmlns="http://www.w3.org/2000/svg">
<path d="M42.9091 37.6H5.09093C2.6182 37.6 0.727295 35.7091 0.727295 33.2364V5.38182C0.727295 2.9091 2.6182 1.01819 5.09093 1.01819H42.9091C45.3818 1.01819 47.2728 2.9091 47.2728 5.38182V33.2364C47.2728 35.7091 45.3818 37.6 42.9091 37.6ZM5.09093 2.47273C3.49093 2.47273 2.18184 3.78182 2.18184 5.38182V33.2364C2.18184 34.8364 3.49093 36.1455 5.09093 36.1455H42.9091C44.5091 36.1455 45.8182 34.8364 45.8182 33.2364V5.38182C45.8182 3.78182 44.5091 2.47273 42.9091 2.47273H5.09093Z" fill="#00A1A5"/>
<path d="M41.0909 30.691H6.90911C5.67275 30.691 4.72729 29.7455 4.72729 28.5091V6.98187C4.72729 5.7455 5.67275 4.80005 6.90911 4.80005H41.0909C42.3273 4.80005 43.2728 5.7455 43.2728 6.98187V28.5091C43.2728 29.7455 42.3273 30.691 41.0909 30.691ZM6.90911 6.25459C6.47275 6.25459 6.18184 6.5455 6.18184 6.98187V28.5091C6.18184 28.9455 6.47275 29.2364 6.90911 29.2364H41.0909C41.5273 29.2364 41.8182 28.9455 41.8182 28.5091V6.98187C41.8182 6.5455 41.5273 6.25459 41.0909 6.25459H6.90911Z" fill="#00A1A5"/>
<path d="M25.8909 34.4H22.1091C21.6727 34.4 21.3818 34.1091 21.3818 33.6727C21.3818 33.2363 21.6727 32.9454 22.1091 32.9454H25.8909C26.3273 32.9454 26.6182 33.2363 26.6182 33.6727C26.6182 34.1091 26.3273 34.4 25.8909 34.4Z" fill="#00A1A5"/>
<path d="M30.9091 43.0545C30.6182 43.0545 30.3273 42.8363 30.1819 42.5454L28.7273 37.3818C28.6546 37.0181 28.8728 36.5818 29.2364 36.5091C29.6 36.4363 30.0364 36.6545 30.1091 37.0181L31.5637 42.1818C31.6364 42.5454 31.4182 42.9818 31.0546 43.0545C31.0546 43.0545 30.9819 43.0545 30.9091 43.0545Z" fill="#00A1A5"/>
<path d="M17.0908 43.0545C17.0181 43.0545 16.9454 43.0545 16.8726 43.0545C16.509 42.9091 16.2908 42.5454 16.3635 42.1818L17.8181 37.0181C17.8908 36.6545 18.3272 36.4363 18.6908 36.5091C19.0545 36.6545 19.2726 37.0181 19.1999 37.3818L17.7454 42.5454C17.6726 42.8363 17.3817 43.0545 17.0908 43.0545Z" fill="#00A1A5"/>
<path d="M36.8726 46.9818H11.1272C10.6908 46.9818 10.3999 46.6909 10.3999 46.2545V44.5091C10.3999 42.9091 11.709 41.6 13.309 41.6H34.6908C36.2908 41.6 37.5999 42.9091 37.5999 44.5091V46.2545C37.5999 46.6909 37.309 46.9818 36.8726 46.9818ZM11.8544 45.5272H36.1454V44.5091C36.1454 43.7091 35.4908 43.0545 34.6908 43.0545H13.309C12.509 43.0545 11.8544 43.7091 11.8544 44.5091V45.5272Z" fill="#00A1A5"/>
<path d="M30.9091 22.5454C28.2909 22.5454 26.1091 20.3636 26.1091 17.7454C26.1091 15.1273 28.2909 12.9454 30.9091 12.9454C33.5273 12.9454 35.7091 15.1273 35.7091 17.7454C35.7091 20.3636 33.5273 22.5454 30.9091 22.5454ZM30.9091 14.4C29.0909 14.4 27.5637 15.9273 27.5637 17.7454C27.5637 19.5636 29.0909 21.0909 30.9091 21.0909C32.7273 21.0909 34.2546 19.5636 34.2546 17.7454C34.2546 15.9273 32.7273 14.4 30.9091 14.4Z" fill="#00A1A5"/>
<path d="M29.2364 26.1818C29.1637 26.1818 29.1637 26.1818 29.091 26.1818C28.1455 25.9636 27.2728 25.6 26.3273 25.0182C26.0364 24.8727 25.891 24.5091 26.0364 24.1454C26.2546 23.4909 26.1819 22.9818 25.9637 22.6909C25.7455 22.4727 25.1637 22.4 24.6546 22.6909C24.291 22.8364 23.9273 22.6909 23.7091 22.4C23.1273 21.4545 22.7637 20.5818 22.5455 19.6363C22.4728 19.2727 22.6182 18.9091 22.9819 18.8363C23.5637 18.6182 23.9273 18.1818 23.9273 17.7454C23.9273 17.2363 23.2 16.8727 22.9091 16.7273C22.5455 16.5818 22.4 16.2182 22.4728 15.9273C22.691 14.8363 23.1273 13.8909 23.7091 13.1636C23.9273 12.8727 24.291 12.8 24.5819 12.8727C24.8728 13.0182 25.5273 13.2363 25.9637 12.8C26.2546 12.5091 26.2546 11.9273 26.0364 11.4182C25.891 11.0545 26.0364 10.6909 26.3273 10.4727C27.2728 9.89089 28.1455 9.52726 29.091 9.30908C29.4546 9.23635 29.8182 9.3818 29.891 9.74544C30.1091 10.3273 30.5455 10.6909 30.9819 10.6909C31.4182 10.6909 31.7819 10.3273 32.0728 9.74544C32.2182 9.3818 32.5819 9.23635 32.8728 9.30908C33.8182 9.52726 34.691 9.89089 35.6364 10.4727C35.9273 10.6182 36.0728 10.9818 35.9273 11.3454C35.7819 11.7091 35.6364 12.4363 36 12.8C36.291 13.0909 36.8728 13.0909 37.3819 12.8727C37.7455 12.7273 38.1091 12.8727 38.3273 13.1636C38.9091 14.1091 39.2728 14.9818 39.491 15.9273C39.5637 16.2909 39.4182 16.6545 39.0546 16.7273C38.4728 16.9454 38.1091 17.3818 38.1091 17.8182C38.1091 18.1818 38.4728 18.6182 39.1273 18.9091C39.491 19.0545 39.6364 19.4182 39.5637 19.7091C39.3455 20.8 38.9091 21.7454 38.3273 22.4727C38.1091 22.7636 37.7455 22.8364 37.4546 22.6909C37.1637 22.5454 36.5091 22.3273 36.0728 22.7636C35.7819 23.0545 35.7819 23.6364 36 24.1454C36.1455 24.5091 36 24.8727 35.7091 25.0909C34.7637 25.7454 33.8182 26.0364 32.8728 26.1818C32.5819 26.2545 32.2182 26.0364 32.0728 25.7454C31.7819 25.1636 31.3455 24.8 30.9819 24.8C30.6182 24.8 30.1819 25.1636 29.891 25.7454C29.7455 26.0364 29.5273 26.1818 29.2364 26.1818ZM30.9819 23.3454C31.7819 23.3454 32.5819 23.8545 33.091 24.6545C33.5273 24.5091 33.9637 24.3636 34.4 24.1454C34.1819 23.2727 34.4 22.3273 34.9819 21.7454C35.5637 21.1636 36.4364 20.9454 37.3819 21.1636C37.6 20.8 37.8182 20.3636 37.9637 19.8545C37.1637 19.3454 36.6546 18.5454 36.6546 17.7454C36.6546 16.8727 37.091 16.1454 37.891 15.6363C37.7455 15.2 37.6 14.7636 37.3091 14.3273C36.4364 14.5454 35.491 14.3273 34.9091 13.7454C34.4728 13.3091 34.1091 12.5818 34.3273 11.4182C33.891 11.2 33.4546 10.9818 33.0182 10.8363C32.5091 11.6363 31.7819 12.0727 30.9091 12.0727C30.0364 12.0727 29.3091 11.6363 28.8 10.8363C28.3637 10.9818 27.9273 11.1273 27.491 11.4182C27.7091 12.2909 27.491 13.2363 26.9091 13.8182C26.3273 14.4 25.4546 14.6182 24.5091 14.4C24.291 14.7636 24.0728 15.2 23.9273 15.7091C24.8 16.2182 25.2364 16.9454 25.2364 17.7454C25.2364 18.6182 24.8 19.3454 24 19.8545C24.1455 20.2909 24.291 20.7273 24.5819 21.1636C25.4546 20.9454 26.4 21.1636 26.9819 21.7454C27.491 22.3273 27.7091 23.2 27.491 24.0727C27.9273 24.2909 28.3637 24.5091 28.8728 24.6545C29.3819 23.7818 30.1819 23.3454 30.9819 23.3454Z" fill="#00A1A5"/>
<path d="M14.6181 20.5092C13.0909 20.5092 11.8545 19.2728 11.8545 17.7456C11.8545 16.2183 13.0909 14.9819 14.6181 14.9819C16.1454 14.9819 17.3818 16.2183 17.3818 17.7456C17.3818 19.2728 16.1454 20.5092 14.6181 20.5092ZM14.6181 16.4365C13.8909 16.4365 13.309 17.0183 13.309 17.7456C13.309 18.4728 13.8909 19.0547 14.6181 19.0547C15.3454 19.0547 15.9272 18.4728 15.9272 17.7456C15.9272 17.0183 15.3454 16.4365 14.6181 16.4365Z" fill="#00A1A5"/>
<path d="M15.8546 23.7819C15.5637 23.7819 15.2728 23.5637 15.2 23.3455C15.0546 23.0546 14.8364 22.8364 14.6182 22.8364C14.4 22.8364 14.1818 23.0546 14.0364 23.3455C13.8909 23.6364 13.5273 23.7819 13.2364 23.7092C12.4364 23.491 11.7818 23.2728 11.2 22.8364C10.9091 22.6182 10.8364 22.3273 10.9091 21.9637C11.0546 21.6001 10.9818 21.3092 10.9091 21.1637C10.7637 21.091 10.4728 21.091 10.1818 21.2364C9.89094 21.3819 9.5273 21.2364 9.30912 20.9455C8.94549 20.4364 8.65458 19.7819 8.43639 18.9819C8.36367 18.6182 8.50912 18.2546 8.87276 18.1092C9.16367 17.9637 9.38185 17.7455 9.38185 17.5273C9.38185 17.3092 9.16367 17.1637 8.87276 17.0182C8.50912 16.8728 8.36367 16.5092 8.43639 16.1455C8.58185 15.3455 8.87276 14.691 9.30912 14.1092C9.5273 13.8182 9.81821 13.7455 10.1818 13.8182C10.5455 13.9637 10.8364 13.9637 10.9091 13.8182C11.0546 13.6728 10.9818 13.3819 10.9091 13.091C10.7637 12.8001 10.9091 12.4364 11.2 12.2182C11.7818 11.8546 12.3637 11.5637 13.2364 11.3455C13.6 11.2728 13.9637 11.491 14.1091 11.7819C14.2546 12.0728 14.4728 12.291 14.6909 12.291C14.9091 12.291 15.1273 12.0728 15.2728 11.7819C15.4182 11.491 15.7818 11.3455 16.0728 11.4182C16.8728 11.6364 17.5273 11.8546 18.1091 12.291C18.4 12.5092 18.4728 12.8001 18.4 13.1637C18.2546 13.5273 18.2546 13.8182 18.4 13.891C18.5455 14.0364 18.8364 14.0364 19.0546 13.891C19.3455 13.7455 19.7818 13.8182 20 14.1092C20.3637 14.6182 20.6546 15.2728 20.8728 16.0728C20.9455 16.4364 20.8 16.8001 20.4364 16.9455C20.0728 17.091 19.9273 17.3092 19.9273 17.4546C19.9273 17.6001 20.0728 17.891 20.4364 18.0364C20.8 18.1819 20.9455 18.5455 20.8728 18.9092C20.6546 19.7092 20.4364 20.3637 20 20.9455C19.7818 21.2364 19.4909 21.3092 19.1273 21.2364C18.7637 21.091 18.4728 21.091 18.4 21.2364C18.2546 21.3819 18.3273 21.6728 18.4 21.9637C18.5455 22.2546 18.4 22.6182 18.1091 22.8364C17.5273 23.2001 16.9455 23.491 16.0728 23.7092C15.9273 23.7819 15.9273 23.7819 15.8546 23.7819ZM12.4364 21.9637C12.5818 22.0364 12.8 22.1092 13.0182 22.1819C13.4546 21.6728 13.9637 21.3819 14.6182 21.3819C15.2 21.3819 15.8546 21.6728 16.2182 22.1819C16.4364 22.1092 16.5818 22.0364 16.8 21.9637C16.6546 21.3092 16.8728 20.6546 17.3091 20.291C17.7455 19.8546 18.3273 19.7092 18.9818 19.7819C19.0546 19.6364 19.1273 19.4182 19.2 19.2001C18.6909 18.8364 18.4 18.1819 18.4 17.6001C18.4 17.0182 18.6909 16.4364 19.2 16.0728C19.1273 15.8546 19.0546 15.7092 18.9818 15.5637C18.3273 15.7092 17.7455 15.491 17.3091 15.0546C16.8728 14.6182 16.7273 14.0364 16.8 13.3819C16.6546 13.3092 16.4364 13.2364 16.2182 13.1637C15.7818 13.6728 15.2728 13.9637 14.6182 13.9637C14.0364 13.9637 13.3818 13.6728 13.0182 13.1637C12.8 13.2364 12.6546 13.3092 12.4364 13.3819C12.5818 14.0364 12.3637 14.691 11.9273 15.0546C11.4909 15.491 10.9091 15.6364 10.2546 15.5637C10.1818 15.7092 10.1091 15.9273 10.0364 16.0728C10.5455 16.4364 10.8364 17.0182 10.8364 17.6001C10.8364 18.1819 10.5455 18.7637 10.0364 19.2001C10.1091 19.4182 10.1818 19.5637 10.2546 19.7819C10.9091 19.6364 11.5637 19.8546 11.9273 20.291L12 20.3637C12.4364 20.8001 12.5818 21.3819 12.4364 21.9637Z" fill="#00A1A5"/>
</svg>
