<svg width="51" height="51" viewBox="0 0 51 51" fill="none" xmlns="http://www.w3.org/2000/svg">
<path d="M7 19.875L26.125 5L45.25 19.875V43.25C45.25 44.3771 44.8023 45.4581 44.0052 46.2552C43.2081 47.0523 42.1271 47.5 41 47.5H11.25C10.1228 47.5 9.04183 47.0523 8.2448 46.2552C7.44776 45.4581 7 44.3771 7 43.25V19.875Z" stroke="#00A1A5" stroke-width="2" stroke-linecap="round" stroke-linejoin="round"/>
<path d="M19.75 47.5V26.25H32.5V47.5" stroke="#00A1A5" stroke-width="2" stroke-linecap="round" stroke-linejoin="round"/>
<path d="M26.125 18.8125C27.8854 18.8125 29.3125 17.3854 29.3125 15.625C29.3125 13.8646 27.8854 12.4375 26.125 12.4375C24.3646 12.4375 22.9375 13.8646 22.9375 15.625C22.9375 17.3854 24.3646 18.8125 26.125 18.8125Z" fill="#00A1A5"/>
</svg>
