<svg width="64" height="64" viewBox="0 0 64 64" fill="none" xmlns="http://www.w3.org/2000/svg">
<path d="M50.6667 10.6665H13.3333C10.3878 10.6665 8 13.0543 8 15.9998V53.3332C8 56.2787 10.3878 58.6665 13.3333 58.6665H50.6667C53.6122 58.6665 56 56.2787 56 53.3332V15.9998C56 13.0543 53.6122 10.6665 50.6667 10.6665Z" stroke="#00A1A5" stroke-width="2"/>
<path d="M42.667 5.3335V16.0002" stroke="#00A1A5" stroke-width="2" stroke-linecap="round"/>
<path d="M21.333 5.3335V16.0002" stroke="#00A1A5" stroke-width="2" stroke-linecap="round"/>
<path d="M8 26.6665H56" stroke="#00A1A5" stroke-width="2" stroke-linecap="round"/>
<path d="M32.0003 48.0002C34.9458 48.0002 37.3337 45.6123 37.3337 42.6668C37.3337 39.7213 34.9458 37.3335 32.0003 37.3335C29.0548 37.3335 26.667 39.7213 26.667 42.6668C26.667 45.6123 29.0548 48.0002 32.0003 48.0002Z" stroke="#00A1A5" stroke-width="2"/>
</svg>
