<svg width="52" height="52" viewBox="0 0 52 52" fill="none" xmlns="http://www.w3.org/2000/svg">
<g clip-path="url(#clip0_4854_1547)">
<path d="M9.42211 17.9245C9.31785 17.9472 9.21909 17.9902 9.13145 18.0511C9.04382 18.112 8.96903 18.1895 8.91136 18.2793L0.128942 31.9484C0.0712635 32.0381 0.0318311 32.1384 0.0128961 32.2434C-0.00603897 32.3484 -0.00410585 32.4561 0.0185851 32.5604C0.041276 32.6646 0.0842803 32.7634 0.145143 32.851C0.206005 32.9387 0.283533 33.0135 0.373301 33.0711L7.52229 37.6645C7.61206 37.7222 7.71231 37.7616 7.81732 37.7805C7.92233 37.7995 8.03004 37.7975 8.1343 37.7748C8.23856 37.7521 8.33733 37.7091 8.42497 37.6482C8.5126 37.5874 8.58739 37.5098 8.64506 37.42L9.15003 36.6342L11.0577 38.5419C10.7311 38.9536 10.5272 39.4491 10.4696 39.9715C10.4119 40.4939 10.5028 41.0219 10.7317 41.4949C10.9606 41.968 11.3183 42.3669 11.7638 42.6458C12.2092 42.9247 12.7243 43.0723 13.2498 43.0716H13.2607C13.2586 43.4398 13.3294 43.8047 13.469 44.1454C13.6086 44.4861 13.8141 44.7959 14.0739 45.0568C14.3337 45.3177 14.6425 45.5246 14.9826 45.6657C15.3227 45.8068 15.6874 45.8791 16.0556 45.8787H16.0663C16.0644 46.2467 16.1352 46.6115 16.2748 46.9521C16.4145 47.2927 16.6201 47.6022 16.8799 47.8629C17.1397 48.1237 17.4485 48.3304 17.7886 48.4713C18.1286 48.6121 18.4932 48.6843 18.8612 48.6836H18.8721C18.87 49.2375 19.0323 49.7794 19.3386 50.2409C19.6449 50.7023 20.0813 51.0624 20.5925 51.2755C21.1036 51.4886 21.6666 51.5451 22.2099 51.4378C22.7533 51.3306 23.2526 51.0644 23.6444 50.673L24.8577 49.4598C25.0918 49.2259 25.2824 48.9522 25.4205 48.6514L27.6624 50.2533C28.1338 50.5918 28.6996 50.7738 29.28 50.7735C29.4365 50.7734 29.5928 50.7605 29.7472 50.7348C30.1095 50.6753 30.4564 50.5449 30.7682 50.351C31.0799 50.1571 31.3503 49.9036 31.5639 49.605C31.7774 49.3063 31.9299 48.9685 32.0125 48.6108C32.0951 48.2531 32.1063 47.8826 32.0455 47.5205C32.0449 47.5165 32.0439 47.5125 32.0432 47.5086C32.0472 47.5079 32.0512 47.5077 32.0551 47.5071C32.4183 47.4474 32.7662 47.3164 33.0785 47.1217C33.3909 46.927 33.6616 46.6723 33.8751 46.3725C34.0886 46.0726 34.2406 45.7335 34.3224 45.3746C34.4042 45.0157 34.4142 44.6442 34.3517 44.2814C34.3555 44.2808 34.3591 44.2806 34.3627 44.28C34.725 44.2206 35.072 44.0902 35.3838 43.8963C35.6955 43.7025 35.9659 43.4489 36.1795 43.1503C36.393 42.8517 36.5455 42.5138 36.6281 42.1561C36.7107 41.7984 36.7219 41.4279 36.661 41.0658C36.6603 41.0618 36.6593 41.0579 36.6586 41.0539C36.6626 41.0532 36.6666 41.053 36.6705 41.0524C37.3182 40.9463 37.9076 40.615 38.335 40.117C38.7624 39.619 39.0004 38.9861 39.0071 38.3298L42.8176 36.5843L43.3549 37.4205C43.4125 37.5102 43.4873 37.5878 43.5749 37.6486C43.6626 37.7095 43.7614 37.7525 43.8656 37.7752C43.9699 37.7979 44.0776 37.7999 44.1826 37.7809C44.2876 37.762 44.3879 37.7226 44.4776 37.6649L51.6266 33.0715C51.7164 33.0139 51.7939 32.9391 51.8548 32.8514C51.9156 32.7638 51.9586 32.665 51.9813 32.5608C52.004 32.4565 52.006 32.3488 51.987 32.2438C51.9681 32.1388 51.9286 32.0385 51.871 31.9488L43.0886 18.2793C43.0309 18.1895 42.9561 18.112 42.8684 18.0511C42.7808 17.9902 42.682 17.9472 42.5778 17.9245C42.4735 17.9019 42.3658 17.8999 42.2608 17.9189C42.1558 17.9378 42.0555 17.9772 41.9658 18.0349L34.8167 22.6283C34.6354 22.7447 34.5078 22.9284 34.462 23.139C34.4161 23.3495 34.4558 23.5697 34.5722 23.7509L34.8021 24.1088H24.7961C24.0055 24.098 23.221 24.2478 22.49 24.5491C21.7589 24.8504 21.0967 25.297 20.5433 25.8617L19.736 26.6634L16.6874 24.9033L17.4277 23.751C17.5441 23.5698 17.5838 23.3496 17.5379 23.1391C17.4921 22.9286 17.3645 22.7448 17.1832 22.6284L10.0343 18.0349C9.85295 17.9184 9.63275 17.8787 9.42211 17.9245ZM13.2498 41.4464C13.0181 41.447 12.7915 41.3788 12.5986 41.2504C12.4058 41.122 12.2555 40.9391 12.1667 40.7251C12.078 40.5111 12.0548 40.2756 12.1002 40.0484C12.1456 39.8212 12.2574 39.6126 12.4216 39.4491L14.077 37.7936C14.1857 37.6844 14.3149 37.5978 14.4571 37.5386C14.5993 37.4794 14.7518 37.4489 14.9059 37.4487C15.0599 37.4485 15.2125 37.4788 15.3549 37.5376C15.4972 37.5965 15.6266 37.6829 15.7355 37.7918C15.8444 37.9008 15.9308 38.0301 15.9896 38.1725C16.0485 38.3148 16.0787 38.4674 16.0786 38.6214C16.0784 38.7755 16.0478 38.928 15.9886 39.0702C15.9294 39.2124 15.8428 39.3416 15.7336 39.4503L14.0781 41.1057C13.9695 41.2145 13.8403 41.3006 13.6981 41.3591C13.5559 41.4176 13.4036 41.4473 13.2498 41.4465V41.4464ZM15.2272 43.9113C15.0079 43.6915 14.8847 43.3936 14.8847 43.083C14.8847 42.7725 15.0079 42.4746 15.2272 42.2547L16.8818 40.6001L16.8828 40.5992L16.8847 40.5972L18.5384 38.9435C18.6471 38.8347 18.7763 38.7484 18.9184 38.6895C19.0605 38.6306 19.2128 38.6003 19.3667 38.6003C19.5205 38.6003 19.6729 38.6306 19.815 38.6895C19.9571 38.7483 20.0863 38.8346 20.1951 38.9434C20.3038 39.0522 20.3901 39.1813 20.449 39.3234C20.5079 39.4655 20.5382 39.6179 20.5382 39.7717C20.5382 39.9255 20.5079 40.0779 20.4491 40.22C20.3902 40.3621 20.3039 40.4913 20.1952 40.6001L16.8842 43.911C16.6644 44.1306 16.3665 44.2539 16.0558 44.254C15.7451 44.2541 15.4471 44.1309 15.2272 43.9114V43.9113ZM18.8612 47.0578C18.6296 47.0584 18.4029 46.9902 18.2101 46.8618C18.0172 46.7334 17.8669 46.5506 17.7782 46.3366C17.6894 46.1225 17.6663 45.887 17.7116 45.6598C17.757 45.4326 17.8689 45.224 18.033 45.0605L20.2312 42.8621H20.2319C20.4516 42.6424 20.7495 42.519 21.0602 42.519C21.3708 42.519 21.6688 42.6424 21.8885 42.862C22.1081 43.0817 22.2316 43.3796 22.2316 43.6903C22.2316 44.0009 22.1082 44.2989 21.8885 44.5186L19.6894 46.7177C19.5807 46.8263 19.4515 46.9123 19.3094 46.9707C19.1672 47.0291 19.0149 47.0588 18.8612 47.0579V47.0578ZM23.7085 48.3095L22.4952 49.5227C22.2756 49.7425 21.9777 49.866 21.667 49.8661C21.3563 49.8662 21.0583 49.7429 20.8385 49.5233C20.6187 49.3037 20.4952 49.0057 20.4951 48.695C20.495 48.3843 20.6183 48.0863 20.8379 47.8666L20.8387 47.866L22.0503 46.6542L22.0519 46.6528C22.2716 46.4331 22.5695 46.3097 22.8802 46.3097C23.1908 46.3097 23.4888 46.4331 23.7085 46.6527C23.9281 46.8724 24.0515 47.1703 24.0516 47.481C24.0516 47.7917 23.9282 48.0896 23.7085 48.3093V48.3095ZM42.1606 19.8415L50.0647 32.1435L44.2828 35.8584L36.3785 23.5564L42.1606 19.8415ZM21.6883 27.0149C22.0908 26.5996 22.5743 26.2715 23.109 26.0511C23.6437 25.8307 24.2179 25.7228 24.7961 25.7339H35.8461L41.9297 35.2029L38.5442 36.7539C38.3561 36.4683 38.1169 36.2199 37.8387 36.021L29.6201 30.1421C28.9323 29.6431 28.1064 29.3704 27.2568 29.3615C26.4072 29.3526 25.5758 29.6081 24.8778 30.0926L21.8643 32.1548C21.4145 32.475 20.8827 32.66 20.3313 32.6882C19.7799 32.7164 19.232 32.5866 18.7518 32.314L17.9232 31.8635C17.8394 31.8179 17.7674 31.7534 17.713 31.6751C17.6586 31.5968 17.6232 31.5068 17.6097 31.4124C17.5962 31.318 17.6049 31.2217 17.6352 31.1313C17.6655 31.0408 17.7165 30.9587 17.7842 30.8915L21.6883 27.0149ZM18.5412 27.8499L16.6392 29.739C16.3919 29.9846 16.2053 30.2847 16.0945 30.6153C15.9837 30.9458 15.9517 31.2977 16.001 31.6428C16.0504 31.9879 16.1797 32.3168 16.3787 32.603C16.5776 32.8893 16.8408 33.1251 17.1471 33.2916L17.9758 33.7422C18.7192 34.1565 19.5643 34.3532 20.4142 34.3097C21.2642 34.2663 22.0848 33.9845 22.7821 33.4965L25.7959 31.4337C26.218 31.1352 26.7235 30.9775 27.2405 30.983C27.7575 30.9884 28.2595 31.1568 28.6752 31.4642L36.8938 37.3431C37.1466 37.5237 37.3173 37.7973 37.3683 38.1037C37.4194 38.4102 37.3466 38.7244 37.166 38.9772C36.9855 39.23 36.7118 39.4007 36.4054 39.4518C36.0989 39.5028 35.7847 39.4301 35.5319 39.2495H35.5313L29.5411 34.9664C29.3658 34.8411 29.1479 34.7905 28.9353 34.8258C28.7228 34.8612 28.5329 34.9795 28.4076 35.1548C28.2823 35.3301 28.2317 35.548 28.267 35.7606C28.3024 35.9732 28.4207 36.163 28.596 36.2883L34.585 40.5707L34.5859 40.5714H34.5866C34.8379 40.7527 35.0072 41.0262 35.0574 41.332C35.1075 41.6379 35.0345 41.9511 34.8541 42.2032C34.6738 42.4552 34.4009 42.6256 34.0953 42.6769C33.7896 42.7281 33.4761 42.6562 33.2234 42.4768L28.7088 39.2487C28.622 39.1866 28.5239 39.1422 28.4199 39.1181C28.316 39.094 28.2083 39.0906 28.103 39.1081C27.9978 39.1256 27.897 39.1636 27.8064 39.2201C27.7159 39.2765 27.6373 39.3502 27.5752 39.437C27.5132 39.5238 27.4688 39.622 27.4447 39.7259C27.4206 39.8299 27.4172 39.9376 27.4346 40.0428C27.4521 40.1481 27.4902 40.2489 27.5466 40.3394C27.6031 40.43 27.6768 40.5085 27.7636 40.5706L32.2781 43.7987C32.5229 43.9824 32.686 44.2546 32.7327 44.557C32.7793 44.8594 32.7058 45.1681 32.5278 45.417C32.3498 45.6659 32.0814 45.8353 31.7801 45.8889C31.4788 45.9425 31.1685 45.876 30.9156 45.7038L27.9044 43.5507C27.7291 43.4253 27.5112 43.3747 27.2986 43.41C27.086 43.4454 26.8962 43.5637 26.7708 43.739C26.6455 43.9142 26.5949 44.1321 26.6302 44.3447C26.6655 44.5573 26.7838 44.7472 26.9591 44.8725L29.9704 47.0256C30.2206 47.2073 30.3888 47.4805 30.4384 47.7857C30.4879 48.0909 30.4148 48.4033 30.235 48.6548C30.0551 48.9063 29.7832 49.0765 29.4783 49.1283C29.1735 49.1801 28.8606 49.1093 28.6078 48.9313L25.65 46.8165C25.6287 46.8014 25.6069 46.7876 25.5848 46.7748C25.462 46.3015 25.2169 45.8689 24.874 45.5204C24.5311 45.1719 24.1026 44.9197 23.6314 44.7892C23.7861 44.4279 23.8629 44.038 23.8566 43.645C23.8504 43.252 23.7613 42.8648 23.5952 42.5086C23.4292 42.1524 23.1898 41.8352 22.8928 41.5777C22.5958 41.3203 22.2478 41.1284 21.8716 41.0146C22.1591 40.4355 22.2369 39.7746 22.0919 39.1445C21.9468 38.5144 21.5879 37.954 21.0761 37.5589C20.5644 37.1637 19.9315 36.9581 19.2852 36.9771C18.6389 36.9961 18.0191 37.2385 17.5315 37.6631C17.3706 37.2215 17.1009 36.8276 16.7474 36.5178C16.394 36.2081 15.9681 35.9924 15.5092 35.8909C15.0503 35.7894 14.5732 35.8052 14.122 35.937C13.6709 36.0687 13.2602 36.3121 12.9281 36.6446L12.1932 37.3794L10.0491 35.2349L15.8077 26.2718L18.5412 27.8499ZM7.71708 35.8581L1.93523 32.1432L9.83933 19.8412L15.6214 23.5564L7.71708 35.8581ZM29.8577 0.511719H22.1422C21.8103 0.512095 21.4921 0.644094 21.2575 0.87876C21.0228 1.11343 20.8908 1.4316 20.8903 1.76348V3.83677H16.3758C15.8698 3.83737 15.3847 4.03862 15.027 4.3964C14.6692 4.75418 14.4679 5.23926 14.4673 5.74523V18.6916C14.4679 19.1976 14.6691 19.6827 15.0269 20.0405C15.3847 20.3983 15.8698 20.5996 16.3758 20.6002H35.6241C36.1301 20.5996 36.6152 20.3983 36.973 20.0405C37.3308 19.6827 37.532 19.1976 37.5326 18.6916V5.74523C37.532 5.23926 37.3307 4.75418 36.973 4.3964C36.6152 4.03862 36.1301 3.83737 35.6241 3.83677H31.1096V1.76348C31.1092 1.4316 30.9771 1.11343 30.7425 0.87876C30.5078 0.644094 30.1896 0.512095 29.8577 0.511719ZM22.5153 2.13672H29.4846V3.83677H22.5153V2.13672ZM35.6241 18.9752H16.3758C16.3009 18.9742 16.2294 18.944 16.1764 18.891C16.1235 18.838 16.0933 18.7665 16.0923 18.6916V10.1065L25.7168 13.6847C25.8995 13.7527 26.1005 13.7527 26.2831 13.6847L35.9076 10.1065V18.6916C35.9066 18.7665 35.8764 18.838 35.8235 18.891C35.7705 18.944 35.699 18.9742 35.6241 18.9752ZM35.9076 5.74523V8.37286L26 12.0563L16.0923 8.37296V5.74523C16.0934 5.67038 16.1236 5.59887 16.1765 5.54593C16.2294 5.49299 16.3009 5.4628 16.3758 5.46177H35.6241C35.699 5.4628 35.7705 5.49299 35.8234 5.54593C35.8764 5.59887 35.9066 5.67038 35.9076 5.74523Z" fill="#00A1A5"/>
</g>
<defs>
<clipPath id="clip0_4854_1547">
<rect width="52" height="52" fill="white"/>
</clipPath>
</defs>
</svg>
