<svg width="35" height="43" viewBox="0 0 35 43" fill="none" xmlns="http://www.w3.org/2000/svg">
<path d="M13.8246 3.17457C13.8246 3.01894 13.8882 2.86969 14.0014 2.75964C14.1146 2.6496 14.2682 2.58777 14.4283 2.58777H14.4503C14.6092 2.58962 14.7609 2.65226 14.8726 2.76212C14.9843 2.87197 15.0469 3.02018 15.0469 3.17462C15.0469 3.32905 14.9843 3.47726 14.8726 3.58711C14.7609 3.69697 14.6092 3.75961 14.4503 3.76146H14.4283C14.349 3.76146 14.2705 3.74628 14.1972 3.71678C14.124 3.68729 14.0574 3.64406 14.0014 3.58956C13.9453 3.53506 13.9008 3.47036 13.8705 3.39916C13.8401 3.32795 13.8245 3.25164 13.8246 3.17457ZM10.3965 8.66799H18.4821C18.6423 8.66799 18.7958 8.60617 18.909 8.49612C19.0223 8.38608 19.0859 8.23682 19.0859 8.08119C19.0859 7.92556 19.0223 7.77631 18.909 7.66626C18.7958 7.55622 18.6423 7.49439 18.4821 7.49439H10.3965C10.2364 7.49439 10.0828 7.55622 9.96958 7.66626C9.85636 7.77631 9.79275 7.92556 9.79275 8.08119C9.79275 8.23682 9.85636 8.38608 9.96958 8.49612C10.0828 8.60617 10.2364 8.66799 10.3965 8.66799ZM35 35.1092C35.0012 36.6351 34.5468 38.1284 33.692 39.4083C32.8373 40.6881 31.6188 41.6994 30.1844 42.3195C28.7499 42.9396 27.1612 43.1419 25.6109 42.9018C24.0605 42.6617 22.6152 41.9895 21.4501 40.9669H2.93794C1.31784 40.9669 0 39.6495 0 38.0303V7.72409C0 6.10487 1.31801 4.78758 2.93794 4.78758H7.55543C7.7365 4.20388 8.10593 3.69225 8.60914 3.32828C9.11235 2.96431 9.72266 2.76729 10.3499 2.76632H11.0434C11.1853 1.99092 11.6035 1.28878 12.2246 0.782986C12.8458 0.277189 13.6302 0 14.4406 0C15.2509 0 16.0354 0.277189 16.6565 0.782986C17.2776 1.28878 17.6958 1.99092 17.8377 2.76632H18.529C19.1562 2.76727 19.7666 2.96428 20.2698 3.32826C20.773 3.69223 21.1425 4.20386 21.3236 4.78758H25.941C27.5611 4.78758 28.8789 6.10487 28.8789 7.72409V27.4622C30.6277 27.8957 32.1784 28.8825 33.2867 30.267C34.3949 31.6515 34.9977 33.3551 35 35.1092ZM25.9406 5.96118H21.4473V7.49439H24.7675C25.1192 7.49477 25.4563 7.6307 25.7049 7.87237C25.9536 8.11403 26.0935 8.44169 26.0939 8.78347V27.2582C26.3539 27.2337 26.6173 27.2212 26.8839 27.2208C27.1495 27.2208 27.4122 27.2337 27.6713 27.258V7.72409C27.6712 6.75231 26.8949 5.96118 25.9406 5.96118ZM18.765 35.1092C18.7676 33.3552 19.3705 31.6518 20.4787 30.2675C21.587 28.8831 23.1376 27.8964 24.8862 27.4629V8.78347C24.8854 8.75308 24.8727 8.72416 24.8506 8.70266C24.8284 8.68117 24.7987 8.66876 24.7674 8.66799H21.4472V9.70478C21.4468 10.0466 21.3069 10.3743 21.0583 10.6159C20.8096 10.8576 20.4725 10.9936 20.1208 10.9939H8.75782C8.40616 10.9936 8.06901 10.8576 7.82035 10.6159C7.57169 10.3743 7.43182 10.0466 7.43143 9.70478V8.66799H4.11329C4.08163 8.66816 4.05128 8.68031 4.02869 8.70187C4.0061 8.72344 3.99305 8.75271 3.99231 8.78347V36.9709C3.99305 37.0017 4.0061 37.0309 4.02869 37.0525C4.05128 37.0741 4.08163 37.0862 4.11329 37.0864H19.0232C18.8513 36.4406 18.7646 35.7762 18.765 35.1092ZM8.63901 9.70478C8.63979 9.73516 8.65257 9.76409 8.67468 9.78559C8.69679 9.80708 8.72656 9.81949 8.75782 9.82026H20.1207C20.1521 9.81984 20.1821 9.80755 20.2043 9.78598C20.2265 9.76441 20.2391 9.73528 20.2395 9.70478V5.60525C20.2393 5.16407 20.0591 4.74098 19.7383 4.4288C19.4176 4.11661 18.9825 3.94083 18.5286 3.94001H17.2868C17.2075 3.94002 17.129 3.92485 17.0557 3.89536C16.9825 3.86587 16.9159 3.82264 16.8598 3.76814C16.8038 3.71364 16.7593 3.64894 16.7289 3.57773C16.6986 3.50652 16.683 3.4302 16.683 3.35312C16.6757 2.7798 16.4362 2.23237 16.0165 1.82946C15.5968 1.42655 15.0306 1.20062 14.4407 1.20062C13.8507 1.20062 13.2846 1.42655 12.8648 1.82946C12.4451 2.23237 12.2056 2.7798 12.1983 3.35312C12.1983 3.43019 12.1827 3.5065 12.1524 3.57771C12.1221 3.64891 12.0776 3.71361 12.0215 3.76811C11.9655 3.82261 11.8989 3.86584 11.8256 3.89533C11.7524 3.92483 11.6739 3.94001 11.5946 3.94001H10.3503C9.89634 3.94081 9.46127 4.11658 9.14052 4.42877C8.81977 4.74096 8.63953 5.16406 8.63935 5.60525L8.63901 9.70478ZM2.93794 39.7932H20.3544C19.9918 39.3171 19.6854 38.8028 19.4412 38.2601H4.11363C3.76166 38.26 3.42409 38.1242 3.17497 37.8825C2.92586 37.6408 2.78555 37.313 2.78482 36.9709V8.78347C2.78555 8.44138 2.92587 8.11355 3.17498 7.87188C3.42409 7.63022 3.76166 7.49446 4.11363 7.49439H7.43177V5.96118H2.93846C1.98423 5.96118 1.20792 6.75206 1.20792 7.72409V38.0303C1.20741 39.0023 1.98371 39.7932 2.93794 39.7932ZM33.7924 35.1092C33.7922 33.7809 33.3867 32.4825 32.6272 31.3782C31.8678 30.2739 30.7884 29.4132 29.5257 28.9051C28.263 28.397 26.8736 28.2642 25.5332 28.5236C24.1929 28.783 22.9618 29.4228 21.9956 30.3622C21.0293 31.3016 20.3715 32.4984 20.1051 33.8013C19.8387 35.1041 19.9758 36.4544 20.499 37.6815C21.0222 38.9086 21.9081 39.9574 23.0446 40.6951C24.1811 41.4329 25.5171 41.8265 26.8838 41.8263C28.7158 41.8242 30.4722 41.1158 31.7675 39.8565C33.0627 38.5972 33.791 36.8899 33.7924 35.1092ZM30.2559 32.1302L25.4064 36.8439L23.5089 35.0011C23.3956 34.8911 23.242 34.8294 23.0819 34.8294C22.9217 34.8295 22.7682 34.8914 22.655 35.0015C22.5418 35.1116 22.4783 35.2609 22.4784 35.4165C22.4784 35.5722 22.5421 35.7214 22.6554 35.8314L24.9798 38.0884C25.093 38.1984 25.2466 38.2602 25.4066 38.2602C25.5667 38.2602 25.7202 38.1984 25.8335 38.0884L31.1096 32.9603C31.2219 32.8501 31.2848 32.7011 31.2844 32.546C31.284 32.3908 31.2204 32.2421 31.1076 32.1324C30.9947 32.0227 30.8417 31.9609 30.6821 31.9605C30.5224 31.9602 30.3692 32.0213 30.2557 32.1305L30.2559 32.1302ZM17.8856 21.5869V12.6732C17.8856 12.5961 17.9013 12.5198 17.9316 12.4486C17.962 12.3774 18.0064 12.3127 18.0625 12.2582C18.1186 12.2038 18.1852 12.1605 18.2584 12.1311C18.3317 12.1016 18.4102 12.0864 18.4895 12.0864H20.9536C21.1138 12.0864 21.2673 12.1482 21.3805 12.2583C21.4938 12.3683 21.5574 12.5176 21.5574 12.6732V21.5869C21.5574 21.7425 21.4938 21.8918 21.3805 22.0018C21.2673 22.1119 21.1138 22.1737 20.9536 22.1737H18.4895C18.4102 22.1737 18.3317 22.1585 18.2584 22.129C18.1852 22.0996 18.1186 22.0563 18.0625 22.0019C18.0064 21.9474 17.962 21.8827 17.9316 21.8115C17.9013 21.7403 17.8856 21.664 17.8856 21.5869ZM19.0932 21H20.3498V13.2604H19.0932V21ZM12.6046 21.5869V14.5614C12.6046 14.4844 12.6202 14.408 12.6506 14.3368C12.6809 14.2656 12.7254 14.201 12.7815 14.1465C12.8376 14.092 12.9041 14.0488 12.9774 14.0193C13.0506 13.9898 13.1292 13.9746 13.2084 13.9746H15.6701C15.7494 13.9746 15.8279 13.9898 15.9012 14.0193C15.9744 14.0488 16.041 14.092 16.0971 14.1465C16.1531 14.201 16.1976 14.2656 16.228 14.3368C16.2583 14.408 16.2739 14.4844 16.2739 14.5614V21.5869C16.2739 21.664 16.2583 21.7403 16.228 21.8115C16.1976 21.8827 16.1531 21.9474 16.0971 22.0019C16.041 22.0563 15.9744 22.0996 15.9012 22.129C15.8279 22.1585 15.7494 22.1737 15.6701 22.1737H13.2084C13.1292 22.1737 13.0506 22.1585 12.9774 22.129C12.9041 22.0996 12.8376 22.0563 12.7815 22.0019C12.7254 21.9474 12.6809 21.8827 12.6506 21.8115C12.6202 21.7403 12.6046 21.664 12.6046 21.5869ZM13.8122 21H15.0663V15.1483H13.8122V21ZM7.32367 21.5869V16.4517C7.32367 16.3746 7.33929 16.2983 7.36964 16.2271C7.39999 16.1559 7.44447 16.0912 7.50054 16.0367C7.55661 15.9822 7.62318 15.939 7.69644 15.9095C7.7697 15.88 7.84821 15.8649 7.92751 15.8649H10.3891C10.4684 15.8649 10.5469 15.88 10.6201 15.9095C10.6934 15.939 10.76 15.9822 10.816 16.0367C10.8721 16.0912 10.9166 16.1559 10.9469 16.2271C10.9773 16.2983 10.9929 16.3746 10.9929 16.4517V21.5869C10.9929 21.664 10.9773 21.7403 10.9469 21.8115C10.9166 21.8827 10.8721 21.9474 10.816 22.0019C10.76 22.0563 10.6934 22.0996 10.6201 22.129C10.5469 22.1585 10.4684 22.1737 10.3891 22.1737H7.92751C7.84821 22.1737 7.7697 22.1585 7.69644 22.129C7.62318 22.0996 7.55661 22.0563 7.50054 22.0019C7.44447 21.9474 7.39999 21.8827 7.36964 21.8115C7.33929 21.7403 7.32367 21.664 7.32367 21.5869ZM8.53125 21H9.78532V17.0385H8.53125V21ZM7.92751 25.071H20.9536C21.1125 25.0691 21.2642 25.0065 21.3759 24.8966C21.4876 24.7868 21.5502 24.6386 21.5502 24.4841C21.5502 24.3297 21.4876 24.1815 21.3759 24.0716C21.2642 23.9618 21.1125 23.8991 20.9536 23.8973H7.92751C7.84761 23.8964 7.76831 23.9109 7.69422 23.9399C7.62013 23.969 7.55271 24.0121 7.49587 24.0667C7.43903 24.1213 7.39391 24.1863 7.36311 24.2579C7.33231 24.3296 7.31645 24.4065 7.31645 24.4841C7.31645 24.5618 7.33231 24.6387 7.36311 24.7104C7.39391 24.782 7.43903 24.847 7.49587 24.9016C7.55271 24.9562 7.62013 24.9993 7.69422 25.0283C7.76831 25.0574 7.84761 25.0719 7.92751 25.071ZM21.5574 27.3506C21.5574 27.2735 21.5418 27.1972 21.5114 27.126C21.4811 27.0548 21.4366 26.9901 21.3806 26.9356C21.3245 26.8811 21.2579 26.8379 21.1847 26.8084C21.1114 26.7789 21.0329 26.7637 20.9536 26.7637H7.92751C7.84761 26.7628 7.76831 26.7773 7.69422 26.8063C7.62013 26.8354 7.55271 26.8785 7.49587 26.9331C7.43903 26.9876 7.39391 27.0527 7.36311 27.1243C7.33231 27.196 7.31645 27.2729 7.31645 27.3505C7.31645 27.4282 7.33231 27.5051 7.36311 27.5767C7.39391 27.6484 7.43903 27.7134 7.49587 27.768C7.55271 27.8226 7.62013 27.8657 7.69422 27.8947C7.76831 27.9238 7.84761 27.9383 7.92751 27.9374H20.9536C21.1138 27.9374 21.2673 27.8755 21.3805 27.7655C21.4938 27.6555 21.5574 27.5062 21.5574 27.3506ZM16.4246 29.6301H7.92751C7.76738 29.6301 7.61382 29.6919 7.50059 29.8019C7.38737 29.912 7.32376 30.0612 7.32376 30.2169C7.32376 30.3725 7.38737 30.5218 7.50059 30.6318C7.61382 30.7418 7.76738 30.8037 7.92751 30.8037H16.4245C16.5847 30.8037 16.7382 30.7418 16.8515 30.6318C16.9647 30.5218 17.0283 30.3725 17.0283 30.2169C17.0283 30.0612 16.9647 29.912 16.8515 29.8019C16.7382 29.6919 16.5847 29.6301 16.4245 29.6301H16.4246ZM16.4246 32.4939H7.92751C7.76738 32.4939 7.61382 32.5558 7.50059 32.6658C7.38737 32.7759 7.32376 32.9251 7.32376 33.0807C7.32376 33.2364 7.38737 33.3856 7.50059 33.4957C7.61382 33.6057 7.76738 33.6675 7.92751 33.6675H16.4245C16.5847 33.6675 16.7382 33.6057 16.8515 33.4957C16.9647 33.3856 17.0283 33.2364 17.0283 33.0807C17.0283 32.9251 16.9647 32.7759 16.8515 32.6658C16.7382 32.5558 16.5847 32.4939 16.4245 32.4939H16.4246Z" fill="#00A1A5"/>
</svg>
