<svg width="49" height="36" viewBox="0 0 49 36" fill="none" xmlns="http://www.w3.org/2000/svg">
<path d="M0.5 18.5864H14.0481V35.4967H0.5V18.5864Z" stroke="#00A1A5" stroke-miterlimit="10" stroke-linecap="round" stroke-linejoin="round"/>
<path d="M39.5875 21.4601V18.5947H0.5V15.9116H42.2541" stroke="#00A1A5" stroke-miterlimit="10" stroke-linecap="round" stroke-linejoin="round"/>
<path d="M42.2705 25.2773V35.4964H39.5874V25.2773" stroke="#00A1A5" stroke-miterlimit="10" stroke-linecap="round" stroke-linejoin="round"/>
<path d="M19.3481 0.5H40.1506V12.0772H19.3481V0.5Z" stroke="#00A1A5" stroke-miterlimit="10" stroke-linecap="round" stroke-linejoin="round"/>
<path d="M28.1593 12.0771C28.1593 12.0771 28.4823 14.3959 27.2815 15.9114" stroke="#00A1A5" stroke-miterlimit="10" stroke-linecap="round" stroke-linejoin="round"/>
<path d="M31.4221 12.0771C31.4221 12.0771 31.0991 14.3959 32.2999 15.9114" stroke="#00A1A5" stroke-miterlimit="10" stroke-linecap="round" stroke-linejoin="round"/>
<path d="M47.8109 4.81443L45.0284 23.381C44.8627 24.4741 43.927 25.2774 42.8255 25.2774H29.9399C29.3685 25.2774 28.8965 24.8136 28.8965 24.234V23.6129C28.8965 22.4286 29.8654 21.4515 31.0579 21.4515H40.6062C41.0782 21.4515 41.4757 21.1036 41.5502 20.6399L44.0098 4.24302C44.1588 3.25755 45.078 2.57849 46.0635 2.72755L46.2954 2.76068C47.2809 2.90974 47.9599 3.82896 47.8109 4.81443Z" stroke="#00A1A5" stroke-miterlimit="10" stroke-linecap="round" stroke-linejoin="round"/>
<path d="M31.0661 35.4963C31.0661 35.4963 30.7514 30.0142 36.4572 30.0142C42.163 30.0142 42.2706 35.4963 42.2706 35.4963" stroke="#00A1A5" stroke-miterlimit="10" stroke-linecap="round" stroke-linejoin="round"/>
<path d="M36.4902 35.4964V25.2773" stroke="#00A1A5" stroke-miterlimit="10" stroke-linecap="round" stroke-linejoin="round"/>
<path d="M2.30542 12.748H16.2428V15.9115H2.30542V12.748Z" stroke="#00A1A5" stroke-miterlimit="10" stroke-linecap="round" stroke-linejoin="round"/>
<path d="M0.5 9.57617H14.4373V12.7396H0.5V9.57617Z" stroke="#00A1A5" stroke-miterlimit="10" stroke-linecap="round" stroke-linejoin="round"/>
<path d="M2.30542 6.4126H16.2428V9.57604H2.30542V6.4126Z" stroke="#00A1A5" stroke-miterlimit="10" stroke-linecap="round" stroke-linejoin="round"/>
<path d="M0.971924 3.08398H14.9093V6.24742H0.971924V3.08398Z" stroke="#00A1A5" stroke-miterlimit="10" stroke-linecap="round" stroke-linejoin="round"/>
<path d="M7.27417 18.5864V35.4967" stroke="#00A1A5" stroke-miterlimit="10" stroke-linecap="round" stroke-linejoin="round"/>
</svg>
