<svg width="49" height="47" viewBox="0 0 49 47" fill="none" xmlns="http://www.w3.org/2000/svg">
<mask id="mask0_4854_1550" style="mask-type:luminance" maskUnits="userSpaceOnUse" x="0" y="0" width="48" height="47">
<path d="M0.797607 0H47.8376V47H0.797607V0Z" fill="white"/>
</mask>
<g mask="url(#mask0_4854_1550)">
<path d="M39.7356 21.665C36.7799 21.665 33.5596 20.4117 30.4844 17.3391C24.2516 11.1116 25.502 4.28679 29.5044 0.287875C29.6866 0.103792 29.9356 0 30.1962 0C33.7674 0 37.5188 2.01512 41.6701 6.16092C45.8214 10.3067 47.8362 14.0569 47.8362 17.625C47.8362 17.8855 47.7324 18.1342 47.5501 18.3183C45.5215 20.3432 42.7677 21.665 39.7356 21.665ZM30.6039 1.97008C27.7266 5.09363 26.4115 10.4986 31.8701 15.9545C37.3306 21.4105 42.7402 20.0964 45.8664 17.2196C45.7038 14.3389 43.828 11.0881 40.2844 7.54742C36.7407 4.00675 33.4851 2.13263 30.6039 1.97008Z" fill="#00A1A5"/>
<path d="M46.858 18.6042C43.9317 18.6042 38.7848 15.839 35.3842 12.4433C31.9836 9.0475 29.218 3.90296 29.218 0.979167C29.218 0.438667 29.6553 0 30.1963 0C30.7372 0 31.178 0.438667 31.178 0.979167C31.178 3.102 33.4751 7.76479 36.7719 11.0568C40.0686 14.3487 44.7334 16.6458 46.858 16.6458C47.399 16.6458 47.8363 17.0845 47.8363 17.625C47.8363 18.1655 47.399 18.6042 46.858 18.6042Z" fill="#00A1A5"/>
<path d="M28.0174 29.8135C26.4965 29.8135 24.3542 28.8363 21.667 26.1514C17.5433 22.0311 17.4453 19.1935 18.7271 17.9127L26.567 10.0794C26.9492 9.6975 27.5706 9.6975 27.9528 10.0794C28.335 10.4612 28.335 11.082 27.9528 11.4639L20.1128 19.2972C19.7149 19.6948 19.905 21.6218 23.0528 24.7669C26.2005 27.912 28.1272 28.1019 28.5271 27.7044L36.3671 19.871C36.7493 19.4892 37.3706 19.4892 37.7528 19.871C38.135 20.2529 38.135 20.8737 37.7528 21.2556L29.9128 29.0889C29.4639 29.5354 28.8289 29.8135 28.0174 29.8135Z" fill="#00A1A5"/>
<path d="M26.2347 41.9242C22.6401 41.9242 17.7264 37.8802 13.828 33.9851C8.8182 28.9796 3.55952 22.2978 6.96796 18.8922C11.0487 14.815 18.0322 15.8333 20.1136 17.9131C20.4958 18.2949 20.4951 18.9157 20.1129 19.2976C19.7307 19.6795 19.1102 19.6795 18.728 19.2976C17.5206 18.0913 11.8013 16.8321 8.35368 20.2768C6.66612 21.9629 9.29448 26.6844 15.2137 32.6006C21.1348 38.5167 25.8623 41.1369 27.5479 39.4547C30.9956 36.01 29.7353 30.2956 28.5279 29.0893C28.1457 28.7074 28.1449 28.0866 28.5271 27.7047C28.9093 27.3229 29.5314 27.3229 29.9136 27.7047C31.9971 29.7864 33.0144 36.762 28.9336 40.8393C28.179 41.5932 27.2598 41.9242 26.2347 41.9242Z" fill="#00A1A5"/>
<path d="M1.77911 47.0001C1.52823 47.0001 1.27539 46.9022 1.08527 46.7142C0.744227 46.3735 0.701107 45.833 0.987267 45.4433L11.7673 30.7558C12.0867 30.3191 12.7002 30.2251 13.1373 30.5462C13.5744 30.8674 13.6685 31.4804 13.347 31.9151L6.33414 41.4698L15.897 34.4629C16.3341 34.1417 16.9456 34.2377 17.267 34.6724C17.5865 35.1091 17.4924 35.7221 17.0573 36.0413L2.3573 46.8121C2.18482 46.9375 1.98294 47.0001 1.77911 47.0001Z" fill="#00A1A5"/>
</g>
</svg>
