<svg width="52" height="52" viewBox="0 0 52 52" fill="none" xmlns="http://www.w3.org/2000/svg">
<path d="M49.8016 33.9303C48.8226 32.7797 47.5704 31.906 46.1798 31.3825C47.39 30.2229 48.1445 28.6003 48.1445 26.8059C48.1445 23.2905 45.2532 20.4305 41.6993 20.4305C38.1455 20.4305 35.2543 23.2905 35.2543 26.8059C35.2543 28.6 36.0085 30.2222 37.2183 31.3818C34.3489 32.4605 32.2132 34.993 31.6493 38.0173C31.2734 37.8088 30.8829 37.6278 30.4805 37.4763C31.6909 36.3166 32.4453 34.6941 32.4453 32.8997C32.4453 29.3843 29.554 26.5243 26.0001 26.5243C22.4462 26.5243 19.5549 29.3843 19.5549 32.8997C19.5549 34.6941 20.3095 36.3166 21.5197 37.4763C21.1173 37.6277 20.7268 37.8087 20.3509 38.0173C19.787 34.993 17.6513 32.4606 14.782 31.3818C15.9918 30.2222 16.746 28.5999 16.746 26.8059C16.746 23.2905 13.8548 20.4305 10.3009 20.4305C6.747 20.4305 3.85572 23.2905 3.85572 26.8059C3.85572 28.6003 4.61023 30.2229 5.82045 31.3825C4.42985 31.9059 3.17769 32.7797 2.19863 33.9302C0.84632 35.5194 0.101562 37.5379 0.101562 39.6142V44.1366C0.101562 44.5573 0.442609 44.8984 0.863281 44.8984H15.8394C15.8143 45.1667 15.8009 45.4367 15.8009 45.7079V50.2304C15.8009 50.6511 16.1419 50.9921 16.5626 50.9921H35.4374C35.8581 50.9921 36.1991 50.6511 36.1991 50.2304V45.7079C36.1991 45.4367 36.1857 45.1667 36.1606 44.8984H51.1367C51.5574 44.8984 51.8984 44.5573 51.8984 44.1366V39.6142C51.8984 37.5379 51.1538 35.5194 49.8016 33.9303ZM36.7777 26.8059C36.7777 24.1305 38.9856 21.954 41.6993 21.954C44.4131 21.954 46.621 24.1305 46.621 26.8059C46.621 29.4813 44.4132 31.6579 41.6993 31.6579C38.9855 31.6579 36.7777 29.4814 36.7777 26.8059ZM21.0783 32.8998C21.0783 30.2244 23.2861 28.0478 26 28.0478C28.7139 28.0478 30.9217 30.2244 30.9217 32.8998C30.9217 35.5751 28.7139 37.7517 26 37.7517C23.2861 37.7517 21.0783 35.5751 21.0783 32.8998ZM5.37895 26.8059C5.37895 24.1305 7.58682 21.954 10.3007 21.954C13.0145 21.954 15.2224 24.1305 15.2224 26.8059C15.2224 29.4813 13.0145 31.6579 10.3007 31.6579C7.58692 31.658 5.37895 29.4814 5.37895 26.8059ZM1.625 43.3749V39.6142C1.625 36.1551 4.0432 33.203 7.40919 32.5011C8.27948 32.9353 9.26138 33.1814 10.3008 33.1814C11.3403 33.1814 12.3221 32.9352 13.1924 32.5011C16.3166 33.1557 18.67 35.8142 18.9478 38.9819C18.5717 39.298 18.2197 39.6457 17.8978 40.0241C17.0621 41.0062 16.4592 42.1525 16.12 43.3749H1.625ZM34.6757 49.4687H17.3243V45.7079C17.3243 42.2489 19.7425 39.2968 23.1084 38.5949C23.9787 39.0291 24.9606 39.2751 26 39.2751C27.0394 39.2751 28.0213 39.0291 28.8916 38.5949C32.2575 39.2968 34.6757 42.2489 34.6757 45.7079V49.4687ZM50.375 43.3749H35.88C35.5408 42.1525 34.9379 41.0062 34.1022 40.0241C33.7803 39.6457 33.4283 39.298 33.0522 38.9819C33.33 35.8141 35.6835 33.1556 38.8077 32.5011C39.678 32.9353 40.6598 33.1814 41.6993 33.1814C42.7388 33.1814 43.7206 32.9352 44.5909 32.5011C47.9568 33.203 50.375 36.1551 50.375 39.6142V43.3749ZM16.6318 21.0906H35.3681C36.6701 21.0906 37.7294 20.0314 37.7294 18.7294V6.71024C37.7294 5.40831 36.6702 4.34912 35.3681 4.34912H31.7048V3.76879C31.7048 2.24637 30.4661 1.00781 28.9437 1.00781H23.0561C21.5337 1.00781 20.2951 2.24637 20.2951 3.76879V4.34912H16.6317C15.3297 4.34912 14.2705 5.40831 14.2705 6.71024V18.7295C14.2706 20.0314 15.3298 21.0906 16.6318 21.0906ZM35.3682 19.5671H16.6318C16.1699 19.5671 15.7941 19.1914 15.7941 18.7294V10.5943L20.4225 13.6222C20.5465 13.7032 20.6913 13.7465 20.8395 13.7465H22.9708V13.8343C22.9708 14.5037 23.5154 15.0483 24.1848 15.0483H27.8153C28.4847 15.0483 29.0293 14.5037 29.0293 13.8343V13.7465H31.1606C31.3087 13.7465 31.4536 13.7033 31.5776 13.6222L36.206 10.5943V18.7294C36.2059 19.1914 35.8301 19.5671 35.3682 19.5671ZM24.4942 13.5249V12.4447H27.5058V13.5249H24.4942ZM21.8187 3.76889C21.8187 3.08649 22.3738 2.53135 23.0562 2.53135H28.9438C29.6262 2.53135 30.1814 3.08649 30.1814 3.76889V4.34922H21.8188L21.8187 3.76889ZM16.6318 5.87266H35.3681C35.83 5.87266 36.2059 6.24844 36.2059 6.71034V8.77389L30.9335 12.2231H29.0292V12.1352C29.0292 11.4658 28.4846 10.9212 27.8152 10.9212H24.1847C23.5153 10.9212 22.9707 11.4658 22.9707 12.1352V12.2231H21.0664L15.7939 8.77389V6.71024C15.7941 6.24834 16.1699 5.87266 16.6318 5.87266Z" fill="#00A1A5"/>
</svg>
