<svg width="120" height="120" viewBox="0 0 120 120" fill="none" xmlns="http://www.w3.org/2000/svg">
<circle cx="60" cy="60" r="59" fill="#F3F3F3" stroke="url(#paint0_linear_1704_1047)" stroke-width="2"/>
<path d="M92.7438 72.5812C92.1766 71.9108 78.3578 57.0608 60.8781 56.339C60.1047 56.2874 59.8469 56.2874 59.0734 56.339C41.6453 57.1124 27.8266 71.9624 27.2594 72.5812C26.95 72.9421 26.95 73.4577 27.2594 73.7671C27.8266 74.4374 41.6453 89.4936 59.125 90.0093C59.7438 90.0608 60.3109 90.0608 60.9297 90.0093C78.4094 89.4936 92.1766 74.4374 92.7953 73.7671C93.0531 73.4577 93.0531 72.9421 92.7438 72.5812ZM29.1672 73.1999C31.3328 71.0343 39.2219 63.4546 49.5344 59.9483C40.975 66.6515 40.9234 79.6968 49.5344 86.4515C39.2734 82.9452 31.3328 75.3655 29.1672 73.1999ZM60.0016 58.1437C68.3031 58.1437 75.0578 64.8983 75.0578 73.1999C75.0578 81.5015 68.3031 88.2562 60.0016 88.2562C51.7 88.2562 44.9453 81.5015 44.9453 73.1999C44.9453 64.8983 51.7 58.1437 60.0016 58.1437ZM70.4172 86.4515C78.9766 79.7483 79.0281 66.703 70.4172 59.9483C80.7297 63.4546 88.6703 70.9827 90.7844 73.1999C88.6703 75.3655 80.7297 82.9452 70.4172 86.4515Z" fill="black"/>
<path d="M60.0016 85.9359C67.0656 85.9359 72.7375 80.2124 72.7375 73.1999C72.7375 66.1874 67.0656 60.464 60.0016 60.464C52.9375 60.464 47.2656 66.1874 47.2656 73.1999C47.2656 80.264 52.9891 85.9359 60.0016 85.9359ZM60.0016 62.2687C66.0344 62.2687 70.9328 67.1671 70.9328 73.1999C70.9328 79.2327 66.0344 84.1312 60.0016 84.1312C53.9688 84.1312 49.0703 79.2327 49.0703 73.1999C49.0703 67.1671 53.9688 62.2687 60.0016 62.2687Z" fill="black"/>
<path d="M53.6607 44.2218L52.4748 51.1828C52.3717 51.9046 53.1451 52.4718 53.7639 52.1109L60.0029 48.8625L66.242 52.1625C66.9123 52.5234 67.6857 51.9562 67.531 51.2343L66.3451 44.2734L71.3982 39.3234C71.9139 38.8078 71.6045 37.8796 70.8826 37.7765L63.9217 36.7453L60.8279 30.4546C60.5185 29.7843 59.5389 29.7843 59.2295 30.4546L56.0842 36.7968L49.1232 37.8281C48.4014 37.9312 48.092 38.8593 48.6076 39.375L53.6607 44.2218ZM56.806 38.4468C57.1154 38.3953 57.3732 38.2406 57.4764 37.9312L60.0029 32.8265L62.5295 37.9312C62.6842 38.189 62.8904 38.3953 63.1998 38.4468L68.8201 39.2718L64.7467 43.2421C64.5404 43.4484 64.4373 43.7578 64.4889 44.0156L65.4685 49.6875L60.4154 47.0578C60.1576 46.9031 59.8482 46.9031 59.5904 47.0578L54.5373 49.6875L55.517 44.0671C55.5685 43.7578 55.4654 43.5 55.2592 43.2937L51.1857 39.3234L56.806 38.4468Z" fill="black"/>
<path d="M78.0982 50.3578L77.1185 55.875C77.0154 56.5969 77.7889 57.164 78.4076 56.8031L83.3576 54.225L88.3076 56.8031C88.9779 57.164 89.7514 56.5969 89.5967 55.875L88.6685 50.3578L92.6904 46.439C93.206 45.9234 92.8967 44.9953 92.1748 44.8922L86.6576 44.0672L84.1826 39.0656C83.8732 38.3953 82.8935 38.3953 82.5842 39.0656L80.1092 44.0672L74.592 44.8922C73.8701 44.9953 73.5607 45.9234 74.0764 46.439L78.0982 50.3578ZM80.831 45.8203C81.1404 45.7687 81.3982 45.614 81.5014 45.3047L83.3576 41.489L85.2139 45.3047C85.3685 45.5625 85.5748 45.7687 85.8842 45.8203L90.0607 46.439L87.0185 49.3781C86.8123 49.5844 86.7092 49.8937 86.7607 50.1515L87.4826 54.3281L83.7185 52.3687C83.4607 52.214 83.1514 52.214 82.8935 52.3687L79.1295 54.3281L79.8514 50.1515C79.9029 49.8422 79.7998 49.5844 79.5935 49.3781L76.5514 46.439L80.831 45.8203Z" fill="black"/>
<path d="M31.281 50.3577L30.3529 55.8749C30.2498 56.5968 31.0232 57.164 31.642 56.8031L36.592 54.2249L41.542 56.8031C42.2123 57.164 42.9857 56.5968 42.831 55.8749L41.9029 50.3577L45.9248 46.439C46.4404 45.9234 46.131 44.9952 45.4092 44.8921L39.892 44.1187L37.417 39.1171C37.1076 38.4468 36.1279 38.4468 35.8185 39.1171L33.3435 44.1187L27.8264 44.9437C27.1045 45.0468 26.7951 45.9749 27.3107 46.4906L31.281 50.3577ZM34.0654 45.8202C34.3748 45.7687 34.6326 45.614 34.7357 45.3046L36.592 41.489L38.4482 45.3046C38.6029 45.5624 38.8092 45.7687 39.1185 45.8202L43.2951 46.439L40.2529 49.3781C40.0467 49.5843 39.9435 49.8937 39.9951 50.1515L40.717 54.3281L36.9529 52.3687C36.6951 52.214 36.3857 52.214 36.1279 52.3687L32.3639 54.3281L33.0857 50.1515C33.1373 49.8421 33.0342 49.5843 32.8279 49.3781L29.7857 46.439L34.0654 45.8202Z" fill="black"/>
<defs>
<linearGradient id="paint0_linear_1704_1047" x1="0" y1="60" x2="120" y2="60" gradientUnits="userSpaceOnUse">
<stop stop-color="#075B65"/>
<stop offset="0.370192" stop-color="#00838A"/>
<stop offset="0.8125" stop-color="#328A99"/>
</linearGradient>
</defs>
</svg>
