<svg width="46" height="46" viewBox="0 0 46 46" fill="none" xmlns="http://www.w3.org/2000/svg">
<path d="M41.4001 14.8017V6.133C41.4001 5.28616 40.7136 4.59966 39.8667 4.59966H36.0334C35.1865 4.59966 34.5 5.28616 34.5 6.133V9.07776L23.9867 0.356165C23.4147 -0.118722 22.5854 -0.118722 22.0133 0.356165L0.558947 18.1543C0.236704 18.4213 0.0366337 18.8077 0.00454882 19.2249C-0.0275361 19.6422 0.111113 20.0546 0.388747 20.3677L2.30005 22.5243C2.85164 23.1543 3.8058 23.2272 4.44671 22.6884L4.60005 22.5565V44.4663C4.60005 45.3132 5.28654 45.9997 6.13338 45.9997H39.8667C40.7136 45.9997 41.4001 45.3132 41.4001 44.4663V22.5565L41.5588 22.6884C42.1988 23.2236 43.149 23.1508 43.7001 22.5243L45.6098 20.3669C45.8874 20.0539 46.026 19.6417 45.994 19.2245C45.9619 18.8074 45.7618 18.4212 45.4396 18.1543L41.4001 14.8017ZM36.0334 6.133H39.8667V13.5298L36.0334 10.3497V6.133ZM39.8667 44.4663H6.13338V21.2846L23 7.29296L39.8667 21.2846V44.4663ZM42.5539 21.5077C42.5494 21.5121 42.5423 21.5121 42.5378 21.5077L23.49 5.70673C23.206 5.47081 22.7941 5.47081 22.5101 5.70673L3.45005 21.5077L1.53798 19.3342L23.007 1.533L44.4667 19.3511L42.5539 21.5077Z" fill="url(#paint0_linear_1696_124)"/>
<path d="M21.4479 17.0608C20.1813 15.7862 18.4639 15.0613 16.667 15.043C16.04 15.0493 15.4737 15.419 15.2157 15.9906C14.9733 16.5639 15.1044 17.2271 15.5469 17.665L17.3869 19.4996L16.9783 22.3455L14.1324 22.7541L12.2978 20.9141C11.8596 20.4721 11.1966 20.3413 10.6234 20.5837C10.0403 20.828 9.66493 21.4029 9.67577 22.035C9.70025 24.0273 10.5879 25.911 12.1088 27.1981C13.6297 28.4853 15.6342 29.0493 17.6031 28.7441L17.2297 29.858C17.0665 30.3443 16.6875 30.7278 16.2032 30.8969C15.7315 31.0506 15.3026 31.3133 14.9512 31.6635L10.3205 36.2942C8.83874 37.775 8.78369 40.1593 10.1956 41.7069C10.9035 42.4795 11.8993 42.9251 12.9471 42.9381H13.0453C14.1544 42.9374 15.2182 42.4981 16.0046 41.7161L20.4965 37.2165C20.8521 36.8709 21.1186 36.4442 21.2731 35.973C21.4374 35.4861 21.8211 35.1047 22.3089 34.9433L23.6889 34.4833L23.9036 34.698C23.5052 36.7062 24.0199 38.7875 25.3084 40.3786C26.5968 41.9696 28.5257 42.9057 30.5728 42.9335H30.5889C31.2146 42.9364 31.7803 42.5617 32.0218 41.9844C32.2642 41.4116 32.133 40.7488 31.6906 40.3115L29.8506 38.4761L30.2585 35.6295L33.1051 35.2216L34.9405 37.0616C35.3776 37.5044 36.0406 37.6357 36.6134 37.3928C37.1979 37.1492 37.5751 36.574 37.5656 35.9408C37.5381 33.893 36.6018 31.9635 35.0102 30.6748C33.4185 29.3861 31.3364 28.8716 29.3277 29.2708L27.7392 27.6822L29.6743 25.7441L31.7918 25.3178C32.2404 25.2338 32.629 24.9561 32.8536 24.5588L35.1069 20.4955C35.4403 19.8945 35.3352 19.1454 34.8493 18.6593L33.4999 17.31C33.0152 16.8288 32.2705 16.7262 31.6737 17.0585L27.6181 19.3087C27.2183 19.5261 26.9358 19.9097 26.8468 20.356L26.4198 22.4858L24.4855 24.4262L23.3355 23.2762C23.7808 21.0193 23.0731 18.6889 21.4479 17.0608ZM27.4839 23.5928C27.7128 23.3779 27.8686 23.0967 27.9293 22.7886L28.3541 20.6573L32.4159 18.4002L33.7675 19.7541L31.5089 23.8129L29.3622 24.2437C29.0687 24.3039 28.7991 24.4483 28.5864 24.6593L26.6551 26.6035L25.5695 25.5179L27.4839 23.5928ZM21.8228 33.4882C20.8756 33.8053 20.1325 34.5492 19.8165 35.4969C19.738 35.7365 19.6022 35.9534 19.4209 36.1286L14.9205 40.6335C14.4045 41.14 13.7068 41.4181 12.9839 41.4056C12.3553 41.4003 11.7568 41.136 11.3295 40.6749C10.4644 39.7313 10.4982 38.2731 11.4061 37.3706L16.0284 32.7484C16.2113 32.5663 16.4345 32.43 16.68 32.3505C17.6216 32.0291 18.3612 31.2895 18.6826 30.3479L18.9026 29.6901L22.4791 33.2666L21.8228 33.4882ZM28.5442 30.6569C28.7377 30.8504 29.0197 30.9261 29.284 30.8555C31.1344 30.362 33.1075 30.891 34.4629 32.2439C35.4586 33.2326 36.0228 34.5751 36.0322 35.9783L33.9254 33.8669C33.7547 33.6956 33.5132 33.6149 33.2738 33.6492L29.4788 34.1935C29.1417 34.2418 28.8769 34.5066 28.8286 34.8437L28.2843 38.6387C28.25 38.8781 28.3307 39.1196 28.502 39.2903L30.5889 41.4002C28.9362 41.3761 27.387 40.5913 26.3899 39.273C25.3928 37.9548 25.0593 36.2504 25.486 34.6535C25.5566 34.3892 25.4809 34.1072 25.2874 33.9137L18.6941 27.3204C18.5503 27.1766 18.3554 27.0958 18.152 27.0957C18.0855 27.0957 18.0192 27.1045 17.955 27.1218C16.1044 27.6141 14.1316 27.0853 12.7754 25.7334C11.7808 24.7442 11.218 23.4017 11.2099 21.9989L13.3159 24.1103C13.4866 24.2816 13.7282 24.3623 13.9676 24.3281L17.7626 23.7837C18.0996 23.7354 18.3644 23.4706 18.4127 23.1336L18.957 19.3386C18.9913 19.0992 18.9106 18.8577 18.7393 18.6869L16.6471 16.5778C18.044 16.5924 19.379 17.1565 20.3631 18.148C21.7153 19.5034 22.244 21.4761 21.7508 23.326C21.6805 23.5902 21.7561 23.8718 21.9493 24.0651L28.5442 30.6569Z" fill="url(#paint1_linear_1696_124)"/>
<defs>
<linearGradient id="paint0_linear_1696_124" x1="0" y1="22.9998" x2="45.9985" y2="22.9998" gradientUnits="userSpaceOnUse">
<stop stop-color="#075B65"/>
<stop offset="0.370192" stop-color="#00838A"/>
<stop offset="0.8125" stop-color="#328A99"/>
</linearGradient>
<linearGradient id="paint1_linear_1696_124" x1="9.17188" y1="28.9906" x2="37.5657" y2="28.9906" gradientUnits="userSpaceOnUse">
<stop stop-color="#075B65"/>
<stop offset="0.370192" stop-color="#00838A"/>
<stop offset="0.8125" stop-color="#328A99"/>
</linearGradient>
</defs>
</svg>
