<svg width="120" height="120" viewBox="0 0 120 120" fill="none" xmlns="http://www.w3.org/2000/svg">
<circle cx="60" cy="60" r="59" fill="#F3F3F3" stroke="url(#paint0_linear_1704_1038)" stroke-width="2"/>
<g clip-path="url(#clip0_1704_1038)">
<path d="M90.8097 85.4556L81.6453 76.2945C80.8281 75.4807 79.8853 76.2945 79.465 77.0952L76.5702 74.2003C84.9292 61.8429 81.6878 45.0489 69.3302 36.69C69.0721 36.5154 68.8111 36.3453 68.5472 36.1798C68.0713 28.4398 61.411 22.551 53.671 23.0269C46.595 23.4619 40.9533 29.1037 40.5182 36.1798C10.3255 56.5068 38.8243 100.433 69.735 81.0223L72.6299 83.9171C71.8425 84.3406 71.0154 85.2736 71.8292 86.1007L80.9968 95.2652C83.3203 97.5786 87.0766 97.5786 89.4002 95.2652L90.8096 93.8591C92.9173 91.5774 92.743 87.8982 90.8097 85.4556ZM54.5328 25.1462C61.0536 25.1517 66.3384 30.4365 66.3439 36.9573C66.3439 45.2085 57.4112 57.6019 54.5328 61.3636C51.6711 57.6019 42.725 45.2085 42.725 36.9573C42.7323 30.4384 48.0141 25.1553 54.5328 25.1462ZM71.1511 58.9848C71.1585 68.1555 63.73 75.5957 54.5593 75.6031C45.3885 75.6105 37.9484 68.1821 37.941 59.0113C37.9374 54.468 39.7955 50.1217 43.0823 46.9851C45.1695 51.4784 47.6786 55.7632 50.5759 59.7822C41.0773 62.2535 45.3055 69.8333 54.5957 69.5222C63.975 69.8333 68.1139 62.161 58.5062 59.7591C61.3967 55.7463 63.9013 51.4694 65.9867 46.9851C69.2815 50.107 71.1488 54.4458 71.1511 58.9848ZM57.0538 61.7606C64.779 63.2195 62.152 67.0838 54.5955 67.2758C47.1351 67.0872 44.4056 63.2759 52.0315 61.7772C52.9347 62.9947 53.5501 63.7622 53.6626 63.8946C55.2209 65.1153 55.5452 63.5108 57.0538 61.7606ZM29.9876 58.9848C29.9928 50.9228 33.9594 43.3781 40.5977 38.8033C40.8853 40.8515 41.4151 42.8584 42.1757 44.7817C34.309 51.6072 33.4649 63.5175 40.2904 71.3843C47.1158 79.251 59.0262 80.0951 66.893 73.2696C74.7597 66.4442 75.6037 54.5338 68.7783 46.667C68.1951 45.9949 67.5651 45.3649 66.893 44.7817C67.652 42.8559 68.1795 40.8469 68.4645 38.7968C79.6183 46.4948 82.4198 61.7772 74.7217 72.931C67.0236 84.0848 51.7413 86.8862 40.5875 79.1882C33.9481 74.6056 29.985 67.0523 29.9876 58.9848ZM71.5414 79.6658C72.8766 78.5673 74.102 77.3419 75.2005 76.0068L78.1086 78.9182C77.0123 80.2503 75.7879 81.4714 74.4527 82.5641L71.5414 79.6658ZM89.2085 92.2742L87.8024 93.6836C86.3572 95.1261 84.0171 95.1261 82.5718 93.6836L74.3669 85.4787C76.9261 83.6418 79.1688 81.4002 81.0069 78.842L89.2085 87.0436C90.6529 88.4805 90.6591 90.8161 89.2222 92.2605C89.2176 92.2651 89.213 92.2696 89.2085 92.2742ZM61.5565 37.0764C61.3882 33.201 58.1101 30.1958 54.2345 30.364C50.5948 30.5221 47.6802 33.4367 47.5221 37.0764C47.6905 40.9518 50.9686 43.9571 54.8441 43.7888C58.4838 43.6306 61.3984 40.716 61.5565 37.0764ZM49.7554 37.0764C49.8249 34.437 52.0208 32.3537 54.6603 32.4232C57.202 32.4901 59.2466 34.5347 59.3135 37.0764C59.244 39.7159 57.0481 41.7992 54.4087 41.7297C51.8669 41.6626 49.8223 39.618 49.7554 37.0764Z" fill="black"/>
</g>
<defs>
<linearGradient id="paint0_linear_1704_1038" x1="0" y1="60" x2="120" y2="60" gradientUnits="userSpaceOnUse">
<stop stop-color="#075B65"/>
<stop offset="0.370192" stop-color="#00838A"/>
<stop offset="0.8125" stop-color="#328A99"/>
</linearGradient>
<clipPath id="clip0_1704_1038">
<rect width="74" height="74" fill="white" transform="translate(23 23)"/>
</clipPath>
</defs>
</svg>
