<svg width="120" height="120" viewBox="0 0 120 120" fill="none" xmlns="http://www.w3.org/2000/svg">
<circle cx="60" cy="60" r="59" fill="#F3F3F3" stroke="url(#paint0_linear_1704_1051)" stroke-width="2"/>
<path fill-rule="evenodd" clip-rule="evenodd" d="M63.882 58.876L82.0673 90.3724C82.8938 91.8012 81.8743 93.6133 80.1991 93.6133H38.8003C37.1415 93.6133 36.0983 91.8139 36.9321 90.3724L55.1174 58.876C53.9551 59.1378 52.9093 59.501 52.0259 59.9428C50.3034 60.8039 49.2381 61.9324 49.2381 63.124C49.2381 63.5836 48.8657 63.9561 48.4061 63.9561C47.9466 63.9561 47.5741 63.5836 47.5741 63.124C47.5741 61.9324 46.5087 60.8039 44.7864 59.9428C40.6953 57.8972 33.9296 57.8972 29.8385 59.9428C28.1161 60.8039 27.0508 61.9324 27.0508 63.124C27.0508 63.5836 26.6783 63.9561 26.2188 63.9561C25.7592 63.9561 25.3867 63.5836 25.3867 63.124C25.3867 44.5828 40.1913 29.4632 58.668 29.021V26.2189C58.668 25.7593 59.0404 25.3868 59.5 25.3868C59.9596 25.3868 60.332 25.7593 60.332 26.2189V29.021C78.8087 29.4634 93.6133 44.5829 93.6133 63.124C93.6133 63.5836 93.2408 63.9561 92.7812 63.9561C92.3217 63.9561 91.9492 63.5836 91.9492 63.124C91.9492 61.9324 90.8838 60.8039 89.1615 59.9428C85.0704 57.8972 78.3047 57.8972 74.2136 59.9428C72.4912 60.8039 71.4259 61.9324 71.4259 63.124C71.4259 63.5836 71.0534 63.9561 70.5939 63.9561C70.1343 63.9561 69.7619 63.5836 69.7619 63.124C69.7619 61.9324 68.6964 60.8039 66.9741 59.9428C66.0907 59.501 65.0448 59.1378 63.8824 58.876H63.882ZM47.6262 59.8694C47.883 51.8918 49.074 44.7146 50.8686 39.3306C52.1159 35.5889 53.6799 32.6854 55.4587 30.9244C40.5632 32.7747 28.8191 44.7102 27.2336 59.6624C31.9186 55.719 43.1683 55.7721 47.6262 59.8693V59.8694ZM63.5408 30.9243C65.3195 32.6853 66.8836 35.5888 68.1308 39.3304C69.9255 44.7145 71.1164 51.8916 71.3732 59.8693C75.8311 55.7721 87.0809 55.719 91.7659 59.6624C90.1803 44.7101 78.4362 32.7746 63.5408 30.9243ZM69.7056 59.7721C69.4454 52.0066 68.2911 45.0509 66.5577 39.8506C62.4834 27.6274 56.5162 27.6274 52.4419 39.8506C50.7085 45.0509 49.554 52.0066 49.294 59.7721C53.8644 55.7424 65.1353 55.7424 69.7057 59.7721H69.7056ZM57.2309 58.5289L38.3934 91.1584C38.143 91.625 38.4692 91.9492 38.8003 91.9492H80.1991C80.5919 91.9492 80.822 91.5353 80.6308 91.2044L61.7685 58.5289C60.2828 58.3693 58.7166 58.3691 57.2309 58.5289ZM56.6918 67.1472V77.6609C56.6918 79.2055 57.9541 80.4665 59.4985 80.4665C61.0429 80.4665 62.3052 79.2066 62.3052 77.6609V67.1472C62.3052 65.5972 61.0484 64.3405 59.4985 64.3405C57.9485 64.3405 56.6918 65.5985 56.6918 67.1472ZM58.3558 67.1472V77.6609C58.3558 78.2953 58.8643 78.8024 59.4985 78.8024C60.1326 78.8024 60.6411 78.2965 60.6411 77.6609V67.1472C60.6411 66.5158 60.1298 66.0045 59.4985 66.0045C58.8671 66.0045 58.3558 66.5171 58.3558 67.1472ZM59.4986 87.3074C60.4653 87.3074 61.2498 86.5248 61.2498 85.5577C61.2498 84.5906 60.4652 83.809 59.4986 83.809C58.5371 83.809 57.7497 84.596 57.7497 85.5577C57.7497 86.5194 58.5326 87.3074 59.4986 87.3074ZM59.4986 88.9715C61.3757 88.9715 62.914 87.4349 62.914 85.5577C62.914 83.6805 61.3755 82.145 59.4986 82.145C57.6217 82.145 56.0856 83.6776 56.0856 85.5577C56.0856 87.4378 57.6227 88.9715 59.4986 88.9715Z" fill="black"/>
<defs>
<linearGradient id="paint0_linear_1704_1051" x1="0" y1="60" x2="120" y2="60" gradientUnits="userSpaceOnUse">
<stop stop-color="#075B65"/>
<stop offset="0.370192" stop-color="#00838A"/>
<stop offset="0.8125" stop-color="#328A99"/>
</linearGradient>
</defs>
</svg>
