<svg width="120" height="120" viewBox="0 0 120 120" fill="none" xmlns="http://www.w3.org/2000/svg">
<circle cx="60" cy="60" r="59" fill="#F3F3F3" stroke="url(#paint0_linear_1704_1031)" stroke-width="2"/>
<path d="M92.6527 78.1594H90.871C91.2542 77.5853 91.478 76.8962 91.478 76.1558V44.5748C91.478 42.579 89.8543 40.9553 87.8586 40.9553H82.1684V34.8374C82.1684 33.0184 80.6887 31.5387 78.8697 31.5387H40.1299C38.3111 31.5387 36.8312 33.0184 36.8312 34.8374V40.9553H31.1449C29.149 40.9553 27.5255 42.579 27.5255 44.5748V76.1558C27.5255 76.8964 27.7494 77.5853 28.1325 78.1594H26.347C25.9006 78.1594 25.5391 78.5211 25.5391 78.9673V82.8104C25.5391 85.375 27.6271 87.4614 30.1939 87.4614H88.8098C91.3744 87.4614 93.4608 85.3751 93.4608 82.8104V78.9673C93.4608 78.521 93.0991 78.1594 92.6529 78.1594H92.6527ZM36.8312 74.0145H33.2823V46.7121H36.8312V74.0145ZM38.447 39.0298H80.5525V74.0145H38.4472V39.0299L38.447 39.0298ZM82.1684 46.712H85.7173V74.0144H82.1684V46.7121V46.712ZM38.4472 34.8372C38.4472 33.9094 39.2021 33.1544 40.1299 33.1544H78.8699C79.7977 33.1544 80.5525 33.9094 80.5525 34.8372V37.4139H38.4472V34.8372ZM29.1413 76.1558V44.5748C29.1413 43.47 30.0402 42.5711 31.1449 42.5711H36.8312V45.0963H32.4744C32.028 45.0963 31.6665 45.458 31.6665 45.9042V74.8226C31.6665 75.2689 32.0282 75.6305 32.4744 75.6305H86.5254C86.9717 75.6305 87.3333 75.2688 87.3333 74.8226V45.9042C87.3333 45.458 86.9716 45.0963 86.5254 45.0963H82.1685V42.5711H87.8587C88.9634 42.5711 89.8623 43.47 89.8623 44.5748V76.1558C89.8623 77.2605 88.9634 78.1594 87.8587 78.1594H31.1449C30.0402 78.1594 29.1413 77.2605 29.1413 76.1558ZM51.7107 79.7752H67.2892V80.8889C67.2892 81.5029 66.7896 82.0025 66.1756 82.0025H52.8242C52.2103 82.0025 51.7107 81.5029 51.7107 80.8889V79.7752ZM91.845 82.8103C91.845 84.4838 90.4833 85.8453 88.8099 85.8453H30.1939C28.5182 85.8453 27.1549 84.4837 27.1549 82.8103V79.7752H50.0947V80.8889C50.0947 82.394 51.3191 83.6183 52.8241 83.6183H66.1755C67.6805 83.6183 68.9049 82.394 68.9049 80.8889V79.7752H91.8448V82.8103H91.845ZM77.5423 35.2842C77.5423 35.7304 77.1806 36.0922 76.7344 36.0922H55.567C55.1207 36.0922 54.7591 35.7304 54.7591 35.2842C54.7591 34.838 55.1208 34.4763 55.567 34.4763H76.7344C77.1807 34.4763 77.5423 34.838 77.5423 35.2842ZM43.1611 35.2842C43.1611 35.7304 42.7994 36.0922 42.3532 36.0922H42.2654C41.819 36.0922 41.4574 35.7304 41.4574 35.2842C41.4574 34.838 41.8192 34.4763 42.2654 34.4763H42.3532C42.7996 34.4763 43.1611 34.838 43.1611 35.2842ZM49.1931 35.2842C49.1931 35.7304 48.8314 36.0922 48.3852 36.0922H48.2975C47.8511 36.0922 47.4896 35.7304 47.4896 35.2842C47.4896 34.838 47.8513 34.4763 48.2975 34.4763H48.3852C48.8315 34.4763 49.1931 34.838 49.1931 35.2842ZM46.1791 35.2842C46.1791 35.7304 45.8174 36.0922 45.3712 36.0922H45.2833C44.837 36.0922 44.4754 35.7304 44.4754 35.2842C44.4754 34.838 44.8371 34.4763 45.2833 34.4763H45.3712C45.8175 34.4763 46.1791 34.838 46.1791 35.2842ZM70.0912 55.7124C69.1436 55.7124 68.2417 55.9112 67.4235 56.2674C67.2882 49.4294 61.6844 43.9083 54.8146 43.9083C47.8581 43.9083 42.1987 49.566 42.1987 56.5203C42.1987 63.4746 47.8581 69.1363 54.8146 69.1363C58.2841 69.1363 61.6119 67.6824 63.9785 65.1881C65.0335 67.5138 67.3757 69.1363 70.0914 69.1363C73.7914 69.1363 76.8015 66.1262 76.8015 62.4262C76.8015 58.7262 73.7914 55.7124 70.0914 55.7124H70.0912ZM65.7779 55.7124H61.6255C61.5646 53.8496 61.2943 52.108 60.8563 50.5646C61.5949 50.1605 62.2958 49.6807 62.9489 49.1286C64.5561 50.8956 65.5937 53.1874 65.7781 55.7124H65.7779ZM55.6225 45.664C56.918 46.1113 58.0704 47.6107 58.8709 49.7174C57.8402 50.1264 56.7467 50.3761 55.6225 50.4579V45.664ZM58.8599 46.2985C59.9194 46.7194 60.8994 47.2981 61.7682 48.0092C61.3131 48.3816 60.8338 48.7169 60.3318 49.0088C59.9205 47.9689 59.4241 47.0549 58.8599 46.2985ZM54.0065 45.6639V50.458C52.8811 50.3764 51.7867 50.1266 50.7552 49.7174C51.5565 47.6104 52.71 46.1108 54.0065 45.6639ZM49.2941 49.009C48.7921 48.7173 48.3128 48.382 47.8577 48.0098C48.7266 47.2987 49.7067 46.7199 50.7664 46.299C50.202 47.0555 49.7054 47.9693 49.2939 49.009H49.2941ZM54.0065 52.0778V55.7127H49.6183C49.6764 54.1183 49.9031 52.6061 50.2614 51.2583C51.451 51.7181 52.711 51.996 54.0065 52.0778ZM54.0065 57.3285V60.9634C52.7116 61.0455 51.4513 61.3237 50.2611 61.7841C49.9029 60.4361 49.6763 58.9233 49.6182 57.3285H54.0064H54.0065ZM54.0065 62.583V67.381C52.7096 66.9338 51.556 65.4332 50.7548 63.3249C51.787 62.915 52.8815 62.665 54.0065 62.583ZM50.7671 66.7458C49.7066 66.3245 48.7259 65.7452 47.8565 65.0332C48.312 64.6609 48.7917 64.3257 49.2939 64.0337C49.7055 65.0742 50.2024 65.9888 50.7672 66.7457L50.7671 66.7458ZM55.6224 67.3807V62.583C56.7462 62.665 57.8398 62.9151 58.8712 63.3248C58.0707 65.4328 56.918 66.9333 55.6224 67.3807ZM60.3319 64.0338C60.8376 64.3278 61.3204 64.666 61.7789 65.0416C60.8928 65.7709 59.9043 66.3512 58.8442 66.7663C59.415 66.0054 59.9168 65.0837 60.3319 64.0338ZM55.6224 60.9633V57.3284H60.0069C59.9489 58.9231 59.7225 60.4357 59.3644 61.7837C58.1751 61.3234 56.9161 61.0454 55.6224 60.9633ZM55.6224 55.7125V52.0777C56.9165 51.9957 58.1757 51.7181 59.3643 51.2584C59.7224 52.6061 59.9488 54.1183 60.0069 55.7125H55.6224ZM46.6769 49.1291C47.3299 49.6811 48.0306 50.1607 48.7694 50.5648C48.3312 52.1081 48.0607 53.8497 47.9998 55.7125H43.8474C44.0319 53.1879 45.0693 50.896 46.6769 49.1291ZM43.8471 57.3284H47.9996C48.0606 59.1919 48.3309 60.934 48.7693 62.4778C48.0306 62.8819 47.3293 63.3614 46.6758 63.9134C45.0688 62.1459 44.0315 59.8536 43.8471 57.3284ZM62.955 63.9182C62.2999 63.3641 61.5968 62.883 60.8561 62.4776C61.2941 60.9339 61.5645 59.1918 61.6254 57.3284H65.7322C64.2947 58.5607 63.3812 60.3882 63.3812 62.4263C63.3812 62.7363 63.4042 63.0408 63.4451 63.3397C63.2877 63.5393 63.1238 63.7316 62.9551 63.9182H62.955ZM70.0911 67.5204C67.2822 67.5204 64.997 65.2352 64.997 62.4262C64.997 59.6171 67.2822 57.3283 70.0911 57.3283C72.9 57.3283 75.1854 59.6152 75.1854 62.4262C75.1854 65.2371 72.9002 67.5204 70.0911 67.5204ZM73.516 60.8889L69.2987 65.1063C69.1461 65.2588 68.9402 65.3429 68.7274 65.3429C68.6922 65.3429 68.6571 65.3406 68.6216 65.3359C68.3724 65.303 68.1528 65.1561 68.0274 64.9385L66.5414 62.3597C66.3186 61.9732 66.4513 61.4792 66.8379 61.2563C67.2245 61.0334 67.7187 61.1664 67.9413 61.5529L68.9012 63.2183L72.3735 59.7461C72.6891 59.4305 73.2005 59.4305 73.5162 59.7461C73.8318 60.0616 73.8318 60.5733 73.5162 60.8888L73.516 60.8889Z" fill="black"/>
<defs>
<linearGradient id="paint0_linear_1704_1031" x1="0" y1="60" x2="120" y2="60" gradientUnits="userSpaceOnUse">
<stop stop-color="#075B65"/>
<stop offset="0.370192" stop-color="#00838A"/>
<stop offset="0.8125" stop-color="#328A99"/>
</linearGradient>
</defs>
</svg>
