<svg width="96" height="96" viewBox="0 0 96 96" fill="none" xmlns="http://www.w3.org/2000/svg">
<path d="M4.5 58.5H12C12.7624 61.1066 13.8087 63.6217 15.12 66L9.81 71.325C9.67098 71.4652 9.56099 71.6314 9.48634 71.8141C9.4117 71.9969 9.37386 72.1926 9.375 72.39C9.38053 72.7871 9.5359 73.1675 9.81 73.455L22.5 86.19C22.6394 86.3306 22.8053 86.4422 22.9881 86.5183C23.1709 86.5945 23.367 86.6337 23.565 86.6337C23.763 86.6337 23.9591 86.5945 24.1419 86.5183C24.3247 86.4422 24.4906 86.3306 24.63 86.19L30 80.88C32.3783 82.1913 34.8934 83.2376 37.5 84V91.5C37.5 91.8978 37.658 92.2794 37.9393 92.5607C38.2206 92.842 38.6022 93 39 93H46.5C46.8978 93 47.2794 92.842 47.5607 92.5607C47.842 92.2794 48 91.8978 48 91.5V78C48.0005 77.6148 47.8528 77.2442 47.5875 76.965C47.3222 76.6858 46.9597 76.5193 46.575 76.5C39.305 76.091 32.4672 72.9148 27.4651 67.6234C22.463 62.3319 19.6759 55.3265 19.6759 48.045C19.6759 40.7635 22.463 33.7581 27.4651 28.4667C32.4672 23.1752 39.305 19.999 46.575 19.59C46.7734 19.5804 46.9679 19.5316 47.1473 19.4462C47.3266 19.3609 47.4873 19.2408 47.6198 19.0929C47.7524 18.9449 47.8543 18.7722 47.9195 18.5846C47.9848 18.397 48.0121 18.1983 48 18V4.5C48 4.10218 47.842 3.72064 47.5607 3.43934C47.2794 3.15804 46.8978 3 46.5 3H39C38.6022 3 38.2206 3.15804 37.9393 3.43934C37.658 3.72064 37.5 4.10218 37.5 4.5V12C34.8934 12.7624 32.3783 13.8087 30 15.12L24.675 9.81C24.5348 9.67098 24.3686 9.56099 24.1859 9.48634C24.0031 9.4117 23.8074 9.37386 23.61 9.375C23.2128 9.38053 22.8325 9.5359 22.545 9.81L9.81 22.5C9.5359 22.7875 9.38053 23.1679 9.375 23.565C9.37386 23.7624 9.4117 23.9581 9.48634 24.1409C9.56099 24.3236 9.67098 24.4898 9.81 24.63L15.12 30C13.8087 32.3783 12.7624 34.8934 12 37.5H4.5C4.10218 37.5 3.72064 37.658 3.43934 37.9393C3.15804 38.2206 3 38.6022 3 39V57C3 57.3978 3.15804 57.7794 3.43934 58.0607C3.72064 58.342 4.10218 58.5 4.5 58.5ZM6 40.5H13.14C13.4806 40.5108 13.8148 40.4052 14.0874 40.2008C14.3601 39.9963 14.555 39.705 14.64 39.375C15.4456 36.256 16.6879 33.2664 18.33 30.495C18.4888 30.1973 18.5427 29.8548 18.4828 29.5227C18.4229 29.1906 18.2528 28.8885 18 28.665L12.99 23.61L23.61 12.99L28.665 18C28.9014 18.2359 29.2099 18.3861 29.5413 18.4269C29.8728 18.4676 30.2085 18.3966 30.495 18.225C33.2664 16.5829 36.256 15.3406 39.375 14.535C39.705 14.45 39.9963 14.2551 40.2008 13.9824C40.4052 13.7098 40.5108 13.3756 40.5 13.035V6H45V16.65C37.2145 17.4125 29.9913 21.0447 24.7362 26.8395C19.4812 32.6344 16.5704 40.1772 16.5704 48C16.5704 55.8228 19.4812 63.3656 24.7362 69.1605C29.9913 74.9553 37.2145 78.5875 45 79.35V90H40.5V82.86C40.5108 82.5194 40.4052 82.1852 40.2008 81.9126C39.9963 81.6399 39.705 81.445 39.375 81.36C36.256 80.5544 33.2664 79.3121 30.495 77.67C30.2085 77.4984 29.8728 77.4274 29.5413 77.4681C29.2099 77.5089 28.9014 77.6591 28.665 77.895L23.61 82.965L12.99 72.39L18 67.335C18.2359 67.0985 18.3861 66.7901 18.4269 66.4586C18.4676 66.1272 18.3966 65.7915 18.225 65.505C16.5829 62.7336 15.3406 59.744 14.535 56.625C14.45 56.295 14.2551 56.0037 13.9824 55.7993C13.7098 55.5948 13.3756 55.4892 13.035 55.5H6V40.5Z" fill="white"/>
<path d="M13.5 46.5H9V49.5H13.5V46.5Z" fill="white"/>
<path d="M22.5433 71.3196L19.3613 74.5016L21.4826 76.6229L24.6646 73.4409L22.5433 71.3196Z" fill="white"/>
<path d="M21.4905 19.3683L19.3691 21.4896L22.5511 24.6716L24.6724 22.5503L21.4905 19.3683Z" fill="white"/>
<path d="M87 42C85.6732 42.0043 84.3852 42.4483 83.3375 43.2625C82.2899 44.0768 81.5417 45.2153 81.21 46.5H73.5C73.3161 43.3896 72.5636 40.3392 71.28 37.5H76.5C76.777 37.4992 77.0484 37.4216 77.284 37.276C77.5196 37.1304 77.7103 36.9224 77.835 36.675L78.93 34.5H82.77C83.1238 35.5008 83.8201 36.3443 84.7357 36.8815C85.6513 37.4186 86.7273 37.6147 87.7736 37.4352C88.8198 37.2557 89.7689 36.7121 90.4532 35.9005C91.1374 35.0889 91.5126 34.0615 91.5126 33C91.5126 31.9385 91.1374 30.9111 90.4532 30.0995C89.7689 29.2879 88.8198 28.7443 87.7736 28.5648C86.7273 28.3853 85.6513 28.5814 84.7357 29.1186C83.8201 29.6557 83.1238 30.4992 82.77 31.5H78C77.723 31.5008 77.4516 31.5784 77.216 31.724C76.9804 31.8696 76.7896 32.0776 76.665 32.325L75.57 34.5H69.57C68.1591 32.2404 66.4027 30.2159 64.365 28.5H70.5C70.8271 28.5171 71.1508 28.4266 71.4216 28.2424C71.6925 28.0583 71.8956 27.7905 72 27.48L73.08 24H75.27C75.6238 25.0008 76.3201 25.8443 77.2357 26.3815C78.1513 26.9186 79.2273 27.1147 80.2736 26.9352C81.3198 26.7557 82.2689 26.2121 82.9532 25.4005C83.6374 24.5889 84.0126 23.5615 84.0126 22.5C84.0126 21.4385 83.6374 20.4111 82.9532 19.5995C82.2689 18.7879 81.3198 18.2443 80.2736 18.0648C79.2273 17.8853 78.1513 18.0814 77.2357 18.6186C76.3201 19.1557 75.6238 19.9992 75.27 21H72C71.6729 20.9829 71.3492 21.0734 71.0783 21.2576C70.8075 21.4418 70.6044 21.7095 70.5 22.02L69.42 25.5H60C56.1146 23.4278 51.7587 22.397 47.3567 22.5081C42.9546 22.6192 38.6563 23.8684 34.8804 26.1339C31.1044 28.3995 27.9795 31.6043 25.8099 35.4362C23.6403 39.2681 22.5 43.5965 22.5 48C22.5 52.4035 23.6403 56.7319 25.8099 60.5638C27.9795 64.3957 31.1044 67.6005 34.8804 69.8661C38.6563 72.1317 42.9546 73.3808 47.3567 73.4919C51.7587 73.603 56.1146 72.5722 60 70.5H69.45L70.605 73.98C70.7039 74.2731 70.8911 74.5285 71.1408 74.7111C71.3906 74.8937 71.6907 74.9946 72 75H75.27C75.6238 76.0008 76.3201 76.8443 77.2357 77.3815C78.1513 77.9186 79.2273 78.1147 80.2736 77.9352C81.3198 77.7557 82.2689 77.2121 82.9532 76.4005C83.6374 75.5889 84.0126 74.5615 84.0126 73.5C84.0126 72.4385 83.6374 71.4111 82.9532 70.5995C82.2689 69.7879 81.3198 69.2443 80.2736 69.0648C79.2273 68.8853 78.1513 69.0814 77.2357 69.6186C76.3201 70.1557 75.6238 70.9992 75.27 72H73.08L72 68.52C71.8956 68.2095 71.6925 67.9418 71.4216 67.7576C71.1508 67.5734 70.8271 67.4829 70.5 67.5H64.395C66.4328 65.7842 68.1891 63.7596 69.6 61.5H75.6L76.695 63.675C76.8173 63.9179 77.0033 64.123 77.2332 64.2683C77.4631 64.4136 77.7281 64.4937 78 64.5H82.77C83.1238 65.5008 83.8201 66.3443 84.7357 66.8815C85.6513 67.4186 86.7273 67.6147 87.7736 67.4352C88.8198 67.2557 89.7689 66.7121 90.4532 65.9005C91.1374 65.0889 91.5126 64.0615 91.5126 63C91.5126 61.9385 91.1374 60.9111 90.4532 60.0995C89.7689 59.2879 88.8198 58.7443 87.7736 58.5648C86.7273 58.3853 85.6513 58.5814 84.7357 59.1186C83.8201 59.6557 83.1238 60.4992 82.77 61.5H78.93L77.835 59.325C77.7103 59.0776 77.5196 58.8696 77.284 58.724C77.0484 58.5784 76.777 58.5008 76.5 58.5H71.205C72.5145 55.6658 73.2924 52.6152 73.5 49.5H81.285C81.5667 50.5904 82.1495 51.5795 82.9669 52.3542C83.7843 53.1288 84.8033 53.6578 85.9072 53.8807C87.0111 54.1035 88.1554 54.0111 89.2093 53.6141C90.2632 53.2171 91.1841 52.5316 91.8667 51.6358C92.5492 50.7401 92.9659 49.6703 93.0691 48.5488C93.1722 47.4274 92.9577 46.2996 92.45 45.2943C91.9423 44.2891 91.1619 43.447 90.1981 42.8645C89.2343 42.2819 88.126 41.9823 87 42ZM87 31.5C87.2967 31.5 87.5867 31.588 87.8334 31.7528C88.08 31.9176 88.2723 32.1519 88.3858 32.426C88.4993 32.7001 88.5291 33.0017 88.4712 33.2926C88.4133 33.5836 88.2704 33.8509 88.0607 34.0607C87.8509 34.2704 87.5836 34.4133 87.2926 34.4712C87.0017 34.5291 86.7001 34.4994 86.426 34.3858C86.1519 34.2723 85.9176 34.08 85.7528 33.8334C85.588 33.5867 85.5 33.2967 85.5 33C85.5 32.6022 85.658 32.2207 85.9393 31.9393C86.2206 31.658 86.6022 31.5 87 31.5ZM79.5 21C79.7967 21 80.0867 21.088 80.3333 21.2528C80.58 21.4176 80.7723 21.6519 80.8858 21.926C80.9993 22.2001 81.0291 22.5017 80.9712 22.7926C80.9133 23.0836 80.7704 23.3509 80.5607 23.5607C80.3509 23.7704 80.0836 23.9133 79.7926 23.9712C79.5017 24.0291 79.2001 23.9994 78.926 23.8858C78.6519 23.7723 78.4176 23.58 78.2528 23.3334C78.088 23.0867 78 22.7967 78 22.5C78 22.1022 78.158 21.7207 78.4393 21.4393C78.7206 21.158 79.1022 21 79.5 21ZM79.5 72C79.7967 72 80.0867 72.088 80.3333 72.2528C80.58 72.4176 80.7723 72.6519 80.8858 72.926C80.9993 73.2001 81.0291 73.5017 80.9712 73.7926C80.9133 74.0836 80.7704 74.3509 80.5607 74.5607C80.3509 74.7705 80.0836 74.9133 79.7926 74.9712C79.5017 75.0291 79.2001 74.9994 78.926 74.8858C78.6519 74.7723 78.4176 74.58 78.2528 74.3334C78.088 74.0867 78 73.7967 78 73.5C78 73.1022 78.158 72.7207 78.4393 72.4394C78.7206 72.158 79.1022 72 79.5 72ZM87 61.5C87.2967 61.5 87.5867 61.588 87.8334 61.7528C88.08 61.9176 88.2723 62.1519 88.3858 62.426C88.4993 62.7001 88.5291 63.0017 88.4712 63.2926C88.4133 63.5836 88.2704 63.8509 88.0607 64.0607C87.8509 64.2704 87.5836 64.4133 87.2926 64.4712C87.0017 64.5291 86.7001 64.4994 86.426 64.3858C86.1519 64.2723 85.9176 64.08 85.7528 63.8334C85.588 63.5867 85.5 63.2967 85.5 63C85.5 62.6022 85.658 62.2207 85.9393 61.9393C86.2206 61.658 86.6022 61.5 87 61.5ZM66 34.5H58.215C57.4598 31.6213 56.2003 28.8992 54.495 26.46C59.0864 27.8504 63.116 30.6664 66 34.5ZM39 46.5C39.0699 43.4723 39.4316 40.4583 40.08 37.5H55.89C56.5485 40.4573 56.9202 43.4713 57 46.5H39ZM57 49.5C56.9301 52.5277 56.5684 55.5417 55.92 58.5H40.11C39.4515 55.5427 39.0798 52.5287 39 49.5H57ZM48 25.5C50.58 25.5 53.325 28.89 55.095 34.5H40.905C42.675 28.89 45.42 25.5 48 25.5ZM41.505 26.46C39.7997 28.8992 38.5402 31.6213 37.785 34.5H30C32.884 30.6664 36.9136 27.8504 41.505 26.46ZM28.11 37.5H37.11C36.4782 40.4619 36.1068 43.4734 36 46.5H25.5C25.7224 43.349 26.6121 40.2812 28.11 37.5ZM28.11 58.5C26.6382 55.713 25.7742 52.6455 25.575 49.5H36.075C36.1472 52.5236 36.4835 55.535 37.08 58.5H28.11ZM30 61.5H37.74C38.4952 64.3788 39.7547 67.1009 41.46 69.54C36.885 68.1411 32.8723 65.3259 30 61.5ZM48 70.5C45.42 70.5 42.675 67.11 40.905 61.5H55.095C53.325 67.11 50.58 70.5 48 70.5ZM54.495 69.54C56.2003 67.1009 57.4598 64.3788 58.215 61.5H66C63.116 65.3337 59.0864 68.1496 54.495 69.54ZM67.89 58.5H58.965C59.5716 55.5359 59.9179 52.5244 60 49.5H70.5C70.2776 52.6511 69.3879 55.7188 67.89 58.5ZM60 46.5C59.9278 43.4765 59.5915 40.465 58.995 37.5H67.92C69.4074 40.2835 70.2868 43.3512 70.5 46.5H60ZM87 51C86.4067 51 85.8266 50.8241 85.3333 50.4944C84.8399 50.1648 84.4554 49.6962 84.2284 49.1481C84.0013 48.5999 83.9419 47.9967 84.0576 47.4147C84.1734 46.8328 84.4591 46.2982 84.8787 45.8787C85.2982 45.4591 85.8328 45.1734 86.4147 45.0577C86.9967 44.9419 87.5999 45.0013 88.148 45.2284C88.6962 45.4554 89.1648 45.8399 89.4944 46.3333C89.8241 46.8266 90 47.4067 90 48C90 48.7957 89.6839 49.5587 89.1213 50.1213C88.5587 50.6839 87.7956 51 87 51Z" fill="white"/>
</svg>
