<svg width="37" height="37" viewBox="0 0 37 37" fill="none" xmlns="http://www.w3.org/2000/svg">
<path d="M6.55211 0H30.448C34.0709 0 37 2.92914 37 6.55211V29.523C37 33.1459 34.0709 36.0751 30.4479 36.0751H6.55211C2.92914 36.075 0 33.1459 0 29.5229V6.55211C0 2.92914 2.92914 0 6.55211 0Z" fill="#390000"/>
<path d="M17.9289 21.6451H12.1939L11.0223 25.268C10.9914 25.4067 10.8681 25.4992 10.7294 25.4838H7.83103C7.66142 25.4838 7.61517 25.3913 7.66142 25.2063L12.6256 10.9151C12.6718 10.7609 12.7181 10.5913 12.7797 10.4063C12.8413 10.0826 12.8722 9.74344 12.8722 9.40423C12.8568 9.32712 12.9185 9.25008 12.9956 9.23462H13.0418H16.9885C17.1118 9.23462 17.1735 9.28087 17.1888 9.35798L22.816 25.2371C22.8622 25.4067 22.816 25.4838 22.6618 25.4838H19.4397C19.3318 25.4992 19.2238 25.4221 19.1931 25.3142L17.9289 21.6451ZM13.0881 18.5155H17.0039L15.0306 12.0867L13.0881 18.5155Z" fill="#FF9A00"/>
<path d="M26.1784 11.8709C25.6696 11.8863 25.1763 11.6859 24.8063 11.3313C24.4517 10.9459 24.2667 10.4372 24.2821 9.91294C24.2668 9.38879 24.4671 8.89544 24.8371 8.54083C25.2071 8.18622 25.7005 8.00122 26.2093 8.00122C26.8105 8.00122 27.273 8.18622 27.6121 8.54083C27.9513 8.91083 28.1363 9.40419 28.1209 9.91294C28.1363 10.4371 27.9513 10.9458 27.5813 11.3313C27.2268 11.7013 26.7025 11.9017 26.1784 11.8709Z" fill="#FF9A00"/>
<path d="M24.4492 25.2525V13.3816C24.4492 13.2275 24.5109 13.1658 24.6496 13.1658H27.7021C27.8409 13.1658 27.9025 13.2429 27.9025 13.3816V25.2525C27.9025 25.4221 27.8409 25.4991 27.7021 25.4991H24.6805C24.5263 25.4991 24.4492 25.4066 24.4492 25.2525Z" fill="#FF9A00"/>
</svg>
