<svg width="15" height="12" viewBox="0 0 15 12" fill="none" xmlns="http://www.w3.org/2000/svg">
<path d="M0.75 4.77295C0.335786 4.77295 3.62117e-08 5.10874 0 5.52295C-3.62117e-08 5.93716 0.335786 6.27295 0.75 6.27295L0.75 5.52295L0.75 4.77295ZM14.2803 6.05328C14.5732 5.76039 14.5732 5.28551 14.2803 4.99262L9.50736 0.219649C9.21447 -0.0732443 8.73959 -0.0732444 8.4467 0.219649C8.15381 0.512542 8.15381 0.987416 8.4467 1.28031L12.6893 5.52295L8.4467 9.76559C8.15381 10.0585 8.15381 10.5334 8.4467 10.8263C8.73959 11.1191 9.21447 11.1191 9.50736 10.8263L14.2803 6.05328ZM0.75 5.52295L0.75 6.27295L13.75 6.27295L13.75 5.52295L13.75 4.77295L0.75 4.77295L0.75 5.52295Z" fill="white"/>
</svg>
