<svg width="71" height="71" viewBox="0 0 71 71" fill="none" xmlns="http://www.w3.org/2000/svg">
<g clip-path="url(#clip0_839_458)">
<path d="M10.5377 45.7061C8.36096 45.7061 6.58984 47.477 6.58984 49.6538C6.58984 51.8305 8.36082 53.6016 10.5377 53.6016C12.7146 53.6016 14.4854 51.8306 14.4854 49.6538C14.4854 47.4769 12.7146 45.7061 10.5377 45.7061ZM10.5377 51.5214C9.50778 51.5214 8.66992 50.6835 8.66992 49.6536C8.66992 48.6238 9.50778 47.786 10.5377 47.786C11.5675 47.786 12.4053 48.6238 12.4053 49.6536C12.4053 50.6835 11.5675 51.5214 10.5377 51.5214Z" fill="white"/>
<path d="M60.4633 45.7061C58.2866 45.7061 56.5156 47.477 56.5156 49.6538C56.5156 51.8305 58.2866 53.6016 60.4633 53.6016C62.6401 53.6016 64.411 51.8306 64.411 49.6538C64.411 47.4769 62.6401 45.7061 60.4633 45.7061ZM60.4633 51.5214C59.4336 51.5214 58.5957 50.6835 58.5957 49.6536C58.5957 48.6238 59.4336 47.786 60.4633 47.786C61.4931 47.786 62.331 48.6238 62.331 49.6536C62.331 50.6835 61.4931 51.5214 60.4633 51.5214Z" fill="white"/>
<path d="M66.2119 16.9219H59.704L57.7065 9.2147C57.0405 6.6455 54.7219 4.85107 52.0678 4.85107H18.932C16.2778 4.85107 13.9592 6.64536 13.2935 9.2147C13.1151 9.90279 11.5284 16.0251 11.296 16.9219H4.78796C2.14791 16.9219 0 19.0699 0 21.71V22.1307C0 24.7709 2.14791 26.9188 4.78796 26.9188H7.8231C6.40295 28.7665 5.16335 30.8229 4.18016 32.6429C3.19988 34.4578 1.97165 36.6499 1.97165 39.8893V53.5998C1.97165 55.3176 2.89993 56.822 4.2807 57.6399V62.494C4.2807 64.509 5.92009 66.1486 7.93528 66.1486H16.2211C18.2362 66.1486 19.8757 64.5092 19.8757 62.494V58.2927H51.1243V62.494C51.1243 64.509 52.7635 66.1486 54.7787 66.1486H63.0647C65.0798 66.1486 66.7192 64.5092 66.7192 62.494V57.6399C68.0999 56.822 69.0282 55.3176 69.0282 53.5996V39.8892C69.0282 37.2588 68.2498 35.362 67.1697 33.2998C66.0307 31.1253 64.6722 28.8642 63.1769 26.9185H66.212C68.8522 26.9185 71.0001 24.7706 71.0001 22.1304V21.7097C71 19.0699 68.8521 16.9219 66.2119 16.9219ZM18.932 6.93117H52.0677C53.774 6.93117 55.2648 8.08479 55.693 9.73652L55.9086 10.5687H37.9268C37.3523 10.5687 36.8867 11.0342 36.8867 11.6087C36.8867 12.1833 37.3523 12.6488 37.9268 12.6488H56.4478C56.82 14.0849 59.2032 23.281 59.6022 24.8198L59.607 24.8386H11.393L14.5522 12.6488H33.0732C33.6477 12.6488 34.1133 12.1833 34.1133 11.6087C34.1133 11.0342 33.6477 10.5687 33.0732 10.5687H15.0914L15.307 9.73652C15.7351 8.08493 17.2258 6.93117 18.932 6.93117ZM2.08009 22.1307V21.71C2.08009 20.2167 3.29487 19.0021 4.78796 19.0021H10.7569L9.24422 24.8388H4.78796C3.29487 24.8387 2.08009 23.6238 2.08009 22.1307ZM7.08314 31.7425L15.3067 33.5604C16.0354 33.7214 16.5971 34.3259 16.7043 35.0643L17.0247 37.2727C17.1074 37.8425 16.9128 38.3943 16.491 38.7862C16.069 39.178 15.5047 39.3317 14.9426 39.2073L4.50368 36.8996C4.9448 35.4595 6.33111 33.0017 7.08314 31.7425ZM17.7956 62.4941C17.7956 63.3623 17.0894 64.0686 16.2211 64.0686H7.93542C7.06719 64.0686 6.36093 63.3623 6.36093 62.4941V58.2929H6.66476H17.7956V62.4941ZM53.8847 56.2128C52.6404 56.2128 18.4238 56.2128 17.1152 56.2128L19.7917 51.9706C20.5376 50.7886 21.8173 50.0829 23.2152 50.0829H47.785C49.1827 50.0829 50.4625 50.7886 51.2085 51.9706L53.8847 56.2128ZM64.6389 58.2929V62.4941C64.6389 63.3623 63.9327 64.0686 63.0646 64.0686H54.7786C53.9105 64.0686 53.2042 63.3623 53.2042 62.4941V58.2929H64.3351H64.6389ZM66.948 53.5999C66.948 55.0407 65.7759 56.2129 64.3351 56.2129H56.3442L52.9672 50.8608C51.838 49.0713 49.9008 48.0029 47.7848 48.0029H23.2151C21.099 48.0029 19.1617 49.0713 18.0325 50.8608L14.6557 56.2129H6.6649C5.22409 56.2129 4.05189 55.0407 4.05189 53.5999V39.8894C4.05189 39.573 4.06783 39.2561 4.09779 38.9404L14.4935 41.2384C15.7147 41.5083 16.9906 41.1615 17.9068 40.3102C18.8231 39.4589 19.2628 38.2116 19.0831 36.974L18.7626 34.7656C18.532 33.1766 17.3236 31.8759 15.7556 31.5294L8.26297 29.8731C8.95883 28.8362 9.71224 27.8247 10.5114 26.9188H60.4885C61.2875 27.8246 62.041 28.8361 62.7368 29.8731L55.2441 31.5294C53.6763 31.8759 52.4679 33.1766 52.2373 34.7656L51.9167 36.974C51.7369 38.2116 52.1767 39.4587 53.0929 40.31C54.0108 41.163 55.2871 41.5079 56.5063 41.2384L66.9019 38.9404C66.9319 39.2561 66.9478 39.5728 66.9478 39.8894V53.5999H66.948ZM65.4004 34.4052C65.8695 35.3067 66.2039 35.9447 66.4963 36.8996L56.0574 39.2073C55.4961 39.3317 54.9309 39.1782 54.5089 38.7862C54.087 38.3941 53.8926 37.8425 53.9751 37.2727L54.2957 35.0643C54.4029 34.3259 54.9644 33.7214 55.6931 33.5604L63.9167 31.7425C64.4219 32.5882 64.9177 33.4778 65.3983 34.4012C65.399 34.4026 65.3997 34.4039 65.4004 34.4052ZM68.9199 22.1307C68.9199 23.6239 67.705 24.8387 66.2119 24.8387H61.7558L61.7426 24.7879L60.243 19.002H66.2118C67.705 19.002 68.9198 20.2167 68.9198 21.7098V22.1307H68.9199Z" fill="white"/>
<path d="M44.7724 35.9351H26.2265C24.4001 35.9351 22.9141 37.4211 22.9141 39.2475V41.8865C22.9141 43.7129 24.4001 45.199 26.2265 45.199H33.0727C33.6472 45.199 34.1127 44.7334 34.1127 44.1589C34.1127 43.5844 33.6472 43.1189 33.0727 43.1189H26.2265C25.547 43.1189 24.9942 42.5661 24.9942 41.8865V39.2475C24.9942 38.568 25.5469 38.0152 26.2265 38.0152H44.7724C45.4519 38.0152 46.0048 38.5679 46.0048 39.2475V41.8865C46.0048 42.566 45.452 43.1189 44.7724 43.1189H37.9262C37.3517 43.1189 36.8862 43.5844 36.8862 44.1589C36.8862 44.7334 37.3517 45.199 37.9262 45.199H44.7724C46.5989 45.199 48.0849 43.7129 48.0849 41.8865V39.2475C48.0849 37.4211 46.5989 35.9351 44.7724 35.9351Z" fill="white"/>
</g>
<defs>
<clipPath id="clip0_839_458">
<rect width="71" height="71" fill="white"/>
</clipPath>
</defs>
</svg>
