<svg width="67" height="36" viewBox="0 0 67 36" fill="none" xmlns="http://www.w3.org/2000/svg">
<path d="M33.2938 23.2271C32.6646 23.2271 31.9655 23.1572 31.3364 22.9474L11.832 17.1451V28.8179C11.832 29.0975 12.0417 29.3772 12.3214 29.517L31.4762 35.1795C32.7345 35.5291 34.1327 35.5291 35.391 35.1795L54.5459 29.517C54.8255 29.4471 55.0352 29.1675 55.0352 28.8179V17.0752L35.1114 23.0174C34.6221 23.1572 33.923 23.2271 33.2938 23.2271Z" fill="url(#paint0_linear_4634_1206)"/>
<path d="M65.8708 9.52498L34.4122 0.157286C33.6433 -0.0524288 32.8043 -0.0524288 32.0353 0.157286L0.576728 9.52498C-0.192243 9.73469 -0.192243 10.8532 0.576728 11.1329L32.0353 20.5005C32.8043 20.7103 33.6432 20.7103 34.4122 20.5005L61.5365 12.4611V27.7066C61.0472 27.9163 60.6976 28.4057 60.6976 28.9649V30.0135C60.6976 30.5728 61.0472 31.0622 61.6064 31.2719L60.0684 34.9071C59.9286 35.3265 60.1383 35.746 60.5578 35.746L61.8161 35.8858H62.5851L63.8434 35.746C64.2629 35.6761 64.5425 35.2566 64.3328 34.9071L62.7948 31.2719C63.2842 31.0622 63.7036 30.5728 63.7036 30.0135V28.9649C63.7036 28.4057 63.3541 27.9163 62.8647 27.7066V12.1116L65.8707 11.2028C66.7097 10.9231 66.7097 9.73469 65.8708 9.52498Z" fill="url(#paint1_linear_4634_1206)"/>
<defs>
<linearGradient id="paint0_linear_4634_1206" x1="-5.47041" y1="-20.2678" x2="64.2643" y2="57.4217" gradientUnits="userSpaceOnUse">
<stop stop-color="#97E0FF"/>
<stop offset="1" stop-color="#1075FF"/>
</linearGradient>
<linearGradient id="paint1_linear_4634_1206" x1="0.7644" y1="-25.8645" x2="70.4991" y2="51.825" gradientUnits="userSpaceOnUse">
<stop stop-color="#97E0FF"/>
<stop offset="1" stop-color="#1075FF"/>
</linearGradient>
</defs>
</svg>
