<svg width="20" height="20" viewBox="0 0 20 20" fill="none" xmlns="http://www.w3.org/2000/svg">
<g clip-path="url(#clip0_4490_1810)">
<path d="M17.9818 14.7845C19.063 12.9882 19.4987 10.9389 19.2412 8.84073C18.7299 4.66698 15.3355 1.26823 11.1705 0.758858C8.28117 0.405733 5.45554 1.37448 3.41492 3.41511C1.37429 5.45573 0.406168 8.28323 0.758668 11.1714C1.26804 15.3364 4.66679 18.7301 8.84117 19.2414C9.23304 19.2895 9.62304 19.3132 10.0105 19.3132C11.6962 19.3132 13.3243 18.8607 14.7843 17.982L17.8218 18.7957C18.0949 18.8695 18.3893 18.7901 18.5899 18.5901C18.7905 18.3901 18.8693 18.0951 18.7962 17.822L17.9818 14.7845ZM16.9012 14.3926C16.8162 14.5257 16.7912 14.6882 16.8324 14.8407L17.5612 17.5614L14.8405 16.8326C14.6893 16.792 14.5262 16.817 14.3924 16.9014C12.7693 17.937 10.8968 18.3607 8.97804 18.1251C5.30992 17.6757 2.32304 14.6939 1.87554 11.0351C1.56492 8.49261 2.41617 6.00511 4.21054 4.21073C5.76179 2.65948 7.83117 1.81323 10.0062 1.81323C10.3468 1.81323 10.6899 1.83386 11.0343 1.87636C14.693 2.32323 17.6749 5.30948 18.1249 8.97761C18.3599 10.8964 17.9368 12.7689 16.9012 14.3926Z" fill="white"/>
<path d="M6.57141 9.24512C6.15453 9.24512 5.81641 9.58324 5.81641 10.0001C5.81641 10.417 6.15453 10.7551 6.57141 10.7551C6.98828 10.7551 7.32641 10.417 7.32641 10.0001C7.32641 9.58324 6.98828 9.24512 6.57141 9.24512Z" fill="white"/>
<path d="M10.0011 9.24512C9.58422 9.24512 9.24609 9.58324 9.24609 10.0001C9.24609 10.417 9.58422 10.7551 10.0011 10.7551C10.418 10.7551 10.7561 10.417 10.7561 10.0001C10.7561 9.58324 10.418 9.24512 10.0011 9.24512Z" fill="white"/>
<path d="M13.4269 9.24512C13.01 9.24512 12.6719 9.58324 12.6719 10.0001C12.6719 10.417 13.01 10.7551 13.4269 10.7551C13.8438 10.7551 14.1819 10.417 14.1819 10.0001C14.1819 9.58324 13.8438 9.24512 13.4269 9.24512Z" fill="white"/>
</g>
<defs>
<clipPath id="clip0_4490_1810">
<rect width="20" height="20" fill="white"/>
</clipPath>
</defs>
</svg>
