<svg width="72" height="72" viewBox="0 0 72 72" fill="none" xmlns="http://www.w3.org/2000/svg">
<path d="M26.3298 44.7813H22.1077C20.7927 44.7813 19.7226 43.7118 19.7226 42.3962V40.0429C19.7226 39.9039 19.6243 39.7836 19.4787 39.7435C18.0148 39.3447 16.6031 38.758 15.2831 38.0005C15.1633 37.9319 15.0221 37.9456 14.9326 38.0351L13.2517 39.716C12.8012 40.1665 12.2025 40.4142 11.5653 40.4142C10.9286 40.4142 10.3293 40.1665 9.87889 39.716L6.89336 36.7305C6.44292 36.2801 6.19463 35.6808 6.19463 35.0441C6.19463 34.4069 6.44292 33.8076 6.89336 33.3577L8.57372 31.6768C8.6638 31.5873 8.67754 31.4461 8.60832 31.3264C7.85137 30.0064 7.2647 28.5946 6.8659 27.1307C6.8258 26.9851 6.7055 26.8868 6.56652 26.8868H4.21325C2.89819 26.8868 1.82812 25.8167 1.82812 24.5017V20.2796C1.82812 18.9646 2.89819 17.8945 4.21325 17.8945H6.56652C6.7055 17.8945 6.8258 17.7967 6.8659 17.6506C7.2647 16.1872 7.85137 14.7755 8.60887 13.4549C8.67754 13.3352 8.6638 13.194 8.57427 13.1045L6.89336 11.4236C6.44292 10.9737 6.19463 10.3744 6.19463 9.73716C6.19463 9.10051 6.44292 8.5012 6.89336 8.05077L9.87889 5.06524C10.3293 4.6148 10.9281 4.36706 11.5653 4.36706C12.2025 4.36706 12.8018 4.6148 13.2522 5.06579L14.9326 6.74614C15.0221 6.83568 15.1628 6.84941 15.2831 6.78075C16.6031 6.02324 18.0142 5.43712 19.4782 5.03777C19.6248 4.99767 19.7226 4.87737 19.7226 4.73839V2.38513C19.7226 1.07007 20.7927 0 22.1077 0H26.3298C27.6448 0 28.7149 1.07007 28.7149 2.38513V4.73839C28.7149 4.87737 28.8127 4.99767 28.9588 5.03722C30.4222 5.43657 31.8339 6.02324 33.1539 6.78075C33.2742 6.84941 33.4149 6.83568 33.5049 6.74614L35.1853 5.06524C36.1175 4.1336 37.6265 4.13305 38.5586 5.06579L38.8745 5.38164C39.8605 6.36711 38.3702 7.86015 37.3831 6.87303C37.1886 6.70494 36.9393 6.2946 36.6772 6.55718L34.9963 8.23753C34.2361 8.99779 33.0468 9.15104 32.1042 8.60997C30.9396 7.942 29.6943 7.42455 28.404 7.07244C27.3449 6.78404 26.605 5.82384 26.605 4.73784V2.38513C26.605 2.23297 26.4814 2.10937 26.3292 2.10937H22.1072C21.9556 2.10937 21.832 2.23297 21.832 2.38513V4.73839C21.832 5.82439 21.0921 6.78404 20.033 7.07298C18.7421 7.4251 17.4968 7.942 16.3322 8.60997C15.3902 9.15104 14.2009 8.99779 13.4406 8.23753L11.7603 6.55718C11.6933 6.49016 11.6175 6.47643 11.5653 6.47643C11.5131 6.47643 11.4373 6.49016 11.3708 6.55718L8.38475 9.54271C8.31829 9.60917 8.304 9.68553 8.304 9.73716C8.304 9.78935 8.31829 9.8657 8.38475 9.93217L10.0657 11.6131C10.8259 12.3733 10.9792 13.562 10.4381 14.5047C9.77013 15.6698 9.25267 16.9145 8.90056 18.2054C8.61217 19.2645 7.65197 20.0039 6.56652 20.0039H4.21325C4.06109 20.0039 3.9375 20.128 3.9375 20.2796V24.5017C3.9375 24.6538 4.06109 24.7774 4.21325 24.7774H6.56652C7.65197 24.7774 8.61217 25.5168 8.90111 26.5759C9.25267 27.8673 9.77013 29.1121 10.4381 30.2766C10.9792 31.2192 10.8259 32.408 10.0657 33.1682L8.3853 34.8491C8.31829 34.9156 8.30455 34.9919 8.30455 35.0441C8.30455 35.0958 8.31883 35.1721 8.3853 35.2391L11.3708 38.2241C11.4785 38.3318 11.6532 38.3323 11.7608 38.2241L13.4412 36.5438C14.2015 35.7835 15.3907 35.6302 16.3333 36.1713C17.4979 36.8393 18.7426 37.3567 20.0335 37.7089C21.0926 37.9972 21.8325 38.9574 21.8325 40.0434V42.3962C21.8325 42.5483 21.9561 42.6719 22.1077 42.6719H26.3298C26.4819 42.6719 26.6055 42.5483 26.6055 42.3962V40.0434C26.6055 38.9574 27.3455 37.9972 28.4045 37.7089C29.752 37.3419 30.3046 39.3771 28.9594 39.7435C28.8132 39.7836 28.7149 39.9039 28.7149 40.0434V42.3962C28.7149 43.7112 27.6448 44.7813 26.3298 44.7813Z" fill="white"/>
<path d="M14.2773 22.3906C14.2773 15.4165 21.2899 10.6358 27.752 13.0979C29.0545 13.595 28.3058 15.5665 27.0006 15.0694C21.9007 13.1253 16.3862 16.9112 16.3862 22.3906C16.3862 26.8478 20.1402 30.4744 24.6852 30.2079C26.075 30.1239 26.2052 32.2316 24.8094 32.314C19.0784 32.6513 14.2773 28.081 14.2773 22.3906Z" fill="white"/>
<path d="M60.1932 46.8352L49.5068 44.7571V42.1166C52.5077 40.0693 54.1326 37.17 54.4864 33.9136C56.0442 33.7901 57.2736 32.4832 57.2736 30.8946V28.727C59.8131 27.6229 59.4703 23.9167 56.7836 23.2915V22.4549C56.7836 14.9332 50.6857 8.83521 43.1644 8.83521H42.0224C34.5006 8.83521 28.4032 14.9332 28.4032 22.4544V23.2915C25.7176 23.9161 25.3727 27.6229 27.9132 28.727V30.8946C27.9132 32.4832 29.1426 33.7901 30.7005 33.9136C31.0092 36.7547 32.3407 39.3552 34.4413 41.1635C34.8434 41.5101 35.2565 41.8276 35.68 42.1166V44.7571L24.9936 46.8352C19.3555 47.9316 14.9609 51.11 14.9609 56.9745V67.702C14.9609 70.0756 16.8852 71.9999 19.2588 71.9999H65.9281C68.3017 71.9999 70.2259 70.0756 70.2259 67.702V56.9745C70.2259 51.1292 65.8583 47.9366 60.1932 46.8352ZM51.4146 47.2768C50.6489 48.3903 49.4783 50.0899 48.2137 51.9202C47.6985 52.6667 46.774 52.7618 46.4125 52.5453L44.7465 51.5461C46.3713 50.5865 48.6197 48.9385 49.3019 46.866L51.4146 47.2768ZM42.5931 50.3162C40.9913 49.5098 37.7982 47.5174 37.7894 45.6344C37.7894 45.6316 37.7894 45.6289 37.7894 45.6261V43.2811C40.859 44.605 44.324 44.6066 47.3975 43.2811V45.6261C47.3975 47.5125 44.1966 49.5093 42.5931 50.3162ZM30.5126 22.4544C30.5126 18.128 32.912 14.3514 36.4502 12.386V13.7082C36.4502 15.1023 38.5595 15.1045 38.5595 13.7082V11.4769C39.506 11.1775 40.5046 10.9979 41.5385 10.955V16.1702C41.5385 17.5644 43.6478 17.5666 43.6478 16.1702V10.955C44.6816 10.9979 45.6808 11.1775 46.6273 11.4769V13.7082C46.6273 15.1023 48.7367 15.1045 48.7367 13.7082V12.386C52.2748 14.3514 54.6742 18.128 54.6742 22.4544V23.2168H30.5126V22.4544ZM29.0547 25.3262H56.1321C57.1429 25.3262 57.1418 26.8538 56.1321 26.8538H29.0547C28.0434 26.8538 28.0445 25.3262 29.0547 25.3262ZM32.7428 32.8458C32.7307 32.2723 32.2622 31.8136 31.6881 31.8136C31.5124 31.7702 30.0221 32.0877 30.0221 30.8946V28.9638H55.1642V30.8946C55.1642 32.0855 53.6344 31.7801 53.4982 31.8136C52.9247 31.8136 52.4561 32.2723 52.4435 32.8458C52.3869 35.4825 51.2663 37.9313 49.3695 39.565C45.3414 43.0334 39.8455 43.0339 35.8173 39.565C33.92 37.9313 32.7994 35.4825 32.7428 32.8458ZM35.8844 46.866C36.5672 48.9385 38.815 50.5865 40.4404 51.5461C38.7705 52.4404 38.8886 52.7079 38.13 52.6184C37.6581 52.5618 37.2346 52.2992 36.9643 51.9081C35.7031 50.0822 34.5363 48.3876 33.7717 47.2768L35.8844 46.866ZM23.7154 69.8905H19.2582C18.0497 69.8905 17.0698 68.9105 17.0698 67.702V56.9745C17.0698 53.8137 18.5057 51.6285 21.6554 50.119C21.7829 50.6804 23.7154 55.9258 23.7154 63.2553V69.8905ZM41.5385 69.8905H25.8247V63.2553C25.8247 55.3139 23.8197 50.2003 23.6225 49.3346C24.8541 48.9253 23.9395 49.2406 31.514 47.7157C33.6909 50.8792 37.7537 56.7816 40.1487 60.1857C41.0584 61.4783 41.5385 62.9966 41.5385 64.577V69.8905ZM42.5931 60.166C42.3833 59.7545 42.1433 59.3557 41.8741 58.9723C41.0644 57.822 40.0136 56.3125 38.9171 54.7299C39.2429 54.658 39.5609 54.5327 39.8592 54.3542L42.5931 52.7145L45.3276 54.3542C45.6254 54.5327 45.944 54.658 46.2697 54.7299C45.1733 56.3114 44.1224 57.8209 43.3127 58.9723C43.043 59.3557 42.803 59.7545 42.5931 60.166ZM68.1165 67.702C68.1165 68.9105 67.1371 69.8905 65.9281 69.8905H61.4709V65.9113C61.4709 64.5171 59.3615 64.5149 59.3615 65.9113V69.8905H43.6478V64.577C43.6478 62.9966 44.1285 61.4783 45.0376 60.1863C46.3999 58.25 52.009 50.1558 53.6728 47.7157C61.2435 49.2401 60.3305 48.9248 61.5637 49.3346C61.4105 49.9833 59.6357 54.8069 59.3907 61.6491C59.3401 63.0466 61.4484 63.1152 61.4984 61.7249C61.7357 55.1035 63.36 50.843 63.5308 50.119C66.6806 51.6285 68.1165 53.8137 68.1165 56.9739V67.702Z" fill="white"/>
</svg>
