<svg width="65" height="65" viewBox="0 0 65 65" fill="none" xmlns="http://www.w3.org/2000/svg">
<g clip-path="url(#clip0_4634_1239)">
<path d="M19.2208 65.0004C19.2134 65.0004 19.2075 65.0004 19.2016 65.0004C15.1672 64.9871 13.5895 60.2244 11.4075 53.6298C10.6526 51.3504 9.79731 48.7666 8.74844 46.0751C8.06003 44.3112 7.30958 42.4838 6.55026 40.6328C2.34742 30.4027 -1.99724 19.8239 0.986853 13.0491C7.2564 -1.1696 17.3654 1.52199 27.1464 4.12642C32.305 5.50028 37.638 6.92142 42.5529 5.93903C43.3609 5.77949 44.1306 6.29801 44.2916 7.09722C44.4512 7.8979 43.9326 8.67494 43.1334 8.83597C37.5464 9.95574 31.8722 8.44301 26.3871 6.98199C16.6386 4.38347 8.93901 2.33597 3.69026 14.2413C1.21435 19.8638 5.49992 30.3022 9.28174 39.5101C10.0484 41.3788 10.8048 43.2195 11.4991 45.0011C12.5761 47.7636 13.4447 50.3872 14.2099 52.7006C15.8689 57.713 17.3019 62.0399 19.209 62.0459H19.2164C22.3423 62.0459 23.7723 56.2372 25.155 50.6221C26.814 43.8916 28.5276 36.9322 33.9788 36.9322C34.7957 36.9322 35.4561 37.5926 35.4561 38.4095C35.4561 39.2264 34.7957 39.8868 33.9788 39.8868C30.8425 39.8868 29.4111 45.7043 28.0254 51.3282C26.3708 58.0498 24.6587 65.0004 19.2208 65.0004Z" fill="white"/>
<path d="M47.2902 65.0002C41.9616 65.0002 39.9437 57.2889 37.9952 49.8316C37.0246 46.1192 35.4011 39.9088 33.9563 39.8866C33.1408 39.8733 32.4894 39.2011 32.5027 38.3842C32.516 37.5791 33.1748 36.932 33.9799 36.932H34.005C37.6923 36.9926 39.1563 42.5959 40.8537 49.0856C42.3635 54.8588 44.2411 62.0457 47.2902 62.0457C49.2402 62.0457 50.8918 56.0864 52.3483 50.8273C52.8624 48.9718 53.4002 47.0322 53.9985 45.0999C54.9912 41.9016 56.1627 38.7417 57.2957 35.6867C59.262 30.3848 61.1204 25.3768 61.8029 20.8519C62.8252 14.0786 60.5723 8.42068 55.619 5.32727C49.416 1.45091 40.4149 2.39046 32.6947 7.71602C32.0225 8.17693 31.1022 8.01 30.6398 7.33932C30.1774 6.66716 30.3458 5.74682 31.0165 5.28443C39.7088 -0.711818 49.9818 -1.67943 57.1849 2.82182C63.1841 6.56818 65.9319 13.3016 64.7249 21.2936C63.9952 26.1199 62.0865 31.2652 60.0656 36.7164C58.9458 39.7344 57.7877 42.8544 56.82 45.9759C56.2306 47.8786 55.7003 49.7902 55.1936 51.6176C53.1239 59.0941 51.4886 65.0002 47.2902 65.0002Z" fill="white"/>
<path d="M53.0323 36.4518C52.8875 36.4518 52.7413 36.4296 52.595 36.3853C51.8165 36.1445 51.3793 35.3157 51.6215 34.5372C52.1873 32.7143 52.8521 30.9223 53.4947 29.188C54.5923 26.2305 55.6279 23.4355 56.0031 20.9493C56.4847 17.7554 55.6175 15.0638 53.5612 13.3708C52.9319 12.8523 52.8418 11.9216 53.3588 11.2923C53.8788 10.6645 54.808 10.5714 55.4388 11.0914C58.3298 13.4698 59.5678 17.129 58.9252 21.391C58.5041 24.1786 57.4169 27.1124 56.2631 30.2177C55.6338 31.9136 54.9838 33.6671 54.4431 35.4132C54.2481 36.044 53.6631 36.4518 53.0323 36.4518Z" fill="white"/>
</g>
<defs>
<clipPath id="clip0_4634_1239">
<rect width="65" height="65" fill="white"/>
</clipPath>
</defs>
</svg>
