<svg width="72" height="72" viewBox="0 0 72 72" fill="none" xmlns="http://www.w3.org/2000/svg">
<path d="M72 38.6333V14.5818C72 13.9994 71.5278 13.5271 70.9453 13.5271H64.1091V1.05469C64.1091 0.472219 63.6369 0 63.0544 0H36C35.4175 0 34.9453 0.472219 34.9453 1.05469V6.76364H23.6001C23.0176 6.76364 22.5454 7.23586 22.5454 7.81833V13.5273H16.9366L14.8397 5.31506C14.2102 2.84934 11.9932 1.12725 9.44859 1.12725H3.30919C1.48458 1.12725 0 2.61183 0 4.43644C0 6.26119 1.48458 7.74563 3.30919 7.74563H8.62945L20.4376 53.9951C21.4504 57.9589 25.0147 60.7272 29.1054 60.7272H68.6908C70.5156 60.7272 72 59.2426 72 57.418C72 55.5933 70.5154 54.1088 68.6908 54.1088H29.1054C28.0412 54.1088 27.1139 53.3886 26.8507 52.3574L25.7905 48.2053L68.088 43.0386C70.3183 42.7732 72 40.8793 72 38.6333ZM24.6548 8.87302H41.709V13.5273H24.6548V8.87302ZM25.2644 46.1445L18.9855 21.5523C18.8414 20.988 18.2673 20.6474 17.7026 20.7913C17.1383 20.9354 16.7975 21.5097 16.9415 22.0742L24.8067 52.8794C25.3086 54.8453 27.0762 56.2184 29.1053 56.2184H68.6907C69.3523 56.2184 69.8905 56.7565 69.8905 57.4182C69.8905 58.0797 69.3522 58.618 68.6907 58.618H29.1054C25.9793 58.618 23.2553 56.5023 22.4814 53.4732L10.4707 6.43022C10.3514 5.9632 9.9308 5.63639 9.44873 5.63639H3.30919C2.64755 5.63639 2.10938 5.09808 2.10938 4.43658C2.10938 3.77508 2.64769 3.23677 3.30919 3.23677H9.44859C11.0285 3.23677 12.405 4.30608 12.7959 5.83692L15.8144 17.6594C15.9585 18.2237 16.5329 18.5645 17.0973 18.4205C17.6617 18.2763 18.0024 17.702 17.8584 17.1375L17.4752 15.6368H56.2912C56.8737 15.6368 57.3459 15.1647 57.3459 14.5821C57.3459 13.9996 56.8737 13.5274 56.2912 13.5274H43.8183V7.81833C43.8183 7.23586 43.3461 6.76364 42.7636 6.76364H37.0547V2.10938H61.9997V13.5271H60.7995C60.217 13.5271 59.7448 13.9994 59.7448 14.5818C59.7448 15.1644 60.217 15.6365 60.7995 15.6365H69.8906V38.6332C69.8906 39.8112 69.0085 40.8047 67.8354 40.9444L25.2644 46.1445Z" fill="white"/>
<path d="M22.4716 63.127C20.0253 63.127 18.0352 65.1171 18.0352 67.5634C18.0352 70.0097 20.0253 72 22.4716 72C24.9179 72 26.908 70.0098 26.908 67.5635C26.908 65.1172 24.9179 63.127 22.4716 63.127ZM22.4716 69.8906C21.1884 69.8906 20.1445 68.8466 20.1445 67.5635C20.1445 66.2805 21.1884 65.2365 22.4716 65.2365C23.7548 65.2365 24.7987 66.2805 24.7987 67.5635C24.7987 68.8466 23.7548 69.8906 22.4716 69.8906Z" fill="white"/>
<path d="M67.5653 63.127C65.119 63.127 63.1289 65.1171 63.1289 67.5634C63.1289 70.0097 65.119 72 67.5653 72C70.0117 72 72.0018 70.0098 72.0018 67.5635C72.0018 65.1172 70.0117 63.127 67.5653 63.127ZM67.5653 69.8906C66.2821 69.8906 65.2383 68.8466 65.2383 67.5635C65.2383 66.2805 66.2821 65.2365 67.5653 65.2365C68.8485 65.2365 69.8924 66.2803 69.8924 67.5635C69.8924 68.8467 68.8485 69.8906 67.5653 69.8906Z" fill="white"/>
<path d="M29.2383 20.2908C28.6558 20.2908 28.1836 20.763 28.1836 21.3455V39.9337C28.1836 40.5163 28.6558 40.9884 29.2383 40.9884C29.8207 40.9884 30.293 40.5163 30.293 39.9337V21.3455C30.293 20.763 29.8207 20.2908 29.2383 20.2908Z" fill="white"/>
<path d="M36 20.2908C35.4175 20.2908 34.9453 20.763 34.9453 21.3455V39.0883C34.9453 39.6707 35.4175 40.1429 36 40.1429C36.5825 40.1429 37.0547 39.6707 37.0547 39.0883V21.3455C37.0547 20.763 36.5825 20.2908 36 20.2908Z" fill="white"/>
<path d="M42.7617 20.2908C42.1792 20.2908 41.707 20.763 41.707 21.3455V38.278C41.707 38.8604 42.1792 39.3327 42.7617 39.3327C43.3442 39.3327 43.8164 38.8604 43.8164 38.278V21.3455C43.8164 20.763 43.3442 20.2908 42.7617 20.2908Z" fill="white"/>
<path d="M49.5273 20.2908C48.9449 20.2908 48.4727 20.763 48.4727 21.3455V37.4325C48.4727 38.015 48.9449 38.4872 49.5273 38.4872C50.1098 38.4872 50.582 38.015 50.582 37.4325V21.3455C50.582 20.763 50.1098 20.2908 49.5273 20.2908Z" fill="white"/>
<path d="M56.2891 20.2908C55.7066 20.2908 55.2344 20.763 55.2344 21.3455V36.5871C55.2344 37.1697 55.7066 37.6418 56.2891 37.6418C56.8715 37.6418 57.3438 37.1697 57.3438 36.5871V21.3455C57.3438 20.763 56.8715 20.2908 56.2891 20.2908Z" fill="white"/>
<path d="M63.0547 20.2908C62.4722 20.2908 62 20.763 62 21.3455V35.8121C62 36.3946 62.4722 36.8668 63.0547 36.8668C63.6372 36.8668 64.1094 36.3946 64.1094 35.8121V21.3455C64.1094 20.763 63.6372 20.2908 63.0547 20.2908Z" fill="white"/>
</svg>
