<svg width="89" height="89" viewBox="0 0 89 89" fill="none" xmlns="http://www.w3.org/2000/svg">
<path d="M85.6108 24.6504L49.496 9.17236C46.321 7.81169 42.6772 7.81275 39.4983 9.17502L3.39137 24.6496C1.29958 25.5458 0 27.5163 0 29.7919C0 32.0663 1.29869 34.0357 3.38924 34.9316L7.65736 36.761C7.65292 36.805 7.65061 36.8498 7.65061 36.8949V57.0925C6.00083 57.6498 4.80922 59.2111 4.80922 61.0466C4.80922 62.1107 5.21021 63.0827 5.86817 63.8207C5.14042 64.5341 4.65721 65.5012 4.5574 66.5971L3.53486 77.8458C3.46507 78.6142 3.72346 79.3814 4.24361 79.9511C4.76376 80.5208 5.50465 80.8475 6.27609 80.8475H11.6887C12.4602 80.8475 13.2011 80.5208 13.7212 79.9511C14.2416 79.3814 14.4998 78.614 14.43 77.8458L13.4074 66.5971C13.3078 65.5014 12.8244 64.5343 12.0967 63.8207C12.7546 63.0828 13.1556 62.1109 13.1556 61.0466C13.1556 59.2113 11.964 57.6499 10.3142 57.0925V37.8997L17.602 41.023C17.5976 41.0671 17.5953 41.1117 17.5953 41.1568V51.3259C17.5953 55.57 20.5013 59.4963 25.7783 62.3817C30.8008 65.1279 37.4496 66.6404 44.4996 66.6404C51.5497 66.6404 58.1985 65.1279 63.221 62.3817C68.4978 59.4963 71.404 55.57 71.404 51.3259V41.1568C71.404 41.1117 71.4017 41.0671 71.3973 41.0232L85.6085 34.9327C87.7002 34.0363 88.9998 32.0656 88.9998 29.7902C89 27.5158 87.7013 25.5464 85.6108 24.6504ZM11.7543 78.1548C11.728 78.1837 11.6994 78.1837 11.6887 78.1837H6.27609C6.26525 78.1837 6.23684 78.1837 6.21056 78.1548C6.1841 78.1259 6.18676 78.0976 6.18765 78.087L7.21019 66.8383C7.29419 65.9157 8.05604 65.2199 8.98251 65.2199C9.9088 65.2199 10.6706 65.9157 10.7546 66.8383L11.7772 78.0868C11.7783 78.0976 11.7807 78.1259 11.7543 78.1548ZM8.98251 62.5561C8.15016 62.5561 7.47302 61.879 7.47302 61.0466C7.47302 60.2143 8.15016 59.5372 8.98251 59.5372C9.81485 59.5372 10.492 60.2143 10.492 61.0466C10.492 61.879 9.81485 62.5561 8.98251 62.5561ZM68.7404 45.6433C68.7404 49.0874 65.9057 52.45 60.9633 54.8689C60.3025 55.1923 60.0292 55.99 60.3526 56.6507C60.5837 57.123 61.0573 57.3974 61.5499 57.3974C61.7465 57.3974 61.9459 57.3537 62.1345 57.2614C64.8759 55.9197 67.0723 54.2852 68.6383 52.4678C68.1389 55.2765 65.8067 57.9323 61.9434 60.0447C57.3059 62.5805 51.1112 63.9768 44.5 63.9768C37.8888 63.9768 31.6941 62.5805 27.0566 60.0447C23.2074 57.9399 20.8774 55.2957 20.3667 52.4982C21.713 54.0501 23.5295 55.4694 25.7785 56.6991C30.801 59.4453 37.4498 60.9578 44.4998 60.9578C46.4721 60.9578 48.4392 60.8378 50.3465 60.6013C51.0766 60.5107 51.5949 59.8456 51.5044 59.1156C51.4138 58.3855 50.7496 57.867 50.0187 57.9577C48.2197 58.1809 46.3629 58.294 44.4998 58.294C37.8886 58.294 31.6939 56.8977 27.0564 54.3619C22.6732 51.9652 20.2593 48.869 20.2593 45.6433V42.1619L39.504 50.4099C41.0905 51.0899 42.7939 51.4298 44.4982 51.4298C46.2045 51.4298 47.9114 51.089 49.5017 50.4074L68.7404 42.1623V45.6433ZM84.5593 32.4843L48.4522 47.9587C45.9404 49.0352 43.0614 49.0361 40.5533 47.9613L12.9581 36.1346L38.2427 31.7372C39.38 33.0831 41.6977 33.9645 44.4998 33.9645C48.4989 33.9645 51.5145 32.1704 51.5145 29.7912C51.5145 27.4121 48.4989 25.6179 44.4998 25.6179C40.8678 25.6179 38.0474 27.0979 37.5603 29.1519L8.75431 34.1616C8.66978 34.1764 8.58897 34.1993 8.51155 34.2286L4.43878 32.4829C3.32726 32.007 2.6638 31.0008 2.6638 29.7919C2.6638 28.5819 3.32815 27.5746 4.44073 27.0978L40.5476 11.6232C41.8048 11.0846 43.1535 10.8152 44.502 10.8152C45.8481 10.8152 47.1938 11.0837 48.4467 11.6206L84.5614 27.0987C85.6727 27.5749 86.3362 28.5811 86.3362 29.79C86.3362 31.0004 85.6718 32.0075 84.5593 32.4843ZM40.1489 29.7914C40.1489 29.4034 41.6449 28.2819 44.4998 28.2819C47.3547 28.2819 48.8507 29.4034 48.8507 29.7914C48.8507 30.1794 47.3547 31.3009 44.4998 31.3009C41.6449 31.3009 40.1489 30.1793 40.1489 29.7914Z" fill="white"/>
<path d="M54.4443 59.8614C54.5436 59.8614 54.6444 59.8502 54.7453 59.8269C55.7504 59.5946 56.7407 59.325 57.6884 59.0251C58.3897 58.8033 58.7785 58.0549 58.5567 57.3537C58.3349 56.6524 57.5867 56.2633 56.885 56.4853C56.0042 56.7639 55.0825 57.0148 54.1458 57.2313C53.429 57.3968 52.9822 58.1119 53.1477 58.8287C53.2902 59.4447 53.8382 59.8614 54.4443 59.8614Z" fill="white"/>
</svg>
