<svg width="37" height="37" viewBox="0 0 37 37" fill="none" xmlns="http://www.w3.org/2000/svg">
<g clip-path="url(#clip0_845_48)">
<path d="M18.5044 5.46637e-07C8.28713 -0.00245648 0.00245758 8.27832 5.46637e-07 18.4956C-0.00245648 28.7129 8.27832 36.9975 18.4956 37C28.7129 37.0025 36.9975 28.7217 37 18.5044C37 18.503 37 18.5014 37 18.5C37 8.28446 28.7199 0.00245758 18.5044 5.46637e-07Z" fill="#AB003A"/>
<path d="M10.793 10.7894H13.8763V26.2061H10.793V10.7894Z" fill="white"/>
<path d="M16.9609 23.1228H26.2109V26.2062H16.9609V23.1228Z" fill="white"/>
<path d="M16.9609 16.9561H26.2109V20.0394H16.9609V16.9561Z" fill="white"/>
<path d="M16.9609 10.7894H26.2109V13.8728H16.9609V10.7894Z" fill="white"/>
</g>
<defs>
<clipPath id="clip0_845_48">
<rect width="37" height="37" fill="white"/>
</clipPath>
</defs>
</svg>
