<svg width="13" height="24" viewBox="0 0 13 24" fill="none" xmlns="http://www.w3.org/2000/svg">
<path d="M3.6 13.53C3.51 13.53 1.53 13.53 0.63 13.53C0.15 13.53 0 13.35 0 12.9C0 11.7 0 10.47 0 9.27C0 8.79 0.18 8.64 0.63 8.64H3.6C3.6 8.55 3.6 6.81 3.6 6C3.6 4.8 3.81 3.66 4.41 2.61C5.04 1.53 5.94 0.81 7.08 0.39C7.83 0.12 8.58 0 9.39 0H12.33C12.75 0 12.93 0.18 12.93 0.6V4.02C12.93 4.44 12.75 4.62 12.33 4.62C11.52 4.62 10.71 4.62 9.9 4.65C9.09 4.65 8.67 5.04 8.67 5.88C8.64 6.78 8.67 7.65 8.67 8.58H12.15C12.63 8.58 12.81 8.76 12.81 9.24V12.87C12.81 13.35 12.66 13.5 12.15 13.5C11.07 13.5 8.76 13.5 8.67 13.5V23.28C8.67 23.79 8.52 23.97 7.98 23.97C6.72 23.97 5.49 23.97 4.23 23.97C3.78 23.97 3.6 23.79 3.6 23.34C3.6 20.19 3.6 13.62 3.6 13.53Z" fill="white"/>
</svg>
