<svg width="25" height="37" viewBox="0 0 25 37" fill="none" xmlns="http://www.w3.org/2000/svg">
<path d="M12.4199 18.5014C12.4199 15.0957 15.1809 12.3347 18.5866 12.3347C21.9924 12.3347 24.7534 15.0957 24.7534 18.5014C24.7534 21.9073 21.9924 24.6682 18.5866 24.6682C15.1808 24.6682 12.4199 21.9072 12.4199 18.5014Z" fill="#00BCFF"/>
<path d="M0.0859375 30.8332C0.0859375 27.4274 2.84688 24.6664 6.25266 24.6664L9.53899 22.9314L12.4194 24.6664V30.8332C12.4194 34.239 9.65844 36.9999 6.25266 36.9999C2.84688 36.9999 0.0859375 34.2389 0.0859375 30.8332Z" fill="#00CF7F"/>
<path d="M12.4201 0L9.06445 5.82975L12.4201 12.3335H18.5003C21.9062 12.3335 24.667 9.5725 24.667 6.16673C24.667 2.76095 21.9061 0 18.5003 0H12.4201Z" fill="#FF7361"/>
<path d="M0 6.16672C0 9.5725 2.76095 12.3334 6.16673 12.3334L9.43802 13.597L12.42 12.3334V0H6.16665C2.76094 0 0 2.76095 0 6.16672Z" fill="#FF4D12"/>
<path d="M0.0859375 18.5015C0.0859375 21.9074 2.84688 24.6682 6.25266 24.6682H12.4194V12.3347H6.25266C2.84688 12.3347 0.0859375 15.0957 0.0859375 18.5015Z" fill="#B659FF"/>
</svg>
