<svg width="76" height="76" viewBox="0 0 76 76" fill="none" xmlns="http://www.w3.org/2000/svg">
<g clip-path="url(#clip0_4634_1312)">
<path d="M55.4154 76C55.0829 76 54.7504 75.8955 54.4685 75.6833C53.6674 75.088 34.832 60.895 34.832 49.4982C34.832 43.1585 39.9874 38 46.327 38C49.937 38 53.2715 39.6815 55.4154 42.4428C57.556 39.6815 60.8905 38 64.5037 38C70.8434 38 75.9987 43.1585 75.9987 49.4982C75.9987 60.8982 57.1634 75.088 56.3622 75.6865C56.0804 75.8955 55.7479 76 55.4154 76ZM46.327 41.1667C41.7354 41.1667 37.9987 44.9065 37.9987 49.4982C37.9987 57.19 49.7882 68.0168 55.4154 72.4217C61.0394 68.0137 72.832 57.1805 72.832 49.4982C72.832 44.9065 69.0954 41.1667 64.5037 41.1667C61.1819 41.1667 58.1862 43.1268 56.8689 46.1605C56.3685 47.3163 54.4654 47.3163 53.965 46.1605C52.6445 43.1268 49.6489 41.1667 46.327 41.1667Z" fill="white"/>
<path d="M51.4591 7.1249C51.0538 7.1249 50.6485 6.96974 50.3381 6.66257C49.7206 6.04507 49.7206 5.04124 50.3381 4.42374L53.5048 1.25707C54.1223 0.63957 55.1261 0.63957 55.7436 1.25707C56.3611 1.87457 56.3611 2.8784 55.7436 3.4959L52.577 6.66257C52.2698 6.96974 51.8645 7.1249 51.4591 7.1249Z" fill="white"/>
<path d="M18.2091 40.3751C17.8038 40.3751 17.3985 40.2199 17.0881 39.9127C16.4706 39.2952 16.4706 38.2914 17.0881 37.6739L37.6715 17.0906C38.289 16.4731 39.2928 16.4731 39.9103 17.0906C40.5278 17.7081 40.5278 18.7119 39.9103 19.3294L19.327 39.9127C19.0198 40.2199 18.6145 40.3751 18.2091 40.3751Z" fill="white"/>
<path d="M2.37319 56.2084C1.96785 56.2084 1.56252 56.0532 1.25219 55.7461C0.634687 55.1286 0.634687 54.1247 1.25219 53.5072L4.41885 50.3406C5.03635 49.7231 6.04019 49.7231 6.65769 50.3406C7.27519 50.9581 7.27519 51.9619 6.65769 52.5794L3.49102 55.7461C3.18385 56.0532 2.77852 56.2084 2.37319 56.2084Z" fill="white"/>
<path d="M21.6455 56.2084C20.3756 56.2084 19.1818 55.7144 18.2856 54.8183L2.18314 38.7158C1.28697 37.8196 0.792969 36.6258 0.792969 35.3559C0.792969 34.0893 1.28697 32.8954 2.18314 31.9961L4.0388 30.1404C5.88497 28.2911 8.9028 28.2911 10.7553 30.1404L26.861 46.2461C28.7103 48.0986 28.7103 51.1101 26.861 52.9626L25.0053 54.8183C24.106 55.7144 22.9121 56.2084 21.6455 56.2084ZM7.39547 31.9169C6.99014 31.9169 6.5848 32.0721 6.27447 32.3793L4.4188 34.2349C4.12114 34.5358 3.95647 34.9316 3.95647 35.3559C3.95647 35.7803 4.12114 36.1761 4.4188 36.4738L20.5245 52.5794C21.1261 53.1779 22.1648 53.1811 22.7633 52.5794L24.619 50.7238C25.2333 50.1063 25.2333 49.1024 24.619 48.4849L8.51647 32.3793C8.20614 32.0689 7.8008 31.9169 7.39547 31.9169Z" fill="white"/>
<path d="M11.3556 56.9998C10.0858 56.9998 8.89195 56.5058 7.99578 55.6096L1.39328 49.0039C-0.459219 47.1514 -0.459219 44.1399 1.39328 42.2874L4.69611 38.9846C5.31361 38.3671 6.31745 38.3671 6.93495 38.9846C7.55245 39.6021 7.55245 40.6059 6.93495 41.2234L3.63211 44.5263C3.01461 45.1438 3.01461 46.1476 3.63211 46.7651L10.2378 53.3708C10.8363 53.9661 11.8781 53.9724 12.4766 53.3708L15.7794 50.0679C16.3969 49.4504 17.4008 49.4504 18.0183 50.0679C18.6358 50.6854 18.6358 51.6893 18.0183 52.3068L14.7154 55.6096C13.8161 56.5058 12.6223 56.9998 11.3556 56.9998Z" fill="white"/>
<path d="M49.6032 28.2499C48.3872 28.2499 47.1712 27.7875 46.2434 26.8629L30.1409 10.754C28.2916 8.90153 28.2916 5.88686 30.1409 4.03753L31.9966 2.18186C33.7889 0.386364 36.9207 0.38953 38.7162 2.18186L54.8187 18.2844C55.7149 19.1805 56.2089 20.3744 56.2089 21.6442C56.2089 22.9109 55.7149 24.1047 54.8187 25.004L52.9631 26.8597C52.0384 27.7875 50.8192 28.2499 49.6032 28.2499ZM35.3532 3.95836C34.9321 3.95836 34.5331 4.12303 34.2322 4.4207L32.3766 6.27636C31.7591 6.89386 31.7591 7.8977 32.3766 8.5152L48.4791 24.6209C49.0966 25.2352 50.1004 25.2352 50.7179 24.6209L52.5736 22.7652C52.8712 22.4644 53.0359 22.0685 53.0359 21.6442C53.0359 21.2199 52.8712 20.824 52.5736 20.5264L36.4679 4.4207C36.1734 4.12303 35.7776 3.95836 35.3532 3.95836Z" fill="white"/>
<path d="M51.1877 18.4809C50.7824 18.4809 50.3771 18.3257 50.0667 18.0186C49.4492 17.4011 49.4492 16.3972 50.0667 15.7797L53.3696 12.4769C53.6704 12.1761 53.8351 11.7771 53.8351 11.3559C53.8351 10.9316 53.6704 10.5357 53.3727 10.2381L46.7671 3.6324C46.1717 3.03707 45.1299 3.03707 44.5282 3.6324L41.2254 6.93523C40.6079 7.55273 39.6041 7.55273 38.9866 6.93523C38.3691 6.31773 38.3691 5.3139 38.9866 4.6964L42.2894 1.39357C44.0817 -0.398767 47.2136 -0.398767 49.0091 1.39357L55.6116 7.99923C56.5077 8.89223 57.0017 10.0861 57.0017 11.3559C57.0017 12.6226 56.5077 13.8164 55.6116 14.7157L52.3087 18.0186C51.9984 18.3257 51.5931 18.4809 51.1877 18.4809Z" fill="white"/>
</g>
<defs>
<clipPath id="clip0_4634_1312">
<rect width="76" height="76" fill="white"/>
</clipPath>
</defs>
</svg>
