<svg width="89" height="67" viewBox="0 0 89 67" fill="none" xmlns="http://www.w3.org/2000/svg">
<path d="M85.3541 8.45712H81.1794V4.98794C81.1794 2.23757 78.9418 0 76.1916 0H72.2127C69.4624 0 67.225 2.23757 67.225 4.98794V19.2691H60.5574V15.4349C60.5574 12.6522 58.2936 10.3886 55.5111 10.3886C54.4178 10.3886 53.4057 10.7393 52.5789 11.3326C51.7659 9.63367 50.03 8.45712 48.0242 8.45712C46.1279 8.45712 44.473 9.50842 43.611 11.0588C42.7592 10.402 41.6936 10.0092 40.537 10.0092C38.7819 10.0092 37.2346 10.911 36.3305 12.2746C35.4475 11.5172 34.3017 11.0583 33.0501 11.0583C30.2674 11.0583 28.0038 13.3219 28.0038 16.1046V19.2694H21.7756V15.5916C21.7756 14.8719 21.1922 14.2888 20.4727 14.2888C19.7532 14.2888 19.1699 14.8719 19.1699 15.5916V45.8576C19.1699 47.1712 18.1012 48.2397 16.7878 48.2397H12.8084C11.4948 48.2397 10.4263 47.1712 10.4263 45.8576V4.98794C10.4263 3.67434 11.495 2.60567 12.8084 2.60567H16.7873C18.1009 2.60567 19.1694 3.67434 19.1694 4.98794V10.0391C19.1694 10.7588 19.7527 11.3419 20.4722 11.3419C21.1917 11.3419 21.775 10.7588 21.775 10.0391V4.98794C21.775 2.23757 19.5375 0 16.7873 0H12.8084C10.058 0 7.82065 2.23757 7.82065 4.98794V8.45712H3.64585C1.63549 8.45712 0 10.0926 0 12.1028V38.7424C0 40.7528 1.63549 42.3883 3.64585 42.3883H7.82065V45.8575C7.82065 48.6077 10.0582 50.8452 12.8084 50.8452H16.7873C19.5376 50.8452 21.775 48.6077 21.775 45.8575V31.5763H26.2398V33.9553C26.2398 35.1779 26.6674 36.3713 27.4443 37.3157L31.4903 42.2349V65.6871C31.4903 66.4068 32.0737 66.9899 32.7932 66.9899C33.5127 66.9899 34.096 66.4068 34.096 65.6871V41.768C34.096 41.466 33.9911 41.1735 33.7993 40.9402L29.4565 35.6603C29.0624 35.1812 28.8452 34.5756 28.8452 33.9553V31.5763L53.4841 31.7269C54.2036 31.7269 54.7869 31.1438 54.7869 30.4241C54.7869 29.7044 54.2036 29.1213 53.4841 29.1213H47.5562C46.3333 29.1213 45.3382 28.1263 45.3382 26.9035C45.3382 25.6806 46.3333 24.6856 47.5562 24.6856H58.7583C59.528 24.6856 60.1542 25.3116 60.1542 26.0813V33.9551C60.1542 34.5755 59.9371 35.1812 59.5429 35.6601L55.2002 40.94C55.0084 41.1733 54.9035 41.4657 54.9035 41.7678V45.204C54.9035 45.9236 55.4868 46.5068 56.2063 46.5068C56.9258 46.5068 57.5091 45.9236 57.5091 45.204V42.2347L61.5552 37.3156C62.3319 36.3711 62.7597 35.1777 62.7597 33.9551V31.5762H67.2244V45.8573C67.2244 48.6075 69.462 50.8451 72.2122 50.8451H76.1911C78.9414 50.8451 81.1788 48.6075 81.1788 45.8573V42.3881H85.3536C87.364 42.3881 88.9995 40.7526 88.9995 38.7423V12.1028C89 10.0926 87.3645 8.45712 85.3541 8.45712ZM3.64585 39.7826C3.07225 39.7826 2.60567 39.3158 2.60567 38.7424V12.1028C2.60567 11.5292 3.07225 11.0628 3.64585 11.0628H7.82065V39.7826H3.64585ZM55.5109 12.9943C56.8568 12.9943 57.9516 14.0892 57.9516 15.4349V20.2855C57.9516 20.9734 57.6597 21.6206 57.1603 22.0801H53.8614C53.362 21.6206 53.0701 20.9734 53.0701 20.2855V15.4349C53.0701 14.0892 54.165 12.9943 55.5109 12.9943ZM45.5832 13.5034C45.5832 12.1577 46.6781 11.0628 48.0238 11.0628C49.3696 11.0628 50.4645 12.1577 50.4645 13.5034V20.2855C50.4645 20.9734 50.1726 21.6206 49.6732 22.0801H47.5564C47.1968 22.0801 46.8466 22.1209 46.5092 22.1959C45.9292 21.738 45.583 21.0411 45.583 20.2855L45.5832 13.5034ZM38.0961 15.0554C38.0961 13.7096 39.191 12.6147 40.5367 12.6147C41.8824 12.6147 42.9775 13.7096 42.9775 15.0554V20.2853C42.9775 21.6312 41.8826 22.7261 40.5367 22.7261C39.1908 22.7261 38.0961 21.6312 38.0961 20.2853V15.0554ZM30.6089 16.1044C30.6089 14.7587 31.7038 13.6638 33.0496 13.6638C34.3953 13.6638 35.4902 14.7587 35.4902 16.1044V20.2855C35.4902 21.6314 34.3953 22.7263 33.0496 22.7263C31.7038 22.7263 30.6089 21.6314 30.6089 20.2855V16.1044ZM21.7752 21.8747H28.2612C28.9288 23.8808 30.8224 25.3318 33.0497 25.3318C34.5336 25.3318 35.8698 24.6876 36.7939 23.6648C37.7181 24.6875 39.0532 25.3318 40.5369 25.3318C41.6116 25.3318 42.6065 24.9908 43.4257 24.4158C42.9864 25.1426 42.7331 25.9939 42.7331 26.9035C42.7331 27.6428 42.9007 28.3437 43.1993 28.9705H21.7752V21.8747ZM62.7602 28.9707V26.0815C62.7602 24.3555 61.6617 22.8814 60.1271 22.3212C60.1914 22.1754 60.2486 22.0264 60.2989 21.8747H67.225V28.9707H62.7602ZM86.3943 38.7424C86.3943 39.316 85.9277 39.7826 85.3541 39.7826H81.1794V36.0176C81.1794 35.2979 80.596 34.7148 79.8765 34.7148C79.157 34.7148 78.5737 35.2979 78.5737 36.0176V45.8575C78.5737 47.1711 77.505 48.2396 76.1916 48.2396H72.2127C70.8991 48.2396 69.8306 47.1711 69.8306 45.8575V4.98794C69.8306 3.67434 70.8993 2.60567 72.2127 2.60567H76.1916C77.5052 2.60567 78.5737 3.67434 78.5737 4.98794V30.4653C78.5737 31.185 79.157 31.7681 79.8765 31.7681C80.596 31.7681 81.1794 31.185 81.1794 30.4653V11.0628H85.3541C85.9277 11.0628 86.3943 11.5294 86.3943 12.1028V38.7424Z" fill="white"/>
<path d="M56.2052 49.4534C55.4857 49.4534 54.9023 50.0365 54.9023 50.7562V65.6868C54.9023 66.4065 55.4857 66.9897 56.2052 66.9897C56.9247 66.9897 57.508 66.4065 57.508 65.6868V50.7562C57.508 50.0365 56.9249 49.4534 56.2052 49.4534Z" fill="white"/>
</svg>
