<svg width="78" height="78" viewBox="0 0 78 78" fill="none" xmlns="http://www.w3.org/2000/svg">
<g clip-path="url(#clip0_839_405)">
<path d="M69.3126 6.5593C68.7655 6.01269 67.8789 6.01223 67.3316 6.5593L52.8089 21.0816C52.2617 21.6287 52.2617 22.5153 52.8087 23.0625C53.0823 23.336 53.4406 23.4727 53.7993 23.4727C54.1576 23.4727 54.5162 23.336 54.7898 23.0625L69.3126 8.54022C69.8595 7.99301 69.8595 7.10621 69.3126 6.5593Z" fill="white"/>
<path d="M73.2614 10.4464C72.7142 9.89969 71.8276 9.89969 71.2805 10.4464L56.7579 24.9691C56.2109 25.5163 56.2109 26.4029 56.7577 26.95C57.0313 27.2235 57.3899 27.3601 57.7482 27.3601C58.1066 27.3601 58.4652 27.2235 58.7388 26.95L73.2614 12.4272C73.8085 11.8802 73.8085 10.9934 73.2614 10.4464Z" fill="white"/>
<path d="M59.562 34.9701L77.59 16.9421C78.1371 16.3949 78.1371 15.5082 77.59 14.9612C77.0428 14.4145 76.1562 14.4141 75.6091 14.9612L57.5813 32.9892C55.3603 35.2101 51.9643 35.7928 49.1308 34.4397C48.5672 34.1706 47.8941 34.3067 47.4796 34.7738L41.354 41.6754C41.3516 41.678 41.3488 41.6803 41.3464 41.683C41.3439 41.6858 41.3421 41.6886 41.3397 41.6914L14.864 71.5198C14.8573 71.5275 14.8506 71.5352 14.844 71.543C14.7568 71.6455 14.6743 71.7356 14.5909 71.8192C12.8427 73.5672 9.99845 73.567 8.25107 71.8192C7.40434 70.9726 6.93802 69.8467 6.93802 68.6492C6.93802 67.4518 7.40434 66.326 8.25259 65.4777C8.33394 65.3959 8.42382 65.3138 8.52727 65.2258C8.53519 65.2192 8.5428 65.2125 8.55042 65.2058L25.1023 50.5147C25.6809 50.0011 25.7334 49.1159 25.22 48.5374C24.7065 47.9587 23.8211 47.9058 23.2428 48.4197L6.70188 63.101C6.54375 63.2358 6.40222 63.3664 6.27029 63.4985C4.89448 64.8743 4.13672 66.7035 4.13672 68.6492C4.13672 70.5948 4.89432 72.4242 6.27014 73.8C7.69044 75.22 9.55559 75.93 11.4212 75.9299C13.286 75.9299 15.1516 75.2201 16.5709 73.8007C16.7054 73.6665 16.8356 73.5248 16.9694 73.3682L37.1446 50.6376L57.3201 73.3685C57.4537 73.5253 57.5839 73.667 57.7175 73.8003C59.1375 75.2203 61.0028 75.9302 62.8681 75.9302C64.7336 75.9302 66.599 75.2201 68.0192 73.8001C70.8589 70.96 70.8589 66.3391 68.0199 63.4997C67.8859 63.3652 67.744 63.2349 67.5876 63.1013L44.3718 42.4953L48.9139 37.3778C52.5941 38.6817 56.7582 37.7734 59.562 34.9701ZM65.7387 65.206C65.7464 65.2127 65.7541 65.2194 65.7619 65.2259C65.8644 65.3132 65.9545 65.3956 66.0381 65.4791C67.7859 67.2271 67.7859 70.0712 66.0382 71.8189C64.2901 73.5667 61.446 73.5667 59.6974 71.8181C59.6147 71.7354 59.532 71.6452 59.4447 71.5427C59.4381 71.5349 59.4314 71.5272 59.4247 71.5195L39.0172 48.5275L42.5118 44.5902L65.7387 65.206Z" fill="white"/>
<path d="M65.1085 2.4799C64.5613 1.93313 63.6746 1.93313 63.1276 2.4799L45.0998 20.5081C42.2958 23.3118 41.3878 27.4755 42.6917 31.1565L37.1441 36.0805L31.8124 31.3481C34.5697 25.9229 33.5631 19.3357 29.1887 14.9611C24.8442 10.6166 19.812 7.55919 15.0191 6.35247C10.0157 5.09305 5.72598 5.93383 2.939 8.72066C0.152023 11.5075 -0.688914 15.7978 0.570816 20.8009C1.77768 25.5935 4.83492 30.6257 9.17976 34.9701C13.5542 39.3448 20.1412 40.3513 25.5668 37.5939C25.5668 37.5939 30.7807 43.468 30.8468 43.5426C31.1237 43.8545 31.5083 44.0134 31.895 44.0134C32.2257 44.0134 32.5575 43.897 32.8243 43.6602L45.296 32.5903C45.763 32.1758 45.899 31.5024 45.6301 30.9391C44.2767 28.1053 44.8596 24.7096 47.0806 22.4889L65.1085 4.46082C65.6556 3.9136 65.6556 3.02696 65.1085 2.4799ZM32.0121 40.6358L26.9135 34.8915C26.4619 34.3828 25.7097 34.2716 25.1308 34.6292C20.64 37.3983 14.8951 36.7245 11.1602 32.9895C7.16821 28.9976 4.37225 24.4262 3.2871 20.1169C2.27783 16.1077 2.85765 12.7637 4.91992 10.7016C6.9819 8.63915 10.3258 8.05964 14.3349 9.06907C18.6443 10.1541 23.216 12.9499 27.2077 16.9419C30.9425 20.6766 31.6165 26.4215 28.8472 30.9123C28.4901 31.4913 28.6008 32.2433 29.1095 32.695L35.0339 37.9533L32.0121 40.6358Z" fill="white"/>
</g>
<defs>
<clipPath id="clip0_839_405">
<rect width="78" height="78" fill="white"/>
</clipPath>
</defs>
</svg>
