<svg width="41" height="41" viewBox="0 0 41 41" fill="none" xmlns="http://www.w3.org/2000/svg">
<path fill-rule="evenodd" clip-rule="evenodd" d="M37.1746 29.1711C36.9094 29.1711 36.6942 28.9556 36.6942 28.6906V9.10636C36.6942 8.54012 36.2336 8.07959 35.6677 8.07959H5.3317C4.76546 8.07959 4.30469 8.54012 4.30469 9.10636V28.6906C4.30469 29.3231 3.34375 29.3229 3.34375 28.6906V9.10636C3.34375 8.01017 4.23526 7.11865 5.3317 7.11865H35.6672C36.7634 7.11865 37.6551 8.01017 37.6551 9.10636V28.6906C37.6551 28.9558 37.4396 29.1711 37.1746 29.1711Z" fill="white"/>
<path fill-rule="evenodd" clip-rule="evenodd" d="M22.3129 31.3966H18.6853C18.0528 31.3966 18.0528 30.4357 18.6853 30.4357H22.3129C22.9454 30.4357 22.9452 31.3966 22.3129 31.3966Z" fill="#E2725A"/>
<path fill-rule="evenodd" clip-rule="evenodd" d="M37.5048 33.8813H3.49494C1.56778 33.8813 0 32.3136 0 30.3859V28.6903C0 28.4251 0.215251 28.2099 0.480471 28.2099H40.5193C40.7845 28.2099 40.9998 28.4254 40.9998 28.6903V30.3859C40.9998 32.3136 39.4317 33.8813 37.5048 33.8813ZM0.960941 29.1711V30.3862C0.960941 31.7836 2.09773 32.9202 3.49494 32.9202H37.5048C38.9023 32.9202 40.0388 31.7834 40.0388 30.3862V29.1711H0.960941Z" fill="white"/>
<path fill-rule="evenodd" clip-rule="evenodd" d="M3.7527 31.5263C2.87128 31.5263 1.90625 31.711 1.90625 31.0458C1.90625 30.3806 2.87128 30.5654 3.7527 30.5654C4.385 30.5654 4.385 31.5263 3.7527 31.5263Z" fill="#E2725A"/>
<path fill-rule="evenodd" clip-rule="evenodd" d="M6.93239 31.5263C6.05096 31.5263 5.08594 31.711 5.08594 31.0458C5.08594 30.3806 6.05096 30.5654 6.93239 30.5654C7.56469 30.5654 7.56517 31.5263 6.93239 31.5263Z" fill="#E2725A"/>
<path fill-rule="evenodd" clip-rule="evenodd" d="M10.1121 31.5263C9.23065 31.5263 8.26562 31.711 8.26562 31.0458C8.26562 30.3806 9.23065 30.5654 10.1121 30.5654C10.7446 30.5654 10.7446 31.5263 10.1121 31.5263Z" fill="#E2725A"/>
<path fill-rule="evenodd" clip-rule="evenodd" d="M35.4287 31.5263C34.5471 31.5263 33.582 31.711 33.582 31.0458C33.582 30.3806 34.5475 30.5654 35.4287 30.5654C36.0613 30.5654 36.0613 31.5263 35.4287 31.5263Z" fill="#E2725A"/>
<path fill-rule="evenodd" clip-rule="evenodd" d="M38.6086 31.5263C37.727 31.5263 36.7617 31.711 36.7617 31.0458C36.7617 30.3806 37.7275 30.5654 38.6086 30.5654C39.2409 30.5654 39.2412 31.5263 38.6086 31.5263Z" fill="#E2725A"/>
<path fill-rule="evenodd" clip-rule="evenodd" d="M28.328 27.0217H25.7813C25.516 27.0217 25.3008 26.8062 25.3008 26.5412V14.276C25.3008 14.0108 25.5163 13.7955 25.7813 13.7955H28.328C28.5932 13.7955 28.8085 14.0108 28.8085 14.276V26.5412C28.8085 26.8059 28.5932 27.0217 28.328 27.0217ZM26.262 26.0605H27.8475V14.7564H26.262V26.0605Z" fill="white"/>
<path fill-rule="evenodd" clip-rule="evenodd" d="M23.9884 27.0214H21.4414C21.1762 27.0214 20.9609 26.8059 20.9609 26.5409V17.394C20.9609 17.1288 21.1764 16.9135 21.4414 16.9135H23.9884C24.2536 16.9135 24.4689 17.1288 24.4689 17.394V26.5405C24.4691 26.8057 24.2536 27.0214 23.9884 27.0214ZM21.9224 26.06H23.5079V17.8745H21.9224V26.06Z" fill="#E2725A"/>
<path fill-rule="evenodd" clip-rule="evenodd" d="M19.6481 27.0214H17.1016C16.8363 27.0214 16.6211 26.8059 16.6211 26.541V19.8367C16.6211 19.5715 16.8363 19.3562 17.1016 19.3562H19.6481C19.9133 19.3562 20.1285 19.5715 20.1285 19.8367V26.5405C20.1285 26.8057 19.9138 27.0214 19.6481 27.0214ZM17.582 26.06H19.1676V20.3172H17.582V26.06Z" fill="white"/>
<path fill-rule="evenodd" clip-rule="evenodd" d="M15.3082 27.0704H12.7617C12.4965 27.0704 12.2812 26.8549 12.2812 26.59V22.2244C12.2812 21.9592 12.4965 21.7439 12.7617 21.7439H15.3082C15.5734 21.7439 15.7887 21.9594 15.7887 22.2244V26.59C15.7887 26.8552 15.5739 27.0704 15.3082 27.0704ZM13.2422 26.1095H14.8282V22.7049H13.2427V26.1095H13.2422Z" fill="#E2725A"/>
<path fill-rule="evenodd" clip-rule="evenodd" d="M12.6711 18.5115C12.0786 18.5115 12.0167 17.6301 12.6144 17.5542C12.6802 17.5456 17.0873 16.8952 24.863 9.37059C25.3171 8.93072 25.9859 9.62067 25.5311 10.061C17.4457 17.8821 12.888 18.5115 12.6713 18.5115H12.6711Z" fill="#E2725A"/>
<path fill-rule="evenodd" clip-rule="evenodd" d="M24.0451 14.6049C23.7301 14.6049 23.4971 14.3046 23.5812 13.9973L24.5709 10.3856L20.9595 11.3754C20.3483 11.5424 20.0958 10.6158 20.7053 10.4488L25.1302 9.23635C25.4867 9.13881 25.8182 9.46986 25.7205 9.82661L24.508 14.2515C24.4499 14.4648 24.2565 14.6049 24.0453 14.6049H24.0451Z" fill="#E2725A"/>
</svg>
