<svg width="73" height="73" viewBox="0 0 73 73" fill="none" xmlns="http://www.w3.org/2000/svg">
<g clip-path="url(#clip0_839_474)">
<path d="M27.9542 37.6339C28.3292 37.6339 28.677 37.4374 28.8703 37.1161L30.7995 33.9116L33.356 37.9739C33.5559 38.2918 33.9052 38.4804 34.2834 38.4735C34.6588 38.4657 35.0026 38.2615 35.1891 37.9356L39.3046 30.7445L44.8321 40.8177C45.0166 41.1539 45.367 41.3656 45.7506 41.3724C45.7568 41.3724 45.7632 41.3726 45.7695 41.3726C46.1458 41.3726 46.4951 41.1745 46.6882 40.8505L50.1318 35.0695H58.4359C59.0264 35.0695 59.5052 34.5907 59.5052 34.0001C59.5052 33.4096 59.0264 32.9308 58.4359 32.9308H49.5242C49.1473 32.9308 48.7983 33.1291 48.6055 33.4529L45.8076 38.1497L40.2617 28.043C40.0755 27.7038 39.7208 27.4916 39.3338 27.488C39.3305 27.488 39.3274 27.488 39.3241 27.488C38.9409 27.488 38.5867 27.6932 38.3961 28.0261L34.2174 35.3276L31.6844 31.3024C31.4885 30.9912 31.1467 30.8027 30.7793 30.8027C30.7759 30.8027 30.7723 30.8027 30.7687 30.8027C30.3975 30.8063 30.0547 31.0023 29.8632 31.3204L27.3499 35.4952H21.2725C20.6819 35.4952 20.2031 35.974 20.2031 36.5646C20.2031 37.1551 20.6819 37.6339 21.2725 37.6339H27.9542Z" fill="white"/>
<path d="M60.324 7.95508C59.7335 7.95508 59.2547 8.43386 59.2547 9.02441V12.1788H56.1006C55.51 12.1788 55.0312 12.6576 55.0312 13.2481C55.0312 13.8387 55.51 14.3175 56.1006 14.3175H59.2547V17.472C59.2547 18.0626 59.7335 18.5414 60.324 18.5414C60.9146 18.5414 61.3934 18.0626 61.3934 17.472V14.3175H64.5475C65.138 14.3175 65.6168 13.8387 65.6168 13.2481C65.6168 12.6576 65.138 12.1788 64.5475 12.1788H61.3934V9.02441C61.3934 8.43386 60.9146 7.95508 60.324 7.95508Z" fill="white"/>
<path d="M64.0974 44.5928C69.3071 39.0232 70.8002 30.6013 67.9365 23.3811C71.0095 21.0651 73 17.385 73 13.2483C73 6.25836 67.3137 0.571777 60.3242 0.571777C57.4531 0.571777 54.6416 1.55713 52.4074 3.34635C51.9465 3.71548 51.8721 4.38845 52.2412 4.84941C52.6103 5.31022 53.2833 5.38479 53.7443 5.01565C55.6274 3.50746 57.9027 2.71045 60.3241 2.71045C66.1341 2.71045 70.8612 7.43777 70.8612 13.2483C70.8612 19.0612 66.1343 23.7902 60.3241 23.7902C54.9142 23.7902 50.4454 19.6928 49.852 14.4386C49.8509 14.4265 49.8489 14.4143 49.8473 14.402C49.8058 14.0229 49.7829 13.6382 49.7829 13.2483C49.7829 11.5978 50.1537 10.0194 50.8848 8.55686C51.1489 8.02861 50.9347 7.3863 50.4066 7.1221C49.878 6.85819 49.2361 7.0722 48.9719 7.60031C48.0909 9.36243 47.6442 11.2627 47.6442 13.2481C47.6442 13.4278 47.6489 13.6063 47.6563 13.7842C44.9562 14.7493 42.4358 16.3366 40.3237 18.4139L39.1417 19.5759C39.136 19.5702 39.1317 19.5659 39.126 19.5602L37.964 18.4153C34.2042 14.7083 29.2824 12.6366 24.459 12.7364C20.4454 12.8191 16.8938 14.3917 14.1891 17.2832C13.7856 17.7152 13.8084 18.3925 14.2404 18.796C14.6724 19.198 15.3482 19.1767 15.7517 18.7446C18.053 16.2837 21.0785 14.9449 24.5032 14.8751C28.752 14.7881 33.1106 16.6345 36.4626 19.938L37.6261 21.0844C38.1878 21.6376 38.6669 21.9127 39.1445 21.9127C39.6179 21.9127 40.0898 21.6418 40.6416 21.1L41.8236 19.938C43.5997 18.1923 45.6946 16.833 47.9373 15.9611C49.183 21.6539 54.2632 25.9287 60.3239 25.9287C62.3989 25.9287 64.3589 25.4274 66.0894 24.5394C68.4589 30.9128 67.0984 38.2449 62.543 43.1225L47.1919 58.8363L45.9216 59.0844C45.6136 59.1443 45.3413 59.1985 45.0932 59.2484C43.482 59.5749 43.0971 59.6519 41.2108 59.361L32.0644 57.6886C30.8183 57.258 30.9437 56.2656 31.0136 55.9677C31.1234 55.5043 31.554 54.7557 32.4793 54.8955C32.4879 54.8969 32.4964 54.8983 32.505 54.8997C32.917 54.9525 33.359 55.0095 33.821 55.068C35.5533 55.2918 37.5152 55.5442 39.2575 55.7224C42.8219 56.0831 44.838 54.2125 45.2571 52.1965C45.6835 50.1419 44.5129 47.4101 40.9342 46.2681C40.8914 46.2552 40.8472 46.2438 40.8016 46.2353L34.9117 45.1545C31.7151 44.5685 29.2285 45.0205 25.4645 45.7049C24.4693 45.886 23.34 46.0898 22.0825 46.2966L19.2908 46.7557L18.4311 45.876L15.7435 43.1242C10.7204 37.739 9.60691 29.3041 13.0402 22.6072C13.3097 22.0825 13.1015 21.4381 12.5768 21.1686C12.0507 20.8991 11.4062 21.1059 11.1368 21.632C7.29857 29.1202 8.55326 38.5617 14.1894 44.5928C14.1951 44.5985 14.2008 44.6042 14.2051 44.6099L16.7144 47.1791L12.041 47.9473V47.8253C12.041 46.9996 11.3126 46.3279 10.4172 46.3279H1.61969C0.726578 46.3279 0 46.9996 0 47.8253V66.6406C0 67.4663 0.726578 68.138 1.61969 68.138H10.4173C11.3127 68.138 12.0412 67.4663 12.0412 66.6406V66.511L21.6576 69.1276L30.5345 71.54C32.5606 72.1688 34.1931 72.4283 35.683 72.4283C38.0413 72.4283 40.0445 71.781 42.6907 70.9255C42.926 70.85 43.167 70.7715 43.415 70.6917L60.908 65.0827C62.9354 64.4325 64.3783 62.9725 64.7661 61.1775C65.067 59.7859 64.6478 58.4114 63.644 57.5004C62.8313 56.7632 60.9208 55.7053 57.238 56.8702L50.8876 58.112L64.0817 44.6099C64.0874 44.6042 64.0917 44.5985 64.0974 44.5928ZM2.13867 65.9993V48.4665H9.90234V49.2012C9.90234 49.2035 9.90205 49.2056 9.90205 49.2079V65.111C9.90205 65.1123 9.90234 65.1135 9.90234 65.1148V65.9993H2.13867ZM57.8297 58.9262C59.803 58.2931 61.3984 58.3501 62.2083 59.0844C62.6446 59.4808 62.8156 60.0796 62.6759 60.7241C62.4506 61.7635 61.5453 62.6318 60.2549 63.0452L42.7606 68.6557C42.5111 68.7355 42.2687 68.8139 42.032 68.8909C37.8474 70.2426 35.7472 70.9227 31.1505 69.4926C31.1391 69.4883 31.1262 69.4855 31.1134 69.4812L12.041 64.2944V50.1148L22.429 48.4082C23.7036 48.1986 24.8428 47.9904 25.848 47.8079C29.5051 47.1435 31.7137 46.7428 34.5253 47.259L40.3468 48.3269C42.6166 49.0726 43.3994 50.6253 43.1627 51.7616C42.8904 53.0747 41.4418 53.7948 39.4742 53.5952C37.7604 53.4198 35.8128 53.1688 34.0947 52.9478C33.6356 52.888 33.195 52.8309 32.7858 52.7796C30.7413 52.4773 29.2998 53.9074 28.932 55.48C28.8535 55.8151 28.8222 56.1715 28.845 56.5308C28.9234 57.8312 29.7004 59.1799 31.4741 59.746C31.5183 59.7602 32.1086 59.87 32.1086 59.87L40.8415 61.4669C40.8501 61.4683 40.86 61.4697 40.87 61.4712C42.6722 61.7521 43.4521 61.7278 44.5571 61.5325C44.8465 61.4812 46.0271 61.2416 46.3308 61.1832L48.2556 60.8068C48.2556 60.8068 57.7898 58.939 57.8297 58.9262Z" fill="white"/>
</g>
<defs>
<clipPath id="clip0_839_474">
<rect width="73" height="73" fill="white"/>
</clipPath>
</defs>
</svg>
