<svg width="13" height="13" viewBox="0 0 13 13" fill="none" xmlns="http://www.w3.org/2000/svg">
<mask id="mask0_4490_2018" style="mask-type:luminance" maskUnits="userSpaceOnUse" x="0" y="0" width="13" height="13">
<path d="M0 0H12.75V13H0V0Z" fill="white"/>
</mask>
<g mask="url(#mask0_4490_2018)">
<path d="M8.95364 0.761719C7.93835 0.761719 7.02277 1.23546 6.37598 1.99466C5.72921 1.23546 4.81363 0.761719 3.79834 0.761719C1.83864 0.761719 0.25 2.52629 0.25 4.703C0.25 7.75204 6.37598 12.2383 6.37598 12.2383C6.37598 12.2383 12.502 7.75204 12.502 4.703C12.502 2.52629 10.9133 0.761719 8.95364 0.761719Z" fill="white"/>
<path d="M0.78047 2.62897C0.444164 3.23141 0.25 3.94202 0.25 4.703C0.25 7.75204 6.37598 12.2383 6.37598 12.2383C6.37598 12.2383 12.502 7.75204 12.502 4.703C12.502 2.52629 10.9133 0.761719 8.95364 0.761719C7.93835 0.761719 7.02277 1.23546 6.37598 1.99464C5.72921 1.23546 4.8136 0.761719 3.79834 0.761719C3.21824 0.761719 2.67063 0.916347 2.18715 1.19049" stroke="black" stroke-width="0.7" stroke-miterlimit="10" stroke-linecap="round" stroke-linejoin="round"/>
</g>
</svg>
