<svg width="26" height="26" viewBox="0 0 26 26" fill="none" xmlns="http://www.w3.org/2000/svg">
<circle cx="13" cy="13" r="12.85" fill="#FFDD53" stroke="#0F0F0F" stroke-width="0.3"/>
<g clip-path="url(#clip0_4490_2005)">
<path d="M15.3325 16.667C15.3225 16.9237 15.3558 18.1037 15.3058 18.3337C15.1458 19.4637 14.1725 20.3337 12.9992 20.3337C11.8258 20.3337 10.8525 19.4637 10.6925 18.3337C10.6425 18.1103 10.6758 16.917 10.6658 16.667H15.3325Z" fill="#60C682"/>
<path d="M17.6646 10.3337C17.6646 11.4204 17.2813 12.4804 16.588 13.3137C15.778 14.2971 15.328 15.4504 15.3313 16.6671H10.6646C10.6813 15.4837 10.2646 14.2704 9.50463 13.4271C8.62796 12.4371 8.22129 11.1637 8.35796 9.84039C8.58129 7.67705 10.308 5.93705 12.468 5.69705C15.1546 5.34039 17.7246 7.62039 17.6646 10.3337Z" fill="white"/>
<path d="M12.998 20.3333C14.2846 20.3333 15.3313 19.2866 15.3313 18V16.6266C15.3313 15.4633 15.778 14.2866 16.588 13.3133C17.2813 12.48 17.6646 11.42 17.6646 10.3333C17.7213 7.6233 15.158 5.33664 12.468 5.69664C10.3113 5.93664 8.58129 7.67664 8.35795 9.83997C8.22129 11.1633 8.62795 12.4366 9.50795 13.4266C10.2546 14.27 10.668 15.4066 10.668 16.6266V18C10.6646 19.2866 11.7113 20.3333 12.998 20.3333ZM14.6646 16.6666V17.6666H11.3313V16.6666H14.6646ZM12.998 19.6666C12.1946 19.6666 11.5213 19.0933 11.3646 18.3333H14.6313C14.4746 19.0933 13.8013 19.6666 12.998 19.6666ZM10.0046 12.9833C9.25129 12.1366 8.90462 11.0433 9.02129 9.90664C9.72129 4.9133 16.8313 5.2933 16.998 10.3333C16.998 11.2633 16.6713 12.17 16.0746 12.8866C15.308 13.8066 14.838 14.8933 14.7046 16H11.2946C11.1746 14.8533 10.728 13.8 10.0046 12.9833Z" fill="black"/>
<path d="M5.99937 10.6667H7.33271C7.76938 10.6633 7.76938 10.0033 7.33271 10H5.99937C5.56271 10.0033 5.56271 10.6633 5.99937 10.6667Z" fill="black"/>
<path d="M7.84835 7.38998L6.84835 6.72331C6.69502 6.61998 6.48835 6.66331 6.38835 6.81665C6.28502 6.96665 6.32835 7.17665 6.48169 7.27665L7.48169 7.94331C7.84169 8.18331 8.21169 7.63331 7.84835 7.38998Z" fill="black"/>
<path d="M7.48304 12.7234L6.48304 13.39C6.20637 13.56 6.3497 14.0134 6.66637 14C6.78637 14.05 7.71304 13.3467 7.8497 13.2767C8.21304 13.0334 7.84637 12.4834 7.48304 12.7234Z" fill="black"/>
<path d="M20.0007 10H18.6673C18.2307 10.0033 18.2307 10.6633 18.6673 10.6667H20.0007C20.4373 10.6633 20.4373 10.0033 20.0007 10Z" fill="black"/>
<path d="M18.5171 7.94372L19.5171 7.27705C19.6704 7.17372 19.7104 6.96705 19.6104 6.81372C19.5071 6.66038 19.3004 6.61705 19.1471 6.72038L18.1471 7.38705C17.7871 7.63372 18.1571 8.18372 18.5171 7.94372Z" fill="black"/>
<path d="M18.1497 13.2767C18.3264 13.37 19.2031 14.0434 19.3331 14C19.6497 14.0134 19.7931 13.56 19.5197 13.39L18.5197 12.7234C18.1531 12.4834 17.7864 13.0334 18.1497 13.2767Z" fill="black"/>
</g>
<defs>
<clipPath id="clip0_4490_2005">
<rect width="16" height="16" fill="white" transform="translate(5 5)"/>
</clipPath>
</defs>
</svg>
