<svg width="71" height="71" viewBox="0 0 71 71" fill="none" xmlns="http://www.w3.org/2000/svg">
<path d="M56.1763 0H14.8237C6.64987 0 0 6.64987 0 14.8237V56.1761C0 64.3501 6.64987 71 14.8237 71H56.1761C64.3501 71 71 64.3501 71 56.1763V14.8237C71 6.64987 64.3501 0 56.1763 0ZM14.8237 66.8398C8.94378 66.8398 4.16016 62.0562 4.16016 56.1763V28.3363H15.1873C14.0278 31.0198 13.3838 33.976 13.3838 37.0803C13.3838 49.2752 23.3051 59.1965 35.5 59.1965C47.6949 59.1965 57.6162 49.2752 57.6162 37.0803C57.6162 33.9761 56.9721 31.0198 55.8127 28.3363H66.8398V56.1763C66.8398 62.0562 62.0562 66.8398 56.1763 66.8398H14.8237ZM56.1763 4.16016C62.0562 4.16016 66.8398 8.94378 66.8398 14.8237V24.1761H53.4504C49.4311 18.6006 42.8826 14.9638 35.5 14.9638C28.1174 14.9638 21.5689 18.6006 17.5496 24.1761H4.16016V14.8237C4.16016 8.94378 8.94378 4.16016 14.8237 4.16016H56.1763ZM53.4561 37.0803C53.4561 46.9813 45.401 55.0364 35.5 55.0364C25.599 55.0364 17.5439 46.9813 17.5439 37.0803C17.5439 27.1793 25.599 19.1241 35.5 19.1241C45.401 19.1241 53.4561 27.1791 53.4561 37.0803Z" fill="white"/>
<path d="M55.0938 11.7871H59.2539V15.9473H55.0938V11.7871Z" fill="white"/>
<path d="M22.8633 37.0803C22.8633 44.0475 28.5315 49.7157 35.4988 49.7157C42.4661 49.7157 48.1343 44.0475 48.1343 37.0803C48.1343 30.113 42.4661 24.4448 35.4988 24.4448C28.5315 24.4448 22.8633 30.1129 22.8633 37.0803ZM43.9741 37.0803C43.9741 41.7536 40.172 45.5555 35.4988 45.5555C30.8255 45.5555 27.0234 41.7536 27.0234 37.0803C27.0234 32.4071 30.8255 28.6048 35.4988 28.6048C40.172 28.6048 43.9741 32.4069 43.9741 37.0803Z" fill="white"/>
</svg>
