<svg width="71" height="71" viewBox="0 0 71 71" fill="none" xmlns="http://www.w3.org/2000/svg">
<g clip-path="url(#clip0_839_447)">
<path d="M48.9936 28.8746C48.9936 28.1081 48.3723 27.4868 47.6053 27.4868H35.3956C34.6291 27.4868 34.0078 28.1081 34.0078 28.8746C34.0078 29.6411 34.6291 30.2624 35.3956 30.2624H47.6053C48.3718 30.2624 48.9936 29.6411 48.9936 28.8746Z" fill="white"/>
<path d="M22.555 13.6072H19.9825C18.397 13.6072 17.1078 14.8948 17.1078 16.477V17.8128H15.7698C14.1843 17.8128 12.8945 19.1026 12.8945 20.687V23.2617C12.8945 24.8461 14.1843 26.1353 15.7698 26.1353H17.1078V27.4711C17.1078 29.0561 18.397 30.3453 19.9825 30.3453H22.555C24.1405 30.3453 25.4303 29.0561 25.4303 27.4711V26.1353H26.7682C28.3532 26.1353 29.643 24.8461 29.643 23.2617V20.687C29.643 19.1026 28.3532 17.8128 26.7682 17.8128H25.4303V16.477C25.4303 14.8948 24.1405 13.6072 22.555 13.6072ZM26.7677 20.589C26.8197 20.589 26.8668 20.6356 26.8668 20.687V23.2617C26.8668 23.3126 26.8197 23.3592 26.7677 23.3592H24.0419C23.2754 23.3592 22.6541 23.981 22.6541 24.7475V27.4711C22.6541 27.5226 22.607 27.5692 22.555 27.5692H19.9825C19.9311 27.5692 19.8839 27.5226 19.8839 27.4711V24.7475C19.8839 23.981 19.2621 23.3592 18.4956 23.3592H15.7698C15.7178 23.3592 15.6707 23.3126 15.6707 23.2617V20.687C15.6707 20.6356 15.7178 20.589 15.7698 20.589H18.4956C19.2621 20.589 19.8839 19.9677 19.8839 19.2012V16.477C19.8839 16.4288 19.9316 16.3833 19.9825 16.3833H22.555C22.6059 16.3833 22.6541 16.4288 22.6541 16.477V19.2012C22.6541 19.9677 23.2754 20.589 24.0419 20.589H26.7677Z" fill="white"/>
<path d="M49.5992 20.5922C49.5992 19.8257 48.9779 19.2043 48.2114 19.2043H35.3956C34.6291 19.2043 34.0078 19.8257 34.0078 20.5922C34.0078 21.3592 34.6291 21.9805 35.3956 21.9805H48.2114C48.9779 21.9805 49.5992 21.3592 49.5992 20.5922Z" fill="white"/>
<path d="M15.2165 38.541H46.9962C47.7627 38.541 48.384 37.9192 48.384 37.1527C48.384 36.3862 47.7627 35.7649 46.9962 35.7649H15.2165C14.45 35.7649 13.8281 36.3862 13.8281 37.1527C13.8281 37.9192 14.45 38.541 15.2165 38.541Z" fill="white"/>
<path d="M65.7999 43.7131C62.526 43.2132 59.8641 42.542 57.8333 41.7056V29.6374C57.8333 28.8703 57.212 28.249 56.445 28.249C55.6785 28.249 55.0572 28.8703 55.0572 29.6374V40.1765C54.7473 39.9397 54.4716 39.6954 54.2316 39.4414C53.9695 39.1646 53.6049 39.0075 53.2236 39.0075C52.8422 39.0075 52.4771 39.1646 52.2155 39.4414C50.3764 41.3855 46.4828 42.8226 40.6434 43.7131C40.3725 43.7543 40.131 43.8729 39.9376 44.043H15.2171C14.4506 44.043 13.8287 44.6643 13.8287 45.4308C13.8287 46.1973 14.4506 46.8186 15.2171 46.8186H39.4641V52.3211H14.2848C13.5184 52.3211 12.8965 52.9424 12.8965 53.7089C12.8965 54.4754 13.5184 55.0967 14.2848 55.0967H39.5752C40.0329 58.5738 41.6498 61.8147 44.3995 64.7696H10.8939C8.71142 64.7696 6.93631 62.9978 6.93631 60.8197V9.65342C6.93631 7.4753 8.71142 5.70343 10.8939 5.70343H17.5187V6.21804C17.5187 7.62263 18.6639 8.7656 20.0712 8.7656H41.9223C43.3296 8.7656 44.4747 7.62263 44.4747 6.21804V5.70343H51.0996C53.2821 5.70343 55.0577 7.4753 55.0577 9.65342V18.5642C55.0577 19.3307 55.679 19.9525 56.4455 19.9525C57.212 19.9525 57.8333 19.3307 57.8333 18.5642V9.65342C57.8333 5.94449 54.8129 2.92728 51.0996 2.92728H44.4747V2.40889C44.4747 1.00429 43.3296 -0.138672 41.9223 -0.138672H20.0712C18.6639 -0.138672 17.5187 1.00429 17.5187 2.40889V2.92728H10.8939C7.18115 2.92728 4.16016 5.94449 4.16016 9.65342V60.8197C4.16016 64.5286 7.18061 67.5458 10.8939 67.5458H47.382C49.8808 69.6898 51.4235 70.8593 53.2143 70.8615H53.2198C55.2343 70.8615 56.9309 69.3935 60.0087 66.7316C64.358 62.9664 66.7024 58.6729 66.9765 53.9705C66.9781 53.944 66.9792 53.9169 66.9792 53.8898V45.0852C66.9786 44.3995 66.4781 43.8166 65.7999 43.7131ZM20.2949 2.63748H41.6986V5.98945H20.2949V2.63748ZM64.203 53.8481C63.9625 57.7591 61.9399 61.3873 58.1919 64.632C55.7884 66.7116 54.2002 68.0853 53.2192 68.0853C53.2192 68.0853 53.2187 68.0853 53.2181 68.0853C52.2442 68.0842 50.7426 66.7847 48.2552 64.6326C44.5072 61.3879 42.484 57.7602 42.2403 53.8481V46.2661C47.3159 45.3918 50.9338 44.0761 53.2236 42.2674C53.9375 42.8307 54.7804 43.347 55.7565 43.8166C55.8193 43.8529 55.8854 43.8832 55.9537 43.9092C58.0803 44.9016 60.8164 45.6822 64.203 46.2661V53.8481Z" fill="white"/>
<path d="M51.6036 56.3118L49.1622 54.0215C48.6032 53.4972 47.7246 53.5248 47.2002 54.0844C46.6754 54.6434 46.7035 55.5215 47.2625 56.0464L50.7321 59.3008C50.9899 59.543 51.3295 59.6768 51.6816 59.6768C51.7001 59.6768 51.7185 59.6762 51.7369 59.6757C52.1079 59.661 52.4584 59.498 52.7087 59.2228L59.7457 51.487C60.262 50.9198 60.2203 50.0418 59.6531 49.5261C59.086 49.0098 58.2079 49.0515 57.6922 49.6187L51.6036 56.3118Z" fill="white"/>
<path d="M56.4464 22.687C55.6799 22.687 55.0586 23.3089 55.0586 24.0754V24.0987C55.0586 24.8651 55.6799 25.4865 56.4464 25.4865C57.2134 25.4865 57.8347 24.8651 57.8347 24.0987V24.0754C57.8347 23.3089 57.2134 22.687 56.4464 22.687Z" fill="white"/>
</g>
<defs>
<clipPath id="clip0_839_447">
<rect width="71" height="71" fill="white"/>
</clipPath>
</defs>
</svg>
