<svg width="37" height="37" viewBox="0 0 37 37" fill="none" xmlns="http://www.w3.org/2000/svg">
<g clip-path="url(#clip0_845_113)">
<path d="M36.4211 8.35578C36.4344 8.40502 36.4413 8.45579 36.4413 8.50679V16.4349C36.4413 16.642 36.3305 16.8333 36.1508 16.9364L29.4966 20.7675V28.361C29.4966 28.5677 29.3868 28.7584 29.2076 28.8625L15.3175 36.8585C15.2857 36.8766 15.251 36.8881 15.2163 36.9004C15.2033 36.9048 15.1911 36.9127 15.1773 36.9163C15.0802 36.9419 14.9782 36.9419 14.8811 36.9163C14.8652 36.912 14.8507 36.9033 14.8355 36.8975C14.8038 36.886 14.7705 36.8759 14.7402 36.8585L0.852976 28.8625C0.673412 28.7593 0.5625 28.5681 0.5625 28.361V4.5767C0.5625 4.52468 0.569726 4.4741 0.582732 4.42496C0.587068 4.40834 0.597184 4.39317 0.602964 4.37655C0.613803 4.3462 0.623919 4.31513 0.639816 4.28695C0.650654 4.26816 0.666551 4.25299 0.679557 4.23565C0.696177 4.21252 0.711351 4.18868 0.73086 4.16845C0.747479 4.15183 0.769157 4.13954 0.787944 4.12509C0.808898 4.10775 0.827685 4.08896 0.85153 4.07524H0.852253L7.79621 0.0772226C7.97514 -0.0257409 8.19534 -0.0257409 8.37427 0.0772226L15.3182 4.07524H15.3197C15.3428 4.08969 15.3623 4.10775 15.3833 4.12437C15.402 4.13882 15.423 4.15183 15.4396 4.16773C15.4598 4.18868 15.4743 4.21252 15.4916 4.23565C15.5039 4.25299 15.5205 4.26816 15.5307 4.28695C15.5473 4.31585 15.5567 4.3462 15.5682 4.37655C15.574 4.39317 15.5841 4.40834 15.5885 4.42568C15.6018 4.47493 15.6086 4.5257 15.6087 4.5767V19.4321L21.3951 16.1003V8.50607C21.3951 8.45549 21.4023 8.40419 21.4153 8.35578C21.4204 8.33843 21.4298 8.32326 21.4356 8.30664C21.4471 8.27629 21.4572 8.24522 21.4731 8.21704C21.484 8.19825 21.4999 8.18308 21.5121 8.16574C21.5295 8.14262 21.5439 8.11877 21.5642 8.09854C21.5808 8.08192 21.6017 8.06964 21.6205 8.05518C21.6422 8.03784 21.661 8.01906 21.6841 8.00533H21.6848L28.6295 4.00731C28.8084 3.9042 29.0287 3.9042 29.2076 4.00731L36.1515 8.00533C36.1761 8.01978 36.1949 8.03784 36.2166 8.05446C36.2346 8.06891 36.2556 8.08192 36.2722 8.09782C36.2924 8.11877 36.3069 8.14262 36.3242 8.16574C36.3372 8.18308 36.3531 8.19825 36.3633 8.21704C36.3799 8.24522 36.3893 8.27629 36.4008 8.30664C36.4073 8.32326 36.4167 8.33843 36.4211 8.35578ZM35.2837 16.1003V9.50756L32.8537 10.9065L29.4966 12.8394V19.4321L35.2844 16.1003H35.2837ZM28.3398 28.0265V21.4293L25.0376 23.3153L15.608 28.697V35.3563L28.3398 28.0265ZM1.72007 5.57747V28.0265L14.4504 35.3556V28.6977L7.79982 24.9338L7.79765 24.9324L7.79476 24.9309C7.77236 24.9179 7.75358 24.8992 7.73262 24.8833C7.71456 24.8688 7.6936 24.8572 7.67771 24.8413L7.67626 24.8392C7.65747 24.8211 7.64447 24.7987 7.62857 24.7785C7.61412 24.759 7.59678 24.7424 7.58522 24.7221L7.58449 24.72C7.57149 24.6983 7.56354 24.6723 7.55415 24.6477C7.54475 24.626 7.53247 24.6058 7.52669 24.5827V24.5819C7.51946 24.5545 7.51802 24.5256 7.51513 24.4974C7.51224 24.4757 7.50646 24.454 7.50646 24.4324V24.4309V8.90927L4.15009 6.97566L1.72007 5.57819V5.57747ZM8.08596 1.24635L2.3003 4.5767L8.08452 7.90706L13.8695 4.57598L8.08452 1.24635H8.08596ZM11.0948 22.0305L14.4511 20.0984V5.57747L12.0211 6.97638L8.66402 8.90927V23.4302L11.0948 22.0305ZM28.9186 5.17644L23.1336 8.50679L28.9186 11.8371L34.7028 8.50607L28.9186 5.17644ZM28.3398 12.8394L24.9827 10.9065L22.5527 9.50756V16.1003L25.909 18.0325L28.3398 19.4321V12.8394ZM15.0285 27.6962L23.5137 22.8521L27.7552 20.4315L21.9746 17.1033L15.3189 20.9351L9.25292 24.4273L15.0285 27.6962Z" fill="#FF2D20"/>
</g>
<defs>
<clipPath id="clip0_845_113">
<rect width="37" height="37" fill="white"/>
</clipPath>
</defs>
</svg>
