<svg width="220" height="178" viewBox="0 0 220 178" fill="none" xmlns="http://www.w3.org/2000/svg">
<path d="M100.55 93.3481V161.831C100.55 170.663 93.484 178 84.6519 178H16.1695C7.33741 178 0 170.663 0 161.831V60.1939C0 27.0125 27.2843 0 60.4657 0H65.9008C69.2162 0 71.7435 2.52733 71.7435 5.84274V26.4962C71.7435 29.7844 69.0803 32.4748 65.7649 32.4748C47.5301 32.4748 32.6107 47.3942 32.6107 65.629V77.4504H84.6519C93.484 77.4504 100.55 84.516 100.55 93.3481Z" fill="#00838A"/>
<path d="M219.456 93.3481V161.831C219.456 170.663 212.39 178 203.558 178H135.076C126.244 178 118.906 170.663 118.906 161.831V60.1939C118.906 27.0125 146.191 0 179.372 0H184.807C188.122 0 190.65 2.52733 190.65 5.84274V26.4962C190.65 29.7844 187.987 32.4748 184.671 32.4748C166.436 32.4748 151.517 47.3942 151.517 65.629V77.4504H203.558C212.39 77.4504 219.456 84.516 219.456 93.3481Z" fill="url(#paint0_linear_839_501)"/>
<defs>
<linearGradient id="paint0_linear_839_501" x1="87.5977" y1="96.4167" x2="250.764" y2="96.4167" gradientUnits="userSpaceOnUse">
<stop stop-color="#00838A"/>
<stop offset="0.694844" stop-color="#0F0F0F"/>
<stop offset="1" stop-color="#0F0F0F"/>
</linearGradient>
</defs>
</svg>
