<svg width="26" height="26" viewBox="0 0 26 26" fill="none" xmlns="http://www.w3.org/2000/svg">
<g clip-path="url(#clip0_4490_1787)">
<path d="M13 26C5.8203 26 0 20.1797 0 13C0 5.8203 5.8203 0 13 0C20.1797 0 26 5.8203 26 13C26 20.1797 20.1797 26 13 26Z" fill="#4A6EA9"/>
<path d="M0.482639 16.527C1.25142 19.2543 2.89019 21.6556 5.14953 23.3657C7.40887 25.0757 10.165 26.0007 12.9986 25.9999C13.1867 25.9999 13.3732 25.9999 13.5596 25.988L20.0117 19.5393C19.8583 19.6872 19.6535 19.77 19.4404 19.7702H17.1551C16.9352 19.7697 16.7244 19.6825 16.5684 19.5275C16.4124 19.3725 16.3239 19.1622 16.3221 18.9423V12.4423C16.3234 12.3237 16.3509 12.2069 16.4025 12.1002L15.484 12.9999V18.9406C15.4831 19.1599 15.3955 19.3699 15.2405 19.525C15.0854 19.6801 14.8754 19.7676 14.6561 19.7685L8.22106 19.8403C7.98659 19.839 7.75827 19.7652 7.56742 19.629C7.37658 19.4928 7.23258 19.3008 7.15518 19.0795C7.07778 18.8581 7.07078 18.6183 7.13513 18.3928C7.19949 18.1673 7.33205 17.9673 7.51461 17.8202C7.30698 17.7724 7.11704 17.6671 6.9666 17.5162C6.81617 17.3653 6.71135 17.1751 6.66419 16.9673C6.61702 16.7595 6.62943 16.5427 6.69999 16.3417C6.77054 16.1406 6.89637 15.9636 7.06304 15.8308C6.85557 15.783 6.66577 15.6776 6.51536 15.5269C6.36495 15.3762 6.26 15.1862 6.21253 14.9787C6.16505 14.7711 6.17697 14.5544 6.24692 14.3533C6.31686 14.1522 6.44201 13.9748 6.60803 13.8415C6.33666 13.7788 6.09783 13.6185 5.93708 13.3911C5.77633 13.1636 5.7049 12.885 5.7364 12.6082C5.7679 12.3315 5.90013 12.0761 6.10788 11.8906C6.31564 11.7051 6.58439 11.6025 6.8629 11.6024H10.8433C10.8433 11.6024 9.85975 9.65414 9.85975 8.1523C9.83737 7.69907 9.94098 7.24851 10.1591 6.85059L0.482639 16.527Z" fill="url(#paint0_linear_4490_1787)"/>
<path d="M16.3233 18.9427C16.3251 19.1626 16.4137 19.3729 16.5696 19.5279C16.7256 19.6829 16.9365 19.7701 17.1564 19.7706H19.4382C19.658 19.7701 19.8686 19.6829 20.0243 19.5278C20.1801 19.3727 20.2682 19.1624 20.2695 18.9427V12.4427C20.2682 12.2228 20.1801 12.0123 20.0245 11.8569C19.8688 11.7016 19.6581 11.614 19.4382 11.6131H17.1564C16.9362 11.6135 16.7251 11.701 16.569 11.8563C16.413 12.0117 16.3247 12.2225 16.3233 12.4427V18.9427ZM6.60927 13.8436C6.44324 13.9769 6.31809 14.1543 6.24815 14.3554C6.1782 14.5565 6.16629 14.7732 6.21376 14.9808C6.26123 15.1883 6.36618 15.3783 6.51659 15.529C6.667 15.6797 6.8568 15.7851 7.06427 15.8329C6.89761 15.9657 6.77177 16.1427 6.70122 16.3437C6.63067 16.5448 6.61826 16.7616 6.66542 16.9694C6.71258 17.1772 6.8174 17.3674 6.96784 17.5183C7.11827 17.6692 7.30822 17.7745 7.51585 17.8223C7.33328 17.9694 7.20072 18.1694 7.13636 18.3949C7.07201 18.6204 7.07901 18.8602 7.15641 19.0816C7.23381 19.3029 7.37782 19.4949 7.56866 19.6311C7.7595 19.7673 7.98782 19.8411 8.22229 19.8424L14.6573 19.7706C14.8766 19.7697 15.0866 19.6822 15.2417 19.5271C15.3968 19.372 15.4843 19.162 15.4852 18.9427V12.4427C15.4852 11.4164 12.2027 9.5211 12.0265 8.50847C11.917 7.83794 12.0624 6.1582 11.6108 6.1582C10.8445 6.1582 9.86098 6.45241 9.86098 8.15439C9.86098 9.65623 10.8445 11.6045 10.8445 11.6045H6.86414C6.58562 11.6046 6.31687 11.7072 6.10912 11.8926C5.90136 12.0781 5.76913 12.3336 5.73763 12.6103C5.70613 12.8871 5.77757 13.1657 5.93832 13.3932C6.09907 13.6206 6.33789 13.7809 6.60927 13.8436Z" fill="white"/>
</g>
<defs>
<linearGradient id="paint0_linear_4490_1787" x1="16.2999" y1="11.9805" x2="4.94711" y2="23.3315" gradientUnits="userSpaceOnUse">
<stop stop-color="#0D47A1"/>
<stop offset="1" stop-color="#0D47A1" stop-opacity="0"/>
</linearGradient>
<clipPath id="clip0_4490_1787">
<rect width="26" height="26" fill="white" transform="matrix(-1 0 0 1 26 0)"/>
</clipPath>
</defs>
</svg>
