<svg width="21" height="21" viewBox="0 0 21 21" fill="none" xmlns="http://www.w3.org/2000/svg">
<path d="M2.79893 0C1.25675 0 0.00112915 1.25538 0 2.79877C0 4.34216 1.25562 5.59778 2.79893 5.59778C4.34168 5.59778 5.59665 4.34216 5.59665 2.79877C5.59665 1.25554 4.3416 0 2.79893 0Z" fill="white"/>
<path d="M4.89949 6.72192H0.697912C0.498052 6.72192 0.335938 6.88396 0.335938 7.08398V20.6076C0.335938 20.8076 0.498052 20.9696 0.697912 20.9696H4.89941C5.09935 20.9696 5.26147 20.8075 5.26147 20.6076V7.08398C5.26155 6.88388 5.09943 6.72192 4.89949 6.72192Z" fill="white"/>
<path d="M15.6396 6.56299C14.1021 6.56299 12.7509 7.03118 11.9263 7.79465V7.08425C11.9263 6.88423 11.7642 6.7222 11.5643 6.7222H7.53393C7.33399 6.7222 7.17188 6.88423 7.17188 7.08425V20.6079C7.17188 20.8078 7.33399 20.9699 7.53393 20.9699H11.7315C11.9314 20.9699 12.0935 20.8077 12.0935 20.6079V13.9171C12.0935 11.9974 12.4466 10.8075 14.2088 10.8075C15.945 10.8096 16.0749 12.0855 16.0749 14.0318V20.6079C16.0749 20.8078 16.237 20.9699 16.4371 20.9699H20.6366C20.8364 20.9699 20.9985 20.8077 20.9985 20.6079V13.1896C20.9984 10.1043 20.3893 6.56299 15.6396 6.56299Z" fill="white"/>
</svg>
