<svg width="65" height="65" viewBox="0 0 65 65" fill="none" xmlns="http://www.w3.org/2000/svg">
<path d="M58.9194 36.2611C58.387 35.4461 57.8799 34.6889 57.4325 34.0209C56.1247 32.068 54.8892 30.2234 54.8724 29.5633C54.8513 28.7404 55.1554 27.9033 55.5073 26.9341C55.8215 26.0689 56.1776 25.0884 56.3267 23.9839C57.0754 18.4298 55.4842 13.2634 51.7249 9.04288C49.2895 6.30882 45.995 4.0568 42.1973 2.53044C38.5278 1.05575 34.5505 0.315108 30.6916 0.38544C21.4704 0.556573 13.2659 4.51561 8.74488 10.9761C5.5821 15.4957 4.21557 20.5078 4.68327 25.8733C5.07606 30.38 6.7102 35.1147 9.679 40.3479C14.6005 49.0233 12.7471 57.5649 10.3256 63.2026C10.1907 63.5164 10.2227 63.877 10.4106 64.1622C10.5985 64.4474 10.9172 64.6192 11.2588 64.6192H35.1584C35.5444 64.6192 35.897 64.4003 36.0684 64.0546C37.338 61.4927 38.6121 59.597 40.2663 57.824C41.8626 58.2113 43.6561 58.5314 45.8502 58.8221C45.8656 58.8241 45.8808 58.8258 45.8962 58.8272C48.8878 59.0854 51.9587 59.2003 53.7512 57.556C54.7202 56.6671 55.2116 55.3594 55.2118 53.6694C55.2118 52.5326 55.0965 50.8371 54.9849 49.1976C54.8639 47.4195 54.7387 45.581 54.7683 44.5647C54.7877 43.8971 55.4309 43.6084 56.9621 43.1756C57.388 43.0553 57.7904 42.9415 58.1614 42.7924C58.9005 42.4952 59.9248 41.9693 60.2839 40.8389C60.6467 39.697 60.2269 38.2867 58.9194 36.2611ZM58.348 40.2237C58.3206 40.31 58.2372 40.5725 57.4037 40.9076C57.1336 41.0162 56.7819 41.1157 56.4096 41.2209C54.9737 41.6268 52.8038 42.2401 52.7379 44.5057C52.7056 45.6205 52.8283 47.425 52.9583 49.3355C53.0675 50.9411 53.1805 52.6015 53.1805 53.6693C53.1805 54.7823 52.918 55.564 52.378 56.0591C51.1967 57.1429 48.518 57.0142 46.0939 56.8053C43.7249 56.4907 41.8504 56.1433 40.1966 55.712C39.8436 55.62 39.4688 55.7242 39.214 55.9849C37.3335 57.9093 35.9125 59.9093 34.5334 62.5879H25.7039V53.6017C25.7039 51.785 26.6062 50.2222 28.1795 49.3138L28.6623 49.0351C30.8811 47.7542 32.1535 45.5503 32.1535 42.9881V37.8433C46.65 29.2909 49.0776 21.5512 48.5394 16.5411C48.0698 12.1716 45.3169 8.65986 41.5262 7.59422C37.9219 6.58113 34.1898 7.9667 31.1379 11.4056C28.0858 7.96657 24.3535 6.58113 20.7494 7.59422C16.9589 8.65986 14.206 12.1716 13.7364 16.5411C13.1981 21.5509 15.6256 29.2908 30.1221 37.8432V42.9881C30.1221 44.8049 29.2199 46.3677 27.6465 47.276L27.1637 47.5547C24.945 48.8357 23.6725 51.0396 23.6725 53.6017V62.5879H12.7646C15.0513 56.5619 16.3779 48.0405 11.4456 39.3457C5.39776 28.6849 5.05867 19.7863 10.4089 12.1409C14.559 6.21068 22.1553 2.57551 30.7294 2.41656C38.1248 2.27501 45.7694 5.41063 50.2082 10.394C53.5612 14.1583 54.9808 18.7639 54.3136 23.7124C54.1938 24.6004 53.8909 25.4343 53.5981 26.2408C53.2111 27.3065 52.8109 28.4083 52.8418 29.6153C52.8735 30.8641 53.9543 32.4779 55.7447 35.1513C56.189 35.8149 56.6927 36.5668 57.2158 37.3675C58.4051 39.21 58.4357 39.9478 58.348 40.2237ZM18.8436 25.9477C16.477 22.8098 15.4382 19.718 15.7562 16.7578C16.1366 13.2186 18.3124 10.3891 21.2994 9.54955C21.8781 9.38692 22.4634 9.30694 23.051 9.30694C25.5979 9.30694 28.1765 10.8125 30.3328 13.6192C30.525 13.8694 30.8225 14.016 31.1381 14.016C31.4537 14.016 31.7513 13.8694 31.9435 13.6192C34.5972 10.165 37.8894 8.68145 40.9769 9.54955C43.9638 10.3891 46.1397 13.2186 46.52 16.7578C46.8381 19.7179 45.7993 22.8098 43.4327 25.9477C40.8346 29.3923 36.7 32.801 31.1383 36.0849C25.5766 32.8011 21.442 29.3923 18.8437 25.9477H18.8436ZM39.7946 19.6352V24.6515C39.7946 25.2124 39.3398 25.6671 38.7789 25.6671H34.6619V29.7842C34.6619 30.3451 34.2071 30.7999 33.6462 30.7999H28.6299C28.069 30.7999 27.6143 30.3451 27.6143 29.7842V25.6671H23.4972C22.9363 25.6671 22.4816 25.2124 22.4816 24.6515V19.6352C22.4816 19.0743 22.9363 18.6196 23.4972 18.6196H27.6143V15.3697C27.6143 14.8088 28.069 14.3541 28.6299 14.3541C29.1908 14.3541 29.6456 14.8088 29.6456 15.3697V19.6352C29.6456 20.1961 29.1908 20.6508 28.6299 20.6508H24.5128V23.6359H28.6299C29.1908 23.6359 29.6456 24.0906 29.6456 24.6515V28.7686H32.6306V24.6515C32.6306 24.0906 33.0854 23.6359 33.6462 23.6359H37.7633V20.6508H33.6462C33.0854 20.6508 32.6306 20.1961 32.6306 19.6352V15.3698C32.6306 14.809 33.0854 14.3542 33.6462 14.3542C34.2071 14.3542 34.6619 14.809 34.6619 15.3698V18.6196H38.7789C39.3398 18.6196 39.7946 19.0743 39.7946 19.6352Z" fill="white"/>
</svg>
