<svg width="37" height="37" viewBox="0 0 37 37" fill="none" xmlns="http://www.w3.org/2000/svg">
<g clip-path="url(#clip0_845_69)">
<path d="M6.55211 0.462524H30.448C34.0709 0.462524 37 3.39167 37 7.01463V29.9855C37 33.6084 34.0709 36.5376 30.4479 36.5376H6.55211C2.92914 36.5375 0 33.6084 0 29.9854V7.01463C0 3.39167 2.92914 0.462524 6.55211 0.462524Z" fill="#001834"/>
<path d="M8.32422 25.7612V9.89748C8.32422 9.78959 8.37047 9.72788 8.47836 9.72788C8.74047 9.72788 8.98711 9.72788 9.34172 9.71248C9.71172 9.69709 10.0971 9.69709 10.5134 9.68163C10.9296 9.66616 11.3767 9.66623 11.8546 9.65077C12.3325 9.63538 12.795 9.63538 13.2575 9.63538C14.5216 9.63538 15.57 9.78952 16.4334 10.1133C17.2042 10.3754 17.9134 10.807 18.4992 11.3774C18.9926 11.8708 19.378 12.472 19.6246 13.1349C19.8559 13.7824 19.9792 14.4453 19.9792 15.1391C19.9792 16.4649 19.6709 17.5594 19.0542 18.4228C18.4376 19.2862 17.5742 19.9337 16.5721 20.3037C15.5238 20.6891 14.3675 20.8278 13.1034 20.8278C12.7334 20.8278 12.4867 20.8278 12.3325 20.8124C12.1784 20.797 11.9625 20.797 11.6696 20.797V25.7458C11.685 25.8537 11.608 25.9462 11.5 25.9616C11.4846 25.9616 11.4691 25.9616 11.4384 25.9616H8.50922C8.38586 25.9616 8.32422 25.9 8.32422 25.7612ZM11.6851 12.7033V17.8833C11.9009 17.8987 12.1013 17.9142 12.2863 17.9142H13.1034C14.168 17.9142 15.3974 17.664 16.1405 16.8197C16.7799 16.093 16.7818 14.6518 16.2638 13.8597C15.649 12.9193 14.4195 12.6468 13.3655 12.6726C12.9646 12.6726 12.6101 12.6726 12.3171 12.6879C12.0088 12.6725 11.793 12.6879 11.6851 12.7033Z" fill="#00A9FF"/>
<path d="M29.5974 16.9429C29.1349 16.6962 28.6415 16.5266 28.1173 16.4187C27.547 16.2954 26.9765 16.2183 26.3907 16.2183C26.0823 16.203 25.7586 16.2492 25.4657 16.3262C25.2653 16.3725 25.0957 16.4804 24.9878 16.6346C24.9107 16.758 24.8645 16.9121 24.8645 17.0508C24.8645 17.1896 24.9261 17.3283 25.0186 17.4517C25.1573 17.6213 25.3424 17.7601 25.5427 17.868C25.8974 18.053 26.2674 18.2226 26.6374 18.3767C27.4699 18.6542 28.2715 19.0396 29.0115 19.5021C29.5202 19.8258 29.9365 20.2575 30.2294 20.7817C30.476 21.2751 30.5994 21.8146 30.584 22.3696C30.5994 23.0942 30.3836 23.8187 29.9827 24.42C29.5511 25.0366 28.9499 25.5146 28.2561 25.7921C27.5007 26.1158 26.5757 26.2855 25.4657 26.2855C24.7566 26.2855 24.0628 26.2238 23.3691 26.0851C22.8295 25.9926 22.2899 25.823 21.7966 25.5917C21.6887 25.5301 21.6116 25.4221 21.627 25.2988V22.6163C21.627 22.5701 21.6424 22.5084 21.6886 22.4776C21.7349 22.4467 21.7811 22.4622 21.8273 22.493C22.4286 22.8476 23.0607 23.0942 23.739 23.2483C24.3248 23.4025 24.9415 23.4796 25.5581 23.4796C26.144 23.4796 26.5602 23.4025 26.8377 23.2637C27.0844 23.1558 27.254 22.8937 27.254 22.6162C27.254 22.4004 27.1306 22.2 26.884 21.9996C26.6374 21.7992 26.1286 21.568 25.3731 21.275C24.5869 20.9975 23.8623 20.6275 23.184 20.165C22.7061 19.8258 22.3052 19.3787 22.0124 18.8546C21.7657 18.3612 21.6424 17.8217 21.6577 17.2821C21.6577 16.6192 21.8427 15.9871 22.1819 15.4167C22.5673 14.8001 23.1377 14.3067 23.8006 13.9983C24.5252 13.6283 25.4348 13.4587 26.5294 13.4587C27.1615 13.4587 27.809 13.505 28.441 13.5975C28.9035 13.6591 29.3506 13.7825 29.7669 13.9521C29.8285 13.9675 29.8902 14.0292 29.921 14.0908C29.9364 14.1525 29.9519 14.2142 29.9519 14.2758V16.7887C29.9519 16.8504 29.921 16.9121 29.8748 16.9429C29.7361 16.9737 29.659 16.9737 29.5974 16.9429Z" fill="#00A9FF"/>
</g>
<defs>
<clipPath id="clip0_845_69">
<rect width="37" height="37" fill="white"/>
</clipPath>
</defs>
</svg>
