<svg width="74" height="74" viewBox="0 0 74 74" fill="none" xmlns="http://www.w3.org/2000/svg">
<path d="M31.6667 70.1667H0.75V63.9834H73.0833V70.1667H42.2833" stroke="white" stroke-width="1.5" stroke-miterlimit="10" stroke-linecap="round" stroke-linejoin="round"/>
<path d="M3.19922 63.9832V56.2832H31.0826C34.3492 56.2832 36.9159 58.8499 36.9159 62.1165V64.0999" stroke="white" stroke-width="1.5" stroke-miterlimit="10" stroke-linecap="round" stroke-linejoin="round"/>
<path d="M36.918 63.9832V61.9998C36.918 58.7332 39.4846 56.1665 42.7513 56.1665H70.6346V63.9832" stroke="white" stroke-width="1.5" stroke-miterlimit="10" stroke-linecap="round" stroke-linejoin="round"/>
<path d="M36.9182 72.2667C32.6016 72.2667 29.1016 68.7667 29.1016 64.4501V63.9834H44.6182V64.4501C44.7349 68.7667 41.2349 72.2667 36.9182 72.2667Z" stroke="white" stroke-width="1.5" stroke-miterlimit="10" stroke-linecap="round" stroke-linejoin="round"/>
<path d="M40.0649 51.7333L45.8983 45.3167C46.8316 44.2667 47.2983 42.8667 47.0649 41.4667L43.7983 14.8667C43.5649 13.2333 43.7983 11.6 44.4983 10.0833L46.4816 5.53333C47.4149 3.2 45.7816 0.75 43.3316 0.75H32.8316C30.4983 0.75 28.8649 3.08333 29.5649 5.3L31.1983 10.4333C31.6649 11.7167 31.7816 13.1167 31.5483 14.5167L28.1649 41.4667C27.9316 42.8667 28.3983 44.2667 29.3316 45.3167L35.1649 51.7333C36.5649 53.1333 38.7816 53.1333 40.0649 51.7333Z" stroke="white" stroke-width="1.5" stroke-miterlimit="10" stroke-linecap="round" stroke-linejoin="round"/>
<path d="M30.5 9.73324H3.66667C2.03333 9.73324 0.75 8.4499 0.75 6.81657C0.75 5.18324 2.03333 3.8999 3.66667 3.8999H29.1" stroke="white" stroke-width="1.5" stroke-miterlimit="10" stroke-linecap="round" stroke-linejoin="round"/>
<path d="M47.1836 3.8999H70.1669C71.8003 3.8999 73.0836 5.18324 73.0836 6.81657C73.0836 8.4499 71.8003 9.73324 70.1669 9.73324H45.4336" stroke="white" stroke-width="1.5" stroke-miterlimit="10" stroke-linecap="round" stroke-linejoin="round"/>
<path d="M2.38281 37.8501L10.4328 9.7334L17.3161 37.8501" stroke="white" stroke-width="1.5" stroke-miterlimit="10" stroke-linecap="round" stroke-linejoin="round"/>
<path d="M9.85 47.6503C14.8667 47.6503 18.95 43.567 18.95 38.5503H0.75C0.75 43.567 4.83333 47.6503 9.85 47.6503Z" stroke="white" stroke-width="1.5" stroke-miterlimit="10" stroke-linecap="round" stroke-linejoin="round"/>
<path d="M56.5156 37.8501L64.5656 9.7334L71.449 37.8501" stroke="white" stroke-width="1.5" stroke-miterlimit="10" stroke-linecap="round" stroke-linejoin="round"/>
<path d="M63.9828 47.6503C68.9995 47.6503 73.0828 43.567 73.0828 38.5503H54.8828C54.8828 43.567 58.9661 47.6503 63.9828 47.6503Z" stroke="white" stroke-width="1.5" stroke-miterlimit="10" stroke-linecap="round" stroke-linejoin="round"/>
<path d="M37.6148 35.6335C35.8648 35.6335 34.4648 34.2335 34.4648 32.4835C34.4648 30.7335 35.8648 29.3335 37.6148 29.3335C39.3648 29.3335 40.7648 30.7335 40.7648 32.4835" stroke="white" stroke-width="1.5" stroke-miterlimit="10" stroke-linecap="round" stroke-linejoin="round"/>
<path d="M34.4648 38.9C34.4648 40.65 35.8648 42.05 37.6148 42.05C39.3648 42.05 40.7648 40.65 40.7648 38.9C40.7648 37.15 39.3648 35.75 37.6148 35.75" stroke="white" stroke-width="1.5" stroke-miterlimit="10" stroke-linecap="round" stroke-linejoin="round"/>
<path d="M37.6133 29.3336V27.8169" stroke="white" stroke-width="1.5" stroke-miterlimit="10" stroke-linecap="round" stroke-linejoin="round"/>
<path d="M37.6133 43.567V42.0503" stroke="white" stroke-width="1.5" stroke-miterlimit="10" stroke-linecap="round" stroke-linejoin="round"/>
</svg>
