<svg width="76" height="76" viewBox="0 0 76 76" fill="none" xmlns="http://www.w3.org/2000/svg">
<path d="M75.1913 47.1931C73.7457 45.0687 70.8345 44.5064 68.7036 45.9385L59.0047 52.4294L58.9764 32.2256L62.346 35.3821C63.0625 36.0532 63.9967 36.4225 64.9776 36.4225C64.9794 36.4225 64.9815 36.4225 64.9834 36.4225C66.0424 36.421 67.0648 35.9772 67.7886 35.2046C68.4917 34.4539 68.8606 33.4745 68.8271 32.4464C68.7935 31.4184 68.3616 30.465 67.6109 29.7618L61.2229 23.7777C60.7856 23.368 60.0991 23.3904 59.6895 23.8277C59.28 24.265 59.3024 24.9514 59.7396 25.3611L66.1276 31.3452C66.4553 31.6522 66.6438 32.0684 66.6585 32.5171C66.6731 32.9658 66.5122 33.3935 66.2051 33.7211C65.8844 34.0634 65.4495 34.2522 64.9801 34.2528C64.9793 34.2528 64.9785 34.2528 64.9776 34.2528C64.5497 34.2528 64.1419 34.0916 63.8292 33.7986L63.829 33.7984L38.4637 10.0367C38.0457 9.64525 37.3953 9.64585 36.9783 10.0388L11.6789 33.8716C11.3522 34.1795 10.925 34.3407 10.4761 34.3282C10.0272 34.3148 9.61059 34.1273 9.30273 33.8003C8.99487 33.4736 8.83263 33.0464 8.84613 32.5977C8.85949 32.1488 9.04697 31.7322 9.37368 31.4243L36.564 5.81022C37.2085 5.20296 38.2197 5.20148 38.8658 5.80711L54.7734 20.709C55.2106 21.1186 55.8971 21.0963 56.3068 20.659C56.7163 20.2217 56.6939 19.5353 56.2568 19.1257L40.3493 4.22372C38.869 2.83672 36.5529 2.83984 35.0764 4.231L26.3721 12.4307L26.3698 10.9681C26.3692 10.5071 26.189 10.0739 25.8626 9.74857C25.5367 9.42364 25.1042 9.24477 24.644 9.24477C24.6431 9.24477 24.6424 9.24477 24.6415 9.24477L18.415 9.25353C17.954 9.25412 17.521 9.43432 17.1954 9.76074C16.8701 10.0872 16.6911 10.5207 16.6918 10.9819L16.709 21.5339L7.88604 29.8454C7.13732 30.5506 6.70819 31.5052 6.67746 32.5333C6.64673 33.5614 7.01827 34.5399 7.7235 35.2883C8.42858 36.037 9.38318 36.4663 10.4114 36.497C10.4507 36.4982 10.4901 36.4988 10.5294 36.4988C11.5143 36.4988 12.4469 36.1292 13.1667 35.4508L16.5287 32.2838L16.542 41.827C15.4543 41.6686 14.3538 41.5854 13.2482 41.5854H11.392V40.935C11.392 38.7513 9.61534 36.9747 7.43167 36.9747H3.96031C1.77665 36.9745 0 38.751 0 40.9348V57.9336C0 58.5327 0.485688 59.0184 1.08478 59.0184C1.68387 59.0184 2.16956 58.5327 2.16956 57.9336V40.9348C2.16956 39.9474 2.97291 39.1441 3.96031 39.1441H7.43152C8.41893 39.1441 9.22227 39.9474 9.22227 40.9348V42.6701V64.9054V66.6236C9.22227 67.611 8.41893 68.4143 7.43152 68.4143H3.96031C2.97291 68.4143 2.16956 67.611 2.16956 66.6236V64.7254C2.16956 64.1263 1.68387 63.6406 1.08478 63.6406C0.485688 63.6406 0 64.1263 0 64.7254V66.6236C0 68.8073 1.77665 70.5839 3.96031 70.5839H7.43152C9.61519 70.5839 11.3918 68.8074 11.3918 66.6236V66.4762L27.2782 72.4921C27.3076 72.5032 27.3374 72.513 27.3677 72.5215C28.0584 72.7165 28.7488 72.8143 29.4304 72.8143C29.7991 72.8143 30.1653 72.7857 30.5278 72.7284L53.8742 69.363C53.8797 69.3623 53.885 69.3614 53.8905 69.3605C55.8754 69.0436 57.748 68.2044 59.3055 66.9341C59.319 66.9231 59.3324 66.9117 59.3453 66.9L74.4282 53.3346C76.1847 51.7752 76.5126 49.135 75.1913 47.1931ZM24.2008 11.4151L24.2059 14.4714L18.8752 19.493L18.862 11.4223L24.2008 11.4151ZM37.7241 12.3167L56.8039 30.1903L56.837 53.8799L53.7657 55.9355L50.5133 55.7531L50.4273 54.8892C50.1247 51.8465 47.8785 49.3989 44.9084 48.8148L44.8888 34.7214C44.8874 33.6399 44.0068 32.761 42.9255 32.761C42.9246 32.761 42.9238 32.761 42.9228 32.761L32.5835 32.7755C32.0591 32.7763 31.5663 32.9811 31.1961 33.3525C30.8257 33.7237 30.6222 34.2172 30.623 34.7414L30.6402 47.0292C28.5922 46.5611 26.6367 45.7879 24.8084 44.7184C24.5802 44.5849 24.3498 44.4561 24.1175 44.3308C24.027 44.282 23.935 44.2361 23.8437 44.1884C23.7024 44.1147 23.5613 44.0405 23.4185 43.9696C23.3048 43.9132 23.1898 43.8598 23.0752 43.8053C22.9536 43.7476 22.8322 43.6892 22.7098 43.6336C22.5851 43.577 22.4593 43.5231 22.3338 43.4688C22.219 43.4192 22.1043 43.3694 21.9888 43.3217C21.8596 43.2684 21.7298 43.2172 21.5997 43.1663C21.4844 43.1212 21.3689 43.0764 21.253 43.033C21.1243 42.9849 20.995 42.9385 20.8654 42.8929C20.7438 42.85 20.6221 42.8081 20.4998 42.7673C20.3757 42.7259 20.2513 42.6854 20.1263 42.646C19.9932 42.604 19.8595 42.5639 19.7256 42.5243C19.6105 42.4905 19.4956 42.4566 19.38 42.4246C19.229 42.3826 19.0773 42.3432 18.9255 42.3043C18.8544 42.2861 18.7837 42.2654 18.7122 42.2478L18.6954 30.2424L37.7241 12.3167ZM42.7386 48.5433L33.6653 47.4987L32.8105 47.4003L32.793 34.9448L42.7196 34.9308L42.7386 48.5433ZM72.9827 51.717L57.9147 65.2691C56.659 66.2872 55.1528 66.9607 53.5564 67.2169L30.2201 70.5808C30.2152 70.5815 30.2104 70.5823 30.2055 70.583L30.1894 70.5855C29.4824 70.6974 28.7461 70.6502 28.0008 70.4457L11.392 64.1561V43.7549H13.2482C14.8283 43.7549 16.3977 43.9373 17.9261 44.2916C17.9829 44.3048 18.0396 44.3183 18.0963 44.332C18.2841 44.3773 18.4714 44.4239 18.6579 44.4743C18.6742 44.4788 18.6904 44.4835 18.7067 44.488C18.8936 44.5391 19.0797 44.5929 19.2653 44.6492C19.2985 44.6593 19.3319 44.6692 19.365 44.6795C19.5624 44.7405 19.759 44.8042 19.9545 44.871C19.9746 44.8779 19.9947 44.8851 20.0149 44.892C20.422 45.0326 20.8252 45.1859 21.2233 45.3519C21.245 45.361 21.2666 45.37 21.2883 45.3792C21.4868 45.4626 21.684 45.5489 21.88 45.6385C21.8852 45.6409 21.8905 45.6434 21.8957 45.646C22.0851 45.7329 22.2732 45.8232 22.4601 45.916C22.482 45.9268 22.5042 45.9375 22.5261 45.9485C22.7087 46.0398 22.8898 46.1343 23.0699 46.2311C23.1039 46.2493 23.1377 46.2681 23.1717 46.2865C23.3534 46.3855 23.534 46.4864 23.7129 46.5911C26.2944 48.1011 29.1046 49.0792 32.0656 49.4982C32.075 49.4995 32.0842 49.5007 32.0935 49.5018L44.2477 50.9011C44.315 50.9107 44.3818 50.9219 44.4481 50.9343C46.2374 51.2704 47.6496 52.5925 48.1221 54.3143C48.1922 54.5693 48.2414 54.8332 48.2685 55.1038L48.3167 55.5892L25.5375 53.5934C24.9411 53.5413 24.4144 53.9826 24.3622 54.5794C24.3098 55.1762 24.7514 55.7024 25.3481 55.7547L49.4309 57.8647C49.4367 57.8652 49.4423 57.865 49.4479 57.8655C49.4536 57.8659 49.4591 57.8668 49.4649 57.8673L54.0066 58.1221C54.0269 58.1233 54.0471 58.1238 54.0673 58.1238C54.0888 58.1238 54.1101 58.1203 54.1314 58.119C54.1556 58.1175 54.1798 58.1166 54.2039 58.1137C54.2362 58.1095 54.2679 58.1025 54.2996 58.0956C54.3223 58.0905 54.3452 58.0868 54.3675 58.0803C54.4022 58.0703 54.4356 58.0568 54.4693 58.0433C54.4874 58.036 54.5061 58.0305 54.5239 58.0222C54.5745 57.9988 54.6238 57.9718 54.6707 57.9403L58.5259 55.3603L58.5264 55.3598L69.9118 47.7403C71.0573 46.9703 72.621 47.2724 73.3974 48.4136C74.1073 49.4565 73.9311 50.8748 72.9827 51.717Z" fill="white"/>
</svg>
