<svg width="47" height="62" viewBox="0 0 47 62" fill="none" xmlns="http://www.w3.org/2000/svg">
<path fill-rule="evenodd" clip-rule="evenodd" d="M23.4928 62C23.3717 62 23.3717 62 23.2506 61.8789L21.9185 61.3945C12.5943 57.7617 6.41854 52.1914 3.14901 44.4414C-0.120518 36.4492 0.000575951 27.3672 0.000575951 18.6484C0.12167 17.1953 0.12167 15.7422 0.12167 14.4102V10.4141C0.12167 10.1719 0.12167 10.0508 0.363857 9.92969C0.484951 9.6875 0.727138 9.6875 0.848232 9.6875L4.84433 10.1719C5.3287 10.1719 5.81308 10.293 6.41854 10.293C9.44589 10.293 12.4732 9.20312 15.6217 7.26562C16.9537 6.41797 19.0123 4.84375 20.3443 3.39062L22.8873 0.242188C23.1295 0.121094 23.2506 0 23.4928 0C23.735 0 23.856 0.121094 24.0982 0.242188L26.7623 3.39062C27.9732 4.84375 30.0318 6.41797 31.3639 7.26562C34.5123 9.20312 37.5396 10.293 40.567 10.293C41.1725 10.293 41.6568 10.1719 42.1412 10.1719L46.1373 9.6875C46.2584 9.6875 46.5006 9.6875 46.6217 9.92969C46.8639 10.0508 46.8639 10.1719 46.8639 10.4141V14.4102C46.8639 15.7422 46.8639 17.1953 46.985 18.6484C46.985 27.3672 47.106 36.4492 43.8365 44.4414C40.567 52.1914 34.3912 57.7617 25.067 61.3945L23.735 61.8789C23.6139 62 23.6139 62 23.4928 62ZM1.57479 11.2617V14.4102C1.57479 15.7422 1.57479 17.1953 1.4537 18.6484C1.4537 27.2461 1.33261 36.207 4.48104 43.8359C7.62948 51.2227 13.442 56.5508 22.524 60.0625L23.4928 60.4258L24.4615 60.0625C33.5435 56.5508 39.356 51.2227 42.5045 43.8359C45.6529 36.207 45.5318 27.2461 45.5318 18.6484C45.5318 17.1953 45.4107 15.7422 45.4107 14.4102V11.2617L42.3834 11.625C41.7779 11.625 41.1725 11.7461 40.567 11.7461C37.2975 11.7461 33.9068 10.6562 30.6373 8.47656C29.0631 7.50781 27.0045 5.93359 25.5514 4.35938L23.4928 1.81641L21.4342 4.35938C19.981 5.93359 17.9225 7.50781 16.3482 8.47656C13.0787 10.6562 9.68808 11.7461 6.41854 11.7461C5.81308 11.7461 5.20761 11.625 4.60214 11.625L1.57479 11.2617Z" fill="white"/>
<path fill-rule="evenodd" clip-rule="evenodd" d="M23.4915 58.2461C23.3704 58.2461 23.3704 58.125 23.2493 58.125C3.2688 50.2539 3.38989 34.9961 3.51098 18.7695C3.63208 17.3164 3.63208 15.8633 3.63208 14.4102C3.63208 14.168 3.63208 13.9258 3.87427 13.8047C3.99536 13.6836 4.23755 13.5625 4.35864 13.6836C5.0852 13.6836 5.69067 13.8047 6.41723 13.8047C15.8625 13.8047 22.886 5.8125 22.886 5.69141C23.1282 5.57031 23.2493 5.44922 23.4915 5.44922C23.7336 5.44922 23.8547 5.57031 24.0969 5.69141C24.0969 5.8125 31.1204 13.8047 40.5657 13.8047C41.2922 13.8047 41.8977 13.6836 42.6243 13.6836C42.7454 13.5625 42.9875 13.6836 43.1086 13.8047C43.3508 13.9258 43.3508 14.168 43.3508 14.4102C43.3508 15.8633 43.3508 17.3164 43.4719 18.7695C43.593 34.9961 43.7141 50.2539 23.7336 58.125C23.6125 58.125 23.6125 58.2461 23.4915 58.2461ZM5.0852 15.1367C5.0852 16.3477 4.96411 17.5586 4.96411 18.7695C4.84302 35.1172 4.72192 49.1641 23.4915 56.6719C42.261 49.1641 42.1399 35.1172 42.0188 18.7695C42.0188 17.5586 41.8977 16.3477 41.8977 15.1367C41.5344 15.1367 41.05 15.2578 40.5657 15.2578C35.2375 15.2578 30.7571 12.8359 27.8508 10.8984C25.7922 9.44531 24.218 7.99219 23.4915 7.26562C22.7649 7.99219 21.1907 9.44531 19.1321 10.8984C16.2258 12.8359 11.7454 15.2578 6.41723 15.2578C5.93286 15.2578 5.44848 15.1367 5.0852 15.1367Z" fill="white"/>
<path fill-rule="evenodd" clip-rule="evenodd" d="M29.1836 46.6211H17.8008C16.5898 46.6211 15.7422 45.7734 15.7422 44.5625V24.3398C15.7422 24.0977 15.7422 23.9766 15.9844 23.8555L23.0078 17.1953C23.25 16.832 23.7344 16.832 23.9766 17.1953L31 23.7344C31.2422 23.9766 31.2422 24.0977 31.2422 24.3398V44.5625C31.2422 45.7734 30.3945 46.6211 29.1836 46.6211ZM17.1953 24.582V44.5625C17.1953 44.9258 17.4375 45.168 17.8008 45.168H29.1836C29.5469 45.168 29.7891 44.9258 29.7891 44.5625V24.582L23.4922 18.6484L17.1953 24.582Z" fill="white"/>
<path fill-rule="evenodd" clip-rule="evenodd" d="M23.4922 29.5469C21.6758 29.5469 20.1016 28.0938 20.1016 26.2773C20.1016 24.3398 21.6758 22.8867 23.4922 22.8867C25.3086 22.8867 26.8828 24.3398 26.8828 26.2773C26.8828 28.0938 25.3086 29.5469 23.4922 29.5469ZM23.4922 24.3398C22.4023 24.3398 21.5547 25.1875 21.5547 26.2773C21.5547 27.2461 22.4023 28.0938 23.4922 28.0938C24.582 28.0938 25.4297 27.2461 25.4297 26.2773C25.4297 25.1875 24.582 24.3398 23.4922 24.3398Z" fill="white"/>
<path fill-rule="evenodd" clip-rule="evenodd" d="M25.4297 37.0547H21.5547C21.1914 37.0547 20.8281 36.6914 20.8281 36.3281C20.8281 35.9648 21.1914 35.6016 21.5547 35.6016H25.4297C25.793 35.6016 26.1562 35.9648 26.1562 36.3281C26.1562 36.6914 25.793 37.0547 25.4297 37.0547Z" fill="white"/>
<path fill-rule="evenodd" clip-rule="evenodd" d="M25.4297 39.5977H21.5547C21.1914 39.5977 20.8281 39.2344 20.8281 38.8711C20.8281 38.5078 21.1914 38.1445 21.5547 38.1445H25.4297C25.793 38.1445 26.1562 38.5078 26.1562 38.8711C26.1562 39.2344 25.793 39.5977 25.4297 39.5977Z" fill="white"/>
<path fill-rule="evenodd" clip-rule="evenodd" d="M25.4297 42.1406H21.5547C21.1914 42.1406 20.8281 41.7773 20.8281 41.4141C20.8281 41.0508 21.1914 40.6875 21.5547 40.6875H25.4297C25.793 40.6875 26.1562 41.0508 26.1562 41.4141C26.1562 41.7773 25.793 42.1406 25.4297 42.1406Z" fill="white"/>
</svg>
