<svg width="20" height="20" viewBox="0 0 20 20" fill="none" xmlns="http://www.w3.org/2000/svg">
<path d="M1.25 12.5V6.25C1.25 5.4212 1.57924 4.62634 2.16529 4.04029C2.75134 3.45424 3.5462 3.125 4.375 3.125H16.25L15.25 2.375C15.1843 2.32575 15.129 2.26406 15.0872 2.19343C15.0454 2.12281 15.0179 2.04464 15.0063 1.96339C14.9947 1.88214 14.9992 1.7994 15.0196 1.71989C15.0399 1.64038 15.0758 1.56566 15.125 1.5C15.1742 1.43434 15.2359 1.37902 15.3066 1.3372C15.3772 1.29539 15.4554 1.26789 15.5366 1.25628C15.6179 1.24467 15.7006 1.24918 15.7801 1.26955C15.8596 1.28992 15.9343 1.32575 16 1.375L18.5 3.25C18.5776 3.30822 18.6406 3.38371 18.684 3.47049C18.7274 3.55728 18.75 3.65297 18.75 3.75C18.75 3.84703 18.7274 3.94272 18.684 4.02951C18.6406 4.11629 18.5776 4.19178 18.5 4.25L16 6.125C15.8918 6.20614 15.7602 6.25 15.625 6.25C15.528 6.25 15.4323 6.22741 15.3455 6.18402C15.2587 6.14062 15.1832 6.07762 15.125 6C15.0255 5.86739 14.9828 5.70071 15.0063 5.53661C15.0297 5.37252 15.1174 5.22446 15.25 5.125L16.25 4.375H4.375C3.87772 4.375 3.40081 4.57254 3.04917 4.92417C2.69754 5.27581 2.5 5.75272 2.5 6.25V12.5C2.5 12.6658 2.43415 12.8247 2.31694 12.9419C2.19973 13.0592 2.04076 13.125 1.875 13.125C1.70924 13.125 1.55027 13.0592 1.43306 12.9419C1.31585 12.8247 1.25 12.6658 1.25 12.5ZM18.125 6.875C17.9592 6.875 17.8003 6.94085 17.6831 7.05806C17.5658 7.17527 17.5 7.33424 17.5 7.5V13.75C17.5 14.2473 17.3025 14.7242 16.9508 15.0758C16.5992 15.4275 16.1223 15.625 15.625 15.625H3.75L4.75 14.875C4.88261 14.7755 4.97028 14.6275 4.99372 14.4634C5.01716 14.2993 4.97446 14.1326 4.875 14C4.77554 13.8674 4.62748 13.7797 4.46339 13.7563C4.29929 13.7328 4.13261 13.7755 4 13.875L1.5 15.75C1.42238 15.8082 1.35938 15.8837 1.31598 15.9705C1.27259 16.0573 1.25 16.153 1.25 16.25C1.25 16.347 1.27259 16.4427 1.31598 16.5295C1.35938 16.6163 1.42238 16.6918 1.5 16.75L4 18.625C4.10819 18.7061 4.23977 18.75 4.375 18.75C4.47203 18.75 4.56772 18.7274 4.65451 18.684C4.74129 18.6406 4.81678 18.5776 4.875 18.5C4.97446 18.3674 5.01716 18.2007 4.99372 18.0366C4.97028 17.8725 4.88261 17.7245 4.75 17.625L3.75 16.875H15.625C16.4538 16.875 17.2487 16.5458 17.8347 15.9597C18.4208 15.3737 18.75 14.5788 18.75 13.75V7.5C18.75 7.33424 18.6842 7.17527 18.5669 7.05806C18.4497 6.94085 18.2908 6.875 18.125 6.875Z" fill="white"/>
</svg>
