<svg width="220" height="178" viewBox="0 0 220 178" fill="none" xmlns="http://www.w3.org/2000/svg">
<path d="M118.906 84.6519V16.1695C118.906 7.3374 125.972 0 134.804 0H203.286C212.118 0 219.456 7.3374 219.456 16.1695V117.806C219.456 150.987 192.172 178 158.99 178H153.555C150.24 178 147.712 175.473 147.712 172.157V151.504C147.712 148.216 150.376 145.525 153.691 145.525C171.926 145.525 186.845 130.606 186.845 112.371V100.55H134.804C125.972 100.55 118.906 93.484 118.906 84.6519Z" fill="#00838A"/>
<path d="M0 84.6519V16.1695C0 7.3374 7.06565 0 15.8977 0H84.3801C93.2122 0 100.55 7.3374 100.55 16.1695V117.806C100.55 150.987 73.2653 178 40.084 178H34.6489C31.3334 178 28.8061 175.473 28.8061 172.157V151.504C28.8061 148.216 31.4693 145.525 34.7847 145.525C53.0195 145.525 67.9389 130.606 67.9389 112.371V100.55H15.8977C7.06565 100.55 0 93.484 0 84.6519Z" fill="url(#paint0_linear_839_498)"/>
<defs>
<linearGradient id="paint0_linear_839_498" x1="131.858" y1="81.5833" x2="-31.3085" y2="81.5833" gradientUnits="userSpaceOnUse">
<stop stop-color="#00838A"/>
<stop offset="0.694844" stop-color="#0F0F0F"/>
<stop offset="1" stop-color="#0F0F0F"/>
</linearGradient>
</defs>
</svg>
