<svg width="72" height="72" viewBox="0 0 72 72" fill="none" xmlns="http://www.w3.org/2000/svg">
<path d="M54.4398 11.9371C53.5993 11.9371 52.7648 12.0229 51.9487 12.1929C49.7447 5.30591 43.3013 0.564453 35.9995 0.564453C28.6977 0.564453 22.2542 5.30591 20.0502 12.1929C19.2342 12.023 18.3997 11.9371 17.5592 11.9371C10.83 11.9371 5.35547 17.4116 5.35547 24.1408C5.35547 30.87 10.8301 36.3447 17.5592 36.3447H30.0939V40.4366C30.0939 40.9022 30.4714 41.2796 30.937 41.2796C31.4026 41.2796 31.78 40.9022 31.78 40.4366V36.3447H35.1564V40.4366C35.1564 40.9022 35.5339 41.2796 35.9995 41.2796C36.4651 41.2796 36.8425 40.9022 36.8425 40.4366V36.3447H40.2189V40.4366C40.2189 40.9022 40.5964 41.2796 41.062 41.2796C41.5276 41.2796 41.905 40.9022 41.905 40.4366V36.3447H54.4398C61.169 36.3447 66.6435 30.87 66.6435 24.1408C66.6435 17.4116 61.1688 11.9371 54.4398 11.9371ZM54.4398 34.6586H41.905V28.4445L45.3655 24.984H49.8475C50.2458 27.1578 52.1527 28.8108 54.4398 28.8108C57.0127 28.8108 59.1057 26.7159 59.1057 24.1409C59.1057 21.566 57.0127 19.4751 54.4398 19.4751C52.1529 19.4751 50.2462 21.1264 49.8477 23.2979H45.0164C44.7928 23.2979 44.5783 23.3866 44.4202 23.5448L40.4659 27.4992C40.3078 27.6574 40.2189 27.8717 40.2189 28.0953V34.6586H36.8425V21.9006C39.0141 21.5025 40.6654 19.5973 40.6654 17.3126C40.6654 14.7376 38.5724 12.6427 35.9995 12.6427C33.4266 12.6427 31.3337 14.7376 31.3337 17.3126C31.3337 19.5973 32.9849 21.5025 35.1564 21.9006V34.6586H31.78V28.0953C31.78 27.8719 31.6913 27.6575 31.5334 27.4995L27.5831 23.5451C27.425 23.3869 27.2104 23.2979 26.9867 23.2979H22.1513C21.7528 21.1264 19.846 19.4751 17.5592 19.4751C14.9865 19.4751 12.8934 21.5682 12.8934 24.1409C12.8934 26.7137 14.9865 28.8108 17.5592 28.8108C19.8463 28.8108 21.7532 27.1578 22.1514 24.984H26.6372L30.0939 28.4442V34.6586H17.5592C11.7598 34.6586 7.04156 29.9403 7.04156 24.1409C7.04156 18.3416 11.7598 13.6233 17.5592 13.6233C18.5257 13.6233 19.4829 13.7549 20.404 14.0144C20.6207 14.0753 20.8537 14.0472 21.0499 13.9354C21.2461 13.8237 21.3891 13.6379 21.4472 13.4198C23.1994 6.8435 29.1834 2.25055 35.9993 2.25055C42.8153 2.25055 48.7993 6.8435 50.5515 13.4198C50.6096 13.6379 50.7527 13.8236 50.9488 13.9354C51.1448 14.0472 51.3777 14.0753 51.5947 14.0144C52.5159 13.7549 53.473 13.6233 54.4395 13.6233C60.2389 13.6233 64.9571 18.3416 64.9571 24.1409C64.9571 29.9403 60.2389 34.6586 54.4395 34.6586H54.4398ZM51.456 24.1409C51.456 22.4979 52.7946 21.1612 54.4398 21.1612C56.085 21.1612 57.4195 22.4979 57.4195 24.1409C57.4195 25.784 56.0827 27.1247 54.4398 27.1247C52.7969 27.1247 51.456 25.7861 51.456 24.1409ZM35.9995 20.2923C34.3564 20.2923 33.0199 18.9557 33.0199 17.3126C33.0199 15.6695 34.3566 14.3288 35.9995 14.3288C37.6424 14.3288 38.9792 15.6674 38.9792 17.3126C38.9792 18.9578 37.6424 20.2923 35.9995 20.2923ZM20.543 24.1409C20.543 25.7861 19.2044 27.1247 17.5592 27.1247C15.914 27.1247 14.5796 25.7861 14.5796 24.1409C14.5796 22.4958 15.9163 21.1612 17.5592 21.1612C19.2021 21.1612 20.543 22.4979 20.543 24.1409ZM62.0733 43.6754H49.2417C48.776 43.6754 48.3987 44.0529 48.3987 44.5185C48.3987 51.3554 42.8364 56.9177 35.9995 56.9177C29.1626 56.9177 23.6003 51.3554 23.6003 44.5185C23.6003 44.0529 23.2229 43.6754 22.7572 43.6754H9.92564C9.45989 43.6754 9.08259 44.0529 9.08259 44.5185V47.4762C9.08259 48.7978 9.94069 49.9165 11.2178 50.2596L14.473 51.1338C14.8934 52.5019 15.4398 53.8211 16.1022 55.0665L14.4186 57.9828C13.7539 59.1265 13.937 60.5247 14.8742 61.4621L19.058 65.6419C19.9899 66.5795 21.3862 66.7655 22.533 66.1046L25.4528 64.4192C26.717 65.088 28.0369 65.6337 29.3877 66.0461L30.2585 69.3053C30.6024 70.5795 31.7208 71.4354 33.0416 71.4354H38.9571C40.278 71.4354 41.3965 70.5794 41.7406 69.3039L42.6149 66.0448C43.9795 65.6256 45.2983 65.0804 46.5465 64.4193L49.4663 66.1047C50.6107 66.7642 52.008 66.579 52.9431 65.6436L57.1246 61.4621C58.062 60.5247 58.2451 59.1266 57.5819 57.9856L55.9 55.0659C56.5611 53.8177 57.1065 52.4988 57.5259 51.1339L60.7863 50.2594C62.0605 49.9155 62.9164 48.797 62.9164 47.4762V44.5185C62.9164 44.0529 62.5389 43.6754 62.0733 43.6754ZM61.2303 47.4762C61.2303 48.0331 60.8835 48.4866 60.3481 48.6311L56.633 49.6277C56.3467 49.7044 56.1215 49.9262 56.0405 50.2114C55.597 51.7716 54.977 53.2708 54.1978 54.6671C54.0533 54.926 54.0555 55.2418 54.2034 55.4988L56.1224 58.83C56.4014 59.3101 56.3268 59.8752 55.9322 60.2697L51.7507 64.4512C51.3559 64.846 50.7897 64.9211 50.3088 64.644L46.9803 62.7227C46.7233 62.5742 46.4071 62.5719 46.1481 62.7166C44.7516 63.4958 43.2525 64.1157 41.6923 64.5592C41.4071 64.6404 41.1855 64.8652 41.1085 65.1517L40.1123 68.8657C39.9676 69.4022 39.5141 69.749 38.9571 69.749H33.0416C32.4847 69.749 32.0312 69.4022 31.8869 68.8677L30.8942 65.1525C30.8173 64.8648 30.5946 64.6391 30.3078 64.5585C28.7697 64.1261 27.2696 63.5062 25.8497 62.7161C25.7223 62.645 25.581 62.6097 25.4398 62.6097C25.2943 62.6097 25.1487 62.6474 25.0184 62.7227L21.6903 64.6437C21.209 64.9213 20.6449 64.8464 20.2515 64.4507L16.0665 60.2697C15.6719 59.8752 15.5973 59.3101 15.8776 58.8279L17.799 55.4995C17.9477 55.2418 17.9496 54.9252 17.8042 54.6657C17.0241 53.2744 16.403 51.7759 15.9583 50.2115C15.8773 49.9264 15.6523 49.7047 15.366 49.628L11.6549 48.6313C11.1165 48.4866 10.7684 48.0334 10.7684 47.4764V45.3617H21.9388C22.3763 52.7374 28.5157 58.6039 35.9992 58.6039C43.4827 58.6039 49.6221 52.7374 50.0596 45.3617H61.23V47.4764L61.2303 47.4762ZM35.9995 53.9797C41.2165 53.9797 45.4607 49.7354 45.4607 44.5185C45.4607 44.0529 45.0833 43.6754 44.6177 43.6754H27.3813C26.9155 43.6754 26.5382 44.0529 26.5382 44.5185C26.5382 49.7355 30.7826 53.9797 35.9995 53.9797ZM43.7292 45.3615C43.3079 49.2539 40.0021 52.2936 35.9995 52.2936C31.9969 52.2936 28.6911 49.2539 28.2698 45.3615H43.7292Z" fill="white"/>
</svg>
