<svg width="37" height="37" viewBox="0 0 37 37" fill="none" xmlns="http://www.w3.org/2000/svg">
<path d="M29.9232 7.31854C29.7954 7.3064 27.0672 7.10406 27.0672 7.10406C27.0672 7.10406 25.171 5.21301 24.9634 5.00489C24.7553 4.79561 24.3489 4.85804 24.1905 4.90603C24.1679 4.91239 23.7771 5.03437 23.1302 5.23383C22.4966 3.4029 21.3802 1.72056 19.4152 1.72056C19.3608 1.72056 19.3047 1.72287 19.2481 1.72634C18.6896 0.984607 17.997 0.660278 17.3987 0.660278C12.8205 0.660278 10.6329 6.4132 9.94722 9.33678C8.16775 9.88947 6.90281 10.2837 6.74325 10.3358C5.7483 10.6491 5.71766 10.6803 5.58873 11.6204C5.4893 12.332 2.89062 32.5277 2.89062 32.5277L23.1377 36.3398L34.1094 33.9539C34.1094 33.9539 30.2585 7.7874 30.2342 7.60761C30.2099 7.42839 30.0527 7.32895 29.9232 7.31854ZM19.0978 6.29006C19.0978 6.35886 19.0966 6.42361 19.0966 6.48893C17.982 6.83639 16.7726 7.21217 15.5579 7.59084C16.2395 4.94881 17.516 3.67115 18.6335 3.18958C18.9139 3.89836 19.0978 4.91701 19.0978 6.29006ZM17.2721 1.89515C17.4721 1.89515 17.6698 1.96222 17.8606 2.09461C16.3927 2.78778 14.8208 4.53661 14.156 8.02675C13.1853 8.32853 12.2372 8.62453 11.359 8.8974C12.1372 6.23398 13.9837 1.89515 17.2721 1.89515ZM18.0612 17.4537C18.0612 17.4537 16.876 16.8183 15.4244 16.8183C13.2934 16.8183 13.1859 18.1619 13.1859 18.4995C13.1859 20.3466 17.9768 21.0548 17.9768 25.3809C17.9768 28.7849 15.8296 30.976 12.9321 30.976C9.45639 30.976 7.67808 28.8017 7.67808 28.8017L8.60828 25.7116C8.60828 25.7116 10.4352 27.2893 11.9787 27.2893C12.9847 27.2893 13.3946 26.4915 13.3946 25.9093C13.3946 23.4997 9.46391 23.3922 9.46391 19.4326C9.46391 16.102 11.8435 12.8761 16.6488 12.8761C18.4983 12.8761 19.414 13.4097 19.414 13.4097L18.0612 17.4537ZM20.298 6.11547C20.298 5.99348 20.2991 5.87439 20.2991 5.74315C20.2991 4.60656 20.1413 3.69023 19.8892 2.96411C20.9021 3.09072 21.5768 4.24928 22.011 5.58186C21.5028 5.74142 20.9247 5.92064 20.298 6.11547Z" fill="#95C675"/>
<path d="M29.9232 7.31854C29.7954 7.3064 27.0672 7.10406 27.0672 7.10406C27.0672 7.10406 25.171 5.21301 24.9634 5.00489C24.7553 4.79561 24.3489 4.85804 24.1905 4.90603C24.1679 4.91239 23.7771 5.03437 23.1302 5.23383C22.4966 3.4029 21.3802 1.72056 19.4152 1.72056C19.3608 1.72056 19.3047 1.72287 19.2481 1.72634C18.6896 0.984607 17.997 0.660278 17.3987 0.660278C12.8205 0.660278 11.6908 6.4132 11.0052 9.33678C9.22572 9.88947 7.86019 12.9321 7.69889 12.983C6.70509 13.2964 6.67445 13.3276 6.54495 14.2682C6.44494 14.9793 2.89062 32.5277 2.89062 32.5277L23.1377 36.3398L34.1094 33.9539C34.1094 33.9539 30.2585 7.7874 30.2342 7.60761C30.2099 7.42839 30.0527 7.32895 29.9232 7.31854ZM19.0978 6.29006C19.0978 6.35886 19.0966 6.42361 19.0966 6.48893C17.982 6.83639 16.7726 7.21217 15.5579 7.59084C16.2395 4.94881 17.516 3.67115 18.6335 3.18958C18.9139 3.89836 19.0978 4.91701 19.0978 6.29006ZM17.2721 1.89515C17.4721 1.89515 17.6698 1.96222 17.8606 2.09461C16.3927 2.78778 14.8208 4.53661 14.156 8.02675C13.1853 8.32853 12.2372 8.62453 11.359 8.8974C12.1372 6.23398 13.9837 1.89515 17.2721 1.89515ZM18.0612 17.4537C18.0612 17.4537 16.876 16.8183 15.4244 16.8183C13.2934 16.8183 13.1859 18.1619 13.1859 18.4995C13.1859 20.3466 17.9768 21.0548 17.9768 25.3809C17.9768 28.7849 15.8296 30.976 12.9321 30.976C9.45639 30.976 7.67808 28.8017 7.67808 28.8017L8.60828 25.7116C8.60828 25.7116 10.4352 27.2893 11.9787 27.2893C12.9847 27.2893 13.3946 26.4915 13.3946 25.9093C13.3946 23.4997 9.46391 23.3922 9.46391 19.4326C9.46391 16.102 11.8435 12.8761 16.6488 12.8761C18.4983 12.8761 19.414 13.4097 19.414 13.4097L18.0612 17.4537ZM20.298 6.11547C20.298 5.99348 20.2991 5.87439 20.2991 5.74315C20.2991 4.60656 20.1413 3.69023 19.8892 2.96411C20.9021 3.09072 21.5768 4.24928 22.011 5.58186C21.5028 5.74142 20.9247 5.92064 20.298 6.11547Z" fill="#79B259"/>
<path d="M23.1385 36.3392L34.1102 33.9539C34.1102 33.9539 30.2593 7.78737 30.235 7.60757C30.2107 7.42777 30.054 7.32891 29.924 7.31851C29.7962 7.30637 27.068 7.10402 27.068 7.10402C27.068 7.10402 25.1718 5.21298 24.9642 5.00485C24.8532 4.89269 24.6873 4.8609 24.5306 4.85974C24.1144 5.56505 24.2005 6.90457 24.2005 6.90457L22.9102 36.2959L23.1385 36.3392Z" fill="#55932C"/>
<path d="M19.4169 1.72117C19.3625 1.72117 19.3065 1.72348 19.2498 1.72695C18.6913 0.985217 17.9987 0.660889 17.4004 0.660889C12.8407 0.660889 10.6514 6.36872 9.95703 9.30212L11.3717 8.86333C12.1545 6.19875 13.9993 1.89519 17.2738 1.89519C17.4738 1.89519 17.6715 1.96225 17.8623 2.09464C16.3985 2.7855 14.8306 4.52797 14.1635 7.99903L15.5683 7.56544C16.2517 4.94017 17.523 3.66945 18.6364 3.18961C18.9162 3.89897 19.1007 4.91705 19.1007 6.29009C19.1007 6.35253 19.1007 6.41208 19.0995 6.47162L20.3008 6.09989C20.3008 5.98426 20.302 5.86864 20.302 5.74319C20.302 4.60659 20.1442 3.69026 19.8921 2.96414C20.9015 3.09017 21.5756 4.24353 22.0092 5.57033L23.1296 5.22287C22.4943 3.39715 21.3785 1.72117 19.4169 1.72117Z" fill="#4A7A2B"/>
<path d="M27.5265 7.13871C27.2525 7.11732 27.068 7.10402 27.068 7.10402C27.068 7.10402 25.1718 5.21298 24.9642 5.00485C24.8532 4.89269 24.6873 4.8609 24.5306 4.85974C24.1144 5.56505 24.2005 6.90457 24.2005 6.90457L22.9102 36.2959L23.1391 36.3392L28.977 35.0697L27.5265 7.13871Z" fill="#4C822A"/>
</svg>
