<svg width="20" height="20" viewBox="0 0 20 20" fill="none" xmlns="http://www.w3.org/2000/svg">
<g clip-path="url(#clip0_4490_1798)">
<path d="M0.00738525 12.0542C0.00738525 11.3031 0.41094 10.6445 1.01258 10.2838C0.782072 9.95098 0.646877 9.54719 0.646877 9.11254C0.646877 7.97532 1.57211 7.05008 2.70934 7.05008H7.06317C6.92973 6.44539 6.74723 5.53801 6.62016 4.58813C6.28945 2.11621 6.51547 0.745315 7.33137 0.27387C7.84004 -0.0199972 8.38848 -0.0796066 8.87566 0.105862C9.25203 0.249221 9.76031 0.601682 10.05 1.46672L11.1943 4.46285C11.9532 6.33719 14.76 8.33383 15.4243 8.78699H19.4005C19.7273 8.78699 19.9922 9.05192 19.9922 9.37864V18.0684C19.9922 18.3952 19.7273 18.66 19.4005 18.66H15.3567C13.1025 19.5491 10.7311 20 8.3061 20H3.56211C2.42488 20 1.49965 19.0748 1.49965 17.9375C1.49965 17.5393 1.61313 17.167 1.80942 16.8514C1.12188 16.5166 0.646955 15.8106 0.646955 14.9959C0.646955 14.5612 0.78215 14.1574 1.01266 13.8246C0.410938 13.4639 0.00738525 12.8052 0.00738525 12.0542ZM15.836 17.4768H18.8089V9.97035H15.836V17.4768ZM2.06989 12.9334H2.70938C3.03613 12.9334 3.30102 13.1983 3.30102 13.525C3.30102 13.8518 3.03609 14.1166 2.70938 14.1166C2.22461 14.1166 1.8302 14.5111 1.8302 14.9959C1.8302 15.4806 2.22461 15.875 2.70938 15.875H3.56207C3.88883 15.875 4.15371 16.14 4.15371 16.4667C4.15371 16.7934 3.88879 17.0583 3.56207 17.0583C3.07731 17.0583 2.68289 17.4527 2.68289 17.9375C2.68289 18.4223 3.07731 18.8167 3.56207 18.8167H8.30606C10.4851 18.8167 12.6181 18.429 14.6526 17.6637V9.69352C13.7591 9.07711 10.9457 7.01203 10.0947 4.90028C10.0934 4.89692 10.092 4.89356 10.0907 4.8902L8.93985 1.8768C8.9366 1.86836 8.93356 1.85981 8.93078 1.85125C8.81918 1.51336 8.65004 1.28621 8.45442 1.21172C8.26473 1.13942 8.0609 1.21899 7.92336 1.29848C7.91828 1.30141 7.42473 1.66949 7.79176 4.42215C8.00024 5.98547 8.37887 7.48071 8.38262 7.49563C8.42774 7.67262 8.38848 7.86055 8.27649 8.00477C8.16438 8.14899 7.99199 8.2334 7.8093 8.2334H2.70926C2.22449 8.2334 1.83008 8.62782 1.83008 9.11258C1.83008 9.59735 2.22449 9.99176 2.70926 9.99176C3.03602 9.99176 3.3009 10.2567 3.3009 10.5834C3.3009 10.9102 3.03598 11.175 2.70926 11.175H2.06977C1.585 11.175 1.19059 11.5695 1.19059 12.0542C1.19063 12.5389 1.58512 12.9334 2.06989 12.9334Z" fill="white"/>
</g>
<defs>
<clipPath id="clip0_4490_1798">
<rect width="20" height="20" fill="white" transform="matrix(-1 0 0 1 20 0)"/>
</clipPath>
</defs>
</svg>
