<svg width="72" height="72" viewBox="0 0 72 72" fill="none" xmlns="http://www.w3.org/2000/svg">
<g clip-path="url(#clip0_839_422)">
<path d="M62.969 15.912C62.6144 11.7673 59.928 9.08104 55.7835 8.72652C55.2079 8.6773 54.7015 9.10396 54.6523 9.6794C54.6031 10.2547 55.0297 10.7614 55.6052 10.8106C58.7415 11.079 60.6165 12.9543 60.8849 16.0903C60.9069 16.3459 61.0188 16.5721 61.1871 16.7403C61.3978 16.9508 61.6964 17.0705 62.0161 17.0432C62.5916 16.9939 63.0182 16.4875 62.969 15.912Z" fill="white"/>
<path d="M68.3628 3.33411C67.3767 2.34819 66.0145 1.85614 64.6264 1.98299L63.0036 2.13163C56.7476 2.70524 51.0371 5.63614 46.9241 10.3849L44.4266 13.2683L38.6659 10.8808L38.974 10.5726C39.8914 9.65506 39.8914 8.16219 38.974 7.24475L37.2283 5.49847C36.3108 4.58131 34.818 4.58103 33.9004 5.49847L31.4918 7.9071L28.7223 6.75932L29.4164 6.06519C30.3339 5.14761 30.3339 3.65488 29.4164 2.73744L27.6704 0.991439C26.7527 0.0740019 25.2598 0.0742832 24.3425 0.991439L21.548 3.78594L16.8392 1.83435C14.6071 0.909174 12.061 1.41556 10.3524 3.12388L7.21819 6.25813C6.5529 6.92342 6.21019 7.84339 6.27798 8.78192C6.34576 9.72046 6.81727 10.5815 7.57116 11.1444L31.0719 28.6861L23.2276 37.7424C22.8495 38.1789 22.8969 38.8394 23.3334 39.2175C23.5313 39.3888 23.775 39.4729 24.0177 39.4729C24.3105 39.4729 24.6017 39.3506 24.8086 39.1118L33.3888 29.2057L33.3891 29.2055L38.4568 23.3548L48.505 11.754C52.2625 7.41589 57.4793 4.73839 63.1945 4.21442L64.8174 4.06578C65.5866 3.99533 66.3386 4.26772 66.8838 4.81306C67.4292 5.35827 67.7016 6.11146 67.6311 6.87955L67.4825 8.50236C67.1378 12.2624 65.8249 15.8947 63.6857 19.0062C63.3585 19.4822 63.4792 20.1333 63.955 20.4605C64.4312 20.7879 65.0821 20.6671 65.4094 20.1913C67.7509 16.7852 69.188 12.8093 69.5653 8.69333L69.7139 7.07052C69.8412 5.68199 69.3487 4.32003 68.3628 3.33411ZM35.3793 6.97771C35.4809 6.87561 35.6469 6.87547 35.749 6.97771L37.4949 8.72356C37.5969 8.82538 37.5969 8.99146 37.495 9.09327L36.5745 10.0137L35.7253 9.66167L33.583 8.77377L35.3793 6.97771ZM25.8216 2.47053C25.9233 2.36844 26.0894 2.3683 26.1913 2.47053L27.9372 4.21639C28.0391 4.3182 28.0391 4.48414 27.9372 4.58596L26.6309 5.89236L23.6394 4.65261L25.8216 2.47053ZM32.4451 27.1009L8.8223 9.46817C8.55118 9.26595 8.38862 8.96867 8.36415 8.63131C8.33982 8.29395 8.45794 7.97642 8.69729 7.73736L11.8314 4.60325C12.5718 3.863 13.5543 3.4708 14.5569 3.4708C15.0548 3.4708 15.558 3.56769 16.0386 3.76681L42.9835 14.934L32.4451 27.1009Z" fill="white"/>
<path d="M71.3119 44.633L69.566 42.8869C68.6483 41.9694 67.1554 41.9697 66.2382 42.8869L65.3737 43.7513L64.0482 40.5529L66.1982 38.4029C67.1157 37.4853 67.1157 35.9926 66.1982 35.0751L64.4524 33.329C63.5346 32.4116 62.0418 32.4117 61.1245 33.3291L61.075 33.3786L58.5131 27.197L61.3123 24.7724C61.5189 24.5934 61.7249 24.4087 61.9248 24.2235C62.3485 23.8309 62.3735 23.1691 61.9807 22.7457C61.5884 22.3221 60.9266 22.2971 60.5029 22.6897C60.3201 22.859 60.1318 23.0278 59.9429 23.1915L29.3865 49.6581C27.7894 51.0414 26.1261 52.3432 24.4046 53.5611C22.0275 55.243 19.5154 56.7761 16.9381 58.1184C16.9376 58.1187 16.937 58.1191 16.9364 58.1194C16.2706 58.4661 15.5988 58.8019 14.9207 59.1255C14.0919 59.5211 13.3414 59.2069 12.9154 58.7811C12.4896 58.3552 12.1754 57.6047 12.5709 56.7757C12.9155 56.0533 13.2753 55.3384 13.6464 54.6297C13.7855 54.3641 13.9259 54.0989 14.0691 53.8347C14.1013 53.7752 14.1343 53.7162 14.1667 53.6568C14.3082 53.3976 14.4507 53.1391 14.596 52.8815C14.6264 52.8276 14.6575 52.7741 14.688 52.7202C14.8372 52.4574 14.9878 52.1952 15.1408 51.9342C15.1692 51.8859 15.198 51.8378 15.2264 51.7894C15.3824 51.5249 15.54 51.2614 15.6999 50.999C15.7289 50.9514 15.7583 50.904 15.7874 50.8565C15.9466 50.5965 16.1076 50.3376 16.2704 50.0798C16.3036 50.0272 16.3371 49.9751 16.3704 49.9226C16.5292 49.673 16.6896 49.4245 16.8516 49.1772C16.8917 49.1161 16.9319 49.0552 16.9722 48.9943C17.1282 48.7578 17.286 48.5225 17.4451 48.2884C17.4922 48.2191 17.5396 48.1497 17.587 48.0806C17.7421 47.8543 17.8986 47.6292 18.0562 47.4051C19.1774 45.813 20.3692 44.27 21.6315 42.7841C22.0053 42.3438 21.9517 41.6838 21.5114 41.3099C21.0708 40.9362 20.4113 40.9898 20.0372 41.43C18.9529 42.7067 17.9191 44.0245 16.9352 45.3776L7.48419 41.0994C5.70106 40.292 3.57411 40.6796 2.19078 42.0634L0.581888 43.6724C0.174779 44.0795 -0.0354559 44.6426 0.00490348 45.217C0.0454035 45.7915 0.33256 46.3192 0.792685 46.6652L11.3193 54.5826C11.1032 55.0114 10.89 55.4416 10.6831 55.875C9.97058 57.3687 10.2663 59.0899 11.4365 60.2601C12.1829 61.0067 13.1535 61.3972 14.1463 61.3972C14.7098 61.3972 15.2806 61.2712 15.8214 61.0131C16.255 60.8063 16.6851 60.5931 17.1138 60.3771L25.0312 70.9037C25.3773 71.3638 25.9051 71.651 26.4794 71.6915C26.5262 71.6947 26.5728 71.6964 26.6193 71.6964C27.1444 71.6964 27.6498 71.4884 28.0239 71.1144L29.6325 69.5056C31.0162 68.1222 31.4037 65.9948 30.5967 64.2122L26.3191 54.7625C27.8458 53.6523 29.3263 52.4771 30.7558 51.239L43.0404 40.5986L60.7473 64.3205C61.3102 65.0747 62.1714 65.546 63.11 65.6137C63.1881 65.6193 63.266 65.6221 63.344 65.6221C64.1998 65.6221 65.0239 65.2832 65.6338 64.6733L68.7677 61.5394C70.4763 59.8309 70.9826 57.2847 70.0575 55.0527L68.3471 50.9257L71.312 47.9607C72.2293 47.0432 72.2293 45.5504 71.3119 44.633ZM2.1462 45.0661L3.66987 43.5426C4.44134 42.7711 5.62765 42.5551 6.62159 43.0051L15.7099 47.1192C15.6904 47.1479 15.6712 47.1772 15.6518 47.2059C15.5383 47.3735 15.4257 47.5417 15.3136 47.7103C15.2591 47.7924 15.2049 47.875 15.1508 47.9574C14.7697 48.537 14.3976 49.1224 14.0346 49.7136C13.9894 49.7875 13.9438 49.861 13.8988 49.935C13.7915 50.1113 13.6852 50.2882 13.5796 50.4656C13.5249 50.5572 13.4707 50.6492 13.4166 50.7412C13.3146 50.9142 13.2128 51.0871 13.1124 51.2609C13.0612 51.3495 13.0112 51.4387 12.9604 51.5274C12.7943 51.8181 12.6305 52.11 12.4688 52.4032C12.4134 52.5038 12.357 52.604 12.3021 52.7047L2.1462 45.0661ZM28.6914 65.075C29.1413 66.0689 28.9254 67.2551 28.1537 68.0267L26.6303 69.5502L18.9917 59.3943C19.1562 59.3047 19.3199 59.2134 19.4837 59.1223C19.7177 58.9924 19.9507 58.8609 20.183 58.7281C20.2927 58.6654 20.4024 58.6028 20.5118 58.5395C20.6868 58.4383 20.861 58.3362 21.035 58.2334C21.122 58.1819 21.2088 58.1299 21.2957 58.078C21.895 57.72 22.4886 57.3527 23.0764 56.9761C23.1532 56.9269 23.2301 56.8776 23.3067 56.8281C23.4883 56.7107 23.6696 56.5927 23.85 56.4735C23.9224 56.4257 23.9944 56.3772 24.0667 56.3291C24.2373 56.2154 24.4084 56.1028 24.5779 55.9876L28.6914 65.075ZM62.6033 34.8082C62.7049 34.7061 62.871 34.7061 62.973 34.8081L64.7188 36.5542C64.8208 36.656 64.8208 36.822 64.7188 36.9238L63.1812 38.4615L62.2391 36.188L61.9415 35.4699L62.6033 34.8082ZM67.2886 60.0603L64.1545 63.1944C63.9156 63.4334 63.5983 63.5504 63.2606 63.5277C62.9231 63.5033 62.6259 63.3405 62.4236 63.0695L44.6258 39.2255L48.356 35.9945L56.8467 28.6403L68.1252 55.8533C68.7253 57.3009 68.3969 58.9523 67.2886 60.0603ZM69.8328 46.4815L67.4803 48.8342L66.2404 45.8425L67.7172 44.3658C67.8189 44.2637 67.985 44.2637 68.087 44.3657L69.8328 46.1117V46.1118C69.9348 46.2138 69.9348 46.3797 69.8328 46.4815Z" fill="white"/>
</g>
<defs>
<clipPath id="clip0_839_422">
<rect width="72" height="72" fill="white"/>
</clipPath>
</defs>
</svg>
