<svg width="38" height="37" viewBox="0 0 38 37" fill="none" xmlns="http://www.w3.org/2000/svg">
<g clip-path="url(#clip0_845_64)">
<path d="M34.9972 8.53597C33.5815 6.37708 30.5371 5.48025 26.4351 5.995C26.2902 6.01154 26.1366 6.03652 25.9917 6.05306C25.9321 5.9204 25.8724 5.78741 25.8041 5.65475C24.0389 2.00936 21.6255 0 18.9989 0C16.3722 0 13.9505 2.00936 12.1936 5.65475C12.134 5.78741 12.0657 5.9204 12.006 6.05306C11.8525 6.02841 11.7076 6.01154 11.5627 5.995C7.45232 5.47182 4.41628 6.37708 3.00053 8.53597C1.58511 10.6949 2.01983 13.7587 4.22007 17.1631C4.51022 17.6117 4.82568 18.0599 5.16679 18.5001C4.82568 18.9483 4.51022 19.3885 4.22007 19.8367C2.01983 23.2411 1.58511 26.3134 3.00053 28.4642C4.15178 30.2244 6.38634 31.1462 9.3964 31.1462C10.1179 31.1423 10.8385 31.0953 11.554 31.0048C11.6989 30.9883 11.8525 30.9633 11.9974 30.9467C12.0573 31.0797 12.117 31.2124 12.1853 31.3454C13.9505 34.9904 16.3639 37.0001 18.9902 37.0001C21.6168 37.0001 24.0389 34.9904 25.7955 31.3454C25.8551 31.2124 25.9234 31.0797 25.983 30.9467C26.1366 30.9717 26.2815 30.9883 26.4267 31.0048C27.1416 31.0992 27.8625 31.1462 28.584 31.1462C31.5944 31.1462 33.8286 30.2244 34.9799 28.4642C36.3956 26.3053 35.9606 23.2411 33.7607 19.8367C33.4705 19.3885 33.1551 18.9402 32.8139 18.5001C33.1551 18.0515 33.4705 17.6117 33.7607 17.1631C35.9862 13.7506 36.4213 10.6864 34.9972 8.53597ZM13.7373 6.36054C15.1783 3.37131 17.0971 1.66068 18.9989 1.66068C20.9006 1.66068 22.8194 3.37131 24.2605 6.36054C24.2615 6.36671 24.2645 6.37254 24.2691 6.37708C22.4576 6.80134 20.6908 7.38777 18.9902 8.12891C17.2916 7.3842 15.5241 6.79744 13.7116 6.37708C13.7286 6.37708 13.7286 6.36865 13.7373 6.36054ZM26.6826 18.5001C26.6829 19.8286 26.609 21.1565 26.4607 22.4773C25.3977 23.3125 24.2875 24.0886 23.1349 24.8022C21.8047 25.6339 20.4203 26.3802 18.9902 27.036C17.5631 26.375 16.1787 25.629 14.8459 24.8022C13.6946 24.0867 12.5843 23.3105 11.52 22.4773C11.2242 19.8335 11.2242 17.1663 11.52 14.5225C13.8185 12.724 16.3259 11.194 18.9902 9.96409C20.4176 10.6248 21.8017 11.3708 23.1349 12.1976C24.2861 12.9131 25.3964 13.6893 26.4607 14.5225C26.609 15.8436 26.6829 17.1712 26.6826 18.5001ZM28.3112 16.0836C29.1463 16.841 29.9325 17.648 30.665 18.5001C29.9325 19.3518 29.1463 20.1588 28.3112 20.9162C28.3625 20.1192 28.3881 19.3139 28.3881 18.5001C28.3881 17.6863 28.3625 16.8809 28.3112 16.0836ZM26.1109 24.8356C25.8418 26.2732 25.451 27.6867 24.9427 29.0619C23.6182 28.7707 22.3184 28.3821 21.0542 27.8995C22.0602 27.3847 23.0666 26.82 24.0643 26.2057C24.7638 25.7656 25.446 25.3089 26.1109 24.8356ZM16.9435 27.8995C15.6817 28.3883 14.3812 28.7772 13.055 29.0619C12.5467 27.6867 12.1559 26.2732 11.8868 24.8356C12.5434 25.3089 13.2256 25.7656 13.9335 26.1973C14.9312 26.82 15.9375 27.3847 16.9435 27.8995ZM9.68654 20.9162C8.85142 20.1588 8.06559 19.3518 7.33273 18.5001C8.06559 17.648 8.85142 16.841 9.68654 16.0836C9.63524 16.8809 9.60959 17.6863 9.60959 18.5001C9.60959 19.3139 9.63524 20.1192 9.68654 20.9162ZM11.8868 12.1645C12.1559 10.7266 12.5467 9.31312 13.055 7.93819C14.3795 8.22913 15.6797 8.61771 16.9435 9.10067C15.9375 9.61542 14.9312 10.1801 13.9335 10.7944C13.2339 11.2346 12.5517 11.6913 11.8868 12.1645ZM24.0559 10.7944C23.0666 10.1801 22.0602 9.60698 21.0455 9.10067C22.3074 8.61187 23.6079 8.22297 24.9344 7.93819C25.4424 9.31312 25.8331 10.7266 26.1026 12.1645C25.446 11.6913 24.7638 11.2346 24.0559 10.7944ZM5.66147 16.2747C3.85331 13.4846 3.40993 10.9855 4.43327 9.42437C5.25207 8.17886 7.02593 7.50615 9.42205 7.50615C10.0636 7.50875 10.7046 7.55059 11.3408 7.63071H11.3578C10.6679 9.58395 10.1879 11.6014 9.92539 13.6507C8.61124 14.7181 7.38769 15.8874 6.26675 17.1465C6.05356 16.8644 5.84902 16.5737 5.66147 16.2747ZM11.3325 29.361C10.6962 29.4414 10.0553 29.4829 9.41372 29.4855C7.01727 29.4855 5.24341 28.8213 4.42494 27.5673C3.4016 26.0062 3.84498 23.5071 5.65281 20.717C5.84036 20.4264 6.04523 20.1273 6.25842 19.8367C7.37903 21.0962 8.60258 22.2651 9.91673 23.3326C10.1796 25.3822 10.6596 27.3996 11.3495 29.3526C11.3495 29.361 11.3408 29.361 11.3325 29.361ZM24.2605 30.6396C22.8194 33.6288 20.9006 35.3394 18.9989 35.3394C17.0971 35.3394 15.1783 33.6288 13.7373 30.6396C13.7363 30.6334 13.7333 30.6276 13.7286 30.623C15.5401 30.1988 17.307 29.6124 19.0075 28.8709C20.7061 29.6159 22.4736 30.2027 24.2861 30.623C24.2691 30.623 24.2691 30.6312 24.2605 30.6396ZM32.3363 20.7254C34.1444 23.5152 34.5878 26.0147 33.5645 27.5758C32.5411 29.1365 30.0254 29.7927 26.6653 29.361H26.6483C27.3381 27.4077 27.8185 25.3903 28.081 23.341C29.3952 22.2736 30.6187 21.1043 31.7393 19.8452C31.9442 20.1358 32.1487 20.4264 32.3363 20.7254ZM28.0723 13.6591C27.8098 11.6095 27.3298 9.59206 26.6399 7.63914H26.6569C30.0168 7.21553 32.5325 7.86327 33.5558 9.42437C34.5791 10.9855 34.1358 13.4846 32.3279 16.2747C32.1404 16.5653 31.9355 16.8644 31.7223 17.155C30.6067 15.8936 29.3858 14.7243 28.0723 13.6591Z" fill="url(#paint0_linear_845_64)"/>
<path d="M18.9982 15.2118C17.1331 15.2118 15.6211 16.684 15.6211 18.5001C15.6211 20.3161 17.1331 21.788 18.9982 21.788C20.8634 21.788 22.3754 20.3161 22.3754 18.5001C22.3741 16.6844 20.8627 15.2131 18.9982 15.2118ZM18.9982 20.1273C18.0752 20.1273 17.3267 19.3989 17.3267 18.5001C17.3267 17.6013 18.0752 16.8725 18.9982 16.8725C19.9213 16.8725 20.6698 17.6013 20.6698 18.5001C20.6682 19.3982 19.9207 20.126 18.9982 20.1273Z" fill="url(#paint1_linear_845_64)"/>
</g>
<defs>
<linearGradient id="paint0_linear_845_64" x1="19.0014" y1="-1.42819" x2="19.0014" y2="38.8275" gradientUnits="userSpaceOnUse">
<stop stop-color="#00EFD1"/>
<stop offset="1" stop-color="#00ACEA"/>
</linearGradient>
<linearGradient id="paint1_linear_845_64" x1="18.9983" y1="-1.42818" x2="18.9983" y2="38.8275" gradientUnits="userSpaceOnUse">
<stop stop-color="#00EFD1"/>
<stop offset="1" stop-color="#00ACEA"/>
</linearGradient>
<clipPath id="clip0_845_64">
<rect width="38" height="37" fill="white"/>
</clipPath>
</defs>
</svg>
