<svg width="37" height="37" viewBox="0 0 37 37" fill="none" xmlns="http://www.w3.org/2000/svg">
<g clip-path="url(#clip0_845_58)">
<path d="M18.5 37C28.7173 37 37 28.7173 37 18.5C37 8.28273 28.7173 0 18.5 0C8.28273 0 0 8.28273 0 18.5C0 28.7173 8.28273 37 18.5 37Z" fill="#007DC5"/>
<path d="M29.2834 9.35154L24.1782 7.28857L15.1854 16.0024L9.75228 11.8808L7.69141 12.9112L7.71786 23.7998L20.7784 36.8603C29.921 35.7377 37.0007 27.946 37.0007 18.5C37.0007 17.998 36.9799 17.5008 36.9407 17.0088L29.2834 9.35154Z" fill="#007DC5"/>
<path d="M29.2834 9.35154L24.1782 7.28857L15.1854 16.0024L9.75228 11.8808L7.69141 12.9112L7.71786 23.7998L9.77873 24.8302L15.2119 20.7085L24.2046 29.4224L29.3099 27.3594L29.2834 9.35154ZM10.294 20.6617V16.0493L12.8436 18.3555H12.87L10.294 20.6617ZM23.666 22.1956L18.5404 18.3555H18.5139L23.666 14.5154V22.1956Z" fill="white"/>
</g>
<defs>
<clipPath id="clip0_845_58">
<rect width="37" height="37" fill="white"/>
</clipPath>
</defs>
</svg>
