<svg width="40" height="40" viewBox="0 0 40 40" fill="none" xmlns="http://www.w3.org/2000/svg">
<path d="M20 40C31.0457 40 40 31.0457 40 20C40 8.9543 31.0457 0 20 0C8.9543 0 0 8.9543 0 20C0 31.0457 8.9543 40 20 40Z" fill="#1976D2"/>
<path d="M26.1003 17.4294C26.1003 17.4294 24.3703 22.8494 24.2403 23.3094C24.1903 22.8494 22.9303 13.1094 22.9303 13.1094C19.9803 13.1094 18.4103 15.1994 17.5803 17.4294C17.5803 17.4294 15.4803 22.8694 15.3103 23.3294C15.3003 22.8994 14.9903 17.4894 14.9903 17.4894C14.8103 14.7694 12.3303 13.1194 10.3203 13.1194L12.7403 27.8794C15.8303 27.8694 17.4903 25.7794 18.3603 23.5594C18.3603 23.5594 20.2103 18.7594 20.2903 18.5394C20.3103 18.7494 21.6203 27.8794 21.6203 27.8794C24.7103 27.8794 26.3803 25.9194 27.2803 23.7794L31.6003 13.1094C28.5403 13.1094 26.9303 15.1994 26.1003 17.4294Z" fill="white"/>
</svg>
