<svg width="28" height="33" viewBox="0 0 28 33" fill="none" xmlns="http://www.w3.org/2000/svg">
<path fill-rule="evenodd" clip-rule="evenodd" d="M9.46611 11.8613C8.79824 11.8613 9.17007 11.05 9.58174 9.33543H9.33327C8.45174 9.33543 7.73438 8.61825 7.73438 7.73634V1.59909C7.73438 0.717559 8.45174 0 9.33327 0H18.7797C19.6612 0 20.379 0.717173 20.379 1.59909V7.73653C20.379 8.61806 19.6614 9.33562 18.7797 9.33562H13.5816C13.3093 9.41432 9.80004 11.8611 9.4663 11.8611L9.46611 11.8613ZM9.33346 0.773441C8.87829 0.773441 8.50801 1.14373 8.50801 1.59909V7.73653C8.50801 8.69192 9.53978 8.56237 10.0723 8.56237C10.3211 8.56237 10.5062 8.79731 10.4484 9.03939L10.0642 10.6402C10.4938 10.3691 13.2198 8.56257 13.4696 8.56257H18.7799C19.2351 8.56257 19.6053 8.19209 19.6053 7.73673V1.59928C19.6053 1.14411 19.2351 0.773634 18.7799 0.773634H9.33346V0.773441Z" fill="white"/>
<path fill-rule="evenodd" clip-rule="evenodd" d="M13.9947 7.82024C13.4382 7.82024 12.9858 7.36777 12.9858 6.81128V5.67684H11.8513C10.5235 5.67665 10.5235 3.65913 11.8513 3.65913L12.9858 3.65893V2.52449C12.9858 1.19649 15.0035 1.19669 15.0035 2.52449V3.65893H16.1379C17.4661 3.65893 17.4661 5.67665 16.1379 5.67665L15.0035 5.67684V6.81128C15.0035 7.36777 14.5506 7.82024 13.9945 7.82024H13.9947ZM11.8513 4.43218C11.5423 4.43218 11.5423 4.90321 11.8513 4.90321C14.0703 4.90321 13.7592 4.59228 13.7592 6.81109C13.7592 7.12008 14.23 7.12047 14.23 6.81109C14.23 4.59228 13.9191 4.90321 16.1379 4.90321C16.4469 4.90321 16.4473 4.43237 16.1379 4.43237C13.9191 4.43218 14.2302 4.7433 14.2302 2.52449C14.2302 2.21511 13.7594 2.2155 13.7594 2.52449C13.7594 4.7433 14.0703 4.43218 11.8515 4.43218H11.8513Z" fill="white"/>
<path fill-rule="evenodd" clip-rule="evenodd" d="M7.32178 25.3716H0.844597C0.378986 25.3716 0 24.9928 0 24.5268V15.2838C0 14.8182 0.378792 14.4392 0.844597 14.4392H7.32178C7.78758 14.4392 8.16637 14.818 8.16637 15.2838V24.5272C8.16637 24.9928 7.78758 25.3718 7.32178 25.3718V25.3716ZM0.844597 15.2126C0.805925 15.2126 0.773441 15.2451 0.773441 15.2838V24.5272C0.773441 24.5659 0.805925 24.5984 0.844597 24.5984H7.32178C7.36045 24.5984 7.39293 24.5659 7.39293 24.5272V15.2838C7.39293 15.2451 7.36045 15.2126 7.32178 15.2126H0.844597Z" fill="white"/>
<path fill-rule="evenodd" clip-rule="evenodd" d="M7.77888 15.6707C7.33163 15.6707 7.24423 15.0266 7.6793 14.9102L14.9334 12.9664C15.4263 12.8349 15.6249 13.582 15.1337 13.7137L7.77888 15.6707Z" fill="white"/>
<path fill-rule="evenodd" clip-rule="evenodd" d="M15.0327 26.8574L7.67827 24.9003C7.18597 24.7688 7.38707 24.0199 7.87839 24.1533L15.1327 26.0972C15.5672 26.2134 15.4802 26.8576 15.0327 26.8576V26.8574Z" fill="white"/>
<path fill-rule="evenodd" clip-rule="evenodd" d="M16.7549 28.6131C15.5934 28.6131 14.6484 27.6682 14.6484 26.5068V13.304C14.6484 12.1425 15.5934 11.1978 16.7547 11.1978C17.9162 11.1978 18.8612 12.1425 18.8612 13.304V26.507C18.8612 27.6682 17.916 28.6129 16.7549 28.6129V28.6131ZM16.7549 11.9712C16.0201 11.9712 15.4221 12.5693 15.4221 13.304V26.507C15.4221 28.2639 18.0873 28.2639 18.0873 26.507V13.3042C18.0873 12.5695 17.4899 11.9714 16.7549 11.9714V11.9712Z" fill="white"/>
<path fill-rule="evenodd" clip-rule="evenodd" d="M7.73065 32.9997H4.1007C3.92185 32.9997 3.76638 32.8769 3.72481 32.7033L1.8935 25.0756C1.83549 24.8339 2.02112 24.5984 2.26978 24.5984H5.8947C6.07356 24.5984 6.22902 24.7212 6.27059 24.8948L8.11776 32.6128C8.11757 32.8264 7.94451 32.9997 7.73085 32.9997H7.73065ZM4.40544 32.2263H7.23488L5.58958 25.3724H2.75994L4.40563 32.2263H4.40544Z" fill="white"/>
<path fill-rule="evenodd" clip-rule="evenodd" d="M18.4719 23.707C17.9643 23.707 17.962 22.9369 18.4694 22.9334C20.1275 22.9222 21.4761 21.5638 21.4761 19.9058C21.4761 18.2479 20.1275 16.8892 18.4694 16.8779C17.9609 16.8743 17.9641 16.1028 18.4744 16.1045C20.5559 16.1188 22.2496 17.824 22.2496 19.9058C22.2496 21.9956 20.5324 23.707 18.4717 23.707H18.4719Z" fill="white"/>
<path fill-rule="evenodd" clip-rule="evenodd" d="M4.80577 22.9006H0.38672C0.173251 22.9006 0 22.7272 0 22.5139V17.2969C0 17.0834 0.173251 16.9102 0.38672 16.9102H4.80597C5.01944 16.9102 5.19269 17.0836 5.19269 17.2969V22.5139C5.1923 22.727 5.01944 22.9006 4.80558 22.9006H4.80577ZM0.773441 22.127H4.41925V17.6836H0.773441V22.127Z" fill="white"/>
<path fill-rule="evenodd" clip-rule="evenodd" d="M27.1484 20.5315H25.6044C25.0953 20.5315 25.0955 19.7581 25.6044 19.7581H27.1484C27.6573 19.7581 27.6573 20.5315 27.1484 20.5315Z" fill="white"/>
<path fill-rule="evenodd" clip-rule="evenodd" d="M26.092 23.9897C25.8868 23.9897 24.809 23.3087 24.5617 23.166C24.1205 22.9116 24.508 22.2419 24.9485 22.4964L26.2855 23.2681C26.6278 23.4653 26.4843 23.9897 26.0918 23.9897H26.092Z" fill="white"/>
<path fill-rule="evenodd" clip-rule="evenodd" d="M23.4526 26.4572C23.3192 26.4572 23.189 26.3878 23.1175 26.2636L22.3458 24.9265C22.0913 24.4857 22.7607 24.0992 23.0154 24.5398L23.7873 25.8769C23.9373 26.137 23.7457 26.4572 23.4528 26.4572H23.4526Z" fill="white"/>
<path fill-rule="evenodd" clip-rule="evenodd" d="M23.094 15.7037C22.8008 15.7037 22.6092 15.3838 22.7595 15.1236L23.5312 13.7865C23.7854 13.3458 24.4556 13.732 24.201 14.1732L23.4291 15.5103C23.3573 15.6342 23.2274 15.7037 23.094 15.7037Z" fill="white"/>
<path fill-rule="evenodd" clip-rule="evenodd" d="M24.9957 17.781C24.6035 17.781 24.4601 17.2566 24.8019 17.0592L26.139 16.2875C26.5795 16.0328 26.9666 16.7026 26.5257 16.9571C26.2794 17.0992 25.1999 17.781 24.9955 17.781H24.9957Z" fill="white"/>
</svg>
