<svg width="28" height="28" viewBox="0 0 28 28" fill="none" xmlns="http://www.w3.org/2000/svg">
<path d="M24.9362 22.0938V9.40625C24.9356 8.8263 24.7049 8.27029 24.2948 7.86021C23.8847 7.45012 23.3287 7.21943 22.7487 7.21875H21.8737C21.7588 7.22038 21.6491 7.26719 21.5684 7.34906C21.4876 7.43094 21.4424 7.54129 21.4424 7.65626C21.4424 7.77124 21.4876 7.88159 21.5684 7.96345C21.6491 8.04532 21.7588 8.09213 21.8738 8.09375H22.7487C23.0967 8.09413 23.4303 8.23253 23.6764 8.47859C23.9225 8.72465 24.0609 9.05827 24.0612 9.40625V22.0938H3.93623V9.40625C3.93661 9.05827 4.07502 8.72465 4.32107 8.47859C4.56713 8.23253 4.90075 8.09413 5.24873 8.09375H10.0745C10.1905 8.09375 10.3018 8.04766 10.3838 7.96561C10.4659 7.88356 10.512 7.77228 10.512 7.65625C10.512 7.54022 10.4659 7.42894 10.3838 7.34689C10.3018 7.26484 10.1905 7.21875 10.0745 7.21875H5.24873C4.66878 7.21943 4.11278 7.45012 3.70269 7.86021C3.2926 8.2703 3.06192 8.8263 3.06123 9.40625V22.0938C2.48401 22.0982 1.93195 22.3307 1.52536 22.7404C1.11877 23.1502 0.890622 23.704 0.890625 24.2813C0.890628 24.8585 1.11879 25.4124 1.52538 25.8221C1.93197 26.2318 2.48403 26.4643 3.06126 26.4688H24.9362C25.5135 26.4643 26.0655 26.2318 26.4721 25.8221C26.8787 25.4123 27.1069 24.8585 27.1069 24.2812C27.1069 23.704 26.8787 23.1502 26.4721 22.7404C26.0655 22.3307 25.5135 22.0982 24.9362 22.0938ZM16.1862 22.9688C16.1859 23.2007 16.0936 23.4231 15.9296 23.5871C15.7656 23.7512 15.5432 23.8434 15.3112 23.8438H12.6862C12.4543 23.8434 12.2319 23.7512 12.0678 23.5871C11.9038 23.4231 11.8115 23.2007 11.8112 22.9688H16.1862ZM24.9362 25.5938H3.06123C2.71314 25.5938 2.3793 25.4555 2.13316 25.2093C1.88701 24.9632 1.74873 24.6293 1.74873 24.2812C1.74873 23.9332 1.88701 23.5993 2.13316 23.3532C2.3793 23.107 2.71314 22.9688 3.06123 22.9688H10.9362C10.9367 23.4327 11.1212 23.8776 11.4493 24.2057C11.7774 24.5338 12.2222 24.7183 12.6862 24.7188H15.3112C15.7752 24.7183 16.2201 24.5338 16.5482 24.2057C16.8762 23.8776 17.0608 23.4327 17.0612 22.9688H24.9362C25.2818 22.9726 25.6118 23.1126 25.8548 23.3584C26.0978 23.6041 26.234 23.9357 26.234 24.2812C26.234 24.6268 26.0978 24.9584 25.8548 25.2041C25.6118 25.4499 25.2818 25.5899 24.9362 25.5938Z" fill="white"/>
<path d="M17.0606 7.65625C17.0607 7.59879 17.0494 7.54188 17.0274 7.48879C17.0054 7.43569 16.9732 7.38745 16.9326 7.34682C16.8919 7.30618 16.8437 7.27396 16.7906 7.25199C16.7375 7.23001 16.6806 7.21872 16.6231 7.21875H13.4688C13.3527 7.21875 13.2414 7.26484 13.1594 7.34689C13.0773 7.42894 13.0312 7.54022 13.0312 7.65625C13.0312 7.77228 13.0773 7.88356 13.1594 7.96561C13.2414 8.04766 13.3527 8.09375 13.4688 8.09375H16.6231C16.6806 8.09378 16.7375 8.08249 16.7906 8.06051C16.8437 8.03854 16.8919 8.00632 16.9326 7.96568C16.9732 7.92505 17.0054 7.87681 17.0274 7.82371C17.0494 7.77062 17.0607 7.71371 17.0606 7.65625Z" fill="white"/>
<path d="M9.1875 13.3438C8.83952 13.3441 8.5059 13.4825 8.25984 13.7286C8.01378 13.9747 7.87538 14.3083 7.875 14.6562V18.1562C7.87538 18.5042 8.01378 18.8378 8.25984 19.0839C8.5059 19.33 8.83952 19.4684 9.1875 19.4688H10.0625C10.4105 19.4684 10.7441 19.33 10.9902 19.0839C11.2362 18.8378 11.3746 18.5042 11.375 18.1562V14.6562C11.3746 14.3083 11.2362 13.9747 10.9902 13.7286C10.7441 13.4825 10.4105 13.3441 10.0625 13.3438H9.1875ZM10.5 14.6562V18.1562C10.4999 18.2723 10.4538 18.3835 10.3718 18.4655C10.2897 18.5476 10.1785 18.5937 10.0625 18.5938H9.1875C9.07149 18.5937 8.96026 18.5476 8.87823 18.4655C8.7962 18.3835 8.75008 18.2723 8.75 18.1562V14.6562C8.75008 14.5402 8.7962 14.429 8.87823 14.347C8.96026 14.2649 9.07149 14.2188 9.1875 14.2188H10.0625C10.1785 14.2188 10.2897 14.2649 10.3718 14.347C10.4538 14.429 10.4999 14.5402 10.5 14.6562Z" fill="white"/>
<path d="M14 9.84375C13.652 9.84413 13.3184 9.98253 13.0723 10.2286C12.8263 10.4747 12.6879 10.8083 12.6875 11.1562V18.1562C12.6879 18.5042 12.8263 18.8378 13.0723 19.0839C13.3184 19.33 13.652 19.4684 14 19.4688H14.875C15.223 19.4684 15.5566 19.33 15.8027 19.0839C16.0487 18.8378 16.1871 18.5042 16.1875 18.1562V11.1562C16.1871 10.8083 16.0487 10.4747 15.8027 10.2286C15.5566 9.98253 15.223 9.84413 14.875 9.84375H14ZM15.3125 11.1562V18.1562C15.3124 18.2723 15.2663 18.3835 15.1843 18.4655C15.1022 18.5476 14.991 18.5937 14.875 18.5938H14C13.884 18.5937 13.7728 18.5476 13.6907 18.4655C13.6087 18.3835 13.5626 18.2723 13.5625 18.1562V11.1562C13.5626 11.0402 13.6087 10.929 13.6907 10.847C13.7728 10.7649 13.884 10.7188 14 10.7188H14.875C14.991 10.7188 15.1022 10.7649 15.1843 10.847C15.2663 10.929 15.3124 11.0402 15.3125 11.1562Z" fill="white"/>
<path d="M18.8125 5.90625C18.4645 5.90663 18.1309 6.04503 17.8848 6.29109C17.6388 6.53715 17.5004 6.87077 17.5 7.21875V18.1562C17.5004 18.5042 17.6388 18.8378 17.8848 19.0839C18.1309 19.33 18.4645 19.4684 18.8125 19.4688H19.6875C20.0355 19.4684 20.3691 19.33 20.6152 19.0839C20.8612 18.8378 20.9996 18.5042 21 18.1562V7.21875C20.9996 6.87077 20.8612 6.53715 20.6152 6.29109C20.3691 6.04503 20.0355 5.90663 19.6875 5.90625H18.8125ZM20.125 7.21875V18.1562C20.1249 18.2723 20.0788 18.3835 19.9968 18.4655C19.9147 18.5476 19.8035 18.5937 19.6875 18.5938H18.8125C18.6965 18.5937 18.5853 18.5476 18.5032 18.4655C18.4212 18.3835 18.3751 18.2723 18.375 18.1562V7.21875C18.3751 7.10274 18.4212 6.99151 18.5032 6.90948C18.5853 6.82745 18.6965 6.78133 18.8125 6.78125H19.6875C19.8035 6.78133 19.9147 6.82745 19.9968 6.90948C20.0788 6.99151 20.1249 7.10274 20.125 7.21875Z" fill="white"/>
<path d="M9.34817 10.6201C9.43805 10.6934 9.55338 10.7281 9.66883 10.7165C9.78427 10.7049 9.89038 10.6479 9.96384 10.5581L13.6796 6.0165L15.1169 6.73513C15.199 6.77616 15.292 6.79032 15.3826 6.7756C15.4732 6.76088 15.5569 6.71802 15.6219 6.6531L19.25 3.02491V3.71875C19.2517 3.83371 19.2985 3.94341 19.3804 4.02413C19.4622 4.10485 19.5726 4.1501 19.6876 4.15009C19.8025 4.15009 19.9129 4.10483 19.9947 4.02411C20.0766 3.94339 20.1234 3.83368 20.125 3.71872V1.96875C20.1221 1.85363 20.0751 1.74403 19.9937 1.6626C19.9123 1.58117 19.8027 1.53415 19.6875 1.53125H17.9375C17.8226 1.53288 17.7129 1.57969 17.6322 1.66156C17.5514 1.74344 17.5062 1.85379 17.5062 1.96876C17.5062 2.08374 17.5515 2.19409 17.6322 2.27595C17.7129 2.35782 17.8226 2.40463 17.9376 2.40625H18.6314L15.2262 5.8114L13.7582 5.07739C13.6694 5.0328 13.568 5.01984 13.4708 5.04066C13.3737 5.06148 13.2865 5.11483 13.2237 5.1919L9.28623 10.0044C9.2128 10.0943 9.17808 10.2096 9.1897 10.3251C9.20132 10.4405 9.25832 10.5466 9.34817 10.6201Z" fill="white"/>
</svg>
