<svg width="31" height="31" viewBox="0 0 31 31" fill="none" xmlns="http://www.w3.org/2000/svg">
<path d="M26.8176 11.3856C27.2439 10.705 27.0875 9.81816 26.4538 9.32282L24.2701 7.61637C24.091 7.47693 23.9879 7.29874 23.9552 7.07326L23.5708 4.32704C23.4592 3.53321 22.7673 2.95493 21.9662 2.98157L19.1974 3.07935C18.9693 3.08758 18.7753 3.01602 18.6058 2.86356L16.5462 1.00822L16.5454 1.0075C15.9489 0.473352 15.0494 0.473231 14.4522 1.00822L12.3928 2.86338C12.2232 3.01602 12.0294 3.08583 11.8023 3.07941L9.03145 2.98151C8.22909 2.95583 7.53909 3.53315 7.42757 4.32722L7.0434 7.07145C7.01046 7.29874 6.90735 7.47693 6.72777 7.61679L4.54457 9.32282C3.91094 9.81816 3.75449 10.7049 4.18056 11.3854L5.64973 13.7349C5.77046 13.928 5.80606 14.1307 5.75865 14.3543L5.182 17.0659C5.01465 17.8515 5.4644 18.6309 6.22819 18.8787L7.4272 19.2679L4.33005 26.9641C4.20653 27.2713 4.23548 27.5688 4.40949 27.7802C4.57981 27.9872 4.85984 28.071 5.17825 28.0103L8.57935 27.3565L10.7426 30.0606C10.9157 30.2763 11.1364 30.3937 11.3617 30.3937C11.3997 30.3937 11.4378 30.3904 11.4759 30.3836C11.7456 30.3357 11.9609 30.1279 12.0668 29.8133L14.5054 22.5394L15.1853 22.2647C15.3997 22.1777 15.5992 22.1778 15.8138 22.2648L16.4932 22.5394L18.932 29.8137C19.0377 30.1279 19.253 30.3357 19.5227 30.3836C19.5607 30.3904 19.5988 30.3937 19.6368 30.3937C19.8622 30.3937 20.083 30.2763 20.2562 30.0602L22.4192 27.3565L25.8208 28.0104C26.1387 28.0712 26.4188 27.9871 26.589 27.7802C26.763 27.5689 26.7919 27.2714 26.6684 26.964L23.5713 19.268L24.7703 18.8788C25.5341 18.6309 25.9839 17.8515 25.8166 17.0661L25.24 14.3546C25.1925 14.1308 25.2281 13.9281 25.3488 13.7351L26.8178 11.3857L26.8176 11.3856ZM11.3784 29.5822C11.3683 29.6119 11.3577 29.6338 11.3485 29.649C11.3374 29.6392 11.324 29.6255 11.309 29.6068L8.8724 26.5609L5.04154 27.2973C5.01756 27.3019 4.99812 27.3036 4.98317 27.3039C4.98608 27.2866 4.99207 27.2635 5.00351 27.235L8.11926 19.4927L8.86616 19.7352C9.08207 19.8052 9.23889 19.9371 9.34587 20.1388L10.6481 22.5853C11.0227 23.2943 11.868 23.6032 12.6153 23.3032L13.6195 22.8973L11.3784 29.5821V29.5822ZM25.9946 27.2348C26.0061 27.2634 26.0121 27.2865 26.015 27.304C26.0001 27.3036 25.9809 27.3019 25.9572 27.2974L22.1258 26.5609L19.6895 29.6064C19.6743 29.6253 19.6608 29.6391 19.6497 29.649C19.6405 29.6338 19.6299 29.6121 19.62 29.5826L17.3786 22.8974L18.3837 23.3035C18.576 23.3807 18.7748 23.4175 18.9705 23.4175C19.5344 23.4175 20.0719 23.1118 20.3496 22.5862L21.6526 20.1383C21.7593 19.937 21.9161 19.8051 22.1322 19.7351L22.8789 19.4926L25.9946 27.2348ZM24.5296 14.5053L25.1063 17.2172C25.196 17.638 24.9551 18.0554 24.546 18.1882L21.9083 19.0446C21.5097 19.1738 21.2079 19.4273 21.0115 19.7977L19.7084 22.2461C19.5079 22.6255 19.0547 22.7903 18.655 22.6301L16.0862 21.5919C15.8914 21.5128 15.6952 21.4734 15.4991 21.4734C15.303 21.4734 15.1071 21.5128 14.9126 21.5917L12.3442 22.6298C11.9437 22.7905 11.4904 22.6257 11.2895 22.2452L9.98707 19.7982C9.79041 19.4273 9.48864 19.1738 9.09025 19.0447L6.45228 18.1882C6.04322 18.0554 5.80237 17.638 5.8921 17.217L6.46881 14.5051C6.55587 14.094 6.48746 13.7054 6.26531 13.35L4.79602 11.0003C4.5677 10.6357 4.65186 10.1604 4.99159 9.89475L7.17418 8.18914C7.50374 7.93261 7.70142 7.59161 7.76203 7.17383L8.14644 4.42791C8.2062 4.00257 8.57505 3.6942 9.00651 3.70698L11.7778 3.80488C12.1961 3.81845 12.5671 3.683 12.8785 3.40279L14.9373 1.54818C15.2575 1.26143 15.7405 1.26131 16.0608 1.54794L18.12 3.40297C18.4312 3.683 18.8011 3.81941 19.2217 3.80482L21.9911 3.70704C22.4213 3.69099 22.7921 4.00257 22.8518 4.42773L23.2365 7.17565C23.2969 7.59155 23.4946 7.93255 23.8237 8.18866L26.0067 9.89469C26.3466 10.1604 26.4307 10.6356 26.2022 11.0004L24.7331 13.35C24.511 13.7054 24.4425 14.094 24.5297 14.5053L24.5296 14.5053ZM22.008 8.03554C21.9713 7.94514 21.8997 7.87333 21.8094 7.83634C21.7191 7.79928 21.6176 7.80019 21.5281 7.83894C21.42 7.88556 21.3021 7.9386 21.1762 7.99515C20.2994 8.38943 18.9743 8.98527 18.199 8.59759C17.3206 8.15699 16.3674 8.22329 15.5942 8.74944C14.8191 8.22141 13.8673 8.16032 12.9935 8.59578C11.8686 9.09559 10.8271 8.54467 9.98979 8.10183C9.80912 8.00623 9.63844 7.91602 9.47793 7.84233C9.38789 7.80104 9.2849 7.79819 9.19287 7.83482C9.10078 7.87133 9.02764 7.94381 8.99034 8.03554L7.2363 12.3503C7.16207 12.5329 7.24708 12.7413 7.42775 12.8199C7.94754 13.0461 9.27304 13.6229 9.79392 14.4019L9.37294 15.1135C9.20589 15.3957 9.15915 15.7264 9.24131 16.0445C9.32359 16.3633 9.52509 16.6306 9.8087 16.7973C9.81251 16.7995 9.81638 16.8017 9.82032 16.8038C10.0139 16.9081 10.2234 16.9587 10.4298 16.9612C10.4066 17.1208 10.415 17.2851 10.4566 17.4463C10.539 17.7655 10.7404 18.033 11.0254 18.2004C11.2196 18.3132 11.4326 18.3669 11.6433 18.3669C11.8363 18.3669 12.0271 18.3214 12.1996 18.2354C12.3016 18.4311 12.4613 18.5904 12.6488 18.7012C12.8562 18.8237 13.1047 18.8909 13.355 18.8909C13.5726 18.8909 13.7912 18.8395 13.9853 18.7302C14.0906 18.9388 14.2527 19.1137 14.4597 19.2353C14.6547 19.3486 14.8684 19.4024 15.0794 19.4024C15.4027 19.4024 15.7195 19.2757 15.9532 19.0431L16.2997 19.2465C16.4905 19.3586 16.7033 19.4159 16.9195 19.4159C17.0238 19.4159 17.1289 19.4025 17.2326 19.3755C17.5512 19.2927 17.8181 19.0913 17.9843 18.8084C18.0869 18.6337 18.1406 18.442 18.1495 18.2499C18.6594 18.3639 19.1998 18.1434 19.4775 17.6706C19.6019 17.4587 19.6556 17.2246 19.6456 16.9957H19.6601C20.0825 16.9957 20.4945 16.7784 20.7235 16.3885C20.8949 16.0968 20.9319 15.7626 20.8535 15.4582C21.1707 15.3748 21.4366 15.1738 21.6022 14.892C21.8127 14.534 21.8207 14.0819 21.6528 13.7243L23.5808 12.8155C23.7552 12.7333 23.8349 12.5291 23.7623 12.3504L22.0082 8.0356L22.008 8.03554ZM9.94408 15.863C9.91053 15.733 9.92955 15.5981 9.9976 15.4832L10.719 14.2636C10.8603 14.0232 11.1723 13.9421 11.4148 14.083C11.4178 14.0847 11.4209 14.0865 11.424 14.0882C11.571 14.1678 11.6316 14.2921 11.6566 14.3822C11.6928 14.5128 11.6767 14.6525 11.6135 14.7688C11.613 14.7696 11.6124 14.7703 11.612 14.7711L10.8944 15.9924C10.8915 15.9967 10.8884 16.0009 10.8858 16.0054C10.7432 16.2488 10.3964 16.2857 10.1705 16.1678C10.0575 16.0995 9.97726 15.9915 9.94408 15.863ZM11.3914 17.5735C11.2756 17.5054 11.1932 17.3958 11.1593 17.2648C11.1256 17.1342 11.1445 16.9988 11.2133 16.8826L12.2198 15.1696C12.2235 15.1641 12.2273 15.1588 12.2307 15.1531C12.2337 15.148 12.2359 15.1426 12.2388 15.1376C12.3334 14.9787 12.5027 14.8902 12.676 14.8902C12.7628 14.8902 12.8505 14.9124 12.9304 14.959C13.0461 15.027 13.1286 15.1366 13.1627 15.2676C13.1968 15.3986 13.1781 15.5343 13.1103 15.6498L12.0862 17.3909C11.9439 17.6315 11.6316 17.713 11.3914 17.5735ZM13.0177 18.076C12.8508 17.9775 12.6979 17.7819 12.9172 17.4101C12.9175 17.4097 12.9177 17.4092 12.918 17.4088L13.7307 16.0271C13.7329 16.0235 13.7354 16.0203 13.7376 16.0166C13.9875 15.5931 14.3975 15.8185 14.4434 15.8455C14.5159 15.8883 14.8652 16.1218 14.6278 16.5247L14.0254 17.5459C14.0245 17.5473 14.0234 17.5486 14.0226 17.5501C14.0215 17.5517 14.0208 17.5536 14.0198 17.5553L13.8008 17.9265C13.6178 18.2359 13.2254 18.1988 13.0177 18.0761L13.0177 18.076ZM14.8257 18.6084C14.7096 18.5402 14.6271 18.4305 14.5934 18.2993C14.5605 18.1714 14.5785 18.0395 14.6435 17.9267L15.2531 16.8934C15.2552 16.89 15.2569 16.8865 15.2589 16.883C15.2605 16.8805 15.2623 16.8782 15.2637 16.8757L15.4021 16.6399C15.5447 16.3989 15.8568 16.3173 16.0975 16.4577C16.2133 16.5255 16.2958 16.6348 16.3297 16.7654C16.3636 16.8958 16.3449 17.0309 16.2772 17.1456L15.5198 18.4268C15.3786 18.6673 15.0664 18.7482 14.8256 18.6084L14.8257 18.6084ZM17.358 18.4406C17.29 18.5563 17.1805 18.6387 17.0495 18.6729C16.9185 18.7069 16.7828 18.6883 16.667 18.6203L16.3565 18.4382L16.8708 17.5683L17.1936 17.7585C17.4203 17.9034 17.4941 18.2089 17.358 18.4406L17.358 18.4406ZM20.976 14.524C20.908 14.6397 20.7984 14.7222 20.6674 14.7563C20.5366 14.7904 20.4008 14.7718 20.2852 14.7039C20.2852 14.7039 20.2852 14.7039 20.2851 14.7039L17.9029 13.3051C17.73 13.2036 17.5076 13.2614 17.4061 13.4343C17.3045 13.6071 17.3624 13.8296 17.5353 13.9311L19.9175 15.3299C20.1575 15.4711 20.2381 15.7809 20.0972 16.0207C19.9561 16.2608 19.6463 16.3415 19.4056 16.2001L19.0394 15.9862C19.0394 15.9862 19.0391 15.986 19.039 15.9859L16.3719 14.4206C16.1988 14.319 15.9765 14.3771 15.8751 14.55C15.7736 14.7229 15.8315 14.9453 16.0044 15.0468L18.6715 16.6121C18.6715 16.6121 18.6716 16.6121 18.6717 16.6121C18.9116 16.7533 18.9921 17.063 18.8512 17.3028C18.7152 17.5344 18.4116 17.619 18.1763 17.4924C18.0463 17.4215 17.9093 17.3395 17.7768 17.2603C17.7078 17.219 17.639 17.1779 17.5711 17.1382C17.5709 17.1381 17.5706 17.1379 17.5704 17.1377L17.0707 16.8434C17.0671 16.7564 17.0549 16.6692 17.0325 16.5828C16.9497 16.264 16.7479 15.9971 16.4638 15.8309C16.1046 15.6214 15.681 15.6156 15.3271 15.7773C15.2172 15.5448 15.033 15.3504 14.8122 15.2201C14.529 15.0532 14.1834 14.9876 13.8599 15.0671C13.7775 14.7692 13.5845 14.5013 13.2972 14.3325C13.0033 14.1611 12.6664 14.1255 12.3602 14.2063C12.3586 14.2004 12.3578 14.1942 12.3562 14.1883C12.2682 13.871 12.0619 13.6098 11.7749 13.4526C11.244 13.1471 10.5767 13.2821 10.2017 13.7421C9.67022 13.1237 8.82541 12.658 8.04091 12.2985L9.51504 8.67219C9.5593 8.69544 9.60447 8.71929 9.65024 8.74351C10.5248 9.20615 11.8463 9.90522 13.297 9.25525C13.3019 9.25307 13.3067 9.25077 13.3115 9.24841C13.888 8.959 14.4899 8.9619 15.0141 9.24502C14.0776 10.0583 13.1829 10.6889 12.3532 11.1196C12.1756 11.2117 12.1061 11.4302 12.1978 11.608C12.642 12.4697 13.6055 13.2846 15.6721 12.2763C16.5522 11.8752 17.4771 11.9296 18.4215 12.4378C18.685 12.5925 18.9686 12.7435 19.2429 12.8896C19.8105 13.192 20.3975 13.5047 20.8577 13.8737C20.8703 13.8839 20.8839 13.8922 20.8976 13.9005C20.9038 13.9071 20.9089 13.9144 20.9158 13.9206C21.0604 14.0506 21.0886 14.3325 20.976 14.524ZM21.1299 13.168C20.6563 12.8201 20.1123 12.5304 19.5842 12.249C19.302 12.0987 19.0355 11.9567 18.7835 11.8086C18.7797 11.8063 18.7759 11.8042 18.772 11.8021C18.1293 11.4552 17.4909 11.2816 16.8617 11.2816C16.3562 11.2816 15.8567 11.3937 15.3661 11.618C15.3633 11.6193 15.3605 11.6206 15.3577 11.622C13.9964 12.2874 13.3696 11.998 13.0334 11.5758C13.8532 11.1091 14.7221 10.4723 15.6217 9.67848C15.63 9.67115 15.638 9.6634 15.6457 9.65528C16.2483 9.01597 17.1022 8.85958 17.8738 9.24672C17.874 9.24672 17.8741 9.2469 17.8743 9.24696C18.9578 9.78867 20.4719 9.10776 21.4739 8.65729C21.4748 8.65687 21.4757 8.65644 21.4766 8.65602L22.9601 12.3052L21.13 13.1679L21.1299 13.168Z" fill="white"/>
</svg>
