<svg width="32" height="33" viewBox="0 0 32 33" fill="none" xmlns="http://www.w3.org/2000/svg">
<path fill-rule="evenodd" clip-rule="evenodd" d="M22.8509 32.9999H9.12858C8.21001 32.9999 7.44141 32.2073 7.44141 31.26V24.0685C7.44141 23.1212 8.21001 22.3479 9.12858 22.3479H22.8509C23.7882 22.3479 24.5381 23.1212 24.5381 24.0685V31.26C24.5381 32.2073 23.7882 32.9999 22.8509 32.9999ZM9.12858 23.1212C8.62243 23.1212 8.19126 23.5465 8.19126 24.0685V31.26C8.19126 31.782 8.62243 32.2266 9.12858 32.2266H22.8509C23.3758 32.2266 23.7882 31.782 23.7882 31.26V24.0685C23.7882 23.5465 23.3758 23.1212 22.8509 23.1212H9.12858Z" fill="white"/>
<path fill-rule="evenodd" clip-rule="evenodd" d="M11.8645 27.761C10.9084 27.761 10.1211 26.9491 10.1211 25.9631C10.1211 24.9772 10.9084 24.1846 11.8645 24.1846C12.8206 24.1846 13.5892 24.9772 13.5892 25.9631C13.5892 26.9491 12.8206 27.761 11.8645 27.761ZM11.8645 24.9579C11.3209 24.9579 10.8709 25.4025 10.8709 25.9631C10.8709 26.5238 11.3209 26.9877 11.8645 26.9877C12.4081 26.9877 12.8393 26.5238 12.8393 25.9631C12.8393 25.4025 12.4081 24.9579 11.8645 24.9579Z" fill="white"/>
<path fill-rule="evenodd" clip-rule="evenodd" d="M20.134 27.761C19.178 27.761 18.3906 26.9491 18.3906 25.9631C18.3906 24.9772 19.178 24.1846 20.134 24.1846C21.0901 24.1846 21.8774 24.9772 21.8774 25.9631C21.8774 26.9491 21.0901 27.761 20.134 27.761ZM20.134 24.9579C19.5904 24.9579 19.1405 25.4025 19.1405 25.9631C19.1405 26.5238 19.5904 26.9877 20.134 26.9877C20.6777 26.9877 21.1276 26.5238 21.1276 25.9631C21.1276 25.4025 20.6777 24.9579 20.134 24.9579Z" fill="white"/>
<path fill-rule="evenodd" clip-rule="evenodd" d="M17.6584 31.1634H14.3403C13.5155 31.1634 12.8594 30.4674 12.8594 29.6361C12.8594 28.8048 13.5155 28.1089 14.3403 28.1089H17.6584C18.4645 28.1089 19.1394 28.8048 19.1394 29.6361C19.1394 30.4674 18.4645 31.1634 17.6584 31.1634ZM14.3403 28.8822C13.9279 28.8822 13.6092 29.2302 13.6092 29.6361C13.6092 30.0421 13.9279 30.3901 14.3403 30.3901H17.6584C18.0521 30.3901 18.3895 30.0421 18.3895 29.6361C18.3895 29.2302 18.0521 28.8822 17.6584 28.8822H14.3403Z" fill="white"/>
<path fill-rule="evenodd" clip-rule="evenodd" d="M7.81741 30.0421H6.18648C5.51161 30.0421 4.94922 29.4815 4.94922 28.7662V26.7557C4.94922 26.0404 5.51161 25.4797 6.18648 25.4797H7.81741C8.02362 25.4797 8.19234 25.6537 8.19234 25.8664C8.19234 26.079 8.02362 26.253 7.81741 26.253H6.18648C5.92403 26.253 5.69907 26.4657 5.69907 26.7557V28.7662C5.69907 29.0562 5.92403 29.2688 6.18648 29.2688H7.81741C8.02362 29.2688 8.19234 29.4428 8.19234 29.6555C8.19234 29.8681 8.02362 30.0421 7.81741 30.0421Z" fill="white"/>
<path fill-rule="evenodd" clip-rule="evenodd" d="M25.7949 30.0421H24.164C23.9578 30.0421 23.7891 29.8681 23.7891 29.6555C23.7891 29.4428 23.9578 29.2688 24.164 29.2688H25.7949C26.0761 29.2688 26.3011 29.0562 26.3011 28.7662V26.7557C26.3011 26.4657 26.0761 26.253 25.7949 26.253H24.164C23.9578 26.253 23.7891 26.079 23.7891 25.8664C23.7891 25.6537 23.9578 25.4797 24.164 25.4797H25.7949C26.4885 25.4797 27.0509 26.0404 27.0509 26.7557V28.7662C27.0509 29.4815 26.4885 30.0421 25.7949 30.0421Z" fill="white"/>
<path fill-rule="evenodd" clip-rule="evenodd" d="M6.18743 26.2337C5.98122 26.2337 5.8125 26.0597 5.8125 25.847V21.6906C5.8125 21.4779 5.98122 21.304 6.18743 21.304C6.39364 21.304 6.56235 21.4779 6.56235 21.6906V25.847C6.56235 26.079 6.39364 26.2337 6.18743 26.2337Z" fill="white"/>
<path fill-rule="evenodd" clip-rule="evenodd" d="M6.1856 22.0774C5.22954 22.0774 4.46094 21.2655 4.46094 20.2795C4.46094 19.2936 5.22954 18.501 6.1856 18.501C7.14166 18.501 7.92901 19.2936 7.92901 20.2795C7.92901 21.2655 7.14166 22.0774 6.1856 22.0774ZM6.1856 19.2743C5.64196 19.2743 5.21079 19.7189 5.21079 20.2795C5.21079 20.8402 5.64196 21.3041 6.1856 21.3041C6.72924 21.3041 7.17916 20.8402 7.17916 20.2795C7.17916 19.7189 6.72924 19.2743 6.1856 19.2743Z" fill="white"/>
<path fill-rule="evenodd" clip-rule="evenodd" d="M25.7929 26.2337C25.5867 26.2337 25.418 26.0597 25.418 25.847V21.6906C25.418 21.4779 25.5867 21.304 25.7929 21.304C25.9991 21.304 26.1678 21.4779 26.1678 21.6906V25.847C26.1678 26.079 25.9991 26.2337 25.7929 26.2337Z" fill="white"/>
<path fill-rule="evenodd" clip-rule="evenodd" d="M25.795 22.0774C24.8389 22.0774 24.0703 21.2655 24.0703 20.2795C24.0703 19.2936 24.8389 18.501 25.795 18.501C26.751 18.501 27.5384 19.2936 27.5384 20.2795C27.5384 21.2655 26.751 22.0774 25.795 22.0774ZM25.795 19.2743C25.2513 19.2743 24.8202 19.7189 24.8202 20.2795C24.8202 20.8402 25.2513 21.3041 25.795 21.3041C26.3386 21.3041 26.7885 20.8402 26.7885 20.2795C26.7885 19.7189 26.3386 19.2743 25.795 19.2743Z" fill="white"/>
<path fill-rule="evenodd" clip-rule="evenodd" d="M15.9882 23.1212C15.782 23.1212 15.6133 22.9472 15.6133 22.7346V19.5834C15.6133 19.3708 15.782 19.1968 15.9882 19.1968C16.1944 19.1968 16.3631 19.3708 16.3631 19.5834V22.7346C16.3631 22.9472 16.1944 23.1212 15.9882 23.1212Z" fill="white"/>
<path fill-rule="evenodd" clip-rule="evenodd" d="M15.9903 19.97C15.0342 19.97 14.2656 19.1774 14.2656 18.1914C14.2656 17.2055 15.0342 16.3936 15.9903 16.3936C16.9464 16.3936 17.7337 17.2055 17.7337 18.1914C17.7337 19.1774 16.9464 19.97 15.9903 19.97ZM15.9903 17.1668C15.4466 17.1668 15.0155 17.6308 15.0155 18.1914C15.0155 18.7521 15.4466 19.2161 15.9903 19.2161C16.5339 19.2161 16.9838 18.7521 16.9838 18.1914C16.9838 17.6308 16.5339 17.1668 15.9903 17.1668Z" fill="white"/>
<path fill-rule="evenodd" clip-rule="evenodd" d="M15.9907 15.8717C11.754 15.8717 8.30469 12.3146 8.30469 7.92619C8.30469 3.55712 11.754 0 15.9907 0C20.2461 0 23.6954 3.55712 23.6954 7.92619C23.6954 12.3146 20.2461 15.8717 15.9907 15.8717ZM15.9907 0.773287C12.1664 0.773287 9.05454 3.98243 9.05454 7.92619C9.05454 11.8893 12.1664 15.0984 15.9907 15.0984C19.8337 15.0984 22.9456 11.8893 22.9456 7.92619C22.9456 3.98243 19.8149 0.773287 15.9907 0.773287Z" fill="white"/>
<path fill-rule="evenodd" clip-rule="evenodd" d="M15.9894 14.3637C12.5588 14.3637 9.76562 11.4832 9.76562 7.92609C9.76562 4.3883 12.5588 1.50781 15.9894 1.50781C19.4387 1.50781 22.2319 4.3883 22.2319 7.92609C22.2319 11.4832 19.4387 14.3637 15.9894 14.3637ZM15.9894 2.2811C12.9712 2.2811 10.5155 4.81361 10.5155 7.92609C10.5155 11.0579 12.9712 13.5904 15.9894 13.5904C19.0263 13.5904 21.4821 11.0579 21.4821 7.92609C21.4821 4.81361 19.0263 2.2811 15.9894 2.2811Z" fill="white"/>
<path fill-rule="evenodd" clip-rule="evenodd" d="M14.0198 10.8261C13.9636 10.8261 13.8886 10.8261 13.8136 10.8067C13.5137 10.7294 13.27 10.5554 13.1388 10.2654L12.3514 8.64152C12.2389 8.40954 12.2202 8.11956 12.3139 7.86824C12.3889 7.61692 12.5576 7.40427 12.8013 7.28827C13.2887 7.03695 13.8699 7.24961 14.1136 7.73291L14.376 8.25488L18.1628 5.23906C18.369 5.08441 18.6127 5.00708 18.8751 5.04574C19.1376 5.08441 19.3625 5.21973 19.5313 5.43238C19.6812 5.64504 19.7562 5.91569 19.7187 6.16701C19.7 6.43766 19.5688 6.68898 19.3625 6.84363L14.6197 10.6134C14.451 10.7681 14.2448 10.8261 14.0198 10.8261ZM13.2325 7.9649C13.195 7.9649 13.1575 7.9649 13.1388 7.98423C13.0825 8.00356 13.045 8.06156 13.0263 8.11956C12.9888 8.17755 13.0075 8.23555 13.0263 8.29355L13.8136 9.91745C13.8511 9.99478 13.9074 10.0334 13.9823 10.0528C14.0573 10.0721 14.1136 10.0528 14.1698 10.0141L18.8939 6.24434C18.9501 6.20567 18.9689 6.14767 18.9876 6.07035C18.9876 6.01235 18.9689 5.95435 18.9314 5.89636C18.8939 5.85769 18.8564 5.81903 18.7814 5.81903C18.7252 5.7997 18.6689 5.81903 18.6127 5.85769L14.4697 9.16349C14.376 9.24082 14.2635 9.26015 14.1511 9.24082C14.0386 9.20216 13.9449 9.14416 13.9074 9.02817L13.4387 8.08089C13.4012 8.00356 13.3262 7.9649 13.2325 7.9649Z" fill="white"/>
</svg>
