<svg width="28" height="23" viewBox="0 0 28 23" fill="none" xmlns="http://www.w3.org/2000/svg">
<path d="M25.7578 0H2.24219C1.64773 0.000680281 1.07782 0.237129 0.657473 0.657473C0.237129 1.07782 0.000680281 1.64773 0 2.24219L0 20.1086C0.000680281 20.703 0.237129 21.273 0.657473 21.6933C1.07782 22.1137 1.64773 22.3501 2.24219 22.3508H25.7578C26.3523 22.3501 26.9222 22.1137 27.3425 21.6933C27.7629 21.273 27.9993 20.703 28 20.1086V2.24219C27.9993 1.64773 27.7629 1.07782 27.3425 0.657473C26.9222 0.237129 26.3523 0.000680281 25.7578 0ZM25.7578 21.8039H2.24219C1.79272 21.8034 1.3618 21.6246 1.04398 21.3068C0.726157 20.989 0.547382 20.5581 0.546875 20.1086V5.57955H27.4531V20.1084C27.4526 20.5578 27.2738 20.9888 26.956 21.3066C26.6382 21.6244 26.2073 21.8032 25.7578 21.8037V21.8039ZM27.4531 5.03289H0.546875V2.24219C0.547382 1.79272 0.726157 1.3618 1.04398 1.04398C1.3618 0.726157 1.79272 0.547382 2.24219 0.546875H25.7578C26.2073 0.547382 26.6382 0.726157 26.956 1.04398C27.2738 1.3618 27.4526 1.79272 27.4531 2.24219V5.03289ZM3.16734 1.6263C2.93722 1.6263 2.71228 1.69453 2.52094 1.82238C2.32961 1.95022 2.18048 2.13193 2.09242 2.34453C2.00436 2.55713 1.98132 2.79106 2.02622 3.01676C2.07111 3.24245 2.18192 3.44976 2.34463 3.61248C2.50735 3.77519 2.71466 3.886 2.94035 3.93089C3.16605 3.97579 3.39998 3.95275 3.61258 3.86469C3.82518 3.77662 4.00689 3.6275 4.13473 3.43617C4.26258 3.24483 4.33081 3.01989 4.33081 2.78977C4.33045 2.48131 4.20775 2.18559 3.98964 1.96747C3.77152 1.74935 3.4758 1.62666 3.16734 1.6263ZM3.16734 3.40638C3.04538 3.40638 2.92617 3.37021 2.82477 3.30246C2.72337 3.23471 2.64434 3.13841 2.59767 3.02574C2.551 2.91307 2.53879 2.78909 2.56258 2.66948C2.58637 2.54987 2.6451 2.44 2.73133 2.35377C2.81757 2.26754 2.92743 2.20881 3.04704 2.18502C3.16665 2.16123 3.29063 2.17344 3.4033 2.22011C3.51597 2.26678 3.61227 2.34581 3.68002 2.44721C3.74777 2.54861 3.78394 2.66782 3.78394 2.78977C3.78375 2.95325 3.71873 3.10997 3.60313 3.22557C3.48754 3.34116 3.33081 3.40619 3.16734 3.40638ZM6.18576 1.6263C5.95565 1.62631 5.73071 1.69455 5.53938 1.8224C5.34805 1.95026 5.19894 2.13197 5.11088 2.34457C5.02283 2.55717 4.9998 2.7911 5.0447 3.01679C5.0896 3.24248 5.20041 3.44979 5.36313 3.61249C5.52585 3.7752 5.73316 3.88601 5.95885 3.9309C6.18454 3.97579 6.41847 3.95274 6.63107 3.86468C6.84366 3.77662 7.02537 3.62749 7.15321 3.43616C7.28105 3.24483 7.34929 3.01989 7.34929 2.78977C7.34893 2.4813 7.22622 2.18557 7.0081 1.96745C6.78997 1.74933 6.49423 1.62664 6.18576 1.6263ZM6.18576 3.40638C6.06381 3.40636 5.9446 3.37019 5.84321 3.30243C5.74182 3.23467 5.66279 3.13837 5.61613 3.0257C5.56947 2.91303 5.55727 2.78905 5.58107 2.66945C5.60486 2.54984 5.66359 2.43998 5.74983 2.35375C5.83606 2.26752 5.94593 2.2088 6.06554 2.18502C6.18515 2.16123 6.30912 2.17344 6.42179 2.22011C6.53445 2.26678 6.63075 2.34581 6.6985 2.44721C6.76625 2.54861 6.80241 2.66782 6.80241 2.78977C6.80223 2.95326 6.73719 3.10999 6.62159 3.22559C6.50598 3.34118 6.34924 3.4062 6.18576 3.40638ZM9.20451 1.6263C8.97439 1.6263 8.74945 1.69453 8.55812 1.82238C8.36678 1.95022 8.21766 2.13193 8.12959 2.34453C8.04153 2.55713 8.01849 2.79106 8.06339 3.01676C8.10828 3.24245 8.21909 3.44976 8.38181 3.61248C8.54452 3.77519 8.75183 3.886 8.97752 3.93089C9.20322 3.97579 9.43715 3.95275 9.64975 3.86469C9.86235 3.77662 10.0441 3.6275 10.1719 3.43617C10.2997 3.24483 10.368 3.01989 10.368 2.78977C10.3676 2.48127 10.2449 2.18552 10.0267 1.96739C9.80857 1.74927 9.51279 1.6266 9.20429 1.6263H9.20451ZM9.20451 3.40638C9.08256 3.40638 8.96334 3.37021 8.86194 3.30246C8.76054 3.23471 8.68151 3.13841 8.63484 3.02574C8.58817 2.91307 8.57596 2.78909 8.59975 2.66948C8.62355 2.54987 8.68227 2.44 8.7685 2.35377C8.85474 2.26754 8.96461 2.20881 9.08422 2.18502C9.20382 2.16123 9.3278 2.17344 9.44047 2.22011C9.55314 2.26678 9.64944 2.34581 9.71719 2.44721C9.78495 2.54861 9.82111 2.66782 9.82111 2.78977C9.82091 2.95328 9.75585 3.11003 9.64021 3.22563C9.52457 3.34123 9.3678 3.40623 9.20429 3.40638H9.20451ZM25.3399 1.61399H14.5059C14.3319 1.61418 14.1651 1.68338 14.0421 1.80641C13.9191 1.92944 13.8499 2.09625 13.8497 2.27024V3.3093C13.8499 3.4833 13.9191 3.65011 14.0421 3.77314C14.1651 3.89617 14.3319 3.96537 14.5059 3.96555H25.3399C25.5139 3.96537 25.6807 3.89617 25.8037 3.77314C25.9268 3.65011 25.996 3.4833 25.9961 3.3093V2.27024C25.996 2.09625 25.9268 1.92944 25.8037 1.80641C25.6807 1.68338 25.5139 1.61418 25.3399 1.61399ZM25.4493 3.3093C25.4493 3.33831 25.4377 3.36613 25.4172 3.38664C25.3967 3.40716 25.3689 3.41868 25.3399 3.41868H14.5059C14.4769 3.41868 14.4491 3.40716 14.4286 3.38664C14.4081 3.36613 14.3965 3.33831 14.3965 3.3093V2.27024C14.3965 2.24123 14.4081 2.21341 14.4286 2.1929C14.4491 2.17239 14.4769 2.16087 14.5059 2.16087H25.3399C25.3689 2.16087 25.3967 2.17239 25.4172 2.1929C25.4377 2.21341 25.4493 2.24123 25.4493 2.27024V3.3093ZM20.8836 12.4981L19.5453 12.261C19.4119 11.7417 19.2056 11.2439 18.9325 10.7825L19.7116 9.66798C19.7484 9.61532 19.7655 9.55138 19.7598 9.48738C19.7542 9.42338 19.7262 9.3634 19.6808 9.31798L18.3737 8.01095C18.3283 7.96552 18.2683 7.93753 18.2043 7.9319C18.1403 7.92627 18.0764 7.94336 18.0237 7.98016L16.9094 8.75924C16.4479 8.48629 15.9501 8.28007 15.4308 8.14674L15.1937 6.80827C15.1825 6.74499 15.1494 6.68769 15.1001 6.64641C15.0509 6.60513 14.9887 6.58251 14.9244 6.58252H13.0758C13.0115 6.58251 12.9493 6.60513 12.9001 6.64641C12.8508 6.68769 12.8177 6.74499 12.8065 6.80827L12.5694 8.14674C12.0501 8.28007 11.5523 8.48629 11.0908 8.75924L9.97637 7.98027C9.92373 7.94341 9.85978 7.92628 9.79576 7.93191C9.73174 7.93755 9.67176 7.96557 9.62637 8.01106L8.31934 9.31809C8.2739 9.36351 8.2459 9.42348 8.24026 9.48748C8.23462 9.55148 8.2517 9.61543 8.28849 9.66809L9.06757 10.7826C8.79458 11.244 8.58836 11.7418 8.45507 12.2612L7.11654 12.4982C7.05326 12.5094 6.99593 12.5425 6.95462 12.5917C6.91331 12.6409 6.89065 12.7031 6.89062 12.7674V14.6158C6.89062 14.6801 6.91324 14.7423 6.95452 14.7915C6.9958 14.8408 7.0531 14.8739 7.11638 14.8851L8.45491 15.1222C8.58821 15.6415 8.79443 16.1393 9.06741 16.6008L8.28838 17.7153C8.25157 17.7679 8.23448 17.8318 8.2401 17.8958C8.24572 17.9598 8.27369 18.0198 8.31912 18.0653L9.62615 19.3723C9.67159 19.4177 9.73157 19.4457 9.79557 19.4513C9.85957 19.4569 9.9235 19.4398 9.97615 19.403L11.0906 18.6237C11.5521 18.8967 12.0499 19.1029 12.5692 19.2362L12.8063 20.5747C12.8175 20.638 12.8507 20.6953 12.8999 20.7366C12.9492 20.7779 13.0114 20.8005 13.0756 20.8005H14.9241C14.9883 20.8005 15.0505 20.7779 15.0998 20.7366C15.149 20.6953 15.1821 20.638 15.1933 20.5747L15.4305 19.2362C15.9499 19.1029 16.4478 18.8967 16.9094 18.6237L18.0239 19.4027C18.0765 19.4395 18.1404 19.4566 18.2044 19.451C18.2684 19.4454 18.3284 19.4174 18.3739 19.372L19.6809 18.0649C19.7263 18.0195 19.7543 17.9595 19.7599 17.8955C19.7656 17.8315 19.7485 17.7676 19.7117 17.7149L18.9326 16.6004C19.2057 16.1391 19.4119 15.6414 19.5453 15.1222L20.8838 14.8851C20.9471 14.8738 21.0043 14.8407 21.0456 14.7914C21.0868 14.7422 21.1094 14.68 21.1094 14.6158V12.7673C21.1094 12.7031 21.0867 12.6409 21.0455 12.5917C21.0042 12.5424 20.9469 12.5093 20.8836 12.4981ZM20.5625 14.3865L19.2734 14.6151C19.2203 14.6245 19.1711 14.6495 19.1321 14.6868C19.0931 14.7241 19.066 14.7721 19.0542 14.8248C18.9246 15.4065 18.6948 15.9611 18.375 16.464C18.3461 16.5096 18.3313 16.5627 18.3325 16.6166C18.3337 16.6706 18.3508 16.723 18.3817 16.7672L19.132 17.8406L18.1492 18.8234L17.0756 18.0731C17.0314 18.0422 16.979 18.0251 16.925 18.0239C16.8711 18.0227 16.8179 18.0375 16.7724 18.0664C16.2695 18.3863 15.7147 18.6162 15.133 18.7458C15.0803 18.7576 15.0323 18.7847 14.995 18.8237C14.9577 18.8626 14.9327 18.9118 14.9233 18.965L14.6949 20.2541H13.3051L13.0767 18.965C13.0673 18.9118 13.0423 18.8626 13.005 18.8237C12.9677 18.7847 12.9197 18.7576 12.867 18.7458C12.2852 18.6162 11.7305 18.3863 11.2276 18.0664C11.1821 18.0375 11.1289 18.0227 11.075 18.0239C11.021 18.0251 10.9686 18.0422 10.9244 18.0731L9.85102 18.8234L8.86823 17.8406L9.61849 16.7672C9.64942 16.723 9.66656 16.6706 9.66776 16.6166C9.66895 16.5627 9.65415 16.5096 9.62522 16.464C9.30535 15.9611 9.07544 15.4063 8.94578 14.8246C8.93402 14.7719 8.90693 14.7239 8.86793 14.6866C8.82892 14.6493 8.77975 14.6243 8.72659 14.6149L7.4375 14.3865V12.9967L8.72659 12.7683C8.77975 12.7589 8.82893 12.734 8.86794 12.6966C8.90695 12.6593 8.93403 12.6113 8.94578 12.5586C9.0754 11.9769 9.30523 11.4222 9.625 10.9192C9.65394 10.8737 9.66875 10.8206 9.66756 10.7666C9.66638 10.7126 9.64925 10.6602 9.61833 10.616L8.86802 9.54264L9.8508 8.55985L10.9242 9.31011C10.9684 9.34104 11.0208 9.35818 11.0748 9.35937C11.1287 9.36057 11.1818 9.34577 11.2274 9.31684C11.7303 8.99695 12.285 8.76704 12.8668 8.6374C12.9195 8.62565 12.9675 8.59856 13.0048 8.55956C13.0421 8.52055 13.0671 8.47137 13.0765 8.41821L13.3049 7.12912H14.6947L14.9231 8.41821C14.9325 8.47137 14.9574 8.52055 14.9948 8.55956C15.0321 8.59856 15.0801 8.62565 15.1328 8.6374C15.7147 8.76699 16.2696 8.9969 16.7727 9.31684C16.8182 9.34577 16.8713 9.36057 16.9253 9.35937C16.9793 9.35818 17.0317 9.34104 17.0759 9.31011L18.1493 8.55985L19.132 9.54264L18.3817 10.616C18.3508 10.6602 18.3337 10.7126 18.3325 10.7666C18.3313 10.8206 18.3461 10.8737 18.3751 10.9192C18.6948 11.4222 18.9247 11.9771 19.0542 12.5589C19.066 12.6116 19.0931 12.6596 19.1321 12.6969C19.1711 12.7342 19.2202 12.7592 19.2734 12.7686L20.5625 12.9967V14.3865ZM14 9.59044C13.1889 9.59043 12.396 9.83094 11.7216 10.2816C11.0472 10.7322 10.5215 11.3727 10.2111 12.122C9.90071 12.8714 9.81949 13.696 9.97772 14.4915C10.136 15.287 10.5265 16.0177 11.1001 16.5913C11.6736 17.1648 12.4043 17.5554 13.1999 17.7137C13.9954 17.8719 14.82 17.7907 15.5693 17.4803C16.3187 17.1699 16.9592 16.6443 17.4098 15.9699C17.8604 15.2955 18.101 14.5026 18.101 13.6915C18.0997 12.6042 17.6672 11.5619 16.8984 10.7931C16.1296 10.0243 15.0872 9.59183 14 9.5906V9.59044ZM14 17.2456C13.2971 17.2456 12.6099 17.0372 12.0254 16.6466C11.4409 16.2561 10.9854 15.701 10.7164 15.0516C10.4474 14.4022 10.377 13.6875 10.5141 12.9981C10.6512 12.3087 10.9897 11.6754 11.4868 11.1783C11.9838 10.6813 12.6171 10.3428 13.3065 10.2056C13.996 10.0685 14.7106 10.1388 15.36 10.4079C16.0095 10.6769 16.5646 11.1324 16.9551 11.7169C17.3456 12.3013 17.5541 12.9885 17.5541 13.6915C17.553 14.6337 17.1782 15.5371 16.512 16.2034C15.8457 16.8697 14.9423 17.2445 14 17.2456ZM14 10.9135C13.4554 10.9131 12.9228 11.0729 12.4683 11.373C12.0139 11.6731 11.6578 12.1002 11.4443 12.6012C11.2308 13.1022 11.1694 13.6549 11.2678 14.1905C11.3661 14.7261 11.6198 15.221 11.9973 15.6135C12.0093 15.6292 12.0231 15.6435 12.0382 15.6562C12.2958 15.914 12.6016 16.1185 12.9382 16.2581C13.2749 16.3976 13.6357 16.4694 14.0001 16.4694C14.3645 16.4694 14.7254 16.3976 15.062 16.2581C15.3986 16.1185 15.7045 15.914 15.962 15.6562C15.977 15.6436 15.9906 15.6293 16.0026 15.6138C16.3802 15.2213 16.6339 14.7264 16.7323 14.1908C16.8307 13.6552 16.7693 13.1024 16.5558 12.6014C16.3423 12.1004 15.9862 11.6732 15.5317 11.3731C15.0773 11.0731 14.5446 10.9133 14 10.9137V10.9135ZM12.5392 15.3756C12.668 15.0966 12.874 14.8603 13.1329 14.6947C13.3918 14.5291 13.6927 14.4411 14 14.4411C14.3073 14.4411 14.6082 14.5291 14.8671 14.6947C15.126 14.8603 15.332 15.0966 15.4608 15.3756C15.0558 15.7282 14.537 15.9225 14 15.9225C13.463 15.9225 12.9442 15.7282 12.5392 15.3756ZM13.3496 13.2438C13.3496 13.1152 13.3878 12.9895 13.4593 12.8825C13.5308 12.7756 13.6324 12.6923 13.7512 12.6431C13.8701 12.5939 14.0008 12.581 14.127 12.6061C14.2531 12.6312 14.369 12.6932 14.46 12.7842C14.5509 12.8751 14.6128 12.991 14.6379 13.1172C14.663 13.2433 14.6501 13.3741 14.6009 13.4929C14.5516 13.6118 14.4683 13.7133 14.3613 13.7848C14.2544 13.8563 14.1286 13.8944 14 13.8944C13.8276 13.8942 13.6622 13.8256 13.5403 13.7037C13.4184 13.5818 13.3498 13.4164 13.3496 13.244V13.2438ZM15.8488 14.9391C15.6178 14.555 15.2727 14.2525 14.8617 14.0737C15.0248 13.9046 15.1346 13.6912 15.1773 13.4602C15.22 13.2292 15.1938 12.9906 15.102 12.7744C15.0101 12.5581 14.8566 12.3737 14.6607 12.244C14.4647 12.1144 14.235 12.0452 14 12.0452C13.765 12.0452 13.5353 12.1144 13.3393 12.244C13.1434 12.3737 12.9899 12.5581 12.898 12.7744C12.8062 12.9906 12.78 13.2292 12.8227 13.4602C12.8654 13.6912 12.9752 13.9046 13.1383 14.0737C12.7274 14.2527 12.3825 14.5553 12.1516 14.9394C11.9247 14.6038 11.7935 14.2128 11.7721 13.8083C11.7506 13.4038 11.8396 13.0011 12.0296 12.6434C12.2196 12.2857 12.5034 11.9864 12.8505 11.7777C13.1977 11.569 13.5951 11.4587 14.0002 11.4587C14.4052 11.4587 14.8026 11.569 15.1498 11.7777C15.497 11.9864 15.7807 12.2857 15.9707 12.6434C16.1607 13.0011 16.2498 13.4038 16.2283 13.8083C16.2068 14.2128 16.0756 14.6038 15.8488 14.9394L15.8488 14.9391Z" fill="white"/>
</svg>
