<svg width="29" height="29" viewBox="0 0 29 29" fill="none" xmlns="http://www.w3.org/2000/svg">
<g clip-path="url(#clip0_4634_1124)">
<path d="M14.5 18.5781C14.2311 18.5781 13.9683 18.6579 13.7448 18.8072C13.5212 18.9566 13.347 19.1689 13.2441 19.4173C13.1412 19.6657 13.1143 19.939 13.1667 20.2027C13.2192 20.4664 13.3487 20.7086 13.5388 20.8987C13.7289 21.0888 13.9711 21.2183 14.2348 21.2708C14.4985 21.3232 14.7718 21.2963 15.0202 21.1934C15.2686 21.0905 15.4809 20.9163 15.6303 20.6927C15.7796 20.4692 15.8594 20.2064 15.8594 19.9375C15.8594 19.577 15.7162 19.2312 15.4612 18.9763C15.2063 18.7213 14.8605 18.5781 14.5 18.5781ZM14.5 20.3906C14.4104 20.3906 14.3228 20.364 14.2483 20.3143C14.1737 20.2645 14.1157 20.1937 14.0814 20.1109C14.0471 20.0281 14.0381 19.937 14.0556 19.8491C14.0731 19.7612 14.1162 19.6805 14.1796 19.6171C14.243 19.5537 14.3237 19.5106 14.4116 19.4931C14.4995 19.4756 14.5906 19.4846 14.6734 19.5189C14.7562 19.5532 14.827 19.6112 14.8768 19.6858C14.9266 19.7603 14.9531 19.8479 14.9531 19.9375C14.9531 20.0577 14.9054 20.1729 14.8204 20.2579C14.7354 20.3429 14.6202 20.3906 14.5 20.3906Z" fill="white"/>
<path d="M25.8281 2.26557H19.4536C18.0683 1.09521 16.3134 0.453125 14.5 0.453125C12.6866 0.453125 10.9317 1.09521 9.54644 2.26557H3.17188C2.45104 2.26629 1.75993 2.55296 1.25022 3.06266C0.740515 3.57237 0.453845 4.26348 0.453125 4.98432V20.3906C0.453845 21.1114 0.740515 21.8025 1.25022 22.3122C1.75993 22.8219 2.45104 23.1086 3.17188 23.1093H10.8147L10.4749 25.8281H9.96875C9.60822 25.8281 9.26246 25.9713 9.00753 26.2262C8.75259 26.4812 8.60938 26.8269 8.60938 27.1874V28.0937C8.60938 28.2139 8.65711 28.3291 8.74209 28.4141C8.82707 28.4991 8.94232 28.5468 9.0625 28.5468H19.9375C20.0577 28.5468 20.1729 28.4991 20.2579 28.4141C20.3429 28.3291 20.3906 28.2139 20.3906 28.0937V27.1874C20.3906 26.8269 20.2474 26.4812 19.9925 26.2262C19.7375 25.9713 19.3918 25.8281 19.0312 25.8281H18.5251L18.1853 23.1093H25.8281C26.549 23.1086 27.2401 22.8219 27.7498 22.3122C28.2595 21.8025 28.5462 21.1114 28.5469 20.3906V4.98432C28.5462 4.26348 28.2595 3.57237 27.7498 3.06266C27.2401 2.55296 26.549 2.26629 25.8281 2.26557ZM21.2969 8.15619C21.2969 9.50049 20.8982 10.8146 20.1514 11.9323C19.4045 13.0501 18.343 13.9212 17.1011 14.4357C15.8591 14.9501 14.4925 15.0847 13.174 14.8225C11.8555 14.5602 10.6444 13.9129 9.69388 12.9623C8.74332 12.0117 8.09598 10.8007 7.83373 9.4822C7.57147 8.16373 7.70607 6.79711 8.22051 5.55514C8.73495 4.31317 9.60612 3.25165 10.7239 2.5048C11.8416 1.75795 13.1557 1.35932 14.5 1.35932C16.302 1.36135 18.0296 2.07811 19.3039 3.35233C20.5781 4.62655 21.2948 6.35417 21.2969 8.15619ZM3.17188 3.17182H8.63747C7.5535 4.44349 6.91522 6.03481 6.81998 7.70307H4.901C4.79411 7.40073 4.58378 7.14592 4.30719 6.98367C4.0306 6.82142 3.70555 6.76217 3.3895 6.81639C3.07344 6.87062 2.78674 7.03483 2.58005 7.28C2.37336 7.52517 2.25999 7.83552 2.25999 8.15619C2.25999 8.47686 2.37336 8.78721 2.58005 9.03238C2.78674 9.27755 3.07344 9.44176 3.3895 9.49599C3.70555 9.55022 4.0306 9.49097 4.30719 9.32871C4.58378 9.16646 4.79411 8.91165 4.901 8.60932H6.81998C6.86444 9.38462 7.02686 10.1486 7.30166 10.8749H4.53125C4.41107 10.8749 4.29582 10.9227 4.21084 11.0077C4.12586 11.0926 4.07812 11.2079 4.07812 11.3281V13.2239C3.77579 13.3308 3.52098 13.5412 3.35873 13.8178C3.19648 14.0943 3.13723 14.4194 3.19145 14.7354C3.24568 15.0515 3.40989 15.3382 3.65506 15.5449C3.90023 15.7516 4.21058 15.8649 4.53125 15.8649C4.85192 15.8649 5.16227 15.7516 5.40744 15.5449C5.65261 15.3382 5.81682 15.0515 5.87105 14.7354C5.92527 14.4194 5.86602 14.0943 5.70377 13.8178C5.54152 13.5412 5.28671 13.3308 4.98438 13.2239V11.7812H7.70675C8.36299 13.0129 9.34177 14.0431 10.5384 14.7614C11.735 15.4797 13.1044 15.8591 14.5 15.8591C15.8956 15.8591 17.265 15.4797 18.4616 14.7614C19.6582 14.0431 20.637 13.0129 21.2933 11.7812H24.0156V13.2239C23.7133 13.3308 23.4585 13.5412 23.2962 13.8178C23.134 14.0943 23.0747 14.4194 23.129 14.7354C23.1832 15.0515 23.3474 15.3382 23.5926 15.5449C23.8377 15.7516 24.1481 15.8649 24.4688 15.8649C24.7894 15.8649 25.0998 15.7516 25.3449 15.5449C25.5901 15.3382 25.7543 15.0515 25.8085 14.7354C25.8628 14.4194 25.8035 14.0943 25.6413 13.8178C25.479 13.5412 25.2242 13.3308 24.9219 13.2239V11.3281C24.9219 11.2079 24.8741 11.0926 24.7892 11.0077C24.7042 10.9227 24.5889 10.8749 24.4688 10.8749H21.6983C21.9731 10.1486 22.1356 9.38462 22.18 8.60932H24.099C24.2059 8.91165 24.4162 9.16646 24.6928 9.32871C24.9694 9.49097 25.2945 9.55022 25.6105 9.49599C25.9266 9.44176 26.2133 9.27755 26.42 9.03238C26.6266 8.78721 26.74 8.47686 26.74 8.15619C26.74 7.83552 26.6266 7.52517 26.42 7.28C26.2133 7.03483 25.9266 6.87062 25.6105 6.81639C25.2945 6.76217 24.9694 6.82142 24.6928 6.98367C24.4162 7.14592 24.2059 7.40073 24.099 7.70307H22.18C22.0848 6.03481 21.4465 4.44349 20.3625 3.17182H25.8281C26.3088 3.17182 26.7698 3.36278 27.1098 3.70268C27.4497 4.04259 27.6406 4.50361 27.6406 4.98432V16.7656H1.35938V4.98432C1.35938 4.50361 1.55033 4.04259 1.89024 3.70268C2.23015 3.36278 2.69117 3.17182 3.17188 3.17182ZM4.07812 8.15619C4.07812 8.24581 4.05155 8.33342 4.00176 8.40793C3.95197 8.48245 3.8812 8.54053 3.7984 8.57482C3.71561 8.60912 3.6245 8.61809 3.5366 8.60061C3.4487 8.58313 3.36796 8.53997 3.30459 8.4766C3.24122 8.41323 3.19807 8.33249 3.18058 8.24459C3.1631 8.15669 3.17207 8.06559 3.20637 7.98279C3.24066 7.89999 3.29874 7.82922 3.37326 7.77943C3.44777 7.72964 3.53538 7.70307 3.625 7.70307C3.74518 7.70307 3.86043 7.75081 3.94541 7.83578C4.03039 7.92076 4.07812 8.03602 4.07812 8.15619ZM4.98438 14.4999C4.98438 14.5896 4.9578 14.6772 4.90801 14.7517C4.85822 14.8262 4.78745 14.8843 4.70465 14.9186C4.62186 14.9529 4.53075 14.9618 4.44285 14.9444C4.35495 14.9269 4.27421 14.8837 4.21084 14.8204C4.14747 14.757 4.10432 14.6762 4.08683 14.5883C4.06935 14.5004 4.07832 14.4093 4.11262 14.3265C4.14691 14.2437 4.20499 14.173 4.27951 14.1232C4.35402 14.0734 4.44163 14.0468 4.53125 14.0468C4.65143 14.0468 4.76668 14.0946 4.85166 14.1795C4.93664 14.2645 4.98438 14.3798 4.98438 14.4999ZM24.9219 14.4999C24.9219 14.5896 24.8953 14.6772 24.8455 14.7517C24.7957 14.8262 24.725 14.8843 24.6422 14.9186C24.5594 14.9529 24.4682 14.9618 24.3804 14.9444C24.2925 14.9269 24.2117 14.8837 24.1483 14.8204C24.085 14.757 24.0418 14.6762 24.0243 14.5883C24.0068 14.5004 24.0158 14.4093 24.0501 14.3265C24.0844 14.2437 24.1425 14.173 24.217 14.1232C24.2915 14.0734 24.3791 14.0468 24.4688 14.0468C24.5889 14.0468 24.7042 14.0946 24.7892 14.1795C24.8741 14.2645 24.9219 14.3798 24.9219 14.4999ZM24.9219 8.15619C24.9219 8.06657 24.9485 7.97896 24.9982 7.90445C25.048 7.82993 25.1188 7.77185 25.2016 7.73756C25.2844 7.70326 25.3755 7.69429 25.4634 7.71177C25.5513 7.72926 25.632 7.77241 25.6954 7.83578C25.7588 7.89915 25.8019 7.97989 25.8194 8.06779C25.8369 8.15569 25.8279 8.2468 25.7936 8.3296C25.7593 8.41239 25.7013 8.48316 25.6267 8.53295C25.5522 8.58274 25.4646 8.60932 25.375 8.60932C25.2548 8.60932 25.1396 8.56158 25.0546 8.4766C24.9696 8.39162 24.9219 8.27637 24.9219 8.15619ZM19.4844 27.1874V27.6406H9.51562V27.1874C9.51562 27.0673 9.56336 26.952 9.64834 26.867C9.73332 26.7821 9.84857 26.7343 9.96875 26.7343H19.0312C19.1514 26.7343 19.2667 26.7821 19.3517 26.867C19.4366 26.952 19.4844 27.0673 19.4844 27.1874ZM17.6116 25.8281H11.3884L11.7282 23.1093H17.2718L17.6116 25.8281ZM25.8281 22.2031H3.17188C2.69117 22.2031 2.23015 22.0121 1.89024 21.6722C1.55033 21.3323 1.35938 20.8713 1.35938 20.3906V17.6718H27.6406V20.3906C27.6406 20.8713 27.4497 21.3323 27.1098 21.6722C26.7698 22.0121 26.3088 22.2031 25.8281 22.2031Z" fill="white"/>
<path d="M13.1406 9.70322V12.2344C13.1406 12.3186 13.164 12.4011 13.2083 12.4728C13.2525 12.5444 13.3159 12.6023 13.3912 12.6399L15.2037 13.5462C15.2728 13.5807 15.3496 13.597 15.4268 13.5935C15.5039 13.59 15.5789 13.5668 15.6446 13.5262C15.7103 13.4856 15.7645 13.4288 15.8021 13.3613C15.8397 13.2938 15.8594 13.2179 15.8594 13.1406V9.70322L18.4454 7.11723C18.5303 7.03228 18.5781 6.91704 18.5781 6.79688V4.07812C18.5781 3.95795 18.5304 3.84269 18.4454 3.75772C18.3604 3.67274 18.2452 3.625 18.125 3.625H10.875C10.7548 3.625 10.6396 3.67274 10.5546 3.75772C10.4696 3.84269 10.4219 3.95795 10.4219 4.07812V6.79688C10.4219 6.91704 10.4697 7.03228 10.5546 7.11723L13.1406 9.70322ZM15.0859 9.19527C15.0009 9.28022 14.9532 9.39546 14.9531 9.51562V12.4075L14.0469 11.9543V9.51562C14.0468 9.39546 13.9991 9.28022 13.9141 9.19527L11.9688 7.25H17.0312L15.0859 9.19527ZM17.6719 4.53125V6.34375H11.3281V4.53125H17.6719Z" fill="white"/>
</g>
<defs>
<clipPath id="clip0_4634_1124">
<rect width="29" height="29" fill="white"/>
</clipPath>
</defs>
</svg>
