<svg width="59" height="59" viewBox="0 0 59 59" fill="none" xmlns="http://www.w3.org/2000/svg">
<path d="M50.3807 38.4119H50.3583C46.8041 38.3022 39.5082 36.3593 31.3178 33.3409C31.2306 33.3087 31.1505 33.2597 31.0822 33.1966C31.0139 33.1335 30.9587 33.0576 30.9198 32.9732C30.8808 32.8888 30.8589 32.7975 30.8552 32.7046C30.8515 32.6117 30.8662 32.5189 30.8983 32.4317C30.9305 32.3445 30.9795 32.2644 31.0426 32.1961C31.1057 32.1278 31.1816 32.0726 31.266 32.0337C31.3505 31.9947 31.4417 31.9728 31.5346 31.9691C31.6275 31.9654 31.7203 31.9801 31.8075 32.0122C39.8645 34.9817 46.9894 36.8915 50.4019 36.9965C50.5897 36.9994 50.7687 37.0766 50.8995 37.2114C51.0303 37.3462 51.1021 37.5274 51.0993 37.7152C51.0965 37.9029 51.0192 38.0819 50.8844 38.2127C50.7497 38.3435 50.5685 38.4153 50.3807 38.4125V38.4119ZM51.5483 36.0401C51.3703 36.04 51.1988 35.9728 51.0681 35.8519C48.5576 33.5303 43.9066 31.27 40.8286 29.7732C40.7448 29.7324 40.6699 29.6756 40.608 29.6058C40.5462 29.5361 40.4987 29.4549 40.4683 29.3668C40.4068 29.189 40.4186 28.994 40.5009 28.8247C40.5832 28.6555 40.7293 28.5259 40.9072 28.4644C41.0851 28.403 41.2801 28.4147 41.4493 28.497C44.6011 30.031 49.363 32.3462 52.0292 34.81C52.1339 34.9066 52.2071 35.0326 52.239 35.1715C52.271 35.3104 52.2603 35.4557 52.2084 35.5885C52.1564 35.7212 52.0656 35.8351 51.9479 35.9154C51.8301 35.9957 51.6908 36.0385 51.5483 36.0384V36.0401ZM27.5973 31.86C27.5073 31.8599 27.4182 31.8427 27.3347 31.8093C27.2421 31.7721 27.1542 31.7349 27.0663 31.6983C26.9784 31.6618 26.9058 31.6305 26.8214 31.5969C17.572 27.8728 9.78221 23.7965 6.97322 21.2129C6.8373 21.0852 6.75725 20.909 6.75047 20.7226C6.74369 20.5362 6.81072 20.3547 6.937 20.2175C7.06329 20.0802 7.23862 19.9983 7.42492 19.9896C7.61122 19.9809 7.79343 20.0461 7.93197 20.1709C10.6253 22.6489 18.2469 26.6196 27.3489 30.2847C27.4397 30.3207 27.5259 30.3579 27.6156 30.395C27.7052 30.4322 27.776 30.4623 27.8604 30.4965C28.012 30.5584 28.1375 30.6709 28.2154 30.8149C28.2934 30.9588 28.3191 31.1254 28.288 31.2862C28.257 31.4469 28.1712 31.592 28.0453 31.6966C27.9193 31.8012 27.761 31.859 27.5973 31.86ZM17.4723 20.781C17.4068 20.7809 17.3417 20.7717 17.2788 20.7538C13.4797 19.6759 10.479 19.0794 8.60162 19.0281C8.50865 19.0255 8.41709 19.0047 8.33217 18.9667C8.24725 18.9288 8.17063 18.8745 8.1067 18.8069C7.97757 18.6705 7.90793 18.4884 7.91309 18.3006C7.91826 18.1128 7.9978 17.9348 8.13423 17.8057C8.27066 17.6766 8.45279 17.6069 8.64056 17.6121C10.6336 17.6664 13.7547 18.2817 17.6676 19.3909C17.8322 19.4373 17.9745 19.5418 18.0681 19.6849C18.1617 19.8281 18.2003 20.0003 18.1768 20.1698C18.1532 20.3392 18.0692 20.4944 17.9401 20.6066C17.811 20.7189 17.6457 20.7806 17.4746 20.7804L17.4723 20.781Z" fill="#020202"/>
<path d="M46.4482 27.8616H37.987C37.838 27.8618 37.6927 27.815 37.5718 27.7278C37.4509 27.6407 37.3606 27.5175 37.3138 27.3761L36.0034 23.3576L34.7101 19.3178C34.6641 19.1754 34.6643 19.0221 34.7109 18.8798C34.7574 18.7376 34.8478 18.6137 34.9692 18.5261L38.3853 16.0481L41.8002 13.553C41.9213 13.4648 42.0672 13.4172 42.217 13.4172C42.3668 13.4172 42.5128 13.4648 42.6338 13.553L46.0682 16.0481L49.4837 18.5261C49.6049 18.6139 49.695 18.7378 49.7414 18.88C49.7877 19.0223 49.7878 19.1755 49.7416 19.3178L48.4318 23.354L47.1214 27.3761C47.0746 27.5175 46.9843 27.6407 46.8634 27.7278C46.7425 27.815 46.5972 27.8618 46.4482 27.8616ZM38.5009 26.4456H45.9349L47.086 22.9157L48.2365 19.3703L45.2369 17.1938L42.2191 15.0008L39.2189 17.1927L36.2152 19.3715L37.351 22.9192L38.5009 26.4456Z" fill="#020202"/>
<path d="M43.3698 25.3109H41.0859C40.8981 25.3109 40.718 25.2364 40.5853 25.1036C40.4525 24.9708 40.3779 24.7907 40.3779 24.6029V23.1869H38.9619C38.7741 23.1869 38.594 23.1124 38.4613 22.9796C38.3285 22.8468 38.2539 22.6667 38.2539 22.4789V20.1956C38.2539 20.0079 38.3285 19.8278 38.4613 19.695C38.594 19.5622 38.7741 19.4876 38.9619 19.4876H40.3779V18.0539C40.3779 17.8662 40.4525 17.6861 40.5853 17.5533C40.718 17.4205 40.8981 17.3459 41.0859 17.3459H43.3698C43.5576 17.3459 43.7377 17.4205 43.8704 17.5533C44.0032 17.6861 44.0778 17.8662 44.0778 18.0539V19.4882H45.4938C45.6816 19.4882 45.8617 19.5628 45.9944 19.6956C46.1272 19.8284 46.2018 20.0085 46.2018 20.1962V22.4789C46.2018 22.6667 46.1272 22.8468 45.9944 22.9796C45.8617 23.1124 45.6816 23.1869 45.4938 23.1869H44.0778V24.6029C44.0778 24.7907 44.0032 24.9708 43.8704 25.1036C43.7377 25.2364 43.5576 25.3109 43.3698 25.3109ZM41.7939 23.8949H42.6618V22.4789C42.6618 22.2912 42.7364 22.1111 42.8692 21.9783C43.0019 21.8455 43.182 21.7709 43.3698 21.7709H44.7858V20.9036H43.3698C43.182 20.9036 43.0019 20.8291 42.8692 20.6963C42.7364 20.5635 42.6618 20.3834 42.6618 20.1956V18.7619H41.7939V20.1962C41.7939 20.384 41.7193 20.5641 41.5865 20.6969C41.4538 20.8296 41.2737 20.9042 41.0859 20.9042H39.6699V21.7709H41.0859C41.2737 21.7709 41.4538 21.8455 41.5865 21.9783C41.7193 22.1111 41.7939 22.2912 41.7939 22.4789V23.8949Z" fill="#020202"/>
<path d="M34.4306 45.5829C34.2598 45.5831 34.0893 45.5691 33.9208 45.541C33.0388 45.3911 32.306 44.8648 31.7998 44.0182C31.2652 43.1226 30.9938 41.8794 30.9938 40.3242V36.7842H28.0025V40.3242C28.0025 41.8794 27.7311 43.1226 27.1966 44.0182C26.691 44.8648 25.9576 45.3911 25.0761 45.541C24.9077 45.5691 24.7372 45.5831 24.5664 45.5829C23.0861 45.5829 21.5574 44.5539 21.0671 43.1414C20.5862 41.7485 20.5845 40.6894 20.5833 39.6652C20.5833 38.0474 20.5798 36.3741 18.7047 32.8878C16.4627 28.6941 15.1122 22.803 17.1507 19.0925C17.6688 18.1365 18.4336 17.3369 19.3655 16.7767C20.355 16.1802 21.5633 15.825 22.9575 15.72C26.0845 15.4946 28.4846 17.8493 29.5065 18.9573C30.5236 17.8481 32.9108 15.494 36.0378 15.72C36.9189 15.7795 37.7866 15.9677 38.6131 16.2787C38.732 16.3245 38.8363 16.4015 38.9151 16.5016C38.9939 16.6017 39.0443 16.7212 39.0608 16.8475C39.0774 16.9738 39.0595 17.1023 39.0092 17.2193C38.9588 17.3363 38.8779 17.4376 38.7748 17.5124L36.2153 19.3709L37.3511 22.9192L38.501 26.4456H41.7041C41.8107 26.4455 41.916 26.4695 42.012 26.5158C42.1081 26.5621 42.1924 26.6295 42.2588 26.7129C42.3252 26.7963 42.3718 26.8937 42.3953 26.9977C42.4188 27.1017 42.4185 27.2097 42.3944 27.3135C41.9412 29.2572 41.2338 31.1326 40.2905 32.8914C38.4355 36.3606 38.4308 38.032 38.4261 39.6481C38.4261 40.6782 38.4202 41.7431 37.9293 43.1426C37.4372 44.5539 35.9109 45.5829 34.4306 45.5829ZM23.3734 17.1213C23.2702 17.1213 23.1663 17.1248 23.0619 17.1325C20.8352 17.2994 19.2635 18.1886 18.3926 19.7745C16.6191 23.0024 17.9584 28.4882 19.9532 32.2188C21.9958 36.0166 21.9981 37.9542 21.9999 39.6634C21.9999 40.6546 21.9999 41.5101 22.4058 42.6771C22.6914 43.4972 23.8183 44.3179 24.8401 44.1444C25.9499 43.9568 26.5871 42.5638 26.5871 40.3242V36.0762C26.5871 35.8884 26.6617 35.7083 26.7945 35.5756C26.9273 35.4428 27.1074 35.3682 27.2951 35.3682H31.7024C31.8902 35.3682 32.0703 35.4428 32.2031 35.5756C32.3358 35.7083 32.4104 35.8884 32.4104 36.0762V40.3242C32.4104 42.5662 33.0476 43.9568 34.1574 44.1444C35.1799 44.3179 36.3062 43.4954 36.5924 42.6753C37.0054 41.5001 37.0054 40.6404 37.0101 39.6445C37.0148 37.9382 37.0201 36.0036 39.0444 32.2188C39.7872 30.8358 40.3737 29.3744 40.7932 27.8616H37.9871C37.8381 27.8618 37.6928 27.815 37.5719 27.7278C37.451 27.6407 37.3608 27.5175 37.3139 27.3761L36.0035 23.3576L34.7103 19.3178C34.6641 19.1755 34.6643 19.0222 34.7107 18.8799C34.7572 18.7377 34.8475 18.6138 34.9687 18.5261L36.7499 17.2328C36.4879 17.1879 36.215 17.1543 35.931 17.1319C33.217 16.936 31.034 19.3739 30.3177 20.1716C30.0162 20.5073 29.8504 20.6925 29.5076 20.6925C29.1648 20.6925 28.9996 20.5079 28.6976 20.1727C28.0043 19.4028 25.9476 17.1213 23.3734 17.1213Z" fill="#020202"/>
<path d="M29.5781 34.7475C29.018 34.7475 28.4704 34.5814 28.0047 34.2702C27.539 33.959 27.176 33.5167 26.9617 32.9993C26.7473 32.4818 26.6912 31.9124 26.8005 31.363C26.9098 30.8136 27.1795 30.309 27.5756 29.913C27.9716 29.5169 28.4762 29.2472 29.0256 29.1379C29.575 29.0286 30.1444 29.0847 30.6619 29.2991C31.1793 29.5134 31.6216 29.8764 31.9328 30.3421C32.244 30.8078 32.4101 31.3554 32.4101 31.9155C32.4093 32.6664 32.1107 33.3862 31.5798 33.9172C31.0488 34.4481 30.3289 34.7467 29.5781 34.7475ZM29.5781 30.4995C29.298 30.4995 29.0243 30.5825 28.7914 30.7381C28.5585 30.8937 28.3771 31.1149 28.2699 31.3736C28.1627 31.6324 28.1347 31.9171 28.1893 32.1917C28.2439 32.4664 28.3788 32.7187 28.5768 32.9168C28.7749 33.1148 29.0272 33.2497 29.3018 33.3043C29.5765 33.3589 29.8612 33.3309 30.12 33.2237C30.3787 33.1165 30.5999 32.935 30.7555 32.7022C30.911 32.4693 30.9941 32.1956 30.9941 31.9155C30.9941 31.54 30.8449 31.1798 30.5794 30.9142C30.3138 30.6487 29.9536 30.4995 29.5781 30.4995Z" fill="#020202"/>
<path d="M6.54984 21.594C5.99134 21.5924 5.44586 21.4251 4.9824 21.1135C4.51894 20.8018 4.1583 20.3597 3.94611 19.8431C3.73392 19.3265 3.6797 18.7585 3.7903 18.2111C3.90091 17.6636 4.17137 17.1613 4.56749 16.7675C4.96361 16.3738 5.46759 16.1064 6.0157 15.9991C6.5638 15.8918 7.13141 15.9495 7.64674 16.1648C8.16208 16.3801 8.60198 16.7434 8.91083 17.2088C9.21968 17.6741 9.38359 18.2206 9.38184 18.7791C9.37872 19.5277 9.0788 20.2444 8.54788 20.7721C8.01697 21.2998 7.29841 21.5954 6.54984 21.594ZM6.54984 17.3631C6.27213 17.3647 6.0011 17.4485 5.77087 17.6038C5.54064 17.7591 5.36149 17.979 5.25597 18.2359C5.15044 18.4928 5.12326 18.7752 5.17784 19.0475C5.23242 19.3198 5.36633 19.5699 5.5627 19.7663C5.75908 19.9626 6.00916 20.0965 6.28146 20.1511C6.55376 20.2057 6.83613 20.1785 7.09302 20.073C7.34991 19.9675 7.56985 19.7883 7.72516 19.5581C7.88047 19.3279 7.96421 19.0568 7.96584 18.7791C7.96553 18.4038 7.81621 18.0439 7.55069 17.7786C7.28517 17.5133 6.92518 17.3643 6.54984 17.3643V17.3631Z" fill="#020202"/>
<path d="M52.4492 40.0759C51.8891 40.0759 51.3415 39.9098 50.8758 39.5986C50.4101 39.2874 50.0471 38.8451 49.8328 38.3276C49.6184 37.8101 49.5623 37.2407 49.6716 36.6914C49.7809 36.142 50.0506 35.6374 50.4467 35.2413C50.8427 34.8453 51.3473 34.5756 51.8967 34.4663C52.446 34.357 53.0155 34.4131 53.5329 34.6274C54.0504 34.8418 54.4927 35.2048 54.8039 35.6705C55.1151 36.1362 55.2812 36.6837 55.2812 37.2439C55.2819 37.616 55.2091 37.9845 55.067 38.3285C54.925 38.6724 54.7164 38.9848 54.4533 39.248C54.1902 39.5111 53.8777 39.7196 53.5338 39.8617C53.1899 40.0038 52.8213 40.0766 52.4492 40.0759ZM52.4492 35.8279C52.1691 35.8279 51.8954 35.9109 51.6625 36.0665C51.4296 36.2221 51.2481 36.4432 51.141 36.702C51.0338 36.9607 51.0058 37.2454 51.0604 37.5201C51.115 37.7948 51.2499 38.0471 51.4479 38.2451C51.646 38.4432 51.8983 38.578 52.1729 38.6327C52.4476 38.6873 52.7323 38.6593 52.9911 38.5521C53.2498 38.4449 53.471 38.2634 53.6265 38.0306C53.7821 37.7977 53.8652 37.5239 53.8652 37.2439C53.8661 37.0577 53.8301 36.8731 53.7593 36.7009C53.6885 36.5287 53.5842 36.3722 53.4525 36.2405C53.3209 36.1088 53.1644 36.0046 52.9922 35.9337C52.82 35.8629 52.6354 35.8269 52.4492 35.8279Z" fill="#020202"/>
</svg>
