<svg width="47" height="47" viewBox="0 0 47 47" fill="none" xmlns="http://www.w3.org/2000/svg">
<path d="M6.9559 27.7927C6.62168 27.7927 6.27701 27.6987 5.96368 27.5107L1.54568 24.837C1.09657 24.5654 0.793681 24.1476 0.678792 23.6359C0.563903 23.1241 0.647459 22.6123 0.929459 22.1736L8.21968 10.8727C8.78368 9.99541 9.92213 9.7343 10.8099 10.2774L15.2279 12.9512C15.677 13.2227 15.9799 13.6405 16.1052 14.1523C16.2306 14.6641 16.1366 15.1759 15.8546 15.6145L8.56435 26.9154C8.18835 27.4794 7.58257 27.7927 6.9559 27.7927ZM9.82813 10.7996C9.46257 10.7996 9.1179 10.9772 8.89857 11.3114L1.60835 22.6123C1.44124 22.8734 1.38901 23.1554 1.46213 23.4583C1.53524 23.7612 1.70235 23.991 1.96346 24.1581L6.38146 26.8319C6.89324 27.1452 7.56168 26.9885 7.88546 26.4872L15.1757 15.1863C15.3428 14.9252 15.395 14.6432 15.3219 14.3403C15.2488 14.0374 15.0817 13.8076 14.8206 13.6405L10.4026 10.9667C10.225 10.8519 10.0266 10.7996 9.82813 10.7996Z" fill="#020202"/>
<path d="M12.3865 28.1793C12.303 28.1793 12.2298 28.1584 12.1567 28.1062L8.82495 25.7353C8.6474 25.6099 8.60562 25.3697 8.72051 25.1922L14.6843 15.9593C14.7678 15.8339 14.9036 15.7608 15.0498 15.7713C16.2823 15.8653 17.9221 15.8131 19.3738 15.7608C20.7003 15.7191 21.9536 15.6773 22.7578 15.7504C22.9772 15.7713 23.1443 15.9697 23.1234 16.1891C23.1025 16.4084 22.9041 16.5755 22.6847 16.5546C21.9327 16.4815 20.7003 16.5233 19.4052 16.5755C18.0265 16.6173 16.4807 16.6695 15.2378 16.5964L9.61873 25.3175L12.6372 27.4586C12.8147 27.5839 12.8565 27.8346 12.7312 28.0226C12.6372 28.1166 12.5118 28.1793 12.3865 28.1793Z" fill="#020202"/>
<path d="M25.6099 37.0046C25.4428 37.0046 25.2652 36.9838 25.0877 36.9524C24.6594 36.8689 24.2417 36.6913 23.8552 36.4198L20.8577 34.2891C20.6801 34.1638 20.6383 33.9131 20.7637 33.7251C20.889 33.5371 21.1397 33.5058 21.3277 33.6311L24.3252 35.7618C24.6177 35.9706 24.9205 36.1064 25.2339 36.1586C25.6934 36.2422 26.0694 36.1795 26.3723 35.9498C27.0408 35.4484 27.1452 34.3309 27.1452 34.3204C27.1557 34.1846 27.2392 34.0698 27.3541 34.0071C27.469 33.9444 27.6152 33.9444 27.7301 33.9966C28.503 34.3831 29.1192 34.4562 29.5579 34.2055C30.2994 33.7982 30.4248 32.6075 30.4248 32.5971C30.4352 32.4822 30.4874 32.3882 30.5814 32.3151C30.6754 32.242 30.7903 32.2211 30.8948 32.242C31.6885 32.3882 32.2525 32.2942 32.5554 31.9704C33.0777 31.4169 32.8061 30.2784 32.7957 30.268C32.7434 30.0591 32.8688 29.8398 33.0777 29.7771C33.1821 29.7458 33.2865 29.7666 33.3701 29.8084C33.4014 29.8189 33.4537 29.8293 33.5581 29.8398L33.5999 29.8502C33.6939 29.8711 33.7879 29.8815 33.861 29.8815C34.0177 29.892 34.1639 29.8815 34.2788 29.8502C34.707 29.7562 34.9263 29.3593 35.0203 29.14C35.1457 28.8266 35.177 28.482 35.1039 28.1582C35.0725 28.012 35.0203 27.9075 34.9263 27.7926C34.7801 27.6255 34.801 27.3749 34.9681 27.2286C35.1352 27.0824 35.3859 27.1033 35.5321 27.2704C35.7097 27.4793 35.8245 27.7091 35.8872 27.9911C35.9917 28.4715 35.9499 28.9938 35.7514 29.4533C35.4903 30.0904 35.0203 30.5082 34.4459 30.644C34.2474 30.6858 34.0281 30.7066 33.7983 30.6962C33.7461 30.6962 33.6939 30.6858 33.6417 30.6858C33.6834 31.2184 33.6208 31.9913 33.1194 32.524C32.6808 32.994 32.0123 33.1924 31.1245 33.0984C30.9992 33.6206 30.6859 34.498 29.9234 34.9262C29.349 35.25 28.6388 35.25 27.8241 34.9471C27.6988 35.438 27.4272 36.1586 26.8319 36.6078C26.5081 36.8689 26.0903 37.0046 25.6099 37.0046Z" fill="#020202"/>
<path d="M33.2029 30.5709C33.1089 30.5709 33.0253 30.5396 32.9522 30.4769L26.132 24.9831C25.9649 24.8473 25.9336 24.5862 26.0693 24.4191C26.2051 24.252 26.4662 24.2207 26.6333 24.3565L33.4536 29.8502C33.6207 29.986 33.652 30.2471 33.5162 30.4142C33.4327 30.5187 33.3178 30.5709 33.2029 30.5709Z" fill="#020202"/>
<path d="M30.8312 33.036C30.7372 33.036 30.6537 33.0046 30.5806 32.942L24.4601 28.0122C24.293 27.8764 24.2617 27.6153 24.3975 27.4482C24.5332 27.2811 24.7944 27.2497 24.9615 27.3855L31.0715 32.3153C31.2386 32.4511 31.2699 32.7122 31.1341 32.8793C31.061 32.9942 30.9461 33.036 30.8312 33.036Z" fill="#020202"/>
<path d="M27.5527 34.7696C27.4587 34.7696 27.3751 34.7383 27.302 34.6756L22.6125 30.8947C22.4454 30.759 22.414 30.4979 22.5498 30.3307C22.6856 30.1636 22.9467 30.1323 23.1138 30.2681L27.8034 34.049C27.9705 34.1847 28.0018 34.4459 27.866 34.613C27.7929 34.7174 27.678 34.7696 27.5527 34.7696Z" fill="#020202"/>
<path d="M39.8773 27.9599C39.2088 27.9599 38.5613 27.6048 38.2166 26.9782L31.6784 15.2282C31.4173 14.7686 31.3651 14.2568 31.5217 13.7555C31.6784 13.2541 32.0022 12.8573 32.4722 12.617L37.0468 10.2357C37.9659 9.75526 39.0835 10.0895 39.5953 10.9982L46.1335 22.7482C46.3946 23.2077 46.4468 23.7195 46.2902 24.2208C46.1335 24.7222 45.8097 25.119 45.3397 25.3697L40.7651 27.751C40.4726 27.8868 40.1697 27.9599 39.8773 27.9599ZM37.9137 10.8101C37.7466 10.8101 37.5691 10.8519 37.4019 10.9355L32.8273 13.3168C32.5453 13.463 32.3677 13.6824 32.2737 13.9748C32.1797 14.2777 32.2111 14.5597 32.3677 14.8313L38.9059 26.5813C39.1984 27.1035 39.8459 27.3019 40.3786 27.0199L44.9533 24.6386C45.2353 24.4924 45.4128 24.273 45.5068 23.9702C45.6008 23.6673 45.5695 23.3853 45.4128 23.1137L38.8746 11.3637C38.6762 11.019 38.3106 10.8101 37.9137 10.8101Z" fill="#020202"/>
<path d="M13.0047 30.6859C12.5452 30.6859 12.0856 30.4979 11.7514 30.1323C11.1143 29.443 11.1561 28.3568 11.8558 27.7196L14.0283 25.7248C14.7176 25.0876 15.8038 25.1399 16.4409 25.8292C17.0781 26.5185 17.0363 27.6048 16.3365 28.2419L14.1641 30.2368C13.8403 30.5396 13.4225 30.6859 13.0047 30.6859ZM15.1772 26.0799C14.9578 26.0799 14.7385 26.1634 14.5609 26.3201L12.3885 28.315C12.0229 28.6492 11.9916 29.2236 12.3363 29.5996C12.6809 29.9756 13.2449 29.9965 13.6209 29.6519L15.7934 27.657C16.1589 27.3228 16.1798 26.7483 15.8456 26.3723C15.6576 26.1843 15.4174 26.0799 15.1772 26.0799Z" fill="#020202"/>
<path d="M13.9425 33.37C13.4829 33.37 13.0234 33.182 12.6891 32.8165C12.3863 32.4822 12.2191 32.0436 12.24 31.584C12.2609 31.1245 12.4594 30.7067 12.7936 30.3933L16.6267 26.8736C16.9609 26.5602 17.3996 26.4036 17.8591 26.4245C18.3187 26.4453 18.7365 26.6333 19.0498 26.978C19.6869 27.6673 19.6451 28.7536 18.9454 29.3907L15.1123 32.9105C14.7676 33.2238 14.3603 33.37 13.9425 33.37ZM17.7756 27.2391C17.5458 27.2391 17.3265 27.3227 17.1594 27.4793L13.3263 30.9991C13.1487 31.1662 13.0443 31.3856 13.0338 31.6258C13.0234 31.866 13.1069 32.0958 13.274 32.2733C13.6083 32.6389 14.1827 32.6702 14.5587 32.3256L18.3918 28.8058C18.7574 28.4716 18.7783 27.8971 18.444 27.5211C18.2769 27.3436 18.0576 27.2391 17.8174 27.2287C17.7965 27.2391 17.786 27.2391 17.7756 27.2391Z" fill="#020202"/>
<path d="M16.1688 34.8846C15.7092 34.8846 15.2497 34.6966 14.9155 34.331C14.2783 33.6417 14.3201 32.5554 15.0199 31.9183L17.9548 29.2237C18.289 28.9103 18.7277 28.7537 19.1872 28.7746C19.6468 28.7954 20.0646 28.9834 20.3675 29.3281C21.0046 30.0174 20.9628 31.1037 20.263 31.7408L17.3281 34.4354C16.9939 34.7383 16.5761 34.8846 16.1688 34.8846ZM19.0932 29.5788C18.8635 29.5788 18.6441 29.6623 18.477 29.819L15.5421 32.5137C15.1766 32.8479 15.1452 33.4223 15.4899 33.7983C15.8346 34.1743 16.3986 34.1952 16.7746 33.8506L19.7095 31.1559C20.075 30.8217 20.1063 30.2472 19.7617 29.8712C19.5946 29.6937 19.3752 29.5892 19.135 29.5788C19.1141 29.5788 19.1037 29.5788 19.0932 29.5788Z" fill="#020202"/>
<path d="M18.5077 36.2842C18.4868 36.2842 18.4555 36.2842 18.4346 36.2842C17.975 36.2633 17.5573 36.0753 17.2439 35.7306C16.9306 35.386 16.7739 34.9578 16.7948 34.4982C16.8157 34.0386 17.0141 33.6209 17.3484 33.3075L19.1344 31.6678C19.4686 31.3544 19.9073 31.1978 20.3668 31.2186C20.8264 31.2395 21.2441 31.4275 21.5575 31.7722C21.8708 32.1169 22.0275 32.5451 22.0066 33.0046C21.9857 33.4642 21.7873 33.882 21.453 34.1953L19.667 35.8351C19.3433 36.1275 18.9359 36.2842 18.5077 36.2842ZM20.2937 32.0333C20.0744 32.0333 19.855 32.1169 19.6775 32.2735L17.8915 33.9133C17.7139 34.0804 17.6095 34.2998 17.599 34.54C17.5886 34.7802 17.6721 35.01 17.8393 35.1875C18.0064 35.3651 18.2257 35.4695 18.4659 35.48C18.7061 35.4904 18.9359 35.4069 19.1135 35.2398L20.8995 33.6C21.077 33.4329 21.1815 33.2135 21.1919 32.9733C21.2024 32.7331 21.1188 32.5033 20.9517 32.3258C20.7741 32.1273 20.5339 32.0333 20.2937 32.0333Z" fill="#020202"/>
<path d="M10.8814 16.826C10.8605 16.826 10.8291 16.826 10.8083 16.826C9.82648 16.7842 9.05359 15.9487 9.09537 14.9564C9.13714 13.9747 9.9727 13.2018 10.9545 13.2436C11.9363 13.2853 12.7091 14.1209 12.6674 15.1131C12.6256 16.074 11.8318 16.826 10.8814 16.826ZM10.8396 16.0218C11.3827 16.0427 11.8423 15.6249 11.8736 15.0713C11.884 14.8102 11.79 14.5596 11.6125 14.3611C11.4349 14.1627 11.1843 14.0582 10.9231 14.0373C10.662 14.0269 10.4114 14.1209 10.2129 14.2984C10.0145 14.476 9.91003 14.7267 9.88914 14.9878C9.86826 15.5413 10.286 16.0009 10.8396 16.0218Z" fill="#020202"/>
<path d="M36.6081 16.492C36.5767 16.492 36.5558 16.492 36.5349 16.492C36.0545 16.4711 35.6158 16.2726 35.2921 15.9175C34.9683 15.5624 34.8012 15.1028 34.8221 14.6328C34.8429 14.1524 35.0518 13.7137 35.3965 13.39C35.7516 13.0662 36.2112 12.8991 36.6812 12.92C37.1616 12.9408 37.6003 13.1497 37.9241 13.4944C38.2478 13.8495 38.4149 14.3091 38.3941 14.7791C38.3732 15.2595 38.1643 15.6982 37.8196 16.022C37.4854 16.3248 37.0572 16.492 36.6081 16.492ZM36.6081 13.7137C36.3574 13.7137 36.1276 13.8077 35.9396 13.9748C35.7412 14.1524 35.6263 14.3926 35.6158 14.6642C35.6054 14.9357 35.6994 15.176 35.8769 15.3744C36.0545 15.5728 36.2947 15.6773 36.5558 15.6982C36.8169 15.7086 37.0676 15.6146 37.2661 15.4371C37.4645 15.2595 37.5794 15.0193 37.5898 14.7477C37.6003 14.4866 37.5063 14.236 37.3287 14.0375C37.1512 13.8391 36.9109 13.7346 36.6394 13.7137C36.6394 13.7137 36.6185 13.7137 36.6081 13.7137Z" fill="#020202"/>
<path d="M35.2483 27.9285C35.1543 27.9285 35.0499 27.8972 34.9768 27.8241L25.8274 19.3223C20.7932 21.5052 19.3519 19.8236 19.1952 19.6252C18.9759 19.3119 18.7566 18.633 19.7906 17.599C21.2214 16.1681 24.9397 14.2985 26.4854 15.3952C28.6474 16.941 31.2899 16.4605 32.6686 16.0427C32.8461 15.9905 33.0446 16.0636 33.1386 16.2307L38.131 25.1921C38.225 25.3592 38.1832 25.5681 38.037 25.6934L35.5094 27.8345C35.4363 27.8972 35.3423 27.9285 35.2483 27.9285ZM25.9006 18.4345C26.005 18.4345 26.099 18.4763 26.1721 18.539L35.2588 26.9781L37.2641 25.2756L32.5954 16.8783C31.0079 17.3065 28.3132 17.6616 26.0154 16.0323C25.0337 15.3325 21.8063 16.7007 20.3546 18.1525C19.9263 18.5703 19.7279 18.9567 19.8323 19.1239C19.9159 19.2179 21.2319 20.4816 25.7334 18.4659C25.7961 18.445 25.8483 18.4345 25.9006 18.4345Z" fill="#020202"/>
</svg>
