<svg width="40" height="40" viewBox="0 0 40 40" fill="none" xmlns="http://www.w3.org/2000/svg">
<path d="M8.75 6.25C7.375 6.25 6.25 7.375 6.25 8.75V17.5C6.25 18.875 5.125 20 3.75 20C5.125 20 6.25 21.125 6.25 22.5V31.25C6.25 32.625 7.375 33.75 8.75 33.75" stroke="white" stroke-width="2" stroke-miterlimit="10" stroke-linecap="round" stroke-linejoin="round"/>
<path d="M31.25 6.25C32.625 6.25 33.75 7.375 33.75 8.75V17.5C33.75 18.875 34.875 20 36.25 20C34.875 20 33.75 21.125 33.75 22.5V31.25C33.75 32.625 32.625 33.75 31.25 33.75" stroke="white" stroke-width="2" stroke-miterlimit="10" stroke-linecap="round" stroke-linejoin="round"/>
<path d="M15 16.25L11.25 20L15 23.75" stroke="white" stroke-width="2" stroke-miterlimit="10" stroke-linecap="round" stroke-linejoin="round"/>
<path d="M25 16.25L28.75 20L25 23.75" stroke="white" stroke-width="2" stroke-miterlimit="10" stroke-linecap="round" stroke-linejoin="round"/>
<path d="M21.25 15L18.75 25" stroke="white" stroke-width="2" stroke-miterlimit="10" stroke-linecap="round" stroke-linejoin="round"/>
</svg>
