<svg width="37" height="37" viewBox="0 0 37 37" fill="none" xmlns="http://www.w3.org/2000/svg">
<path d="M11.098 11.4188H9.05477L14.6253 27.1653L17.7438 18.2536L15.326 11.4188H13.1701V9.91839H22.7168V11.4188H20.4812L26.0516 27.1653L28.054 21.4431C30.6807 14.1119 25.9011 11.8282 25.9011 10.1921C25.9011 8.55599 27.2275 7.22972 28.8635 7.22972C28.952 7.22972 29.038 7.23451 29.1222 7.24236C26.3501 4.62543 22.6121 3.02063 18.499 3.02063C13.1245 3.02063 8.39044 5.76013 5.61523 9.91839H11.0979V11.4188H11.098Z" fill="#00769D"/>
<path d="M3.02148 18.5C3.02148 24.4263 6.35242 29.5738 11.2437 32.175L4.25817 12.4285C3.46242 14.2927 3.02148 16.3448 3.02148 18.5Z" fill="#00769D"/>
<path d="M31.9712 10.8723C32.1926 12.176 32.1256 13.6413 31.7858 15.1123H31.8474L31.6133 15.7811C31.4746 16.264 31.3 16.758 31.1017 17.2434L25.7754 32.165C30.6564 29.5608 33.9788 24.4187 33.9788 18.4999C33.9788 15.7265 33.2487 13.1238 31.9712 10.8723Z" fill="#00769D"/>
<path d="M13.7266 33.2278C15.2304 33.7149 16.8344 33.9791 18.5006 33.9791C20.0897 33.9791 21.6228 33.7393 23.066 33.2944L18.5382 20.4951L13.7266 33.2278Z" fill="#00769D"/>
<path d="M31.5814 5.4185C28.0872 1.92433 23.4414 0 18.4999 0C13.5584 0 8.91267 1.92433 5.4185 5.4185C1.92433 8.91267 0 13.5584 0 18.5C0 23.4415 1.92433 28.0873 5.4185 31.5814C8.91267 35.0756 13.5585 36.9999 18.5 36.9999C23.4415 36.9999 28.0873 35.0756 31.5815 31.5814C35.0757 28.0873 37 23.4414 37 18.5C36.9999 13.5584 35.0756 8.91267 31.5814 5.4185ZM18.4999 35.6949C9.01862 35.6949 1.30503 27.9813 1.30503 18.5C1.30503 9.01871 9.01862 1.30503 18.4999 1.30503C27.9812 1.30503 35.6948 9.01871 35.6948 18.5C35.6948 27.9813 27.9813 35.6949 18.4999 35.6949Z" fill="#00769D"/>
</svg>
