<svg width="37" height="37" viewBox="0 0 37 37" fill="none" xmlns="http://www.w3.org/2000/svg">
<path d="M29.7734 1.73438H7.22656C3.87402 1.73438 1.15625 4.45215 1.15625 7.80469V29.1953C1.15625 32.5479 3.87402 35.2656 7.22656 35.2656H29.7734C33.126 35.2656 35.8438 32.5479 35.8438 29.1953V7.80469C35.8438 4.45215 33.126 1.73438 29.7734 1.73438Z" fill="#470137"/>
<path d="M18.9876 11.2215L14.7211 18.5521L19.3186 26.3568C19.4126 26.5158 19.3721 26.5938 19.2001 26.5938H16.3326C16.2616 26.6013 16.19 26.5873 16.1271 26.5535C16.0642 26.5197 16.0129 26.4678 15.9799 26.4045L12.7439 20.4686H12.7193L9.56853 26.4045C9.53956 26.461 9.4957 26.5085 9.4417 26.5419C9.3877 26.5752 9.3256 26.5932 9.26212 26.5938H6.50447C6.34693 26.5938 6.31658 26.5158 6.41052 26.3568L10.9315 18.766L6.62443 11.1738C6.53048 11.0481 6.56228 10.9845 6.71837 10.9845H9.59165C9.65326 10.9801 9.71484 10.9934 9.76914 11.0228C9.82343 11.0523 9.86816 11.0966 9.89806 11.1507L12.9332 17.0158H12.9563L15.9756 11.1507C16.0054 11.0969 16.0499 11.0527 16.1039 11.0232C16.1579 10.9938 16.2192 10.9803 16.2806 10.9845H18.8937C19.0671 10.9845 19.0975 11.064 18.9876 11.2215Z" fill="#FF61F6"/>
<path d="M25.9968 26.8829C24.3203 26.8829 23.0296 26.4074 22.028 25.4578C21.0264 24.5082 20.5234 23.1048 20.5234 21.2461C20.5234 19.5571 21.0621 18.1696 22.1393 17.0836C22.6905 16.5131 23.3533 16.0622 24.0863 15.7588C24.8193 15.4555 25.6069 15.3062 26.4001 15.3204C26.7551 15.314 27.1095 15.3519 27.4552 15.4331V10.5422C27.4525 10.5238 27.4542 10.5052 27.46 10.4876C27.4658 10.47 27.4756 10.454 27.4886 10.4409C27.5017 10.4277 27.5175 10.4177 27.5351 10.4117C27.5526 10.4057 27.5712 10.4039 27.5896 10.4063H30.2316C30.3053 10.4063 30.3429 10.4511 30.3429 10.5422V24.2365C30.3429 24.8146 30.5929 25.3075 30.632 25.7295C30.6399 25.7713 30.633 25.8145 30.6124 25.8518C30.5918 25.889 30.5589 25.9178 30.5192 25.9333C29.2228 26.5663 27.5231 26.8829 25.9968 26.8829ZM27.4609 24.6441V17.6531C27.367 17.4883 26.8698 17.3438 26.3611 17.3438C25.94 17.3329 25.5218 17.4161 25.137 17.5874C24.7522 17.7587 24.4104 18.0137 24.1367 18.3338C23.4701 19.1146 23.1105 20.1112 23.125 21.1377C23.125 22.4038 23.5586 23.271 24.1237 23.8737C24.3908 24.18 24.7198 24.4263 25.089 24.5962C25.4582 24.7661 25.8593 24.8558 26.2657 24.8594C26.8048 24.8594 27.3323 24.7785 27.4609 24.6441Z" fill="#FF61F6"/>
</svg>
