<svg width="47" height="47" viewBox="0 0 47 47" fill="none" xmlns="http://www.w3.org/2000/svg">
<path d="M35.9267 28.9847L32.3218 27.2598C31.9323 27.0727 31.4972 27.0011 31.0682 27.0535C30.6392 27.106 30.2343 27.2804 29.9013 27.5559L23.4999 32.8481C23.3492 32.9748 23.1586 33.0442 22.9618 33.0442C22.7649 33.0442 22.5744 32.9748 22.4236 32.8481L16.0175 27.4666C15.6826 27.1859 15.2733 27.0084 14.8395 26.9558C14.4056 26.9033 13.9658 26.9779 13.5735 27.1705L9.93102 28.9753C8.72416 29.5671 7.70818 30.4866 6.99921 31.6286C6.29025 32.7706 5.91693 34.089 5.92192 35.4331V41.4068C5.9244 42.2213 6.24905 43.0017 6.82496 43.5776C7.40087 44.1535 8.18126 44.4782 8.99572 44.4806H36.909C37.7243 44.4794 38.5059 44.1553 39.0828 43.5793C39.6598 43.0032 39.985 42.2221 39.9875 41.4068V35.4707C39.9832 34.1184 39.6006 32.7943 38.8829 31.6481C38.1653 30.5019 37.1413 29.5793 35.9267 28.9847ZM38.5775 41.4068C38.5763 41.8485 38.3999 42.2717 38.0872 42.5836C37.7744 42.8955 37.3507 43.0706 36.909 43.0706H8.99572C8.55484 43.0694 8.13236 42.8937 7.82061 42.582C7.50886 42.2702 7.33316 41.8477 7.33192 41.4068V35.4331C7.33197 34.3561 7.63413 33.3006 8.20408 32.3867C8.77403 31.4728 9.58891 30.7371 10.5561 30.2631L14.1986 28.4583C14.3145 28.4026 14.4414 28.3737 14.5699 28.3737C14.7678 28.3731 14.9595 28.4431 15.1104 28.5711L21.5118 33.9244C21.9163 34.2633 22.4271 34.449 22.9547 34.449C23.4824 34.449 23.9932 34.2633 24.3976 33.9244L30.8037 28.6181C30.9275 28.5148 31.0784 28.4493 31.2384 28.4293C31.3984 28.4093 31.5607 28.4357 31.7061 28.5053L35.311 30.2537C36.2922 30.729 37.1205 31.4697 37.702 32.3918C38.2835 33.3139 38.595 34.3806 38.601 35.4707L38.5775 41.4068Z" fill="#00A1A5"/>
<path d="M39.8839 9.44693C39.2086 9.44704 38.5542 9.68131 38.0323 10.1098C37.5103 10.5383 37.1532 11.1346 37.0216 11.7969H23.9274V9.91693H30.6108C30.8271 10.4198 31.2158 10.829 31.7069 11.0707C32.1981 11.3125 32.7594 11.371 33.2899 11.2358C33.8203 11.1005 34.2851 10.7804 34.6005 10.333C34.9159 9.88554 35.0613 9.34022 35.0104 8.79516C34.9595 8.2501 34.7158 7.7411 34.323 7.35977C33.9302 6.97844 33.4142 6.74983 32.8679 6.71508C32.3216 6.68032 31.7808 6.84172 31.3429 7.17021C30.905 7.4987 30.5987 7.97271 30.4792 8.50693H23.9274V7.64213H28.3971C28.5841 7.64213 28.7634 7.56785 28.8956 7.43564C29.0278 7.30343 29.1021 7.12411 29.1021 6.93713V4.51663H35.7197C35.9624 5.18358 36.4406 5.73879 37.0642 6.07773C37.6878 6.41668 38.4138 6.51597 39.1055 6.35691C39.7972 6.19786 40.4069 5.79144 40.8198 5.21416C41.2327 4.63688 41.4204 3.92857 41.3474 3.22257C41.2745 2.51657 40.9459 1.8616 40.4237 1.38095C39.9015 0.900304 39.2216 0.627142 38.5119 0.612892C37.8023 0.598642 37.112 0.844287 36.5709 1.30358C36.0298 1.76287 35.6752 2.40413 35.574 3.10663H28.3971C28.2101 3.10663 28.0308 3.18091 27.8986 3.31312C27.7664 3.44533 27.6921 3.62465 27.6921 3.81163V6.23213H23.9321V5.63993C23.9334 5.4566 23.8627 5.28007 23.7353 5.14826C23.6079 5.01644 23.4338 4.93985 23.2506 4.93493H23.1613H22.9592C21.0743 4.93178 19.2298 5.48075 17.6534 6.51404C16.077 7.54733 14.8377 9.0197 14.0887 10.7493C13.3396 12.479 13.1135 14.3901 13.4383 16.2468C13.7631 18.1035 14.6246 19.8244 15.9164 21.197C17.2082 22.5696 18.8737 23.5338 20.7073 23.9705C22.5408 24.4073 24.4622 24.2974 26.234 23.6546C28.0059 23.0117 29.5507 21.8639 30.6776 20.3531C31.8045 18.8422 32.4643 17.0343 32.5754 15.1527C32.5824 15.0563 32.5689 14.9596 32.5357 14.8688C32.5024 14.778 32.4503 14.6954 32.3827 14.6263C32.3172 14.5561 32.2378 14.5003 32.1496 14.4623C32.0615 14.4243 31.9664 14.4049 31.8704 14.4054H23.9274V13.2163H37.0874C37.2441 13.733 37.5413 14.1959 37.9458 14.5535C38.3503 14.9111 38.8462 15.1493 39.3781 15.2415C39.9101 15.3337 40.4572 15.2763 40.9584 15.0758C41.4597 14.8752 41.8954 14.5393 42.2169 14.1056C42.5384 13.6719 42.733 13.1573 42.7792 12.6194C42.8254 12.0815 42.7212 11.5414 42.4782 11.0592C42.2353 10.5771 41.8632 10.1719 41.4035 9.88884C40.9437 9.60581 40.4144 9.45607 39.8745 9.45633L39.8839 9.44693ZM32.7164 8.12153C32.8923 8.1206 33.0645 8.17191 33.2112 8.26895C33.3579 8.36599 33.4724 8.50439 33.5404 8.66662C33.6084 8.82885 33.6266 9.00761 33.5929 9.18023C33.5591 9.35285 33.4749 9.51157 33.3509 9.63627C33.2268 9.76097 33.0686 9.84604 32.8961 9.8807C32.7237 9.91536 32.5448 9.89805 32.3822 9.83095C32.2196 9.76386 32.0806 9.65001 31.9828 9.50383C31.885 9.35765 31.8328 9.18572 31.8328 9.00983C31.8328 8.77505 31.9257 8.54982 32.0913 8.38336C32.2569 8.21691 32.4816 8.12277 32.7164 8.12153ZM38.4739 2.01153C38.7713 2.01153 39.0621 2.09974 39.3095 2.265C39.5568 2.43026 39.7496 2.66516 39.8634 2.93998C39.9772 3.2148 40.007 3.5172 39.949 3.80895C39.8909 4.10069 39.7477 4.36868 39.5374 4.57902C39.327 4.78936 39.059 4.9326 38.7673 4.99063C38.4755 5.04866 38.1731 5.01888 37.8983 4.90505C37.6235 4.79121 37.3886 4.59844 37.2233 4.35111C37.0581 4.10378 36.9699 3.81299 36.9699 3.51553C36.9724 3.11828 37.1319 2.73814 37.4137 2.45811C37.6955 2.17809 38.0766 2.02092 38.4739 2.02093V2.01153ZM31.0902 15.8154C30.8534 17.354 30.1855 18.7939 29.1637 19.9683C28.1419 21.1426 26.8082 22.0033 25.3171 22.4505C23.8261 22.8977 22.2389 22.9131 20.7394 22.4949C19.24 22.0767 17.8898 21.2421 16.8454 20.0877C15.8011 18.9334 15.1053 17.5067 14.8388 15.9731C14.5722 14.4394 14.7459 12.8616 15.3396 11.4226C15.9333 9.98365 16.9227 8.74242 18.1931 7.84288C19.4635 6.94333 20.9629 6.42231 22.5174 6.34023V15.1104C22.5174 15.2974 22.5917 15.4767 22.7239 15.6089C22.8561 15.7412 23.0354 15.8154 23.2224 15.8154H31.0902ZM39.8839 13.8649C39.5864 13.8649 39.2956 13.7767 39.0483 13.6115C38.801 13.4462 38.6082 13.2113 38.4944 12.9365C38.3805 12.6617 38.3507 12.3593 38.4088 12.0675C38.4668 11.7758 38.6101 11.5078 38.8204 11.2974C39.0307 11.0871 39.2987 10.9439 39.5905 10.8858C39.8822 10.8278 40.1846 10.8576 40.4594 10.9714C40.7343 11.0852 40.9691 11.278 41.1344 11.5254C41.2997 11.7727 41.3879 12.0635 41.3879 12.3609C41.3879 12.7598 41.2294 13.1424 40.9474 13.4244C40.6653 13.7065 40.2828 13.8649 39.8839 13.8649Z" fill="#00A1A5"/>
</svg>
