<svg width="44" height="44" viewBox="0 0 44 44" fill="none" xmlns="http://www.w3.org/2000/svg">
<path d="M32.1001 41.8001H11.2893C9.1821 41.8001 7.46777 40.0857 7.46777 37.9786V8.99549C7.46777 6.88816 9.18219 5.17383 11.2893 5.17383H14.28C14.6366 5.17383 14.9257 5.46282 14.9257 5.81931V8.39164H28.4637V5.8194C28.4637 5.46291 28.7526 5.17392 29.1092 5.17392H32.1001C34.2074 5.17392 35.9217 6.88824 35.9217 8.99558V22.699C35.9217 23.0556 35.6327 23.3447 35.276 23.3447C34.9194 23.3447 34.6304 23.0557 34.6304 22.699V8.99549C34.6304 7.60016 33.4954 6.46505 32.1 6.46505H29.7547V8.50797C29.7547 9.15583 29.2277 9.68286 28.5798 9.68286H14.8093C14.1615 9.68286 13.6345 9.15583 13.6345 8.50797V6.46505H11.2893C9.89402 6.46505 8.759 7.60016 8.759 8.99549V37.9785C8.759 39.3738 9.89402 40.5089 11.2893 40.5089H32.1001C33.4954 40.5089 34.6305 39.3738 34.6305 37.9785V32.8208C34.6305 32.4643 34.9195 32.1753 35.2761 32.1753C35.6328 32.1753 35.9218 32.4643 35.9218 32.8208V37.9785C35.9217 40.0857 34.2073 41.8001 32.1001 41.8001Z" fill="#00A1A5"/>
<path d="M16.1361 18.5227H11.6651C11.3085 18.5227 11.0195 18.2338 11.0195 17.8772V13.4059C11.0195 13.0493 11.3084 12.7603 11.6651 12.7603H16.1361C16.4926 12.7603 16.7816 13.0492 16.7816 13.4059V17.8772C16.7816 18.2338 16.4926 18.5227 16.1361 18.5227ZM12.3107 17.2315H15.4905V14.0516H12.3107V17.2315Z" fill="#00A1A5"/>
<path d="M31.934 18.5226H19.6632C19.3067 18.5226 19.0176 18.2337 19.0176 17.8771C19.0176 17.5205 19.3066 17.2314 19.6632 17.2314H31.934C32.2905 17.2314 32.5796 17.5204 32.5796 17.8771C32.5796 18.2337 32.2905 18.5226 31.934 18.5226Z" fill="#00A1A5"/>
<path d="M29.3007 15.8304H19.8371C19.4805 15.8304 19.1914 15.5414 19.1914 15.1847C19.1914 14.8281 19.4804 14.5391 19.8371 14.5391H29.3008C29.6573 14.5391 29.9464 14.8281 29.9464 15.1847C29.9463 15.5414 29.6573 15.8304 29.3007 15.8304Z" fill="#00A1A5"/>
<path d="M20.6515 27.0178H11.6651C11.3085 27.0178 11.0195 26.7289 11.0195 26.3722C11.0195 26.0156 11.3084 25.7266 11.6651 25.7266H20.6514C21.008 25.7266 21.2971 26.0156 21.2971 26.3722C21.2971 26.7289 21.0081 27.0178 20.6515 27.0178Z" fill="#00A1A5"/>
<path d="M22.3227 24.3254H11.9523C11.5957 24.3254 11.3066 24.0364 11.3066 23.6797C11.3066 23.3233 11.5956 23.0342 11.9523 23.0342H22.3227C22.6791 23.0342 22.9682 23.3232 22.9682 23.6797C22.9681 24.0363 22.6791 24.3254 22.3227 24.3254Z" fill="#00A1A5"/>
<path d="M21.4283 35.5129H11.6651C11.3085 35.5129 11.0195 35.2239 11.0195 34.8673C11.0195 34.5108 11.3084 34.2217 11.6651 34.2217H21.4283C21.7848 34.2217 22.0739 34.5107 22.0739 34.8673C22.0738 35.2239 21.7848 35.5129 21.4283 35.5129Z" fill="#00A1A5"/>
<path d="M20.3455 32.8205H11.9523C11.5957 32.8205 11.3066 32.5315 11.3066 32.1749C11.3066 31.8184 11.5956 31.5293 11.9523 31.5293H20.3455C20.702 31.5293 20.9911 31.8183 20.9911 32.1749C20.991 32.5314 20.702 32.8205 20.3455 32.8205Z" fill="#00A1A5"/>
<path d="M25.506 6.72912H17.8838C17.3664 6.72912 16.9453 6.30804 16.9453 5.7906V3.13889C16.9453 2.62145 17.3664 2.2002 17.8838 2.2002H25.506C26.0235 2.2002 26.4447 2.62136 26.4447 3.13889V5.7906C26.4447 6.30804 26.0235 6.72912 25.506 6.72912ZM18.2364 5.43798H25.1535V3.49133H18.2364V5.43798Z" fill="#00A1A5"/>
<path d="M28.5802 9.68312H14.8097C14.1618 9.68312 13.6348 9.15608 13.6348 8.50823V5.52987C13.6348 4.8821 14.1618 4.35498 14.8097 4.35498H17.5906C17.9472 4.35498 18.2363 4.64397 18.2363 5.00064V5.43817H25.1534V5.00064C25.1534 4.64406 25.4424 4.35498 25.799 4.35498H28.5802C29.228 4.35498 29.7551 4.8821 29.7551 5.52987V8.50814C29.755 9.15609 29.228 9.68312 28.5802 9.68312ZM14.9259 8.39189H28.4639V5.6462H26.4447V5.7907C26.4447 6.30814 26.0235 6.72922 25.506 6.72922H17.8838C17.3663 6.72922 16.9452 6.30814 16.9452 5.7907V5.6462H14.926V8.39189H14.9259Z" fill="#00A1A5"/>
<path d="M29.3007 37.2796C25.3135 37.2796 22.0693 34.0355 22.0693 30.0481C22.0693 26.0605 25.3135 22.8164 29.3007 22.8164C33.2883 22.8164 36.5323 26.0606 36.5323 30.0481C36.5324 34.0355 33.2883 37.2796 29.3007 37.2796ZM29.3007 24.1075C26.0254 24.1075 23.3606 26.7724 23.3606 30.048C23.3606 33.3235 26.0254 35.9884 29.3007 35.9884C32.5764 35.9884 35.2412 33.3235 35.2412 30.048C35.2413 26.7724 32.5764 24.1075 29.3007 24.1075Z" fill="#00A1A5"/>
<path d="M29.3008 34.6779C26.7479 34.6779 24.6709 32.601 24.6709 30.0481C24.6709 27.495 26.7479 25.418 29.3008 25.418C29.5201 25.418 29.7408 25.4336 29.957 25.4642C30.3099 25.5143 30.5554 25.8413 30.5055 26.1942C30.4553 26.5474 30.1264 26.7914 29.7754 26.7427C29.6193 26.7205 29.4597 26.7092 29.3008 26.7092C27.4599 26.7092 25.9621 28.2069 25.9621 30.0481C25.9621 31.8891 27.4598 33.3867 29.3008 33.3867C31.142 33.3867 32.6397 31.8891 32.6397 30.0481C32.6397 29.1185 32.2478 28.224 31.5644 27.5933C31.3023 27.3517 31.2859 26.9432 31.5278 26.6812C31.7694 26.4194 32.1779 26.4025 32.4399 26.6446C33.3874 27.5187 33.9309 28.7592 33.9309 30.0481C33.931 32.601 31.8539 34.6779 29.3008 34.6779Z" fill="#00A1A5"/>
<path d="M29.5498 31.9928C29.4036 31.9928 29.2604 31.9431 29.1446 31.8498L27.3428 30.3975C27.0654 30.1738 27.0218 29.7673 27.2455 29.4896C27.4689 29.2122 27.8751 29.1684 28.1533 29.3923L29.369 30.3723L31.6502 26.44C31.8291 26.1313 32.2237 26.0264 32.5326 26.2057C32.8411 26.3844 32.9459 26.7796 32.7669 27.0881L30.1081 31.6712C30.0138 31.8342 29.8527 31.9476 29.6675 31.9819C29.6285 31.9893 29.5889 31.9928 29.5498 31.9928Z" fill="#00A1A5"/>
</svg>
