<svg width="38" height="38" viewBox="0 0 38 38" fill="none" xmlns="http://www.w3.org/2000/svg">
<g clip-path="url(#clip0_4847_375)">
<path d="M36.2821 14.6261H33.6677C33.5793 14.6281 33.493 14.5992 33.4237 14.5444C33.3543 14.4896 33.3062 14.4123 33.2877 14.3259C33.06 13.4949 32.7612 12.685 32.3947 11.9053C32.3586 11.8348 32.3454 11.7548 32.3569 11.6764C32.3685 11.5981 32.4043 11.5253 32.4593 11.4683L34.2377 9.6899C34.5208 9.40511 34.6797 9.01986 34.6797 8.6183C34.6797 8.21673 34.5208 7.83149 34.2377 7.5467L30.3541 3.6555C30.2128 3.51303 30.0447 3.39995 29.8594 3.32278C29.6742 3.24561 29.4755 3.20588 29.2749 3.20588C29.0742 3.20588 28.8755 3.24561 28.6903 3.32278C28.5051 3.39995 28.337 3.51303 28.1957 3.6555L26.6453 5.2097C26.5837 5.271 26.5029 5.30935 26.4165 5.31834C26.3301 5.32733 26.2432 5.30642 26.1703 5.2591C25.3359 4.79638 24.4592 4.41464 23.5521 4.1191C23.473 4.09782 23.4028 4.05155 23.3522 3.98718C23.3015 3.92281 23.273 3.84379 23.2709 3.7619V1.6035C23.2709 1.20037 23.1107 0.813749 22.8257 0.528694C22.5406 0.243638 22.154 0.0834961 21.7509 0.0834961H16.2523C15.8491 0.0834961 15.4625 0.243638 15.1775 0.528694C14.8924 0.813749 14.7323 1.20037 14.7323 1.6035V3.7657C14.7302 3.84759 14.7016 3.92661 14.651 3.99098C14.6003 4.05535 14.5302 4.10162 14.4511 4.1229C13.5439 4.41844 12.6672 4.80018 11.8329 5.2629C11.76 5.31022 11.6731 5.33113 11.5866 5.32214C11.5002 5.31315 11.4195 5.2748 11.3579 5.2135L9.79987 3.6555C9.6587 3.51417 9.49106 3.40206 9.30654 3.32557C9.12201 3.24907 8.92422 3.2097 8.72447 3.2097C8.52471 3.2097 8.32692 3.24907 8.1424 3.32557C7.95787 3.40206 7.79023 3.51417 7.64907 3.6555L3.75407 7.5467C3.47096 7.83149 3.31206 8.21673 3.31206 8.6183C3.31206 9.01986 3.47096 9.40511 3.75407 9.6899L5.53247 11.4683C5.58826 11.5256 5.62454 11.5991 5.63614 11.6782C5.64774 11.7574 5.63406 11.8382 5.59707 11.9091C5.23111 12.6878 4.93236 13.4963 4.70407 14.3259C4.68553 14.4123 4.63744 14.4896 4.56808 14.5444C4.49872 14.5992 4.41243 14.6281 4.32407 14.6261H1.71727C1.31414 14.6261 0.927519 14.7862 0.642463 15.0713C0.357408 15.3563 0.197266 15.743 0.197266 16.1461V21.6599C0.197266 22.063 0.357408 22.4496 0.642463 22.7347C0.927519 23.0198 1.31414 23.1799 1.71727 23.1799H4.75727C4.83722 23.181 4.91478 23.2073 4.97892 23.2551C5.04305 23.3028 5.09049 23.3696 5.11447 23.4459C5.37068 24.1274 5.67678 24.7892 6.03027 25.4257C6.07376 25.4971 6.09249 25.5808 6.08356 25.664C6.07463 25.7471 6.03853 25.825 5.98087 25.8855L3.75407 28.1199C3.47212 28.4045 3.31395 28.789 3.31395 29.1896C3.31395 29.5902 3.47212 29.9747 3.75407 30.2593L7.64907 34.1429C7.79276 34.2845 7.9632 34.396 8.15044 34.471C8.33768 34.5461 8.53798 34.5831 8.73967 34.5799C8.93997 34.5806 9.13844 34.5416 9.32364 34.4653C9.50885 34.389 9.67715 34.2769 9.81887 34.1353L12.2471 31.7033C12.3052 31.645 12.3808 31.6071 12.4624 31.5955C12.5439 31.5838 12.6271 31.599 12.6993 31.6387C13.2638 31.91 13.8451 32.1448 14.4397 32.3417C14.5226 32.364 14.5955 32.4136 14.6466 32.4826C14.6976 32.5517 14.7238 32.6359 14.7209 32.7217V36.2101C14.7209 36.6132 14.881 36.9998 15.1661 37.2849C15.4511 37.57 15.8377 37.7301 16.2409 37.7301H21.7509C22.154 37.7301 22.5406 37.57 22.8257 37.2849C23.1107 36.9998 23.2709 36.6132 23.2709 36.2101V32.7027C23.2679 32.6169 23.2941 32.5326 23.3452 32.4636C23.3962 32.3946 23.4692 32.345 23.5521 32.3227C24.1542 32.1292 24.7432 31.8969 25.3153 31.6273C25.3875 31.5876 25.4706 31.5724 25.5522 31.5841C25.6337 31.5957 25.7093 31.6336 25.7675 31.6919L28.1995 34.1239C28.4792 34.4094 28.8601 34.5732 29.2597 34.5799C29.46 34.5806 29.6584 34.5416 29.8436 34.4653C30.0289 34.389 30.1972 34.2769 30.3389 34.1353L34.2453 30.2479C34.5272 29.9633 34.6854 29.5788 34.6854 29.1782C34.6854 28.7776 34.5272 28.3931 34.2453 28.1085L32.0109 25.8741C31.9532 25.8136 31.9171 25.7357 31.9082 25.6526C31.8992 25.5694 31.918 25.4857 31.9615 25.4143C32.3157 24.7768 32.6218 24.1138 32.8773 23.4307C32.9019 23.3551 32.9496 23.2892 33.0137 23.2421C33.0778 23.1951 33.155 23.1694 33.2345 23.1685H36.2745C36.6776 23.1685 37.0642 23.0084 37.3493 22.7233C37.6343 22.4382 37.7945 22.0516 37.7945 21.6485V16.1423C37.7935 15.7411 37.6339 15.3566 37.3506 15.0726C37.0673 14.7886 36.6832 14.6281 36.2821 14.6261ZM36.6621 21.6523C36.6621 21.7531 36.622 21.8497 36.5508 21.921C36.4795 21.9923 36.3829 22.0323 36.2821 22.0323H33.2421C32.9303 22.0332 32.6264 22.1299 32.3715 22.3094C32.1166 22.4888 31.9231 22.7423 31.8171 23.0355C31.5826 23.6665 31.3006 24.2788 30.9735 24.8671C30.8095 25.1551 30.7441 25.4888 30.7873 25.8174C30.8305 26.146 30.98 26.4515 31.2129 26.6873L33.4397 28.9141C33.5082 28.985 33.5464 29.0796 33.5464 29.1782C33.5464 29.2767 33.5082 29.3714 33.4397 29.4423L29.5447 33.3373C29.5093 33.3729 29.4673 33.4012 29.421 33.4205C29.3747 33.4398 29.325 33.4497 29.2749 33.4497C29.2247 33.4497 29.175 33.4398 29.1287 33.4205C29.0824 33.4012 29.0404 33.3729 29.0051 33.3373L26.5731 30.9053C26.3474 30.6836 26.059 30.5366 25.7471 30.4843C25.4351 30.4319 25.1145 30.4768 24.8289 30.6127C24.3018 30.8642 23.7584 31.08 23.2025 31.2587C22.8935 31.3541 22.623 31.5455 22.4302 31.8052C22.2375 32.0649 22.1326 32.3793 22.1309 32.7027V36.1911C22.1309 36.2919 22.0908 36.3885 22.0196 36.4598C21.9483 36.5311 21.8517 36.5711 21.7509 36.5711H16.2523C16.1515 36.5711 16.0548 36.5311 15.9836 36.4598C15.9123 36.3885 15.8723 36.2919 15.8723 36.1911V32.7027C15.8705 32.3793 15.7656 32.0649 15.5729 31.8052C15.3802 31.5455 15.1097 31.3541 14.8007 31.2587C14.2452 31.0787 13.7019 30.8629 13.1743 30.6127C12.9646 30.5156 12.7365 30.465 12.5055 30.4645C12.1028 30.4632 11.716 30.6217 11.4301 30.9053L8.99807 33.3373C8.96274 33.3729 8.92071 33.4012 8.8744 33.4205C8.8281 33.4398 8.77843 33.4497 8.72827 33.4497C8.6781 33.4497 8.62843 33.4398 8.58213 33.4205C8.53582 33.4012 8.49379 33.3729 8.45847 33.3373L4.55967 29.4423C4.49117 29.3714 4.45289 29.2767 4.45289 29.1782C4.45289 29.0796 4.49117 28.985 4.55967 28.9141L6.79027 26.6835C7.02316 26.4477 7.17259 26.1422 7.21581 25.8136C7.25903 25.485 7.19366 25.1513 7.02967 24.8633C6.70401 24.2742 6.42205 23.6621 6.18607 23.0317C6.07844 22.7413 5.88465 22.4907 5.63066 22.3134C5.37667 22.1362 5.07459 22.0407 4.76487 22.0399H1.72487C1.62408 22.0399 1.52743 21.9999 1.45617 21.9286C1.3849 21.8573 1.34487 21.7607 1.34487 21.6599V16.1423C1.34487 16.0415 1.3849 15.9449 1.45617 15.8736C1.52743 15.8023 1.62408 15.7623 1.72487 15.7623H4.33167C4.66828 15.7597 4.99475 15.6468 5.26105 15.4409C5.52735 15.2349 5.7188 14.9474 5.80607 14.6223C6.01362 13.8561 6.28828 13.1097 6.62687 12.3917C6.764 12.1085 6.80987 11.7897 6.75814 11.4794C6.70641 11.169 6.55964 10.8823 6.33807 10.6589L4.55967 8.8843C4.4923 8.81363 4.45471 8.71973 4.45471 8.6221C4.45471 8.52446 4.4923 8.43057 4.55967 8.3599L8.45467 4.4611C8.48999 4.42548 8.53202 4.39721 8.57833 4.37792C8.62463 4.35862 8.6743 4.34869 8.72447 4.34869C8.77463 4.34869 8.8243 4.35862 8.8706 4.37792C8.91691 4.39721 8.95894 4.42548 8.99427 4.4611L10.5485 6.0153C10.7849 6.2523 11.093 6.40461 11.4249 6.44859C11.7567 6.49256 12.0939 6.42574 12.3839 6.2585C13.152 5.8308 13.9602 5.47952 14.7969 5.2097C15.1059 5.1143 15.3764 4.92284 15.5691 4.66315C15.7618 4.40346 15.8667 4.08908 15.8685 3.7657V1.6035C15.8685 1.50271 15.9085 1.40606 15.9798 1.3348C16.051 1.26353 16.1477 1.2235 16.2485 1.2235H21.7509C21.8517 1.2235 21.9483 1.26353 22.0196 1.3348C22.0908 1.40606 22.1309 1.50271 22.1309 1.6035V3.7657C22.1326 4.08908 22.2375 4.40346 22.4302 4.66315C22.623 4.92284 22.8935 5.1143 23.2025 5.2097C24.0385 5.47974 24.8466 5.82969 25.6155 6.2547C25.9051 6.42242 26.242 6.48987 26.5738 6.44658C26.9057 6.40329 27.214 6.25169 27.4509 6.0153L29.0051 4.4611C29.0404 4.42548 29.0824 4.39721 29.1287 4.37792C29.175 4.35862 29.2247 4.34869 29.2749 4.34869C29.325 4.34869 29.3747 4.35862 29.421 4.37792C29.4673 4.39721 29.5093 4.42548 29.5447 4.4611L33.4397 8.3599C33.5093 8.43093 33.5483 8.52643 33.5483 8.6259C33.5483 8.72536 33.5093 8.82086 33.4397 8.8919L31.6613 10.6703C31.4397 10.8937 31.2929 11.1804 31.2412 11.4908C31.1895 11.8011 31.2353 12.1199 31.3725 12.4031C31.7111 13.1211 31.9857 13.8675 32.1933 14.6337C32.2805 14.9588 32.472 15.2463 32.7383 15.4523C33.0046 15.6582 33.3311 15.7711 33.6677 15.7737H36.2821C36.3829 15.7737 36.4795 15.8137 36.5508 15.885C36.622 15.9563 36.6621 16.0529 36.6621 16.1537V21.6523ZM27.9221 10.3169H25.9575C25.4989 10.3169 25.0591 10.4991 24.7349 10.8233C24.4106 11.1476 24.2285 11.5873 24.2285 12.0459V25.2091C24.2274 25.5176 24.3275 25.818 24.5135 26.0641L25.7523 27.7019C25.8823 27.8748 26.0503 28.0154 26.2434 28.1129C26.4365 28.2105 26.6494 28.2622 26.8657 28.2643H26.8885C27.1009 28.2654 27.3108 28.2188 27.5028 28.128C27.6948 28.0373 27.8641 27.9047 27.9981 27.7399L29.3243 26.0907C29.5284 25.8378 29.6397 25.5227 29.6397 25.1977V12.0459C29.6392 11.8183 29.5939 11.5931 29.5063 11.3831C29.4188 11.173 29.2907 10.9823 29.1295 10.8217C28.9682 10.6612 28.7769 10.534 28.5665 10.4473C28.356 10.3607 28.1306 10.3164 27.9031 10.3169H27.9221ZM25.9765 11.4569H27.9221C28.076 11.4608 28.2223 11.5245 28.3301 11.6344C28.4379 11.7444 28.4987 11.8919 28.4997 12.0459V13.2771H25.3685V12.0459C25.3695 11.89 25.4318 11.7408 25.5421 11.6305C25.6523 11.5203 25.8016 11.4579 25.9575 11.4569H25.9765ZM28.4997 25.1977C28.4986 25.2598 28.4772 25.3198 28.4389 25.3687L27.1089 27.0179C27.0816 27.051 27.0474 27.0777 27.0086 27.096C26.9699 27.1144 26.9276 27.1241 26.8847 27.1243C26.8413 27.1247 26.7984 27.115 26.7595 27.0959C26.7205 27.0767 26.6866 27.0487 26.6605 27.0141L25.4217 25.3763C25.3866 25.3277 25.3679 25.2691 25.3685 25.2091V14.4171H28.4997V25.1977ZM27.5003 16.2259V22.5339C27.5003 22.6851 27.4402 22.8301 27.3333 22.9369C27.2264 23.0438 27.0814 23.1039 26.9303 23.1039C26.7791 23.1039 26.6341 23.0438 26.5272 22.9369C26.4203 22.8301 26.3603 22.6851 26.3603 22.5339V16.2259C26.3603 16.0747 26.4203 15.9297 26.5272 15.8228C26.6341 15.7159 26.7791 15.6559 26.9303 15.6559C27.0814 15.6559 27.2264 15.7159 27.3333 15.8228C27.4402 15.9297 27.5003 16.0747 27.5003 16.2259ZM16.3397 12.1599C15.8191 11.3011 14.5841 11.0921 13.8735 11.1187C13.7755 11.1213 13.6798 11.1492 13.5957 11.1996C13.5116 11.25 13.4419 11.3212 13.3934 11.4064C13.3449 11.4916 13.3191 11.5879 13.3187 11.6859C13.3183 11.784 13.3431 11.8805 13.3909 11.9661L13.8887 12.9199L8.58767 16.9327C8.49673 17.0028 8.42893 17.0986 8.39303 17.2077C8.35712 17.3167 8.35477 17.4341 8.38627 17.5445L8.99807 19.6535C9.03465 19.7863 9.1187 19.901 9.23427 19.976C9.34984 20.0509 9.4889 20.0809 9.62507 20.0601L11.4377 19.7979C11.5249 19.7851 11.608 19.7522 11.6804 19.7019C11.7528 19.6515 11.8125 19.5851 11.8549 19.5077C11.8972 19.4304 11.9211 19.3442 11.9245 19.2561C11.9279 19.168 11.9109 19.0803 11.8747 18.9999C11.8164 18.8769 11.7669 18.7499 11.7265 18.6199C11.7835 18.6465 11.8519 18.6845 11.9279 18.7301C12.4421 19.0234 13.0116 19.2066 13.6003 19.2681C14.1891 19.3296 14.7842 19.268 15.3479 19.0873C15.1959 19.5623 14.7703 20.2881 13.6417 21.1887C11.1527 23.1837 10.8221 25.1369 10.8449 26.1287C10.8576 26.4886 11.0091 26.8297 11.2677 27.0804C11.5262 27.3312 11.8717 27.4722 12.2319 27.4739H20.7325C20.8176 27.4727 20.9014 27.4524 20.9777 27.4146C21.054 27.3768 21.1209 27.3223 21.1734 27.2552C21.2259 27.1882 21.2627 27.1102 21.2811 27.027C21.2995 26.9439 21.299 26.8576 21.2797 26.7747V26.6569C21.2127 26.2727 21.2825 25.8772 21.4769 25.5391C21.6713 25.201 21.978 24.9418 22.3437 24.8063C22.4457 24.7704 22.5355 24.7064 22.6027 24.6217C22.67 24.537 22.7119 24.435 22.7237 24.3275C23.6471 14.7059 17.7609 12.5399 16.3397 12.1599ZM21.5951 23.8905C21.1552 24.1256 20.7856 24.4732 20.5239 24.8977C20.2622 25.3223 20.1178 25.8087 20.1055 26.3073H12.2319C12.1689 26.3074 12.1083 26.2835 12.0624 26.2404C12.0165 26.1973 11.9887 26.1383 11.9849 26.0755C11.9659 25.2965 12.2471 23.7423 14.3561 22.0551C17.1529 19.8169 16.5373 18.1677 16.4575 17.9853C16.425 17.9126 16.3779 17.8474 16.319 17.7938C16.2602 17.7401 16.1909 17.6993 16.1155 17.6737C16.0564 17.6556 15.9949 17.6466 15.9331 17.6471C15.8358 17.6463 15.7401 17.6712 15.6557 17.7193C15.5873 17.7573 14.0217 18.6123 12.5055 17.7193C12.1939 17.5369 11.3655 17.0543 10.8183 17.5521C10.6742 17.7146 10.5769 17.9132 10.5367 18.1267C10.4966 18.3402 10.5151 18.5605 10.5903 18.7643L9.95187 18.8593L9.57187 17.6015L14.9679 13.5165C15.0776 13.4351 15.1539 13.3165 15.1825 13.183C15.2112 13.0494 15.1903 12.91 15.1237 12.7907L14.9413 12.4563C15.0389 12.4858 15.1296 12.5347 15.2079 12.5999C15.2862 12.6652 15.3506 12.7456 15.3973 12.8363C15.4304 12.9344 15.4897 13.0216 15.5687 13.0885C15.6477 13.1555 15.7435 13.1997 15.8457 13.2163C16.1155 13.2733 22.3855 14.4133 21.5951 23.8905ZM16.0053 15.5533C16.006 15.6865 15.9672 15.8169 15.8938 15.928C15.8203 16.0391 15.7155 16.1259 15.5927 16.1774C15.4699 16.2289 15.3345 16.2428 15.2038 16.2172C15.0731 16.1917 14.9529 16.128 14.8584 16.034C14.764 15.9401 14.6995 15.8203 14.6733 15.6897C14.647 15.5591 14.6601 15.4237 14.7109 15.3006C14.7617 15.1775 14.8479 15.0722 14.9586 14.9981C15.0693 14.924 15.1995 14.8845 15.3327 14.8845C15.4208 14.884 15.5082 14.9009 15.5898 14.9343C15.6714 14.9677 15.7455 15.0169 15.808 15.079C15.8705 15.1412 15.9201 15.2151 15.954 15.2965C15.9878 15.3779 16.0053 15.4651 16.0053 15.5533Z" fill="#00A1A5"/>
</g>
<defs>
<clipPath id="clip0_4847_375">
<rect width="38" height="38" fill="white"/>
</clipPath>
</defs>
</svg>
