<svg width="38" height="38" viewBox="0 0 38 38" fill="none" xmlns="http://www.w3.org/2000/svg">
<path d="M34.7718 21.5409H27.3859C26.7741 21.5409 26.2763 22.0386 26.2763 22.6504V36.3338C26.2763 36.9456 26.7741 37.4434 27.3859 37.4434H34.7718C35.3836 37.4434 35.8814 36.9456 35.8814 36.3338V22.6504C35.8814 22.0386 35.3836 21.5409 34.7718 21.5409ZM34.8423 36.3338C34.8423 36.3713 34.8093 36.4043 34.7718 36.4043H27.3859C27.3484 36.4043 27.3154 36.3713 27.3154 36.3338V22.6504C27.3154 22.6128 27.3484 22.5799 27.3859 22.5799H34.7718C34.8093 22.5799 34.8423 22.6128 34.8423 22.6504V36.3338ZM22.6927 16.6145H15.3069C14.6951 16.6145 14.1973 17.1123 14.1973 17.7241V36.3338C14.1973 36.9456 14.6951 37.4434 15.3069 37.4434H22.6927C23.3045 37.4434 23.8023 36.9456 23.8023 36.3338V17.7241C23.8023 17.1123 23.3045 16.6145 22.6927 16.6145ZM22.7632 36.3338C22.7632 36.3713 22.7302 36.4043 22.6927 36.4043H15.3069C15.2693 36.4043 15.2364 36.3713 15.2364 36.3338V17.7241C15.2364 17.6866 15.2693 17.6536 15.3069 17.6536H22.6927C22.7302 17.6536 22.7632 17.6866 22.7632 17.7241V36.3338ZM6.92068 14.3748C3.96782 14.3748 1.56543 16.7771 1.56543 19.7299C1.56543 22.6828 3.96782 25.0852 6.92068 25.0852C9.87355 25.0852 12.2759 22.6828 12.2759 19.7299C12.2759 16.7771 9.87355 14.3748 6.92068 14.3748ZM6.92068 24.0462C4.54071 24.0462 2.60449 22.11 2.60449 19.73C2.60449 17.35 4.54071 15.4139 6.92068 15.4139C9.30066 15.4139 11.2369 17.3501 11.2369 19.73C11.2369 22.1099 9.30066 24.0462 6.92068 24.0462ZM8.80851 20.9154C8.75211 21.3786 8.46191 21.7829 8.03233 21.9966C7.8548 22.0849 7.653 22.1472 7.43992 22.1835V22.5154C7.43992 22.8023 7.20732 23.0349 6.92039 23.0349C6.63346 23.0349 6.40086 22.8023 6.40086 22.5154V22.1624C5.84221 22.0468 5.33515 21.7617 5.08607 21.3067C4.94832 21.055 5.04065 20.7392 5.29232 20.6016C5.54407 20.4638 5.85973 20.5561 5.99748 20.8077C6.18993 21.1593 7.08604 21.3069 7.5695 21.0663C7.68543 21.0087 7.76307 20.9052 7.77709 20.7896C7.786 20.7166 7.79951 20.6062 7.55911 20.4651C7.34061 20.3368 7.07907 20.2745 6.77625 20.2023C6.65557 20.1735 6.53066 20.1439 6.40323 20.1082C6.01692 20.0005 5.53636 19.8174 5.24712 19.3543C4.93355 18.8525 5.00688 18.2193 5.42963 17.7787C5.69036 17.5071 6.04179 17.3552 6.40071 17.2855V16.9445C6.40071 16.6576 6.63331 16.425 6.92024 16.425C7.20717 16.425 7.43977 16.6576 7.43977 16.9445V17.2906C8.0071 17.4054 8.45085 17.6978 8.67165 18.1075C8.8077 18.3602 8.71329 18.6752 8.46065 18.8113C8.20793 18.9475 7.89288 18.8528 7.75691 18.6003C7.67809 18.4539 7.43346 18.3329 7.13377 18.2922C6.75213 18.2399 6.34193 18.3287 6.17924 18.4982C6.11244 18.5678 6.04936 18.6773 6.12832 18.8036C6.20737 18.9302 6.37302 19.0211 6.68237 19.1073C6.79073 19.1375 6.90064 19.1637 7.01702 19.1914C7.36882 19.2753 7.73264 19.3619 8.08532 19.569C8.61925 19.8828 8.87605 20.3608 8.80844 20.9153L8.80851 20.9154ZM10.6136 26.5506H3.22778C2.616 26.5506 2.11821 27.0484 2.11821 27.6601V36.3338C2.11821 36.9456 2.616 37.4434 3.22778 37.4434H10.6136C11.2254 37.4434 11.7232 36.9456 11.7232 36.3338V27.6601C11.7232 27.0484 11.2254 26.5506 10.6136 26.5506ZM10.6841 36.3338C10.6841 36.3713 10.6511 36.4043 10.6136 36.4043H3.22778C3.19023 36.4043 3.15727 36.3713 3.15727 36.3338V27.6601C3.15727 27.6226 3.19023 27.5897 3.22778 27.5897H10.6136C10.6511 27.5897 10.6841 27.6226 10.6841 27.6601V36.3338ZM31.0789 20.1125C34.0318 20.1125 36.4341 17.7102 36.4341 14.7574C36.4341 11.8045 34.0318 9.40211 31.0789 9.40211C28.126 9.40211 25.7236 11.8045 25.7236 14.7574C25.7236 17.7102 28.126 20.1125 31.0789 20.1125ZM31.0789 10.4411C33.4589 10.4411 35.3951 12.3773 35.3951 14.7573C35.3951 17.1373 33.4589 19.0734 31.0789 19.0734C28.6989 19.0734 26.7627 17.1372 26.7627 14.7573C26.7627 12.3774 28.6989 10.4411 31.0789 10.4411ZM31.9354 15.817C31.9443 15.7439 31.9577 15.6337 31.7174 15.4926C31.4987 15.3642 31.237 15.3018 30.934 15.2296C30.8134 15.2009 30.6888 15.1712 30.5614 15.1357C30.175 15.0279 29.6945 14.8447 29.4053 14.3817C29.0916 13.8799 29.1649 13.2466 29.5878 12.8061C29.8486 12.5345 30.1999 12.3826 30.5588 12.313V11.9719C30.5588 11.685 30.7914 11.4524 31.0784 11.4524C31.3653 11.4524 31.5979 11.685 31.5979 11.9719V12.3181C32.1652 12.4329 32.609 12.7252 32.8297 13.1349C32.9658 13.3875 32.8714 13.7026 32.6188 13.8387C32.366 13.9748 32.0511 13.8804 31.915 13.6277C31.8362 13.4814 31.5916 13.3604 31.2919 13.3196C30.9104 13.2678 30.5 13.3562 30.3374 13.5256C30.2706 13.5952 30.2075 13.7047 30.2865 13.8311C30.3655 13.9577 30.5312 14.0485 30.8406 14.1348C30.9487 14.1649 31.0585 14.1911 31.1747 14.2188C31.5267 14.3026 31.8906 14.3893 32.2435 14.5965C32.7774 14.9101 33.0343 15.3881 32.9666 15.9427C32.9102 16.406 32.62 16.8102 32.1904 17.0239C32.0129 17.1122 31.8111 17.1745 31.598 17.2108V17.5426C31.598 17.8296 31.3654 18.0622 31.0784 18.0622C30.7915 18.0622 30.5589 17.8296 30.5589 17.5426V17.1897C30.0003 17.0741 29.4932 16.7889 29.2441 16.334C29.1064 16.0822 29.1987 15.7665 29.4504 15.6288C29.7021 15.491 30.0178 15.5835 30.1555 15.835C30.348 16.1866 31.2441 16.3341 31.7276 16.0936C31.8435 16.0359 31.9211 15.9325 31.9352 15.8169L31.9354 15.817ZM18.9998 4.54026C16.0469 4.54026 13.6445 6.94264 13.6445 9.89551C13.6445 12.8484 16.0469 15.2508 18.9998 15.2508C21.9527 15.2508 24.355 12.8485 24.355 9.89551C24.355 6.94257 21.9527 4.54026 18.9998 4.54026ZM18.9998 14.2117C16.6198 14.2117 14.6836 12.2755 14.6836 9.89551C14.6836 7.51554 16.6198 5.57932 18.9998 5.57932C21.3798 5.57932 23.316 7.51554 23.316 9.89551C23.316 12.2755 21.3798 14.2117 18.9998 14.2117ZM20.8877 11.0809C20.8312 11.5442 20.541 11.9483 20.1114 12.1621C19.9339 12.2504 19.7321 12.3127 19.519 12.349V12.6809C19.519 12.9678 19.2864 13.2004 18.9995 13.2004C18.7126 13.2004 18.48 12.9678 18.48 12.6809V12.3279C17.9213 12.2123 17.4143 11.9272 17.1652 11.4722C17.0274 11.2205 17.1198 10.9047 17.3714 10.7671C17.6231 10.6292 17.9388 10.7217 18.0766 10.9733C18.269 11.3249 19.1651 11.4724 19.6486 11.2319C19.7645 11.1742 19.8422 11.0708 19.8563 10.9551C19.8652 10.8822 19.8786 10.7719 19.6383 10.6307C19.4196 10.5023 19.1581 10.4401 18.8552 10.3678C18.7346 10.3391 18.6098 10.3094 18.4824 10.2739C18.096 10.166 17.6155 9.98302 17.3263 9.51989C17.0127 9.01802 17.086 8.38479 17.5088 7.9443C17.7695 7.67266 18.121 7.52066 18.4799 7.45112V7.11008C18.4799 6.82315 18.7125 6.59055 18.9994 6.59055C19.2863 6.59055 19.5189 6.82315 19.5189 7.11008V7.45624C20.0863 7.57105 20.53 7.8634 20.7508 8.27309C20.8869 8.52573 20.7925 8.84079 20.5399 8.97691C20.2871 9.11295 19.9722 9.01847 19.8361 8.76598C19.7573 8.61954 19.5126 8.49864 19.2129 8.45782C18.8314 8.40587 18.421 8.49441 18.2584 8.66385C18.1916 8.73347 18.1285 8.84294 18.2075 8.96934C18.2865 9.09588 18.4522 9.18665 18.7615 9.27297C18.8698 9.30317 18.9796 9.3293 19.0959 9.35698C19.4478 9.44077 19.8117 9.52746 20.1644 9.73468C20.6984 10.0483 20.9552 10.5263 20.8876 11.0808L20.8877 11.0809ZM17.3718 1.90208C17.3336 1.86623 17.3204 1.81487 17.3366 1.76507C17.3528 1.71527 17.3937 1.6815 17.4456 1.67497L18.45 1.54872L18.8805 0.632492C18.9028 0.585141 18.9475 0.556641 18.9999 0.556641C19.0523 0.556641 19.0971 0.585066 19.1194 0.632492L19.5498 1.54872L20.5542 1.67497C20.6062 1.6815 20.6471 1.71527 20.6633 1.76507C20.6794 1.81487 20.6662 1.86623 20.628 1.90208L19.8897 2.59461L20.08 3.58885C20.0898 3.64028 20.0703 3.68956 20.0279 3.72036C19.9856 3.75109 19.9326 3.75443 19.8868 3.7292L18.9999 3.24098L18.1132 3.7292C18.0673 3.75443 18.0144 3.75109 17.972 3.72036C17.9296 3.68956 17.9101 3.64021 17.92 3.58885L18.1103 2.59461L17.3719 1.90208H17.3718ZM22.3491 3.68184L23.1127 2.48529C23.2671 2.24341 23.5883 2.17261 23.8301 2.32683C24.072 2.48121 24.1429 2.80235 23.9886 3.04423L23.225 4.24079C23.1259 4.39605 22.958 4.48088 22.7866 4.48088C22.6909 4.48088 22.5941 4.45454 22.5076 4.39924C22.2657 4.24487 22.1947 3.92372 22.3491 3.68184ZM26.5854 6.11585L25.3562 6.82553C25.2744 6.87273 25.185 6.89522 25.0969 6.89522C24.9173 6.89522 24.7427 6.80207 24.6465 6.63538C24.503 6.38689 24.5882 6.06916 24.8366 5.9257L26.0659 5.21602C26.3143 5.0727 26.6321 5.15776 26.7755 5.40617C26.919 5.65465 26.8339 5.97238 26.5854 6.11585ZM13.3532 6.63538C13.257 6.80207 13.0823 6.89522 12.9028 6.89522C12.8146 6.89522 12.7253 6.8728 12.6435 6.82553L11.4143 6.11585C11.1658 5.97238 11.0806 5.65465 11.2241 5.40617C11.3676 5.15768 11.6854 5.07248 11.9338 5.21602L13.163 5.9257C13.4115 6.06916 13.4966 6.38689 13.3532 6.63538ZM13.9972 3.05432C13.8424 2.81274 13.9127 2.49145 14.1542 2.33655C14.3958 2.18181 14.7171 2.25202 14.872 2.49353L15.638 3.68852C15.7928 3.93011 15.7225 4.2514 15.481 4.40629C15.3942 4.46196 15.2971 4.48845 15.2011 4.48845C15.03 4.48845 14.8625 4.40399 14.7632 4.24925L13.9972 3.05432Z" fill="#00A1A5"/>
</svg>
