<svg width="40" height="40" viewBox="0 0 40 40" fill="none" xmlns="http://www.w3.org/2000/svg">
<g clip-path="url(#clip0_4847_383)">
<path d="M9.29996 6.59945H9.30066H10.5821C10.7832 9.88789 12.5739 12.8693 15.6935 15.1209C14.8275 15.7454 14.0496 16.4367 13.3822 17.1824C11.6654 19.1004 10.7193 21.2837 10.5699 23.6741C10.5017 24.8341 11.3898 25.8333 12.5498 25.9015C12.5921 25.9039 12.6343 25.9052 12.6763 25.9052C13.1925 25.9052 13.6845 25.7186 14.0736 25.3729C14.4943 24.999 14.7442 24.4836 14.7771 23.924C14.9936 20.4582 18.0586 18.4032 20.0002 17.4426C21.6853 18.2791 25 20.3673 25.2222 23.9216C25.2553 24.4835 25.5052 24.9989 25.9259 25.3728C26.3149 25.7187 26.8068 25.9052 27.3231 25.9052C27.365 25.9052 27.4073 25.9038 27.4496 25.9014C28.0114 25.8684 28.5269 25.6184 28.9008 25.1977C29.2747 24.777 29.4625 24.2359 29.4293 23.6718C29.2226 20.3663 27.4123 17.3594 24.306 15.1205C25.2508 14.4366 26.0914 13.6723 26.8011 12.8424C28.4037 10.9685 29.2823 8.87094 29.4178 6.59937H30.6984H30.6991C31.1137 6.59937 31.485 6.36773 31.6682 5.99477C31.8503 5.62445 31.8057 5.19055 31.5521 4.86219L28.1789 0.497109C27.9731 0.230859 27.6621 0.078125 27.3257 0.078125C26.9894 0.078125 26.6786 0.230937 26.4729 0.497187L23.0998 4.86219C22.8461 5.19039 22.8014 5.62438 22.9834 5.99469C23.1667 6.36781 23.538 6.59953 23.9525 6.59953H23.953H25.1826C24.8331 9.91344 21.7589 11.9169 19.996 12.8027C18.335 11.9748 15.1711 9.97133 14.8165 6.59953H16.0461H16.0466C16.4612 6.59953 16.8325 6.36781 17.0157 5.99477C17.1977 5.62445 17.1532 5.19055 16.8995 4.86234L13.5265 0.497109C13.3207 0.230859 13.0097 0.078125 12.6736 0.078125C12.3372 0.078125 12.0264 0.230859 11.8205 0.497187L8.44746 4.86227C8.19371 5.19055 8.14918 5.62445 8.33113 5.99477C8.51434 6.36781 8.88566 6.59945 9.29996 6.59945ZM28.1816 23.7477C28.195 23.9762 28.1186 24.1963 27.9666 24.3675C27.8145 24.5387 27.6047 24.6403 27.3761 24.6537C27.1483 24.667 26.9275 24.5909 26.7563 24.4387C26.5851 24.2866 26.4835 24.077 26.4699 23.8461C26.2964 21.0721 24.4812 18.5531 21.4365 16.7941C22.0459 16.5115 22.6303 16.2003 23.1863 15.863C26.2208 17.9075 27.9907 20.6954 28.1816 23.7477ZM24.2942 11.2015C25.7348 9.64016 26.4654 7.88156 26.4654 5.97453C26.4654 5.62937 26.1855 5.34953 25.8404 5.34953H24.303L27.3258 1.43758L30.3487 5.34945L28.8111 5.34953C28.466 5.34953 28.1862 5.62937 28.1862 5.97453C28.1862 10.1357 25.2469 13.8539 20.3236 15.9208C19.0788 16.4434 17.2895 17.3839 15.8341 18.8966C14.4181 20.3686 13.6426 22.0338 13.5292 23.8483C13.5157 24.0769 13.4141 24.2865 13.2429 24.4386C13.0718 24.5907 12.8507 24.6666 12.623 24.6537C12.1511 24.6259 11.7898 24.2195 11.8174 23.7499C12.0636 19.8122 14.9949 16.2924 19.6585 14.3345C20.9577 13.7892 22.8164 12.803 24.2942 11.2015ZM12.6735 1.43758L15.6964 5.34953H14.159C13.8139 5.34953 13.534 5.62937 13.534 5.97453C13.534 8.92125 15.3505 11.5951 18.564 13.4528C17.9553 13.7343 17.3708 14.0441 16.8148 14.3802C14.8077 13.0194 11.8131 10.2687 11.8131 5.97453C11.8131 5.62937 11.5333 5.34953 11.1882 5.34953L9.65059 5.34945L12.6735 1.43758ZM38.5843 20.0873H31.8757C31.5305 20.0873 31.2507 20.3671 31.2507 20.7123C31.2507 26.9161 26.2035 31.9632 19.9996 31.9632C13.7958 31.9632 8.74863 26.916 8.74863 20.7123C8.74863 20.3671 8.46879 20.0873 8.12363 20.0873H1.41504C1.06988 20.0873 0.790039 20.3671 0.790039 20.7123V23.2059C0.790039 23.8855 1.34301 24.4385 2.0227 24.4385H4.02254C4.42879 26.1899 5.11512 27.8458 6.06824 29.374L4.65316 30.7889C4.17262 31.2695 4.17262 32.0516 4.65316 32.5321L8.17965 36.0588C8.41223 36.2913 8.72168 36.4193 9.05137 36.4193C9.38098 36.4193 9.69051 36.2913 9.92301 36.0588L11.3381 34.6437C12.867 35.5971 14.5229 36.2834 16.2734 36.6894V38.6892C16.2734 39.3689 16.8264 39.9219 17.5061 39.9219H22.4932C23.173 39.9219 23.726 39.3689 23.726 38.6892V36.6894C25.4771 36.2831 27.1331 35.5967 28.6613 34.6437L30.0762 36.0587C30.3088 36.2912 30.6182 36.4191 30.9479 36.4191C31.2775 36.4191 31.5871 36.2911 31.8195 36.0587L35.346 32.5323C35.5786 32.2997 35.7066 31.9902 35.7066 31.6605C35.7066 31.3309 35.5785 31.0213 35.3461 30.789L33.9309 29.3738C34.8842 27.8449 35.5705 26.1891 35.9766 24.4385H37.9766C38.6563 24.4385 39.2093 23.8855 39.2093 23.2059V20.7123C39.2093 20.367 38.9294 20.0873 38.5843 20.0873ZM37.9593 23.1885H35.4721C35.174 23.1885 34.9174 23.399 34.8591 23.6913C34.4718 25.6346 33.7158 27.4584 32.6124 29.1121C32.447 29.36 32.4796 29.6902 32.6903 29.9009L34.4499 31.6606L30.9479 35.1626L29.1884 33.403C28.9776 33.1924 28.6474 33.1598 28.3994 33.3252C26.7466 34.4283 24.9229 35.1842 22.9787 35.572C22.6864 35.6302 22.4759 35.8868 22.4759 36.1849V38.6719H17.5232V36.1848C17.5232 35.8868 17.3128 35.6302 17.0204 35.5719C15.0772 35.1846 13.2534 34.4287 11.5996 33.3252C11.3517 33.1596 11.0216 33.1923 10.8107 33.403L9.05113 35.1627L5.5491 31.6605L7.30871 29.9011C7.51941 29.6903 7.55199 29.3601 7.3866 29.1121C6.28348 27.4595 5.52754 25.6356 5.1398 23.6912C5.08152 23.399 4.82496 23.1884 4.52684 23.1884H2.04004V21.3371H7.51402C7.84074 27.941 13.3161 33.213 19.9996 33.213C26.6831 33.213 32.1585 27.941 32.4851 21.3371H37.9591V23.1885H37.9593Z" fill="#00A1A5"/>
</g>
<defs>
<clipPath id="clip0_4847_383">
<rect width="40" height="40" fill="white"/>
</clipPath>
</defs>
</svg>
