<svg width="118" height="49" viewBox="0 0 118 49" fill="none" xmlns="http://www.w3.org/2000/svg">
<path d="M5.01847 49.0086C3.17575 49.0086 2.23479 45.2056 2.23479 37.5603C2.23479 35.9136 2.35241 33.4827 2.54844 30.1894C1.88193 30.307 1.21541 30.7775 0.509688 31.5616C0.392068 31.6792 0.274447 31.7184 0.156827 31.7184C0.0392068 31.7184 0 31.6792 0 31.6008C0 31.248 0.588102 30.7383 1.7251 29.9933C1.88193 29.8365 2.07796 29.7189 2.3132 29.6013C2.54844 29.4837 2.66606 29.2876 2.70527 28.974C3.41099 22.2696 4.74402 15.6829 6.78277 9.21374C6.78277 9.17454 6.82198 9.09612 6.86119 9.01771C6.90039 8.90009 6.9396 8.74326 6.9396 8.58644C6.70436 8.58644 6.27309 8.70406 5.60657 8.9393C4.97926 9.13533 4.31275 9.40978 3.60702 9.68423C2.9013 9.99788 2.39161 10.2331 2.03875 10.4684C2.15637 10.7036 2.23479 10.8996 2.23479 11.0173C2.23479 11.3701 2.07796 11.5269 1.76431 11.5269C1.60748 11.5269 1.41144 11.4093 1.137 11.2133C0.901756 11.0173 0.744929 10.8212 0.744929 10.6252C0.744929 9.95867 2.78368 8.9785 6.82198 7.72389C7.17484 7.64547 7.41008 7.41023 7.5277 7.01816C8.54708 3.96003 9.17439 2.39176 9.48804 2.39176C9.76249 2.39176 9.91932 2.50938 9.95852 2.78383C9.95852 3.13669 9.91932 3.37193 9.88011 3.56797C9.8409 3.72479 9.8017 3.96003 9.8017 4.19528C9.8017 4.43052 9.72328 4.62655 9.60566 4.74417L8.89994 6.93975C9.21359 6.93975 9.40963 6.93975 9.44883 6.90054C9.48804 6.86134 9.56645 6.86134 9.60566 6.86134C11.9189 6.15561 14.3105 5.64593 16.7413 5.37148C17.3686 5.29307 17.9959 5.21465 18.6232 5.21465L20.8188 5.41069C22.4655 5.80275 23.328 6.70451 23.328 8.19437C23.328 8.90009 23.2496 9.29216 23.132 9.29216C23.0536 9.29216 22.9752 9.21374 22.9752 9.01771C23.0536 8.62564 23.0536 8.27278 23.0536 7.88071C22.8968 6.39086 21.7206 5.60672 19.525 5.60672C16.6237 5.64593 13.1343 6.31244 9.13518 7.64547C8.74311 7.76309 8.50787 7.99833 8.42946 8.3512C6.39071 14.4282 4.86164 20.6229 3.92068 26.9352L3.72464 28.6995C3.92068 28.6995 4.15592 28.6211 4.39116 28.4251C8.23342 26.3863 11.1347 25.3277 13.1343 25.2885L13.4087 25.2493C13.644 25.2493 13.8008 25.2885 13.8008 25.4061C13.8008 25.5238 13.6832 25.6022 13.4871 25.6022C12.1149 25.6806 10.7819 25.9942 9.52725 26.5431C7.80215 27.2881 6.11626 28.1114 4.43037 28.974C4.31275 29.0524 4.15592 29.1308 3.95989 29.2484C3.80306 29.3268 3.68544 29.4444 3.60702 29.6013C3.56782 29.7189 3.52861 29.9149 3.52861 30.1894C3.21496 33.0515 3.05813 35.8744 3.05813 38.6973C3.05813 42.069 3.33258 44.6959 3.84226 46.617C4.15592 47.6756 4.58719 48.2245 5.09688 48.2245C5.99864 48.2245 7.99818 45.9897 11.1347 41.5593C12.2325 40.0303 13.3695 38.5012 14.5065 37.0114C16.1532 34.8942 17.251 33.7964 17.8783 33.7964C18.1135 33.7964 18.1919 33.8748 18.1919 34.0708C18.1919 34.1885 18.1135 34.2669 17.9175 34.2669C17.1334 34.2669 15.8003 35.6391 13.9576 38.3444L11.1347 42.3827C9.48804 44.8135 8.15501 46.617 7.13563 47.754C6.42991 48.5774 5.68498 49.0086 5.01847 49.0086Z" fill="white" fill-opacity="0.55"/>
<path d="M28.033 39.2068C27.288 39.2068 26.6999 38.4227 26.2687 36.8152C25.7198 34.6588 25.3669 31.7183 25.2885 28.0721L25.1317 24.9356C25.1317 24.1514 24.9748 23.7593 24.622 23.7593C24.5436 23.7593 24.426 23.7986 24.3475 23.8378C22.9361 24.7395 21.4462 27.8761 19.7996 33.2474C19.6035 34.3452 19.2115 34.8941 18.6626 34.8941C18.3881 34.8941 18.2313 34.698 18.2313 34.2668C18.2313 34.2276 18.2313 34.2276 18.1921 34.2276C18.1921 33.3258 18.2705 32.228 18.4273 30.9734C18.741 26.6214 19.2115 22.3479 19.878 18.2312C20.8581 12.0757 21.9951 8.39029 23.3674 7.17488C23.3674 7.13567 23.4066 7.09647 23.5242 7.01805C23.7594 6.93964 23.9947 6.86122 24.2691 6.86122C24.426 6.86122 24.5436 6.90043 24.5828 6.97884C24.6612 7.09647 24.7004 7.17488 24.7004 7.25329C24.6612 7.41012 24.5828 7.56695 24.4652 7.72377C23.6026 8.74315 22.8969 10.3506 22.2696 12.5462C21.6815 14.781 21.1326 17.3294 20.6621 20.2699C20.2308 23.2105 19.8388 26.2686 19.5643 29.4835C19.5251 29.7188 19.5251 29.9932 19.5251 30.2677C19.5251 31.0518 19.5643 31.4831 19.6819 31.6007C19.9172 30.9342 20.1132 30.3853 20.3092 29.954C22.1128 25.6413 23.6026 23.4457 24.7396 23.4457C25.0141 23.4457 25.2493 23.6025 25.4061 23.9554C25.6414 24.4651 25.7198 24.9748 25.7198 25.5237L25.955 30.5421C26.0334 32.3848 26.2687 34.2276 26.6607 35.9919C26.7392 36.6584 26.9744 37.2465 27.2488 37.7954C27.4057 38.2659 27.6409 38.5011 27.9938 38.5011C28.5427 38.5011 29.0524 37.5601 29.562 35.639L30.4246 32.3456C30.8559 30.5029 31.1695 29.562 31.3656 29.562C31.3656 29.562 31.3656 29.6012 31.3656 29.6796C31.3656 29.8364 31.2087 30.6597 30.8559 32.1104C30.0325 35.7566 29.4444 37.8738 29.0916 38.4227C28.7387 38.9324 28.3858 39.2068 28.033 39.2068Z" fill="white" fill-opacity="0.55"/>
<path d="M31.0519 35.2079C30.5814 35.2079 30.3462 34.659 30.3462 33.6004C30.5422 30.8559 31.4048 28.3859 32.9338 26.1511C33.718 24.9357 34.5805 24.3084 35.5215 24.3084C36.5409 24.3084 37.0898 25.0141 37.0898 26.4256V26.8961C37.0898 27.0137 37.0113 27.0921 36.8545 27.1313C36.5801 27.1313 36.4232 26.8568 36.384 26.3472C36.384 25.4846 36.1488 25.0141 35.6391 25.0141C35.2078 25.0141 34.7766 25.2494 34.3845 25.6806C33.7572 26.2687 33.2867 26.8961 32.9338 27.641C31.7576 29.7974 31.1303 31.9537 31.1303 34.1101C31.1303 34.3453 31.2087 34.5022 31.3656 34.5022C31.6008 34.5022 32.3457 33.4828 33.6788 31.4832C34.5413 30.2286 35.0902 29.4053 35.3254 28.974C35.5607 28.5427 35.8351 28.3075 36.1488 28.3075C36.5801 28.3075 36.9329 29.0916 37.129 30.6207C37.325 31.8361 37.6386 32.4242 37.9523 32.4242C38.1091 32.4242 38.266 32.3458 38.462 32.189C38.8541 31.9145 39.2069 31.5617 39.4814 31.2088C41.2065 28.9348 42.9708 26.0335 44.7351 22.4265C44.8919 22.0736 45.0487 21.9168 45.2056 21.9168C45.4408 21.9168 45.5192 22.0736 45.5192 22.4265C45.5192 23.0538 45.284 24.2692 44.8135 26.1119C44.5782 27.2097 44.4214 28.3075 44.4214 29.4445C44.4214 30.3855 44.4998 31.0912 44.6959 31.5225C45.48 29.2877 46.2249 27.7978 46.9699 27.0137C47.4403 26.4648 47.8324 26.2295 48.1069 26.2295H48.3813C48.695 26.308 48.891 26.9745 49.0086 28.2683C49.1654 29.17 49.2831 29.7581 49.3223 29.9542C49.5575 31.0128 49.9104 31.5617 50.4593 31.5617C50.8905 31.5617 51.4786 31.0912 52.1452 30.1502C52.2236 29.9934 52.302 29.8758 52.3804 29.7974C52.4588 29.7189 52.498 29.6797 52.5764 29.6797L52.7333 29.7581L52.694 29.9542C52.0275 31.2872 51.2826 31.9929 50.4201 31.9929C49.9888 31.9929 49.5575 31.7185 49.2046 31.1304C48.6558 30.3463 48.3421 29.3269 48.2637 28.0723C48.1853 27.2489 48.0676 26.8568 47.8716 26.8568C47.2051 26.8568 46.3426 28.4643 45.2448 31.7185C45.0487 32.1498 44.8527 32.385 44.6959 32.385C44.4606 32.385 44.2646 32.1106 44.0294 31.6009C43.7941 31.052 43.7157 30.3855 43.7157 29.5229C43.7157 28.6604 43.9117 27.1313 44.2646 24.9749L44.2254 24.8181C42.1474 28.1899 40.6968 30.5031 39.795 31.6793C39.2069 32.5418 38.5404 33.0123 37.9131 33.0123C37.1682 33.0123 36.6977 32.0714 36.5017 30.2286C36.4232 29.2093 36.2664 28.6996 36.0312 28.6996C35.9135 28.6996 35.5999 29.1308 35.0902 30.0326C33.2867 33.4828 31.9145 35.2079 31.0519 35.2079Z" fill="white" fill-opacity="0.55"/>
<path d="M63.123 42.5394C62.1036 42.5394 61.6331 41.8728 61.6331 40.5006C61.6331 39.3244 62.0252 37.9522 62.7701 36.3055C64.1816 33.0121 66.1027 30.0716 68.5727 27.5232C68.6119 27.5232 68.6511 27.484 68.6511 27.4447C68.6511 27.4055 68.7295 27.3663 68.808 27.3271C68.8864 27.2879 68.9648 27.2487 69.0824 27.2487L68.3375 28.1505C65.9067 30.8557 64.0247 33.9139 62.7701 37.3249C62.378 38.3442 62.1428 39.3636 62.0644 40.4222C62.0644 41.4416 62.378 41.9905 63.0054 41.9905C64.1816 41.8336 65.6714 40.8535 67.4749 39.0107C69.7489 36.7368 71.7093 34.2275 73.3559 31.4438C74.7674 29.013 75.4731 26.6606 75.4731 24.3082C75.4731 20.662 73.9833 18.7016 70.9643 18.388C70.0626 18.3096 69.1608 18.2312 68.2199 18.2312C67.1613 18.2312 66.3379 18.2704 65.8282 18.3096C65.1617 18.388 64.4952 18.388 63.8679 18.388C62.8485 18.388 61.8684 18.3096 60.849 18.1919C60.1433 18.1135 59.4375 17.8391 58.8102 17.447C57.8301 16.8197 57.3204 15.918 57.242 14.7025C57.242 12.6246 58.379 10.1938 60.6922 7.37088C62.4957 5.01847 64.652 3.01892 67.1221 1.41144C68.5335 0.470481 69.7881 0 70.9251 0C71.2388 0 71.5524 0.0392068 71.8661 0.156827C72.7286 0.431275 73.1991 0.98017 73.1991 1.80351C73.1207 3.05813 72.9247 3.68544 72.6502 3.68544C72.3366 3.68544 72.1797 3.56782 72.1797 3.29337L72.2189 3.05813C72.415 2.70527 72.4934 2.35241 72.4934 1.96034C72.4934 1.25462 72.0229 0.862549 71.0819 0.862549C70.7683 0.862549 70.4546 0.940963 70.141 1.05858C68.9648 1.45065 67.9454 1.96034 67.0044 2.66606C63.8287 4.90085 61.241 7.64532 59.2415 10.9387C58.379 12.2325 57.9869 13.4479 57.9869 14.6241C57.9869 16.7413 59.908 17.7607 63.7895 17.7607C64.456 17.7607 65.1225 17.7215 65.8282 17.6823C66.7692 17.6038 67.7886 17.6038 68.8472 17.6038C69.7097 17.6038 70.6115 17.6823 71.474 17.7999C74.689 18.3488 76.2573 20.4659 76.2573 24.2298C76.2573 25.8765 75.9436 27.5232 75.2771 29.0914C73.748 32.8553 70.9251 36.6191 66.8476 40.4222C65.4362 41.716 64.2208 42.4217 63.123 42.5394Z" fill="white" fill-opacity="0.55"/>
<path d="M91.5873 35.8351C91.2345 35.8351 91.0385 35.5998 90.9208 35.1294C90.3719 32.3457 90.0583 29.3268 90.0583 26.151C90.0583 20.8189 90.6856 15.0947 91.901 8.97844L91.0384 10.5467C89.823 13.5264 88.9605 15.7612 88.49 17.2903C87.0786 21.1717 85.8632 23.1321 84.883 23.1321C84.4909 23.1321 84.0989 22.8576 83.746 22.348C83.3147 21.5638 83.0795 21.0541 83.0795 20.8189C83.0795 20.5836 82.9619 20.3876 82.805 20.1916C82.5698 20.5837 82.3345 21.0149 82.1777 21.4462C82.1385 21.603 82.0993 21.7599 82.0209 21.8775C81.7857 22.3872 81.3936 23.3673 80.8447 24.8964C80.4526 26.0334 79.9429 26.5823 79.394 26.5823C78.9236 26.5823 78.6883 26.1902 78.6883 25.4453C79.0412 23.3673 79.6685 21.5246 80.6094 19.9563C81.1975 18.8978 81.7857 18.3489 82.2953 18.3489C82.609 18.3489 82.805 18.5057 82.8442 18.8586C82.8834 19.1722 83.0011 19.4467 83.1579 19.6819C83.3147 19.9171 83.4323 20.1524 83.5107 20.466C83.5107 20.8973 83.746 21.4854 84.2165 22.2695C84.4517 22.5832 84.6477 22.74 84.883 22.74C85.8632 22.74 87.0394 20.6229 88.4508 16.3885C88.6468 16.1141 88.8037 15.6828 88.9997 15.0555C90.3327 11.0956 91.5089 8.39034 92.5283 6.90048C92.6851 6.90048 92.7636 7.05731 92.7636 7.37096C92.7636 7.567 92.6851 8.11589 92.5675 9.01765C91.5481 15.526 90.9992 21.5638 90.9992 27.0528C90.9992 29.6404 91.1561 32.1104 91.4305 34.5021L91.5089 34.8157C91.705 34.8157 91.7834 35.0117 91.7834 35.3646C91.8226 35.6783 91.7442 35.8351 91.5873 35.8351ZM79.8253 25.4845C80.2174 25.0924 80.9623 23.6026 81.9817 20.9365C82.0993 20.5444 82.2169 20.3092 82.2561 20.1524C82.3345 19.9955 82.3738 19.8387 82.3738 19.7211C82.3738 19.6035 82.3345 19.4467 82.2561 19.2898C81.0015 21.0933 80.1782 23.1321 79.8253 25.4845Z" fill="white" fill-opacity="0.55"/>
<path d="M94.2138 26.7783C93.5864 26.7783 93.2728 26.4255 93.2728 25.6805C93.3904 23.9554 94.0961 22.1911 95.39 20.3876C95.9781 19.5251 96.6054 19.0546 97.2327 19.0546C97.7816 19.0546 98.0952 19.329 98.0952 19.9171C98.0952 20.1524 98.056 20.3484 98.0168 20.466C97.8992 20.7797 97.7816 20.9365 97.7031 20.9365C97.5463 20.9365 97.4679 20.7013 97.4679 20.2308L97.4287 20.1916C97.1151 20.3484 96.7622 20.7405 96.3309 21.3678C95.9389 21.9951 95.5468 22.6616 95.2331 23.4065C94.9195 24.1515 94.7626 24.7788 94.7234 25.3277C95.8996 24.0731 96.8798 22.74 97.7031 21.2894L98.2521 20.4268C98.8009 19.6427 99.2322 19.2506 99.5851 19.2506C99.8203 19.2506 100.016 19.4467 100.134 19.8387C100.252 20.2308 100.369 20.6229 100.448 20.9757C101.114 23.681 101.977 25.014 103.074 25.014C103.859 25.014 104.604 24.5827 105.27 23.7594C105.937 22.8969 106.329 22.5048 106.368 22.5048C106.446 22.5048 106.446 22.5832 106.446 22.7008C105.937 23.6026 105.309 24.3475 104.525 24.9748C103.976 25.3669 103.467 25.6021 102.957 25.6021C102.33 25.6021 101.781 25.2885 101.31 24.6612C100.644 23.7202 100.056 22.2303 99.5067 20.1524C99.5067 20.1132 99.4675 20.074 99.3498 20.074C98.8794 20.466 98.0952 21.6422 97.0366 23.681C95.8604 25.7197 94.9195 26.7783 94.2138 26.7783Z" fill="white" fill-opacity="0.55"/>
<path d="M115.856 33.3259H115.582C115.072 33.3259 114.602 32.8946 114.17 32.0713C113.151 29.9541 112.602 27.288 112.602 24.0731C112.602 22.2696 112.759 20.4661 113.073 18.6626L113.151 17.9176C112.955 18.1529 112.759 18.5057 112.524 19.0546C110.838 23.0537 109.505 25.7198 108.525 27.0528C107.936 27.7977 107.427 28.1898 106.956 28.1898C106.564 28.1898 106.29 27.9154 106.094 27.4057C105.898 26.8568 105.78 26.3079 105.78 25.759C105.898 22.6224 106.643 19.7211 108.054 17.0551C108.956 15.4084 109.897 14.5458 110.838 14.5458C112.014 14.5458 112.641 15.722 112.641 18.0352L113.661 15.6828C113.817 15.2516 113.974 14.6635 114.131 13.9969C115.072 10.5467 116.013 8.11593 116.993 6.70448L117.307 6.54766C117.464 6.54766 117.542 6.66528 117.542 6.93972C117.464 7.21417 117.424 7.44941 117.346 7.68465C117.268 7.84148 117.189 8.03751 117.111 8.23355C116.876 8.93927 116.562 9.6842 116.248 10.3899C114.249 15.0555 113.229 19.878 113.19 24.8964C113.19 26.9744 113.504 28.9739 114.17 30.9735C114.327 31.444 114.523 31.8752 114.798 32.3065C115.072 32.7378 115.386 32.9338 115.699 32.9338C115.856 32.9338 115.935 32.973 115.935 33.0906C116.013 33.2083 115.935 33.2867 115.856 33.3259ZM107.427 27.5625C107.505 27.5233 107.584 27.4449 107.74 27.288C107.976 27.0136 108.132 26.8176 108.132 26.7391C109.073 25.4845 110.328 23.0929 111.896 19.6035C112.171 18.8586 112.328 18.1921 112.328 17.5648C112.328 16.5454 112.132 15.8397 111.779 15.3692C111.543 15.1339 111.308 14.9771 111.034 14.9771C110.367 14.9771 109.622 15.7612 108.76 17.2903C108.211 18.3097 107.74 19.4467 107.348 20.7405C106.839 22.544 106.603 24.1515 106.603 25.5237C106.603 26.8568 106.839 27.5625 107.27 27.5625H107.427Z" fill="white" fill-opacity="0.55"/>
</svg>
