<svg width="50" height="50" viewBox="0 0 50 50" fill="none" xmlns="http://www.w3.org/2000/svg">
<g clip-path="url(#clip0_4773_333)">
<path d="M19.792 45.8332C19.6586 45.8332 19.5211 45.8165 19.3857 45.779C18.5524 45.5561 18.0586 44.6957 18.2857 43.8645L28.7024 5.32279C28.9253 4.49154 29.7836 3.98946 30.617 4.22279C31.4503 4.44571 31.944 5.30612 31.717 6.13737L21.3003 44.679C21.1128 45.3749 20.4815 45.8332 19.792 45.8332Z" fill="#00A1A5"/>
<path d="M15.1042 39.5832C14.7125 39.5832 14.325 39.4394 14.0208 39.1478L0.479167 26.1269C0.172917 25.8311 0 25.4249 0 24.9999C0 24.5749 0.172917 24.1686 0.479167 23.8728L14.0208 10.8519C14.6438 10.2561 15.6333 10.2728 16.2313 10.8957C16.8292 11.5165 16.8083 12.5082 16.1875 13.1061L3.81667 24.9999L16.1875 36.8936C16.8104 37.4915 16.8313 38.4832 16.2313 39.104C15.925 39.4228 15.5146 39.5832 15.1042 39.5832Z" fill="#00A1A5"/>
<path d="M34.8962 39.5831C34.4857 39.5831 34.0753 39.4227 33.7691 39.1039C33.1712 38.4831 33.192 37.4935 33.8128 36.8935L46.1837 24.9998L33.8128 13.106C33.1899 12.5081 33.1691 11.5164 33.7691 10.8956C34.367 10.2706 35.3566 10.2519 35.9795 10.8519L49.5212 23.8727C49.8274 24.1685 50.0003 24.5748 50.0003 24.9998C50.0003 25.4248 49.8274 25.831 49.5212 26.1269L35.9795 39.1477C35.6753 39.4394 35.2878 39.5831 34.8962 39.5831Z" fill="#00A1A5"/>
</g>
<defs>
<clipPath id="clip0_4773_333">
<rect width="50" height="50" fill="white"/>
</clipPath>
</defs>
</svg>
