<svg width="27" height="27" viewBox="0 0 27 27" fill="none" xmlns="http://www.w3.org/2000/svg">
<path d="M13.4998 14.2941C9.55256 14.2941 6.35275 11.0942 6.35275 7.14708C6.35275 3.19992 9.55256 0 13.4998 0C17.447 0 20.6468 3.19986 20.6468 7.14702C20.6468 11.0942 17.4469 14.2941 13.4998 14.2941ZM13.4998 12.7058C16.5698 12.7058 19.0586 10.2171 19.0586 7.14702C19.0586 4.07694 16.5698 1.58825 13.4998 1.58825C10.4297 1.58825 7.94095 4.07699 7.94095 7.14702C7.94095 10.2171 10.4297 12.7058 13.4998 12.7058ZM6.41857 17.6728C4.56358 18.1945 3.35101 19.9728 3.54275 21.8902L3.96642 26.1268C4.01009 26.5632 3.69168 26.9524 3.2553 26.996C2.81887 27.0397 2.42974 26.7212 2.38608 26.2848L1.96241 22.0482C1.69394 19.3639 3.39162 16.8743 5.98857 16.1439C7.31763 15.7701 8.64759 15.4954 9.97829 15.3201C10.3086 15.2766 10.6309 15.4439 10.7855 15.739L12.7964 19.5779C12.9999 19.9664 13.4798 20.1164 13.8683 19.9129C14.0114 19.8379 14.1283 19.721 14.2033 19.5779L16.2141 15.739C16.3687 15.4439 16.691 15.2766 17.0213 15.3201C18.352 15.4955 19.682 15.7701 21.011 16.1439C23.608 16.8743 25.3056 19.3639 25.0372 22.0482L24.6135 26.2848C24.5699 26.7212 24.1807 27.0396 23.7443 26.996C23.3079 26.9523 22.9895 26.5632 23.0332 26.1268L23.4569 21.8902C23.6486 19.9728 22.436 18.1946 20.581 17.6728C19.507 17.3708 18.4336 17.1374 17.3608 16.9728L15.6102 20.3149C15.3852 20.7443 15.0347 21.0949 14.6052 21.3198C13.4397 21.9303 12 21.4804 11.3895 20.3149L9.63884 16.9728C8.56596 17.1374 7.4926 17.3708 6.41857 17.6728Z" fill="#00A1A5"/>
</svg>
