<svg width="24" height="24" viewBox="0 0 24 24" fill="none" xmlns="http://www.w3.org/2000/svg">
<path d="M20 12V20C20 21.1046 19.1046 22 18 22H6C4.89543 22 4 21.1046 4 20V12" stroke="#00A1A5" stroke-width="2" stroke-linecap="round"/>
<path d="M22 7H2V12H22V7Z" stroke="#00A1A5" stroke-width="2" stroke-linecap="round" stroke-linejoin="round"/>
<path d="M12 22V7" stroke="#00A1A5" stroke-width="2" stroke-linecap="round"/>
<path d="M12 7V4C12 2.89543 11.1046 2 10 2C8.89543 2 8 2.89543 8 4C8 5.10457 12 7 12 7Z" stroke="#00A1A5" stroke-width="2"/>
<path d="M12 7V4C12 2.89543 12.8954 2 14 2C15.1046 2 16 2.89543 16 4C16 5.10457 12 7 12 7Z" stroke="#00A1A5" stroke-width="2"/>
</svg>
