<svg width="176" height="38" viewBox="0 0 176 38" fill="none" xmlns="http://www.w3.org/2000/svg">
<path d="M14.0032 30.175C12.1595 30.175 10.8293 29.8016 10.0125 29.0781C9.19566 28.3547 8.77559 27.1411 8.70557 25.4375C8.68224 24.0839 8.6589 22.637 8.6589 21.0968C8.6589 19.5565 8.63556 18.0396 8.6589 16.4993C8.68224 14.959 8.70557 13.5355 8.70557 12.1819C8.77559 10.4549 9.219 9.1947 10.0125 8.4479C10.8293 7.70111 12.1595 7.32771 14.0032 7.32771C15.8001 7.32771 17.0837 7.70111 17.9005 8.42457C18.694 9.14803 19.1607 10.3616 19.2541 12.0419C19.3007 13.2554 19.3007 14.4689 19.2541 15.6592H16.0335C16.0802 14.3289 16.0802 13.022 16.0335 11.7151C15.9868 11.0617 15.8235 10.6183 15.5434 10.3616C15.24 10.1049 14.7266 9.98817 14.0032 9.98817C13.2564 9.98817 12.7429 10.1049 12.4396 10.3616C12.1362 10.6183 11.9728 11.0617 11.9261 11.6918C11.8328 14.0955 11.7861 16.4526 11.7861 18.7397C11.7861 21.0267 11.8328 23.3838 11.9261 25.7642C11.9728 26.4177 12.1362 26.8611 12.4396 27.1178C12.7429 27.3745 13.2564 27.5145 14.0032 27.5145C14.7966 27.5145 15.3567 27.3979 15.6601 27.1411C15.9635 26.8844 16.1502 26.441 16.1735 25.7876C16.2202 24.7141 16.2202 23.6639 16.1735 22.5904H14.3065V19.7665H19.3241C19.3708 20.77 19.3708 21.7502 19.3708 22.707C19.3708 23.6639 19.3474 24.574 19.3007 25.4375C19.2541 27.1411 18.8107 28.3547 17.9938 29.0781C17.177 29.8016 15.8468 30.175 14.0032 30.175Z" fill="white" fill-opacity="0.55"/>
<path d="M21.2145 29.9418V7.53792H30.036V10.3851H24.4117V17.1529H29.756V20.0001H24.4117V27.048H30.036V29.8951H21.2145V29.9418Z" fill="white" fill-opacity="0.55"/>
<path d="M31.9959 29.9418V7.53792H37.7836L39.2305 14.6558L41.0041 27.0946H42.241L41.7276 16.3128L41.4709 7.53792H44.6914V29.9418H38.6704L37.1534 22.2638L35.7065 10.3617H34.4463L34.9131 21.4003L35.1698 29.9418H31.9959Z" fill="white" fill-opacity="0.55"/>
<path d="M47.4922 29.9418V7.53792H52.5564C54.3534 7.53792 55.637 7.91132 56.4538 8.63478C57.2472 9.38158 57.6673 10.5718 57.6907 12.2521C57.7373 13.7923 57.7607 15.2393 57.7607 16.6395C57.7607 18.0397 57.7607 19.4166 57.7607 20.7936C57.7607 22.1705 57.7373 23.6407 57.6907 25.1576C57.6673 26.8613 57.2706 28.0748 56.4771 28.8216C55.6836 29.5684 54.4234 29.9185 52.6498 29.9185H47.4922V29.9418ZM50.6894 27.0946H52.6498C53.2799 27.0946 53.7466 26.978 54.0267 26.7212C54.3067 26.4645 54.4701 26.0911 54.4934 25.5544C54.5401 23.9208 54.5634 22.3805 54.5868 20.9336C54.6101 19.4867 54.6101 18.0164 54.5868 16.5695C54.5634 15.1226 54.5401 13.5823 54.4934 11.9487C54.4701 11.4353 54.3067 11.0385 54.0267 10.7818C53.7233 10.5251 53.2332 10.4084 52.5798 10.4084H50.7128V27.0946H50.6894Z" fill="white" fill-opacity="0.55"/>
<path d="M60.1642 29.9418V7.53792H63.3614V29.9418H60.1642Z" fill="white" fill-opacity="0.55"/>
<path d="M67.4223 29.9418L65.602 7.53792H68.8225L69.4293 16.8729L69.9427 27.0946H71.1563L71.483 16.8729L72.9066 7.67795H77.9708L79.4177 16.8729L79.7444 27.0946H80.958L81.4947 16.8729L82.1015 7.53792H85.3221L83.4784 29.9418H77.4574L76.5939 23.1273L76.0338 10.4084H74.8669L74.3068 23.1273L73.4433 29.9418H67.4223Z" fill="white" fill-opacity="0.55"/>
<path d="M86.1151 29.9418L88.8922 7.53792H94.7499L97.5271 29.9418H94.2131L93.6997 24.4342H89.9424L89.4057 29.9418H86.1151ZM90.2458 21.6104H93.4197L92.9763 16.7562L92.4628 10.4084H91.2026L90.7359 16.7562L90.2458 21.6104Z" fill="white" fill-opacity="0.55"/>
<path d="M99.2544 29.9418V7.53792H104.319C106.116 7.53792 107.399 7.91132 108.216 8.63478C109.009 9.38158 109.43 10.5718 109.453 12.2521C109.5 13.7923 109.523 15.2393 109.523 16.6395C109.523 18.0397 109.523 19.4166 109.523 20.7936C109.523 22.1705 109.5 23.6407 109.453 25.1576C109.43 26.8613 109.033 28.0748 108.239 28.8216C107.446 29.5684 106.186 29.9185 104.412 29.9185H99.2544V29.9418ZM102.452 27.0946H104.412C105.042 27.0946 105.509 26.978 105.789 26.7212C106.069 26.4645 106.232 26.0911 106.256 25.5544C106.302 23.9208 106.326 22.3805 106.349 20.9336C106.372 19.4867 106.372 18.0164 106.349 16.5695C106.326 15.1226 106.302 13.5823 106.256 11.9487C106.232 11.4353 106.069 11.0385 105.789 10.7818C105.486 10.5251 104.995 10.4084 104.342 10.4084H102.475V27.0946H102.452Z" fill="white" fill-opacity="0.55"/>
<path d="M111.903 29.9418V7.53792H120.724V10.3851H115.1V17.1529H120.444V20.0001H115.1V27.048H120.724V29.8951H111.903V29.9418Z" fill="white" fill-opacity="0.55"/>
<path d="M128.006 30.1752C126.186 30.1752 124.879 29.8018 124.086 29.0783C123.292 28.3549 122.849 27.1413 122.779 25.4377C122.755 24.8309 122.755 24.2008 122.755 23.5707C122.755 22.9406 122.802 22.3105 122.849 21.6804H125.906C125.859 22.4505 125.836 23.174 125.836 23.8974C125.836 24.6209 125.859 25.2977 125.906 25.9744C125.952 27.0013 126.653 27.5147 127.983 27.5147C129.243 27.5147 129.92 27.0013 130.037 25.9744C130.083 25.4377 130.083 24.8543 130.083 24.2475C130.083 23.6407 130.06 23.0573 130.037 22.5205C129.967 21.377 129.383 20.6769 128.31 20.4202L126.233 19.9534C124.926 19.65 124.015 19.1133 123.525 18.3198C123.035 17.5263 122.755 16.4295 122.732 15.0292C122.709 14.5158 122.709 14.0257 122.709 13.5356C122.709 13.0455 122.709 12.5321 122.732 12.042C122.779 10.3617 123.222 9.1482 124.039 8.42474C124.856 7.70128 126.163 7.32788 128.006 7.32788C129.78 7.32788 131.063 7.70128 131.88 8.42474C132.674 9.1482 133.117 10.3617 133.164 12.042C133.187 12.5555 133.187 13.1156 133.187 13.7457C133.187 14.3758 133.164 15.0059 133.14 15.6593H130.037C130.083 14.9125 130.107 14.2124 130.107 13.5356C130.107 12.8588 130.107 12.1821 130.06 11.5286C130.013 10.5251 129.336 10.0117 128.006 10.0117C126.723 10.0117 126.046 10.5251 125.952 11.5286C125.906 12.1354 125.859 12.7188 125.859 13.3023C125.859 13.8857 125.882 14.4691 125.952 15.0759C125.976 15.6827 126.093 16.1494 126.303 16.4995C126.513 16.8495 126.863 17.0829 127.353 17.1763L129.22 17.573C130.667 17.8997 131.67 18.4598 132.277 19.2766C132.884 20.0934 133.21 21.1903 133.257 22.5905C133.28 23.0573 133.28 23.5474 133.28 24.0608C133.28 24.5742 133.257 25.0643 133.234 25.5077C133.164 27.2113 132.72 28.4249 131.927 29.1483C131.11 29.8018 129.803 30.1752 128.006 30.1752Z" fill="white" fill-opacity="0.55"/>
<path d="M135.661 29.9418V7.53792H138.858V29.9418H135.661Z" fill="white" fill-opacity="0.55"/>
<path d="M146.792 30.1753C144.949 30.1753 143.618 29.8019 142.801 29.0785C141.985 28.355 141.565 27.1415 141.495 25.4378C141.471 24.0843 141.448 22.6373 141.448 21.0971C141.448 19.5568 141.425 18.0399 141.448 16.4996C141.471 14.9594 141.495 13.5358 141.495 12.1822C141.565 10.4552 142.008 9.19502 142.801 8.44823C143.595 7.70143 144.925 7.30469 146.769 7.30469C148.566 7.30469 149.849 7.67809 150.666 8.40155C151.46 9.12501 151.926 10.3386 152.02 12.0188C152.066 13.2324 152.066 14.4459 152.02 15.6361H148.799C148.846 14.3059 148.846 12.999 148.799 11.6921C148.753 11.062 148.589 10.6186 148.309 10.3619C148.029 10.1052 147.516 9.98849 146.792 9.98849C146.045 9.98849 145.532 10.1052 145.229 10.3619C144.925 10.6186 144.762 11.062 144.715 11.6921C144.622 14.0959 144.575 16.4529 144.575 18.74C144.575 21.0271 144.622 23.3841 144.715 25.7646C144.762 26.418 144.925 26.8614 145.229 27.1181C145.532 27.3748 146.045 27.4915 146.792 27.4915C147.586 27.4915 148.146 27.3748 148.449 27.1181C148.753 26.8614 148.939 26.418 148.963 25.7646C149.009 24.691 149.009 23.6409 148.963 22.5673H147.096V19.7669H152.113C152.16 20.7704 152.16 21.7505 152.16 22.7307C152.16 23.6875 152.136 24.5977 152.09 25.4612C152.043 27.1648 151.6 28.3783 150.783 29.1018C149.989 29.8019 148.659 30.1753 146.792 30.1753Z" fill="white" fill-opacity="0.55"/>
<path d="M154.004 29.9418V7.53792H159.791L161.238 14.6558L163.012 27.0946H164.249L163.735 16.3128L163.479 7.53792H166.699V29.9418H160.678L159.161 22.2638L157.714 10.3617H156.454L156.921 21.4003L157.178 29.9418H154.004Z" fill="white" fill-opacity="0.55"/>
<path d="M175.357 37.5032H0V0H175.357V37.5032ZM2.24039 35.2628H173.117V2.24039H2.24039V35.2628Z" fill="white" fill-opacity="0.55"/>
</svg>
