<svg width="300" height="60" viewBox="0 0 300 60" fill="none" xmlns="http://www.w3.org/2000/svg">
<path d="M28.0979 5.8541C28.6966 4.01148 31.3034 4.01148 31.9021 5.8541L36.2864 19.3475C36.5541 20.1716 37.3221 20.7295 38.1885 20.7295H52.3763C54.3138 20.7295 55.1193 23.2087 53.5519 24.3475L42.0737 32.6869C41.3727 33.1962 41.0794 34.0989 41.3472 34.923L45.7314 48.4164C46.3302 50.259 44.2212 51.7913 42.6538 50.6525L31.1756 42.3131C30.4746 41.8038 29.5254 41.8038 28.8244 42.3131L17.3462 50.6525C15.7788 51.7913 13.6699 50.259 14.2686 48.4164L18.6528 34.923C18.9206 34.0989 18.6273 33.1962 17.9263 32.6869L6.4481 24.3475C4.88067 23.2087 5.68622 20.7295 7.62367 20.7295H21.8115C22.6779 20.7295 23.4459 20.1716 23.7136 19.3475L28.0979 5.8541Z" fill="#FDB85C"/>
<path d="M88.0979 5.8541C88.6966 4.01148 91.3034 4.01148 91.9021 5.8541L96.2864 19.3475C96.5541 20.1716 97.3221 20.7295 98.1885 20.7295H112.376C114.314 20.7295 115.119 23.2087 113.552 24.3475L102.074 32.6869C101.373 33.1962 101.079 34.0989 101.347 34.923L105.731 48.4164C106.33 50.259 104.221 51.7913 102.654 50.6525L91.1756 42.3131C90.4746 41.8038 89.5254 41.8038 88.8244 42.3131L77.3462 50.6525C75.7788 51.7913 73.6699 50.259 74.2686 48.4164L78.6528 34.923C78.9206 34.0989 78.6273 33.1962 77.9263 32.6869L66.4481 24.3475C64.8807 23.2087 65.6862 20.7295 67.6237 20.7295H81.8115C82.6779 20.7295 83.4459 20.1716 83.7136 19.3475L88.0979 5.8541Z" fill="#FDB85C"/>
<path d="M148.098 5.8541C148.697 4.01148 151.303 4.01148 151.902 5.8541L156.286 19.3475C156.554 20.1716 157.322 20.7295 158.189 20.7295H172.376C174.314 20.7295 175.119 23.2087 173.552 24.3475L162.074 32.6869C161.373 33.1962 161.079 34.0989 161.347 34.923L165.731 48.4164C166.33 50.259 164.221 51.7913 162.654 50.6525L151.176 42.3131C150.475 41.8038 149.525 41.8038 148.824 42.3131L137.346 50.6525C135.779 51.7913 133.67 50.259 134.269 48.4164L138.653 34.923C138.921 34.0989 138.627 33.1962 137.926 32.6869L126.448 24.3475C124.881 23.2087 125.686 20.7295 127.624 20.7295H141.811C142.678 20.7295 143.446 20.1716 143.714 19.3475L148.098 5.8541Z" fill="#FDB85C"/>
<path d="M208.098 5.8541C208.697 4.01148 211.303 4.01148 211.902 5.8541L216.286 19.3475C216.554 20.1716 217.322 20.7295 218.189 20.7295H232.376C234.314 20.7295 235.119 23.2087 233.552 24.3475L222.074 32.6869C221.373 33.1962 221.079 34.0989 221.347 34.923L225.731 48.4164C226.33 50.259 224.221 51.7913 222.654 50.6525L211.176 42.3131C210.475 41.8038 209.525 41.8038 208.824 42.3131L197.346 50.6525C195.779 51.7913 193.67 50.259 194.269 48.4164L198.653 34.923C198.921 34.0989 198.627 33.1962 197.926 32.6869L186.448 24.3475C184.881 23.2087 185.686 20.7295 187.624 20.7295H201.811C202.678 20.7295 203.446 20.1716 203.714 19.3475L208.098 5.8541Z" fill="#FDB85C"/>
<path d="M268.098 5.8541C268.697 4.01148 271.303 4.01148 271.902 5.8541L276.286 19.3475C276.554 20.1716 277.322 20.7295 278.189 20.7295H292.376C294.314 20.7295 295.119 23.2087 293.552 24.3475L282.074 32.6869C281.373 33.1962 281.079 34.0989 281.347 34.923L285.731 48.4164C286.33 50.259 284.221 51.7913 282.654 50.6525L271.176 42.3131C270.475 41.8038 269.525 41.8038 268.824 42.3131L257.346 50.6525C255.779 51.7913 253.67 50.259 254.269 48.4164L258.653 34.923C258.921 34.0989 258.627 33.1962 257.926 32.6869L246.448 24.3475C244.881 23.2087 245.686 20.7295 247.624 20.7295H261.811C262.678 20.7295 263.446 20.1716 263.714 19.3475L268.098 5.8541Z" fill="#FDB85C"/>
</svg>
