<svg width="130" height="47" viewBox="0 0 130 47" fill="none" xmlns="http://www.w3.org/2000/svg">
<path d="M11.5753 19.5337C11.5753 28.9854 7.98138 38.0869 1.54027 44.9948L0 46.6517L0.326723 46.5817C13.1156 43.7579 22.2405 32.4393 22.2405 19.3237V8.89188C16.3595 8.89188 11.5753 13.6527 11.5753 19.5337Z" fill="white" fill-opacity="0.55"/>
<path d="M34.6097 18.8336C34.6097 13.3493 30.1523 8.89188 24.668 8.89188C24.668 14.3762 29.1254 18.8336 34.6097 18.8336Z" fill="white" fill-opacity="0.55"/>
<path d="M29.6855 0C26.5349 0.420073 24.3412 3.29057 24.7613 6.44111C27.8885 6.02104 30.1055 3.15055 29.6855 0Z" fill="white" fill-opacity="0.55"/>
<path d="M37.5035 31.9255H32.0192V24.1308H26.885V42.404H32.0192V34.3993H37.5035V42.404H42.6144V24.1308H37.5035V31.9255Z" fill="white" fill-opacity="0.55"/>
<path d="M51.0393 24.1308L44.7615 42.404H47.352L49.1723 37.013H55.31L57.247 42.404H62.6846L55.9868 24.1308H51.0393ZM49.9658 34.6793L52.1128 28.1215L54.4699 34.6793H49.9658Z" fill="white" fill-opacity="0.55"/>
<path d="M79.0905 32.8357C79.7906 32.0189 80.164 30.992 80.164 29.7318C80.164 28.0048 79.5106 26.6279 78.2037 25.6478C76.8968 24.6676 75.0998 24.1542 72.7894 24.1542H64.808V42.4273H69.7789V26.4179H71.0858C72.4393 26.4179 73.4195 26.6979 74.073 27.258C74.7264 27.8181 75.0298 28.6816 75.0298 29.8485C75.0298 30.9453 74.7264 31.7855 74.0963 32.3222C73.4662 32.859 72.5327 33.1391 71.2725 33.1391H70.1289L74.5864 42.4273H80.3274L75.9166 34.5626C77.3168 34.2126 78.367 33.6291 79.0905 32.8357Z" fill="white" fill-opacity="0.55"/>
<path d="M95.2168 34.9594C95.2168 36.7563 94.9601 38.0399 94.47 38.7634C93.9799 39.4868 93.1165 39.8602 91.9029 39.8602C90.6894 39.8602 89.8492 39.4868 89.3358 38.7634C88.8224 38.0399 88.5657 36.7797 88.5657 34.9827V24.1542H83.4548V35.7995C83.4548 37.1064 83.5948 38.1566 83.8515 38.9034C84.1082 39.6502 84.5516 40.3503 85.1818 40.9337C85.7885 41.5172 86.582 42.0073 87.5622 42.3573C88.5423 42.7074 89.5925 42.8941 90.666 42.8941C93.0698 42.8941 94.8668 42.3106 96.057 41.1204C97.2472 39.9302 97.8306 38.1799 97.8306 35.7995V24.1542H95.2168V34.9594Z" fill="white" fill-opacity="0.55"/>
<path d="M110.923 33.9792L106.815 24.1308H102.031V42.404H104.668V30.922L109.499 42.404H109.989L114.937 30.3852V42.404H120.024V24.1308H115.007L110.923 33.9792Z" fill="white" fill-opacity="0.55"/>
<path d="M129.64 24.1308H124.506V42.404H129.64V24.1308Z" fill="white" fill-opacity="0.55"/>
</svg>
