<svg width="99" height="65" viewBox="0 0 99 65" fill="none" xmlns="http://www.w3.org/2000/svg">
<path d="M11.0384 12.2288V30.6187H23.1972V26.5113H15.5192V12.2288H11.0384Z" fill="white" fill-opacity="0.55"/>
<path d="M46.1613 19.767C45.5546 15.823 42.334 12.6024 38.39 11.9957C32.0656 11.0155 26.6746 16.4064 27.6548 22.7309C28.2616 26.6749 31.4821 29.8954 35.4261 30.5022C41.7506 31.4824 47.1182 26.0914 46.1613 19.767ZM36.8964 26.6982C34.376 26.6982 32.3456 24.2478 32.3456 21.2373C32.3456 18.2501 34.3993 15.7763 36.8964 15.7763C39.4168 15.7763 41.4705 18.2268 41.4705 21.2373C41.4472 24.2478 39.4168 26.6982 36.8964 26.6982Z" fill="white" fill-opacity="0.55"/>
<path d="M61.2372 12.2288L57.3632 18.2265V12.2288H52.8824V30.6187H57.3632V25.5778L58.0167 24.5743L61.1905 30.6187H65.928L60.5838 20.5836L65.998 12.2288H61.2372Z" fill="white" fill-opacity="0.55"/>
<path d="M77.2232 12.2288L71.7156 30.6187H76.1963L77.2699 27.1414H81.914L82.9408 30.6187H87.445L81.914 12.2288H77.2232ZM78.2734 23.5708L79.5569 18.6233L80.8171 23.5708H78.2734Z" fill="white" fill-opacity="0.55"/>
<path d="M26.8375 45.6013C20.5131 44.6211 15.1222 50.012 16.1023 56.3365C16.7091 60.2805 19.9296 63.501 23.8737 64.1078C30.2214 65.088 35.589 59.697 34.6089 53.3493C34.0021 49.4286 30.7815 46.1847 26.8375 45.6013ZM25.3439 60.3038C22.8235 60.3038 20.7931 57.8534 20.7931 54.8429C20.7931 51.8557 22.8468 49.3819 25.3439 49.3819C27.8644 49.3819 29.918 51.8324 29.918 54.8429C29.918 57.8534 27.8644 60.3038 25.3439 60.3038Z" fill="white" fill-opacity="0.55"/>
<path d="M54.4691 45.8346L50.7584 57.7133L47.0011 45.8346H42.4503L41.3535 64.2244H45.8343L46.301 55.683L48.8915 64.0377L48.9381 64.2244H52.5554L55.1692 55.683L55.6826 64.2244H60.1634L59.0432 45.8346H54.4691Z" fill="white" fill-opacity="0.55"/>
<path d="M72.299 45.8346L66.7914 64.2244H71.2722L72.3457 60.7472H76.9898L78.0167 64.2244H82.5208L77.0132 45.8346H72.299ZM73.3492 57.1766L74.6328 52.229L75.893 57.1766H73.3492Z" fill="white" fill-opacity="0.55"/>
<path d="M0 0V58.2034H11.0619V56.1264H2.10036V2.07703H96.3833V56.1264H87.4451V58.2034H98.4837V0H0Z" fill="white" fill-opacity="0.55"/>
</svg>
