<svg width="94" height="61" viewBox="0 0 94 61" fill="none" xmlns="http://www.w3.org/2000/svg">
<path d="M25.8754 12.7682C25.8754 10.8473 25.5364 9.03943 24.8584 7.40103C24.1805 5.76264 23.1635 4.35023 21.8076 3.1638C20.6777 2.14686 19.3783 1.35591 17.7964 0.847447C16.2145 0.282482 14.6326 0 12.9377 0C11.2428 0 9.60439 0.282482 8.07899 0.847447C6.55359 1.41241 5.19767 2.14686 4.12424 3.1638C2.76833 4.35023 1.75139 5.76264 1.07343 7.40103C0.395475 9.03943 0 10.7908 0 12.6552C0 14.6326 0.338979 16.384 1.01694 18.0224C1.69489 19.6608 2.71183 21.0732 4.06774 22.2596C5.19767 23.2765 6.49709 24.011 8.07899 24.5759C9.60439 25.1409 11.2428 25.4234 12.9377 25.4234C14.6326 25.4234 16.271 25.1409 17.7964 24.5759C19.3218 24.011 20.6777 23.22 21.8076 22.2596C23.107 21.0732 24.124 19.6608 24.8019 18.0789C25.5364 16.4405 25.8754 14.6891 25.8754 12.7682ZM17.0619 19.8302C16.045 21.5816 14.6891 22.4291 12.9377 22.4291C11.1863 22.4291 9.83038 21.5816 8.81344 19.8867C7.853 18.1354 7.34454 15.7625 7.34454 12.7117C7.34454 9.66089 7.853 7.28804 8.81344 5.59315C9.77388 3.89825 11.1863 3.05081 12.9377 3.05081C14.6891 3.05081 16.045 3.89825 17.0619 5.59315C18.0789 7.28804 18.5308 9.66089 18.5308 12.7117C18.5308 15.7625 18.0224 18.1354 17.0619 19.8302Z" fill="white" fill-opacity="0.55"/>
<path d="M32.0898 14.2938L37.457 23.0507C38.022 23.9547 38.5304 24.5761 38.9259 24.9151C39.3214 25.2541 39.7734 25.4236 40.2818 25.4236C40.9033 25.4236 41.4118 25.1976 41.6942 24.8021C41.9767 24.4066 42.1462 23.6722 42.1462 22.7118V8.70064H39.4909V16.7796L35.8751 10.904C35.2536 9.88706 34.6887 9.2091 34.0672 8.75713C33.5023 8.36166 32.8243 8.13567 32.0898 8.13567C31.1859 8.13567 30.5079 8.36166 30.1125 8.87013C29.717 9.43509 29.491 10.226 29.491 11.2995V24.8586H32.0898V14.2938Z" fill="white" fill-opacity="0.55"/>
<path d="M57.9651 24.8582V22.4288H53.7279C53.0499 22.4288 52.5979 22.3158 52.372 22.0898C52.146 21.8639 52.033 21.3554 52.033 20.6774V17.9656H57.1177V15.5363H52.033V12.8809C52.033 12.1465 52.146 11.6945 52.372 11.4685C52.5979 11.2425 53.0499 11.1295 53.7279 11.1295H57.7391V8.70019H50.2251C48.9822 8.70019 48.0782 8.98268 47.5698 9.54764C47.0613 10.1126 46.7788 11.073 46.7788 12.429V21.1859C46.7788 22.5418 47.0613 23.5023 47.5698 24.0672C48.0782 24.5757 48.9822 24.8582 50.2251 24.8582H57.9651Z" fill="white" fill-opacity="0.55"/>
<path d="M12.1468 43.3894C11.7513 43.2199 11.4123 43.0504 11.0169 42.9374C7.28809 41.4685 7.28809 40.5646 7.28809 40.2821C7.28809 38.9827 8.41802 38.3047 10.6779 38.3047C12.9942 38.3047 15.3106 39.3782 16.6665 40.3951L17.062 40.6211L19.6043 35.7624L19.3783 35.5364C16.836 33.6155 13.8417 32.6551 10.3954 32.6551C3.55932 32.6551 0.452019 36.3839 0.452019 39.8866C0.452019 43.3894 1.69494 45.9318 7.96604 48.5306C8.757 48.8696 9.49145 49.0956 10.1694 49.378C12.7117 50.282 13.9547 50.8469 13.9547 52.0899C13.9547 53.8413 12.7682 54.5192 9.94342 54.5192C6.66663 54.5192 3.9548 53.1633 2.59888 52.3159L2.20341 52.0899L4.74713e-05 57.344L0.226033 57.5135C1.75144 58.7 5.93217 60.2818 10.5084 60.2818C17.4574 60.2818 20.9602 57.4005 20.9602 51.6944C20.9602 46.7792 17.4574 45.4233 12.1468 43.3894Z" fill="white" fill-opacity="0.55"/>
<path d="M23.0504 38.4741H30.7904V60.2252H37.5134V38.4741H45.31V32.5984H23.0504V38.4741Z" fill="white" fill-opacity="0.55"/>
<path d="M62.3156 51.8074C62.3156 54.1237 60.5077 54.6322 58.9258 54.6322C57.4004 54.6322 55.5925 54.1237 55.5925 51.8074V32.6551H48.9259V51.8074C48.9259 55.8751 51.5813 60.2253 58.9823 60.2253C66.4398 60.2253 69.0951 55.8751 69.0951 51.8074V32.6551H62.3721V51.8074H62.3156Z" fill="white" fill-opacity="0.55"/>
<path d="M84.5187 33.0503H73.1064V60.6771H79.8295V50.6207H85.9311C89.7164 50.6207 93.7276 48.2479 93.7276 41.5248C93.7276 37.6265 92.1457 33.0503 84.5187 33.0503ZM85.0837 45.1971H79.773V38.926H84.6317C85.5921 38.926 86.3266 39.2649 86.8351 39.8299C87.2305 40.3949 87.513 41.1293 87.513 41.9768C87.5695 43.5587 86.6091 45.1971 85.0837 45.1971Z" fill="white" fill-opacity="0.55"/>
</svg>
