<svg width="59" height="59" viewBox="0 0 59 59" fill="none" xmlns="http://www.w3.org/2000/svg">
<path d="M19.8882 28.593H8.35866C8.55533 17.1125 10.817 15.2196 17.8724 11.0405C18.6837 10.5488 18.9541 9.51629 18.4624 8.68046C18.3492 8.48693 18.1985 8.31788 18.0193 8.18318C17.84 8.04849 17.6358 7.95083 17.4184 7.89591C17.201 7.84099 16.9748 7.82991 16.7531 7.86331C16.5314 7.89671 16.3186 7.97393 16.127 8.09046C7.81783 13.0071 4.91699 16.0063 4.91699 30.2892V43.5396C4.91699 47.7434 8.33408 51.1359 12.5132 51.1359H19.8882C24.2149 51.1359 27.4845 47.8663 27.4845 43.5396V36.1646C27.4845 31.8625 24.2149 28.593 19.8882 28.593ZM46.485 28.593H34.9554C35.152 17.1125 37.4137 15.2196 44.4691 11.0405C45.2804 10.5488 45.5508 9.51629 45.0591 8.68046C44.9433 8.48634 44.7903 8.31701 44.6088 8.18222C44.4273 8.04742 44.221 7.94981 44.0017 7.89498C43.7824 7.84016 43.5545 7.8292 43.3309 7.86275C43.1074 7.8963 42.8927 7.97368 42.6991 8.09046C34.39 13.0071 31.4891 16.0063 31.4891 30.3138V43.5642C31.4891 47.768 34.9062 51.1605 39.0854 51.1605H46.4604C50.787 51.1605 54.0566 47.8909 54.0566 43.5642V36.1892C54.0812 31.8625 50.8116 28.593 46.485 28.593Z" fill="url(#paint0_linear_4773_434)"/>
<defs>
<linearGradient id="paint0_linear_4773_434" x1="4.91699" y1="29.5021" x2="54.0568" y2="29.5021" gradientUnits="userSpaceOnUse">
<stop stop-color="#075B65"/>
<stop offset="0.370192" stop-color="#00838A"/>
<stop offset="0.8125" stop-color="#328A99"/>
</linearGradient>
</defs>
</svg>
