<svg width="54" height="54" viewBox="0 0 54 54" fill="none" xmlns="http://www.w3.org/2000/svg">
<path d="M52.76 43.8099H50.5615V14.5777C50.5615 13.1825 49.4261 12.0474 48.0309 12.0474H40.4177V11.7549C40.4177 10.8434 39.6763 10.1018 38.7645 10.1018H36.4942C35.5824 10.1018 34.841 10.8434 34.841 11.7549V12.0474H27.395L34.8438 7.10963L35.895 8.55476C36.1274 8.8717 36.4899 9.05194 36.8739 9.05194C36.9423 9.05194 37.0114 9.04625 37.0803 9.03454C37.522 8.95997 37.8771 8.65201 38.0059 8.23287L39.1247 4.65674C39.1253 4.654 39.1264 4.65147 39.127 4.64883C39.2349 4.28296 39.1668 3.89515 38.9402 3.58444C38.7146 3.27553 38.3697 3.09349 37.9934 3.08494L34.204 2.99508C34.197 2.99508 34.1899 2.99487 34.1824 2.99487C33.738 2.99487 33.336 3.23946 33.1304 3.63718C32.921 4.04165 32.9583 4.52101 33.2264 4.88635L34.2337 6.27094L25.5196 12.0474H5.96941C4.57406 12.0474 3.43911 13.1825 3.43911 14.5777V43.81H1.24061C0.954688 43.81 0.722656 44.0418 0.722656 44.328C0.722656 48.01 3.71829 51.0054 7.40009 51.0054H46.6005C50.2823 51.0054 53.2779 48.01 53.2779 44.328C53.2779 44.0417 53.046 43.8099 52.76 43.8099ZM34.0501 4.11337C34.0663 4.08236 34.1048 4.03079 34.1797 4.03079H34.1827L37.9694 4.12044C38.0422 4.12212 38.0874 4.17317 38.1032 4.19511C38.1238 4.22295 38.1545 4.28022 38.1342 4.35278L37.0165 7.92606C37.0016 7.97426 36.9652 8.00358 36.9079 8.01318C36.8749 8.01824 36.7899 8.02331 36.7316 7.94389L34.0627 4.27526C34.0161 4.21167 34.0299 4.15208 34.0501 4.11337ZM14.7971 19.7766C14.8966 19.927 15.0616 20.0085 15.229 20.0085C15.3275 20.0085 15.427 19.9806 15.515 19.9223L20.3675 16.7056H27.3788V28.3354C27.3788 29.2408 28.1156 29.9773 29.021 29.9773H31.3139C32.2192 29.9773 32.9557 29.2409 32.9557 28.3354V16.7057H34.841V28.3355C34.841 29.2409 35.5778 29.9774 36.4831 29.9774H38.776C39.6813 29.9774 40.4178 29.241 40.4178 28.3355V16.7057H45.6164C45.7745 16.7057 45.9034 16.8345 45.9034 16.9927V39.902C45.9034 40.0601 45.7746 40.189 45.6164 40.189H8.38464C8.22613 40.189 8.09735 40.0602 8.09735 39.902V16.9926C8.09735 16.8345 8.22613 16.7056 8.38464 16.7056H18.4922L14.9425 19.0587C14.704 19.2169 14.6389 19.5383 14.7971 19.7766ZM28.4146 28.3354V16.6427C28.4146 16.3024 28.6915 16.0253 29.0321 16.0253H31.3024C31.6429 16.0253 31.9198 16.3023 31.9198 16.6427V28.3354C31.9198 28.6696 31.648 28.9413 31.3139 28.9413H29.021C28.6867 28.9413 28.4146 28.6697 28.4146 28.3354ZM35.8768 11.7548C35.8768 11.4144 36.1536 11.1376 36.4942 11.1376H38.7645C39.1051 11.1376 39.3819 11.4144 39.3819 11.7548V28.3354C39.3819 28.6696 39.1101 28.9413 38.776 28.9413H36.4831C36.149 28.9413 35.8769 28.6696 35.8769 28.3354V11.7548H35.8768ZM34.8408 13.0832V15.6698H32.6322C32.3311 15.2595 31.8492 14.9895 31.3024 14.9895H29.0321C28.4851 14.9895 28.0033 15.2595 27.7022 15.6698H21.9302L25.8322 13.0832H34.8408ZM4.47492 14.5777C4.47492 13.7535 5.14528 13.0832 5.96941 13.0832H23.957L20.0549 15.6698H8.38464C7.65491 15.6698 7.06154 16.2633 7.06154 16.9926V39.9019C7.06154 40.6312 7.65501 41.2247 8.38464 41.2247H45.6162C46.3455 41.2247 46.939 40.6312 46.939 39.9019V16.9926C46.939 16.2633 46.3455 15.6698 45.6162 15.6698H40.4176V13.0832H48.0308C48.8549 13.0832 49.5256 13.7535 49.5256 14.5777V43.81H4.47492V14.5777ZM34.7094 44.8472C34.4723 45.9158 33.5171 46.7173 32.378 46.7173H21.6233C20.4842 46.7173 19.529 45.9158 19.2919 44.8472H34.7094ZM46.6005 49.9695H7.40009C4.46416 49.9695 2.0445 47.7147 1.78209 44.8458H3.94357C3.9481 44.8459 3.95243 44.8472 3.95696 44.8472H18.2428C18.4937 46.4896 19.9117 47.7532 21.6232 47.7532H32.3779C34.0894 47.7532 35.5074 46.4897 35.7583 44.8472H50.0435C50.0482 44.8472 50.0524 44.8459 50.0569 44.8458H52.2184C51.9562 47.7147 49.5364 49.9695 46.6005 49.9695Z" fill="white" fill-opacity="0.55"/>
<path d="M12.375 23.3692V28.3355C12.375 29.2408 13.1114 29.9773 14.0168 29.9773H16.3097C17.2151 29.9773 17.9516 29.2409 17.9516 28.3355V23.3692C17.9516 22.4577 17.2101 21.7161 16.2986 21.7161H14.0283C13.1164 21.7161 12.375 22.4577 12.375 23.3692ZM16.9156 23.3692V28.3355C16.9156 28.6696 16.6438 28.9414 16.3097 28.9414H14.0168C13.6827 28.9414 13.4109 28.6696 13.4109 28.3355V23.3692C13.4109 23.0288 13.6878 22.752 14.0283 22.752H16.2986C16.6388 22.752 16.9156 23.0287 16.9156 23.3692Z" fill="white" fill-opacity="0.55"/>
<path d="M21.559 29.9773H23.8519C24.7573 29.9773 25.4938 29.2409 25.4938 28.3354V20.0147C25.4938 19.1031 24.7523 18.3616 23.8405 18.3616H21.5702C20.6584 18.3616 19.917 19.103 19.917 20.0147V28.3354C19.9169 29.2408 20.6537 29.9773 21.559 29.9773ZM20.9528 20.0147C20.9528 19.6743 21.2297 19.3975 21.5702 19.3975H23.8405C24.1811 19.3975 24.458 19.6743 24.458 20.0147V28.3354C24.458 28.6696 24.1862 28.9414 23.852 28.9414H21.5591C21.225 28.9414 20.9529 28.6696 20.9529 28.3354V20.0147H20.9528Z" fill="white" fill-opacity="0.55"/>
</svg>
