<svg width="54" height="54" viewBox="0 0 54 54" fill="none" xmlns="http://www.w3.org/2000/svg">
<g clip-path="url(#clip0_4847_317)">
<path d="M46.7857 11.3241H34.5725C35.5987 9.23687 36.5395 6.94292 37.1248 5.09406C38.0424 2.19578 38.0276 0.724488 37.0752 0.174995C36.1218 -0.374497 34.8414 0.346909 32.79 2.59023C31.3799 4.13218 29.7314 6.28902 28.3783 8.36042C27.6917 9.40984 27.1443 10.3802 26.6707 11.3241H7.21703C5.1066 11.3241 3.39062 13.039 3.39062 15.1473V43.78C3.39062 45.8904 5.10766 47.6064 7.21703 47.6064H21.9457L20.2614 52.3145H17.032C16.5658 52.3145 16.1893 52.6921 16.1893 53.1572C16.1893 53.6223 16.5668 53.9999 17.032 53.9999H36.9698C37.4359 53.9999 37.8125 53.6223 37.8125 53.1572C37.8125 52.6921 37.4349 52.3145 36.9698 52.3145H33.7393L32.0549 47.6064H46.7857C48.8941 47.6064 50.61 45.8894 50.61 43.78V15.1473C50.609 13.039 48.8941 11.3241 46.7857 11.3241ZM23.5816 25.6752C22.7114 25.9558 21.7432 26.2669 20.8236 26.8923C20.5947 23.9023 21.392 22.1093 23.4297 21.0346L25.9926 22.5175C26.0316 22.5396 26.0717 22.5607 26.1118 22.5797C26.2415 24.8178 25.3113 25.1194 23.5816 25.6752ZM27.4902 19.923C27.5271 19.9441 27.5419 19.9768 27.5482 20C27.5546 20.0232 27.5577 20.058 27.5377 20.0928L27.0114 21.0061C26.9755 21.0673 26.8943 21.0905 26.8374 21.0578L24.1142 19.4821C24.1131 19.4821 24.1121 19.4811 24.1121 19.4811C24.0762 19.46 24.0614 19.4283 24.0551 19.4062C24.0488 19.383 24.0456 19.3482 24.0667 19.3123L24.5951 18.3958C24.6173 18.3568 24.6616 18.3346 24.7048 18.3346C24.727 18.3346 24.748 18.3399 24.7681 18.3515L27.4902 19.923ZM23.1333 17.552L22.6049 18.4696C22.3908 18.8409 22.317 19.2659 22.3908 19.6846C18.9779 21.6474 18.9198 25.1131 19.1993 27.6211C19.2468 28.0852 19.5242 28.4891 19.9376 28.699C20.1412 28.8045 20.3574 28.8562 20.5736 28.8562C20.8056 28.8562 21.0366 28.7961 21.2507 28.6748C21.2971 28.6484 21.3403 28.6178 21.3815 28.5841C22.1978 27.8932 23.165 27.5821 24.0994 27.2815C25.9166 26.6972 27.9606 26.038 27.795 22.5207C28.0661 22.3667 28.3013 22.142 28.47 21.8541L28.9984 20.9365C29.24 20.5189 29.3032 20.0305 29.1767 19.5612C29.1619 19.5053 29.144 19.4505 29.1239 19.3977C29.3307 19.1372 29.5332 18.882 29.7325 18.632C30.2451 17.9876 30.7376 17.3706 31.2143 16.742H44.9327V42.1874H9.07117V16.741H24.1363C23.7271 16.8749 23.3643 17.1512 23.1333 17.552ZM29.7895 9.28222C30.9802 7.45972 32.3966 5.58132 33.6739 4.13007C34.9722 2.65457 35.7326 2.06816 36.1155 1.83718C36.106 2.28437 35.9784 3.2357 35.3498 5.09828C34.7317 6.92921 33.8141 9.09449 32.8312 11.0393C31.4559 13.7604 30.0457 15.5312 28.4131 17.5805C28.2464 17.7893 28.0777 18.0013 27.9068 18.2165L26.0337 17.1354C26.135 16.8791 26.2341 16.6271 26.3322 16.3782C27.292 13.9387 28.1209 11.8325 29.7895 9.28222ZM31.9495 52.3145H22.0533L23.7377 47.6064H30.2662L31.9495 52.3145ZM48.9225 43.78C48.9225 44.9602 47.9638 45.921 46.7847 45.921H7.21703C6.03684 45.921 5.07602 44.9612 5.07602 43.78V15.1473C5.07602 13.9682 6.03578 13.0095 7.21703 13.0095H25.8829C25.5897 13.6824 25.3176 14.3584 25.0413 15.0545H8.22742C7.76125 15.0545 7.38473 15.4321 7.38473 15.8972V43.028C7.38473 43.4942 7.7623 43.8707 8.22742 43.8707H45.7743C46.2405 43.8707 46.617 43.4931 46.617 43.028V15.8983C46.617 15.4332 46.2394 15.0556 45.7743 15.0556H32.4272C32.8554 14.4217 33.2741 13.7509 33.6907 13.0105H46.7857C47.9649 13.0105 48.9236 13.9693 48.9236 15.1484V43.78H48.9225ZM25.0855 38.1859L27.2888 29.9646C27.409 29.5153 27.871 29.2475 28.3213 29.3687C28.7706 29.489 29.0375 29.952 28.9172 30.4013L26.714 38.6226C26.6127 38.9991 26.2721 39.248 25.8998 39.248C25.828 39.248 25.7542 39.2385 25.6814 39.2195C25.2311 39.0982 24.9643 38.6352 25.0855 38.1859ZM17.3673 34.0611C17.3768 33.7932 17.5118 33.5453 17.7333 33.3945L21.5987 30.7451C21.9827 30.4814 22.5079 30.5795 22.7705 30.9645C23.0342 31.3484 22.9361 31.8736 22.5511 32.1362L19.6307 34.138L22.5975 36.4805C22.9625 36.7695 23.0257 37.2989 22.7368 37.6649C22.5701 37.8759 22.3233 37.9855 22.0744 37.9855C21.8909 37.9855 21.7074 37.9265 21.5523 37.8041L17.6869 34.7519C17.477 34.5852 17.3589 34.3289 17.3673 34.0611ZM31.2312 30.9645C31.4949 30.5806 32.0191 30.4825 32.403 30.7462L36.2652 33.3955C36.4867 33.5474 36.6217 33.7942 36.6312 34.0621C36.6407 34.33 36.5215 34.5863 36.3116 34.7519L32.4494 37.8041C32.2943 37.9265 32.1098 37.9855 31.9273 37.9855C31.6784 37.9855 31.4316 37.8759 31.265 37.6649C30.976 37.3 31.0382 36.7695 31.4042 36.4805L34.3689 34.138L31.4506 32.1362C31.0656 31.8736 30.9686 31.3484 31.2312 30.9645Z" fill="white" fill-opacity="0.55"/>
</g>
<defs>
<clipPath id="clip0_4847_317">
<rect width="54" height="54" fill="white"/>
</clipPath>
</defs>
</svg>
