<svg width="54" height="54" viewBox="0 0 54 54" fill="none" xmlns="http://www.w3.org/2000/svg">
<path d="M47.4464 29.5164V27.0162C47.4464 26.5784 47.0915 26.2236 46.6538 26.2236C46.2161 26.2236 45.8612 26.5784 45.8612 27.0162V28.8633C44.7006 28.4816 43.4617 28.2743 42.1751 28.2743C42.0828 28.2743 41.9897 28.2763 41.8967 28.2785V17.1673C41.8967 16.7295 41.5418 16.3747 41.1041 16.3747H40.7905L43.8789 13.0912L46.9673 16.3747H46.6537C46.216 16.3747 45.8611 16.7295 45.8611 17.1673V23.9231C45.8611 24.3609 46.2159 24.7157 46.6537 24.7157C47.0915 24.7157 47.4463 24.3609 47.4463 23.9231V17.9599H48.8009C49.4745 17.9822 49.8559 17.0996 49.3783 16.6243L44.4562 11.3916C44.1589 11.0618 43.5989 11.0618 43.3017 11.3916L38.3797 16.6243C37.9019 17.0997 38.2835 17.9822 38.957 17.9599H40.3116V23.9061C39.291 22.1864 37.8366 20.7577 36.1043 19.7665V10.1372H37.4589C38.1325 10.1596 38.5139 9.27683 38.0363 8.8017L33.1142 3.56908C32.8169 3.23927 32.2569 3.23927 31.9597 3.56908L27.0377 8.8017C26.5598 9.27694 26.9415 10.1597 27.615 10.1372H28.9696V18.3387C27.4617 18.5245 26.0389 19.0018 24.7624 19.7162V15.7222H26.117C26.7906 15.7446 27.172 14.8618 26.6944 14.3866L21.7723 9.15396C21.475 8.82416 20.915 8.82416 20.6178 9.15396L15.6958 14.3866C15.218 14.8619 15.5996 15.7445 16.2731 15.7222H17.6277V26.5904C17.2513 26.5485 16.8717 26.5264 16.4896 26.5264C15.4207 26.5264 14.3897 26.6918 13.4204 26.9973V8.89166H14.775C15.4486 8.91402 15.83 8.03135 15.3523 7.55611L10.4301 2.32328C10.1329 1.99348 9.57277 1.99348 9.27555 2.32328L4.35343 7.55601C3.87555 8.03135 4.25725 8.91392 4.93077 8.89156H6.28541V15.3925C6.28541 15.8303 6.64031 16.1851 7.07801 16.1851C7.5157 16.1851 7.87061 15.8303 7.87061 15.3925V8.09906C7.87061 7.66126 7.51581 7.30647 7.07801 7.30647H6.76434L9.85279 4.02301L12.9412 7.30647H12.6276C12.1899 7.30647 11.835 7.66126 11.835 8.09906V27.6481C10.2167 28.4784 8.84735 29.7273 7.87039 31.2511V18.5629C7.87039 18.1251 7.5156 17.7703 7.0778 17.7703C6.6401 17.7703 6.2852 18.1251 6.2852 18.5629V36.0215C6.28267 36.0575 6.2795 36.0934 6.27729 36.1295C2.65444 36.9217 0 40.1637 0 43.9336C0 48.3395 3.58457 51.9241 7.99052 51.9241H32.3633C32.801 51.9241 33.1559 51.5693 33.1559 51.1315C33.1559 50.6937 32.8011 50.3389 32.3633 50.3389H7.99052C4.45859 50.3389 1.58509 47.4654 1.58509 43.9334C1.58509 40.7276 3.97944 37.998 7.15447 37.5842C7.5504 37.5327 7.84614 37.1945 7.84466 36.7953C7.84455 36.7811 7.84424 36.7669 7.84361 36.7499C7.8474 31.9857 11.7244 28.1112 16.4894 28.1112C17.5401 28.1112 18.5698 28.2994 19.5495 28.6703C19.9974 28.8527 20.5401 28.5425 20.6111 28.0643C21.4367 23.2963 25.5525 19.8355 30.3977 19.8355C35.6437 19.8355 39.999 23.934 40.3132 29.1662C40.3932 30.1521 41.5033 29.8545 42.1753 29.8595C47.8215 29.8595 52.415 34.4531 52.415 40.0992C52.415 45.7454 47.8215 50.339 42.1753 50.339H35.5335C35.0958 50.339 34.7409 50.6938 34.7409 51.1316C34.7409 51.5694 35.0958 51.9242 35.5335 51.9242H42.1751C48.6953 51.9242 54 46.6195 54 40.0992C54 35.472 51.3281 31.4578 47.4464 29.5164ZM32.5369 5.26881L35.6253 8.55216H35.3118C34.8741 8.55216 34.5192 8.90695 34.5192 9.34476V19.0133C33.2833 18.5383 31.947 18.2712 30.5547 18.2524V9.34465C30.5547 8.90685 30.1998 8.55205 29.7621 8.55205H29.4485L32.5369 5.26881ZM19.2397 26.9019C19.2308 26.8994 19.2216 26.8973 19.2126 26.8949V14.9295C19.2126 14.4917 18.8577 14.1369 18.42 14.1369H18.1065L21.1949 10.8536L24.2833 14.1369H23.9698C23.5321 14.1369 23.1772 14.4917 23.1772 14.9295V20.7858C21.2812 22.3088 19.8703 24.4284 19.2397 26.9019Z" fill="white" fill-opacity="0.55"/>
<path d="M29.8662 35.9639C30.3039 35.9639 30.6588 35.6091 30.6588 35.1713C30.6588 34.7335 30.3039 34.3787 29.8662 34.3787H26.1549C25.7172 34.3787 25.3623 34.7335 25.3623 35.1713V43.9795C25.3623 44.4173 25.7172 44.7721 26.1549 44.7721H29.8662C30.3039 44.7721 30.6588 44.4173 30.6588 43.9795C30.6588 43.5417 30.3039 43.1869 29.8662 43.1869H26.9474V40.3679H29.5926C30.0302 40.3679 30.3851 40.0131 30.3851 39.5753C30.3851 39.1375 30.0304 38.7827 29.5926 38.7827H26.9474V35.9638H29.8662V35.9639Z" fill="white" fill-opacity="0.55"/>
<path d="M20.4713 43.2274C19.4993 43.2274 18.5609 42.8321 17.961 42.1701C17.667 41.8458 17.1658 41.8212 16.8414 42.115C16.5171 42.4089 16.4924 42.9101 16.7862 43.2345C17.6817 44.2226 19.0592 44.8126 20.4712 44.8126C22.1623 44.8126 23.6356 43.7035 23.8982 42.2328C24.2011 40.5362 22.867 39.3997 21.5175 38.902C20.3736 38.48 19.3124 38.0193 19.0445 37.9017C18.7605 37.6935 18.6227 37.3611 18.6743 37.0014C18.7393 36.5486 19.0872 36.1853 19.6049 36.0294C21.031 35.5995 22.3198 36.633 22.3452 36.6538C22.6803 36.933 23.1782 36.8889 23.459 36.5547C23.7406 36.2197 23.6974 35.7196 23.3623 35.438C23.2837 35.372 21.4131 33.8294 19.1476 34.5116C18.0405 34.8452 17.2579 35.7129 17.1052 36.7762C16.9631 37.7664 17.3918 38.7183 18.2241 39.261C18.2591 39.2839 18.2959 39.3039 18.3341 39.3209C18.3852 39.3436 19.5999 39.8843 20.9687 40.3892C21.9515 40.7517 22.4504 41.3221 22.3376 41.9543C22.2276 42.5713 21.536 43.2274 20.4713 43.2274Z" fill="white" fill-opacity="0.55"/>
<path d="M41.9139 39.5753C41.9139 36.6875 39.5644 34.3381 36.6767 34.3381C33.7889 34.3381 31.4395 36.6876 31.4395 39.5753C31.4395 42.4631 33.7889 44.8124 36.6767 44.8124C39.5644 44.8126 41.9139 42.4631 41.9139 39.5753ZM33.0245 39.5753C33.0245 37.5615 34.6629 35.9232 36.6766 35.9232C38.6903 35.9232 40.3287 37.5615 40.3287 39.5753C40.3287 41.5891 38.6903 43.2274 36.6766 43.2274C34.6629 43.2275 33.0245 41.5891 33.0245 39.5753Z" fill="white" fill-opacity="0.55"/>
</svg>
