<svg width="54" height="54" viewBox="0 0 54 54" fill="none" xmlns="http://www.w3.org/2000/svg">
<g opacity="0.55">
<path d="M31.2188 51.4688H22.7812C22.5575 51.4688 22.3429 51.3799 22.1846 51.2216C22.0264 51.0634 21.9375 50.8488 21.9375 50.625V48.3469C19.6551 47.8114 17.475 46.908 15.4828 45.6722L13.8713 47.25C13.7925 47.3317 13.6982 47.3966 13.5938 47.441C13.4894 47.4853 13.3772 47.5082 13.2638 47.5082C13.1503 47.5082 13.0381 47.4853 12.9337 47.441C12.8293 47.3966 12.735 47.3317 12.6562 47.25L6.75 41.3438C6.59285 41.1857 6.50464 40.9718 6.50464 40.7489C6.50464 40.526 6.59285 40.3121 6.75 40.1541L8.36156 38.5425C7.11142 36.5447 6.19652 34.3557 5.65312 32.0625H3.375C3.15122 32.0625 2.93661 31.9736 2.77838 31.8154C2.62014 31.6571 2.53125 31.4425 2.53125 31.2188V22.7812C2.53125 22.5575 2.62014 22.3429 2.77838 22.1846C2.93661 22.0264 3.15122 21.9375 3.375 21.9375H5.65312C6.18864 19.6551 7.092 17.475 8.32781 15.4828L6.75 13.8713C6.66834 13.7925 6.60339 13.6982 6.55902 13.5938C6.51466 13.4894 6.49179 13.3772 6.49179 13.2638C6.49179 13.1503 6.51466 13.0381 6.55902 12.9337C6.60339 12.8293 6.66834 12.735 6.75 12.6562L12.6562 6.75C12.8143 6.59285 13.0282 6.50464 13.2511 6.50464C13.474 6.50464 13.6878 6.59285 13.8459 6.75L15.4575 8.36156C17.4553 7.11142 19.6443 6.19652 21.9375 5.65312V3.375C21.9375 3.15122 22.0264 2.93661 22.1846 2.77838C22.3429 2.62014 22.5575 2.53125 22.7812 2.53125H31.2188C31.4425 2.53125 31.6571 2.62014 31.8154 2.77838C31.9736 2.93661 32.0625 3.15122 32.0625 3.375V6.75C32.0625 6.97378 31.9736 7.18839 31.8154 7.34662C31.6571 7.50486 31.4425 7.59375 31.2188 7.59375C30.995 7.59375 30.7804 7.50486 30.6221 7.34662C30.4639 7.18839 30.375 6.97378 30.375 6.75V4.21875H23.625V6.32812C23.629 6.52552 23.5636 6.71805 23.4403 6.87222C23.3169 7.02639 23.1435 7.13243 22.95 7.17188C20.4104 7.6869 17.9948 8.68981 15.8372 10.125C15.6746 10.2323 15.4798 10.2799 15.286 10.2599C15.0923 10.24 14.9114 10.1535 14.7741 10.0153L13.2806 8.52188L8.505 13.2975L9.99844 14.7909C10.1351 14.9251 10.2222 15.1017 10.2452 15.2919C10.2682 15.482 10.2258 15.6743 10.125 15.8372C8.68981 17.9948 7.6869 20.4104 7.17188 22.95C7.13243 23.1435 7.02639 23.3169 6.87222 23.4403C6.71805 23.5636 6.52552 23.629 6.32812 23.625H4.21875V30.375H6.32812C6.52552 30.371 6.71805 30.4364 6.87222 30.5597C7.02639 30.6831 7.13243 30.8565 7.17188 31.05C7.6869 33.5896 8.68981 36.0052 10.125 38.1628C10.2323 38.3254 10.2799 38.5202 10.2599 38.714C10.24 38.9077 10.1535 39.0886 10.0153 39.2259L8.52188 40.7194L13.2975 45.495L14.7909 44.0016C14.9251 43.8649 15.1017 43.7778 15.2919 43.7548C15.482 43.7318 15.6743 43.7742 15.8372 43.875C17.9948 45.3102 20.4104 46.3131 22.95 46.8281C23.1435 46.8676 23.3169 46.9736 23.4403 47.1278C23.5636 47.2819 23.629 47.4745 23.625 47.6719V49.7812H30.375V47.25C30.375 47.0262 30.4639 46.8116 30.6221 46.6534C30.7804 46.4951 30.995 46.4062 31.2188 46.4062C31.4425 46.4062 31.6571 46.4951 31.8154 46.6534C31.9736 46.8116 32.0625 47.0262 32.0625 47.25V50.625C32.0625 50.8488 31.9736 51.0634 31.8154 51.2216C31.6571 51.3799 31.4425 51.4688 31.2188 51.4688Z" fill="white"/>
<path d="M37.125 37.125C36.6028 37.1265 36.0938 37.2894 35.6678 37.5915C35.2418 37.8937 34.9197 38.3201 34.7456 38.8125H27C23.8671 38.8125 20.8626 37.568 18.6473 35.3527C16.432 33.1374 15.1875 30.1329 15.1875 27C15.1875 23.8671 16.432 20.8626 18.6473 18.6473C20.8626 16.432 23.8671 15.1875 27 15.1875H34.7456C34.9447 15.7505 35.3363 16.2249 35.8513 16.5271C36.3664 16.8292 36.9716 16.9395 37.5601 16.8386C38.1487 16.7376 38.6825 16.4318 39.0674 15.9753C39.4523 15.5188 39.6634 14.9409 39.6634 14.3438C39.6634 13.7466 39.4523 13.1688 39.0674 12.7122C38.6825 12.2557 38.1487 11.9499 37.5601 11.849C36.9716 11.748 36.3664 11.8583 35.8513 12.1604C35.3363 12.4626 34.9447 12.937 34.7456 13.5H27C23.4196 13.5 19.9858 14.9223 17.4541 17.4541C14.9223 19.9858 13.5 23.4196 13.5 27C13.5 30.5804 14.9223 34.0142 17.4541 36.5459C19.9858 39.0777 23.4196 40.5 27 40.5H34.7456C34.9004 40.9378 35.1726 41.3246 35.5325 41.618C35.8924 41.9115 36.3261 42.1003 36.7861 42.1637C37.2461 42.2272 37.7147 42.1629 38.1406 41.9779C38.5665 41.7929 38.9333 41.4943 39.2009 41.1148C39.4685 40.7352 39.6265 40.2894 39.6576 39.8261C39.6888 39.3628 39.5919 38.8998 39.3776 38.4879C39.1633 38.076 38.8397 37.7309 38.4424 37.4905C38.0451 37.2502 37.5894 37.1237 37.125 37.125ZM37.125 13.5C37.2919 13.5 37.455 13.5495 37.5938 13.6422C37.7325 13.7349 37.8407 13.8667 37.9045 14.0209C37.9684 14.175 37.9851 14.3447 37.9525 14.5084C37.92 14.672 37.8396 14.8224 37.7216 14.9404C37.6036 15.0584 37.4533 15.1387 37.2896 15.1713C37.1259 15.2038 36.9563 15.1871 36.8021 15.1233C36.6479 15.0594 36.5162 14.9513 36.4234 14.8125C36.3307 14.6738 36.2812 14.5106 36.2812 14.3438C36.2812 14.12 36.3701 13.9054 36.5284 13.7471C36.6866 13.5889 36.9012 13.5 37.125 13.5ZM37.125 40.5C36.9581 40.5 36.795 40.4505 36.6562 40.3578C36.5175 40.2651 36.4093 40.1333 36.3455 39.9791C36.2816 39.825 36.2649 39.6553 36.2975 39.4916C36.33 39.328 36.4104 39.1776 36.5284 39.0596C36.6464 38.9416 36.7967 38.8613 36.9604 38.8287C37.1241 38.7962 37.2937 38.8129 37.4479 38.8767C37.6021 38.9406 37.7338 39.0487 37.8266 39.1875C37.9193 39.3263 37.9687 39.4894 37.9687 39.6563C37.9687 39.88 37.8799 40.0946 37.7216 40.2529C37.5634 40.4111 37.3488 40.5 37.125 40.5Z" fill="white"/>
<path d="M48.9375 24.4688C48.4153 24.4702 47.9063 24.6332 47.4803 24.9353C47.0543 25.2374 46.7322 25.6639 46.5581 26.1563H26.1562C25.9325 26.1563 25.7179 26.2452 25.5596 26.4034C25.4014 26.5616 25.3125 26.7762 25.3125 27C25.3125 27.2238 25.4014 27.4384 25.5596 27.5966C25.7179 27.7549 25.9325 27.8438 26.1562 27.8438H46.5581C46.7129 28.2816 46.9852 28.6683 47.345 28.9618C47.7049 29.2552 48.1386 29.444 48.5986 29.5075C49.0586 29.571 49.5272 29.5067 49.9531 29.3217C50.379 29.1366 50.7459 28.838 51.0134 28.4585C51.281 28.079 51.439 27.6332 51.4701 27.1699C51.5013 26.7065 51.4044 26.2436 51.1901 25.8316C50.9758 25.4197 50.6522 25.0747 50.2549 24.8343C49.8576 24.5939 49.4019 24.4675 48.9375 24.4688ZM48.9375 27.8438C48.7706 27.8438 48.6075 27.7943 48.4687 27.7016C48.33 27.6089 48.2218 27.4771 48.158 27.3229C48.0941 27.1687 48.0774 26.9991 48.11 26.8354C48.1425 26.6717 48.2229 26.5214 48.3409 26.4034C48.4589 26.2854 48.6092 26.205 48.7729 26.1725C48.9366 26.1399 49.1062 26.1566 49.2604 26.2205C49.4146 26.2843 49.5463 26.3925 49.6391 26.5312C49.7318 26.67 49.7812 26.8331 49.7812 27C49.7812 27.2238 49.6924 27.4384 49.5341 27.5966C49.3759 27.7549 49.1613 27.8438 48.9375 27.8438Z" fill="white"/>
<path d="M43.0312 31.2188C42.509 31.2202 42 31.3832 41.574 31.6853C41.1481 31.9874 40.826 32.4139 40.6519 32.9063H27C25.4336 32.9063 23.9313 32.284 22.8237 31.1764C21.716 30.0687 21.0937 28.5664 21.0937 27C21.0937 25.4336 21.716 23.9313 22.8237 22.8237C23.9313 21.716 25.4336 21.0938 27 21.0938H40.6519C40.8509 21.6567 41.2426 22.1312 41.7576 22.4333C42.2726 22.7354 42.8779 22.8458 43.4664 22.7448C44.0549 22.6438 44.5888 22.3381 44.9736 21.8815C45.3585 21.425 45.5696 20.8471 45.5696 20.25C45.5696 19.6529 45.3585 19.075 44.9736 18.6185C44.5888 18.162 44.0549 17.8562 43.4664 17.7552C42.8779 17.6542 42.2726 17.7646 41.7576 18.0667C41.2426 18.3688 40.8509 18.8433 40.6519 19.4063H27C24.986 19.4063 23.0545 20.2063 21.6304 21.6304C20.2063 23.0545 19.4062 24.986 19.4062 27C19.4063 29.014 20.2063 30.9455 21.6304 32.3696C23.0545 33.7937 24.986 34.5938 27 34.5938H40.6519C40.8067 35.0316 41.0789 35.4183 41.4388 35.7118C41.7987 36.0052 42.2324 36.194 42.6924 36.2575C43.1524 36.321 43.621 36.2567 44.0469 36.0717C44.4728 35.8866 44.8396 35.588 45.1072 35.2085C45.3747 34.829 45.5327 34.3832 45.5639 33.9199C45.5951 33.4565 45.4982 32.9936 45.2838 32.5816C45.0695 32.1697 44.746 31.8247 44.3487 31.5843C43.9514 31.3439 43.4956 31.2175 43.0312 31.2188ZM43.0312 19.4063C43.1981 19.4063 43.3613 19.4557 43.5 19.5485C43.6388 19.6412 43.7469 19.7729 43.8108 19.9271C43.8746 20.0813 43.8913 20.2509 43.8588 20.4146C43.8262 20.5783 43.7459 20.7286 43.6279 20.8466C43.5099 20.9646 43.3595 21.045 43.1959 21.0775C43.0322 21.1101 42.8625 21.0934 42.7084 21.0295C42.5542 20.9657 42.4224 20.8575 42.3297 20.7188C42.237 20.58 42.1875 20.4169 42.1875 20.25C42.1875 20.0262 42.2764 19.8116 42.4346 19.6534C42.5929 19.4951 42.8075 19.4063 43.0312 19.4063ZM43.0312 34.5938C42.8644 34.5938 42.7012 34.5443 42.5625 34.4516C42.4237 34.3588 42.3156 34.2271 42.2517 34.0729C42.1879 33.9187 42.1712 33.7491 42.2037 33.5854C42.2363 33.4217 42.3166 33.2714 42.4346 33.1534C42.5526 33.0354 42.703 32.955 42.8666 32.9225C43.0303 32.8899 43.2 32.9066 43.3541 32.9705C43.5083 33.0343 43.6401 33.1425 43.7328 33.2812C43.8255 33.42 43.875 33.5831 43.875 33.75C43.875 33.9738 43.7861 34.1884 43.6279 34.3466C43.4696 34.5049 43.255 34.5938 43.0312 34.5938Z" fill="white"/>
</g>
</svg>
