<svg width="54" height="54" viewBox="0 0 54 54" fill="none" xmlns="http://www.w3.org/2000/svg">
<g clip-path="url(#clip0_4847_268)">
<path d="M50.8659 39.2196L48.1573 38.2659V37.3712H48.1986C50.7867 37.3712 52.8921 35.2671 52.8921 32.6807V27.2971C52.8921 23.9417 50.5247 21.0314 47.2486 20.3384C42.4498 17.3112 35.642 21.212 35.8397 26.8884V32.6807C35.8397 35.2111 37.8555 37.2787 40.3663 37.3671V38.278L38.0175 39.1794C37.4618 39.3925 36.953 39.7112 36.5175 40.1138C35.9745 39.5813 35.3103 39.1629 34.5571 38.9063L30.8161 37.6317V35.1417C31.381 34.8002 31.9093 34.3822 32.3865 33.8897C33.7914 32.4399 34.6142 30.5089 34.716 28.4392C34.7297 28.3896 34.7375 25.2674 34.7375 25.2674C34.7375 22.2233 32.5904 19.5825 29.6173 18.9498C25.2609 16.211 19.0835 19.7492 19.2624 24.8994C19.2624 24.8994 19.272 28.4538 19.2871 28.5054C19.4347 31.116 20.7126 33.376 22.6034 34.7615V37.643L19.314 38.8611C18.5721 39.1358 17.9199 39.5724 17.3905 40.121C16.942 39.7267 16.4233 39.418 15.8594 39.2196L13.1508 38.2659V37.3712H13.1922C15.7801 37.3712 17.8857 35.2671 17.8857 32.6807V27.2971C17.8857 23.9417 15.5183 21.0314 12.2421 20.3384C7.44346 17.3114 0.635538 21.212 0.833308 26.8884V32.6807C0.833308 35.2111 2.84908 37.2788 5.35985 37.3671V38.278L3.01096 39.1794C1.21004 39.8706 0 41.6302 0 43.5582V50.9883C0 51.307 0.258346 51.5653 0.576923 51.5653H15.9265V53.4231C15.9265 53.7418 16.1849 54 16.5035 54H37.4967C37.8153 54 38.0736 53.7418 38.0736 53.4231V51.5652H53.4231C53.7418 51.5652 54 51.3069 54 50.9882V43.6435C54 41.6573 52.7405 39.8795 50.8659 39.2196ZM44.5032 35.6676C42.0383 35.6676 40.033 33.3463 40.033 30.4928C40.033 29.7873 40.154 29.1069 40.3911 28.466C42.1591 27.742 43.729 26.6008 44.9705 25.1193C46.2075 26.5348 47.5012 27.9126 48.838 29.2433C48.9262 29.6529 48.9734 30.0722 48.9734 30.4928C48.9734 33.3463 46.9681 35.6676 44.5032 35.6676ZM47.0084 38.7367L44.5065 42.5535L41.5202 38.4824V35.8542C43.0633 37.001 45.3415 37.1419 47.0034 36.1594V38.6745C47.0034 38.6956 47.0061 38.7162 47.0084 38.7367ZM51.7382 32.6807C51.7382 34.6308 50.1503 36.2174 48.1986 36.2174H48.1573V35.2975C49.3606 34.1371 50.1255 32.4168 50.127 30.4982C50.6583 31.0044 51.1948 31.5038 51.7382 31.994V32.6807ZM36.9936 26.8884C37.9338 19.2831 44.8015 19.8369 46.7412 21.3788C46.7934 21.4203 46.8613 21.4374 46.9267 21.4503C49.7147 21.999 51.7382 24.4578 51.7382 27.2971V30.4283C49.5029 28.3583 47.3686 26.1459 45.3871 23.8385C45.1617 23.5608 44.692 23.5764 44.486 23.8707C43.2667 25.5158 41.6256 26.7578 39.7472 27.4817C38.893 27.8242 37.9093 28.0214 36.9935 28.1747V26.8884H36.9936ZM36.9936 32.6807V29.3474C37.6088 29.234 38.4635 29.0958 39.0553 28.9229C38.9395 29.4321 38.8792 29.9565 38.8792 30.4928C38.8792 32.1428 39.4438 33.6469 40.3664 34.7746V36.2132C38.4917 36.1258 36.9936 34.575 36.9936 32.6807ZM29.1103 19.9903C29.1675 20.0247 29.2303 20.0488 29.2957 20.0617C31.7803 20.5501 33.5836 22.7395 33.5836 25.2673V27.3582C31.6411 26.3341 30.1194 24.6683 29.2788 22.637C29.1298 22.2442 28.5643 22.1564 28.3033 22.4873L27.4949 23.4535C26.779 24.3091 25.6487 24.73 24.5453 24.5508C22.9569 24.2937 21.3745 24.9388 20.4162 26.1839V24.8993C20.2672 20.5752 25.4834 17.6376 29.1103 19.9903ZM20.4393 28.448L21.0565 27.3095C21.6989 26.1246 23.0273 25.4742 24.3609 25.6898C25.8643 25.9334 27.4042 25.3602 28.38 24.1938L28.6068 23.9228C29.6798 25.9865 31.4207 27.6428 33.5493 28.6297C33.2551 32.2622 30.4423 35.0562 27.0001 35.0562C23.5072 35.0563 20.6534 32.1657 20.4393 28.448ZM29.6623 35.7097V37.9L27.0412 42.8014L23.7573 37.87V35.4608C25.5248 36.3498 27.8012 36.4583 29.6623 35.7097ZM9.49685 35.6676C7.032 35.6676 5.02673 33.3463 5.02673 30.4928C5.02673 29.7872 5.14765 29.1068 5.38465 28.466C7.15269 27.742 8.72273 26.6008 9.96404 25.1192C11.2011 26.5347 12.4948 27.9125 13.8317 29.2432C13.9199 29.653 13.9671 30.0722 13.9671 30.4927C13.967 33.3463 11.9616 35.6676 9.49685 35.6676ZM12.002 38.7367L9.49996 42.5535L6.51392 38.4825V35.8543C8.05696 37.001 10.3352 37.142 11.9971 36.1595V38.6746C11.9971 38.6956 11.9998 38.7162 12.002 38.7367ZM16.7319 32.6807C16.7319 34.6308 15.144 36.2174 13.1923 36.2174H13.151V35.2975C14.3543 34.1371 15.1192 32.4168 15.1207 30.4982C15.652 31.0044 16.1885 31.5038 16.7319 31.994V32.6807ZM1.98727 26.8884C2.65385 19.7815 9.68769 19.6708 11.7348 21.3788C11.7862 21.4216 11.855 21.4374 11.9205 21.4503C14.7084 21.999 16.7319 24.4578 16.7319 27.2971V30.4282C14.4965 28.3582 12.3622 26.1458 10.3809 23.8383C10.153 23.5605 9.68642 23.5765 9.47965 23.8705C8.26062 25.5155 6.61985 26.7572 4.74208 27.4813C3.88754 27.824 2.90342 28.0213 1.98727 28.1747V26.8884ZM1.98727 32.6807V29.3474C2.6025 29.234 3.45704 29.096 4.04885 28.923C3.93323 29.4321 3.87288 29.9565 3.87288 30.4928C3.87288 32.1429 4.43746 33.6469 5.36008 34.7746V36.2131C3.48554 36.1259 1.98727 34.575 1.98727 32.6807ZM1.15385 50.4113V43.558C1.15385 42.1044 2.06631 40.7777 3.4245 40.2565L5.73415 39.3703L8.94946 43.7539L8.94623 46.8812C8.94588 47.1998 9.20388 47.4584 9.52258 47.4587H9.52315C9.8415 47.4587 10.0997 47.2009 10.1001 46.8824L10.1033 43.7378L12.9375 39.4142L15.4764 40.3081C15.9239 40.4655 16.3351 40.714 16.6855 41.0346C16.2009 41.8303 15.9265 42.7567 15.9265 43.7245V50.4114L1.15385 50.4113ZM36.9197 52.8462H32.7692V47.4107C32.7692 47.092 32.511 46.8338 32.1923 46.8338C31.8736 46.8338 31.6154 47.092 31.6154 47.4107V52.8462H22.3846V47.4107C22.3846 47.092 22.1263 46.8338 21.8077 46.8338C21.4891 46.8338 21.2308 47.092 21.2308 47.4107V52.8462H17.0804V43.7244C17.0804 42.0462 18.139 40.5265 19.7148 39.943L22.953 38.744L26.4252 43.958L26.421 46.4867C26.4208 46.8054 26.6788 47.0639 26.9975 47.0642H26.9979C27.3163 47.0642 27.5746 46.8064 27.5748 46.4879L27.5789 44.2363C27.5875 44.2229 27.5965 44.2097 27.6042 44.1955L30.517 38.7486L34.1852 39.9984C35.8209 40.5555 36.9198 42.0893 36.9198 43.8152L36.9197 52.8462ZM52.8462 50.4113H38.0736V43.8152C38.0736 42.7951 37.7745 41.8276 37.2479 41.0098C37.5876 40.6834 37.9898 40.4258 38.4309 40.2565L40.7407 39.3702L43.956 43.7536L43.9527 46.881C43.9523 47.1996 44.2103 47.4582 44.529 47.4585H44.5296C44.8479 47.4585 45.1062 47.2006 45.1065 46.8822L45.1098 43.7376L47.944 39.414L50.4828 40.3079C51.8964 40.8055 52.8462 42.146 52.8462 43.6434V50.4113Z" fill="white" fill-opacity="0.55"/>
<path d="M35.6397 21.8303C35.1453 21.8478 34.8635 21.1863 35.233 20.8442L36.2861 19.7975L35.0178 17.7207C34.909 17.5424 34.9049 17.3192 35.0073 17.137C35.3509 16.5262 35.6225 15.878 35.8147 15.2103C35.872 15.0112 36.0316 14.8582 36.2329 14.8093L38.6172 14.2298V11.1938L36.241 10.6163C36.0391 10.5673 35.8792 10.4135 35.8223 10.2137C35.6318 9.54485 35.3621 8.89581 35.0205 8.28438C34.919 8.10254 34.9233 7.88008 35.0318 7.70227L36.3044 5.61854L34.142 3.46892L32.0475 4.73319C31.8704 4.83992 31.6499 4.84396 31.469 4.74346C30.8545 4.40181 30.2018 4.13146 29.5293 3.94027C29.3299 3.8835 29.1763 3.72427 29.1269 3.52315L28.5443 1.15385H25.4823L24.9016 3.51508C24.852 3.71677 24.6976 3.87635 24.4977 3.93265C23.8244 4.12212 23.1709 4.3905 22.5554 4.73019C22.3751 4.82989 22.1551 4.82573 21.9785 4.71912L19.8769 3.45069L17.7146 5.60031L18.9829 7.67712C19.0918 7.8555 19.0958 8.07865 18.9934 8.26073C18.65 8.87112 18.3783 9.51935 18.1859 10.1875C18.1286 10.3866 17.969 10.5396 17.7678 10.5885L15.3833 11.168V14.2041L17.7596 14.7816C17.9615 14.8306 18.1213 14.9844 18.1782 15.1842C18.3685 15.8527 18.6382 16.5017 18.98 17.1135C19.0815 17.2953 19.0773 17.5178 18.9687 17.6956L17.6961 19.7793L18.6239 20.7017C18.8498 20.9264 18.851 21.2916 18.6263 21.5176C18.4017 21.7434 18.0364 21.7447 17.8105 21.52L16.5596 20.2765C16.3701 20.0882 16.3347 19.7946 16.474 19.5667L17.8116 17.3766C17.554 16.8771 17.3381 16.3575 17.167 15.8252L14.6701 15.2184C14.4116 15.1555 14.2295 14.924 14.2295 14.6579V10.7144C14.2295 10.4482 14.4116 10.2167 14.6701 10.1538L17.1761 9.54485C17.3488 9.01304 17.5662 8.49404 17.8251 7.99546L16.4924 5.81308C16.3531 5.58508 16.3887 5.29142 16.578 5.10323L19.3828 2.31508C19.5705 2.12862 19.8611 2.09365 20.0876 2.23027L22.2948 3.5625C22.7984 3.30542 23.3227 3.09 23.8598 2.91946L24.4698 0.439269C24.5332 0.181269 24.7645 0 25.03 0H28.9964C29.262 0 29.4933 0.181269 29.5566 0.439154L30.1687 2.92846C30.7053 3.1005 31.2289 3.31731 31.7318 3.57588L33.9312 2.24838C34.158 2.11142 34.4482 2.14673 34.6361 2.33319L37.441 5.12135C37.6303 5.30965 37.6657 5.60331 37.5266 5.83119L36.1889 8.02154C36.4465 8.52081 36.6625 9.0405 36.8337 9.57288L39.3304 10.1797C39.589 10.2426 39.771 10.4742 39.771 10.7402V14.6834C39.771 14.9496 39.589 15.181 39.3304 15.2439L36.8245 15.8529C36.6518 16.3845 36.4345 16.9034 36.1754 17.4023L37.5083 19.5847C37.6475 19.8127 37.612 20.1063 37.4227 20.2945L36.0464 21.6625C35.9339 21.7745 35.7867 21.8303 35.6397 21.8303Z" fill="white" fill-opacity="0.55"/>
<path d="M27 17.5473C24.3248 17.5473 22.1484 15.3723 22.1484 12.6988C22.1484 10.0253 24.3248 7.85034 27 7.85034C29.6753 7.85034 31.8517 10.0255 31.8517 12.6989C31.8517 15.3724 29.6753 17.5473 27 17.5473ZM27 9.00419C24.9611 9.00419 23.3023 10.6616 23.3023 12.6989C23.3023 14.736 24.9611 16.3935 27 16.3935C29.039 16.3935 30.6979 14.7361 30.6979 12.6989C30.6979 10.6616 29.039 9.00419 27 9.00419Z" fill="white" fill-opacity="0.55"/>
<path d="M27 49.5576C27.4142 49.5576 27.75 49.2218 27.75 48.8076C27.75 48.3934 27.4142 48.0576 27 48.0576C26.5858 48.0576 26.25 48.3934 26.25 48.8076C26.25 49.2218 26.5858 49.5576 27 49.5576Z" fill="white" fill-opacity="0.55"/>
</g>
<defs>
<clipPath id="clip0_4847_268">
<rect width="54" height="54" fill="white"/>
</clipPath>
</defs>
</svg>
