<svg width="57" height="57" viewBox="0 0 57 57" fill="none" xmlns="http://www.w3.org/2000/svg">
<g clip-path="url(#clip0_4847_263)">
<path d="M56.1094 12.4688H51.6562V11.5781C51.6562 11.0861 51.2577 10.6875 50.7656 10.6875C50.2736 10.6875 49.875 11.0861 49.875 11.5781V12.4688H45.4219C44.9298 12.4688 44.5312 12.8673 44.5312 13.3594C44.5312 13.8514 44.9298 14.25 45.4219 14.25H49.875V16.0312H48.9844C48.6014 16.0312 48.2607 16.2762 48.1394 16.6402L47.4514 18.7031H39.9245C39.5571 17.6667 38.5674 16.9219 37.4062 16.9219H19.5938C18.4326 16.9219 17.4429 17.6667 17.0755 18.7031H9.54861L8.86061 16.6402C8.73926 16.2762 8.39859 16.0312 8.01562 16.0312H7.125V14.25H11.5781C12.0702 14.25 12.4688 13.8514 12.4688 13.3594C12.4688 12.8673 12.0702 12.4688 11.5781 12.4688H7.125V11.5781C7.125 11.0861 6.72645 10.6875 6.23438 10.6875C5.7423 10.6875 5.34375 11.0861 5.34375 11.5781V12.4688H0.890625C0.398555 12.4688 0 12.8673 0 13.3594C0 13.8514 0.398555 14.25 0.890625 14.25H5.34375V16.0312H4.45312C4.01783 16.0312 3.646 16.3463 3.57475 16.776L2.68412 22.1198C2.62957 22.4482 2.76205 22.7788 3.02813 22.9781L6.59063 25.65C6.74426 25.7658 6.9324 25.8281 7.125 25.8281H16.7059L11.4701 31.0639C10.9658 31.5682 10.6875 32.2395 10.6875 32.9531V45.4219C10.6875 45.9139 11.0861 46.3125 11.5781 46.3125H14.25C14.7154 46.3125 15.1028 45.954 15.1384 45.4898L16.0045 34.0876L20.7471 29.345C20.9531 29.3739 21.1624 29.3906 21.3761 29.3906H21.5709L22.2935 32.2785C22.3925 32.6748 22.7488 32.9531 23.1574 32.9531H27.6105V34.7344C25.6455 34.7344 24.048 36.3319 24.048 38.2969V40.0781C24.048 42.0431 25.6455 43.6406 27.6105 43.6406H29.3917C31.3567 43.6406 32.9542 42.0431 32.9542 40.0781V38.2969C32.9542 36.3319 31.3567 34.7344 29.3917 34.7344V32.9531H33.8449C34.2534 32.9531 34.6097 32.6748 34.7088 32.2785L35.4313 29.3906H35.6261C35.8399 29.3906 36.0492 29.375 36.2551 29.345L40.9977 34.0876L41.8638 45.4898C41.8995 45.954 42.2858 46.3125 42.7522 46.3125H45.4241C45.9162 46.3125 46.3147 45.9139 46.3147 45.4219V32.9531C46.3147 32.2395 46.0364 31.5682 45.5321 31.0639L40.2963 25.8281H49.8772C50.0698 25.8281 50.258 25.7658 50.4116 25.65L53.9741 22.9781C54.2402 22.7788 54.3727 22.4471 54.3181 22.1198L53.4275 16.776C53.3562 16.3463 52.9844 16.0312 52.5491 16.0312H51.6585V14.25H56.1116C56.6037 14.25 57.0022 13.8514 57.0022 13.3594C57.0022 12.8673 56.6037 12.4688 56.1116 12.4688H56.1094ZM7.42225 24.0469L4.52994 21.8782L5.20793 17.8125H7.37437L8.06238 19.8754C8.18373 20.2395 8.52439 20.4844 8.90736 20.4844H16.923V24.0469H7.42336H7.42225ZM14.5105 33.0611C14.3602 33.2114 14.2678 33.4107 14.2522 33.6233L13.4239 44.5312H12.4688V32.9531C12.4688 32.7149 12.5612 32.4911 12.7293 32.323L17.6611 27.3912C17.9917 27.891 18.4215 28.3196 18.9202 28.6503L14.5105 33.06V33.0611ZM31.1719 38.2969V40.0781C31.1719 41.06 30.3725 41.8594 29.3906 41.8594H27.6094C26.6275 41.8594 25.8281 41.06 25.8281 40.0781V38.2969C25.8281 37.315 26.6275 36.5156 27.6094 36.5156H29.3906C30.3725 36.5156 31.1719 37.315 31.1719 38.2969ZM33.1479 31.1719H23.8509L23.4056 29.3906H33.5933L33.1479 31.1719ZM35.625 27.6094H21.375C19.9021 27.6094 18.7031 26.4104 18.7031 24.9375V19.5938C18.7031 19.1028 19.1028 18.7031 19.5938 18.7031H37.4062C37.8972 18.7031 38.2969 19.1028 38.2969 19.5938V24.9375C38.2969 26.4104 37.0979 27.6094 35.625 27.6094ZM44.2707 32.323C44.4388 32.4911 44.5312 32.7149 44.5312 32.9531V44.5312H43.5761L42.7478 33.6233C42.7311 33.4107 42.6398 33.2114 42.4895 33.0611L38.0798 28.6514C38.5796 28.3208 39.0083 27.891 39.3389 27.3923L44.2707 32.3241V32.323ZM51.7921 17.8125L52.4701 21.8782L49.5778 24.0469H40.0781V20.4844H48.0938C48.4767 20.4844 48.8174 20.2395 48.9387 19.8754L49.6267 17.8125H51.7932H51.7921Z" fill="white"/>
<path d="M32.9531 20.4844H24.0469C23.5548 20.4844 23.1562 20.8829 23.1562 21.375C23.1562 21.8671 23.5548 22.2656 24.0469 22.2656H32.9531C33.4452 22.2656 33.8438 21.8671 33.8438 21.375C33.8438 20.8829 33.4452 20.4844 32.9531 20.4844Z" fill="white"/>
<path d="M28.5 40.0781C28.9919 40.0781 29.3906 39.6794 29.3906 39.1875C29.3906 38.6956 28.9919 38.2969 28.5 38.2969C28.0081 38.2969 27.6094 38.6956 27.6094 39.1875C27.6094 39.6794 28.0081 40.0781 28.5 40.0781Z" fill="white"/>
</g>
<defs>
<clipPath id="clip0_4847_263">
<rect width="57" height="57" fill="white"/>
</clipPath>
</defs>
</svg>
