<svg width="51" height="46" viewBox="0 0 51 46" fill="none" xmlns="http://www.w3.org/2000/svg">
<path d="M45.1154 0H5.88462C4.32591 0.00630672 2.83288 0.614134 1.73069 1.6911C0.628511 2.76807 0.00645437 4.22695 0 5.75V32.5833C0.00645437 34.1064 0.628511 35.5653 1.73069 36.6422C2.83288 37.7192 4.32591 38.327 5.88462 38.3333H23.5385V42.1667H17.6538C17.1336 42.1667 16.6347 42.3686 16.2668 42.728C15.899 43.0875 15.6923 43.575 15.6923 44.0833C15.6923 44.5917 15.899 45.0792 16.2668 45.4386C16.6347 45.7981 17.1336 46 17.6538 46H33.3462C33.8664 46 34.3653 45.7981 34.7332 45.4386C35.101 45.0792 35.3077 44.5917 35.3077 44.0833C35.3077 43.575 35.101 43.0875 34.7332 42.728C34.3653 42.3686 33.8664 42.1667 33.3462 42.1667H27.4615V38.3333H45.1154C46.6741 38.327 48.1671 37.7192 49.2693 36.6422C50.3715 35.5653 50.9935 34.1064 51 32.5833V5.75C50.9935 4.22695 50.3715 2.76807 49.2693 1.6911C48.1671 0.614134 46.6741 0.00630672 45.1154 0ZM47.0769 32.5833C47.0769 33.0917 46.8703 33.5792 46.5024 33.9386C46.1345 34.2981 45.6356 34.5 45.1154 34.5H5.88462C5.36438 34.5 4.86546 34.2981 4.4976 33.9386C4.12974 33.5792 3.92308 33.0917 3.92308 32.5833V28.75H47.0769V32.5833Z" fill="white"/>
</svg>
