<svg width="139" height="47" viewBox="0 0 139 47" fill="none" xmlns="http://www.w3.org/2000/svg">
<path d="M55.4496 18.3198H50.9922V18.7399C51.9724 18.7399 52.6958 19.6034 52.2524 20.7002L46.2547 34.1192C44.201 29.4517 42.404 25.2277 40.397 20.6069C40.0703 19.9067 39.6502 18.3431 38.0166 18.3431H32.8124V18.7632C33.8159 18.7632 34.446 19.4633 34.9361 20.5835C37.1531 25.5077 41.3772 35.3094 42.5674 37.8765H45.3445L52.9525 20.7936C53.4193 19.7201 54.3994 18.7399 55.4263 18.7399V18.3198H55.4496Z" fill="white" fill-opacity="0.55"/>
<path d="M59.0204 22.1003C60.444 22.1003 61.5876 20.9568 61.5876 19.5332C61.5876 18.0863 60.444 16.9194 59.0204 16.9194C57.5735 16.9194 56.4067 18.063 56.4067 19.5332C56.4067 20.9568 57.5502 22.1003 59.0204 22.1003Z" fill="white" fill-opacity="0.55"/>
<path d="M61.3307 35.9861C61.3307 32.2055 61.3307 28.4248 61.3307 24.6442C61.3074 23.524 60.7473 23.1973 59.9538 23.1973C59.5804 23.1973 59.1603 23.2906 58.7403 23.3606L55.0063 24.1774V24.4341C56.3832 24.4341 56.6399 24.7375 56.6399 25.9277V36.0328C56.6399 37.0597 57.5034 37.9465 58.5536 37.9465H62.6609V37.5264C61.6808 37.5031 61.3307 37.153 61.3307 35.9861Z" fill="white" fill-opacity="0.55"/>
<path d="M75.0763 23.4774C74.6796 23.3607 74.2828 23.314 73.9094 23.314C72.1125 23.314 70.4555 24.4576 69.2653 25.8345V24.971C69.2653 23.8741 68.6819 23.5474 67.8651 23.5474C67.4917 23.5474 67.0716 23.6408 66.6515 23.7108L62.9175 24.5042V24.7843C64.2944 24.7843 64.6212 25.0177 64.6212 26.2079V36.0096C64.6212 37.0364 65.4613 37.8766 66.4882 37.8766H70.5722V37.4798C69.592 37.4798 69.2186 37.1531 69.2186 35.9396V27.0013C69.6154 26.4412 70.9456 25.181 71.9958 25.181C72.2992 25.181 72.5792 25.2977 72.8126 25.5778C73.116 25.9745 72.9759 26.8847 72.0891 27.2114C72.6492 28.2149 73.5127 28.635 74.3529 28.635C75.333 28.635 76.3132 28.0515 76.7333 27.118C77.4801 25.6478 76.6166 23.9208 75.0763 23.4774Z" fill="white" fill-opacity="0.55"/>
<path d="M86.2544 35.4495C84.1307 35.4495 82.4737 33.8159 82.077 30.7587C81.6336 27.2815 83.1505 24.0142 85.8577 24.0142C85.9043 24.0142 85.9977 24.0142 86.0444 24.0142C87.7247 24.1309 87.7247 26.1613 86.0677 26.1613C85.811 26.1613 85.5309 26.1379 85.2276 26.0212C84.5508 28.3783 86.0677 29.5452 87.5846 29.5452C88.8682 29.5452 90.1517 28.705 90.1984 27.0714C90.2918 24.3643 87.2112 23.4075 84.8542 23.4075C80.6301 23.4075 77.3629 25.6479 77.3629 30.9454C77.3629 36.0563 80.7468 38.2967 84.1074 38.2967C86.7912 38.2967 89.475 36.8498 90.3851 34.306L90.0584 34.026C88.7282 34.9828 87.3979 35.4495 86.2544 35.4495Z" fill="white" fill-opacity="0.55"/>
<path d="M103.595 38.7868C103.198 38.6001 102.755 38.5067 102.335 38.5067C101.074 38.5067 99.8376 39.3469 99.8142 41.1205C99.8376 41.1205 99.8609 41.1205 99.9076 41.1205C102.171 41.1205 102.895 44.9478 100.211 45.2746C100.118 45.2746 100.048 45.2979 99.9543 45.2979C98.9741 45.2979 98.1573 44.5044 98.1573 42.2874V24.5043H101.518V23.9676H98.1573V17.8065C98.1573 16.7096 97.5738 16.3829 96.7804 16.3829C96.407 16.3829 95.9869 16.4763 95.5668 16.5463L91.8328 17.3397V17.6198C93.2331 17.6198 93.4898 17.9232 93.4898 19.1134V23.9676H90.5493V24.5043H92.1362C93.2331 24.5043 93.4431 24.9711 93.4898 25.9979C93.4898 29.1718 93.4898 35.9396 93.5131 40.4204C93.5365 45.0645 95.8936 46.0447 100.118 46.0447C105.158 45.9514 106.745 40.3504 103.595 38.7868Z" fill="white" fill-opacity="0.55"/>
<path d="M108.449 23.4075C98.4372 23.4075 98.3671 38.2967 108.472 38.2967C118.554 38.2967 118.461 23.4075 108.449 23.4075ZM108.332 37.5966C104.552 37.5966 104.598 24.1543 108.426 24.1543C112.253 24.1776 112.113 37.5966 108.332 37.5966Z" fill="white" fill-opacity="0.55"/>
<path d="M128.799 23.4774C128.402 23.3607 128.005 23.314 127.632 23.314C125.835 23.314 124.178 24.4576 122.988 25.8345V24.971C122.988 23.8741 122.405 23.5474 121.588 23.5474C121.214 23.5474 120.794 23.6408 120.374 23.7108L116.64 24.5042V24.7843C118.017 24.7843 118.344 25.0177 118.344 26.2079V36.0096C118.344 37.0364 119.184 37.8766 120.211 37.8766H124.295V37.4798C123.315 37.4798 122.941 37.1531 122.941 35.9396V27.0013C123.338 26.4412 124.668 25.181 125.718 25.181C126.022 25.181 126.302 25.2977 126.535 25.5778C126.839 25.9745 126.699 26.8847 125.812 27.2114C126.372 28.2149 127.235 28.635 128.076 28.635C129.056 28.635 130.036 28.0515 130.456 27.118C131.203 25.6478 130.339 23.9208 128.799 23.4774Z" fill="white" fill-opacity="0.55"/>
<path d="M137.434 35.9861C137.434 32.2055 137.434 28.4248 137.434 24.6442C137.41 23.524 136.85 23.1973 136.057 23.1973C135.683 23.1973 135.263 23.2906 134.843 23.3606L131.109 24.1774V24.4341C132.486 24.4341 132.743 24.7375 132.743 25.9277V36.0328C132.743 37.0597 133.606 37.9465 134.657 37.9465H138.764V37.5264C137.761 37.5031 137.434 37.153 137.434 35.9861Z" fill="white" fill-opacity="0.55"/>
<path d="M135.1 22.1003C136.524 22.1003 137.667 20.9568 137.667 19.5332C137.667 18.0863 136.524 16.9194 135.1 16.9194C133.653 16.9194 132.486 18.063 132.486 19.5332C132.51 20.9568 133.653 22.1003 135.1 22.1003Z" fill="white" fill-opacity="0.55"/>
<path d="M16.1728 0V23.7574L10.8285 15.5427C8.4948 11.9021 3.64063 10.8519 0 13.209L13.9557 34.7493C16.3128 38.39 21.167 39.4168 24.7843 37.0597L24.6443 36.8497C24.6909 36.8497 24.7376 36.873 24.7843 36.873V8.63483C24.8076 3.85067 20.9336 0 16.1728 0Z" fill="white" fill-opacity="0.55"/>
<path d="M9.1484 8.37816C10.9454 8.37816 12.3923 6.93125 12.3923 5.13427C12.3923 3.33729 10.9454 1.89038 9.1484 1.89038C7.35142 1.89038 5.90451 3.33729 5.90451 5.13427C5.90451 6.93125 7.35142 8.37816 9.1484 8.37816Z" fill="white" fill-opacity="0.55"/>
</svg>
