<svg width="37" height="37" viewBox="0 0 37 37" fill="none" xmlns="http://www.w3.org/2000/svg">
<path d="M23.1388 9.9353C22.5927 9.19183 22.2084 9.06079 21.6025 9.06079C21.0314 9.06079 20.6043 9.75801 19.9715 11.7263C19.6165 12.8379 18.8819 13.1531 17.9584 13.4499C15.8356 14.1317 15.6779 14.2612 14.8917 15.2309C14.7036 15.498 14.4315 15.7512 14.0854 15.7439L13.6876 15.7497V15.3562C13.6876 15.1434 13.515 14.9708 13.3022 14.9708H10.0212C9.80841 14.9708 9.63574 15.1434 9.63574 15.3562V24.4709C9.63574 24.684 9.80841 24.8563 10.0212 24.8563H13.3022C13.515 24.8563 13.6876 24.684 13.6876 24.4709V24.0882C14.0037 24.0997 14.497 24.0242 14.7487 24.245C16.4476 25.5801 18.8773 25.6985 21.0371 25.6133C21.8188 25.5963 23.0852 25.5917 23.9474 25.594C24.6126 25.594 25.1538 25.0529 25.1538 24.3877C25.1245 24.0747 25.2189 23.3871 25.0609 23.1038C25.6051 22.9874 26.0148 22.5034 26.0148 21.9248C25.9998 21.5652 26.0815 20.8738 25.8784 20.5589C26.2961 20.3693 26.5887 19.9504 26.5887 19.4624C26.5821 18.961 26.6789 18.1998 26.268 17.829C26.6904 17.4582 26.5852 16.6693 26.5937 16.1636C26.5937 15.5069 26.0595 14.9727 25.4028 14.9727H22.257C22.9318 13.8049 24.1475 11.3093 23.1388 9.93453V9.9353ZM10.4062 24.0859V15.742H12.9164V24.0859H10.4062ZM21.2464 15.1457C21.0745 15.3897 21.2695 15.7528 21.5679 15.7443H25.4028C25.6344 15.7443 25.8229 15.9328 25.8229 16.1644V17.0162C25.8229 17.2478 25.6332 17.4374 25.3823 17.4359H22.7106C22.2034 17.4459 22.2042 18.1975 22.7106 18.2067C22.7118 18.2067 25.3823 18.2075 25.3839 18.2067C25.6232 18.2079 25.8175 18.4025 25.8175 18.6419V19.4628C25.8175 19.7025 25.6221 19.8979 25.3819 19.8979C25.0139 19.8979 23.1199 19.8979 22.7102 19.8979H22.4231C22.2103 19.8979 22.0377 20.0702 22.0377 20.2834C22.0377 20.4965 22.2103 20.6688 22.4231 20.6688H24.8077C25.0478 20.6688 25.2432 20.8642 25.2432 21.1043V21.9252C25.2432 22.1653 25.0478 22.3607 24.8077 22.3607C24.2585 22.3607 22.7068 22.3607 22.136 22.3607H21.8488C21.6361 22.3607 21.4634 22.533 21.4634 22.7462C21.4634 22.9593 21.6361 23.1316 21.8488 23.1316H23.9463C24.1864 23.1316 24.3818 23.327 24.3818 23.5671V24.388C24.3818 24.6282 24.1864 24.8236 23.9463 24.8236H21.2746C19.8169 24.8914 18.6233 24.8868 17.5148 24.6447C16.5725 24.4354 15.8621 24.1225 15.2131 23.6315C14.8107 23.2884 14.1921 23.305 13.6861 23.3177V16.5213L14.0977 16.5155C14.6724 16.514 15.1669 16.1771 15.4891 15.7169C16.1759 14.8698 16.2171 14.8189 18.1928 14.1845C19.2087 13.8581 20.2393 13.4175 20.7041 11.9622C21.2553 10.249 21.5436 9.90216 21.638 9.83239C21.9498 9.83317 22.1205 9.85321 22.516 10.392C23.3261 11.4959 21.8735 14.198 21.2453 15.1461L21.2464 15.1457Z" fill="#00A1A5"/>
<path d="M5.80221 23.9552C2.86804 17.2312 6.34334 9.09814 13.223 6.60257L13.6273 7.77655C13.714 8.05752 14.118 8.12805 14.2933 7.89102L17.6083 3.72813C17.7844 3.51962 17.6646 3.16889 17.3967 3.11301L12.2217 1.87351C11.9384 1.79642 11.6621 2.09782 11.7677 2.37378L12.1755 3.55701C3.6169 6.58792 -1.12141 17.242 3.0461 25.4198C3.14091 25.4579 3.24767 25.4575 3.34171 25.4171L5.59756 24.4589C5.79296 24.3761 5.88431 24.151 5.80221 23.9552ZM3.40068 24.5549C0.0186511 16.1833 4.73461 6.97064 13.0099 3.96131C13.0546 3.86919 13.0608 3.7632 13.0276 3.66647L12.7247 2.78694L16.6278 3.72197L14.1276 6.86196L13.8247 5.98205C13.7915 5.88569 13.721 5.80591 13.6293 5.7612C6.05235 7.71103 2.01896 16.7348 4.94697 23.8981L3.40068 24.5549Z" fill="#00A1A5"/>
<path d="M28.8332 26.6408C28.3183 26.307 28.0288 27.1804 27.7193 27.4259C23.1583 32.7508 14.9216 33.4465 9.55657 28.9652L10.371 28.0279C10.5706 27.8117 10.4303 27.4282 10.1374 27.3939L4.87492 26.6045C4.60512 26.5587 4.36231 26.8343 4.44826 27.0952L5.96218 32.1969C6.03695 32.4822 6.43547 32.5685 6.62239 32.3403L7.44333 31.3957C14.1187 37.0008 24.4683 36.1818 30.1494 29.538C30.3987 29.2508 30.64 28.9544 30.8663 28.6561C30.9946 28.4935 30.9595 28.2368 30.7911 28.1154L28.8332 26.6408ZM29.5674 29.0323C23.9087 35.6742 13.8852 35.9497 7.3755 30.4707C7.27336 30.478 7.17855 30.5254 7.11149 30.6029L6.50137 31.3051L5.35938 27.4571L9.32879 28.0526L8.71829 28.7548C8.57877 28.9155 8.59573 29.1591 8.75645 29.2986C14.5816 34.4759 23.8779 33.606 28.6728 27.4852L30.0145 28.4958C29.87 28.6773 29.7204 28.8565 29.5674 29.0323Z" fill="#00A1A5"/>
<path d="M35.4396 22.0736C35.3968 21.9395 35.2843 21.8397 35.1463 21.8127L33.9176 21.5737C35.435 12.997 29.5547 4.43694 20.9556 2.83862C20.5818 2.76616 20.2044 2.70565 19.8337 2.65901C19.629 2.63011 19.4236 2.78736 19.4028 2.99471L19.1045 5.42746C19.0786 5.6379 19.2278 5.82983 19.4386 5.85681C26.7292 6.67698 32.0348 13.7544 30.756 20.9601L29.5373 20.7231C29.2502 20.6572 28.9885 20.9717 29.1049 21.2426L31.0528 26.1953C31.109 26.3413 31.2551 26.4404 31.4116 26.4396C31.516 26.4396 31.6178 26.3968 31.6914 26.3194L35.3525 22.4571C35.4492 22.355 35.4827 22.2081 35.44 22.0748L35.4396 22.0736ZM31.5484 25.3485L30.0792 21.613L30.9926 21.7907C31.0936 21.8107 31.1969 21.7892 31.2817 21.7321C33.3815 14.1953 27.5836 6.19058 19.9158 5.14456L20.1204 3.47725C28.7511 4.66819 34.8275 13.2711 33.0916 21.8065C33.0512 22.0154 33.1876 22.2174 33.3965 22.2582L34.3099 22.4359L31.5484 25.3493V25.3485Z" fill="#00A1A5"/>
</svg>
