<svg width="32" height="34" viewBox="0 0 32 34" fill="none" xmlns="http://www.w3.org/2000/svg">
<path fill-rule="evenodd" clip-rule="evenodd" d="M15.4422 33.6715H5.02557C4.30445 33.6715 3.71777 33.0848 3.71777 32.3636V25.8099C3.71777 25.0888 4.30445 24.5021 5.02557 24.5021H15.4421C16.1633 24.5021 16.7501 25.0888 16.7501 25.8099V32.3636C16.7501 33.0848 16.1634 33.6715 15.4422 33.6715ZM5.02557 25.5543C4.88464 25.5543 4.77 25.6689 4.77 25.8098V32.3635C4.77 32.5046 4.88464 32.6192 5.02557 32.6192H15.4421C15.5831 32.6192 15.6979 32.5045 15.6979 32.3635V25.8098C15.6979 25.6689 15.5831 25.5543 15.4421 25.5543H5.02557Z" fill="#00A1A5"/>
<path fill-rule="evenodd" clip-rule="evenodd" d="M10.2348 29.8206C9.87212 29.8206 9.50959 29.782 9.15693 29.7048L4.13143 28.604C3.84754 28.5418 3.66788 28.2613 3.73008 27.9775C3.79228 27.6936 4.07279 27.514 4.35658 27.5761L9.38217 28.6769C9.93943 28.799 10.5287 28.7991 11.0862 28.6773L16.1117 27.5789C16.3956 27.5167 16.676 27.6966 16.738 27.9805C16.8 28.2644 16.6203 28.5448 16.3364 28.6068L11.3109 29.7052C10.9588 29.7822 10.5967 29.8206 10.2348 29.8206Z" fill="#00A1A5"/>
<path fill-rule="evenodd" clip-rule="evenodd" d="M12.8183 25.5542C12.5278 25.5542 12.2922 25.3186 12.2922 25.0281V23.4961H8.17626V25.0281C8.17626 25.3186 7.94069 25.5542 7.65014 25.5542C7.35959 25.5542 7.12402 25.3186 7.12402 25.0281V23.481C7.12402 22.9091 7.58922 22.4439 8.161 22.4439H12.3074C12.8792 22.4439 13.3445 22.9092 13.3445 23.481V25.0281C13.3444 25.3186 13.1089 25.5542 12.8183 25.5542Z" fill="#00A1A5"/>
<path fill-rule="evenodd" clip-rule="evenodd" d="M23.4578 10.4459C23.1672 10.4459 22.9316 10.2104 22.9316 9.91981V0.527092C22.9316 0.236541 23.1672 0.000976562 23.4578 0.000976562C23.7483 0.000976562 23.9839 0.236541 23.9839 0.527092V9.91981C23.9839 10.2104 23.7483 10.4459 23.4578 10.4459Z" fill="#00A1A5"/>
<path fill-rule="evenodd" clip-rule="evenodd" d="M23.4574 6.46116C23.3632 6.46116 23.2679 6.43595 23.1819 6.38289C22.9345 6.23053 22.8575 5.90637 23.0099 5.65902C23.0848 5.53745 23.2938 5.30006 23.8525 5.07536C24.547 4.79614 25.5549 4.62688 26.8484 4.57244C27.9356 4.52668 28.7609 4.19978 29.3016 3.60078C29.3304 3.5689 29.3575 3.53711 29.3831 3.5056C28.79 3.42129 27.9618 3.13047 26.8581 2.38642C24.8139 1.0081 23.5009 1.05176 23.4876 1.05231L23.4931 1.05194L23.4225 0.00208865C23.4887 -0.00238698 25.0699 -0.0884292 27.4464 1.51385C28.7896 2.41957 29.5428 2.50004 29.8552 2.47584C29.9324 2.4699 30.0069 2.44789 30.0783 2.41775C30.2417 2.3486 30.4316 2.36596 30.5813 2.4689C30.7565 2.58937 30.842 2.80338 30.798 3.01136C30.7837 3.0785 30.643 3.68535 30.0829 4.30582C29.5762 4.8672 28.6115 5.55142 26.8927 5.62376C24.5274 5.72332 23.9337 6.20203 23.8769 6.25318C23.775 6.38782 23.6179 6.46116 23.4574 6.46116ZM23.9052 6.21199C23.9051 6.21217 23.9049 6.21235 23.9048 6.21254C23.905 6.21235 23.9051 6.21226 23.9052 6.21199Z" fill="#00A1A5"/>
<path fill-rule="evenodd" clip-rule="evenodd" d="M20.3988 17.6408H10.198C9.90744 17.6408 9.67188 17.4052 9.67188 17.1147C9.67188 16.824 9.90744 16.5886 10.198 16.5886H20.3988C20.6893 16.5886 20.9249 16.8241 20.9249 17.1147C20.9249 17.4052 20.6893 17.6408 20.3988 17.6408Z" fill="#00A1A5"/>
<path fill-rule="evenodd" clip-rule="evenodd" d="M19.2444 7.16331H12.654C12.3634 7.16331 12.1279 6.92775 12.1279 6.6372C12.1279 6.34665 12.3635 6.11108 12.654 6.11108H19.2444C19.5349 6.11108 19.7705 6.34665 19.7705 6.6372C19.7705 6.92775 19.5349 7.16331 19.2444 7.16331Z" fill="#00A1A5"/>
<path fill-rule="evenodd" clip-rule="evenodd" d="M7.504 17.6408H2.1347C0.957603 17.6408 0 16.6833 0 15.5063V8.24578C0 7.06869 0.957695 6.11108 2.1347 6.11108H9.96076C10.2513 6.11108 10.4869 6.34665 10.4869 6.6372C10.4869 6.92775 10.2513 7.16331 9.96076 7.16331H2.1347C1.53779 7.16331 1.05223 7.64888 1.05223 8.24578V15.5063C1.05223 16.1031 1.53779 16.5886 2.1347 16.5886H7.504C7.79455 16.5886 8.03012 16.8241 8.03012 17.1147C8.03012 17.4052 7.79455 17.6408 7.504 17.6408Z" fill="#00A1A5"/>
<path fill-rule="evenodd" clip-rule="evenodd" d="M24.1543 28.7825H20.1277C19.8371 28.7825 19.6016 28.5469 19.6016 28.2563C19.6016 27.9658 19.8371 27.7302 20.1277 27.7302H24.1543C24.4448 27.7302 24.6804 27.9658 24.6804 28.2563C24.6804 28.5469 24.4449 28.7825 24.1543 28.7825Z" fill="#00A1A5"/>
<path fill-rule="evenodd" clip-rule="evenodd" d="M28.9255 28.7825H26.8475C26.5569 28.7825 26.3214 28.5469 26.3214 28.2564C26.3214 27.9658 26.5569 27.7303 26.8475 27.7303H28.9255C29.5224 27.7303 30.0079 27.2448 30.0079 26.648V18.7233C30.0079 18.1264 29.5224 17.6408 28.9255 17.6408H23.0925C22.802 17.6408 22.5664 17.4052 22.5664 17.1147C22.5664 16.824 22.802 16.5886 23.0925 16.5886H28.9255C30.1026 16.5886 31.0602 17.5463 31.0602 18.7233V26.648C31.0602 27.825 30.1026 28.7825 28.9255 28.7825Z" fill="#00A1A5"/>
<path fill-rule="evenodd" clip-rule="evenodd" d="M8.85064 18.9901C7.81777 18.9901 6.97754 18.1499 6.97754 17.117C6.97754 16.0841 7.81786 15.2439 8.85064 15.2439C9.88351 15.2439 10.7237 16.0841 10.7237 17.117C10.7237 18.1499 9.88351 18.9901 8.85064 18.9901ZM8.85064 16.2961C8.39796 16.2961 8.02977 16.6643 8.02977 17.117C8.02977 17.5697 8.39796 17.9379 8.85064 17.9379C9.30332 17.9379 9.67151 17.5697 9.67151 17.117C9.6716 16.6643 9.30332 16.2961 8.85064 16.2961Z" fill="#00A1A5"/>
<path fill-rule="evenodd" clip-rule="evenodd" d="M21.7462 18.9901C20.7134 18.9901 19.873 18.1499 19.873 17.117C19.873 16.0841 20.7134 15.2439 21.7462 15.2439C22.7791 15.2439 23.6193 16.0841 23.6193 17.117C23.6193 18.1499 22.779 18.9901 21.7462 18.9901ZM21.7462 16.2961C21.2936 16.2961 20.9253 16.6643 20.9253 17.117C20.9253 17.5697 21.2936 17.9379 21.7462 17.9379C22.1989 17.9379 22.5671 17.5697 22.5671 17.117C22.5671 16.6643 22.1988 16.2961 21.7462 16.2961Z" fill="#00A1A5"/>
<path fill-rule="evenodd" clip-rule="evenodd" d="M25.5011 30.134C24.4683 30.134 23.6279 29.2937 23.6279 28.2609C23.6279 27.2281 24.4683 26.3878 25.5011 26.3878C26.534 26.3878 27.3742 27.2281 27.3742 28.2609C27.3742 29.2937 26.534 30.134 25.5011 30.134ZM25.5011 27.44C25.0484 27.44 24.6802 27.8082 24.6802 28.2608C24.6802 28.7134 25.0484 29.0817 25.5011 29.0817C25.9537 29.0817 26.322 28.7135 26.322 28.2608C26.322 27.8082 25.9538 27.44 25.5011 27.44Z" fill="#00A1A5"/>
<path fill-rule="evenodd" clip-rule="evenodd" d="M11.3077 8.51039C10.2748 8.51039 9.43457 7.67007 9.43457 6.6372C9.43457 5.60433 10.2749 4.7641 11.3077 4.7641C12.3405 4.7641 13.1808 5.60442 13.1808 6.6372C13.1809 7.67007 12.3405 8.51039 11.3077 8.51039ZM11.3077 5.81633C10.855 5.81633 10.4868 6.18452 10.4868 6.6372C10.4868 7.08988 10.8551 7.45807 11.3077 7.45807C11.7603 7.45807 12.1285 7.08988 12.1285 6.6372C12.1285 6.18461 11.7603 5.81633 11.3077 5.81633Z" fill="#00A1A5"/>
</svg>
