<svg width="33" height="33" viewBox="0 0 33 33" fill="none" xmlns="http://www.w3.org/2000/svg">
<path d="M16.5 30.9375C24.4736 30.9375 30.9375 24.4736 30.9375 16.5C30.9375 8.52639 24.4736 2.0625 16.5 2.0625C8.52639 2.0625 2.0625 8.52639 2.0625 16.5C2.0625 24.4736 8.52639 30.9375 16.5 30.9375Z" stroke="#00A1A5"/>
<path d="M9.28125 12.375H20.625" stroke="#00A1A5" stroke-linecap="round"/>
<path d="M9.28125 16.5H16.5" stroke="#00A1A5" stroke-linecap="round"/>
<path d="M9.28125 20.625H14.4375" stroke="#00A1A5" stroke-linecap="round"/>
<path d="M23.125 24.25C25.4032 24.25 27.25 22.4032 27.25 20.125C27.25 17.8468 25.4032 16 23.125 16C20.8468 16 19 17.8468 19 20.125C19 22.4032 20.8468 24.25 23.125 24.25Z" stroke="#00A1A5"/>
<path d="M26 23L32 29" stroke="#00A1A5" stroke-linecap="round"/>
</svg>
