<svg width="45" height="44" viewBox="0 0 45 44" fill="none" xmlns="http://www.w3.org/2000/svg">
  <defs>
    <linearGradient id="gradientStroke" x1="0" y1="22" x2="45" y2="22" gradientUnits="userSpaceOnUse">
      <stop stop-color="#075B65"/>
      <stop offset="0.370192" stop-color="#00838A"/>
      <stop offset="0.8125" stop-color="#328A99"/>
    </linearGradient>
  </defs>
  <path d="M44.3776 22.4194C44.0782 21.9656 43.799 21.5735 43.529 21.1943C42.4785 19.719 41.7844 18.7443 41.8144 16.6423C41.8611 13.3714 40.936 10.1842 39.1429 7.43119C36.9758 4.00504 33.3994 1.67605 29.3306 1.04123C25.386 0.425741 21.635 1.44066 18.4664 3.97496C16.9581 3.77481 15.3999 3.78538 13.8976 4.00736C13.739 4.03082 13.5999 4.12355 13.5197 4.25941L11.9675 6.88807C11.3977 7.07636 10.8374 7.30349 10.2972 7.56526L7.29984 6.77987C7.14489 6.73923 6.97957 6.76973 6.85046 6.8628C5.55161 7.79866 4.40815 8.91671 3.45199 10.1858C3.35689 10.312 3.32569 10.4736 3.36718 10.6251L4.17041 13.5555C3.90287 14.0832 3.67049 14.6311 3.47757 15.1892L0.789434 16.7067C0.650566 16.7851 0.555645 16.9211 0.53165 17.0762C0.412207 17.8493 0.351562 18.6393 0.351562 19.4245C0.351562 20.2098 0.412119 20.9999 0.53165 21.773C0.555557 21.9281 0.650478 22.064 0.789434 22.1425L3.47739 23.6599C3.67014 24.2174 3.90261 24.7654 4.17041 25.2936L3.36727 28.2241C3.32569 28.3755 3.35689 28.5373 3.45208 28.6634C4.40895 29.9332 5.55231 31.0513 6.85055 31.9864C6.97966 32.0794 7.14507 32.11 7.29976 32.0693L10.2978 31.2838C10.8387 31.5459 11.3986 31.7731 11.9675 31.9611L13.5196 34.5898C13.5998 34.7256 13.7389 34.8184 13.8975 34.8418C14.5152 34.9331 15.1436 34.9887 15.772 35.0089V37.3588C14.6322 37.5965 13.7745 38.5884 13.7745 39.7728V40.6632C13.7745 42.0244 14.9071 43.1319 16.2992 43.1319H33.5639C34.9559 43.1319 36.0886 42.0245 36.0886 40.6632V39.7728C36.0886 38.5884 35.231 37.5966 34.0912 37.3588V34.6895C34.3106 34.6885 34.5309 34.6836 34.7516 34.6733C36.7454 34.5802 38.5813 34.103 39.5431 33.4282C40.2371 32.9411 40.3393 32.4485 40.2992 32.1157L39.8416 26.3429C42.4993 25.8394 44.0286 25.0538 44.511 23.9469C44.7319 23.4395 44.6833 22.8828 44.3776 22.4196L44.3776 22.4194Z" 
  stroke="url(#gradientStroke)" 
  stroke-width="2" 
  fill="none"/>
</svg>
