<svg width="40" height="35" viewBox="0 0 40 35" fill="none" xmlns="http://www.w3.org/2000/svg">
<path fill-rule="evenodd" clip-rule="evenodd" d="M29.9432 23.6582C29.8729 24.5145 30.1485 25.4113 30.8624 26.1253C31.5129 26.7757 31.5129 27.834 30.8624 28.4846L28.4845 30.8624C27.834 31.5129 26.7757 31.5129 26.1253 30.8624C24.1371 28.8743 20.7309 30.2857 20.7309 33.0967C20.7309 34.0203 19.9842 34.764 19.0636 34.764H15.7003C14.7798 34.764 14.0331 34.0203 14.0331 33.0967C14.0331 30.2824 10.6285 28.8726 8.6387 30.8624C7.98793 31.5132 6.93222 31.5132 6.2816 30.8626L3.90151 28.4846C3.25106 27.834 3.25106 26.7757 3.90151 26.1253C5.88969 24.1372 4.47993 20.7309 1.66725 20.7309C0.746682 20.7309 0 19.9842 0 19.0636V15.7003C0 14.7798 0.746682 14.0331 1.66725 14.0331C4.47993 14.0331 5.88969 10.6268 3.90151 8.6387C3.25074 7.98793 3.25074 6.9323 3.90151 6.28144L6.28144 3.90159C6.93222 3.25074 7.98793 3.25074 8.6387 3.90159C10.6268 5.88969 14.0331 4.47993 14.0331 1.66725C14.0331 0.746682 14.7798 0 15.7003 0H19.0636C19.9842 0 20.7309 0.746682 20.7309 1.66725C20.7309 4.47993 24.1371 5.88969 26.1253 3.90159C26.7757 3.25106 27.834 3.25106 28.4845 3.90159L30.8624 6.28144C31.5132 6.9323 31.5132 7.98793 30.8624 8.6387C30.1485 9.35266 29.8729 10.2495 29.9432 11.1058H32.8532L35.9148 8.36601C35.7907 8.10602 35.7212 7.81508 35.7212 7.50798C35.7212 6.40621 36.6157 5.51177 37.7174 5.51177C38.8192 5.51177 39.7137 6.40621 39.7137 7.50798C39.7137 8.60976 38.8192 9.50428 37.7174 9.50428C37.3315 9.50428 36.9711 9.39447 36.6655 9.20458L33.4435 12.0878C33.3403 12.1802 33.2067 12.2313 33.0683 12.2313H30.2464C30.7332 13.2579 31.7557 14.0331 33.0967 14.0331C34.0203 14.0331 34.764 14.7798 34.764 15.7003V16.8514H35.8159C36.0736 16.047 36.828 15.4639 37.7174 15.4639C38.8192 15.4639 39.7137 16.3584 39.7137 17.4602C39.7137 18.562 38.8192 19.4564 37.7174 19.4564C36.7944 19.4564 36.0167 18.8286 35.7888 17.9769H34.764V19.0636C34.764 19.9842 34.0203 20.7309 33.0967 20.7309C31.7557 20.7309 30.7332 21.5061 30.2464 22.5327H33.0683C33.2067 22.5327 33.3403 22.5838 33.4435 22.6761L36.6655 25.5594C36.9711 25.3695 37.3315 25.2597 37.7174 25.2597C38.8192 25.2597 39.7137 26.1542 39.7137 27.256C39.7137 28.3578 38.8192 29.2522 37.7174 29.2522C36.6157 29.2522 35.7212 28.3578 35.7212 27.256C35.7212 26.9489 35.7907 26.658 35.9148 26.398L32.8532 23.6582H29.9432ZM28.8139 11.1058C28.7428 9.96967 29.1213 8.78815 30.0666 7.8429C30.2779 7.63155 30.2779 7.28867 30.0666 7.07732L27.6887 4.69739C27.477 4.48572 27.1328 4.48572 26.9211 4.69739C24.2249 7.39359 19.6054 5.48178 19.6054 1.66725C19.6054 1.36811 19.3628 1.12549 19.0636 1.12549H15.7003C15.4012 1.12549 15.1586 1.36811 15.1586 1.66725C15.1586 5.48178 10.5391 7.39359 7.8429 4.69739C7.63155 4.48604 7.28867 4.48604 7.07732 4.69739L4.69739 7.07732C4.48604 7.28867 4.48604 7.63155 4.69739 7.8429C7.39359 10.5391 5.48178 15.1586 1.66725 15.1586C1.36811 15.1586 1.12549 15.4012 1.12549 15.7003V19.0636C1.12549 19.3628 1.36811 19.6054 1.66725 19.6054C5.48178 19.6054 7.39359 24.2249 4.69739 26.9211C4.48572 27.1328 4.48572 27.477 4.69739 27.6887L7.07732 30.0666C7.28867 30.2779 7.63155 30.2779 7.8429 30.0666C10.5414 27.3681 15.1586 29.28 15.1586 33.0967C15.1586 33.3968 15.4012 33.6385 15.7003 33.6385H19.0636C19.3628 33.6385 19.6054 33.3968 19.6054 33.0967C19.6054 29.2845 24.2249 27.3704 26.9211 30.0666C27.1328 30.2783 27.477 30.2783 27.6887 30.0666L30.0666 27.6887C30.2783 27.477 30.2783 27.1328 30.0666 26.9211C29.1213 25.9758 28.7428 24.7943 28.8139 23.6582H27.3017C26.9911 23.6582 26.739 23.406 26.739 23.0955C26.739 22.7849 26.9911 22.5327 27.3017 22.5327H29.0357C29.5837 20.9076 31.0727 19.6054 33.0967 19.6054C33.3968 19.6054 33.6385 19.3628 33.6385 19.0636V17.9769H28.9096C28.5989 17.9769 28.3468 17.7247 28.3468 17.4141C28.3468 17.1035 28.5989 16.8514 28.9096 16.8514H33.6385V15.7003C33.6385 15.4012 33.3968 15.1586 33.0967 15.1586C31.0727 15.1586 29.5837 13.8564 29.0357 12.2313H27.3017C26.9911 12.2313 26.739 11.9791 26.739 11.6685C26.739 11.358 26.9911 11.1058 27.3017 11.1058H28.8139ZM37.0743 8.09477C37.2335 8.26922 37.4628 8.37879 37.7174 8.37879C38.1981 8.37879 38.5882 7.98857 38.5882 7.50798C38.5882 7.0274 38.1981 6.63726 37.7174 6.63726C37.2368 6.63726 36.8467 7.0274 36.8467 7.50798C36.8467 7.72786 36.9284 7.92884 37.063 8.08214C37.0649 8.08424 37.0669 8.08632 37.0687 8.0885C37.0707 8.09059 37.0724 8.09268 37.0743 8.09477ZM37.063 26.6818C36.9284 26.8351 36.8467 27.0361 36.8467 27.256C36.8467 27.7366 37.2368 28.1267 37.7174 28.1267C38.1981 28.1267 38.5882 27.7366 38.5882 27.256C38.5882 26.7754 38.1981 26.3852 37.7174 26.3852C37.4628 26.3852 37.2335 26.4948 37.0743 26.6692C37.0724 26.6713 37.0707 26.6734 37.0687 26.6755C37.0669 26.6777 37.0649 26.6797 37.063 26.6818ZM17.383 26.027C12.6211 26.027 8.73887 22.1427 8.73887 17.383C8.73887 12.6211 12.6211 8.73887 17.383 8.73887C22.1427 8.73887 26.027 12.6211 26.027 17.383C26.027 22.1427 22.1427 26.027 17.383 26.027ZM17.383 24.9016C21.523 24.9016 24.9016 21.523 24.9016 17.383C24.9016 13.2411 21.523 9.86436 17.383 9.86436C13.2411 9.86436 9.86436 13.2411 9.86436 17.383C9.86436 21.523 13.2411 24.9016 17.383 24.9016ZM15.0134 19.2359C14.8455 18.0046 14.4337 17.5134 14.1169 17.0037C13.8124 16.514 13.5728 16.0123 13.5728 15.0995C13.5728 12.9963 15.2778 11.2903 17.382 11.2903C19.4853 11.2903 21.1912 12.9963 21.1912 15.0995C21.1912 16.0123 20.9516 16.514 20.6471 17.0037C20.3303 17.5134 19.9185 18.0046 19.7506 19.2359C20.0649 19.4301 20.2753 19.7778 20.2753 20.1717V21.33C20.2753 21.9314 19.7867 22.4238 19.1867 22.43C19.1735 23.0055 18.698 23.4737 18.1178 23.4737H16.6462C16.066 23.4737 15.5905 23.0055 15.5773 22.43C14.9783 22.4242 14.4887 21.9319 14.4887 21.33V20.1717C14.4887 19.7778 14.6993 19.4301 15.0134 19.2359ZM18.6361 19.0725C18.7999 17.8563 19.161 17.2374 19.4947 16.7164C19.785 16.2633 20.0657 15.9127 20.0657 15.0995C20.0657 13.6177 18.8639 12.4158 17.382 12.4158C15.8995 12.4158 14.6983 13.6177 14.6983 15.0995C14.6983 15.9127 14.979 16.2633 15.2693 16.7164C15.603 17.2374 15.964 17.8563 16.1279 19.0725H18.6361ZM15.6142 21.3045H16.1398C16.4506 21.3045 16.7025 21.5564 16.7025 21.8672V22.3482H18.0615V21.8672C18.0615 21.5564 18.3134 21.3045 18.6242 21.3045H19.1498V20.198L15.6142 20.1979V21.3045ZM17.697 17.1824C17.5375 17.4489 17.1915 17.5356 16.9251 17.376C16.6587 17.2164 16.572 16.8705 16.7315 16.604L17.2957 15.6622H16.4752C16.2726 15.6622 16.0856 15.5533 15.9857 15.377C15.8857 15.2006 15.8884 14.9842 15.9925 14.8103L17.0669 13.0167C17.2265 12.7502 17.5724 12.6635 17.8389 12.8231C18.1053 12.9827 18.192 13.3285 18.0324 13.595L17.4683 14.5368H18.2887C18.4914 14.5368 18.6784 14.6458 18.7783 14.8221C18.8783 14.9984 18.8756 15.2149 18.7715 15.3887L17.697 17.1824ZM37.7174 16.5894C37.2368 16.5894 36.8467 16.9796 36.8467 17.4602C36.8467 17.9408 37.2368 18.3309 37.7174 18.3309C38.1981 18.3309 38.5882 17.9408 38.5882 17.4602C38.5882 16.9796 38.1981 16.5894 37.7174 16.5894Z" fill="url(#paint0_linear_2018_358)"/>
<defs>
<linearGradient id="paint0_linear_2018_358" x1="0" y1="17.382" x2="39.7137" y2="17.382" gradientUnits="userSpaceOnUse">
<stop stop-color="#075B65"/>
<stop offset="0.370192" stop-color="#00838A"/>
<stop offset="0.8125" stop-color="#328A99"/>
</linearGradient>
</defs>
</svg>
