<svg width="36" height="40" viewBox="0 0 36 40" fill="none" xmlns="http://www.w3.org/2000/svg">
<path d="M30.2248 9.72102C30.1498 9.72102 30.0654 9.70267 29.9998 9.65677L20.8873 4.51614C20.6717 4.39681 20.5967 4.12142 20.7185 3.9011C20.8404 3.68997 21.1217 3.61653 21.3467 3.73587L30.4592 8.87649C30.6748 8.99583 30.7498 9.27122 30.6279 9.49153C30.5342 9.64759 30.3748 9.72102 30.2248 9.72102Z" fill="url(#paint0_linear_2018_367)"/>
<path d="M21.1045 35.7825C20.9451 35.7825 20.7951 35.6999 20.7107 35.5622C20.5888 35.3511 20.6638 35.0757 20.8795 34.9472L29.992 29.7974C30.2076 29.6781 30.4888 29.7515 30.6201 29.9626C30.742 30.1738 30.667 30.4492 30.4513 30.5777L21.3388 35.7275C21.2638 35.7642 21.1888 35.7825 21.1045 35.7825Z" fill="url(#paint1_linear_2018_367)"/>
<path d="M2.57656 25.3359C2.32344 25.3359 2.11719 25.134 2.11719 24.8861V14.5865C2.11719 14.3387 2.32344 14.1367 2.57656 14.1367C2.82969 14.1367 3.03594 14.3387 3.03594 14.5865V24.8861C3.03594 25.134 2.82969 25.3359 2.57656 25.3359Z" fill="url(#paint2_linear_2018_367)"/>
<path d="M14.842 35.7829C14.767 35.7829 14.6826 35.7646 14.617 35.7187L5.50447 30.5689C5.28884 30.4495 5.21384 30.1741 5.33572 29.9538C5.45759 29.7427 5.73884 29.6693 5.96384 29.7886L15.0763 34.9384C15.292 35.0577 15.367 35.3331 15.2451 35.5534C15.1513 35.7095 15.0013 35.7829 14.842 35.7829Z" fill="url(#paint3_linear_2018_367)"/>
<path d="M33.3656 25.3359C33.1125 25.3359 32.9062 25.134 32.9062 24.8861V14.5865C32.9062 14.3387 33.1125 14.1367 33.3656 14.1367C33.6188 14.1367 33.825 14.3387 33.825 14.5865V24.8861C33.825 25.134 33.6188 25.3359 33.3656 25.3359Z" fill="url(#paint4_linear_2018_367)"/>
<path d="M5.71775 9.72161C5.55837 9.72161 5.40837 9.63899 5.324 9.5013C5.20212 9.29017 5.27712 9.01478 5.49275 8.88626L14.6052 3.74563C14.8209 3.6263 15.1021 3.69974 15.2334 3.91087C15.3552 4.122 15.2802 4.39739 15.0646 4.52591L5.95212 9.66653C5.87712 9.70325 5.80212 9.72161 5.71775 9.72161Z" fill="url(#paint5_linear_2018_367)"/>
<path d="M29.1545 11.5296C29.0795 11.5296 28.9951 11.5113 28.9295 11.4654L19.817 6.32474C19.6013 6.2054 19.5263 5.93001 19.6482 5.7097C19.7701 5.49856 20.0513 5.42513 20.2763 5.54446L29.3888 10.6851C29.6045 10.8044 29.6795 11.0798 29.5576 11.3001C29.4732 11.447 29.3138 11.5296 29.1545 11.5296Z" fill="url(#paint6_linear_2018_367)"/>
<path d="M20.042 33.9833C19.8826 33.9833 19.7326 33.9007 19.6482 33.763C19.5263 33.5519 19.6013 33.2765 19.817 33.148L28.9295 28.0074C29.1451 27.888 29.4263 27.9615 29.5576 28.1726C29.6888 28.3837 29.6045 28.6591 29.3888 28.7876L20.2763 33.9283C20.2013 33.965 20.117 33.9833 20.042 33.9833Z" fill="url(#paint7_linear_2018_367)"/>
<path d="M4.71719 25.3359C4.46406 25.3359 4.25781 25.134 4.25781 24.8861V14.5865C4.25781 14.3387 4.46406 14.1367 4.71719 14.1367C4.97031 14.1367 5.17656 14.3387 5.17656 14.5865V24.8861C5.17656 25.134 4.97031 25.3359 4.71719 25.3359Z" fill="url(#paint8_linear_2018_367)"/>
<path d="M15.9006 33.9827C15.8256 33.9827 15.7412 33.9644 15.6756 33.9185L6.56306 28.7779C6.34744 28.6585 6.27244 28.3831 6.39431 28.1628C6.51619 27.9517 6.79744 27.8783 7.02244 27.9976L16.1349 33.1382C16.3506 33.2575 16.4256 33.5329 16.3037 33.7533C16.2099 33.9001 16.0599 33.9827 15.9006 33.9827Z" fill="url(#paint9_linear_2018_367)"/>
<path d="M31.2289 25.3359C30.9758 25.3359 30.7695 25.134 30.7695 24.8861V14.5865C30.7695 14.3387 30.9758 14.1367 31.2289 14.1367C31.482 14.1367 31.6883 14.3387 31.6883 14.5865V24.8861C31.6883 25.134 31.482 25.3359 31.2289 25.3359Z" fill="url(#paint10_linear_2018_367)"/>
<path d="M6.78806 11.5302C6.62869 11.5302 6.47869 11.4476 6.39431 11.3099C6.27244 11.0988 6.34744 10.8234 6.56306 10.6949L15.6756 5.55423C15.8912 5.43489 16.1724 5.50833 16.3037 5.71946C16.4256 5.9306 16.3506 6.20599 16.1349 6.3345L7.02244 11.4751C6.93806 11.5118 6.86306 11.5302 6.78806 11.5302Z" fill="url(#paint11_linear_2018_367)"/>
<path d="M17.9711 7.1418C15.9648 7.1418 14.3242 5.54453 14.3242 3.5709C14.3242 1.59727 15.9648 0 17.9711 0C19.9773 0 21.618 1.59727 21.618 3.5709C21.618 5.54453 19.9773 7.1418 17.9711 7.1418ZM17.9711 0.899609C16.4617 0.899609 15.243 2.10215 15.243 3.5709C15.243 5.04883 16.4711 6.24219 17.9711 6.24219C19.4711 6.24219 20.6992 5.03965 20.6992 3.5709C20.6992 2.09297 19.4805 0.899609 17.9711 0.899609Z" fill="url(#paint12_linear_2018_367)"/>
<path d="M3.64687 15.2199C1.64062 15.2199 0 13.6227 0 11.649C0 9.67539 1.63125 8.07812 3.64687 8.07812C5.6625 8.07812 7.29375 9.67539 7.29375 11.649C7.29375 13.6227 5.65312 15.2199 3.64687 15.2199ZM3.64687 8.97773C2.1375 8.97773 0.91875 10.1803 0.91875 11.649C0.91875 13.127 2.14687 14.3203 3.64687 14.3203C5.15625 14.3203 6.375 13.1178 6.375 11.649C6.375 10.1803 5.14687 8.97773 3.64687 8.97773Z" fill="url(#paint13_linear_2018_367)"/>
<path d="M3.64687 31.385C1.64062 31.385 0 29.7877 0 27.8141C0 25.8496 1.63125 24.2432 3.64687 24.2432C5.6625 24.2432 7.29375 25.8404 7.29375 27.8141C7.28438 29.7877 5.65312 31.385 3.64687 31.385ZM3.64687 25.1428C2.1375 25.1428 0.909375 26.3453 0.909375 27.8232C0.909375 29.3012 2.1375 30.4945 3.6375 30.4945C5.14687 30.4945 6.36562 29.292 6.36562 27.8232C6.375 26.3453 5.14687 25.1428 3.64687 25.1428Z" fill="url(#paint14_linear_2018_367)"/>
<path d="M17.9711 39.4728C15.9648 39.4728 14.3242 37.8756 14.3242 35.902C14.3242 33.9283 15.9555 32.3311 17.9711 32.3311C19.9773 32.3311 21.618 33.9283 21.618 35.902C21.618 37.8756 19.9773 39.4728 17.9711 39.4728ZM17.9711 33.2307C16.4617 33.2307 15.243 34.4332 15.243 35.902C15.243 37.3707 16.4711 38.5732 17.9711 38.5732C19.4711 38.5732 20.6992 37.3707 20.6992 35.902C20.6992 34.4332 19.4805 33.2307 17.9711 33.2307Z" fill="url(#paint15_linear_2018_367)"/>
<path d="M32.2953 31.385C30.2891 31.385 28.6484 29.7877 28.6484 27.8141C28.6484 25.8496 30.2797 24.2432 32.2953 24.2432C34.3016 24.2432 35.9422 25.8404 35.9422 27.8141C35.9422 29.7877 34.3109 31.385 32.2953 31.385ZM32.2953 25.1428C30.7859 25.1428 29.5672 26.3453 29.5672 27.8141C29.5672 29.292 30.7953 30.4854 32.2953 30.4854C33.8047 30.4854 35.0234 29.2828 35.0234 27.8141C35.0328 26.3453 33.8047 25.1428 32.2953 25.1428Z" fill="url(#paint16_linear_2018_367)"/>
<path d="M32.2953 15.2199C30.2891 15.2199 28.6484 13.6227 28.6484 11.649C28.6484 9.67539 30.2797 8.07812 32.2953 8.07812C34.3016 8.07812 35.9422 9.67539 35.9422 11.649C35.9422 13.6227 34.3109 15.2199 32.2953 15.2199ZM32.2953 8.97773C30.7859 8.97773 29.5672 10.1803 29.5672 11.649C29.5672 13.127 30.7953 14.3203 32.2953 14.3203C33.8047 14.3203 35.0234 13.1178 35.0234 11.649C35.0328 10.1803 33.8047 8.97773 32.2953 8.97773Z" fill="url(#paint17_linear_2018_367)"/>
<path d="M21.2539 23.959H14.7008C14.1289 23.959 13.6602 23.5 13.6602 22.94V16.5326C13.6602 15.9727 14.1289 15.5137 14.7008 15.5137H21.2539C21.8258 15.5137 22.2945 15.9727 22.2945 16.5326V22.94V22.9492C22.2852 23.5092 21.8164 23.959 21.2539 23.959ZM14.7008 16.4041C14.6164 16.4041 14.5695 16.4684 14.5695 16.5326V22.94C14.5695 23.0227 14.6352 23.0686 14.7008 23.0686H21.2539C21.3195 23.0686 21.3758 23.0043 21.3852 22.9309V16.5326C21.3852 16.45 21.3195 16.4041 21.2539 16.4041H14.7008Z" fill="url(#paint18_linear_2018_367)"/>
<path d="M15.5453 16.4041C15.2922 16.4041 15.0859 16.2021 15.0859 15.9543V13.8062C15.0859 13.5584 15.2922 13.3564 15.5453 13.3564C15.7984 13.3564 16.0047 13.5584 16.0047 13.8062V15.9543C16.0047 16.2113 15.7984 16.4041 15.5453 16.4041Z" fill="url(#paint19_linear_2018_367)"/>
<path d="M17.975 16.4041C17.7219 16.4041 17.5156 16.2021 17.5156 15.9543V13.8062C17.5156 13.5584 17.7219 13.3564 17.975 13.3564C18.2281 13.3564 18.4344 13.5584 18.4344 13.8062V15.9543C18.4344 16.2113 18.2281 16.4041 17.975 16.4041Z" fill="url(#paint20_linear_2018_367)"/>
<path d="M20.4008 16.4041C20.1477 16.4041 19.9414 16.2021 19.9414 15.9543V13.8062C19.9414 13.5584 20.1477 13.3564 20.4008 13.3564C20.6539 13.3564 20.8602 13.5584 20.8602 13.8062V15.9543C20.8602 16.2113 20.6539 16.4041 20.4008 16.4041Z" fill="url(#paint21_linear_2018_367)"/>
<path d="M14.1195 22.5637H11.9164C11.6633 22.5637 11.457 22.3617 11.457 22.1139C11.457 21.866 11.6633 21.6641 11.9164 21.6641H14.1195C14.3727 21.6641 14.5789 21.866 14.5789 22.1139C14.5695 22.3617 14.3727 22.5637 14.1195 22.5637Z" fill="url(#paint22_linear_2018_367)"/>
<path d="M14.1195 20.1867H11.9164C11.6633 20.1867 11.457 19.9848 11.457 19.7369C11.457 19.4891 11.6633 19.2871 11.9164 19.2871H14.1195C14.3727 19.2871 14.5789 19.4891 14.5789 19.7369C14.5695 19.9848 14.3727 20.1867 14.1195 20.1867Z" fill="url(#paint23_linear_2018_367)"/>
<path d="M14.1195 17.8088H11.9164C11.6633 17.8088 11.457 17.6068 11.457 17.359C11.457 17.1111 11.6633 16.9092 11.9164 16.9092H14.1195C14.3727 16.9092 14.5789 17.1111 14.5789 17.359C14.5695 17.6068 14.3727 17.8088 14.1195 17.8088Z" fill="url(#paint24_linear_2018_367)"/>
<path d="M20.4008 26.1072C20.1477 26.1072 19.9414 25.9053 19.9414 25.6574V23.5094C19.9414 23.2615 20.1477 23.0596 20.4008 23.0596C20.6539 23.0596 20.8602 23.2615 20.8602 23.5094V25.6574C20.8602 25.9053 20.6539 26.1072 20.4008 26.1072Z" fill="url(#paint25_linear_2018_367)"/>
<path d="M17.975 26.1072C17.7219 26.1072 17.5156 25.9053 17.5156 25.6574V23.5094C17.5156 23.2615 17.7219 23.0596 17.975 23.0596C18.2281 23.0596 18.4344 23.2615 18.4344 23.5094V25.6574C18.4344 25.9053 18.2281 26.1072 17.975 26.1072Z" fill="url(#paint26_linear_2018_367)"/>
<path d="M15.5453 26.1072C15.2922 26.1072 15.0859 25.9053 15.0859 25.6574V23.5094C15.0859 23.2615 15.2922 23.0596 15.5453 23.0596C15.7984 23.0596 16.0047 23.2615 16.0047 23.5094V25.6574C16.0047 25.9053 15.7984 26.1072 15.5453 26.1072Z" fill="url(#paint27_linear_2018_367)"/>
<path d="M24.0297 17.8088H21.8266C21.5734 17.8088 21.3672 17.6068 21.3672 17.359C21.3672 17.1111 21.5734 16.9092 21.8266 16.9092H24.0297C24.2828 16.9092 24.4891 17.1111 24.4891 17.359C24.4891 17.6068 24.2828 17.8088 24.0297 17.8088Z" fill="url(#paint28_linear_2018_367)"/>
<path d="M24.0297 20.1867H21.8266C21.5734 20.1867 21.3672 19.9848 21.3672 19.7369C21.3672 19.4891 21.5734 19.2871 21.8266 19.2871H24.0297C24.2828 19.2871 24.4891 19.4891 24.4891 19.7369C24.4891 19.9848 24.2828 20.1867 24.0297 20.1867Z" fill="url(#paint29_linear_2018_367)"/>
<path d="M24.0297 22.5637H21.8266C21.5734 22.5637 21.3672 22.3617 21.3672 22.1139C21.3672 21.866 21.5734 21.6641 21.8266 21.6641H24.0297C24.2828 21.6641 24.4891 21.866 24.4891 22.1139C24.4891 22.3617 24.2828 22.5637 24.0297 22.5637Z" fill="url(#paint30_linear_2018_367)"/>
<path d="M17.9734 28.8424C12.8453 28.8424 8.66406 24.7574 8.66406 19.7361C8.66406 14.7148 12.8359 10.6299 17.9734 10.6299C23.1109 10.6299 27.2828 14.7148 27.2828 19.7361C27.2828 24.7574 23.1016 28.8424 17.9734 28.8424ZM17.9734 11.5295C13.3422 11.5295 9.58281 15.2105 9.58281 19.7361C9.58281 24.2617 13.3516 27.9428 17.9734 27.9428C22.6047 27.9428 26.3641 24.2617 26.3641 19.7361C26.3641 15.2105 22.6047 11.5295 17.9734 11.5295Z" fill="url(#paint31_linear_2018_367)"/>
<path d="M19.6984 21.875H16.2484C15.9953 21.875 15.7891 21.673 15.7891 21.4252V18.0562C15.7891 17.8084 15.9953 17.6064 16.2484 17.6064H19.6984C19.9516 17.6064 20.1578 17.8084 20.1578 18.0562V21.4252C20.1578 21.673 19.9516 21.875 19.6984 21.875ZM16.6984 20.9754H19.2391V18.4969H16.6984V20.9754Z" fill="url(#paint32_linear_2018_367)"/>
<defs>
<linearGradient id="paint0_linear_2018_367" x1="20.6602" y1="6.69987" x2="30.6863" y2="6.69987" gradientUnits="userSpaceOnUse">
<stop stop-color="#075B65"/>
<stop offset="0.370192" stop-color="#00838A"/>
<stop offset="0.8125" stop-color="#328A99"/>
</linearGradient>
<linearGradient id="paint1_linear_2018_367" x1="20.6523" y1="32.7614" x2="30.6785" y2="32.7614" gradientUnits="userSpaceOnUse">
<stop stop-color="#075B65"/>
<stop offset="0.370192" stop-color="#00838A"/>
<stop offset="0.8125" stop-color="#328A99"/>
</linearGradient>
<linearGradient id="paint2_linear_2018_367" x1="2.11719" y1="19.7363" x2="3.03594" y2="19.7363" gradientUnits="userSpaceOnUse">
<stop stop-color="#075B65"/>
<stop offset="0.370192" stop-color="#00838A"/>
<stop offset="0.8125" stop-color="#328A99"/>
</linearGradient>
<linearGradient id="paint3_linear_2018_367" x1="5.27734" y1="32.7572" x2="15.3035" y2="32.7572" gradientUnits="userSpaceOnUse">
<stop stop-color="#075B65"/>
<stop offset="0.370192" stop-color="#00838A"/>
<stop offset="0.8125" stop-color="#328A99"/>
</linearGradient>
<linearGradient id="paint4_linear_2018_367" x1="32.9062" y1="19.7363" x2="33.825" y2="19.7363" gradientUnits="userSpaceOnUse">
<stop stop-color="#075B65"/>
<stop offset="0.370192" stop-color="#00838A"/>
<stop offset="0.8125" stop-color="#328A99"/>
</linearGradient>
<linearGradient id="paint5_linear_2018_367" x1="5.26562" y1="6.70504" x2="15.2917" y2="6.70504" gradientUnits="userSpaceOnUse">
<stop stop-color="#075B65"/>
<stop offset="0.370192" stop-color="#00838A"/>
<stop offset="0.8125" stop-color="#328A99"/>
</linearGradient>
<linearGradient id="paint6_linear_2018_367" x1="19.5898" y1="8.50846" x2="29.616" y2="8.50846" gradientUnits="userSpaceOnUse">
<stop stop-color="#075B65"/>
<stop offset="0.370192" stop-color="#00838A"/>
<stop offset="0.8125" stop-color="#328A99"/>
</linearGradient>
<linearGradient id="paint7_linear_2018_367" x1="19.5898" y1="30.9668" x2="29.6201" y2="30.9668" gradientUnits="userSpaceOnUse">
<stop stop-color="#075B65"/>
<stop offset="0.370192" stop-color="#00838A"/>
<stop offset="0.8125" stop-color="#328A99"/>
</linearGradient>
<linearGradient id="paint8_linear_2018_367" x1="4.25781" y1="19.7363" x2="5.17656" y2="19.7363" gradientUnits="userSpaceOnUse">
<stop stop-color="#075B65"/>
<stop offset="0.370192" stop-color="#00838A"/>
<stop offset="0.8125" stop-color="#328A99"/>
</linearGradient>
<linearGradient id="paint9_linear_2018_367" x1="6.33594" y1="30.9616" x2="16.3621" y2="30.9616" gradientUnits="userSpaceOnUse">
<stop stop-color="#075B65"/>
<stop offset="0.370192" stop-color="#00838A"/>
<stop offset="0.8125" stop-color="#328A99"/>
</linearGradient>
<linearGradient id="paint10_linear_2018_367" x1="30.7695" y1="19.7363" x2="31.6883" y2="19.7363" gradientUnits="userSpaceOnUse">
<stop stop-color="#075B65"/>
<stop offset="0.370192" stop-color="#00838A"/>
<stop offset="0.8125" stop-color="#328A99"/>
</linearGradient>
<linearGradient id="paint11_linear_2018_367" x1="6.33594" y1="8.51364" x2="16.3621" y2="8.51364" gradientUnits="userSpaceOnUse">
<stop stop-color="#075B65"/>
<stop offset="0.370192" stop-color="#00838A"/>
<stop offset="0.8125" stop-color="#328A99"/>
</linearGradient>
<linearGradient id="paint12_linear_2018_367" x1="14.3242" y1="3.5709" x2="21.618" y2="3.5709" gradientUnits="userSpaceOnUse">
<stop stop-color="#075B65"/>
<stop offset="0.370192" stop-color="#00838A"/>
<stop offset="0.8125" stop-color="#328A99"/>
</linearGradient>
<linearGradient id="paint13_linear_2018_367" x1="0" y1="11.649" x2="7.29375" y2="11.649" gradientUnits="userSpaceOnUse">
<stop stop-color="#075B65"/>
<stop offset="0.370192" stop-color="#00838A"/>
<stop offset="0.8125" stop-color="#328A99"/>
</linearGradient>
<linearGradient id="paint14_linear_2018_367" x1="0" y1="27.8141" x2="7.29375" y2="27.8141" gradientUnits="userSpaceOnUse">
<stop stop-color="#075B65"/>
<stop offset="0.370192" stop-color="#00838A"/>
<stop offset="0.8125" stop-color="#328A99"/>
</linearGradient>
<linearGradient id="paint15_linear_2018_367" x1="14.3242" y1="35.902" x2="21.618" y2="35.902" gradientUnits="userSpaceOnUse">
<stop stop-color="#075B65"/>
<stop offset="0.370192" stop-color="#00838A"/>
<stop offset="0.8125" stop-color="#328A99"/>
</linearGradient>
<linearGradient id="paint16_linear_2018_367" x1="28.6484" y1="27.8141" x2="35.9422" y2="27.8141" gradientUnits="userSpaceOnUse">
<stop stop-color="#075B65"/>
<stop offset="0.370192" stop-color="#00838A"/>
<stop offset="0.8125" stop-color="#328A99"/>
</linearGradient>
<linearGradient id="paint17_linear_2018_367" x1="28.6484" y1="11.649" x2="35.9422" y2="11.649" gradientUnits="userSpaceOnUse">
<stop stop-color="#075B65"/>
<stop offset="0.370192" stop-color="#00838A"/>
<stop offset="0.8125" stop-color="#328A99"/>
</linearGradient>
<linearGradient id="paint18_linear_2018_367" x1="13.6602" y1="19.7363" x2="22.2945" y2="19.7363" gradientUnits="userSpaceOnUse">
<stop stop-color="#075B65"/>
<stop offset="0.370192" stop-color="#00838A"/>
<stop offset="0.8125" stop-color="#328A99"/>
</linearGradient>
<linearGradient id="paint19_linear_2018_367" x1="15.0859" y1="14.8803" x2="16.0047" y2="14.8803" gradientUnits="userSpaceOnUse">
<stop stop-color="#075B65"/>
<stop offset="0.370192" stop-color="#00838A"/>
<stop offset="0.8125" stop-color="#328A99"/>
</linearGradient>
<linearGradient id="paint20_linear_2018_367" x1="17.5156" y1="14.8803" x2="18.4344" y2="14.8803" gradientUnits="userSpaceOnUse">
<stop stop-color="#075B65"/>
<stop offset="0.370192" stop-color="#00838A"/>
<stop offset="0.8125" stop-color="#328A99"/>
</linearGradient>
<linearGradient id="paint21_linear_2018_367" x1="19.9414" y1="14.8803" x2="20.8602" y2="14.8803" gradientUnits="userSpaceOnUse">
<stop stop-color="#075B65"/>
<stop offset="0.370192" stop-color="#00838A"/>
<stop offset="0.8125" stop-color="#328A99"/>
</linearGradient>
<linearGradient id="paint22_linear_2018_367" x1="11.457" y1="22.1139" x2="14.5789" y2="22.1139" gradientUnits="userSpaceOnUse">
<stop stop-color="#075B65"/>
<stop offset="0.370192" stop-color="#00838A"/>
<stop offset="0.8125" stop-color="#328A99"/>
</linearGradient>
<linearGradient id="paint23_linear_2018_367" x1="11.457" y1="19.7369" x2="14.5789" y2="19.7369" gradientUnits="userSpaceOnUse">
<stop stop-color="#075B65"/>
<stop offset="0.370192" stop-color="#00838A"/>
<stop offset="0.8125" stop-color="#328A99"/>
</linearGradient>
<linearGradient id="paint24_linear_2018_367" x1="11.457" y1="17.359" x2="14.5789" y2="17.359" gradientUnits="userSpaceOnUse">
<stop stop-color="#075B65"/>
<stop offset="0.370192" stop-color="#00838A"/>
<stop offset="0.8125" stop-color="#328A99"/>
</linearGradient>
<linearGradient id="paint25_linear_2018_367" x1="19.9414" y1="24.5834" x2="20.8602" y2="24.5834" gradientUnits="userSpaceOnUse">
<stop stop-color="#075B65"/>
<stop offset="0.370192" stop-color="#00838A"/>
<stop offset="0.8125" stop-color="#328A99"/>
</linearGradient>
<linearGradient id="paint26_linear_2018_367" x1="17.5156" y1="24.5834" x2="18.4344" y2="24.5834" gradientUnits="userSpaceOnUse">
<stop stop-color="#075B65"/>
<stop offset="0.370192" stop-color="#00838A"/>
<stop offset="0.8125" stop-color="#328A99"/>
</linearGradient>
<linearGradient id="paint27_linear_2018_367" x1="15.0859" y1="24.5834" x2="16.0047" y2="24.5834" gradientUnits="userSpaceOnUse">
<stop stop-color="#075B65"/>
<stop offset="0.370192" stop-color="#00838A"/>
<stop offset="0.8125" stop-color="#328A99"/>
</linearGradient>
<linearGradient id="paint28_linear_2018_367" x1="21.3672" y1="17.359" x2="24.4891" y2="17.359" gradientUnits="userSpaceOnUse">
<stop stop-color="#075B65"/>
<stop offset="0.370192" stop-color="#00838A"/>
<stop offset="0.8125" stop-color="#328A99"/>
</linearGradient>
<linearGradient id="paint29_linear_2018_367" x1="21.3672" y1="19.7369" x2="24.4891" y2="19.7369" gradientUnits="userSpaceOnUse">
<stop stop-color="#075B65"/>
<stop offset="0.370192" stop-color="#00838A"/>
<stop offset="0.8125" stop-color="#328A99"/>
</linearGradient>
<linearGradient id="paint30_linear_2018_367" x1="21.3672" y1="22.1139" x2="24.4891" y2="22.1139" gradientUnits="userSpaceOnUse">
<stop stop-color="#075B65"/>
<stop offset="0.370192" stop-color="#00838A"/>
<stop offset="0.8125" stop-color="#328A99"/>
</linearGradient>
<linearGradient id="paint31_linear_2018_367" x1="8.66406" y1="19.7361" x2="27.2828" y2="19.7361" gradientUnits="userSpaceOnUse">
<stop stop-color="#075B65"/>
<stop offset="0.370192" stop-color="#00838A"/>
<stop offset="0.8125" stop-color="#328A99"/>
</linearGradient>
<linearGradient id="paint32_linear_2018_367" x1="15.7891" y1="19.7407" x2="20.1578" y2="19.7407" gradientUnits="userSpaceOnUse">
<stop stop-color="#075B65"/>
<stop offset="0.370192" stop-color="#00838A"/>
<stop offset="0.8125" stop-color="#328A99"/>
</linearGradient>
</defs>
</svg>
